*
G04 Mass Parameters ***
*
G04 Image ***
*
%INE:\ANALOGEFFECTS\HW\SCHEMATIC\NEW\DESIGN_II-2.TOP*%
%ICAS*%
%MOIN*%
%IPPOS*%
%ASAXBY*%
G74*%FSLAN2X34Y34*%
*
G04 Aperture Definitions ***
*
%ADD10C,0.2100*%
%ADD11C,0.0550*%
%ADD12R,0.0550X0.0550*%
%ADD13R,0.0500X0.0500*%
%ADD14C,0.0866*%
%ADD15C,0.0580*%
%ADD16R,0.0580X0.0580*%
%ADD17C,0.1496*%
%ADD18O,0.0250X0.1000*%
%ADD19R,0.0250X0.1000*%
%ADD20C,0.1299*%
%ADD21C,0.1300*%
%ADD22C,0.0500*%
%ADD23C,0.0500*%
%ADD24C,0.0200*%
%ADD25C,0.0500*%
*
G04 Plot Data ***
*
G54D21*
G01X-0176500Y0026950D02*
G03X-0176450Y0027000I0000000J0000050D01*
G01X-0176550D02*
G03X-0176500Y0026950I0000050J0000000D01*
Y0027050D02*
G03X-0176550Y0027000I0000000J0000050D01*
G01X-0176450D02*
G03X-0176500Y0027050I0000050J0000000D01*
G01X-0088000Y0026950D02*
G03X-0087950Y0027000I0000000J0000050D01*
G01X-0088050D02*
G03X-0088000Y0026950I0000050J0000000D01*
Y0027050D02*
G03X-0088050Y0027000I0000000J0000050D01*
G01X-0087950D02*
G03X-0088000Y0027050I0000050J0000000D01*
G01X-0081500Y0051950D02*
G03X-0081450Y0052000I0000000J0000050D01*
G01X-0081550D02*
G03X-0081500Y0051950I0000050J0000000D01*
Y0052050D02*
G03X-0081550Y0052000I0000000J0000050D01*
G01X-0081450D02*
G03X-0081500Y0052050I0000050J0000000D01*
G01X-0176500Y0051950D02*
G03X-0176450Y0052000I0000000J0000050D01*
G01X-0176550D02*
G03X-0176500Y0051950I0000050J0000000D01*
Y0052050D02*
G03X-0176550Y0052000I0000000J0000050D01*
G01X-0176450D02*
G03X-0176500Y0052050I0000050J0000000D01*
G54D22*
G01X-0099750Y0034000D02*
Y0031500D01*
X-0101500Y0029750D01*
X-0102500Y0028750D01*
X-0150500D01*
X-0075000Y0029750D02*
X-0101500D01*
X-0102500Y0028750D01*
X-0150500D01*
X-0172800Y0065314D02*
Y0055050D01*
X-0170100Y0065174D02*
Y0055050D01*
X-0123078Y0066600D02*
X-0123681D01*
X-0170550Y0067250D02*
Y0067036D01*
X-0169874Y0065400D02*
X-0170197Y0065077D01*
X-0155700Y0058700D02*
Y0057800D01*
X-0130750D02*
X-0156567D01*
X-0154350Y0062264D02*
Y0061178D01*
X-0156600Y0065374D02*
Y0059800D01*
X-0158850Y0065400D02*
Y0059800D01*
X-0152100Y0067250D02*
Y0067100D01*
X-0164700Y0067250D02*
Y0067100D01*
X-0148500Y0065400D02*
Y0061550D01*
X-0147886Y0065400D02*
X-0147563Y0065077D01*
X-0164700Y0065400D02*
Y0055550D01*
X-0162668Y0066846D02*
X-0162154Y0066332D01*
X-0153900Y0067250D02*
Y0067100D01*
X-0162450Y0067250D02*
Y0066628D01*
X-0156150Y0064492D02*
Y0059800D01*
X-0156626Y0065400D02*
X-0156336Y0065111D01*
X-0144900Y0060307D02*
Y0059928D01*
X-0083250Y0046950D02*
Y0042550D01*
X-0141050Y0062100D02*
X-0141150D01*
X-0085050Y0046950D02*
Y0042550D01*
X-0107550Y0043950D02*
Y0043550D01*
X-0141750Y0067250D02*
Y0067100D01*
X-0137700Y0060700D02*
Y0059800D01*
X-0135000Y0067250D02*
Y0067100D01*
X-0142712Y0059800D02*
X-0144772D01*
X-0147600Y0065114D02*
Y0061550D01*
X-0144900Y0065374D02*
Y0061693D01*
X-0144874Y0065400D02*
X-0145197Y0065077D01*
X-0083700Y0046950D02*
Y0042550D01*
X-0142200Y0067250D02*
Y0067100D01*
X-0089550Y0045450D02*
Y0043536D01*
X-0085950Y0045329D02*
Y0042550D01*
X-0129600Y0060700D02*
Y0060646D01*
X-0089100Y0045450D02*
Y0042550D01*
X-0146078Y0066600D02*
X-0146681D01*
X-0119700Y0060700D02*
Y0060424D01*
X-0121050Y0067250D02*
Y0067100D01*
X-0111600Y0060700D02*
Y0056050D01*
X-0087750Y0045450D02*
Y0042550D01*
X-0129600Y0067250D02*
Y0067013D01*
X-0085500Y0045346D02*
Y0042550D01*
X-0126450Y0067250D02*
Y0067100D01*
X-0095400Y0045200D02*
Y0043550D01*
X-0089100Y0060450D02*
Y0059074D01*
X-0090450Y0041450D02*
Y0030450D01*
X-0103950Y0065400D02*
Y0064198D01*
X-0148950Y0044172D02*
Y0040800D01*
X-0103500Y0065400D02*
Y0065382D01*
X-0098860Y0062100D02*
X-0101639D01*
X-0103500Y0060950D02*
Y0060382D01*
X-0099626Y0065400D02*
X-0099336Y0065111D01*
X-0105681Y0065400D02*
X-0105971Y0065111D01*
X-0093600Y0045200D02*
Y0043550D01*
X-0092700Y0045079D02*
Y0043550D01*
X-0086400Y0036150D02*
Y0032943D01*
X-0142200Y0042200D02*
Y0040800D01*
X-0113400Y0067250D02*
Y0067017D01*
X-0094500Y0045200D02*
Y0043550D01*
X-0092250Y0045096D02*
Y0043550D01*
X-0108000Y0067250D02*
Y0067055D01*
X-0094500Y0060450D02*
Y0060382D01*
Y0062378D02*
Y0062050D01*
X-0081832Y0066846D02*
X-0082380Y0066298D01*
X-0089100Y0067250D02*
Y0067100D01*
X-0106200Y0067250D02*
Y0067083D01*
X-0118800Y0030487D02*
Y0029450D01*
X-0109350Y0028050D02*
Y0024750D01*
X-0119250Y0030300D02*
Y0029450D01*
X-0103050Y0032700D02*
Y0029450D01*
X-0083886Y0065400D02*
X-0083563Y0065077D01*
X-0099450Y0065224D02*
Y0059050D01*
X-0096750Y0065331D02*
Y0061990D01*
X-0096681Y0065400D02*
X-0096971Y0065111D01*
X-0092626Y0065400D02*
X-0092336Y0065111D01*
X-0078750Y0060700D02*
Y0060247D01*
X-0079650Y0065400D02*
Y0061800D01*
X-0075668Y0066846D02*
X-0075134Y0066313D01*
X-0071100Y0064368D02*
Y0063510D01*
X-0083700Y0065214D02*
Y0061800D01*
X-0097200Y0067250D02*
Y0067083D01*
X-0068250Y0064350D02*
X-0070240D01*
X-0078750Y0067250D02*
Y0067100D01*
X-0069850Y0047940D02*
Y0047375D01*
Y0050850D02*
X-0074490D01*
X-0073350Y0044912D02*
Y0042550D01*
X-0076050Y0045090D02*
Y0042550D01*
X-0142650Y0042200D02*
Y0040800D01*
X-0068850Y0045971D02*
Y0037916D01*
X-0072450Y0059950D02*
Y0055100D01*
X-0121950Y0031272D02*
Y0029450D01*
X-0070469Y0047776D02*
X-0070631Y0047614D01*
X-0141750Y0038450D02*
Y0037800D01*
X-0074700Y0049567D02*
Y0049229D01*
X-0087975Y0036025D02*
X-0088150D01*
X-0069975Y0047250D02*
X-0075596D01*
X-0135900Y0029700D02*
Y0029450D01*
X-0135450Y0029700D02*
Y0029450D01*
X-0122575Y0040050D02*
X-0122950D01*
X-0088642Y0032636D02*
X-0089053Y0032225D01*
X-0089725D02*
Y0030775D01*
X-0088275D02*
X-0089725D01*
X-0143550Y0042200D02*
Y0040800D01*
X-0090025Y0036025D02*
Y0033975D01*
X-0087975D02*
X-0090025D01*
X-0087975Y0036025D02*
Y0033975D01*
X-0086850Y0052450D02*
Y0052050D01*
X-0068250Y0067250D02*
X-0180000D01*
X-0068250Y0024750D02*
X-0180000D01*
Y0067250D02*
Y0024750D01*
X-0068404Y0046417D02*
X-0069187Y0045634D01*
X-0069850Y0049500D02*
X-0070118D01*
X-0074700Y0045078D02*
Y0042550D01*
X-0069300Y0036001D02*
Y0024750D01*
X-0071100Y0052222D02*
Y0049150D01*
X-0073659Y0049050D02*
X-0074581D01*
X-0073800Y0047450D02*
Y0042550D01*
X-0071100Y0026371D02*
Y0024750D01*
X-0071550Y0026303D02*
Y0024750D01*
X-0072900Y0028290D02*
Y0024750D01*
X-0079650Y0067250D02*
Y0067100D01*
X-0073679Y0033300D02*
X-0074561D01*
X-0101999Y0030241D02*
X-0102790Y0029450D01*
X-0165600Y0030267D02*
Y0024750D01*
X-0081450Y0067250D02*
Y0067070D01*
X-0092290Y0064800D02*
X-0092834D01*
X-0152100Y0044450D02*
Y0040800D01*
X-0075600Y0029050D02*
Y0024750D01*
X-0076950Y0029050D02*
Y0024750D01*
X-0077400Y0029050D02*
Y0024750D01*
X-0089550Y0033975D02*
Y0032225D01*
X-0077850Y0029050D02*
Y0024750D01*
X-0078300Y0029050D02*
Y0024750D01*
X-0078750Y0029050D02*
Y0024750D01*
X-0079200Y0029050D02*
Y0024750D01*
X-0069850Y0047375D02*
X-0070389Y0046836D01*
X-0142650Y0038450D02*
Y0037800D01*
X-0121490Y0040500D02*
X-0123010D01*
X-0082350Y0029050D02*
Y0024750D01*
X-0082800Y0029050D02*
Y0024750D01*
X-0083250Y0029050D02*
Y0024750D01*
X-0083700Y0029050D02*
Y0024750D01*
X-0087360Y0062100D02*
X-0090447D01*
X-0085500Y0065400D02*
Y0061800D01*
X-0144900Y0042200D02*
Y0040800D01*
X-0081900Y0029050D02*
Y0024750D01*
X-0086850Y0026037D02*
Y0024750D01*
X-0087300Y0025673D02*
Y0024750D01*
X-0087750Y0025521D02*
Y0024750D01*
X-0084600Y0029050D02*
Y0024750D01*
X-0095400Y0029050D02*
Y0024750D01*
X-0092033Y0062550D02*
X-0092774D01*
X-0091991Y0059850D02*
X-0092816D01*
X-0086400Y0046950D02*
Y0046550D01*
X-0069777Y0036150D02*
X-0088148D01*
X-0092860Y0046350D02*
X-0098066D01*
X-0105750Y0028050D02*
Y0024750D01*
X-0129150Y0060700D02*
Y0060646D01*
X-0090900Y0029050D02*
Y0024750D01*
X-0091350Y0029050D02*
Y0024750D01*
X-0092700Y0029050D02*
Y0024750D01*
X-0093150Y0029050D02*
Y0024750D01*
X-0093600Y0029050D02*
Y0024750D01*
X-0094050Y0029050D02*
Y0024750D01*
X-0102150Y0067250D02*
Y0067100D01*
X-0162900Y0067250D02*
Y0067013D01*
X-0111150Y0060700D02*
Y0056050D01*
X-0095400Y0041450D02*
Y0030450D01*
X-0142200Y0038450D02*
Y0037800D01*
X-0096300Y0029050D02*
Y0024750D01*
X-0097200Y0029050D02*
Y0024750D01*
X-0097650Y0029050D02*
Y0024750D01*
X-0098100Y0029050D02*
Y0024750D01*
X-0098550Y0029050D02*
Y0024750D01*
X-0089681Y0065400D02*
X-0089971Y0065111D01*
X-0102600Y0043950D02*
Y0043550D01*
X-0099000Y0029050D02*
Y0024750D01*
X-0102600Y0028050D02*
Y0024750D01*
X-0109350Y0067250D02*
Y0067100D01*
X-0107991Y0059850D02*
X-0108816D01*
X-0103500Y0028050D02*
Y0024750D01*
X-0104850Y0028050D02*
Y0024750D01*
X-0151650Y0065400D02*
Y0061550D01*
X-0105300Y0028050D02*
Y0024750D01*
X-0173700Y0053950D02*
Y0024750D01*
X-0119700Y0059769D02*
Y0056050D01*
X-0109350Y0042450D02*
Y0029450D01*
X-0121500Y0058596D02*
Y0056050D01*
X-0109800Y0028050D02*
Y0024750D01*
X-0102933Y0032700D02*
X-0104817D01*
X-0113850Y0067250D02*
Y0066636D01*
X-0104850Y0043950D02*
Y0043550D01*
X-0085950Y0029050D02*
Y0024750D01*
X-0068250Y0027000D02*
X-0070411D01*
X-0111600Y0028050D02*
Y0024750D01*
X-0112800Y0031700D02*
Y0031550D01*
X-0155250Y0029200D02*
Y0024750D01*
X-0136350Y0060700D02*
Y0059800D01*
X-0118350Y0028050D02*
Y0024750D01*
X-0119250Y0028050D02*
Y0024750D01*
X-0165150Y0065400D02*
Y0055550D01*
X-0120150Y0028050D02*
Y0024750D01*
X-0124200Y0028050D02*
Y0024750D01*
X-0125100Y0028050D02*
Y0024750D01*
X-0126000Y0028050D02*
Y0024750D01*
X-0122832Y0066846D02*
X-0123380Y0066298D01*
X-0150750Y0058700D02*
Y0057800D01*
X-0145800Y0067250D02*
Y0066877D01*
X-0139078Y0066600D02*
X-0139681D01*
X-0153000Y0065400D02*
Y0061550D01*
X-0165600Y0065400D02*
Y0055550D01*
X-0132750Y0028050D02*
Y0024750D01*
X-0133200Y0028050D02*
Y0024750D01*
Y0056700D02*
Y0056550D01*
X-0144900Y0067250D02*
Y0067100D01*
X-0098550Y0044464D02*
Y0043550D01*
X-0101640Y0030600D02*
X-0110175D01*
X-0134550Y0029700D02*
Y0029450D01*
X-0138513Y0067050D02*
X-0140246D01*
X-0156290Y0064800D02*
X-0156834D01*
X-0137700Y0028050D02*
Y0024750D01*
X-0138150Y0028050D02*
Y0024750D01*
X-0139500Y0028050D02*
Y0024750D01*
X-0139950Y0028050D02*
Y0024750D01*
X-0140400Y0028050D02*
Y0024750D01*
X-0140850Y0028050D02*
Y0024750D01*
X-0145350Y0038450D02*
Y0037800D01*
X-0133650Y0067250D02*
Y0067100D01*
X-0168300Y0067250D02*
Y0067100D01*
X-0131850Y0067250D02*
Y0067100D01*
X-0117928Y0030150D02*
X-0133307D01*
X-0144900Y0036700D02*
Y0033300D01*
X-0145800Y0036579D02*
Y0033300D01*
X-0147150Y0028050D02*
Y0024750D01*
X-0151360Y0062100D02*
X-0154447D01*
X-0147600Y0028050D02*
Y0024750D01*
X-0148950Y0028050D02*
Y0024750D01*
X-0157074Y0030150D02*
X-0180000D01*
X-0152100Y0029200D02*
Y0024750D01*
X-0152550Y0029200D02*
Y0024750D01*
X-0156600Y0067250D02*
Y0067100D01*
X-0156033Y0062550D02*
X-0156774D01*
X-0155991Y0059850D02*
X-0156816D01*
X-0138150Y0038450D02*
Y0037800D01*
X-0153450Y0029200D02*
Y0024750D01*
X-0173296Y0033300D02*
X-0180000D01*
X-0179262Y0062550D02*
X-0180000D01*
X-0155700Y0029200D02*
Y0024750D01*
X-0156150Y0029144D02*
Y0024750D01*
X-0157950Y0030412D02*
Y0024750D01*
X-0126000Y0039200D02*
Y0038300D01*
X-0158850Y0030348D02*
Y0024750D01*
X-0159300Y0030287D02*
Y0024750D01*
X-0159750Y0030303D02*
Y0024750D01*
X-0162000Y0067250D02*
Y0066486D01*
X-0160200Y0030323D02*
Y0024750D01*
X-0179525Y0064800D02*
X-0180000D01*
X-0158473Y0059800D02*
X-0161334D01*
X-0160650Y0030275D02*
Y0024750D01*
X-0162900Y0030377D02*
Y0024750D01*
X-0166500Y0030260D02*
Y0024750D01*
X-0163800Y0030323D02*
Y0024750D01*
X-0164250Y0030303D02*
Y0024750D01*
X-0164700Y0030287D02*
Y0024750D01*
X-0171928Y0066846D02*
X-0171380Y0066298D01*
X-0163350Y0033950D02*
Y0032724D01*
X-0156990Y0029250D02*
X-0180000D01*
X-0166950Y0030412D02*
Y0024750D01*
X-0168240Y0032740D02*
Y0032693D01*
X-0167850Y0030348D02*
Y0024750D01*
X-0168300Y0030287D02*
Y0024750D01*
X-0166950Y0033950D02*
Y0032740D01*
X-0168750Y0033950D02*
Y0032696D01*
X-0174600Y0067250D02*
Y0067100D01*
X-0141461Y0063900D02*
X-0180000D01*
X-0169200Y0033950D02*
Y0032240D01*
X-0171450Y0032106D02*
Y0024750D01*
X-0172800Y0067250D02*
Y0067100D01*
X-0178973Y0060750D02*
X-0180000D01*
X-0171900Y0031708D02*
Y0024750D01*
X-0173250Y0053950D02*
Y0049965D01*
X-0177986Y0052200D02*
X-0180000D01*
X-0172800Y0031686D02*
Y0024750D01*
X-0175050Y0026616D02*
Y0024750D01*
X-0174600Y0053959D02*
Y0024750D01*
X-0175950Y0025604D02*
Y0024750D01*
X-0176400Y0025503D02*
Y0024750D01*
X-0177300Y0064613D02*
Y0053269D01*
X-0179165Y0063000D02*
X-0180000D01*
X-0179239Y0060300D02*
X-0180000D01*
X-0178000Y0027000D02*
X-0180000D01*
X-0177826Y0051300D02*
X-0180000D01*
X-0177513Y0067050D02*
X-0180000D01*
X-0178200Y0067250D02*
Y0066478D01*
X-0075600Y0067250D02*
Y0066778D01*
X-0086400Y0039700D02*
Y0038800D01*
X-0116550Y0067250D02*
Y0067100D01*
X-0076050Y0029050D02*
Y0024750D01*
X-0082928Y0066846D02*
X-0082380Y0066298D01*
X-0092250Y0029050D02*
Y0024750D01*
X-0108900Y0067250D02*
Y0067100D01*
X-0096610Y0062100D02*
X-0097447D01*
X-0145433Y0061550D02*
X-0153750D01*
X-0179110Y0062100D02*
X-0180000D01*
X-0081450Y0057700D02*
Y0053499D01*
X-0094520Y0060300D02*
X-0095964D01*
X-0076500Y0029050D02*
Y0024750D01*
X-0122183Y0058700D02*
X-0128000D01*
X-0108000Y0059878D02*
Y0056050D01*
X-0107536Y0058950D02*
X-0121117D01*
X-0130978Y0056700D02*
X-0156567D01*
X-0156600Y0058700D02*
Y0057824D01*
X-0076050Y0036150D02*
Y0034217D01*
X-0129150Y0058566D02*
Y0056428D01*
X-0073350Y0052412D02*
Y0049395D01*
X-0072900Y0044771D02*
Y0042550D01*
X-0168448Y0055800D02*
X-0180000D01*
X-0177520Y0053100D02*
X-0180000D01*
X-0158728Y0053550D02*
X-0180000D01*
X-0171740Y0047250D02*
X-0180000D01*
X-0173261Y0049950D02*
X-0180000D01*
X-0075600Y0032801D02*
Y0030450D01*
X-0155978Y0047700D02*
X-0180000D01*
X-0070650Y0026656D02*
Y0024750D01*
X-0074468Y0054000D02*
X-0075119D01*
X-0075600Y0044801D02*
Y0042550D01*
X-0135900Y0058700D02*
Y0057800D01*
X-0118800Y0059217D02*
Y0056050D01*
X-0098550Y0059341D02*
Y0059050D01*
X-0147978Y0043200D02*
X-0180000D01*
X-0148154Y0042750D02*
X-0180000D01*
X-0113750Y0041800D02*
X-0113802D01*
X-0070200Y0032787D02*
Y0024750D01*
X-0121978Y0038300D02*
X-0122022D01*
X-0134100Y0042200D02*
Y0040800D01*
X-0072000Y0036150D02*
Y0033804D01*
X-0075600Y0036150D02*
Y0034506D01*
X-0154699Y0037579D02*
X-0157228Y0035050D01*
X-0155036Y0037800D02*
X-0180000D01*
X-0154928Y0037350D02*
X-0180000D01*
X-0089100Y0025980D02*
Y0024750D01*
X-0126176Y0034200D02*
X-0133250D01*
X-0170934Y0034650D02*
X-0180000D01*
X-0068250Y0029700D02*
X-0071506D01*
X-0151650Y0029200D02*
Y0024750D01*
X-0088650Y0029050D02*
Y0028352D01*
X-0118800Y0028050D02*
Y0024750D01*
X-0105740Y0033750D02*
X-0112803D01*
X-0122183Y0059800D02*
X-0122548D01*
X-0073350Y0028474D02*
Y0024750D01*
X-0115200Y0028050D02*
Y0024750D01*
X-0071550Y0060172D02*
Y0055076D01*
X-0151198Y0028800D02*
X-0180000D01*
X-0177154Y0028350D02*
X-0180000D01*
X-0176850Y0025541D02*
Y0024750D01*
X-0177300Y0025731D02*
Y0024750D01*
X-0179550Y0064921D02*
Y0024750D01*
X-0177931Y0026550D02*
X-0180000D01*
X-0177154Y0025650D02*
X-0180000D01*
X-0179100Y0067250D02*
Y0066035D01*
X-0167850Y0053950D02*
Y0051740D01*
X-0137250Y0036700D02*
Y0033450D01*
X-0168240Y0051740D02*
Y0051693D01*
X-0158850Y0053950D02*
Y0053428D01*
X-0166500Y0033950D02*
Y0032740D01*
X-0164250Y0033950D02*
Y0032696D01*
X-0165150Y0053950D02*
Y0051652D01*
X-0162900Y0033950D02*
Y0032740D01*
X-0165600Y0053950D02*
Y0051733D01*
X-0163800Y0033950D02*
Y0032676D01*
X-0161760Y0051740D02*
X-0163240D01*
X-0142650Y0028050D02*
Y0024750D01*
X-0161760Y0051740D02*
Y0051693D01*
X-0162450Y0053950D02*
Y0051740D01*
X-0131850Y0056700D02*
Y0056550D01*
X-0164700Y0053950D02*
Y0051712D01*
X-0164250Y0053950D02*
Y0051696D01*
X-0160528Y0051750D02*
X-0175021D01*
X-0162000Y0053950D02*
Y0051740D01*
X-0163240D02*
Y0051693D01*
X-0163350Y0053950D02*
Y0051724D01*
X-0159300Y0053950D02*
Y0052978D01*
X-0068250Y0031950D02*
X-0076302D01*
X-0160650Y0033950D02*
Y0033800D01*
X-0163800Y0053950D02*
Y0051676D01*
X-0162900Y0053950D02*
Y0051740D01*
X-0166500Y0053950D02*
Y0051740D01*
X-0171900Y0053950D02*
Y0050291D01*
X-0153450Y0058700D02*
Y0057800D01*
X-0110700Y0028050D02*
Y0024750D01*
X-0157328Y0049050D02*
X-0171304D01*
X-0160078Y0052200D02*
X-0175013D01*
X-0171045Y0049500D02*
X-0171294D01*
X-0153900Y0058700D02*
Y0057800D01*
X-0162636Y0059358D02*
X-0162142Y0058864D01*
X-0169122Y0032400D02*
X-0171317D01*
X-0160200Y0053950D02*
Y0052078D01*
X-0171900Y0044316D02*
Y0033691D01*
X-0117228Y0029450D02*
X-0146867D01*
X-0147600Y0038450D02*
Y0033934D01*
X-0161550Y0053950D02*
Y0051738D01*
Y0058700D02*
Y0055550D01*
X-0171450Y0053950D02*
Y0049894D01*
X-0100350Y0065400D02*
Y0059050D01*
X-0173250Y0048634D02*
Y0033365D01*
X-0083250Y0036150D02*
Y0032550D01*
X-0112500Y0039096D02*
Y0037528D01*
X-0159628Y0052650D02*
X-0175148D01*
X-0082350Y0036150D02*
Y0032550D01*
X-0089106Y0037596D02*
X-0089596Y0037106D01*
X-0149400Y0038450D02*
Y0033800D01*
X-0157050Y0030412D02*
Y0030183D01*
X-0148950Y0038450D02*
Y0033800D01*
X-0121950Y0037200D02*
Y0035728D01*
X-0140478Y0061200D02*
X-0144329D01*
X-0121200Y0036450D02*
X-0122672D01*
X-0129600Y0039200D02*
Y0038300D01*
X-0121200Y0036900D02*
X-0123122D01*
X-0125550Y0039200D02*
Y0038300D01*
X-0148683Y0051450D02*
X-0148912D01*
X-0126450Y0039200D02*
Y0038300D01*
X-0135000Y0038450D02*
Y0037990D01*
X-0134100Y0038450D02*
Y0038300D01*
X-0169238Y0031050D02*
X-0180000D01*
X-0169045Y0031500D02*
X-0180000D01*
X-0165150Y0033950D02*
Y0032652D01*
X-0166760Y0032740D02*
X-0168240D01*
X-0167400Y0033950D02*
Y0032740D01*
X-0169200Y0031760D02*
Y0031240D01*
X-0166760Y0032740D02*
Y0032693D01*
X-0175500Y0025882D02*
Y0024750D01*
X-0173464Y0032850D02*
X-0180000D01*
X-0165600Y0033950D02*
Y0032733D01*
X-0143100Y0028050D02*
Y0024750D01*
X-0168750Y0030303D02*
Y0024750D01*
X-0165150Y0030348D02*
Y0024750D01*
X-0167400Y0030267D02*
Y0024750D01*
X-0173179Y0031950D02*
X-0180000D01*
X-0148950Y0050505D02*
Y0050495D01*
X-0168750Y0053950D02*
Y0051696D01*
X-0161550Y0033950D02*
Y0033711D01*
X-0129150Y0039200D02*
Y0038300D01*
X-0161479Y0033750D02*
X-0172049D01*
X-0092700Y0060450D02*
Y0059050D01*
X-0148183Y0033800D02*
X-0161250D01*
X-0163240Y0032740D02*
Y0032693D01*
X-0159300Y0033950D02*
Y0033800D01*
X-0157050Y0033950D02*
Y0033800D01*
X-0147150Y0038450D02*
Y0033610D01*
Y0058644D02*
Y0057800D01*
X-0161642Y0033636D02*
X-0162538Y0032740D01*
X-0162000Y0033950D02*
Y0033278D01*
X-0162428Y0032850D02*
X-0171286D01*
X-0155250Y0035472D02*
Y0033800D01*
X-0158400Y0030267D02*
Y0024750D01*
X-0162538Y0032740D02*
X-0163240D01*
X-0084600Y0039700D02*
Y0038800D01*
X-0156600Y0034122D02*
Y0033800D01*
X-0087300Y0039617D02*
Y0039198D01*
X-0172350Y0053950D02*
Y0050399D01*
X-0169122Y0030600D02*
X-0180000D01*
X-0157500Y0033950D02*
Y0033800D01*
X-0086850Y0041450D02*
Y0040934D01*
X-0155700Y0035022D02*
Y0033800D01*
X-0148500Y0032200D02*
Y0030800D01*
X-0158400Y0033950D02*
Y0033800D01*
X-0157950Y0033950D02*
Y0033800D01*
X-0156600Y0044450D02*
Y0035678D01*
X-0137183Y0036700D02*
X-0145567D01*
X-0083700Y0041450D02*
Y0040800D01*
X-0084150Y0041450D02*
Y0040800D01*
X-0158850Y0033950D02*
Y0033800D01*
X-0145478Y0058950D02*
X-0146867D01*
X-0150750Y0028096D02*
Y0024750D01*
X-0084600Y0041450D02*
Y0040800D01*
X-0152100Y0038450D02*
Y0033800D01*
X-0131400Y0030700D02*
Y0029450D01*
X-0153900Y0029200D02*
Y0024750D01*
X-0150750Y0038450D02*
Y0033800D01*
X-0146250Y0028050D02*
Y0024750D01*
X-0089725Y0031050D02*
X-0099214D01*
X-0081450Y0041450D02*
Y0040800D01*
X-0082800Y0036150D02*
Y0032550D01*
X-0084606Y0055350D02*
X-0101894D01*
X-0139950Y0036700D02*
Y0033300D01*
X-0144450Y0036700D02*
Y0033300D01*
X-0140400Y0036700D02*
Y0033300D01*
X-0151200Y0038450D02*
Y0033800D01*
X-0139050Y0036700D02*
Y0033300D01*
X-0153000Y0029200D02*
Y0024750D01*
X-0138150Y0036700D02*
Y0033300D01*
X-0139500Y0036700D02*
Y0033300D01*
X-0120200Y0030600D02*
X-0133394D01*
X-0101700Y0065400D02*
Y0062132D01*
X-0135000Y0058700D02*
Y0057800D01*
X-0076218Y0045900D02*
X-0085057D01*
X-0144450Y0028050D02*
Y0024750D01*
X-0095850Y0046950D02*
Y0046300D01*
X-0092250Y0041450D02*
Y0030450D01*
X-0127800Y0042200D02*
Y0040800D01*
X-0095400Y0046950D02*
Y0046300D01*
X-0091800Y0041450D02*
Y0030450D01*
X-0140850Y0032200D02*
Y0030800D01*
X-0140400Y0032200D02*
Y0030800D01*
X-0137700Y0032200D02*
Y0030800D01*
X-0119642Y0042136D02*
X-0120478Y0041300D01*
X-0119928Y0041850D02*
X-0120471D01*
X-0094950Y0065400D02*
Y0062050D01*
X-0145800Y0028050D02*
Y0024750D01*
X-0139500Y0032200D02*
Y0030800D01*
X-0100421Y0034200D02*
X-0113260D01*
X-0117900Y0060700D02*
Y0056050D01*
X-0092700Y0041450D02*
Y0030450D01*
X-0135450Y0031079D02*
Y0030800D01*
X-0112500Y0060700D02*
Y0056050D01*
X-0090450Y0045302D02*
Y0043550D01*
X-0144450Y0058700D02*
Y0057800D01*
X-0114250Y0039050D02*
X-0116430D01*
X-0165150Y0049348D02*
Y0047300D01*
X-0161100Y0049377D02*
Y0047300D01*
X-0116425Y0039564D02*
Y0039125D01*
X-0090260Y0043650D02*
X-0099389D01*
X-0144450Y0056700D02*
Y0056550D01*
X-0121728Y0038550D02*
X-0122272D01*
X-0122575Y0040450D02*
Y0038853D01*
X-0078300Y0031450D02*
Y0030450D01*
X-0136800Y0029700D02*
Y0029450D01*
X-0135000Y0028050D02*
Y0024750D01*
X-0163800Y0044450D02*
Y0035050D01*
X-0133650Y0034372D02*
Y0031800D01*
X-0142650Y0058700D02*
Y0057800D01*
X-0148950Y0056700D02*
Y0056550D01*
X-0150750Y0056700D02*
Y0056550D01*
X-0150300Y0056700D02*
Y0056550D01*
X-0144000Y0058700D02*
Y0057800D01*
X-0124650Y0058700D02*
Y0056050D01*
X-0153028Y0040500D02*
X-0180000D01*
X-0120150Y0060700D02*
Y0056050D01*
X-0106200Y0060700D02*
Y0059050D01*
X-0079200Y0046950D02*
Y0042550D01*
X-0143100Y0032200D02*
Y0030800D01*
X-0104850Y0060950D02*
Y0059050D01*
X-0107550Y0028050D02*
Y0024750D01*
X-0124328Y0041700D02*
X-0124636Y0041392D01*
X-0131400Y0058700D02*
Y0057800D01*
X-0099450Y0043617D02*
Y0043550D01*
X-0152550Y0058700D02*
Y0057800D01*
X-0110700Y0060700D02*
Y0056050D01*
X-0148050Y0058700D02*
Y0057800D01*
X-0155250Y0058700D02*
Y0057800D01*
X-0105522Y0060950D02*
X-0105608Y0060864D01*
X-0153000Y0058700D02*
Y0057800D01*
X-0139050Y0058700D02*
Y0057800D01*
X-0137700Y0058700D02*
Y0057800D01*
X-0127800Y0028050D02*
Y0024750D01*
X-0129578Y0043800D02*
X-0133422D01*
X-0168934Y0045900D02*
X-0180000D01*
X-0104400Y0043950D02*
Y0043550D01*
X-0148500Y0051346D02*
Y0049800D01*
X-0083700Y0054367D02*
Y0051728D01*
X-0117000Y0060700D02*
Y0056050D01*
X-0101190Y0031050D02*
X-0110052D01*
X-0141300Y0032200D02*
Y0030800D01*
X-0121500Y0041200D02*
Y0040479D01*
X-0168300Y0049287D02*
Y0047300D01*
X-0171450Y0044367D02*
Y0033294D01*
X-0125196Y0033750D02*
X-0147260D01*
X-0124200Y0030700D02*
Y0029450D01*
X-0162900Y0049377D02*
Y0047300D01*
X-0128250Y0030700D02*
Y0029450D01*
X-0120048Y0032540D02*
X-0120200D01*
X-0138600Y0056700D02*
Y0056550D01*
X-0120428Y0034650D02*
X-0120760D01*
X-0163800Y0049323D02*
Y0047300D01*
X-0119250Y0033803D02*
Y0033528D01*
X-0120200Y0032540D02*
Y0031700D01*
X-0118800Y0030300D02*
X-0120200D01*
Y0031700D02*
Y0031140D01*
X-0121200Y0036300D02*
Y0035460D01*
X-0164700Y0049287D02*
Y0047300D01*
X-0121200Y0036860D02*
Y0036300D01*
X-0081000Y0029050D02*
Y0024750D01*
X-0148050Y0042067D02*
Y0040800D01*
X-0068250Y0037800D02*
X-0068650D01*
X-0072697Y0027450D02*
X-0086569D01*
X-0072450Y0028293D02*
Y0028230D01*
X-0076064Y0034200D02*
X-0087975D01*
X-0160200Y0049323D02*
Y0047300D01*
X-0071550Y0029074D02*
Y0028697D01*
X-0068250Y0033750D02*
X-0069492D01*
X-0068250Y0027900D02*
X-0070371D01*
X-0112800Y0032540D02*
X-0112951D01*
X-0072900Y0032771D02*
Y0030646D01*
X-0068250Y0034200D02*
X-0069676D01*
X-0113740D02*
X-0113823D01*
X-0075150Y0036150D02*
Y0034509D01*
X-0070200Y0036150D02*
Y0034520D01*
X-0120760Y0034982D02*
X-0120239Y0034461D01*
X-0073564Y0034200D02*
X-0074676D01*
X-0093150Y0057950D02*
Y0053550D01*
X-0120740Y0034200D02*
X-0120760D01*
X-0069750Y0036134D02*
Y0034282D01*
X-0073111Y0028350D02*
X-0087346D01*
X-0120200Y0032400D02*
X-0120822D01*
X-0119924Y0032850D02*
X-0120146D01*
X-0073236D02*
X-0075004D01*
X-0071100Y0036150D02*
Y0034150D01*
X-0070736Y0032850D02*
X-0072504D01*
X-0093600Y0059248D02*
Y0059050D01*
X-0121500Y0028050D02*
Y0024750D01*
X-0123750Y0038472D02*
Y0037490D01*
X-0146700Y0056700D02*
Y0056550D01*
X-0120200Y0031950D02*
X-0121272D01*
X-0120176Y0034200D02*
X-0120260D01*
X-0148050Y0056700D02*
Y0056550D01*
X-0147150Y0041894D02*
Y0040800D01*
X-0120984Y0035240D02*
X-0121462D01*
X-0130050Y0039200D02*
Y0038300D01*
X-0128250Y0034200D02*
Y0033450D01*
X-0138150Y0056700D02*
Y0056550D01*
X-0071248Y0033750D02*
X-0071992D01*
X-0070200Y0040287D02*
Y0039020D01*
X-0094500Y0046950D02*
Y0046300D01*
X-0140850Y0029700D02*
Y0029450D01*
X-0145350Y0029700D02*
Y0029450D01*
X-0120614Y0041608D02*
X-0120858Y0041364D01*
X-0126739Y0060300D02*
X-0128272D01*
X-0132961Y0044261D02*
X-0133422Y0043800D01*
X-0169200Y0046200D02*
Y0045550D01*
X-0135450Y0058700D02*
Y0057800D01*
X-0069187Y0053172D02*
X-0068404Y0052389D01*
X-0102150Y0028144D02*
Y0024750D01*
X-0077400Y0046950D02*
Y0042550D01*
X-0129150Y0030700D02*
Y0029450D01*
X-0080550Y0046950D02*
Y0042550D01*
X-0109800Y0042450D02*
Y0029450D01*
X-0097200Y0046950D02*
Y0046300D01*
X-0105300Y0060950D02*
Y0059050D01*
X-0119728Y0059850D02*
X-0121389D01*
X-0129600Y0030700D02*
Y0029450D01*
X-0128700Y0030700D02*
Y0029450D01*
X-0155828Y0036450D02*
X-0180000D01*
X-0113800Y0036860D02*
Y0036300D01*
X-0073748Y0033750D02*
X-0074492D01*
X-0081000Y0036150D02*
Y0032550D01*
X-0068850Y0036083D02*
Y0024750D01*
X-0128406Y0058879D02*
X-0128392Y0058864D01*
X-0071024Y0047450D02*
X-0075552D01*
X-0137250Y0060700D02*
Y0059800D01*
X-0084250Y0052050D02*
X-0090579D01*
X-0068250Y0032850D02*
X-0070004D01*
X-0141750Y0058700D02*
Y0057800D01*
X-0118700Y0030539D02*
Y0030300D01*
X-0115650Y0028050D02*
Y0024750D01*
X-0130950Y0056672D02*
Y0055978D01*
X-0103050Y0042450D02*
Y0033800D01*
X-0158850Y0049348D02*
Y0047300D01*
X-0158400Y0049267D02*
Y0047300D01*
X-0157500Y0049222D02*
Y0047300D01*
X-0156150Y0034572D02*
Y0033800D01*
X-0068250Y0056250D02*
X-0128972D01*
X-0169650Y0044450D02*
Y0035050D01*
X-0138600Y0038450D02*
Y0037800D01*
X-0157539Y0049261D02*
X-0155578Y0047300D01*
X-0157950Y0049412D02*
Y0047300D01*
X-0131850Y0042200D02*
Y0040800D01*
X-0089100Y0046950D02*
Y0046550D01*
X-0076500Y0031510D02*
Y0030450D01*
X-0145350Y0056700D02*
Y0056550D01*
X-0162000Y0044450D02*
Y0035050D01*
X-0154800Y0056700D02*
Y0056050D01*
X-0157500Y0044450D02*
Y0035050D01*
X-0146700Y0059273D02*
Y0057800D01*
X-0152100Y0056700D02*
Y0056574D01*
X-0132300Y0042200D02*
Y0040800D01*
X-0159750Y0053950D02*
Y0052528D01*
X-0149850Y0044450D02*
Y0040800D01*
X-0164700Y0044450D02*
Y0035050D01*
X-0159300Y0044450D02*
Y0035050D01*
X-0142200Y0058700D02*
Y0057800D01*
X-0102150Y0059405D02*
Y0059050D01*
X-0167400Y0044450D02*
Y0035050D01*
X-0154350Y0056700D02*
Y0056050D01*
X-0153900Y0044450D02*
Y0039628D01*
X-0130500Y0034200D02*
Y0032800D01*
X-0131850Y0028050D02*
Y0024750D01*
X-0129600Y0034200D02*
Y0032800D01*
X-0135333Y0031055D02*
X-0135142Y0030864D01*
X-0132642Y0032636D02*
X-0132833Y0032445D01*
X-0170882Y0034200D02*
X-0180000D01*
X-0151200Y0056700D02*
Y0056550D01*
X-0071550Y0036150D02*
Y0029862D01*
X-0072900Y0036150D02*
Y0034536D01*
X-0162000Y0058760D02*
Y0055550D01*
X-0142650Y0056700D02*
Y0056550D01*
X-0141750Y0056700D02*
Y0056550D01*
X-0086228Y0053550D02*
X-0097302D01*
X-0149400Y0028050D02*
Y0024750D01*
X-0171000Y0049454D02*
Y0047404D01*
X-0120150Y0032848D02*
Y0032540D01*
X-0132750Y0056700D02*
Y0056550D01*
X-0119239Y0033539D02*
X-0119886Y0032892D01*
X-0120200Y0031140D02*
Y0030300D01*
X-0130978Y0056700D02*
X-0156567D01*
X-0079200Y0031450D02*
Y0030450D01*
X-0112950Y0028050D02*
Y0024750D01*
X-0139950Y0056700D02*
Y0056550D01*
X-0140400Y0056700D02*
Y0056550D01*
X-0139050Y0056700D02*
Y0056550D01*
X-0118800Y0030487D02*
Y0030300D01*
X-0138150Y0042200D02*
Y0040800D01*
X-0096300Y0060079D02*
Y0059050D01*
X-0087654Y0040500D02*
X-0112596D01*
X-0113400Y0039200D02*
Y0038428D01*
X-0088200Y0025513D02*
Y0024750D01*
X-0111600Y0042450D02*
Y0031550D01*
X-0139950Y0042200D02*
Y0040800D01*
X-0113850Y0039200D02*
Y0038878D01*
X-0156600Y0029057D02*
Y0024750D01*
X-0113358Y0041636D02*
X-0112864Y0041142D01*
X-0139050Y0038450D02*
Y0037800D01*
X-0076229Y0040950D02*
X-0112737D01*
X-0140850Y0056700D02*
Y0056550D01*
X-0076950Y0060700D02*
Y0052050D01*
X-0097650Y0059405D02*
Y0059050D01*
X-0169650Y0065400D02*
Y0055050D01*
X-0139500Y0042200D02*
Y0040800D01*
X-0105750Y0060760D02*
Y0059050D01*
X-0087671Y0040050D02*
X-0112117D01*
X-0121200Y0037522D02*
Y0036860D01*
X-0143100Y0056700D02*
Y0056550D01*
X-0144000Y0056700D02*
Y0056550D01*
X-0118078Y0030300D02*
X-0118700D01*
X-0116550Y0028050D02*
Y0024750D01*
X-0112050Y0028050D02*
Y0024750D01*
X-0106650Y0042450D02*
Y0029450D01*
X-0107100Y0042450D02*
Y0029450D01*
X-0139500Y0038450D02*
Y0037800D01*
X-0090433Y0043550D02*
X-0110714D01*
X-0135000Y0056700D02*
Y0056550D01*
X-0110700Y0029567D02*
Y0029450D01*
X-0112700Y0040750D02*
Y0040683D01*
X-0139950Y0038450D02*
Y0037800D01*
X-0113183Y0039200D02*
X-0115317D01*
X-0140400Y0038450D02*
Y0037800D01*
X-0101700Y0057950D02*
Y0055171D01*
X-0139050Y0042200D02*
Y0040800D01*
X-0140850Y0038450D02*
Y0037800D01*
X-0068250Y0056700D02*
X-0129422D01*
X-0165600Y0049267D02*
Y0047300D01*
X-0070661Y0046800D02*
X-0098117D01*
X-0126000Y0030700D02*
Y0029450D01*
X-0092933Y0046300D02*
X-0098079D01*
X-0076050Y0046829D02*
Y0046216D01*
X-0075150Y0047450D02*
Y0046508D01*
X-0080100Y0029050D02*
Y0024750D01*
X-0137700Y0038450D02*
Y0037800D01*
X-0125100Y0030700D02*
Y0029450D01*
X-0122750Y0030700D02*
X-0133464D01*
X-0106650Y0028050D02*
Y0024750D01*
X-0127350Y0030700D02*
Y0029450D01*
X-0076683Y0046950D02*
X-0098214D01*
X-0102600Y0057950D02*
Y0055878D01*
X-0103050Y0059341D02*
Y0059050D01*
X-0140850Y0036700D02*
Y0033300D01*
X-0130039Y0044261D02*
X-0129578Y0043800D01*
X-0102090Y0030150D02*
X-0110566D01*
X-0169650Y0033950D02*
Y0024750D01*
X-0149850Y0058700D02*
Y0057800D01*
X-0116110Y0039150D02*
X-0116425D01*
X-0149400Y0056700D02*
Y0056550D01*
X-0148425Y0049853D02*
X-0148478Y0049800D01*
X-0149400Y0058700D02*
Y0057800D01*
X-0121200Y0036000D02*
X-0122222D01*
X-0175110Y0055350D02*
X-0180000D01*
X-0159178Y0053100D02*
X-0175480D01*
X-0148425Y0050850D02*
X-0148775D01*
X-0094950Y0060450D02*
Y0059050D01*
X-0173445Y0049050D02*
X-0180000D01*
X-0148425Y0050400D02*
X-0148877D01*
X-0165600Y0044450D02*
Y0035050D01*
X-0157050Y0048772D02*
Y0047300D01*
X-0148425Y0051300D02*
X-0148823D01*
X-0076950Y0050950D02*
Y0050550D01*
X-0099900Y0043566D02*
Y0043550D01*
X-0156428Y0048150D02*
X-0180000D01*
X-0096750Y0029050D02*
Y0024750D01*
X-0102150Y0057950D02*
Y0055606D01*
X-0142200Y0036700D02*
Y0033300D01*
X-0097200Y0057950D02*
Y0053550D01*
X-0145800Y0059272D02*
Y0057800D01*
X-0161978Y0033300D02*
X-0171454D01*
X-0162450Y0049262D02*
Y0047300D01*
X-0112050Y0042450D02*
Y0037286D01*
X-0115200Y0060700D02*
Y0056050D01*
X-0113110Y0039150D02*
X-0115389D01*
X-0114750Y0039200D02*
Y0039050D01*
X-0101210Y0029050D02*
X-0102001Y0028259D01*
X-0073859Y0029250D02*
X-0074510D01*
X-0098550Y0041450D02*
Y0030450D01*
X-0100450Y0032400D02*
X-0112800D01*
X-0110250Y0030510D02*
Y0029450D01*
X-0111150Y0042450D02*
Y0031574D01*
X-0114750Y0028050D02*
Y0024750D01*
X-0085500Y0052722D02*
Y0052050D01*
X-0163350Y0044450D02*
Y0035050D01*
X-0177931Y0027450D02*
X-0180000D01*
X-0149850Y0056700D02*
Y0056550D01*
X-0160650Y0044450D02*
Y0035050D01*
X-0155250Y0044450D02*
Y0037028D01*
X-0100800Y0043950D02*
Y0043550D01*
X-0087300Y0059528D02*
Y0053550D01*
X-0090025Y0034650D02*
X-0099490D01*
X-0143550Y0058700D02*
Y0057800D01*
X-0093600Y0057950D02*
Y0053550D01*
X-0155700Y0044450D02*
Y0036578D01*
X-0156150Y0044450D02*
Y0036128D01*
X-0089550Y0052450D02*
Y0052050D01*
X-0147150Y0056700D02*
Y0056550D01*
X-0086000Y0052450D02*
X-0090579D01*
X-0119478Y0033300D02*
X-0119787D01*
X-0133200Y0042200D02*
Y0040800D01*
X-0164250Y0044450D02*
Y0035050D01*
X-0161100Y0044450D02*
Y0035050D01*
X-0162900Y0044450D02*
Y0035050D01*
X-0125183Y0038300D02*
X-0134500D01*
X-0103500Y0042450D02*
Y0033800D01*
X-0085050Y0041450D02*
Y0040800D01*
X-0158400Y0044450D02*
Y0035050D01*
X-0157178Y0035100D02*
X-0169889D01*
X-0134050Y0035317D02*
Y0035000D01*
X-0171948Y0046800D02*
X-0180000D01*
X-0159750Y0044450D02*
Y0035050D01*
X-0166500Y0059299D02*
Y0055550D01*
X-0107550Y0059341D02*
Y0058933D01*
X-0169200Y0049323D02*
Y0047300D01*
X-0112950Y0036214D02*
Y0033995D01*
X-0112500Y0036050D02*
Y0031550D01*
X-0166500Y0049260D02*
Y0047300D01*
X-0167400Y0049267D02*
Y0047300D01*
X-0163350Y0049275D02*
Y0047300D01*
X-0110700Y0042450D02*
Y0031698D01*
X-0083700Y0036150D02*
Y0032550D01*
X-0167850Y0049348D02*
Y0047300D01*
X-0162000Y0049454D02*
Y0047300D01*
X-0166950Y0049412D02*
Y0047300D01*
X-0159750Y0049303D02*
Y0047300D01*
X-0110250Y0043950D02*
Y0043550D01*
X-0154350Y0058700D02*
Y0057800D01*
X-0115200Y0039200D02*
Y0039050D01*
X-0160650Y0049275D02*
Y0047300D01*
X-0166050Y0049412D02*
Y0047300D01*
X-0171450Y0048706D02*
Y0047421D01*
X-0159300Y0049287D02*
Y0047300D01*
X-0087750Y0038010D02*
Y0037850D01*
X-0139500Y0056700D02*
Y0056550D01*
X-0156150Y0047872D02*
Y0047300D01*
X-0155700Y0047422D02*
Y0047300D01*
X-0113428Y0036900D02*
X-0113800D01*
X-0112500Y0028050D02*
Y0024750D01*
X-0110250Y0042450D02*
Y0031490D01*
X-0106200Y0042450D02*
Y0029450D01*
X-0089850Y0036450D02*
X-0111867D01*
X-0081000Y0041450D02*
Y0040800D01*
X-0131400Y0034200D02*
Y0032800D01*
X-0148050Y0038450D02*
Y0033882D01*
X-0078750Y0059945D02*
Y0052050D01*
X-0113800Y0037272D02*
Y0036860D01*
X-0101210Y0029050D02*
X-0102001Y0028259D01*
X-0087510Y0039150D02*
X-0112389D01*
X-0100450Y0033750D02*
X-0102010D01*
X-0077850Y0036150D02*
Y0032550D01*
X-0079650Y0060700D02*
Y0052029D01*
X-0151650Y0058700D02*
Y0057800D01*
X-0114750Y0059479D02*
Y0056050D01*
X-0150300Y0058700D02*
Y0057800D01*
X-0148500Y0058700D02*
Y0057800D01*
X-0136990Y0036000D02*
X-0154722D01*
X-0130050Y0030700D02*
Y0029450D01*
X-0148478Y0049800D02*
X-0148787D01*
X-0167850Y0044450D02*
Y0035050D01*
X-0136800Y0038450D02*
Y0037948D01*
X-0088650Y0052450D02*
Y0052050D01*
X-0166050Y0044450D02*
Y0035050D01*
X-0138150Y0058700D02*
Y0057800D01*
X-0145350Y0058826D02*
Y0057800D01*
X-0173222Y0048600D02*
X-0180000D01*
X-0113850Y0042450D02*
Y0042010D01*
X-0068250Y0040950D02*
X-0069511D01*
X-0076500Y0046846D02*
Y0042550D01*
X-0117450Y0060700D02*
Y0056050D01*
X-0068250Y0043200D02*
X-0089329D01*
X-0109350Y0043950D02*
Y0043550D01*
X-0108000Y0028050D02*
Y0024750D01*
X-0112950Y0042450D02*
Y0041228D01*
X-0108900Y0043950D02*
Y0043550D01*
X-0116100Y0039144D02*
Y0039050D01*
X-0113858Y0038886D02*
X-0112417Y0037445D01*
X-0113132Y0036450D02*
X-0113800D01*
X-0101536Y0042450D02*
X-0114067D01*
X-0161550Y0049262D02*
Y0047300D01*
X-0088650Y0041450D02*
Y0037836D01*
X-0100450Y0031950D02*
X-0112800D01*
X-0142650Y0036700D02*
Y0033300D01*
X-0174729Y0054000D02*
X-0180000D01*
X-0173432Y0032400D02*
X-0180000D01*
X-0171176Y0051300D02*
X-0175173D01*
X-0171224Y0050850D02*
X-0175537D01*
X-0170550Y0053950D02*
Y0051738D01*
X-0177463Y0050850D02*
X-0180000D01*
X-0147724Y0031500D02*
X-0148954D01*
X-0137683Y0032200D02*
X-0145777D01*
X-0121050Y0028050D02*
Y0024750D01*
X-0171000Y0053950D02*
Y0051545D01*
X-0172800Y0053950D02*
Y0050314D01*
X-0170100Y0053950D02*
Y0051622D01*
X-0133650Y0028050D02*
Y0024750D01*
X-0166760Y0051740D02*
X-0168240D01*
X-0130950Y0030700D02*
Y0029450D01*
X-0169200Y0053950D02*
Y0051676D01*
X-0167400Y0053950D02*
Y0051740D01*
X-0166760D02*
Y0051693D01*
X-0146700Y0029700D02*
Y0029450D01*
X-0166050Y0053950D02*
Y0051587D01*
X-0168300Y0053950D02*
Y0051712D01*
X-0169650Y0053950D02*
Y0051724D01*
X-0166950Y0053950D02*
Y0051740D01*
X-0166050Y0033950D02*
Y0032587D01*
X-0127228Y0042200D02*
X-0126892Y0041864D01*
X-0137250Y0058700D02*
Y0057800D01*
X-0148878Y0044100D02*
X-0180000D01*
X-0149228Y0044450D02*
X-0147871Y0043093D01*
X-0162450Y0030262D02*
Y0024750D01*
X-0143550Y0036700D02*
Y0033300D01*
X-0161100Y0033950D02*
Y0033800D01*
X-0150300Y0038450D02*
Y0033800D01*
X-0143100Y0036700D02*
Y0033300D01*
X-0087300Y0041450D02*
Y0040882D01*
X-0163350Y0030275D02*
Y0024750D01*
X-0148500Y0038450D02*
Y0033800D01*
X-0162450Y0033950D02*
Y0032828D01*
X-0159750Y0033950D02*
Y0033800D01*
X-0068250Y0027450D02*
X-0070303D01*
X-0113400Y0028050D02*
Y0024750D01*
X-0068250Y0029250D02*
X-0071503D01*
X-0070650Y0032816D02*
Y0028344D01*
X-0160200Y0033950D02*
Y0033800D01*
X-0146700Y0028050D02*
Y0024750D01*
X-0112050Y0060700D02*
Y0056050D01*
X-0090000Y0057950D02*
Y0053550D01*
X-0087750Y0046950D02*
Y0046550D01*
X-0090450Y0052450D02*
Y0052050D01*
X-0089933Y0057950D02*
X-0106567D01*
X-0090900D02*
Y0053550D01*
X-0132750Y0044303D02*
Y0043800D01*
X-0149400Y0044450D02*
Y0040800D01*
X-0128700Y0034200D02*
Y0033286D01*
X-0133886Y0034608D02*
X-0133642Y0034364D01*
X-0146606Y0036900D02*
X-0153822D01*
X-0131400Y0036450D02*
Y0035800D01*
X-0132300Y0034200D02*
Y0032798D01*
X-0127350Y0034200D02*
Y0033300D01*
X-0129578Y0036450D02*
X-0135272D01*
X-0122950Y0039228D02*
X-0122575Y0038853D01*
X-0123608Y0037386D02*
X-0121462Y0035240D01*
X-0113400Y0059670D02*
Y0056050D01*
X-0125212Y0033300D02*
X-0127817D01*
X-0069750Y0040525D02*
Y0038782D01*
X-0071064Y0034200D02*
X-0072176D01*
X-0093600Y0041450D02*
Y0030450D01*
X-0075150Y0052298D02*
Y0052074D01*
X-0074700Y0050802D02*
Y0050433D01*
X-0075600Y0050950D02*
Y0050606D01*
X-0079200Y0050950D02*
Y0050550D01*
X-0079892Y0051886D02*
X-0080019Y0051758D01*
X-0089100Y0033975D02*
Y0032225D01*
X-0079650Y0050572D02*
Y0050550D01*
X-0078300Y0059319D02*
Y0052050D01*
X-0079200Y0060700D02*
Y0052050D01*
X-0082826Y0051300D02*
X-0083272D01*
X-0088200Y0052450D02*
Y0052050D01*
X-0082979Y0051750D02*
X-0083722D01*
X-0081450Y0036150D02*
Y0032550D01*
X-0084150Y0054072D02*
Y0052041D01*
X-0100110Y0043650D02*
X-0110644D01*
X-0168300Y0055317D02*
Y0055050D01*
X-0136800Y0056700D02*
Y0056550D01*
X-0084600Y0065400D02*
Y0061800D01*
X-0090900Y0059284D02*
Y0059050D01*
X-0141750Y0032200D02*
Y0030800D01*
X-0086228Y0053550D02*
X-0097302D01*
X-0168750Y0065400D02*
Y0055050D01*
X-0144900Y0032200D02*
Y0030800D01*
X-0173700Y0059232D02*
Y0055050D01*
X-0160650Y0053950D02*
Y0051724D01*
X-0129600Y0028050D02*
Y0024750D01*
X-0097650Y0057950D02*
Y0054106D01*
X-0153000Y0056700D02*
Y0056490D01*
X-0144900Y0056700D02*
Y0056550D01*
X-0077850Y0031450D02*
Y0030450D01*
X-0137700Y0056700D02*
Y0056550D01*
X-0094500Y0059878D02*
Y0059050D01*
X-0156150Y0056700D02*
Y0056106D01*
X-0157950Y0058700D02*
Y0055550D01*
X-0158850Y0058700D02*
Y0055550D01*
X-0170610Y0035100D02*
X-0180000D01*
X-0157228Y0035050D02*
X-0169817D01*
X-0168750Y0044450D02*
Y0035050D01*
X-0169200Y0044450D02*
Y0035050D01*
X-0168300Y0044450D02*
Y0035050D01*
X-0153928Y0039600D02*
X-0180000D01*
X-0154350Y0044450D02*
Y0039178D01*
X-0131850Y0034200D02*
Y0032800D01*
X-0157050Y0044450D02*
Y0035228D01*
X-0157950Y0044450D02*
Y0035050D01*
X-0158850Y0044450D02*
Y0035050D01*
X-0071550Y0067250D02*
Y0063921D01*
X-0124610Y0039150D02*
X-0131316D01*
X-0076159Y0053550D02*
X-0084672D01*
X-0133650Y0042200D02*
Y0040800D01*
X-0137700Y0042200D02*
Y0040800D01*
X-0120760Y0034982D02*
Y0034193D01*
X-0081450Y0031450D02*
Y0030450D01*
X-0072450Y0036150D02*
Y0034430D01*
X-0070650Y0040316D02*
Y0039211D01*
X-0141300Y0058700D02*
Y0057800D01*
X-0087921Y0038700D02*
X-0113672D01*
X-0087510Y0037850D02*
X-0088500D01*
X-0087300Y0029050D02*
Y0028326D01*
X-0073350Y0036150D02*
Y0034395D01*
X-0083250Y0067250D02*
Y0067051D01*
X-0083443Y0039150D02*
X-0086990D01*
X-0145350Y0042200D02*
Y0040800D01*
X-0086850Y0029050D02*
Y0027963D01*
X-0086400Y0041450D02*
Y0040800D01*
X-0083700Y0039700D02*
Y0038800D01*
X-0131850Y0045200D02*
Y0043800D01*
X-0086183Y0046550D02*
X-0090067D01*
X-0084150Y0039700D02*
Y0038800D01*
X-0144000Y0042200D02*
Y0040800D01*
X-0130528Y0056250D02*
X-0131222D01*
X-0130950Y0058700D02*
Y0057800D01*
X-0157606Y0057600D02*
X-0180000D01*
X-0157500Y0056760D02*
Y0055550D01*
X-0157050Y0056552D02*
Y0055933D01*
X-0145800Y0056700D02*
Y0056550D01*
X-0083286Y0039700D02*
X-0086567D01*
X-0125550Y0058700D02*
Y0056050D01*
X-0127350Y0058700D02*
Y0056050D01*
X-0126900Y0058700D02*
Y0056050D01*
X-0085950Y0039700D02*
Y0038800D01*
X-0175382Y0054450D02*
X-0180000D01*
X-0103950Y0057950D02*
Y0056050D01*
X-0153198D02*
X-0156067D01*
X-0130050Y0055772D02*
Y0055550D01*
X-0168300Y0065400D02*
Y0056183D01*
X-0102608Y0055886D02*
X-0102417Y0055695D01*
X-0123300Y0058700D02*
Y0056050D01*
X-0122850Y0058700D02*
Y0056050D01*
X-0123750Y0058700D02*
Y0056050D01*
X-0107100Y0057807D02*
Y0056050D01*
X-0106650Y0057894D02*
Y0056050D01*
X-0108450Y0060700D02*
Y0056050D01*
X-0128250Y0058760D02*
Y0056050D01*
X-0100740Y0031500D02*
X-0110260D01*
X-0132300Y0028050D02*
Y0024750D01*
X-0105948Y0033300D02*
X-0112787D01*
X-0111183Y0031550D02*
X-0112800D01*
X-0121050Y0060700D02*
Y0056050D01*
X-0122400Y0058700D02*
Y0056050D01*
X-0139050Y0032200D02*
Y0030800D01*
X-0081000Y0046950D02*
Y0042550D01*
X-0092700Y0046950D02*
Y0046421D01*
X-0118350Y0059390D02*
Y0056050D01*
X-0116550Y0060700D02*
Y0056050D01*
X-0110700Y0043567D02*
Y0043550D01*
X-0108450Y0028050D02*
Y0024750D01*
X-0104400Y0060950D02*
Y0059050D01*
X-0105750Y0065331D02*
Y0064654D01*
X-0079650Y0046950D02*
Y0042550D01*
X-0109800Y0043950D02*
Y0043550D01*
X-0096750Y0057950D02*
Y0053550D01*
X-0096300Y0057950D02*
Y0053550D01*
X-0083858Y0051886D02*
X-0083022Y0051050D01*
X-0077850Y0059214D02*
Y0052050D01*
X-0090450Y0057950D02*
Y0053550D01*
X-0101250Y0057950D02*
Y0055154D01*
X-0102608Y0055886D02*
X-0102417Y0055695D01*
X-0075683Y0050550D02*
X-0079672D01*
X-0079272Y0050950D02*
X-0079672Y0050550D01*
X-0087750Y0052450D02*
Y0052050D01*
X-0087300Y0052450D02*
Y0052050D01*
X-0082800Y0051252D02*
Y0051050D01*
X-0171122Y0050400D02*
X-0180000D01*
X-0075010Y0050850D02*
X-0079372D01*
X-0076050Y0052590D02*
Y0052050D01*
X-0076500Y0060700D02*
Y0052050D01*
X-0070650Y0047596D02*
Y0046803D01*
X-0073122Y0049500D02*
X-0074760D01*
X-0164700Y0033950D02*
Y0032712D01*
X-0089100Y0057925D02*
Y0053550D01*
X-0170550Y0049262D02*
Y0047300D01*
X-0170100Y0049377D02*
Y0047300D01*
X-0149228Y0044450D02*
X-0171317D01*
X-0076500Y0050950D02*
Y0050550D01*
X-0169650Y0046200D02*
Y0045550D01*
X-0075600Y0052301D02*
Y0052050D01*
X-0168300Y0033950D02*
Y0032712D01*
X-0076050Y0050950D02*
Y0050550D01*
X-0141300Y0036700D02*
Y0033300D01*
X-0168786Y0046200D02*
X-0170817D01*
X-0169650Y0049275D02*
Y0047300D01*
X-0078300Y0050950D02*
Y0050550D01*
X-0142200Y0028050D02*
Y0024750D01*
X-0141750Y0028050D02*
Y0024750D01*
X-0089100Y0052450D02*
Y0052050D01*
X-0077400Y0050950D02*
Y0050550D01*
X-0098433Y0054050D02*
X-0100964D01*
X-0094500Y0057950D02*
Y0053550D01*
X-0090933Y0045450D02*
X-0091867D01*
X-0169200Y0030760D02*
Y0024750D01*
X-0090000Y0052450D02*
Y0052050D01*
X-0156600Y0056675D02*
Y0056193D01*
X-0130978Y0056700D02*
X-0129828Y0055550D01*
X-0165150Y0044450D02*
Y0035050D01*
X-0150300Y0044450D02*
Y0040800D01*
X-0152550Y0044450D02*
Y0040798D01*
X-0129150Y0028050D02*
Y0024750D01*
X-0162450Y0044450D02*
Y0035050D01*
X-0161550Y0044450D02*
Y0035050D01*
X-0135450Y0028050D02*
Y0024750D01*
X-0092700Y0057950D02*
Y0053550D01*
X-0130500Y0028050D02*
Y0024750D01*
X-0092250Y0057950D02*
Y0053550D01*
X-0079650Y0036150D02*
Y0032550D01*
X-0081900Y0036150D02*
Y0032550D01*
X-0124650Y0030700D02*
Y0029450D01*
X-0126900Y0030700D02*
Y0029450D01*
X-0100350Y0041450D02*
Y0034360D01*
X-0148761Y0031039D02*
X-0148522Y0030800D01*
X-0078300Y0036150D02*
Y0032550D01*
X-0164250Y0049303D02*
Y0047300D01*
X-0068250Y0044100D02*
X-0099066D01*
X-0106650Y0059405D02*
Y0059106D01*
X-0114300Y0028050D02*
Y0024750D01*
X-0068250Y0033300D02*
X-0069561D01*
X-0105750Y0042450D02*
Y0033740D01*
X-0167400Y0061883D02*
Y0060810D01*
X-0145350Y0060394D02*
Y0060378D01*
X-0142739Y0060300D02*
X-0145272D01*
X-0145393Y0060420D02*
X-0144772Y0059800D01*
X-0152100Y0058700D02*
Y0057800D01*
X-0147933Y0058700D02*
X-0161750D01*
X-0151200Y0061936D02*
Y0061550D01*
X-0147150Y0062164D02*
Y0061550D01*
X-0132300Y0067250D02*
Y0067100D01*
X-0126900Y0060700D02*
Y0059800D01*
X-0086400Y0045450D02*
Y0042550D01*
X-0107100Y0059248D02*
Y0059193D01*
X-0129433Y0058700D02*
X-0145000D01*
X-0177852Y0052650D02*
X-0180000D01*
X-0085950Y0041450D02*
Y0040800D01*
X-0172800Y0048286D02*
Y0033714D01*
X-0085328Y0054450D02*
X-0100802D01*
X-0148425Y0051322D02*
Y0049853D01*
X-0125550Y0030700D02*
Y0029450D01*
X-0141750Y0036700D02*
Y0033300D01*
X-0075912Y0046350D02*
X-0085144D01*
X-0137683Y0033300D02*
X-0147052D01*
X-0076950Y0036150D02*
Y0032698D01*
X-0130358Y0057636D02*
X-0128772Y0056050D01*
X-0068250Y0030150D02*
X-0071696D01*
X-0084695Y0055083D02*
X-0086228Y0053550D01*
X-0134100Y0028050D02*
Y0024750D01*
X-0152550Y0038172D02*
Y0033800D01*
X-0126712Y0059800D02*
X-0127772D01*
X-0118350Y0067250D02*
Y0067100D01*
X-0128846Y0060646D02*
X-0129689D01*
X-0122850Y0067250D02*
Y0066828D01*
X-0088200Y0045450D02*
Y0042550D01*
X-0128250Y0060700D02*
Y0060278D01*
X-0127800Y0060700D02*
Y0059828D01*
X-0114300Y0059259D02*
Y0056050D01*
X-0119423Y0059400D02*
X-0121066D01*
X-0173250Y0032034D02*
Y0024750D01*
X-0128700Y0060700D02*
Y0060626D01*
X-0092250Y0046950D02*
Y0046404D01*
X-0091800Y0046950D02*
Y0043550D01*
X-0136350Y0058700D02*
Y0057800D01*
X-0134550Y0058700D02*
Y0057800D01*
X-0133200Y0058700D02*
Y0057800D01*
X-0086850Y0046950D02*
Y0046550D01*
X-0157050Y0058700D02*
Y0057948D01*
X-0132300Y0058700D02*
Y0057800D01*
X-0157693Y0057150D02*
X-0180000D01*
X-0132750Y0058700D02*
Y0057800D01*
X-0128943Y0032850D02*
X-0136557D01*
X-0156878Y0048600D02*
X-0171527D01*
X-0156600Y0048322D02*
Y0047300D01*
X-0170550Y0044450D02*
Y0035132D01*
X-0152272Y0038450D02*
X-0156608Y0034114D01*
X-0171238Y0049950D02*
X-0171488D01*
X-0143100Y0065400D02*
Y0059800D01*
X-0153450Y0037272D02*
Y0033800D01*
X-0143550Y0028050D02*
Y0024750D01*
X-0148425Y0049950D02*
X-0148762D01*
X-0151200Y0058700D02*
Y0057800D01*
X-0141300Y0028050D02*
Y0024750D01*
X-0068250Y0032400D02*
X-0076425D01*
X-0076500Y0036150D02*
Y0032490D01*
X-0097036Y0061200D02*
X-0101367D01*
X-0131400Y0042200D02*
Y0040800D01*
X-0136350Y0056700D02*
Y0056550D01*
X-0132750Y0042200D02*
Y0040800D01*
X-0166950Y0044450D02*
Y0035050D01*
X-0170100Y0044450D02*
Y0035184D01*
X-0166500Y0044450D02*
Y0035050D01*
X-0160200Y0044450D02*
Y0035050D01*
X-0143100Y0058700D02*
Y0057800D01*
X-0144900Y0058700D02*
Y0057800D01*
X-0155250Y0056700D02*
Y0056050D01*
X-0152892Y0040636D02*
X-0154583Y0038945D01*
X-0070963Y0040500D02*
X-0071939D01*
X-0080550Y0029050D02*
Y0024750D01*
X-0072000Y0041003D02*
Y0040561D01*
X-0082078Y0066600D02*
X-0082681D01*
X-0148500Y0043722D02*
Y0040800D01*
X-0140400Y0058700D02*
Y0057800D01*
X-0140850Y0058700D02*
Y0057800D01*
X-0098100Y0046950D02*
Y0046760D01*
X-0073800Y0029039D02*
Y0024750D01*
X-0083250Y0041450D02*
Y0040800D01*
X-0139950Y0058700D02*
Y0057800D01*
X-0081900Y0041450D02*
Y0040800D01*
X-0079650Y0031450D02*
Y0030450D01*
X-0120364Y0042300D02*
X-0120450D01*
X-0117450Y0028050D02*
Y0024750D01*
X-0119700Y0033787D02*
Y0033078D01*
X-0082350Y0041450D02*
Y0040800D01*
X-0073800Y0036150D02*
Y0029897D01*
X-0090025Y0035100D02*
X-0114067D01*
X-0113800Y0037272D02*
X-0113195Y0036667D01*
X-0117000Y0028050D02*
Y0024750D01*
X-0068250Y0028350D02*
X-0070656D01*
X-0131850Y0058700D02*
Y0057800D01*
X-0112950Y0060700D02*
Y0056050D01*
X-0128250Y0028050D02*
Y0024750D01*
X-0141780Y0064219D02*
X-0141050Y0063488D01*
X-0082350Y0046950D02*
Y0042550D01*
X-0081900Y0046950D02*
Y0042550D01*
X-0120600Y0032622D02*
Y0029450D01*
X-0113850Y0059301D02*
Y0056050D01*
X-0144000Y0036700D02*
Y0033300D01*
X-0098100Y0059248D02*
Y0059050D01*
X-0130078Y0055800D02*
X-0130772D01*
X-0139500Y0058700D02*
Y0057800D01*
X-0102790Y0029450D02*
X-0110817D01*
X-0096750Y0046950D02*
Y0046300D01*
X-0136350Y0035816D02*
Y0030800D01*
X-0142200Y0032200D02*
Y0030800D01*
X-0102933Y0033800D02*
X-0104817D01*
X-0097650Y0046950D02*
Y0046300D01*
X-0161100Y0053950D02*
Y0051622D01*
X-0159750Y0058700D02*
Y0055550D01*
X-0162450Y0059172D02*
Y0055550D01*
X-0167055Y0055833D02*
X-0166772Y0055550D01*
X-0169200Y0065400D02*
Y0055050D01*
X-0157132Y0055800D02*
X-0167022D01*
X-0157433Y0056700D02*
X-0180000D01*
X-0168324Y0055350D02*
X-0174389D01*
X-0070797Y0044550D02*
X-0098464D01*
X-0166950Y0059216D02*
Y0055728D01*
X-0131358Y0056386D02*
X-0130522Y0055550D01*
X-0093150Y0059405D02*
Y0059050D01*
X-0101700Y0060867D02*
Y0059050D01*
X-0085050Y0031450D02*
Y0030450D01*
X-0075736Y0032850D02*
X-0086139D01*
X-0130978Y0056700D02*
X-0156567D01*
X-0125100Y0067250D02*
Y0067100D01*
X-0130500Y0056222D02*
Y0055550D01*
X-0130978Y0056700D02*
X-0129828Y0055550D01*
X-0099450Y0057950D02*
Y0054050D01*
X-0163350Y0067250D02*
Y0067100D01*
X-0171000Y0059299D02*
Y0055050D01*
X-0128700Y0058617D02*
Y0056050D01*
X-0167828Y0055050D02*
X-0174117D01*
X-0105824Y0032850D02*
X-0113076D01*
X-0104400Y0028050D02*
Y0024750D01*
Y0042450D02*
Y0033800D01*
X-0100800Y0029050D02*
Y0024750D01*
X-0103050Y0028050D02*
Y0024750D01*
X-0076950Y0046950D02*
Y0042550D01*
X-0126728Y0059850D02*
X-0127822D01*
X-0083917Y0054305D02*
X-0085608Y0052614D01*
X-0086850Y0059269D02*
Y0053550D01*
X-0124200Y0058700D02*
Y0056050D01*
X-0087300Y0031700D02*
Y0030450D01*
X-0084600Y0053622D02*
Y0052050D01*
X-0086400Y0052450D02*
Y0052050D01*
X-0088200Y0060450D02*
Y0053550D01*
X-0087750Y0060450D02*
Y0053550D01*
X-0084878Y0054900D02*
X-0100925D01*
X-0133250Y0034200D02*
X-0156522D01*
X-0133200Y0036450D02*
Y0036382D01*
X-0082852Y0052650D02*
X-0085572D01*
X-0082350Y0057700D02*
Y0053236D01*
X-0134100Y0035389D02*
Y0031800D01*
X-0075621Y0054000D02*
X-0084222D01*
X-0085950Y0059596D02*
Y0053828D01*
X-0134100Y0036450D02*
Y0036110D01*
X-0085500Y0059972D02*
Y0054278D01*
X-0132750Y0036450D02*
Y0035904D01*
X-0135450Y0038450D02*
Y0037550D01*
X-0133924Y0034650D02*
X-0156072D01*
X-0134050Y0035100D02*
X-0155622D01*
X-0172700Y0033750D02*
X-0180000D01*
X-0076500Y0065274D02*
Y0061800D01*
X-0131850Y0036450D02*
Y0035800D01*
X-0118078Y0030300D02*
X-0117228Y0029450D01*
X-0126900Y0034200D02*
Y0033300D01*
X-0133650Y0038450D02*
Y0038300D01*
X-0084600Y0059072D02*
Y0055360D01*
X-0130950Y0036450D02*
Y0035800D01*
X-0132300Y0036450D02*
Y0035800D01*
X-0123252Y0041220D02*
X-0123472Y0041000D01*
X-0075183Y0052050D02*
X-0079500D01*
X-0125550Y0033762D02*
Y0033300D01*
X-0146433Y0037800D02*
X-0152922D01*
X-0130950Y0039200D02*
Y0038300D01*
X-0174150Y0053950D02*
Y0024750D01*
Y0059255D02*
Y0055110D01*
X-0160650Y0058700D02*
Y0055550D01*
X-0159300Y0058700D02*
Y0055550D01*
X-0175434Y0054900D02*
X-0180000D01*
X-0168240Y0056250D02*
X-0180000D01*
X-0175050Y0054117D02*
Y0052384D01*
X-0177979Y0051750D02*
X-0180000D01*
X-0129828Y0055550D02*
X-0130522D01*
X-0161100Y0058700D02*
Y0055550D01*
X-0176850Y0065400D02*
Y0053458D01*
X-0172350Y0064419D02*
Y0055050D01*
X-0170550Y0059795D02*
Y0055050D01*
X-0135900Y0056700D02*
Y0056550D01*
X-0131400Y0056700D02*
Y0056424D01*
X-0171900Y0059383D02*
Y0055050D01*
X-0135450Y0056700D02*
Y0056550D01*
X-0134100Y0056700D02*
Y0056550D01*
X-0100800Y0057950D02*
Y0054050D01*
X-0092250Y0064685D02*
Y0062050D01*
X-0166050Y0059795D02*
Y0055550D01*
X-0160200Y0058700D02*
Y0055550D01*
X-0098100Y0057950D02*
Y0054193D01*
X-0099000Y0057950D02*
Y0054050D01*
X-0162900Y0059658D02*
Y0055550D01*
X-0088654Y0028350D02*
X-0101910D01*
X-0135450Y0036272D02*
Y0032421D01*
X-0135066Y0030800D02*
X-0145777D01*
X-0130154Y0036000D02*
X-0132846D01*
X-0135904Y0031500D02*
X-0145526D01*
X-0133421Y0031950D02*
X-0134579D01*
X-0133010Y0032400D02*
X-0134990D01*
X-0135000Y0036450D02*
Y0032404D01*
X-0134555Y0031833D02*
X-0134522Y0031800D01*
X-0133448D02*
X-0134522D01*
X-0133200Y0034200D02*
Y0032286D01*
X-0121950Y0028050D02*
Y0024750D01*
X-0135900Y0035959D02*
Y0032010D01*
X-0090025Y0034200D02*
X-0099079D01*
X-0120600Y0034822D02*
Y0034233D01*
X-0119700Y0028050D02*
Y0024750D01*
X-0120200Y0031050D02*
X-0122172D01*
X-0134550Y0036450D02*
Y0031828D01*
X-0122400Y0028050D02*
Y0024750D01*
X-0147600Y0056700D02*
Y0056550D01*
X-0120461Y0032761D02*
X-0122358Y0030864D01*
X-0119196Y0033750D02*
X-0119803D01*
X-0135328Y0031050D02*
X-0145622D01*
X-0082520Y0053100D02*
X-0085122D01*
X-0130050Y0028050D02*
Y0024750D01*
X-0146250Y0056700D02*
Y0056550D01*
X-0134550Y0028050D02*
Y0024750D01*
X-0068250Y0040500D02*
X-0069776D01*
X-0079650Y0041450D02*
Y0040800D01*
X-0099033Y0062550D02*
X-0101774D01*
X-0104850Y0065400D02*
Y0064050D01*
X-0104433D02*
X-0105302D01*
X-0103500Y0064878D02*
Y0063990D01*
X-0109350Y0059301D02*
Y0056050D01*
X-0094950Y0045200D02*
Y0043550D01*
X-0102981Y0060950D02*
X-0105522D01*
X-0068250Y0042300D02*
X-0071272D01*
X-0137700Y0067250D02*
Y0067100D01*
X-0178923Y0059400D02*
X-0180000D01*
X-0134550Y0067250D02*
Y0067100D01*
X-0144450Y0067250D02*
Y0067100D01*
X-0174600Y0062085D02*
Y0060607D01*
X-0158491Y0059850D02*
X-0161316D01*
X-0158520Y0060300D02*
X-0161287D01*
X-0158282Y0060750D02*
X-0161525D01*
X-0147298Y0064350D02*
X-0150240D01*
X-0162900Y0062158D02*
Y0060602D01*
X-0162450Y0061798D02*
Y0060962D01*
X-0162000Y0061760D02*
Y0060999D01*
X-0147525Y0064800D02*
X-0149834D01*
X-0150300Y0067250D02*
Y0067100D01*
X-0161550Y0061985D02*
Y0060774D01*
X-0161100Y0064592D02*
Y0059800D01*
X-0149850Y0067250D02*
Y0067100D01*
X-0149400Y0067250D02*
Y0067100D01*
X-0148950Y0067250D02*
Y0067100D01*
X-0147886Y0065400D02*
X-0149813D01*
X-0160650D02*
Y0059800D01*
X-0159300Y0065400D02*
Y0059800D01*
X-0160200Y0065400D02*
Y0059800D01*
X-0149400Y0065400D02*
Y0061550D01*
X-0148950Y0058700D02*
Y0057800D01*
X-0158400Y0062158D02*
Y0060602D01*
X-0154639Y0066846D02*
X-0155154Y0066332D01*
X-0120600Y0067250D02*
Y0067100D01*
X-0126450Y0028050D02*
Y0024750D01*
X-0135272Y0036450D02*
X-0135608Y0036114D01*
X-0125550Y0028050D02*
Y0024750D01*
X-0082350Y0031450D02*
Y0030450D01*
X-0156020Y0060300D02*
X-0156787D01*
X-0156476Y0065250D02*
X-0156779D01*
X-0154142Y0061386D02*
X-0154663Y0060864D01*
X-0152550Y0065400D02*
Y0061550D01*
X-0152100Y0065400D02*
Y0061550D01*
X-0163043Y0064350D02*
X-0166408D01*
X-0163290Y0064800D02*
X-0166048D01*
X-0166950Y0067250D02*
Y0067100D01*
X-0153450Y0065400D02*
Y0061550D01*
X-0142473Y0060750D02*
X-0144346D01*
X-0144450Y0060567D02*
Y0059800D01*
X-0134100Y0067250D02*
Y0067100D01*
X-0142728Y0059850D02*
X-0144822D01*
X-0145350Y0064514D02*
Y0061606D01*
X-0153900Y0065181D02*
Y0061529D01*
X-0132300Y0044760D02*
Y0043800D01*
X-0144000Y0065400D02*
Y0059800D01*
X-0145260Y0061650D02*
X-0180000D01*
X-0088650Y0046950D02*
Y0046550D01*
X-0131400Y0044377D02*
Y0043800D01*
X-0117900Y0028050D02*
Y0024750D01*
X-0142200Y0056700D02*
Y0056550D01*
X-0143550Y0032200D02*
Y0030800D01*
X-0123300Y0038022D02*
Y0037078D01*
X-0113850Y0035460D02*
Y0034854D01*
X-0072450Y0032877D02*
Y0030644D01*
X-0131587Y0044550D02*
X-0132412D01*
X-0131712Y0045200D02*
X-0132287D01*
X-0091350Y0057950D02*
Y0053550D01*
X-0131740Y0045000D02*
X-0132260D01*
X-0170550Y0033867D02*
Y0024750D01*
X-0172286Y0044550D02*
X-0180000D01*
X-0172350Y0048201D02*
Y0045360D01*
X-0171900Y0046490D02*
Y0045684D01*
X-0171450Y0046079D02*
Y0045632D01*
X-0137250Y0042200D02*
Y0040800D01*
X-0135900Y0060700D02*
Y0059800D01*
X-0129878Y0044100D02*
X-0133122D01*
X-0094050Y0059341D02*
Y0059050D01*
X-0100010Y0034650D02*
X-0113775D01*
X-0169238Y0031950D02*
X-0171571D01*
X-0078750Y0031450D02*
Y0030450D01*
X-0172350Y0044639D02*
Y0033799D01*
X-0172450Y0045000D02*
X-0180000D01*
X-0170550Y0046200D02*
Y0045550D01*
X-0168921D02*
X-0171317D01*
X-0171000Y0046096D02*
Y0045550D01*
X-0148171Y0042300D02*
X-0180000D01*
X-0170100Y0046200D02*
Y0045550D01*
X-0127800Y0034200D02*
Y0033300D01*
X-0133650Y0058700D02*
Y0057800D01*
X-0148428Y0043650D02*
X-0180000D01*
X-0127228Y0042200D02*
X-0146867D01*
X-0148050Y0043272D02*
Y0042933D01*
X-0136800Y0058700D02*
Y0057800D01*
X-0172286Y0045450D02*
X-0180000D01*
X-0138600Y0058700D02*
Y0057800D01*
X-0080933Y0058800D02*
X-0082772D01*
X-0129600Y0043822D02*
Y0043800D01*
X-0122850Y0028050D02*
Y0024750D01*
X-0072000Y0026411D02*
Y0024750D01*
X-0075150Y0029050D02*
Y0024750D01*
X-0111150Y0028050D02*
Y0024750D01*
X-0076248Y0033750D02*
X-0099050D01*
X-0132750Y0034200D02*
Y0032528D01*
X-0112800Y0032540D02*
Y0031700D01*
X-0102790Y0029450D02*
X-0110817D01*
X-0068250Y0031050D02*
X-0088275D01*
X-0072000Y0033503D02*
Y0030454D01*
X-0077433Y0031450D02*
X-0086250D01*
X-0099000Y0041450D02*
Y0030450D01*
X-0112950Y0033005D02*
Y0032540D01*
X-0068250Y0028800D02*
X-0071687D01*
X-0125100Y0039200D02*
Y0038356D01*
X-0130950Y0034200D02*
Y0032800D01*
X-0130500Y0036450D02*
Y0035800D01*
X-0130050Y0036450D02*
Y0036183D01*
X-0127350Y0039200D02*
Y0038300D01*
X-0133650Y0036450D02*
Y0036434D01*
X-0069300Y0045149D02*
Y0037999D01*
X-0121048Y0035460D02*
X-0121200D01*
X-0124000Y0037550D02*
X-0124079D01*
X-0134171Y0035550D02*
X-0155172D01*
X-0146250Y0036596D02*
Y0033300D01*
X-0131400Y0028050D02*
Y0024750D01*
X-0163350Y0065124D02*
Y0055550D01*
X-0071179Y0033300D02*
X-0072061D01*
X-0164250Y0065400D02*
Y0055550D01*
X-0128948Y0032800D02*
X-0132250D01*
X-0130050Y0034200D02*
Y0032800D01*
X-0129150Y0034200D02*
Y0032800D01*
X-0134154Y0036000D02*
X-0135771D01*
X-0126000Y0033954D02*
Y0033300D01*
X-0068250Y0039150D02*
X-0070589D01*
X-0120600Y0028050D02*
Y0024750D01*
X-0137683Y0033300D02*
X-0147052D01*
X-0125212D02*
X-0127817D01*
X-0151650Y0056700D02*
Y0056550D01*
X-0094050Y0057950D02*
Y0053550D01*
X-0095400Y0057950D02*
Y0053550D01*
X-0091800Y0057950D02*
Y0053550D01*
X-0082986Y0052200D02*
X-0090552D01*
X-0089550Y0029050D02*
Y0024750D01*
X-0090900Y0046950D02*
Y0046574D01*
X-0090450Y0046950D02*
Y0046698D01*
X-0086183Y0045450D02*
X-0090067D01*
X-0076229D02*
X-0085317D01*
X-0091106Y0046350D02*
X-0092139D01*
X-0088878Y0032400D02*
X-0099050D01*
X-0089550Y0046950D02*
Y0046550D01*
X-0132750Y0038450D02*
Y0038300D01*
X-0133200Y0038450D02*
Y0038300D01*
X-0136000Y0035950D02*
X-0136067D01*
X-0134729Y0038250D02*
X-0152472D01*
X-0137700Y0036700D02*
Y0033300D01*
X-0085500Y0046950D02*
Y0046654D01*
X-0089750Y0036900D02*
X-0111816D01*
X-0085950Y0046950D02*
Y0046671D01*
X-0135132Y0037800D02*
X-0136317D01*
X-0123886Y0038608D02*
X-0122642Y0037364D01*
X-0121200Y0035550D02*
X-0121772D01*
X-0171900Y0048308D02*
Y0047010D01*
X-0127800Y0039200D02*
Y0038300D01*
X-0130500Y0039200D02*
Y0038300D01*
X-0148500Y0056700D02*
Y0056550D01*
X-0086183Y0045450D02*
X-0090067D01*
X-0146250Y0059223D02*
Y0057800D01*
X-0091800Y0059528D02*
Y0059050D01*
X-0128250Y0039200D02*
Y0038300D01*
X-0092933Y0045200D02*
X-0098329D01*
X-0167850Y0033950D02*
Y0032740D01*
X-0077850Y0050950D02*
Y0050550D01*
X-0089550Y0057802D02*
Y0053550D01*
X-0088200Y0046950D02*
Y0046550D01*
X-0124650Y0028050D02*
Y0024750D01*
X-0133200Y0044022D02*
Y0043800D01*
X-0162674Y0059400D02*
X-0166337D01*
X-0156728Y0035550D02*
X-0180000D01*
X-0100800Y0065400D02*
Y0059050D01*
X-0135900Y0031490D02*
Y0030800D01*
X-0138150Y0032200D02*
Y0030800D01*
X-0096300Y0046950D02*
Y0046300D01*
X-0091193Y0045900D02*
X-0091816D01*
X-0093150Y0046950D02*
Y0046300D01*
X-0136800Y0032214D02*
Y0030800D01*
X-0130950Y0044262D02*
Y0043800D01*
X-0130500Y0044454D02*
Y0043800D01*
X-0147760Y0041850D02*
X-0180000D01*
X-0130050Y0044262D02*
Y0043800D01*
X-0153450Y0067250D02*
Y0067100D01*
X-0110250Y0067250D02*
Y0067100D01*
X-0076179Y0040800D02*
X-0086567D01*
X-0126000Y0067250D02*
Y0067100D01*
X-0094950Y0046950D02*
Y0046300D01*
X-0121050Y0041237D02*
Y0040978D01*
X-0114300Y0039200D02*
Y0039050D01*
X-0120378Y0041400D02*
X-0120822D01*
X-0141300Y0056700D02*
Y0056550D01*
X-0120892Y0041136D02*
X-0121386Y0040642D01*
X-0122950Y0040250D02*
Y0039228D01*
X-0080100Y0060700D02*
Y0058824D01*
X-0099900Y0057950D02*
Y0054050D01*
X-0121512Y0040450D02*
X-0122575D01*
X-0100350Y0057950D02*
Y0054050D01*
X-0120600Y0041622D02*
Y0041291D01*
X-0139950Y0032200D02*
Y0030800D01*
X-0138600Y0042200D02*
Y0040800D01*
X-0112050Y0036214D02*
Y0031550D01*
X-0069750Y0033025D02*
Y0024750D01*
X-0168750Y0049303D02*
Y0047300D01*
X-0113800Y0036300D02*
Y0035460D01*
X-0068250Y0030600D02*
X-0072288D01*
X-0144450Y0065400D02*
Y0061433D01*
X-0155578Y0047300D02*
X-0170817D01*
X-0101250Y0041346D02*
Y0030990D01*
X-0094950Y0029050D02*
Y0024750D01*
X-0071750Y0042550D02*
X-0089464D01*
X-0119250Y0059294D02*
Y0056050D01*
X-0095850Y0045200D02*
Y0043550D01*
X-0101684Y0041850D02*
X-0113807D01*
X-0112500Y0042450D02*
Y0040404D01*
X-0068250Y0043650D02*
X-0089740D01*
X-0136800Y0067250D02*
Y0067100D01*
X-0138832Y0066846D02*
X-0139380Y0066298D01*
X-0132750Y0067250D02*
Y0067100D01*
X-0139500Y0067250D02*
Y0066418D01*
X-0141050Y0063488D02*
Y0062897D01*
X-0143550Y0067250D02*
Y0067100D01*
X-0130928Y0066846D02*
X-0130380Y0066298D01*
X-0131534Y0067100D02*
X-0138226D01*
X-0163800Y0065400D02*
Y0055550D01*
X-0165600Y0067250D02*
Y0067100D01*
X-0131400Y0067250D02*
Y0067089D01*
X-0136350Y0067250D02*
Y0067100D01*
X-0135900Y0067250D02*
Y0067100D01*
X-0144000Y0067250D02*
Y0067100D01*
X-0147150Y0067250D02*
Y0067008D01*
X-0105300Y0043950D02*
Y0043550D01*
X-0155700Y0067250D02*
Y0066877D01*
X-0105750Y0043950D02*
Y0043550D01*
X-0142712Y0064800D02*
X-0145235D01*
X-0145832Y0066846D02*
X-0146380Y0066298D01*
X-0146928Y0066846D02*
X-0146380Y0066298D01*
X-0133200Y0067250D02*
Y0067100D01*
X-0140534D02*
X-0145226D01*
X-0147736Y0065250D02*
X-0149779D01*
X-0145350Y0028050D02*
Y0024750D01*
X-0138600Y0067250D02*
Y0067013D01*
X-0139050Y0067250D02*
Y0066628D01*
X-0143100Y0067250D02*
Y0067100D01*
X-0138150Y0067250D02*
Y0067100D01*
X-0141300Y0067250D02*
Y0067100D01*
X-0099259Y0031001D02*
X-0099810Y0030450D01*
X-0099050Y0034000D02*
Y0031500D01*
X-0100450Y0031790D02*
X-0101991Y0030249D01*
X-0100450Y0032850D02*
X-0101925D01*
X-0088275Y0031447D02*
Y0030775D01*
X-0076179Y0033300D02*
X-0099050D01*
X-0146250Y0067250D02*
Y0066428D01*
X-0100450Y0034000D02*
Y0031790D01*
X-0102150Y0032644D02*
Y0030090D01*
X-0089100Y0030775D02*
Y0030450D01*
X-0103950Y0043950D02*
Y0043550D01*
X-0103500Y0043950D02*
Y0043550D01*
X-0103050Y0043950D02*
Y0043550D01*
X-0074250Y0036150D02*
Y0024750D01*
X-0108900Y0028050D02*
Y0024750D01*
Y0042450D02*
Y0029450D01*
X-0101250Y0029010D02*
Y0024750D01*
X-0101700Y0028560D02*
Y0024750D01*
X-0075000Y0030450D02*
X-0099810D01*
X-0089725Y0031500D02*
X-0099050D01*
X-0089725Y0031950D02*
X-0099050D01*
X-0108450Y0042450D02*
Y0029450D01*
X-0151200Y0029200D02*
Y0024750D01*
X-0145800Y0029700D02*
Y0029450D01*
X-0102500Y0028050D02*
X-0150500D01*
X-0100350Y0029050D02*
Y0024750D01*
X-0110250Y0028050D02*
Y0024750D01*
X-0137250Y0029700D02*
Y0029450D01*
X-0135921Y0031950D02*
X-0145622D01*
X-0116100Y0028050D02*
Y0024750D01*
X-0137700Y0029700D02*
Y0029450D01*
X-0133200Y0030700D02*
Y0029450D01*
X-0147472Y0030800D02*
X-0148522D01*
X-0147628Y0031050D02*
X-0148762D01*
X-0117478Y0029700D02*
X-0133567D01*
X-0099900Y0041450D02*
Y0034684D01*
X-0147600Y0030992D02*
Y0030800D01*
X-0134433Y0029700D02*
X-0146802D01*
X-0147628Y0031950D02*
X-0148762D01*
X-0102600Y0032557D02*
Y0029640D01*
X-0101210Y0029050D02*
X-0102001Y0028259D01*
X-0100800Y0041329D02*
Y0031440D01*
X-0081450Y0029050D02*
Y0024750D01*
X-0081000Y0031450D02*
Y0030450D01*
X-0080550Y0031450D02*
Y0030450D01*
X-0080100Y0031450D02*
Y0030450D01*
X-0101210Y0029050D02*
X-0102001Y0028259D01*
X-0108000Y0042450D02*
Y0029450D01*
X-0102540Y0029700D02*
X-0110617D01*
X-0101700Y0043950D02*
Y0043550D01*
X-0099450Y0030810D02*
Y0030450D01*
X-0073074Y0030600D02*
X-0099660D01*
X-0095850Y0041450D02*
Y0030450D01*
X-0107550Y0042450D02*
Y0029450D01*
X-0132750Y0030700D02*
Y0029450D01*
X-0151074Y0028350D02*
X-0175846D01*
X-0102500Y0028050D02*
X-0150500D01*
X-0101999Y0030241D02*
X-0102790Y0029450D01*
X-0075000Y0029050D02*
X-0101210D01*
X-0113850Y0028050D02*
Y0024750D01*
X-0073675Y0028800D02*
X-0101460D01*
X-0144000Y0029700D02*
Y0029450D01*
X-0132300Y0030700D02*
Y0029450D01*
X-0143550Y0029700D02*
Y0029450D01*
X-0175500Y0067250D02*
Y0067100D01*
X-0178918Y0066150D02*
X-0180000D01*
X-0142200Y0029700D02*
Y0029450D01*
X-0179553Y0065250D02*
X-0180000D01*
X-0178200Y0059232D02*
Y0024750D01*
X-0141750Y0029700D02*
Y0029450D01*
X-0175050Y0067250D02*
Y0067100D01*
X-0153681Y0065400D02*
X-0153971Y0065111D01*
X-0172534Y0067100D02*
X-0177226D01*
X-0139950Y0029700D02*
Y0029450D01*
X-0177750Y0059477D02*
Y0052829D01*
X-0159750Y0065400D02*
Y0059800D01*
X-0171450Y0067250D02*
Y0066368D01*
X-0173700Y0067250D02*
Y0067100D01*
X-0171900Y0067250D02*
Y0066818D01*
X-0167850Y0065400D02*
Y0056443D01*
X-0177300Y0067250D02*
Y0067097D01*
X-0141300Y0029700D02*
Y0029450D01*
X-0171000Y0044450D02*
Y0024750D01*
X-0131400Y0038639D02*
Y0038300D01*
X-0171000Y0067250D02*
Y0066678D01*
X-0131850Y0038316D02*
Y0038300D01*
X-0178650Y0067250D02*
Y0066248D01*
X-0132300Y0038367D02*
Y0038300D01*
X-0137198Y0036450D02*
X-0154272D01*
X-0139500Y0029700D02*
Y0029450D01*
X-0135198Y0037550D02*
X-0135500D01*
X-0134550Y0038450D02*
Y0038298D01*
X-0139050Y0029700D02*
Y0029450D01*
X-0130198Y0035800D02*
X-0132567D01*
X-0121950Y0041052D02*
Y0040450D01*
X-0122575Y0039600D02*
X-0122950D01*
X-0121500Y0031722D02*
Y0029450D01*
X-0075183Y0050950D02*
X-0079272D01*
X-0122400Y0041175D02*
Y0040450D01*
X-0121250Y0041200D02*
X-0121567D01*
X-0135000Y0029700D02*
Y0029450D01*
X-0080100Y0046950D02*
Y0042550D01*
X-0099450Y0041450D02*
Y0034632D01*
X-0134100Y0029557D02*
Y0029450D01*
X-0138600Y0029700D02*
Y0029450D01*
X-0147472Y0032200D02*
X-0148787D01*
X-0097200Y0064430D02*
Y0059050D01*
X-0090000Y0046950D02*
Y0046550D01*
X-0117228Y0029450D02*
X-0146867D01*
X-0148050Y0028050D02*
Y0024750D01*
X-0157198Y0029700D02*
X-0180000D01*
X-0131850Y0030700D02*
Y0029450D01*
X-0143100Y0029700D02*
Y0029450D01*
X-0146250Y0029700D02*
Y0029450D01*
X-0145350Y0032200D02*
Y0030800D01*
X-0135900Y0038450D02*
Y0037378D01*
X-0146693Y0037350D02*
X-0153372D01*
X-0134433Y0029700D02*
X-0146802D01*
X-0137183Y0037800D02*
X-0145567D01*
X-0144900Y0038450D02*
Y0037800D01*
X-0144450Y0038450D02*
Y0037800D01*
X-0135928Y0037350D02*
X-0136057D01*
X-0136350Y0038450D02*
Y0037824D01*
X-0137250Y0038450D02*
Y0037800D01*
X-0172350Y0031601D02*
Y0024750D01*
X-0072230Y0026550D02*
X-0086569D01*
X-0099900Y0029050D02*
Y0024750D01*
X-0127800Y0030700D02*
Y0029450D01*
X-0137250Y0028050D02*
Y0024750D01*
X-0068250Y0046350D02*
X-0068471D01*
X-0073350Y0047450D02*
Y0046394D01*
X-0085778Y0054000D02*
X-0097510D01*
X-0070650Y0052004D02*
Y0049491D01*
X-0137183Y0037800D02*
X-0145567D01*
X-0146250Y0038450D02*
Y0037904D01*
X-0145800Y0038450D02*
Y0037921D01*
X-0071100Y0047450D02*
Y0046584D01*
X-0123750Y0028050D02*
Y0024750D01*
X-0068250Y0045000D02*
X-0069384D01*
X-0068250Y0045450D02*
X-0069204D01*
X-0171824Y0046350D02*
X-0180000D01*
X-0068850Y0067250D02*
Y0052835D01*
X-0075455Y0061800D02*
X-0077498D01*
X-0145350Y0036700D02*
Y0033300D01*
X-0123300Y0030700D02*
Y0029450D01*
X-0068250Y0052650D02*
X-0068664D01*
X-0075150Y0067250D02*
Y0066328D01*
X-0068250Y0055350D02*
X-0083394D01*
X-0070389Y0051970D02*
X-0069850Y0051431D01*
X-0068250Y0067250D02*
Y0052183D01*
X-0069750Y0067250D02*
Y0054161D01*
X-0138150Y0029700D02*
Y0029450D01*
X-0097886Y0066600D02*
X-0098421D01*
X-0069850Y0051431D02*
Y0049367D01*
X-0077400Y0059355D02*
Y0052050D01*
X-0070200Y0044482D02*
Y0042020D01*
X-0136350Y0029700D02*
Y0029450D01*
X-0146700Y0038450D02*
Y0033300D01*
X-0148050Y0032200D02*
Y0030800D01*
X-0068250Y0052200D02*
X-0068259D01*
X-0122400Y0030826D02*
Y0029450D01*
X-0094050Y0046950D02*
Y0046300D01*
X-0071251Y0048550D02*
X-0071993D01*
X-0071251Y0048600D02*
X-0071988D01*
X-0093150Y0041450D02*
Y0030450D01*
X-0136800Y0035867D02*
Y0033286D01*
X-0099900Y0065400D02*
Y0059050D01*
X-0122400Y0037221D02*
Y0036178D01*
X-0085378Y0059850D02*
X-0085816D01*
X-0091819Y0062050D02*
X-0092988D01*
X-0137250Y0067250D02*
Y0067100D01*
X-0094319Y0062050D02*
X-0095817D01*
X-0097036Y0060300D02*
X-0097287D01*
X-0104400Y0032700D02*
Y0029450D01*
X-0085728Y0060200D02*
X-0085773D01*
X-0076950Y0065400D02*
Y0061800D01*
X-0082800Y0061819D02*
Y0061800D01*
X-0088200Y0065400D02*
Y0062050D01*
X-0084150Y0065400D02*
Y0061800D01*
X-0072450Y0067250D02*
Y0061050D01*
X-0141050Y0062295D02*
Y0062000D01*
X-0121050Y0032172D02*
Y0029450D01*
X-0078300Y0061819D02*
Y0061800D01*
X-0074250Y0064366D02*
Y0061800D01*
X-0073666Y0030150D02*
X-0074425D01*
X-0068250Y0059850D02*
X-0069816D01*
X-0071100Y0059368D02*
Y0054802D01*
X-0072300Y0061650D02*
X-0073372D01*
X-0075150Y0032798D02*
Y0030450D01*
X-0074700Y0033078D02*
Y0030382D01*
X-0076020Y0060300D02*
X-0077021D01*
X-0089550Y0067250D02*
Y0067100D01*
X-0072300Y0061050D02*
X-0072772D01*
X-0072000Y0059950D02*
X-0073000D01*
X-0072300Y0062100D02*
X-0074447D01*
X-0068250Y0060300D02*
X-0069787D01*
X-0072300Y0061200D02*
X-0072922D01*
X-0096300Y0041450D02*
Y0030450D01*
X-0073978Y0060700D02*
X-0074479D01*
X-0074700Y0061872D02*
Y0061800D01*
X-0098100Y0041450D02*
Y0030450D01*
X-0068250Y0061650D02*
X-0071200D01*
X-0075955Y0063000D02*
X-0077095D01*
X-0070981Y0063450D02*
X-0071079D01*
X-0097200Y0041450D02*
Y0030450D01*
X-0097650Y0041450D02*
Y0030450D01*
X-0073358Y0061636D02*
X-0072772Y0061050D01*
X-0071535Y0060187D02*
X-0071608Y0060114D01*
X-0096750Y0041450D02*
Y0030450D01*
X-0072404Y0063000D02*
X-0074352D01*
X-0072300Y0062550D02*
X-0074274D01*
X-0136433Y0040800D02*
X-0152500D01*
X-0094950Y0041450D02*
Y0030450D01*
X-0136800Y0042200D02*
Y0040800D01*
X-0135450Y0042200D02*
Y0040800D01*
X-0134550Y0042200D02*
Y0040800D01*
X-0130950Y0042200D02*
Y0040800D01*
X-0094500Y0041450D02*
Y0030450D01*
X-0123472Y0041000D02*
X-0123114Y0040642D01*
X-0124200Y0039052D02*
Y0038183D01*
X-0076950Y0067250D02*
Y0067100D01*
X-0094050Y0041450D02*
Y0030450D01*
X-0157000Y0033950D02*
X-0169817D01*
X-0120150Y0030300D02*
Y0029450D01*
X-0068400Y0067250D02*
Y0052385D01*
X-0120150Y0042190D02*
Y0041628D01*
X-0123961Y0038700D02*
X-0131367D01*
X-0072450Y0026770D02*
Y0024750D01*
X-0071550Y0041022D02*
Y0040111D01*
X-0068250Y0038700D02*
X-0069676D01*
X-0087260Y0039600D02*
X-0112066D01*
X-0083356D02*
X-0086740D01*
X-0087904Y0038250D02*
X-0113222D01*
X-0071100Y0040640D02*
Y0039661D01*
X-0072074Y0040636D02*
X-0070469Y0039031D01*
X-0147600Y0032200D02*
Y0032008D01*
X-0135510Y0032400D02*
X-0136644D01*
X-0136350Y0028050D02*
Y0024750D01*
X-0157500Y0030260D02*
Y0024750D01*
X-0128700Y0039200D02*
Y0038300D01*
X-0154800Y0035922D02*
Y0033800D01*
X-0154350Y0036372D02*
Y0033800D01*
X-0085500Y0041450D02*
Y0040800D01*
X-0149850Y0038450D02*
Y0033800D01*
X-0153900Y0036822D02*
Y0033800D01*
X-0084150Y0031450D02*
Y0030450D01*
X-0115200Y0067250D02*
Y0067097D01*
X-0090900Y0041450D02*
Y0030450D01*
X-0103067Y0064350D02*
X-0105394D01*
X-0113800Y0035460D02*
X-0113951D01*
X-0091350Y0041450D02*
Y0030450D01*
X-0104400Y0065400D02*
Y0064074D01*
X-0130078Y0066600D02*
X-0130681D01*
X-0126900Y0067250D02*
Y0067100D01*
X-0138600Y0028050D02*
Y0024750D01*
X-0083700Y0031450D02*
Y0030450D01*
X-0083250Y0031450D02*
Y0030450D01*
X-0082800Y0031450D02*
Y0030450D01*
X-0129513Y0067050D02*
X-0131246D01*
X-0109800Y0059259D02*
Y0056050D01*
X-0105300Y0057950D02*
Y0056050D01*
X-0156150Y0058700D02*
Y0057800D01*
X-0127800Y0058700D02*
Y0056050D01*
X-0157198Y0055550D02*
X-0166772D01*
X-0102600Y0059248D02*
Y0059050D01*
X-0171450Y0059216D02*
Y0055050D01*
X-0104850Y0057950D02*
Y0056050D01*
X-0090450Y0059596D02*
Y0059050D01*
X-0085050Y0039700D02*
Y0038800D01*
X-0085500Y0039700D02*
Y0038800D01*
X-0082800Y0041450D02*
Y0040800D01*
X-0076950Y0031302D02*
Y0030450D01*
X-0125100Y0058700D02*
Y0056050D01*
X-0126450Y0058700D02*
Y0056050D01*
X-0126000Y0058700D02*
Y0056050D01*
X-0107536Y0058050D02*
X-0180000D01*
X-0157500Y0058700D02*
Y0057740D01*
X-0129600Y0058700D02*
Y0056878D01*
X-0103000Y0056050D02*
X-0128772D01*
X-0080760Y0057600D02*
X-0130322D01*
X-0158400Y0053950D02*
Y0053878D01*
X-0134550Y0056700D02*
Y0056550D01*
X-0155700Y0056700D02*
Y0056050D01*
X-0153450Y0056700D02*
Y0056050D01*
X-0131750Y0056550D02*
X-0152067D01*
X-0153154Y0056250D02*
X-0167260D01*
X-0153900Y0056700D02*
Y0056050D01*
X-0173250Y0059477D02*
Y0055050D01*
X-0076050Y0033090D02*
Y0030450D01*
X-0137250Y0056700D02*
Y0056550D01*
X-0130500Y0058700D02*
Y0057740D01*
X-0092250Y0060450D02*
Y0059050D01*
X-0130358Y0057636D02*
X-0128772Y0056050D01*
X-0133650Y0056700D02*
Y0056550D01*
X-0106200Y0057950D02*
Y0056050D01*
X-0091350Y0059269D02*
Y0059050D01*
X-0089550Y0060450D02*
Y0059198D01*
X-0101700Y0042450D02*
Y0030540D01*
X-0078750Y0046950D02*
Y0042550D01*
X-0102150Y0042450D02*
Y0033856D01*
X-0100382Y0043950D02*
X-0110552D01*
X-0108450D02*
Y0043550D01*
X-0068250Y0035550D02*
X-0087975D01*
X-0144000Y0032200D02*
Y0030800D01*
X-0144450Y0032200D02*
Y0030800D01*
X-0075964Y0045000D02*
X-0098300D01*
X-0094500Y0029050D02*
Y0024750D01*
X-0077850Y0046950D02*
Y0042550D01*
X-0138600Y0036700D02*
Y0033300D01*
X-0120450Y0042387D02*
Y0042000D01*
X-0099000Y0059878D02*
Y0059050D01*
X-0138600Y0032200D02*
Y0030800D01*
X-0133650Y0029644D02*
Y0029450D01*
X-0084928Y0059400D02*
X-0086157D01*
X-0130050Y0058700D02*
Y0057328D01*
X-0068250Y0058500D02*
X-0079846D01*
X-0082923Y0059400D02*
X-0083372D01*
X-0081450Y0060700D02*
Y0058800D01*
X-0083228Y0059850D02*
X-0083822D01*
X-0092020Y0060300D02*
X-0092787D01*
X-0082761Y0061800D02*
X-0085522D01*
X-0090000Y0029050D02*
Y0024750D01*
X-0080550Y0060700D02*
Y0058948D01*
X-0082350Y0059214D02*
Y0058800D01*
X-0083239Y0060300D02*
X-0084272D01*
X-0088650Y0065400D02*
Y0062050D01*
X-0082800Y0057700D02*
Y0052748D01*
X-0083250Y0060700D02*
Y0060247D01*
X-0083700Y0060700D02*
Y0059728D01*
X-0083250Y0059945D02*
Y0059278D01*
Y0062445D02*
Y0061800D01*
X-0083024Y0060700D02*
X-0084672D01*
X-0068250Y0057600D02*
X-0080240D01*
X-0087750Y0065400D02*
Y0062050D01*
X-0088650Y0060450D02*
Y0053550D01*
X-0087300Y0064528D02*
Y0063231D01*
X-0084600Y0060700D02*
Y0060628D01*
X-0085950Y0062096D02*
Y0062048D01*
X-0092700Y0065400D02*
Y0062050D01*
X-0098668Y0066846D02*
X-0098154Y0066332D01*
X-0118350Y0030300D02*
Y0029450D01*
X-0083250Y0057760D02*
Y0051278D01*
X-0094476Y0060450D02*
X-0095867D01*
X-0090000D02*
Y0059050D01*
X-0094360Y0062100D02*
X-0095889D01*
X-0090639Y0066846D02*
X-0091154Y0066332D01*
X-0095400Y0060450D02*
Y0059050D01*
X-0089100Y0029050D02*
Y0028020D01*
X-0090000Y0064868D02*
Y0062050D01*
X-0103950Y0032700D02*
Y0029450D01*
X-0096934Y0061650D02*
X-0101316D01*
X-0068250Y0059400D02*
X-0070157D01*
X-0162228Y0058950D02*
X-0180000D01*
X-0084478D02*
X-0088964D01*
X-0094950Y0057950D02*
Y0053550D01*
X-0089933Y0059050D02*
X-0106567D01*
X-0103500Y0059878D02*
Y0059050D01*
X-0107700Y0058500D02*
X-0180000D01*
X-0103950Y0060950D02*
Y0059050D01*
X-0095850Y0060450D02*
Y0059050D01*
X-0077400Y0041450D02*
Y0040800D01*
X-0106200Y0028050D02*
Y0024750D01*
X-0095850Y0057950D02*
Y0053550D01*
X-0109800Y0067250D02*
Y0067100D01*
X-0118800Y0067250D02*
Y0067100D01*
X-0114650Y0059400D02*
X-0118337D01*
X-0073857Y0029700D02*
X-0074302D01*
X-0068250Y0038250D02*
X-0069492D01*
X-0071478Y0040950D02*
X-0072011D01*
X-0068250Y0041400D02*
X-0069522D01*
X-0071358Y0042386D02*
X-0070860Y0041888D01*
X-0072000Y0045502D02*
Y0042550D01*
X-0068250Y0042750D02*
X-0089346D01*
X-0070650Y0044504D02*
Y0041991D01*
X-0068250Y0041850D02*
X-0069827D01*
X-0068250Y0045900D02*
X-0068921D01*
X-0101360Y0041400D02*
X-0113122D01*
X-0076218D02*
X-0100639D01*
X-0071100Y0044722D02*
Y0042128D01*
X-0076202Y0041450D02*
X-0100567D01*
X-0132300Y0056700D02*
Y0056550D01*
X-0102150Y0043950D02*
Y0043550D01*
X-0096300Y0045200D02*
Y0043550D01*
X-0107828Y0060700D02*
X-0108979D01*
X-0098550Y0057950D02*
Y0054050D01*
X-0097650Y0045200D02*
Y0043550D01*
X-0097200Y0045200D02*
Y0043550D01*
X-0103050Y0060950D02*
Y0060919D01*
X-0108000Y0060700D02*
Y0060382D01*
X-0102600Y0042450D02*
Y0033943D01*
X-0140239Y0060300D02*
X-0141021D01*
X-0107550Y0058067D02*
Y0056050D01*
X-0108900Y0060700D02*
Y0060590D01*
X-0141050Y0063000D02*
X-0141095D01*
X-0140850Y0061572D02*
Y0059800D01*
X-0140228Y0059850D02*
X-0141032D01*
X-0139979Y0060750D02*
X-0141286D01*
X-0142650Y0062164D02*
Y0060528D01*
X-0140886Y0061608D02*
X-0140142Y0060864D01*
X-0158494Y0065400D02*
X-0160681D01*
X-0107100Y0043950D02*
Y0043550D01*
X-0157050Y0029317D02*
Y0024750D01*
X-0136800Y0028050D02*
Y0024750D01*
X-0081513Y0067050D02*
X-0083246D01*
X-0095400Y0067250D02*
Y0067100D01*
X-0095850Y0067250D02*
Y0067100D01*
X-0093150Y0067250D02*
Y0067100D01*
X-0090900Y0067250D02*
Y0066586D01*
X-0085050Y0029050D02*
Y0024750D01*
X-0090450Y0029050D02*
Y0024750D01*
X-0074700Y0067250D02*
Y0066222D01*
X-0084672Y0060700D02*
X-0082772Y0058800D01*
X-0071491Y0059850D02*
X-0074316D01*
X-0071144Y0054846D02*
X-0070610Y0054312D01*
X-0080550Y0065400D02*
Y0061800D01*
X-0081450Y0064365D02*
Y0061800D01*
X-0071150Y0059400D02*
X-0074657D01*
X-0072010Y0063900D02*
X-0103425D01*
X-0072421Y0063450D02*
X-0074826D01*
X-0074700Y0064037D02*
Y0063387D01*
X-0075150Y0063947D02*
Y0063513D01*
X-0075600Y0064034D02*
Y0063392D01*
X-0073750Y0061800D02*
X-0074852D01*
X-0071328Y0065700D02*
X-0074117D01*
X-0068250Y0066150D02*
X-0074554D01*
X-0071100Y0067250D02*
Y0065892D01*
X-0076626Y0065400D02*
X-0077051D01*
X-0081000Y0067250D02*
Y0067100D01*
X-0068250Y0067050D02*
X-0075986D01*
X-0068250Y0063900D02*
X-0071490D01*
X-0068250Y0063450D02*
X-0070326D01*
X-0068250Y0063000D02*
X-0069852D01*
X-0068250Y0061200D02*
X-0071200D01*
X-0070200Y0064372D02*
Y0063387D01*
X-0070650Y0064247D02*
Y0063513D01*
X-0072000Y0067250D02*
Y0063904D01*
X-0068250Y0062100D02*
X-0069947D01*
X-0068250Y0060750D02*
X-0070025D01*
X-0071200Y0061936D02*
Y0060824D01*
X-0070200Y0061872D02*
Y0060887D01*
X-0070650Y0061747D02*
Y0061013D01*
X-0073350Y0067250D02*
Y0061628D01*
X-0074250Y0067250D02*
Y0065893D01*
X-0068250Y0065700D02*
X-0069979D01*
X-0068250Y0065250D02*
X-0069779D01*
X-0070200Y0067250D02*
Y0065887D01*
X-0070650Y0067250D02*
Y0066013D01*
X-0068250Y0062550D02*
X-0069774D01*
X-0068250Y0064800D02*
X-0069834D01*
X-0076050Y0064358D02*
Y0061800D01*
X-0081900Y0061855D02*
Y0061800D01*
X-0078739Y0060300D02*
X-0081521D01*
X-0078728Y0059850D02*
X-0081532D01*
X-0078524Y0060700D02*
X-0081735D01*
X-0085050Y0065400D02*
Y0061800D01*
X-0078750Y0062445D02*
Y0061800D01*
X-0119700Y0030300D02*
Y0029450D01*
X-0078423Y0059400D02*
X-0081837D01*
X-0078106Y0063450D02*
X-0082154D01*
X-0078665Y0063000D02*
X-0081595D01*
X-0078762Y0062550D02*
X-0081498D01*
X-0081900Y0064015D02*
Y0063337D01*
X-0082350Y0063914D02*
Y0063479D01*
X-0082800Y0063990D02*
Y0063373D01*
X-0083250Y0064295D02*
Y0062747D01*
X-0078610Y0062100D02*
X-0081650D01*
X-0080100Y0067250D02*
Y0067100D01*
X-0078749Y0065250D02*
X-0081024D01*
X-0072900Y0067250D02*
Y0061178D01*
X-0080874Y0065400D02*
X-0081197Y0065077D01*
X-0087750Y0067250D02*
Y0067100D01*
X-0078750Y0065400D02*
Y0065247D01*
X-0075650Y0059400D02*
X-0077337D01*
X-0075481Y0063450D02*
X-0077654D01*
X-0075150Y0059247D02*
Y0054008D01*
X-0077400Y0064355D02*
Y0063337D01*
X-0077850Y0064214D02*
Y0063479D01*
X-0078300Y0064319D02*
Y0063373D01*
X-0078750Y0064945D02*
Y0062747D01*
X-0124200Y0067250D02*
Y0067032D01*
X-0071100Y0061868D02*
Y0060892D01*
X-0075828Y0060700D02*
X-0077235D01*
X-0076050D02*
Y0053716D01*
X-0079200Y0065400D02*
Y0061800D01*
X-0075600Y0061868D02*
Y0061800D01*
X-0077400Y0061855D02*
Y0061800D01*
X-0080100Y0065400D02*
Y0061800D01*
X-0143100Y0042200D02*
Y0040800D01*
X-0075600Y0059368D02*
Y0054006D01*
X-0081000Y0065274D02*
Y0061800D01*
X-0080550Y0067250D02*
Y0067100D01*
X-0081900Y0067250D02*
Y0066778D01*
X-0076050Y0067250D02*
Y0067070D01*
X-0077400Y0067250D02*
Y0067100D01*
X-0078300Y0067250D02*
Y0067100D01*
X-0074260Y0054900D02*
X-0083307D01*
X-0081000Y0060700D02*
Y0058800D01*
X-0073412Y0046350D02*
X-0074827D01*
X-0074250Y0047450D02*
Y0042550D01*
X-0144000Y0038450D02*
Y0037800D01*
X-0075600Y0047240D02*
Y0046506D01*
X-0073718Y0045900D02*
X-0074522D01*
X-0073729Y0045450D02*
X-0074511D01*
X-0073464Y0045000D02*
X-0074776D01*
X-0071326Y0046350D02*
X-0072327D01*
X-0071550Y0047450D02*
Y0045737D01*
X-0074700Y0047450D02*
Y0046228D01*
X-0072450Y0047450D02*
Y0046430D01*
X-0072900Y0047450D02*
Y0046536D01*
X-0071527Y0045900D02*
X-0072022D01*
X-0071535Y0045450D02*
X-0072011D01*
X-0071356Y0045000D02*
X-0072276D01*
X-0135892Y0037386D02*
X-0136050Y0037227D01*
X-0070200Y0047787D02*
Y0047025D01*
X-0068250Y0046623D02*
Y0024750D01*
Y0054450D02*
X-0070748D01*
X-0074250Y0051010D02*
Y0048550D01*
X-0071550Y0045569D02*
Y0042512D01*
X-0119250Y0067250D02*
Y0067100D01*
X-0071928Y0041400D02*
X-0072022D01*
X-0091800Y0029050D02*
Y0024750D01*
X-0071978Y0041450D02*
X-0071296Y0040768D01*
X-0072000Y0041450D02*
Y0041304D01*
X-0072450Y0044876D02*
Y0042550D01*
X-0068250Y0044550D02*
X-0069943D01*
X-0071978Y0041450D02*
X-0072038D01*
X-0068250Y0026550D02*
X-0070770D01*
X-0177700Y0027900D02*
X-0180000D01*
X-0089200D02*
X-0175300D01*
X-0150300Y0028050D02*
Y0024750D01*
X-0068250Y0025650D02*
X-0087346D01*
X-0147600Y0041807D02*
Y0040800D01*
X-0084150Y0029050D02*
Y0024750D01*
X-0074214Y0053550D02*
X-0074581D01*
X-0071550Y0052848D02*
Y0048550D01*
X-0073800Y0060522D02*
Y0055204D01*
X-0073595Y0052650D02*
X-0074644D01*
X-0073751Y0053100D02*
X-0074488D01*
X-0073350Y0060076D02*
Y0055239D01*
X-0073800Y0053296D02*
Y0048550D01*
X-0074700Y0059372D02*
Y0053728D01*
X-0075991Y0059850D02*
X-0077032D01*
X-0076033Y0062550D02*
X-0076998D01*
X-0069750Y0044646D02*
Y0041782D01*
X-0068400Y0036473D02*
Y0024750D01*
X-0075150Y0044798D02*
Y0042550D01*
X-0088654Y0025650D02*
X-0175846D01*
X-0068250Y0026100D02*
X-0086800D01*
X-0089431Y0027450D02*
X-0175069D01*
X-0072629Y0027900D02*
X-0086800D01*
X-0100450Y0033300D02*
X-0101802D01*
X-0069850Y0050400D02*
X-0074675D01*
X-0123252Y0041220D02*
X-0123472Y0041000D01*
X-0088650Y0025648D02*
Y0024750D01*
X-0072589Y0027000D02*
X-0086500D01*
X-0149850Y0028050D02*
Y0024750D01*
X-0148950Y0031505D02*
Y0031495D01*
X-0072900Y0052271D02*
Y0049536D01*
X-0072450Y0052376D02*
Y0049430D01*
X-0087750Y0029050D02*
Y0028479D01*
X-0072000Y0053002D02*
Y0048804D01*
X-0076095Y0052650D02*
X-0080148D01*
X-0071159Y0049050D02*
X-0072081D01*
X-0070622Y0049500D02*
X-0072618D01*
X-0068250Y0054900D02*
X-0071202D01*
X-0068250Y0036000D02*
X-0087975D01*
X-0071440Y0052650D02*
X-0072144D01*
X-0079650Y0029050D02*
Y0024750D01*
X-0089850Y0036500D02*
Y0036025D01*
X-0075150Y0050925D02*
Y0050693D01*
X-0068250Y0031500D02*
X-0076510D01*
X-0158328Y0053950D02*
X-0174500D01*
X-0072000Y0047450D02*
Y0045804D01*
X-0081000Y0057700D02*
Y0053414D01*
X-0092700Y0067250D02*
Y0067100D01*
X-0078261Y0061800D02*
X-0081998D01*
X-0087750Y0041450D02*
Y0038990D01*
X-0078750Y0050950D02*
Y0050550D01*
X-0074700Y0052578D02*
Y0052198D01*
X-0080550Y0057552D02*
Y0053161D01*
X-0080100Y0057675D02*
Y0052538D01*
X-0076290Y0064800D02*
X-0077048D01*
X-0085728Y0060200D02*
X-0083392Y0057864D01*
X-0086850Y0039566D02*
Y0039074D01*
X-0068250Y0037350D02*
X-0068313D01*
X-0078709Y0065400D02*
X-0080874D01*
X-0177750Y0026171D02*
Y0024750D01*
X-0068250Y0025200D02*
X-0180000D01*
X-0177700Y0026100D02*
X-0180000D01*
X-0179100Y0059585D02*
Y0024750D01*
X-0177750Y0051171D02*
Y0027829D01*
X-0089200Y0026100D02*
X-0175300D01*
X-0089431Y0026550D02*
X-0175069D01*
X-0089500Y0027000D02*
X-0175000D01*
X-0086400Y0029050D02*
Y0024750D01*
X-0074700Y0029117D02*
Y0024750D01*
X-0176400Y0065400D02*
Y0053496D01*
X-0177300Y0050731D02*
Y0028269D01*
X-0176850Y0050541D02*
Y0028458D01*
X-0175950Y0065400D02*
Y0053395D01*
X-0176400Y0050503D02*
Y0028496D01*
X-0175950Y0050604D02*
Y0028395D01*
X-0175500Y0065400D02*
Y0053118D01*
X-0172350Y0067250D02*
Y0067080D01*
X-0174600Y0059585D02*
Y0055434D01*
X-0175500Y0050882D02*
Y0028118D01*
X-0175050Y0051616D02*
Y0027384D01*
X-0085500Y0029050D02*
Y0024750D01*
X-0088022Y0031700D02*
X-0088275Y0031447D01*
X-0088200Y0033975D02*
Y0032800D01*
X-0087750Y0036150D02*
Y0032800D01*
X-0068250Y0034650D02*
X-0087975D01*
X-0088200Y0029050D02*
Y0028486D01*
X-0077433Y0032550D02*
X-0085867D01*
X-0086933Y0031700D02*
X-0088022D01*
X-0088200Y0031522D02*
Y0030450D01*
X-0086850Y0036150D02*
Y0032856D01*
X-0086933Y0032800D02*
X-0088250D01*
X-0086400Y0031471D02*
Y0030450D01*
X-0086850Y0031644D02*
Y0030450D01*
X-0087300Y0036150D02*
Y0032800D01*
X-0085500Y0036150D02*
Y0032550D01*
X-0085050Y0036150D02*
Y0032550D01*
X-0084600Y0036150D02*
Y0032550D01*
X-0085950Y0036150D02*
Y0032683D01*
X-0086860Y0032850D02*
X-0099050D01*
X-0084150Y0036150D02*
Y0032550D01*
X-0086479Y0031500D02*
X-0088222D01*
X-0077400Y0031425D02*
Y0030450D01*
Y0036150D02*
Y0032574D01*
X-0088650Y0033975D02*
Y0032628D01*
X-0089053Y0032225D02*
X-0089725D01*
X-0081900Y0031450D02*
Y0030450D01*
X-0080550Y0036150D02*
Y0032550D01*
X-0080100Y0036150D02*
Y0032550D01*
X-0130500Y0030700D02*
Y0029450D01*
X-0078750Y0036150D02*
Y0032550D01*
X-0086400Y0059284D02*
Y0053550D01*
X-0085050Y0053172D02*
Y0052050D01*
X-0167400Y0059383D02*
Y0056356D01*
X-0143100Y0038450D02*
Y0037800D01*
X-0073978Y0060700D02*
X-0073392Y0060114D01*
X-0085050Y0059522D02*
Y0054728D01*
X-0141300Y0038450D02*
Y0037800D01*
X-0082661Y0051050D02*
X-0083022D01*
X-0085950Y0052452D02*
Y0052050D01*
X-0079200Y0036150D02*
Y0032550D01*
X-0132433Y0038450D02*
X-0152272D01*
X-0121200Y0037350D02*
X-0121372D01*
X-0153000Y0037722D02*
Y0033800D01*
X-0120478Y0041300D02*
X-0120500D01*
X-0121050Y0035460D02*
Y0035240D01*
X-0153450Y0044450D02*
Y0040078D01*
X-0144000Y0028050D02*
Y0024750D01*
X-0121200Y0037522D02*
X-0121358Y0037364D01*
X-0121750Y0037200D02*
X-0122250D01*
X-0121500Y0037260D02*
Y0035278D01*
X-0122850Y0037572D02*
Y0036628D01*
X-0124683Y0039200D02*
X-0131329D01*
X-0123078Y0037800D02*
X-0124052D01*
X-0121950Y0038550D02*
Y0038328D01*
X-0122575Y0039150D02*
X-0122872D01*
X-0122272Y0038550D02*
X-0122022Y0038300D01*
X-0123252Y0041220D02*
X-0123472Y0041000D01*
X-0123300Y0041172D02*
Y0040828D01*
X-0121078Y0040950D02*
X-0123422D01*
X-0124050Y0039079D02*
Y0039000D01*
X-0122627Y0037350D02*
X-0123572D01*
X-0123528Y0038250D02*
X-0124260D01*
X-0122850Y0030700D02*
Y0029450D01*
X-0135900Y0042200D02*
Y0040943D01*
X-0120200Y0031500D02*
X-0121722D01*
X-0125228Y0040800D02*
X-0135567D01*
X-0124642Y0041386D02*
X-0125228Y0040800D01*
X-0122457Y0041220D02*
X-0123252D01*
X-0081450Y0046950D02*
Y0042550D01*
X-0125100Y0041700D02*
Y0040928D01*
X-0124328Y0041700D02*
X-0126500D01*
X-0124642Y0041386D02*
X-0125228Y0040800D01*
X-0127350Y0042200D02*
Y0040800D01*
X-0135900Y0028050D02*
Y0024750D01*
X-0125228Y0040800D02*
X-0135567D01*
X-0135000Y0042200D02*
Y0040800D01*
X-0126877Y0041850D02*
X-0147240D01*
X-0126900Y0039200D02*
Y0038300D01*
X-0126000Y0041700D02*
Y0040800D01*
X-0137250Y0032050D02*
Y0030800D01*
X-0121728Y0038550D02*
X-0121978Y0038300D01*
X-0070200Y0051781D02*
Y0049520D01*
X-0069850Y0047700D02*
X-0070546D01*
X-0093600Y0046950D02*
Y0046300D01*
X-0071999Y0053296D02*
X-0071497Y0052795D01*
X-0126450Y0041700D02*
Y0040800D01*
X-0069850Y0049950D02*
X-0074552D01*
X-0143550Y0038450D02*
Y0037800D01*
X-0073751Y0048600D02*
X-0074488D01*
X-0124328Y0041700D02*
X-0124636Y0041392D01*
X-0136350Y0042200D02*
Y0040856D01*
X-0073747Y0048550D02*
X-0074493D01*
X-0120600Y0060700D02*
Y0056050D01*
X-0069850Y0051300D02*
X-0074079D01*
X-0124628Y0041400D02*
X-0180000D01*
X-0128700Y0042200D02*
Y0040800D01*
X-0122850Y0041220D02*
Y0039128D01*
X-0129600Y0042200D02*
Y0040800D01*
X-0125550Y0041700D02*
Y0040800D01*
X-0126900Y0041872D02*
Y0040800D01*
X-0124328Y0041700D02*
X-0124636Y0041392D01*
X-0130500Y0042200D02*
Y0040800D01*
X-0124650Y0041700D02*
Y0041378D01*
X-0128250Y0042200D02*
Y0040800D01*
X-0130050Y0042200D02*
Y0040800D01*
X-0129150Y0042200D02*
Y0040800D01*
X-0155036Y0038700D02*
X-0180000D01*
X-0156278Y0036000D02*
X-0180000D01*
X-0155200Y0038250D02*
X-0180000D01*
X-0151650Y0038450D02*
Y0033800D01*
X-0151200Y0044450D02*
Y0040800D01*
X-0151650Y0044450D02*
Y0040800D01*
X-0150750Y0044450D02*
Y0040800D01*
X-0153478Y0040050D02*
X-0180000D01*
X-0154378Y0039150D02*
X-0180000D01*
X-0153000Y0044450D02*
Y0040528D01*
X-0105300Y0067250D02*
Y0067100D01*
X-0104400Y0067250D02*
Y0067100D01*
X-0105750Y0067250D02*
Y0067100D01*
X-0103473Y0064800D02*
X-0106017D01*
X-0106639Y0066846D02*
X-0107154Y0066332D01*
X-0099274Y0067100D02*
X-0106034D01*
X-0154800Y0037617D02*
Y0037478D01*
X-0103500Y0057950D02*
Y0056050D01*
X-0094067Y0064350D02*
X-0097264D01*
X-0096750Y0067250D02*
Y0067100D01*
X-0102600Y0067250D02*
Y0067100D01*
X-0100350Y0067250D02*
Y0067100D01*
X-0101700Y0067250D02*
Y0067100D01*
X-0094473Y0064800D02*
X-0097017D01*
X-0099000Y0067250D02*
Y0067055D01*
X-0068250Y0058950D02*
X-0082922D01*
X-0101250Y0065400D02*
Y0059050D01*
X-0094528Y0065250D02*
X-0096831D01*
X-0098550Y0067250D02*
Y0066728D01*
X-0099900Y0067250D02*
Y0067100D01*
X-0101250Y0067250D02*
Y0067100D01*
X-0097639Y0066846D02*
X-0098154Y0066332D01*
X-0092626Y0065400D02*
X-0092813D01*
X-0087494D02*
X-0089681D01*
X-0092274Y0067100D02*
X-0097034D01*
X-0091860Y0062100D02*
X-0092947D01*
X-0126450Y0030700D02*
Y0029450D01*
X-0092043Y0064350D02*
X-0093240D01*
X-0087067D02*
X-0090264D01*
X-0096300Y0065400D02*
Y0062198D01*
X-0094500Y0067250D02*
Y0067100D01*
X-0094050Y0067250D02*
Y0067100D01*
X-0094950Y0067250D02*
Y0067100D01*
X-0087473Y0064800D02*
X-0090017D01*
X-0086850Y0067250D02*
Y0067100D01*
X-0088650Y0067250D02*
Y0067100D01*
X-0088200Y0067250D02*
Y0067100D01*
X-0095850Y0029050D02*
Y0024750D01*
X-0087300Y0067250D02*
Y0067100D01*
X-0078352Y0064350D02*
X-0081462D01*
X-0103500Y0032700D02*
Y0029450D01*
X-0129150Y0067250D02*
Y0067100D01*
X-0091350Y0067250D02*
Y0066528D01*
X-0084150Y0058622D02*
Y0055684D01*
X-0089100Y0065400D02*
Y0062050D01*
X-0083534Y0067100D02*
X-0090034D01*
X-0091668Y0066846D02*
X-0091154Y0066332D01*
X-0092250Y0067250D02*
Y0067100D01*
X-0094500Y0065400D02*
Y0065382D01*
X-0093600Y0067250D02*
Y0067100D01*
X-0090000Y0067250D02*
Y0067100D01*
X-0084150Y0067250D02*
Y0067100D01*
X-0085500Y0067250D02*
Y0067100D01*
X-0090321Y0067050D02*
X-0091986D01*
X-0077850Y0067250D02*
Y0067100D01*
X-0079200Y0067250D02*
Y0067100D01*
X-0068250Y0066600D02*
X-0075421D01*
X-0091800Y0067250D02*
Y0066956D01*
X-0090450Y0067250D02*
Y0066991D01*
X-0078712Y0064800D02*
X-0081235D01*
X-0095850Y0065400D02*
Y0062074D01*
X-0076476Y0065250D02*
X-0077010D01*
X-0071528D02*
X-0073977D01*
X-0076274Y0067100D02*
X-0081226D01*
X-0083736Y0065250D02*
X-0085779D01*
X-0095400Y0065400D02*
Y0062050D01*
X-0076043Y0064350D02*
X-0077408D01*
X-0071067D02*
X-0074264D01*
X-0075860Y0062100D02*
X-0077150D01*
X-0076626Y0065400D02*
X-0076336Y0065111D01*
X-0076500Y0067250D02*
Y0067100D01*
X-0107668Y0066846D02*
X-0107154Y0066332D01*
X-0071473Y0064800D02*
X-0074017D01*
X-0088787Y0037800D02*
X-0112772D01*
X-0088200Y0041450D02*
Y0037850D01*
X-0068250Y0040050D02*
X-0071489D01*
X-0070650Y0036150D02*
Y0034491D01*
X-0074700Y0036150D02*
Y0034229D01*
X-0068250Y0036450D02*
X-0068415D01*
X-0145800Y0042200D02*
Y0040800D01*
X-0088150Y0036148D02*
Y0036025D01*
X-0155378Y0036900D02*
X-0180000D01*
X-0089352Y0037350D02*
X-0112139D01*
X-0146700Y0042200D02*
Y0040800D01*
X-0146250Y0042200D02*
Y0040800D01*
X-0089100Y0041450D02*
Y0037602D01*
X-0144450Y0042200D02*
Y0040800D01*
X-0170100Y0033816D02*
Y0024750D01*
X-0071100Y0033157D02*
Y0028629D01*
X-0089550Y0041450D02*
Y0037152D01*
X-0068250Y0035100D02*
X-0087975D01*
X-0071070Y0052200D02*
X-0080013D01*
X-0074480Y0054450D02*
X-0083567D01*
X-0071750Y0055100D02*
X-0072973D01*
X-0076251Y0053100D02*
X-0080480D01*
X-0074250Y0053588D02*
Y0051990D01*
X-0071802Y0053100D02*
X-0071988D01*
X-0117900Y0067250D02*
Y0067100D01*
X-0070650Y0059247D02*
Y0054352D01*
X-0068250Y0053100D02*
X-0069114D01*
X-0068250Y0053550D02*
X-0069255D01*
X-0072900Y0059950D02*
Y0055100D01*
X-0089850Y0036025D02*
X-0090025D01*
X-0068400Y0046421D02*
Y0037527D01*
X-0072000Y0059950D02*
Y0055100D01*
X-0074250Y0060700D02*
Y0054911D01*
X-0070169Y0051750D02*
X-0074096D01*
X-0068250Y0054000D02*
X-0069544D01*
X-0069300Y0067250D02*
Y0053658D01*
X-0073800Y0067250D02*
Y0061800D01*
X-0070200Y0059372D02*
Y0054324D01*
X-0113321Y0067050D02*
X-0114986D01*
X-0112050Y0067250D02*
Y0067100D01*
X-0111600Y0067250D02*
Y0067100D01*
X-0087300Y0046950D02*
Y0046550D01*
X-0113639Y0066846D02*
X-0114154Y0066332D01*
X-0105300Y0065400D02*
Y0064050D01*
X-0103494Y0065400D02*
X-0105681D01*
X-0108274Y0067100D02*
X-0113034D01*
X-0127350Y0028050D02*
Y0024750D01*
X-0106650Y0067250D02*
Y0066836D01*
X-0077850Y0041450D02*
Y0040800D01*
X-0141300Y0042200D02*
Y0040800D01*
X-0140850Y0042200D02*
Y0040800D01*
X-0083700Y0058172D02*
Y0055632D01*
X-0117450Y0067250D02*
Y0067100D01*
X-0117000Y0067250D02*
Y0067100D01*
X-0121500Y0067250D02*
Y0067100D01*
X-0076950Y0041450D02*
Y0040800D01*
X-0115274Y0067100D02*
X-0122226D01*
X-0088650Y0030775D02*
Y0030450D01*
X-0112950Y0067250D02*
Y0067100D01*
X-0103950Y0028050D02*
Y0024750D01*
X-0159300Y0067250D02*
Y0067100D01*
X-0160200Y0067250D02*
Y0067100D01*
X-0165150Y0067250D02*
Y0067100D01*
X-0179397Y0065700D02*
X-0180000D01*
X-0163626Y0065400D02*
X-0166051D01*
X-0174150Y0067250D02*
Y0067100D01*
X-0158067Y0064350D02*
X-0161264D01*
X-0158473Y0064800D02*
X-0161017D01*
X-0156626Y0065400D02*
X-0156813D01*
X-0151494D02*
X-0153681D01*
X-0156274Y0067100D02*
X-0161034D01*
X-0162000Y0030454D02*
Y0024750D01*
X-0156043Y0064350D02*
X-0157240D01*
X-0151067D02*
X-0154264D01*
X-0161639Y0066846D02*
X-0162154Y0066332D01*
X-0158400Y0067250D02*
Y0067100D01*
X-0119700Y0067250D02*
Y0067100D01*
X-0151473Y0064800D02*
X-0154017D01*
X-0150750Y0067250D02*
Y0067100D01*
X-0151650Y0067250D02*
Y0067100D01*
X-0147600Y0067250D02*
Y0067100D01*
X-0161100Y0030377D02*
Y0024750D01*
X-0151200Y0067250D02*
Y0067100D01*
X-0142352Y0064350D02*
X-0145462D01*
X-0173250Y0061977D02*
Y0060715D01*
X-0170832Y0066846D02*
X-0171380Y0066298D01*
X-0157500Y0067250D02*
Y0067100D01*
X-0154350Y0029200D02*
Y0024750D01*
X-0142749Y0065250D02*
X-0145024D01*
X-0147534Y0067100D02*
X-0154034D01*
X-0154800Y0067250D02*
Y0066686D01*
X-0156150Y0067250D02*
Y0067091D01*
X-0157950Y0067250D02*
Y0067100D01*
X-0157050Y0067250D02*
Y0067100D01*
X-0154350Y0067250D02*
Y0067039D01*
X-0158850Y0067250D02*
Y0067100D01*
X-0145350Y0067250D02*
Y0067091D01*
X-0068250Y0057150D02*
X-0129872D01*
X-0166500Y0067250D02*
Y0067100D01*
X-0169650Y0067250D02*
Y0067100D01*
X-0170100Y0067250D02*
Y0067100D01*
X-0179228Y0059850D02*
X-0180000D01*
X-0172886Y0065400D02*
X-0172563Y0065077D01*
X-0173250Y0067250D02*
Y0067100D01*
X-0167352Y0064350D02*
X-0170462D01*
X-0167712Y0064800D02*
X-0170235D01*
X-0158528Y0065250D02*
X-0160831D01*
X-0155860Y0062100D02*
X-0156947D01*
X-0163274Y0067100D02*
X-0170226D01*
X-0154328Y0061200D02*
X-0180000D01*
X-0161550Y0067250D02*
Y0066925D01*
X-0159750Y0067250D02*
Y0067100D01*
X-0158360Y0062100D02*
X-0161447D01*
X-0163626Y0065400D02*
X-0163336Y0065111D01*
X-0164250Y0067250D02*
Y0067100D01*
X-0161100Y0067250D02*
Y0067097D01*
X-0160650Y0067250D02*
Y0067100D01*
X-0130950Y0067250D02*
Y0066868D01*
X-0128250Y0067250D02*
Y0067100D01*
X-0130500Y0067250D02*
Y0066418D01*
X-0144450Y0029700D02*
Y0029450D01*
X-0139928Y0066846D02*
X-0139380Y0066298D01*
X-0144900Y0029700D02*
Y0029450D01*
X-0126900Y0028050D02*
Y0024750D01*
X-0127800Y0067250D02*
Y0067100D01*
X-0122400Y0067250D02*
Y0067082D01*
X-0124534Y0067100D02*
X-0129226D01*
X-0139950Y0067250D02*
Y0066868D01*
X-0106650Y0043950D02*
Y0043550D01*
X-0123300Y0067250D02*
Y0066378D01*
X-0140400Y0042200D02*
Y0040800D01*
X-0078300Y0046950D02*
Y0042550D01*
X-0124650Y0039175D02*
Y0038443D01*
X-0119700Y0042206D02*
Y0042078D01*
X-0134100Y0058700D02*
Y0057800D01*
X-0110250Y0059479D02*
Y0056050D01*
X-0126450Y0034200D02*
Y0033300D01*
X-0125078Y0040950D02*
X-0180000D01*
X-0130950Y0028050D02*
Y0024750D01*
X-0143550Y0056700D02*
Y0056550D01*
X-0107100Y0028050D02*
Y0024750D01*
X-0158400Y0058700D02*
Y0055550D01*
X-0090025Y0036000D02*
X-0113800D01*
X-0090025Y0035550D02*
X-0113800D01*
X-0113400Y0036872D02*
Y0034233D01*
X-0112950Y0039079D02*
Y0037978D01*
X-0068250Y0039600D02*
X-0071039D01*
X-0073350Y0032912D02*
Y0030462D01*
X-0081900Y0059355D02*
Y0058800D01*
X-0174473Y0060750D02*
X-0177786D01*
X-0174739Y0060300D02*
X-0177521D01*
X-0174728Y0059850D02*
X-0177532D01*
X-0178200Y0061732D02*
Y0060961D01*
X-0178650Y0061755D02*
Y0060937D01*
X-0179100Y0062085D02*
Y0060607D01*
X-0177750Y0061977D02*
Y0060715D01*
X-0174423Y0059400D02*
X-0177837D01*
X-0174106Y0063450D02*
X-0178154D01*
X-0174665Y0063000D02*
X-0177595D01*
X-0174762Y0062550D02*
X-0177498D01*
X-0178200Y0063927D02*
Y0063461D01*
X-0178650Y0063944D02*
Y0063437D01*
X-0179100Y0064158D02*
Y0063107D01*
X-0177750Y0064095D02*
Y0063215D01*
X-0174610Y0062100D02*
X-0177650D01*
X-0176850Y0067250D02*
Y0067100D01*
X-0151036Y0029200D02*
X-0156067D01*
X-0174749Y0065250D02*
X-0177024D01*
X-0177832Y0066846D02*
X-0178399Y0066279D01*
X-0174709Y0065400D02*
X-0176874D01*
X-0175950Y0067250D02*
Y0067100D01*
X-0176400Y0067250D02*
Y0067100D01*
X-0174712Y0064800D02*
X-0177235D01*
X-0174352Y0064350D02*
X-0177462D01*
X-0171606Y0063450D02*
X-0173654D01*
X-0172165Y0063000D02*
X-0173095D01*
X-0172262Y0062550D02*
X-0172998D01*
X-0173250Y0064477D02*
Y0063215D01*
X-0172110Y0062100D02*
X-0173150D01*
X-0173700Y0064232D02*
Y0063461D01*
X-0174150Y0064255D02*
Y0063437D01*
X-0174600Y0064585D02*
Y0063107D01*
X-0171973Y0060750D02*
X-0173286D01*
X-0172239Y0060300D02*
X-0173021D01*
X-0172228Y0059850D02*
X-0173032D01*
X-0178606Y0063450D02*
X-0180000D01*
X-0178650Y0059255D02*
Y0024750D01*
X-0173700Y0061732D02*
Y0060961D01*
X-0174150Y0061755D02*
Y0060937D01*
X-0171923Y0059400D02*
X-0173337D01*
X-0175050Y0065400D02*
Y0055382D01*
X-0172886Y0065400D02*
X-0173051D01*
X-0179550Y0067250D02*
Y0065271D01*
X-0172736Y0065250D02*
X-0173010D01*
X-0176874Y0065400D02*
X-0177197Y0065077D01*
X-0177750Y0067250D02*
Y0066919D01*
X-0178078Y0066600D02*
X-0180000D01*
X-0172525Y0064800D02*
X-0173048D01*
X-0172298Y0064350D02*
X-0173408D01*
X-0167473Y0060750D02*
X-0170786D01*
X-0167739Y0060300D02*
X-0170521D01*
X-0167728Y0059850D02*
X-0170532D01*
X-0170550Y0062295D02*
Y0060397D01*
X-0171000Y0061799D02*
Y0060893D01*
X-0171450Y0061716D02*
Y0060976D01*
X-0171900Y0061883D02*
Y0060810D01*
X-0167423Y0059400D02*
X-0170837D01*
X-0167106Y0063450D02*
X-0171154D01*
X-0167665Y0063000D02*
X-0170595D01*
X-0167762Y0062550D02*
X-0170498D01*
X-0170550Y0064253D02*
Y0062897D01*
X-0171000Y0063976D02*
Y0063393D01*
X-0171450Y0063915D02*
Y0063476D01*
X-0171900Y0064034D02*
Y0063310D01*
X-0167610Y0062100D02*
X-0170650D01*
X-0167709Y0065400D02*
X-0169874D01*
X-0168750Y0067250D02*
Y0067100D01*
X-0167749Y0065250D02*
X-0170024D01*
X-0163800Y0067250D02*
Y0067100D01*
X-0171078Y0066600D02*
X-0171681D01*
X-0140400Y0029700D02*
Y0029450D01*
X-0162481Y0063450D02*
X-0166654D01*
X-0162955Y0063000D02*
X-0166095D01*
X-0163033Y0062550D02*
X-0165998D01*
X-0162860Y0062100D02*
X-0166150D01*
X-0166050Y0064795D02*
Y0062897D01*
X-0166500Y0064299D02*
Y0063393D01*
X-0166950Y0064216D02*
Y0063476D01*
X-0167400Y0064383D02*
Y0063310D01*
X-0162782Y0060750D02*
X-0166286D01*
X-0163020Y0060300D02*
X-0166021D01*
X-0162991Y0059850D02*
X-0166032D01*
X-0173456Y0049500D02*
X-0180000D01*
X-0166050Y0062295D02*
Y0060397D01*
X-0166500Y0061799D02*
Y0060893D01*
X-0166950Y0061716D02*
Y0060976D01*
X-0158328Y0053950D02*
X-0160539Y0051739D01*
X-0170513Y0067050D02*
X-0172246D01*
X-0163476Y0065250D02*
X-0166010D01*
X-0169200Y0067250D02*
Y0067100D01*
X-0167850Y0067250D02*
Y0067100D01*
X-0166050Y0067250D02*
Y0067100D01*
X-0154800Y0061821D02*
Y0060939D01*
X-0155250Y0061752D02*
Y0061008D01*
X-0155700Y0061936D02*
Y0060824D01*
X-0154800Y0058700D02*
Y0057800D01*
X-0150981Y0063450D02*
X-0154826D01*
X-0151455Y0063000D02*
X-0154352D01*
X-0151533Y0062550D02*
X-0154274D01*
X-0154350Y0064262D02*
Y0062996D01*
X-0154800Y0064001D02*
Y0063439D01*
X-0155250Y0063951D02*
Y0063508D01*
X-0155700Y0064081D02*
Y0063324D01*
X-0151528Y0065250D02*
X-0153831D01*
X-0155250Y0067250D02*
Y0066428D01*
X-0155668Y0066846D02*
X-0155154Y0066332D01*
X-0146606Y0063450D02*
X-0150326D01*
X-0147165Y0063000D02*
X-0149852D01*
X-0147262Y0062550D02*
X-0149774D01*
X-0147110Y0062100D02*
X-0149947D01*
X-0149850Y0064764D02*
Y0062996D01*
X-0150300Y0064321D02*
Y0063439D01*
X-0150750Y0064252D02*
Y0063508D01*
X-0151200Y0064436D02*
Y0063324D01*
X-0147600Y0058557D02*
Y0057800D01*
X-0148950Y0065400D02*
Y0061550D01*
X-0149850Y0062264D02*
Y0061550D01*
X-0150300Y0061821D02*
Y0061550D01*
X-0157981Y0063450D02*
X-0161826D01*
X-0158455Y0063000D02*
X-0161352D01*
X-0158533Y0062550D02*
X-0161274D01*
X-0161550Y0064112D02*
Y0063274D01*
X-0162000Y0063957D02*
Y0063499D01*
X-0162450Y0063985D02*
Y0063462D01*
X-0162900Y0064212D02*
Y0063102D01*
X-0116100Y0067250D02*
Y0067100D01*
X-0161321Y0067050D02*
X-0162986D01*
X-0114750Y0067250D02*
Y0066919D01*
X-0148500Y0067250D02*
Y0067100D01*
X-0155481Y0063450D02*
X-0157326D01*
X-0155955Y0063000D02*
X-0156852D01*
X-0157050Y0064485D02*
Y0063274D01*
X-0157500Y0064260D02*
Y0063499D01*
X-0157950Y0064298D02*
Y0063462D01*
X-0158400Y0064658D02*
Y0063102D01*
X-0150750Y0061752D02*
Y0061550D01*
X-0155973Y0059800D02*
X-0156834D01*
X-0155782Y0060750D02*
X-0157025D01*
X-0161550Y0030262D02*
Y0024750D01*
X-0157050Y0061985D02*
Y0060774D01*
X-0157500Y0061760D02*
Y0060999D01*
X-0157950Y0061798D02*
Y0060962D01*
X-0148500Y0028050D02*
Y0024750D01*
X-0160681Y0065400D02*
X-0160971Y0065111D01*
X-0108450Y0067250D02*
Y0067100D01*
X-0145513Y0067050D02*
X-0147246D01*
X-0154321D02*
X-0155986D01*
X-0161886Y0066600D02*
X-0162421D01*
X-0152550Y0067250D02*
Y0067100D01*
X-0153000Y0067250D02*
Y0067100D01*
X-0142650Y0029700D02*
Y0029450D01*
X-0154800Y0029200D02*
Y0024750D01*
X-0135712Y0059800D02*
X-0138548D01*
X-0138150Y0060700D02*
Y0059800D01*
X-0135739Y0060300D02*
X-0138521D01*
X-0135728Y0059850D02*
X-0138532D01*
X-0138600Y0060700D02*
Y0060510D01*
X-0084600Y0046950D02*
Y0042550D01*
X-0084150Y0046950D02*
Y0042550D01*
X-0141050Y0063450D02*
X-0141654D01*
X-0142650Y0067250D02*
Y0067100D01*
X-0101632Y0042300D02*
X-0114067D01*
X-0108000Y0043950D02*
Y0043550D01*
X-0124650Y0067250D02*
Y0067100D01*
X-0140924Y0061650D02*
X-0144740D01*
X-0136800Y0060700D02*
Y0059800D01*
X-0148050Y0065400D02*
Y0061550D01*
X-0145800Y0061930D02*
Y0061550D01*
X-0146250Y0061723D02*
Y0061550D01*
X-0146700Y0061773D02*
Y0061550D01*
X-0142106Y0063450D02*
X-0146154D01*
X-0142665Y0063000D02*
X-0145595D01*
X-0142762Y0062550D02*
X-0145498D01*
X-0145800Y0064065D02*
Y0063262D01*
X-0146250Y0063920D02*
Y0063470D01*
X-0146700Y0063957D02*
Y0063419D01*
X-0147150Y0064198D02*
Y0063028D01*
X-0142610Y0062100D02*
X-0145650D01*
X-0106200Y0043950D02*
Y0043550D01*
X-0148050Y0067250D02*
Y0067100D01*
X-0154886Y0066600D02*
X-0155421D01*
X-0146700Y0067250D02*
Y0066618D01*
X-0179298Y0064350D02*
X-0180000D01*
X-0082800Y0046950D02*
Y0042550D01*
X-0141300Y0063738D02*
Y0063262D01*
X-0142200Y0064273D02*
Y0063419D01*
X-0142650Y0064664D02*
Y0063028D01*
X-0141750Y0064188D02*
Y0063470D01*
X-0166050Y0030412D02*
Y0024750D01*
X-0135524Y0060700D02*
X-0138735D01*
X-0140212Y0059800D02*
X-0141048D01*
X-0140400Y0061122D02*
Y0059800D01*
X-0144900Y0028050D02*
Y0024750D01*
X-0141300Y0061930D02*
Y0060762D01*
X-0141750Y0061723D02*
Y0060970D01*
X-0142200Y0061773D02*
Y0060919D01*
X-0135450Y0067250D02*
Y0067100D01*
X-0140850Y0067250D02*
Y0067100D01*
X-0142709Y0065400D02*
X-0144874D01*
X-0140400Y0067250D02*
Y0067089D01*
X-0122400Y0060700D02*
Y0059800D01*
X-0121500Y0060700D02*
Y0059904D01*
X-0090900Y0045425D02*
Y0043550D01*
X-0119524Y0060700D02*
X-0122735D01*
X-0121950Y0058579D02*
Y0056050D01*
X-0119739Y0060300D02*
X-0122521D01*
X-0122110Y0059850D02*
X-0122532D01*
X-0090000Y0045450D02*
Y0043700D01*
X-0123750Y0067250D02*
Y0066668D01*
X-0121950Y0067250D02*
Y0067100D01*
X-0120150Y0067250D02*
Y0067100D01*
X-0115650Y0067250D02*
Y0067100D01*
X-0085950Y0031450D02*
Y0030450D01*
X-0085500Y0031450D02*
Y0030450D01*
X-0114828Y0060700D02*
X-0118235D01*
X-0091350Y0046950D02*
Y0043550D01*
X-0115020Y0060300D02*
X-0118021D01*
X-0114991Y0059850D02*
X-0118032D01*
X-0121950Y0060700D02*
Y0059921D01*
X-0126524Y0060700D02*
X-0129735D01*
X-0145890Y0059362D02*
X-0145392Y0058864D01*
X-0128454Y0060482D02*
X-0127772Y0059800D01*
X-0087300Y0045450D02*
Y0042550D01*
X-0086850Y0045450D02*
Y0042550D01*
X-0103950Y0042450D02*
Y0033800D01*
X-0127350Y0060700D02*
Y0059800D01*
X-0123928Y0066846D02*
X-0123380Y0066298D01*
X-0128700Y0067250D02*
Y0067100D01*
X-0127350Y0067250D02*
Y0067100D01*
X-0129832Y0066846D02*
X-0130380Y0066298D01*
X-0068250Y0055800D02*
X-0102522D01*
X-0084600Y0031450D02*
Y0030450D01*
X-0101250Y0043950D02*
Y0043550D01*
X-0088650Y0045450D02*
Y0042550D01*
X-0128700Y0028050D02*
Y0024750D01*
X-0167400Y0067250D02*
Y0067100D01*
X-0130050Y0067250D02*
Y0066628D01*
X-0103050Y0057950D02*
Y0056050D01*
X-0103520Y0060300D02*
X-0106287D01*
X-0106000Y0060700D02*
X-0106479D01*
X-0103491Y0059850D02*
X-0106316D01*
X-0083578Y0058050D02*
X-0088964D01*
X-0103282Y0060750D02*
X-0105771D01*
X-0096750Y0045200D02*
Y0043550D01*
X-0103150Y0059400D02*
X-0106657D01*
X-0079200Y0041450D02*
Y0040800D01*
X-0128683Y0033300D02*
X-0136817D01*
X-0078750Y0041450D02*
Y0040800D01*
X-0114668Y0066846D02*
X-0114154Y0066332D01*
X-0108900Y0059670D02*
Y0056050D01*
X-0099450Y0067250D02*
Y0067100D01*
X-0106886Y0066600D02*
X-0107421D01*
X-0154800Y0044450D02*
Y0038882D01*
X-0103500Y0067250D02*
Y0067100D01*
X-0103050Y0067250D02*
Y0067100D01*
X-0098481Y0063450D02*
X-0102326D01*
X-0098955Y0063000D02*
X-0101852D01*
X-0102150Y0064405D02*
Y0063355D01*
X-0102600Y0064248D02*
Y0063511D01*
X-0142650Y0032200D02*
Y0030800D01*
X-0103050Y0064341D02*
Y0063536D01*
X-0113400Y0042450D02*
Y0041674D01*
X-0098782Y0060750D02*
X-0102025D01*
X-0099020Y0060300D02*
X-0101787D01*
X-0098991Y0059850D02*
X-0101816D01*
X-0081900Y0057700D02*
Y0053446D01*
X-0072300Y0062817D02*
Y0061050D01*
X-0073578Y0060300D02*
X-0074287D01*
X-0099450Y0029050D02*
Y0024750D01*
X-0105750Y0057950D02*
Y0056050D01*
X-0098650Y0059400D02*
X-0102157D01*
X-0106321Y0067050D02*
X-0107986D01*
X-0097321D02*
X-0098986D01*
X-0099476Y0065250D02*
X-0101779D01*
X-0100800Y0067250D02*
Y0067100D01*
X-0096300Y0067250D02*
Y0067100D01*
X-0103950Y0067250D02*
Y0067100D01*
X-0107550Y0067250D02*
Y0066728D01*
X-0099290Y0064800D02*
X-0101834D01*
X-0099043Y0064350D02*
X-0102240D01*
X-0115650Y0060700D02*
Y0056050D01*
X-0094050Y0045200D02*
Y0043550D01*
X-0113400Y0060700D02*
Y0060590D01*
X-0110328Y0060700D02*
X-0113479D01*
X-0116100D02*
Y0056050D01*
X-0110520Y0060300D02*
X-0113287D01*
X-0110491Y0059850D02*
X-0113316D01*
X-0110150Y0059400D02*
X-0113657D01*
X-0090000Y0033975D02*
Y0030450D01*
X-0089550Y0030775D02*
Y0030450D01*
X-0087750Y0031700D02*
Y0030450D01*
X-0122513Y0067050D02*
X-0124246D01*
X-0093150Y0045200D02*
Y0043550D01*
X-0111150Y0067250D02*
Y0067100D01*
X-0113886Y0066600D02*
X-0114421D01*
X-0112500Y0067250D02*
Y0067100D01*
X-0080550Y0041450D02*
Y0040800D01*
X-0080100Y0041450D02*
Y0040800D01*
X-0107650Y0059400D02*
X-0109157D01*
X-0078300Y0041450D02*
Y0040800D01*
X-0076500Y0041450D02*
Y0040800D01*
X-0104850Y0042450D02*
Y0033824D01*
X-0099000Y0044300D02*
Y0043550D01*
X-0139050Y0028050D02*
Y0024750D01*
X-0100350Y0043889D02*
Y0043550D01*
X-0098100Y0045200D02*
Y0043550D01*
X-0143550Y0065400D02*
Y0059800D01*
X-0108020Y0060300D02*
X-0108787D01*
X-0125550Y0067250D02*
Y0067100D01*
X-0104400Y0057950D02*
Y0056050D01*
X-0104850Y0067250D02*
Y0067100D01*
X-0141750Y0042200D02*
Y0040800D01*
X-0107100Y0067250D02*
Y0066386D01*
X-0105300Y0042450D02*
Y0033948D01*
X-0114300Y0067250D02*
Y0066478D01*
X-0103528Y0065250D02*
X-0105831D01*
X-0110700Y0067250D02*
Y0067100D01*
X-0080933Y0057700D02*
X-0083000D01*
X-0087476Y0060450D02*
X-0090331D01*
X-0089550Y0065400D02*
Y0062050D01*
X-0087520Y0060300D02*
X-0090287D01*
X-0087491Y0059850D02*
X-0090316D01*
X-0082800Y0059319D02*
Y0058828D01*
X-0117450Y0029672D02*
Y0029450D01*
X-0090450Y0062096D02*
Y0062050D01*
X-0123300Y0028050D02*
Y0024750D01*
X-0087150Y0059400D02*
X-0090657D01*
X-0086981Y0063450D02*
X-0090826D01*
X-0087455Y0063000D02*
X-0090352D01*
X-0087533Y0062550D02*
X-0090274D01*
X-0090450Y0064179D02*
Y0063163D01*
X-0090900Y0063974D02*
Y0063476D01*
X-0091350Y0063963D02*
Y0063491D01*
X-0091800Y0064139D02*
Y0063231D01*
X-0087319Y0062050D02*
X-0090488D01*
X-0087528Y0065250D02*
X-0089831D01*
X-0082800Y0067250D02*
Y0066718D01*
X-0082350Y0067250D02*
Y0066328D01*
X-0090886Y0066600D02*
X-0091421D01*
X-0082606Y0063450D02*
X-0086326D01*
X-0083165Y0063000D02*
X-0085852D01*
X-0083262Y0062550D02*
X-0085774D01*
X-0083110Y0062100D02*
X-0085947D01*
X-0085950Y0064596D02*
Y0063163D01*
X-0086400Y0064284D02*
Y0063476D01*
X-0086850Y0064269D02*
Y0063491D01*
X-0068250Y0058050D02*
X-0079829D01*
X-0084150Y0060700D02*
Y0060178D01*
X-0085608Y0061886D02*
X-0085522Y0061800D01*
X-0084028Y0058500D02*
X-0088800D01*
X-0083886Y0065400D02*
X-0085813D01*
X-0084600Y0067250D02*
Y0067100D01*
X-0083700Y0067250D02*
Y0067100D01*
X-0085950Y0067250D02*
Y0067100D01*
X-0086400Y0067250D02*
Y0067100D01*
X-0083525Y0064800D02*
X-0085834D01*
X-0083298Y0064350D02*
X-0086240D01*
X-0096750Y0060096D02*
Y0059050D01*
X-0097200Y0060750D02*
X-0097525D01*
X-0094491Y0059850D02*
X-0097316D01*
X-0097650Y0061905D02*
Y0060855D01*
X-0098100Y0061748D02*
Y0061011D01*
X-0098550Y0061841D02*
Y0060919D01*
X-0099000Y0062378D02*
Y0060382D01*
X-0094150Y0059400D02*
X-0097657D01*
X-0093981Y0063450D02*
X-0097826D01*
X-0094455Y0063000D02*
X-0097352D01*
X-0094533Y0062550D02*
X-0097274D01*
X-0097650Y0064059D02*
Y0063355D01*
X-0098100Y0063948D02*
Y0063511D01*
X-0098550Y0064015D02*
Y0063419D01*
X-0099000Y0064303D02*
Y0062882D01*
X-0099626Y0065400D02*
X-0101813D01*
X-0094494D02*
X-0096681D01*
X-0098100Y0067250D02*
Y0066386D01*
X-0085050Y0067250D02*
Y0067100D01*
X-0091650Y0059400D02*
X-0093157D01*
X-0091481Y0063450D02*
X-0093326D01*
X-0091955Y0063000D02*
X-0092852D01*
X-0090000Y0041450D02*
Y0036025D01*
X-0093150Y0064405D02*
Y0063355D01*
X-0093600Y0064248D02*
Y0063511D01*
X-0094050Y0064341D02*
Y0063419D01*
X-0094500Y0064878D02*
Y0062882D01*
X-0123750Y0030700D02*
Y0029450D01*
X-0092476Y0065250D02*
X-0092779D01*
X-0091976Y0060450D02*
X-0092831D01*
X-0117900Y0030122D02*
Y0029450D01*
X-0105750Y0032760D02*
Y0029450D01*
X-0105300Y0032552D02*
Y0029450D01*
X-0104850Y0032675D02*
Y0029450D01*
X-0083286Y0038800D02*
X-0086617D01*
X-0097650Y0067250D02*
Y0066836D01*
G01X-0172997Y0060096D02*
G03X-0173880Y0060979I0000883J0000000D01*
G03X-0174763Y0060096I0000000J0000883D01*
Y0065096D02*
G03X-0173880Y0064213I0000883J0000000D01*
G03X-0172997Y0065096I0000000J0000883D01*
G01X-0151200Y0028750D02*
G03X-0150500Y0028050I0000700J0000000D01*
G01X-0172997Y0065096D02*
G03X-0173051Y0065400I0000883J0000000D01*
G01X-0172263Y0060096D02*
G03X-0171380Y0059213I0000883J0000000D01*
G03X-0170497Y0060096I0000000J0000883D01*
G03X-0171380Y0060979I0000883J0000000D01*
G03X-0172263Y0060096I0000000J0000883D01*
Y0062596D02*
G03X-0171380Y0061713I0000883J0000000D01*
G03X-0170497Y0062596I0000000J0000883D01*
G03X-0171380Y0063479I0000883J0000000D01*
G03X-0172263Y0062596I0000000J0000883D01*
G01X-0167763D02*
G03X-0166880Y0061713I0000883J0000000D01*
G03X-0165997Y0062596I0000000J0000883D01*
G03X-0166880Y0063479I0000883J0000000D01*
G03X-0167763Y0062596I0000000J0000883D01*
Y0060096D02*
G03X-0166880Y0059213I0000883J0000000D01*
G03X-0165997Y0060096I0000000J0000883D01*
G03X-0166880Y0060979I0000883J0000000D01*
G03X-0167763Y0060096I0000000J0000883D01*
Y0065096D02*
G03X-0166880Y0064213I0000883J0000000D01*
G03X-0165997Y0065096I0000000J0000883D01*
G03X-0166051Y0065400I0000883J0000000D01*
G01X-0155154Y0061013D02*
G03X-0156037Y0060130I0000000J0000883D01*
Y0062630D02*
G03X-0155154Y0061747I0000883J0000000D01*
G03X-0154271Y0062630I0000000J0000883D01*
G03X-0155154Y0063513I0000883J0000000D01*
G03X-0156037Y0062630I0000000J0000883D01*
G01X-0151537D02*
G03X-0150654Y0061747I0000883J0000000D01*
G03X-0149771Y0062630I0000000J0000883D01*
G03X-0150654Y0063513I0000883J0000000D01*
G03X-0151537Y0062630I0000000J0000883D01*
Y0065130D02*
G03X-0150654Y0064247I0000883J0000000D01*
G03X-0149771Y0065130I0000000J0000883D01*
G03X-0149813Y0065400I0000883J0000000D01*
G01X-0163037Y0060130D02*
G03X-0162704Y0059439I0000883J0000000D01*
G01X-0161271Y0060130D02*
G03X-0162154Y0061013I0000883J0000000D01*
G03X-0163037Y0060130I0000000J0000883D01*
Y0062630D02*
G03X-0162154Y0061747I0000883J0000000D01*
G03X-0161271Y0062630I0000000J0000883D01*
G03X-0162154Y0063513I0000883J0000000D01*
G03X-0163037Y0062630I0000000J0000883D01*
G01X-0158537D02*
G03X-0157654Y0061747I0000883J0000000D01*
G03X-0156771Y0062630I0000000J0000883D01*
G03X-0157654Y0063513I0000883J0000000D01*
G03X-0158537Y0062630I0000000J0000883D01*
Y0060130D02*
G03X-0158473Y0059800I0000883J0000000D01*
G01X-0156771Y0060130D02*
G03X-0157654Y0061013I0000883J0000000D01*
G03X-0158537Y0060130I0000000J0000883D01*
Y0065130D02*
G03X-0157654Y0064247I0000883J0000000D01*
G03X-0156771Y0065130I0000000J0000883D01*
G03X-0156813Y0065400I0000883J0000000D01*
G01X-0140263Y0060096D02*
G03X-0140212Y0059800I0000883J0000000D01*
G01X-0135763Y0060096D02*
G03X-0135712Y0059800I0000883J0000000D01*
G01X-0162139Y0058861D02*
G03X-0161750Y0058700I0000389J0000389D01*
G01X-0145389Y0058861D02*
G03X-0145000Y0058700I0000389J0000389D01*
G01X-0147563Y0065077D02*
G03X-0146380Y0063913I0001183J0000019D01*
G01X-0147263Y0062596D02*
G03X-0146380Y0061713I0000883J0000000D01*
G03X-0145497Y0062596I0000000J0000883D01*
G03X-0146380Y0063479I0000883J0000000D01*
G03X-0147263Y0062596I0000000J0000883D01*
G01X-0145226Y0067100D02*
G03X-0145827Y0066851I0000000J0000850D01*
G01X-0142763Y0062596D02*
G03X-0141880Y0061713I0000883J0000000D01*
Y0063479D02*
G03X-0142763Y0062596I0000000J0000883D01*
G01X-0138548Y0059800D02*
G03X-0138497Y0060096I0000832J0000296D01*
G01X-0142763D02*
G03X-0142712Y0059800I0000883J0000000D01*
G01X-0140997Y0060096D02*
G03X-0141880Y0060979I0000883J0000000D01*
G03X-0142763Y0060096I0000000J0000883D01*
Y0065096D02*
G03X-0141880Y0064213I0000883J0000000D01*
G01X-0121750Y0059950D02*
G03X-0122183Y0059800I0000000J0000700D01*
G01X-0119763Y0060096D02*
G03X-0118880Y0059213I0000883J0000000D01*
G03X-0117997Y0060096I0000000J0000883D01*
G03X-0118235Y0060700I0000883J0000000D01*
G01X-0135524D02*
G03X-0135763Y0060096I0000644J0000604D01*
G01X-0161034Y0067100D02*
G03X-0161635Y0066851I0000000J0000850D01*
G01X-0126763Y0060096D02*
G03X-0126712Y0059800I0000883J0000000D01*
G01X-0108037Y0060130D02*
G03X-0107154Y0059247I0000883J0000000D01*
G03X-0106271Y0060130I0000000J0000883D01*
G03X-0106479Y0060700I0000883J0000000D01*
G01X-0101771Y0062630D02*
G03X-0102654Y0063513I0000883J0000000D01*
G01X-0103537Y0060130D02*
G03X-0102654Y0059247I0000883J0000000D01*
G03X-0101771Y0060130I0000000J0000883D01*
G01X-0101887Y0062191D02*
G03X-0101770Y0062630I0000767J0000439D01*
G01X-0103537Y0065130D02*
G03X-0102654Y0064247I0000883J0000000D01*
G03X-0101771Y0065130I0000000J0000883D01*
G01X-0115037Y0060130D02*
G03X-0114154Y0059247I0000883J0000000D01*
G03X-0113271Y0060130I0000000J0000883D01*
G03X-0113479Y0060700I0000883J0000000D01*
G01X-0087476Y0060450D02*
G03X-0087536Y0060130I0000822J0000320D01*
G01X-0110537D02*
G03X-0109654Y0059247I0000883J0000000D01*
G03X-0108771Y0060130I0000000J0000883D01*
G01X-0092037D02*
G03X-0091154Y0059247I0000883J0000000D01*
G03X-0090271Y0060130I0000000J0000883D01*
G03X-0090331Y0060450I0000883J0000000D01*
G01X-0092037Y0062630D02*
G03X-0091819Y0062050I0000883J0000000D01*
G01X-0090271Y0062630D02*
G03X-0091154Y0063513I0000883J0000000D01*
G03X-0092037Y0062630I0000000J0000883D01*
G01X-0098154Y0063947D02*
G03X-0096971Y0065111I0000000J0001183D01*
G01X-0085771Y0062630D02*
G03X-0086654Y0063513I0000883J0000000D01*
G03X-0087537Y0062630I0000000J0000883D01*
Y0060130D02*
G03X-0086654Y0059247I0000883J0000000D01*
G03X-0085771Y0060130I0000000J0000883D01*
G01X-0087537Y0065130D02*
G03X-0086654Y0064247I0000883J0000000D01*
G03X-0085771Y0065130I0000000J0000883D01*
G03X-0085813Y0065400I0000883J0000000D01*
G01X-0099037Y0060130D02*
G03X-0098154Y0059247I0000883J0000000D01*
G03X-0097271Y0060130I0000000J0000883D01*
G03X-0098154Y0061013I0000883J0000000D01*
G03X-0099037Y0060130I0000000J0000883D01*
Y0062630D02*
G03X-0098154Y0061747I0000883J0000000D01*
G03X-0097271Y0062630I0000000J0000883D01*
G03X-0098154Y0063513I0000883J0000000D01*
G03X-0099037Y0062630I0000000J0000883D01*
G01X-0097034Y0067100D02*
G03X-0097635Y0066851I0000000J0000850D01*
G01X-0090488Y0062050D02*
G03X-0090271Y0062630I0000666J0000580D01*
G01X-0094537D02*
G03X-0094319Y0062050I0000883J0000000D01*
G01X-0092771Y0062630D02*
G03X-0093654Y0063513I0000883J0000000D01*
G03X-0094537Y0062630I0000000J0000883D01*
Y0060130D02*
G03X-0093654Y0059247I0000883J0000000D01*
G03X-0092771Y0060130I0000000J0000883D01*
G01X-0091976Y0060450D02*
G03X-0092036Y0060130I0000822J0000320D01*
G01X-0092771D02*
G03X-0092831Y0060450I0000883J0000000D01*
G01X-0094537Y0065130D02*
G03X-0093654Y0064247I0000883J0000000D01*
G03X-0092771Y0065130I0000000J0000883D01*
G03X-0092813Y0065400I0000883J0000000D01*
G01X-0076037Y0060130D02*
G03X-0075154Y0059247I0000883J0000000D01*
G03X-0074271Y0060130I0000000J0000883D01*
G03X-0074479Y0060700I0000883J0000000D01*
G01X-0075828D02*
G03X-0076037Y0060130I0000674J0000570D01*
Y0062630D02*
G03X-0075455Y0061800I0000883J0000000D01*
G01X-0074271Y0062630D02*
G03X-0075154Y0063513I0000883J0000000D01*
G03X-0076037Y0062630I0000000J0000883D01*
G01X-0075154Y0063947D02*
G03X-0073971Y0065130I0000000J0001183D01*
G03X-0075134Y0066313I0001183J0000000D01*
G01X-0073389Y0060111D02*
G03X-0073000Y0059950I0000389J0000389D01*
G01X-0070654Y0061747D02*
G03X-0069771Y0062630I0000000J0000883D01*
G03X-0070654Y0063513I0000883J0000000D01*
G01X-0071537Y0060130D02*
G03X-0070654Y0059247I0000883J0000000D01*
G03X-0069771Y0060130I0000000J0000883D01*
G03X-0070654Y0061013I0000883J0000000D01*
G01X-0071200Y0061936D02*
G03X-0070654Y0061747I0000546J0000694D01*
G01X-0071537Y0065130D02*
G03X-0070654Y0064247I0000883J0000000D01*
G03X-0069771Y0065130I0000000J0000883D01*
G03X-0070654Y0066013I0000883J0000000D01*
G03X-0071537Y0065130I0000000J0000883D01*
G01X-0083263Y0060096D02*
G03X-0082380Y0059213I0000883J0000000D01*
G03X-0081497Y0060096I0000000J0000883D01*
G01X-0087537Y0062630D02*
G03X-0087319Y0062050I0000883J0000000D01*
G01X-0081497Y0060096D02*
G03X-0081735Y0060700I0000883J0000000D01*
G01X-0083024D02*
G03X-0083263Y0060096I0000644J0000604D01*
Y0062596D02*
G03X-0082761Y0061800I0000883J0000000D01*
G01X-0081497Y0062596D02*
G03X-0082380Y0063479I0000883J0000000D01*
G03X-0083263Y0062596I0000000J0000883D01*
G01X-0087494Y0065400D02*
G03X-0087536Y0065130I0000840J0000270D01*
G01X-0074852Y0061800D02*
G03X-0074271Y0062630I0000302J0000830D01*
G01X-0078763Y0062596D02*
G03X-0078261Y0061800I0000883J0000000D01*
G01X-0076997Y0062596D02*
G03X-0077880Y0063479I0000883J0000000D01*
G03X-0078763Y0062596I0000000J0000883D01*
Y0060096D02*
G03X-0077880Y0059213I0000883J0000000D01*
G03X-0076997Y0060096I0000000J0000883D01*
G01X-0077498Y0061800D02*
G03X-0076997Y0062596I0000382J0000796D01*
Y0060096D02*
G03X-0077235Y0060700I0000883J0000000D01*
G01X-0078763Y0065096D02*
G03X-0077880Y0064213I0000883J0000000D01*
G03X-0076997Y0065096I0000000J0000883D01*
G03X-0077051Y0065400I0000883J0000000D01*
G01X-0076253Y0045653D02*
G03X-0075370Y0044770I0000883J0000000D01*
G03X-0074487Y0045653I0000000J0000883D01*
G03X-0075370Y0046536I0000883J0000000D01*
G03X-0076253Y0045653I0000000J0000883D01*
G01X-0073753D02*
G03X-0072870Y0044770I0000883J0000000D01*
G03X-0071987Y0045653I0000000J0000883D01*
G03X-0072870Y0046536I0000883J0000000D01*
G03X-0073753Y0045653I0000000J0000883D01*
G01X-0071553D02*
G03X-0070370Y0044470I0001183J0000000D01*
G03X-0069187Y0045634I0000000J0001183D01*
G01X-0071987Y0041154D02*
G03X-0072038Y0041450I0000883J0000000D01*
G01X-0076253Y0041154D02*
G03X-0076179Y0040800I0000883J0000000D01*
G01X-0070370Y0040271D02*
G03X-0069487Y0041154I0000000J0000883D01*
G03X-0070370Y0042037I0000883J0000000D01*
G01X-0071361Y0042389D02*
G03X-0071750Y0042550I0000389J0000389D01*
G01X-0076253Y0053153D02*
G03X-0075370Y0052270I0000883J0000000D01*
G03X-0074487Y0053153I0000000J0000883D01*
G03X-0075370Y0054036I0000883J0000000D01*
G03X-0076253Y0053153I0000000J0000883D01*
G01X-0073753D02*
G03X-0072870Y0052270I0000883J0000000D01*
G03X-0071987Y0053153I0000000J0000883D01*
G03X-0071999Y0053296I0000883J0000000D01*
G01X-0073753Y0048654D02*
G03X-0073747Y0048550I0000883J0000000D01*
G01X-0071987Y0048654D02*
G03X-0072870Y0049537I0000883J0000000D01*
G03X-0073753Y0048654I0000000J0000883D01*
G01X-0070469Y0047776D02*
G03X-0070370Y0047770I0000099J0000878D01*
G01X-0074487Y0048654D02*
G03X-0074894Y0049397I0000883J0000000D01*
G01X-0070370Y0047771D02*
G03X-0069850Y0047940I0000000J0000883D01*
G01X-0070370Y0049537D02*
G03X-0071253Y0048654I0000000J0000883D01*
G01X-0086500Y0032950D02*
G03X-0086933Y0032800I0000000J0000700D01*
G01X-0075250Y0050700D02*
G03X-0075683Y0050550I0000000J0000700D01*
G01X-0080000Y0052000D02*
G03X-0081500Y0053500I0001500J0000000D01*
G03X-0083000Y0052000I0000000J0001500D01*
G01X-0089500Y0027000D02*
G03X-0088000Y0025500I0001500J0000000D01*
G03X-0086500Y0027000I0000000J0001500D01*
G03X-0088000Y0028500I0001500J0000000D01*
G03X-0089500Y0027000I0000000J0001500D01*
G01X-0178000D02*
G03X-0176500Y0025500I0001500J0000000D01*
G03X-0175000Y0027000I0000000J0001500D01*
G03X-0176500Y0028500I0001500J0000000D01*
G03X-0178000Y0027000I0000000J0001500D01*
Y0052000D02*
G03X-0176500Y0050500I0001500J0000000D01*
G03X-0175000Y0052000I0000000J0001500D01*
G03X-0176500Y0053500I0001500J0000000D01*
G03X-0178000Y0052000I0000000J0001500D01*
G01X-0069187Y0053172D02*
G03X-0070370Y0054336I0001183J0000019D01*
G01X-0074894Y0049397D02*
G03X-0074550Y0050000I0000356J0000603D01*
G01X-0094494Y0065400D02*
G03X-0094536Y0065130I0000840J0000270D01*
G01X-0076336Y0065111D02*
G03X-0075154Y0063948I0001182J0000019D01*
G01X-0092500Y0046450D02*
G03X-0092933Y0046300I0000000J0000700D01*
G01X-0089464Y0042550D02*
G03X-0089300Y0043000I0000536J0000450D01*
G01X-0098079Y0046300D02*
G03X-0098050Y0046500I0000671J0000200D01*
G01X-0102500Y0028050D02*
G03X-0102005Y0028255I0000000J0000700D01*
G01X-0112700Y0040750D02*
G03X-0112861Y0041139I0000550J0000000D01*
G01X-0119500Y0033760D02*
G03X-0119154Y0033846I0000000J0000740D01*
G01X-0122497Y0060096D02*
G03X-0122735Y0060700I0000883J0000000D01*
G01X-0119846Y0033846D02*
G03X-0119500Y0033760I0000346J0000654D01*
G01X-0121048Y0035460D02*
G03X-0120984Y0035240I0000548J0000040D01*
G01X-0129226Y0067100D02*
G03X-0129827Y0066851I0000000J0000850D01*
G01X-0120461Y0032761D02*
G03X-0119760Y0033500I0000039J0000739D01*
G01X-0140139Y0060861D02*
G03X-0139975Y0060748I0000389J0000389D01*
G01X-0126176Y0034200D02*
G03X-0125500Y0033760I0000676J0000300D01*
G01X-0165000Y0032545D02*
G03X-0165500Y0032740I0000500J0000545D01*
G01X-0125154Y0033846D02*
G03X-0125240Y0033500I0000654J0000346D01*
G01X-0178380Y0063913D02*
G03X-0177197Y0065077I0000000J0001183D01*
G01X-0169817Y0035050D02*
G03X-0170250Y0035200I0000433J0000550D01*
G01X-0174709Y0065400D02*
G03X-0174763Y0065096I0000829J0000304D01*
G01X-0080500Y0058950D02*
G03X-0080933Y0058800I0000000J0000700D01*
G01X-0115750Y0039050D02*
G03X-0115317Y0039200I0000000J0000700D01*
G01X-0157000Y0056550D02*
G03X-0156567Y0056700I0000000J0000700D01*
G01X-0076250Y0046800D02*
G03X-0075552Y0047450I0000000J0000700D01*
G01X-0171317Y0045550D02*
G03X-0171750Y0045700I0000433J0000550D01*
G01X-0170817Y0047300D02*
G03X-0171250Y0047450I0000433J0000550D01*
G01X-0089601Y0037101D02*
G03X-0089850Y0036500I0000601J0000601D01*
G01X-0165500Y0051740D02*
G03X-0166000Y0051545I0000000J0000740D01*
G01X-0164500Y0051740D02*
G03X-0165000Y0051545I0000000J0000740D01*
G01X-0165500Y0049260D02*
G03X-0165000Y0049454I0000000J0000740D01*
G01X-0164000D02*
G03X-0163500Y0049260I0000500J0000546D01*
G01X-0164500D02*
G03X-0164000Y0049454I0000000J0000740D01*
G01X-0165000Y0051545D02*
G03X-0165500Y0051740I0000500J0000545D01*
G01X-0168240Y0051693D02*
G03X-0168500Y0051740I0000260J0000693D01*
G01X-0165000Y0049454D02*
G03X-0164500Y0049260I0000500J0000546D01*
G01X-0168000Y0049454D02*
G03X-0167500Y0049260I0000500J0000546D01*
G01X-0163500D02*
G03X-0163000Y0049454I0000000J0000740D01*
G01X-0164000Y0051545D02*
G03X-0164500Y0051740I0000500J0000545D01*
G01X-0162000Y0049454D02*
G03X-0161500Y0049260I0000500J0000546D01*
G01X-0131300Y0039000D02*
G03X-0131329Y0039200I0000700J0000000D01*
G01X-0162500Y0049260D02*
G03X-0162000Y0049454I0000000J0000740D01*
G01X-0163240Y0051693D02*
G03X-0163500Y0051740I0000260J0000693D01*
G01X-0163000Y0049454D02*
G03X-0162500Y0049260I0000500J0000546D01*
G01X-0161000Y0049454D02*
G03X-0160500Y0049260I0000500J0000546D01*
G01X-0161500D02*
G03X-0161000Y0049454I0000000J0000740D01*
G01X-0160500Y0049260D02*
G03X-0160000Y0049454I0000000J0000740D01*
G01X-0160539Y0051739D02*
G03X-0161000Y0051545I0000039J0000739D01*
G01X-0159500Y0049260D02*
G03X-0159000Y0049454I0000000J0000740D01*
G01X-0158500Y0049260D02*
G03X-0158000Y0049454I0000000J0000740D01*
G01X-0145000Y0061700D02*
G03X-0145433Y0061550I0000000J0000700D01*
G01X-0148683Y0051450D02*
G03X-0148425Y0051322I0000433J0000550D01*
G01X-0148760Y0050000D02*
G03X-0148954Y0050500I0000740J0000000D01*
G01X-0168500Y0032740D02*
G03X-0169240Y0032000I0000000J0000740D01*
Y0031000D02*
G03X-0168500Y0030260I0000740J0000000D01*
G01X-0124750Y0038450D02*
G03X-0125183Y0038300I0000000J0000700D01*
G01X-0168500Y0030260D02*
G03X-0168000Y0030454I0000000J0000740D01*
G01X-0168500Y0051740D02*
G03X-0169000Y0051545I0000000J0000740D01*
G01X-0169240Y0032000D02*
G03X-0169045Y0031500I0000740J0000000D01*
G01X-0171250Y0046050D02*
G03X-0170817Y0046200I0000000J0000700D01*
G01X-0168000Y0030454D02*
G03X-0167500Y0030260I0000500J0000546D01*
G01X-0070370Y0042037D02*
G03X-0070860Y0041888I0000000J0000883D01*
G01X-0167500Y0030260D02*
G03X-0167000Y0030454I0000000J0000740D01*
G01X-0169045Y0031500D02*
G03X-0169240Y0031000I0000545J0000500D01*
G01X-0167000Y0030454D02*
G03X-0166500Y0030260I0000500J0000546D01*
G03X-0166000Y0030454I0000000J0000740D01*
Y0032545D02*
G03X-0166500Y0032740I0000500J0000545D01*
G01X-0148954Y0050500D02*
G03X-0148760Y0051000I0000546J0000500D01*
G01X-0156067Y0056050D02*
G03X-0156500Y0056200I0000433J0000550D01*
G01X-0165500Y0032740D02*
G03X-0166000Y0032545I0000000J0000740D01*
G01X-0165500Y0030260D02*
G03X-0165000Y0030454I0000000J0000740D01*
G01X-0166500Y0032740D02*
G03X-0166760Y0032693I0000000J0000740D01*
G01X-0166000Y0030454D02*
G03X-0165500Y0030260I0000500J0000546D01*
G01X-0164500Y0032740D02*
G03X-0165000Y0032545I0000000J0000740D01*
G01X-0164500Y0030260D02*
G03X-0164000Y0030454I0000000J0000740D01*
G01X-0166000Y0049454D02*
G03X-0165500Y0049260I0000500J0000546D01*
G01X-0164000Y0030454D02*
G03X-0163500Y0030260I0000500J0000546D01*
G01X-0148760Y0051000D02*
G03X-0148912Y0051450I0000740J0000000D01*
G01X-0165000Y0030454D02*
G03X-0164500Y0030260I0000500J0000546D01*
G01X-0163500D02*
G03X-0163000Y0030454I0000000J0000740D01*
G01X-0163240Y0032693D02*
G03X-0163500Y0032740I0000260J0000693D01*
G01X-0162500Y0030260D02*
G03X-0162000Y0030454I0000000J0000740D01*
G01X-0163000D02*
G03X-0162500Y0030260I0000500J0000546D01*
G01X-0162000Y0030454D02*
G03X-0161500Y0030260I0000500J0000546D01*
Y0051740D02*
G03X-0161760Y0051693I0000000J0000740D01*
G01X-0163500Y0051740D02*
G03X-0164000Y0051545I0000000J0000740D01*
G01X-0161500Y0030260D02*
G03X-0161000Y0030454I0000000J0000740D01*
G01X-0163500Y0032740D02*
G03X-0164000Y0032545I0000000J0000740D01*
G01X-0161000Y0030454D02*
G03X-0160500Y0030260I0000500J0000546D01*
G03X-0160000Y0030454I0000000J0000740D01*
G01X-0164000Y0032545D02*
G03X-0164500Y0032740I0000500J0000545D01*
G01X-0160000Y0030454D02*
G03X-0159500Y0030260I0000500J0000546D01*
G03X-0159000Y0030454I0000000J0000740D01*
G01X-0158500Y0030260D02*
G03X-0158000Y0030454I0000000J0000740D01*
G01X-0159000Y0049454D02*
G03X-0158500Y0049260I0000500J0000546D01*
G01X-0157500Y0030260D02*
G03X-0157000Y0030454I0000000J0000740D01*
G01X-0158000D02*
G03X-0157500Y0030260I0000500J0000546D01*
G01X-0147472Y0032200D02*
G03X-0147724Y0031500I0000847J0000700D01*
G01X-0137183Y0036700D02*
G03X-0137173Y0036692I0000433J0000550D01*
G01X-0157000Y0030454D02*
G03X-0156857Y0030352I0000500J0000546D01*
G01X-0135139Y0030861D02*
G03X-0135066Y0030800I0000389J0000389D01*
G01X-0145777D02*
G03X-0145525Y0031500I0000848J0000700D01*
G01X-0148954D02*
G03X-0148760Y0032000I0000546J0000500D01*
G01X-0156857Y0030352D02*
G03X-0157200Y0029750I0000357J0000602D01*
G01X-0119595Y0042178D02*
G03X-0119639Y0042139I0000345J0000428D01*
G01X-0119595Y0042178D02*
G03X-0119639Y0042139I0000345J0000428D01*
G01X-0120000Y0042170D02*
G03X-0119750Y0042227I0000000J0000575D01*
G01X-0102981Y0060950D02*
G03X-0103537Y0060130I0000327J0000820D01*
G01X-0178399Y0066279D02*
G03X-0179563Y0065096I0000019J0001183D01*
G01X-0084000Y0055700D02*
G03X-0084695Y0055083I0000000J0000700D01*
G01X-0152500Y0056700D02*
G03X-0153198Y0056050I0000000J0000700D01*
G01X-0108771Y0060130D02*
G03X-0108979Y0060700I0000883J0000000D01*
G01X-0106567Y0059050D02*
G03X-0107000Y0059200I0000433J0000550D01*
G01X-0102611Y0055889D02*
G03X-0103000Y0056050I0000389J0000389D01*
G01X-0101771Y0060130D02*
G03X-0102084Y0060805I0000883J0000000D01*
G01X-0131740Y0045000D02*
G03X-0131000Y0044260I0000740J0000000D01*
G03X-0130500Y0044454I0000000J0000740D01*
G01X-0132961Y0044261D02*
G03X-0132260Y0045000I0000039J0000739D01*
G01X-0131712Y0045200D02*
G03X-0131740Y0045000I0000712J0000200D01*
G01X-0132260D02*
G03X-0132287Y0045200I0000740J0000000D01*
G01X-0074493Y0048550D02*
G03X-0074487Y0048654I0000877J0000104D01*
G01X-0101811Y0055127D02*
G03X-0102417Y0055695I0000689J0000127D01*
G01X-0113760Y0034500D02*
G03X-0114100Y0035122I0000740J0000000D01*
G01X-0069487Y0038153D02*
G03X-0070370Y0039036I0000883J0000000D01*
G01X-0072124Y0040680D02*
G03X-0071986Y0041154I0000746J0000474D01*
G01X-0073753Y0033654D02*
G03X-0072870Y0032771I0000883J0000000D01*
G03X-0071987Y0033654I0000000J0000883D01*
G03X-0072870Y0034537I0000883J0000000D01*
G03X-0073753Y0033654I0000000J0000883D01*
G01X-0076253D02*
G03X-0075370Y0032771I0000883J0000000D01*
G03X-0074487Y0033654I0000000J0000883D01*
G03X-0075370Y0034537I0000883J0000000D01*
G03X-0076253Y0033654I0000000J0000883D01*
G01X-0071253D02*
G03X-0070370Y0032771I0000883J0000000D01*
G03X-0069487Y0033654I0000000J0000883D01*
G03X-0070370Y0034537I0000883J0000000D01*
G03X-0071253Y0033654I0000000J0000883D01*
G01X-0073879Y0029468D02*
G03X-0072681Y0028270I0001198J0000000D01*
G01X-0071483Y0029468D02*
G03X-0072681Y0030666I0001198J0000000D01*
G03X-0073879Y0029468I0000000J0001198D01*
G01X-0072698Y0027500D02*
G03X-0071500Y0026302I0001198J0000000D01*
G03X-0070302Y0027500I0000000J0001198D01*
G03X-0071500Y0028698I0001198J0000000D01*
G01X-0112760Y0033500D02*
G03X-0113500Y0034240I0000740J0000000D01*
G01X-0112951Y0032540D02*
G03X-0113100Y0032877I0000549J0000040D01*
G01X-0113846Y0034154D02*
G03X-0113760Y0034500I0000654J0000346D01*
G01X-0114100Y0035122D02*
G03X-0113951Y0035460I0000400J0000378D01*
G01X-0113500Y0034240D02*
G03X-0113846Y0034154I0000000J0000740D01*
G01X-0071796Y0028661D02*
G03X-0071483Y0029468I0000885J0000807D01*
G01X-0076202Y0041450D02*
G03X-0076253Y0041154I0000832J0000296D01*
G01X-0141050Y0062897D02*
G03X-0141880Y0063479I0000830J0000301D01*
G01X-0134555Y0031833D02*
G03X-0135250Y0032450I0000695J0000083D01*
G01X-0128250Y0033450D02*
G03X-0128948Y0032800I0000000J0000700D01*
G01X-0125240Y0033500D02*
G03X-0125212Y0033300I0000740J0000000D01*
G01X-0179263Y0060096D02*
G03X-0178380Y0059213I0000883J0000000D01*
G03X-0177497Y0060096I0000000J0000883D01*
G03X-0178380Y0060979I0000883J0000000D01*
G03X-0179263Y0060096I0000000J0000883D01*
Y0062596D02*
G03X-0178380Y0061713I0000883J0000000D01*
G03X-0177497Y0062596I0000000J0000883D01*
G03X-0178380Y0063479I0000883J0000000D01*
G03X-0179263Y0062596I0000000J0000883D01*
G01X-0179563Y0065096D02*
G03X-0178380Y0063913I0001183J0000000D01*
G01X-0177226Y0067100D02*
G03X-0177827Y0066851I0000000J0000850D01*
G01X-0174763Y0062596D02*
G03X-0173880Y0061713I0000883J0000000D01*
G03X-0172997Y0062596I0000000J0000883D01*
G03X-0173880Y0063479I0000883J0000000D01*
G03X-0174763Y0062596I0000000J0000883D01*
Y0060096D02*
G03X-0173880Y0059213I0000883J0000000D01*
G03X-0172997Y0060096I0000000J0000883D01*
G01X-0130500Y0044454D02*
G03X-0130039Y0044261I0000500J0000546D01*
G01X-0098300Y0045000D02*
G03X-0098329Y0045200I0000700J0000000D01*
G01X-0121048Y0035460D02*
G03X-0120984Y0035240I0000548J0000040D01*
G01X-0121750Y0037200D02*
G03X-0121361Y0037361I0000000J0000550D01*
G01X-0120239Y0034461D02*
G03X-0120154Y0034154I0000739J0000039D01*
G01X-0126524Y0060700D02*
G03X-0126763Y0060096I0000644J0000604D01*
G01X-0119889Y0032889D02*
G03X-0120048Y0032540I0000389J0000389D01*
G01X-0081226Y0067100D02*
G03X-0081827Y0066851I0000000J0000850D01*
G01X-0121750Y0037200D02*
G03X-0121361Y0037361I0000000J0000550D01*
G01X-0119889Y0032889D02*
G03X-0120048Y0032540I0000389J0000389D01*
G01X-0146380Y0059213D02*
G03X-0145890Y0059362I0000000J0000883D01*
G01X-0156500Y0056200D02*
G03X-0157198Y0055550I0000000J0000700D01*
G01X-0171380Y0063913D02*
G03X-0170197Y0065077I0000000J0001183D01*
G01X-0068250Y0052183D02*
G03X-0068399Y0052384I0000750J0000400D01*
G01X-0132250Y0032800D02*
G03X-0132639Y0032639I0000000J0000550D01*
G01X-0132833Y0032445D02*
G03X-0133448Y0031800I0000083J0000695D01*
G01X-0120500Y0034240D02*
G03X-0120760Y0034193I0000000J0000740D01*
G01X-0132250Y0032800D02*
G03X-0132639Y0032639I0000000J0000550D01*
G01X-0119154Y0033846D02*
G03X-0119239Y0033539I0000654J0000346D01*
G01X-0118800Y0030488D02*
G03X-0118700Y0030539I0000200J0000512D01*
G01X-0118800Y0030488D02*
G03X-0118700Y0030539I0000200J0000512D01*
G01X-0112573Y0040427D02*
G03X-0112700Y0040683I0000677J0000177D01*
G01X-0113183Y0039200D02*
G03X-0112750Y0039050I0000433J0000550D01*
G01X-0112050Y0039750D02*
G03X-0112573Y0040427I0000700J0000000D01*
G01X-0113361Y0041639D02*
G03X-0113750Y0041800I0000389J0000389D01*
G01X-0113802D02*
G03X-0114185Y0042375I0000698J0000050D01*
G01X-0151036Y0029200D02*
G03X-0151200Y0028750I0000536J0000450D01*
G01X-0113361Y0041639D02*
G03X-0113750Y0041800I0000389J0000389D01*
G01X-0112750Y0039050D02*
G03X-0112050Y0039750I0000000J0000700D01*
G01X-0116425Y0039564D02*
G03X-0115750Y0039050I0000675J0000186D01*
G01X-0076683Y0046950D02*
G03X-0076250Y0046800I0000433J0000550D01*
G01X-0090550Y0052250D02*
G03X-0090579Y0052450I0000700J0000000D01*
G01X-0098050Y0046500D02*
G03X-0098214Y0046950I0000700J0000000D01*
G01X-0160000Y0049454D02*
G03X-0159500Y0049260I0000500J0000546D01*
G01X-0175450Y0054750D02*
G03X-0174821Y0054053I0000700J0000000D01*
G01X-0171950Y0046750D02*
G03X-0171250Y0046050I0000700J0000000D01*
Y0047450D02*
G03X-0171950Y0046750I0000000J0000700D01*
G01X-0096500Y0060050D02*
G03X-0095867Y0060450I0000000J0000700D01*
G01X-0116430Y0039050D02*
G03X-0116425Y0039125I0000570J0000075D01*
G01X-0113861Y0038889D02*
G03X-0114250Y0039050I0000389J0000389D01*
G01X-0087950Y0038500D02*
G03X-0087510Y0037850I0000700J0000000D01*
G01X-0112500Y0036050D02*
G03X-0111800Y0036750I0000000J0000700D01*
G01X-0113195Y0036667D02*
G03X-0112500Y0036050I0000695J0000083D01*
G01X-0111800Y0036750D02*
G03X-0112417Y0037445I0000700J0000000D01*
G01X-0110750Y0031700D02*
G03X-0111183Y0031550I0000000J0000700D01*
G01X-0110623Y0030311D02*
G03X-0110049Y0031000I0000127J0000689D01*
G01X-0086933Y0031700D02*
G03X-0086571Y0031553I0000433J0000550D01*
G01X-0110328Y0060700D02*
G03X-0110537Y0060130I0000674J0000570D01*
G01X-0122226Y0067100D02*
G03X-0122827Y0066851I0000000J0000850D01*
G01X-0114185Y0042375D02*
G03X-0114067Y0042450I0000315J0000625D01*
G01X-0173474Y0032700D02*
G03X-0172375Y0031601I0001099J0000000D01*
G03X-0171276Y0032700I0000000J0001099D01*
G03X-0172375Y0033799I0001099J0000000D01*
G03X-0173474Y0032700I0000000J0001099D01*
Y0049300D02*
G03X-0172375Y0048201I0001099J0000000D01*
G03X-0171276Y0049300I0000000J0001099D01*
G03X-0172375Y0050399I0001099J0000000D01*
G03X-0173474Y0049300I0000000J0001099D01*
G01X-0147724Y0031500D02*
G03X-0147472Y0030800I0001099J0000000D01*
G01X-0145526Y0031500D02*
G03X-0145777Y0032200I0001099J0000000D01*
G01X-0170500Y0051740D02*
G03X-0171240Y0051000I0000000J0000740D01*
Y0050000D02*
G03X-0170500Y0049260I0000740J0000000D01*
G01X-0170000Y0049454D02*
G03X-0169500Y0049260I0000500J0000546D01*
G01X-0170500D02*
G03X-0170000Y0049454I0000000J0000740D01*
G01X-0171045Y0050500D02*
G03X-0171240Y0050000I0000545J0000500D01*
Y0051000D02*
G03X-0171045Y0050500I0000740J0000000D01*
G01X-0169500Y0051740D02*
G03X-0170000Y0051545I0000000J0000740D01*
G01X-0169500Y0049260D02*
G03X-0169000Y0049454I0000000J0000740D01*
G01X-0170000Y0051545D02*
G03X-0170500Y0051740I0000500J0000545D01*
G01X-0169000Y0049454D02*
G03X-0168500Y0049260I0000500J0000546D01*
G03X-0168000Y0049454I0000000J0000740D01*
G01X-0169000Y0051545D02*
G03X-0169500Y0051740I0000500J0000545D01*
G01X-0166500D02*
G03X-0166760Y0051693I0000000J0000740D01*
G01X-0167500Y0049260D02*
G03X-0167000Y0049454I0000000J0000740D01*
G03X-0166500Y0049260I0000500J0000546D01*
G03X-0166000Y0049454I0000000J0000740D01*
Y0051545D02*
G03X-0166500Y0051740I0000500J0000545D01*
G01X-0148200Y0042500D02*
G03X-0147500Y0041800I0000700J0000000D01*
G01X-0161250Y0033800D02*
G03X-0161639Y0033639I0000000J0000550D01*
G01X-0148760Y0032000D02*
G03X-0148787Y0032200I0000740J0000000D01*
G01X-0168240Y0032693D02*
G03X-0168500Y0032740I0000260J0000693D01*
G01X-0162154Y0063947D02*
G03X-0160971Y0065111I0000000J0001183D01*
G01X-0112951Y0032540D02*
G03X-0113100Y0032877I0000549J0000040D01*
G01X-0114100Y0035122D02*
G03X-0113951Y0035460I0000400J0000378D01*
G01X-0133639Y0034361D02*
G03X-0133250Y0034200I0000389J0000389D01*
G01X-0079500Y0052050D02*
G03X-0079889Y0051889I0000000J0000550D01*
G01X-0074750Y0050800D02*
G03X-0074050Y0051500I0000000J0000700D01*
G03X-0074750Y0052200I0000700J0000000D01*
G01X-0080019Y0051758D02*
G03X-0079999Y0052000I0001481J0000242D01*
G01X-0075183Y0050950D02*
G03X-0074750Y0050800I0000433J0000550D01*
Y0052200D02*
G03X-0075183Y0052050I0000000J0000700D01*
G01X-0069850Y0049367D02*
G03X-0070370Y0049536I0000520J0000713D01*
G01X-0083861Y0051889D02*
G03X-0084250Y0052050I0000389J0000389D01*
G01X-0083000Y0052000D02*
G03X-0082661Y0051050I0001500J0000000D01*
G01X-0098000Y0054200D02*
G03X-0098433Y0054050I0000000J0000700D01*
G01X-0083861Y0051889D02*
G03X-0084250Y0052050I0000389J0000389D01*
G01X-0174821Y0054053D02*
G03X-0174500Y0053950I0000321J0000447D01*
G01X-0156834Y0059800D02*
G03X-0156770Y0060130I0000820J0000330D01*
G01X-0174117Y0055050D02*
G03X-0174750Y0055450I0000633J0000300D01*
G01X-0157000Y0033950D02*
G03X-0156611Y0034111I0000000J0000550D01*
G01X-0170950Y0034500D02*
G03X-0170250Y0033800I0000700J0000000D01*
G03X-0169817Y0033950I0000000J0000700D01*
G01X-0170250Y0035200D02*
G03X-0170950Y0034500I0000000J0000700D01*
G01X-0154583Y0038945D02*
G03X-0155200Y0038250I0000083J0000695D01*
G01X-0132433Y0038450D02*
G03X-0132000Y0038300I0000433J0000550D01*
G01X-0172563Y0065077D02*
G03X-0171380Y0063913I0001183J0000019D01*
G01X-0087250Y0039200D02*
G03X-0087950Y0038500I0000000J0000700D01*
G01X-0157700Y0057250D02*
G03X-0157000Y0056550I0000700J0000000D01*
G01X-0156567Y0057800D02*
G03X-0157000Y0057950I0000433J0000550D01*
G03X-0157700Y0057250I0000000J0000700D01*
G01X-0101500Y0055200D02*
G03X-0101811Y0055127I0000000J0000700D01*
G01X-0106000Y0060700D02*
G03X-0105611Y0060861I0000000J0000550D01*
G01X-0110050Y0031000D02*
G03X-0110750Y0031700I0000700J0000000D01*
G01X-0101536Y0042450D02*
G03X-0101700Y0042000I0000536J0000450D01*
G01X-0074550Y0050000D02*
G03X-0075250Y0050700I0000700J0000000D01*
G01X-0168786Y0046200D02*
G03X-0168950Y0045750I0000536J0000450D01*
G03X-0168921Y0045550I0000700J0000000D01*
G01X-0145393Y0060420D02*
G03X-0145000Y0060299I0000393J0000580D01*
G01X-0156037Y0060130D02*
G03X-0155973Y0059800I0000883J0000000D01*
G01X-0146800Y0059250D02*
G03X-0146803Y0059321I0000700J0000000D01*
G01X-0145389Y0058861D02*
G03X-0145000Y0058700I0000389J0000389D01*
G01X-0141880Y0061713D02*
G03X-0141050Y0062295I0000000J0000883D01*
G01X-0158000Y0049454D02*
G03X-0157539Y0049261I0000500J0000546D01*
G01X-0146380Y0063913D02*
G03X-0145197Y0065077I0000000J0001183D01*
G01X-0148787Y0049800D02*
G03X-0148759Y0050000I0000713J0000200D01*
G01X-0128457Y0060485D02*
G03X-0128846Y0060646I0000389J0000389D01*
G01X-0122548Y0059800D02*
G03X-0122497Y0060096I0000832J0000296D01*
G01X-0129689Y0060646D02*
G03X-0129735Y0060700I0000691J0000550D01*
G01X-0101771Y0065130D02*
G03X-0101813Y0065400I0000883J0000000D01*
G01X-0128389Y0058861D02*
G03X-0128000Y0058700I0000389J0000389D01*
G01X-0129000Y0058550D02*
G03X-0128406Y0058879I0000000J0000700D01*
G01X-0121750Y0058550D02*
G03X-0121050Y0059250I0000000J0000700D01*
G03X-0121750Y0059950I0000700J0000000D01*
G01X-0122183Y0058700D02*
G03X-0121750Y0058550I0000433J0000550D01*
G01X-0147500Y0041800D02*
G03X-0146867Y0042200I0000000J0000700D01*
G01X-0128389Y0058861D02*
G03X-0128000Y0058700I0000389J0000389D01*
G01X-0071993Y0048550D02*
G03X-0071987Y0048654I0000877J0000104D01*
G01X-0083450Y0039250D02*
G03X-0083286Y0038800I0000700J0000000D01*
G01X-0086567Y0040800D02*
G03X-0087000Y0040950I0000433J0000550D01*
G01X-0068399Y0046422D02*
G03X-0068250Y0046623I0000601J0000601D01*
G01X-0145567Y0037800D02*
G03X-0146000Y0037950I0000433J0000550D01*
G01X-0099052Y0044302D02*
G03X-0099000Y0044300I0000052J0000698D01*
G01X-0130361Y0057639D02*
G03X-0130750Y0057800I0000389J0000389D01*
G01X-0099000Y0044300D02*
G03X-0098300Y0045000I0000000J0000700D01*
G01X-0168450Y0055750D02*
G03X-0167833Y0055055I0000700J0000000D01*
G01X-0167750Y0056450D02*
G03X-0168450Y0055750I0000000J0000700D01*
G01X-0101811Y0055127D02*
G03X-0102417Y0055695I0000689J0000127D01*
G01X-0100800Y0054500D02*
G03X-0101500Y0055200I0000700J0000000D01*
G01X-0105250Y0032550D02*
G03X-0104817Y0032700I0000000J0000700D01*
G01X-0102500Y0032550D02*
G03X-0101800Y0033250I0000000J0000700D01*
G03X-0102500Y0033950I0000700J0000000D01*
G01X-0105950Y0033250D02*
G03X-0105250Y0032550I0000700J0000000D01*
G01X-0102933Y0032700D02*
G03X-0102500Y0032550I0000433J0000550D01*
Y0033950D02*
G03X-0102933Y0033800I0000000J0000700D01*
G01X-0105250Y0033950D02*
G03X-0105950Y0033250I0000000J0000700D01*
G01X-0104817Y0033800D02*
G03X-0105250Y0033950I0000433J0000550D01*
G01X-0086000Y0052450D02*
G03X-0085611Y0052611I0000000J0000550D01*
G01X-0073744Y0053280D02*
G03X-0073753Y0053153I0000874J0000127D01*
G01X-0083300Y0055000D02*
G03X-0084000Y0055700I0000700J0000000D01*
G01X-0083917Y0054305D02*
G03X-0083300Y0055000I0000083J0000695D01*
G01X-0134200Y0035750D02*
G03X-0134050Y0035317I0000700J0000000D01*
G01X-0132567Y0035800D02*
G03X-0132823Y0035927I0000433J0000550D01*
G01X-0134050Y0035000D02*
G03X-0133889Y0034611I0000550J0000000D01*
G01X-0136500Y0035800D02*
G03X-0136067Y0035950I0000000J0000700D01*
G01X-0133639Y0034361D02*
G03X-0133250Y0034200I0000389J0000389D01*
G01X-0132000Y0038300D02*
G03X-0131300Y0039000I0000000J0000700D01*
G01X-0174821Y0054053D02*
G03X-0174500Y0053950I0000321J0000447D01*
G01X-0174750Y0055450D02*
G03X-0175450Y0054750I0000000J0000700D01*
G01X-0167055Y0055833D02*
G03X-0167750Y0056450I0000695J0000083D01*
G01X-0100964Y0054050D02*
G03X-0100800Y0054500I0000536J0000450D01*
G01X-0156567Y0057800D02*
G03X-0157000Y0057950I0000433J0000550D01*
G01X-0135250Y0032450D02*
G03X-0135950Y0031750I0000000J0000700D01*
G01X-0122750Y0030700D02*
G03X-0122361Y0030861I0000000J0000550D01*
G01X-0135139D02*
G03X-0135066Y0030800I0000389J0000389D01*
G01X-0120154Y0034154D02*
G03X-0120500Y0034240I0000346J0000654D01*
G01X-0135950Y0031750D02*
G03X-0135333Y0031055I0000700J0000000D01*
G01X-0103323Y0063677D02*
G03X-0104000Y0064200I0000677J0000177D01*
G01X-0156336Y0065111D02*
G03X-0155154Y0063948I0001182J0000019D01*
G01X-0162704Y0059439D02*
G03X-0162639Y0059361I0000454J0000311D01*
G01X-0158494Y0065400D02*
G03X-0158536Y0065130I0000840J0000270D01*
G01X-0159000Y0030454D02*
G03X-0158500Y0030260I0000500J0000546D01*
G01X-0162704Y0059439D02*
G03X-0162639Y0059361I0000454J0000311D01*
G01X-0162139Y0058861D02*
G03X-0161750Y0058700I0000389J0000389D01*
G01X-0147500Y0058550D02*
G03X-0146800Y0059250I0000000J0000700D01*
G01X-0147933Y0058700D02*
G03X-0147500Y0058550I0000433J0000550D01*
G01X-0153750Y0061550D02*
G03X-0154139Y0061389I0000000J0000550D01*
G01X-0153750Y0061550D02*
G03X-0154139Y0061389I0000000J0000550D01*
G01X-0145000Y0060300D02*
G03X-0144300Y0061000I0000000J0000700D01*
G03X-0145000Y0061700I0000700J0000000D01*
G01X-0146932Y0066851D02*
G03X-0147534Y0067101I0000602J0000601D01*
G01X-0146804Y0059321D02*
G03X-0146380Y0059213I0000424J0000775D01*
G01X-0151494Y0065400D02*
G03X-0151536Y0065130I0000840J0000270D01*
G01X-0147871Y0043093D02*
G03X-0148199Y0042500I0000371J0000593D01*
G01X-0161000Y0051545D02*
G03X-0161500Y0051740I0000500J0000545D01*
G01X-0172450Y0045000D02*
G03X-0171750Y0044300I0000700J0000000D01*
G03X-0171317Y0044450I0000000J0000700D01*
G01X-0171750Y0045700D02*
G03X-0172450Y0045000I0000000J0000700D01*
G01X-0113100Y0032877D02*
G03X-0112760Y0033500I0000400J0000623D01*
G01X-0110550Y0030000D02*
G03X-0110623Y0030311I0000700J0000000D01*
G01X-0071500Y0028698D02*
G03X-0071796Y0028661I0000000J0001198D01*
G01X-0124079Y0037550D02*
G03X-0124050Y0037750I0000671J0000200D01*
G01X-0097302Y0053550D02*
G03X-0098000Y0054200I0000698J0000050D01*
G01X-0085750Y0045300D02*
G03X-0085050Y0046000I0000000J0000700D01*
G03X-0085750Y0046700I0000700J0000000D01*
G01X-0086183Y0045450D02*
G03X-0085750Y0045300I0000433J0000550D01*
G01X-0091200Y0046000D02*
G03X-0090500Y0045300I0000700J0000000D01*
G03X-0090067Y0045450I0000000J0000700D01*
G01X-0090500Y0046700D02*
G03X-0091200Y0046000I0000000J0000700D01*
G01X-0133500Y0036450D02*
G03X-0134200Y0035750I0000000J0000700D01*
G01X-0136000Y0035950D02*
G03X-0135611Y0036111I0000000J0000550D01*
G01X-0090067Y0046550D02*
G03X-0090500Y0046700I0000433J0000550D01*
G01X-0137200Y0036500D02*
G03X-0136500Y0035800I0000700J0000000D01*
G01X-0136750Y0037950D02*
G03X-0137183Y0037800I0000000J0000700D01*
G01X-0137173Y0036692D02*
G03X-0137200Y0036500I0000673J0000192D01*
G01X-0134500Y0038300D02*
G03X-0134990Y0038000I0000000J0000550D01*
G01X-0123611Y0037389D02*
G03X-0124000Y0037550I0000389J0000389D01*
G01X-0135500D02*
G03X-0135889Y0037389I0000000J0000550D01*
G01X-0136050Y0037227D02*
G03X-0136050Y0037250I0000700J0000023D01*
G01X-0119760Y0033500D02*
G03X-0119846Y0033846I0000740J0000000D01*
G01X-0170226Y0067100D02*
G03X-0170827Y0066851I0000000J0000850D01*
G01X-0141048Y0059800D02*
G03X-0140997Y0060096I0000832J0000296D01*
G01X-0092500Y0045050D02*
G03X-0091800Y0045750I0000000J0000700D01*
G03X-0092500Y0046450I0000700J0000000D01*
G01X-0092933Y0045200D02*
G03X-0092500Y0045050I0000433J0000550D01*
G01X-0126889Y0041861D02*
G03X-0126500Y0041700I0000389J0000389D01*
G01X-0110714Y0043550D02*
G03X-0110552Y0043950I0000536J0000450D01*
G01X-0119750Y0042227D02*
G03X-0119595Y0042178I0000250J0000518D01*
G01X-0121389Y0040639D02*
G03X-0121512Y0040450I0000389J0000389D01*
G01X-0120500Y0041300D02*
G03X-0120889Y0041139I0000000J0000550D01*
G01X-0127817Y0033300D02*
G03X-0128250Y0033450I0000433J0000550D01*
G01X-0121389Y0040639D02*
G03X-0121512Y0040450I0000389J0000389D01*
G01X-0089300Y0043000D02*
G03X-0090000Y0043700I0000700J0000000D01*
G01X-0130932Y0066851D02*
G03X-0131534Y0067101I0000602J0000601D01*
G01X-0138226Y0067100D02*
G03X-0138827Y0066851I0000000J0000850D01*
G01X-0147052Y0033300D02*
G03X-0147750Y0033950I0000698J0000050D01*
G01X-0163336Y0065111D02*
G03X-0162154Y0063948I0001182J0000019D01*
G01X-0139932Y0066851D02*
G03X-0140534Y0067101I0000602J0000601D01*
G01X-0145226Y0067100D02*
G03X-0145827Y0066851I0000000J0000850D01*
G01X-0138226Y0067100D02*
G03X-0138827Y0066851I0000000J0000850D01*
G01X-0099255Y0031005D02*
G03X-0099050Y0031500I0000495J0000495D01*
Y0034000D02*
G03X-0099750Y0034700I0000700J0000000D01*
G03X-0100450Y0034000I0000000J0000700D01*
G01X-0100382Y0043950D02*
G03X-0099750Y0043550I0000632J0000300D01*
G01X-0102500Y0028050D02*
G03X-0102005Y0028255I0000000J0000700D01*
G01X-0151036Y0029200D02*
G03X-0151200Y0028750I0000536J0000450D01*
G01X-0134000Y0029550D02*
G03X-0133300Y0030250I0000000J0000700D01*
G01X-0146867Y0029450D02*
G03X-0146802Y0029700I0000633J0000300D01*
G01X-0133300Y0030250D02*
G03X-0133464Y0030700I0000700J0000000D01*
G01X-0075000Y0029050D02*
G03X-0074300Y0029750I0000000J0000700D01*
G03X-0075000Y0030450I0000700J0000000D01*
G01X-0171932Y0066851D02*
G03X-0172534Y0067101I0000602J0000601D01*
G01X-0177226Y0067100D02*
G03X-0177827Y0066851I0000000J0000850D01*
G01X-0132823Y0035927D02*
G03X-0133500Y0036450I0000677J0000177D01*
G01X-0134990Y0038000D02*
G03X-0135198Y0037550I0000490J0000500D01*
G01X-0124050Y0039000D02*
G03X-0123889Y0038611I0000550J0000000D01*
G01X-0134500Y0038300D02*
G03X-0134990Y0038000I0000000J0000550D01*
G01X-0124050Y0037750D02*
G03X-0124750Y0038450I0000700J0000000D01*
G01X-0142709Y0065400D02*
G03X-0142763Y0065096I0000829J0000304D01*
G01X-0122457Y0041220D02*
G03X-0122000Y0041050I0000457J0000530D01*
G01X-0121250Y0041200D02*
G03X-0120861Y0041361I0000000J0000550D01*
G01X-0122000Y0041050D02*
G03X-0121567Y0041200I0000000J0000700D01*
G01X-0134433Y0029700D02*
G03X-0134000Y0029550I0000433J0000550D01*
G01X-0120611Y0041611D02*
G03X-0120450Y0042000I0000389J0000389D01*
G01X-0151036Y0029200D02*
G03X-0151200Y0028750I0000536J0000450D01*
G01X-0157200Y0029750D02*
G03X-0156500Y0029050I0000700J0000000D01*
G03X-0156067Y0029200I0000000J0000700D01*
G01X-0137250Y0033450D02*
G03X-0137683Y0033300I0000000J0000700D01*
G01X-0146700Y0037250D02*
G03X-0146000Y0036550I0000700J0000000D01*
G03X-0145567Y0036700I0000000J0000700D01*
G01X-0146000Y0037950D02*
G03X-0146700Y0037250I0000000J0000700D01*
G01X-0136050D02*
G03X-0136750Y0037950I0000700J0000000D01*
G01X-0071024Y0047450D02*
G03X-0070635Y0047611I0000000J0000550D01*
G01X-0068399Y0046422D02*
G03X-0068250Y0046623I0000601J0000601D01*
G01X-0070389Y0046836D02*
G03X-0071553Y0045653I0000019J0001183D01*
G01X-0095817Y0062050D02*
G03X-0096250Y0062200I0000433J0000550D01*
G01X-0096950Y0061500D02*
G03X-0096923Y0061308I0000700J0000000D01*
G01X-0094476Y0060450D02*
G03X-0094536Y0060130I0000822J0000320D01*
G01X-0096250Y0062200D02*
G03X-0096950Y0061500I0000000J0000700D01*
G01X-0083563Y0065077D02*
G03X-0082380Y0063913I0001183J0000019D01*
G01X-0085611Y0061889D02*
G03X-0085988Y0062050I0000389J0000389D01*
G01X-0085611Y0061889D02*
G03X-0085988Y0062050I0000389J0000389D01*
G01X-0073361Y0061639D02*
G03X-0073750Y0061800I0000389J0000389D01*
G01X-0148761Y0031039D02*
G03X-0148954Y0031500I0000739J0000039D01*
G01X-0072000Y0059950D02*
G03X-0071611Y0060111I0000000J0000550D01*
G01X-0073389D02*
G03X-0073000Y0059950I0000389J0000389D01*
G01X-0071750Y0063950D02*
G03X-0072450Y0063250I0000000J0000700D01*
G01X-0070654Y0061013D02*
G03X-0071200Y0060824I0000000J0000883D01*
G01X-0136000Y0040950D02*
G03X-0136433Y0040800I0000000J0000700D01*
G01X-0124683Y0039200D02*
G03X-0124250Y0039050I0000433J0000550D01*
G01X-0072078Y0040639D02*
G03X-0072124Y0040680I0000389J0000389D01*
G01X-0069777Y0036150D02*
G03X-0069250Y0036000I0000527J0000850D01*
Y0038000D02*
G03X-0069507Y0037966I0000000J0001000D01*
G01X-0070370Y0039036D02*
G03X-0070469Y0039031I0000000J0000883D01*
G01X-0087700Y0040250D02*
G03X-0087000Y0039550I0000700J0000000D01*
G03X-0086567Y0039700I0000000J0000700D01*
G01X-0087000Y0040950D02*
G03X-0087700Y0040250I0000000J0000700D01*
G01X-0137250Y0032050D02*
G03X-0136550Y0032750I0000000J0000700D01*
G03X-0137250Y0033450I0000700J0000000D01*
G01X-0137683Y0032200D02*
G03X-0137250Y0032050I0000433J0000550D01*
G01X-0125500Y0033760D02*
G03X-0125154Y0033846I0000000J0000740D01*
G01X-0110817Y0029450D02*
G03X-0110550Y0030000I0000433J0000550D01*
G01X-0089500Y0059200D02*
G03X-0089933Y0059050I0000000J0000700D01*
G01X-0102611Y0055889D02*
G03X-0103000Y0056050I0000389J0000389D01*
G01X-0130361Y0057639D02*
G03X-0130750Y0057800I0000389J0000389D01*
G01X-0157700Y0057250D02*
G03X-0157000Y0056550I0000700J0000000D01*
Y0057950D02*
G03X-0157700Y0057250I0000000J0000700D01*
G01X-0131361Y0056389D02*
G03X-0131750Y0056550I0000389J0000389D01*
G01X-0152067D02*
G03X-0152500Y0056700I0000433J0000550D01*
G01X-0157000Y0056550D02*
G03X-0156567Y0056700I0000000J0000700D01*
G01X-0090000Y0043700D02*
G03X-0090433Y0043550I0000000J0000700D01*
G01X-0099750D02*
G03X-0099050Y0044250I0000000J0000700D01*
G01X-0120450Y0042387D02*
G03X-0120000Y0042170I0000450J0000358D01*
G01X-0099050Y0044250D02*
G03X-0099052Y0044302I0000700J0000000D01*
G01X-0147750Y0033950D02*
G03X-0148183Y0033800I0000000J0000700D01*
G01X-0141050Y0062000D02*
G03X-0140889Y0061611I0000550J0000000D01*
G01X-0141880Y0064213D02*
G03X-0141780Y0064219I0000000J0000883D01*
G01X-0083389Y0057861D02*
G03X-0083000Y0057700I0000389J0000389D01*
G01X-0080500Y0057550D02*
G03X-0079800Y0058250I0000000J0000700D01*
G03X-0080500Y0058950I0000700J0000000D01*
G01X-0080933Y0057700D02*
G03X-0080500Y0057550I0000433J0000550D01*
G01X-0078524Y0060700D02*
G03X-0078763Y0060096I0000644J0000604D01*
G01X-0085987Y0062050D02*
G03X-0085770Y0062630I0000667J0000580D01*
G01X-0096923Y0061308D02*
G03X-0097200Y0060750I0000423J0000558D01*
G01X-0092988Y0062050D02*
G03X-0092771Y0062630I0000666J0000580D01*
G01X-0097200Y0060750D02*
G03X-0096500Y0060050I0000700J0000000D01*
G01X-0107700Y0058500D02*
G03X-0107000Y0057800I0000700J0000000D01*
G03X-0106567Y0057950I0000000J0000700D01*
G01X-0107000Y0059200D02*
G03X-0107700Y0058500I0000000J0000700D01*
G01X-0089500Y0057800D02*
G03X-0088800Y0058500I0000000J0000700D01*
G03X-0089500Y0059200I0000700J0000000D01*
G01X-0089933Y0057950D02*
G03X-0089500Y0057800I0000433J0000550D01*
G01X-0071292Y0040765D02*
G03X-0071084Y0040634I0000388J0000389D01*
G01X-0071292Y0040765D02*
G03X-0071084Y0040634I0000388J0000389D01*
G01X-0083286Y0039700D02*
G03X-0083450Y0039250I0000536J0000450D01*
G01X-0071361Y0042389D02*
G03X-0071750Y0042550I0000389J0000389D01*
G01X-0101700Y0042000D02*
G03X-0101000Y0041300I0000700J0000000D01*
G03X-0100567Y0041450I0000000J0000700D01*
G01X-0106052Y0064698D02*
G03X-0105971Y0065111I0001102J0000432D01*
G01X-0102000Y0060800D02*
G03X-0101300Y0061500I0000000J0000700D01*
G03X-0101887Y0062191I0000700J0000000D01*
G01X-0106000Y0060700D02*
G03X-0105611Y0060861I0000000J0000550D01*
G01X-0140139D02*
G03X-0139975Y0060748I0000389J0000389D01*
G01X-0138497Y0060096D02*
G03X-0138735Y0060700I0000883J0000000D01*
G01X-0141050Y0062000D02*
G03X-0140889Y0061611I0000550J0000000D01*
G01X-0139975Y0060748D02*
G03X-0140263Y0060096I0000595J0000652D01*
G01X-0099336Y0065111D02*
G03X-0098154Y0063948I0001182J0000019D01*
G01X-0081998Y0061800D02*
G03X-0081497Y0062596I0000382J0000796D01*
G01X-0071535Y0060187D02*
G03X-0071537Y0060130I0000881J0000057D01*
G01X-0091154Y0063947D02*
G03X-0089971Y0065111I0000000J0001183D01*
G01X-0103494Y0065400D02*
G03X-0103536Y0065130I0000840J0000270D01*
G01X-0071068Y0063409D02*
G03X-0071750Y0063950I0000682J0000159D01*
G01X-0090579Y0052050D02*
G03X-0090550Y0052250I0000671J0000200D01*
G01X-0071253Y0048654D02*
G03X-0071247Y0048554I0000883J0000000D01*
G01X-0071084Y0040634D02*
G03X-0070370Y0040271I0000714J0000520D01*
G01X-0072973Y0055100D02*
G03X-0073500Y0055250I0000527J0000850D01*
G01X-0072450Y0063250D02*
G03X-0072300Y0062817I0000700J0000000D01*
G01X-0072078Y0040639D02*
G03X-0072124Y0040680I0000389J0000389D01*
G01X-0072385Y0028307D02*
G03X-0072698Y0027500I0000885J0000807D01*
G01X-0072681Y0028270D02*
G03X-0072385Y0028307I0000000J0001198D01*
G01X-0086617Y0038800D02*
G03X-0087250Y0039200I0000633J0000300D01*
G01X-0085750Y0046700D02*
G03X-0086183Y0046550I0000000J0000700D01*
G01X-0088250Y0032800D02*
G03X-0088639Y0032639I0000000J0000550D01*
G01X-0085867Y0032550D02*
G03X-0086500Y0032950I0000633J0000300D01*
G01X-0086571Y0031553D02*
G03X-0086250Y0031450I0000321J0000447D01*
G01X-0088250Y0032800D02*
G03X-0088639Y0032639I0000000J0000550D01*
G01X-0085867Y0032550D02*
G03X-0086500Y0032950I0000633J0000300D01*
G01X-0086933Y0031700D02*
G03X-0086571Y0031553I0000433J0000550D01*
G01X-0086500Y0032950D02*
G03X-0086933Y0032800I0000000J0000700D01*
G01X-0086571Y0031553D02*
G03X-0086250Y0031450I0000321J0000447D01*
G01X-0077000Y0031300D02*
G03X-0076300Y0032000I0000000J0000700D01*
G03X-0077000Y0032700I0000700J0000000D01*
G01X-0077433Y0031450D02*
G03X-0077000Y0031300I0000433J0000550D01*
G01X-0122639Y0037361D02*
G03X-0122250Y0037200I0000389J0000389D01*
G01X-0122950Y0040250D02*
G03X-0123111Y0040639I0000550J0000000D01*
G01X-0124050Y0039000D02*
G03X-0123889Y0038611I0000550J0000000D01*
G01X-0070654Y0063513D02*
G03X-0071068Y0063409I0000000J0000883D01*
G01X-0135567Y0040800D02*
G03X-0136000Y0040950I0000433J0000550D01*
G01X-0124250Y0039050D02*
G03X-0124050Y0039079I0000000J0000700D01*
G01X-0129433Y0058700D02*
G03X-0129000Y0058550I0000433J0000550D01*
G01X-0152500Y0040800D02*
G03X-0152889Y0040639I0000000J0000550D01*
G01X-0155200Y0038250D02*
G03X-0154699Y0037579I0000700J0000000D01*
G01X-0105302Y0064050D02*
G03X-0106000Y0064700I0000698J0000050D01*
G01X-0106034Y0067100D02*
G03X-0106635Y0066851I0000000J0000850D01*
G01X-0098672D02*
G03X-0099274Y0067101I0000602J0000601D01*
G01X-0097034Y0067100D02*
G03X-0097635Y0066851I0000000J0000850D01*
G01X-0091672D02*
G03X-0092274Y0067101I0000602J0000601D01*
G01X-0090034Y0067100D02*
G03X-0090635Y0066851I0000000J0000850D01*
G01X-0082932D02*
G03X-0083534Y0067101I0000602J0000601D01*
G01X-0081226Y0067100D02*
G03X-0081827Y0066851I0000000J0000850D01*
G01X-0075672D02*
G03X-0076274Y0067101I0000602J0000601D01*
G01X-0088500Y0037850D02*
G03X-0089101Y0037601I0000000J0000850D01*
G01X-0068250Y0037000D02*
G03X-0069250Y0038000I0001000J0000000D01*
Y0036000D02*
G03X-0068250Y0037000I0000000J0001000D01*
G01X-0077000Y0032700D02*
G03X-0077433Y0032550I0000000J0000700D01*
G01X-0089601Y0037101D02*
G03X-0089850Y0036500I0000601J0000601D01*
G01X-0071149Y0054851D02*
G03X-0071750Y0055100I0000601J0000601D01*
G01X-0074500Y0054250D02*
G03X-0073744Y0053280I0001000J0000000D01*
G01X-0073500Y0055250D02*
G03X-0074500Y0054250I0000000J0001000D01*
G01X-0071497Y0052795D02*
G03X-0070389Y0051970I0001127J0000358D01*
G01X-0070370Y0054336D02*
G03X-0070610Y0054312I0000000J0001183D01*
G01X-0113034Y0067100D02*
G03X-0113635Y0066851I0000000J0000850D01*
G01X-0107672D02*
G03X-0108274Y0067101I0000602J0000601D01*
G01X-0102654Y0063513D02*
G03X-0102968Y0063455I0000000J0000883D01*
G01X-0122226Y0067100D02*
G03X-0122827Y0066851I0000000J0000850D01*
G01X-0069507Y0037966D02*
G03X-0069487Y0038153I0000863J0000187D01*
G01X-0114672Y0066851D02*
G03X-0115274Y0067101I0000602J0000601D01*
G01X-0161034Y0067100D02*
G03X-0161635Y0066851I0000000J0000850D01*
G01X-0155672D02*
G03X-0156274Y0067101I0000602J0000601D01*
G01X-0154034Y0067100D02*
G03X-0154635Y0066851I0000000J0000850D01*
G01X-0146932D02*
G03X-0147534Y0067101I0000602J0000601D01*
G01X-0170226Y0067100D02*
G03X-0170827Y0066851I0000000J0000850D01*
G01X-0155154Y0063947D02*
G03X-0153971Y0065111I0000000J0001183D01*
G01X-0162672Y0066851D02*
G03X-0163274Y0067101I0000602J0000601D01*
G01X-0123932Y0066851D02*
G03X-0124534Y0067101I0000602J0000601D01*
G01X-0129226Y0067100D02*
G03X-0129827Y0066851I0000000J0000850D01*
G01X-0120611Y0041611D02*
G03X-0120450Y0042000I0000389J0000389D01*
G01X-0154663Y0060864D02*
G03X-0155154Y0061013I0000491J0000734D01*
G01X-0135500Y0037550D02*
G03X-0135889Y0037389I0000000J0000550D01*
G01X-0129583Y0036445D02*
G03X-0130198Y0035800I0000083J0000695D01*
G01X-0167709Y0065400D02*
G03X-0167763Y0065096I0000829J0000304D01*
G01X-0161334Y0059800D02*
G03X-0161270Y0060130I0000820J0000330D01*
G01X-0119524Y0060700D02*
G03X-0119763Y0060096I0000644J0000604D01*
G01X-0078709Y0065400D02*
G03X-0078763Y0065096I0000829J0000304D01*
G01X-0107828Y0060700D02*
G03X-0108037Y0060130I0000674J0000570D01*
G01X-0106034Y0067100D02*
G03X-0106635Y0066851I0000000J0000850D01*
G01X-0106000Y0064700D02*
G03X-0106052Y0064698I0000000J0000700D01*
G01X-0102968Y0063455D02*
G03X-0103323Y0063677I0000532J0000455D01*
G01X-0114828Y0060700D02*
G03X-0115037Y0060130I0000674J0000570D01*
G01X-0113034Y0067100D02*
G03X-0113635Y0066851I0000000J0000850D01*
G01X-0104000Y0064200D02*
G03X-0104433Y0064050I0000000J0000700D01*
G01X-0102084Y0060805D02*
G03X-0102000Y0060800I0000084J0000695D01*
G01X-0082380Y0063913D02*
G03X-0081197Y0065077I0000000J0001183D01*
G01X-0092336Y0065111D02*
G03X-0091154Y0063948I0001182J0000019D01*
G01X-0082932Y0066851D02*
G03X-0083534Y0067101I0000602J0000601D01*
G01X-0085771Y0060130D02*
G03X-0085773Y0060200I0000883J0000000D01*
G54D24*
G01X-0089000Y0031500D02*
X-0088250Y0032250D01*
X-0086500D01*
X-0086250Y0032000D01*
X-0077000D01*
X-0089000Y0050000D02*
X-0101000D01*
X-0101750Y0049250D01*
X-0126500D01*
X-0127000Y0049750D01*
Y0051000D01*
X-0077000Y0049000D02*
X-0083750D01*
X-0084750Y0050000D01*
X-0089000D01*
X-0121000Y0039500D02*
Y0038500D01*
X-0121750Y0037750D01*
X-0122250D01*
X-0123500Y0039000D01*
Y0040250D01*
X-0124250Y0041000D01*
X-0123330Y0041920D01*
X-0123080D01*
X-0136000Y0040250D02*
X-0125000D01*
X-0124250Y0041000D01*
X-0123330Y0041920D01*
X-0123080D01*
X-0123330D01*
X-0124250Y0041000D01*
X-0125000Y0040250D01*
X-0136000D01*
X-0152500D01*
X-0154500Y0038250D01*
X-0107153Y0065130D02*
X-0106033Y0066250D01*
X-0099273D01*
X-0098153Y0065130D01*
X-0097033Y0066250D01*
X-0092273D01*
X-0091153Y0065130D01*
X-0082380Y0065096D02*
X-0083533Y0066250D01*
X-0090033D01*
X-0091153Y0065130D01*
X-0082380Y0065096D02*
X-0081226Y0066250D01*
X-0076273D01*
X-0075153Y0065130D01*
X-0069250Y0037000D02*
X-0088500D01*
X-0089000Y0036500D01*
Y0035000D01*
X-0073500Y0054250D02*
X-0071750D01*
X-0070653Y0053153D01*
X-0070370D01*
X-0160000Y0061750D02*
X-0169000D01*
X-0176000D01*
X-0120500Y0043120D02*
Y0042250D01*
Y0041580D01*
X-0121000Y0041080D01*
X-0122750D01*
X-0123080D01*
X-0113500Y0034500D02*
X-0112000D01*
Y0039250D01*
X-0116500D01*
Y0039500D01*
X-0123080Y0041080D02*
X-0122750D01*
Y0040500D01*
X-0121750D01*
X-0121500Y0040250D01*
Y0039500D01*
X-0078500Y0035000D02*
X-0088000D01*
X-0074000D02*
X-0078500D01*
X-0088000D01*
X-0169500Y0032000D02*
X-0167750Y0033750D01*
X-0148500D01*
X-0125500Y0033500D02*
X-0134000D01*
X-0134500Y0033000D01*
Y0031750D01*
X-0113500Y0034500D02*
X-0112000D01*
X-0105250D01*
X-0104750Y0034000D01*
X-0121500Y0039500D02*
Y0039000D01*
X-0122000Y0038500D01*
X-0120500Y0043120D02*
Y0042250D01*
X-0112500D01*
X-0112000Y0041750D01*
Y0039250D01*
X-0116500D01*
Y0039500D01*
X-0121000Y0060750D02*
X-0120875Y0060875D01*
X-0112000D01*
Y0060750D01*
X-0089000Y0059250D02*
X-0105000D01*
X-0112000Y0060750D02*
Y0060875D01*
X-0104500D01*
X-0094750Y0063500D02*
X-0089500D01*
X-0089000Y0063000D01*
Y0062000D01*
X-0143500Y0060750D02*
X-0137000D01*
X-0088000Y0035000D02*
Y0034500D01*
X-0088500Y0034000D01*
X-0096750D01*
X-0097500Y0034750D01*
X-0101250D01*
X-0101500Y0034500D01*
X-0105250D01*
X-0112000D01*
X-0113500D01*
X-0088000Y0035000D02*
Y0034500D01*
X-0088500Y0034000D01*
X-0096750D01*
X-0097500Y0034750D01*
X-0134500Y0031750D02*
X-0135000Y0032250D01*
X-0135500D01*
X-0135750Y0032000D01*
Y0031250D01*
X-0135250Y0030750D01*
X-0120500D01*
X-0120000Y0031250D01*
Y0033000D01*
X-0119500Y0033500D01*
X-0079500Y0062250D02*
X-0079000Y0062750D01*
Y0063500D01*
X-0088500D01*
X-0089000Y0063000D01*
Y0062000D01*
Y0063000D01*
X-0088500Y0063500D01*
X-0079000D01*
X-0074250D01*
X-0072250Y0061500D01*
Y0061250D01*
X-0153000Y0061750D02*
X-0160000D01*
X-0144000D02*
X-0153000D01*
X-0128000Y0060750D02*
X-0137000D01*
X-0121000D02*
X-0128000D01*
X-0114153Y0065130D02*
X-0113033Y0066250D01*
X-0108273D01*
X-0107153Y0065130D01*
X-0123380Y0065096D02*
X-0122226Y0066250D01*
X-0115273D01*
X-0114153Y0065130D01*
X-0162153D02*
X-0161033Y0066250D01*
X-0156273D01*
X-0155153Y0065130D01*
X-0146380Y0065096D02*
X-0147533Y0066250D01*
X-0154033D01*
X-0155153Y0065130D01*
X-0171380Y0065096D02*
X-0170226Y0066250D01*
X-0163273D01*
X-0162153Y0065130D01*
X-0130380Y0065096D02*
X-0129226Y0066250D01*
X-0124533D01*
X-0123380Y0065096D01*
X-0114500Y0041750D02*
X-0119250D01*
X-0120250Y0040750D01*
X-0120500D01*
X-0121000Y0040250D01*
Y0039500D01*
X-0116000Y0036160D02*
Y0035000D01*
X-0116500Y0034500D01*
X-0090000Y0043000D02*
X-0114500D01*
X-0139380Y0065096D02*
X-0138226Y0066250D01*
X-0131533D01*
X-0130380Y0065096D01*
X-0146380D02*
X-0145226Y0066250D01*
X-0140533D01*
X-0139380Y0065096D01*
X-0134000Y0030250D02*
X-0148750D01*
X-0149500Y0031000D01*
X-0178380Y0065096D02*
X-0177226Y0066250D01*
X-0172533D01*
X-0171380Y0065096D01*
X-0134500Y0037500D02*
Y0037750D01*
X-0124750D01*
X-0122000Y0041750D02*
X-0121250D01*
X-0121000Y0042000D01*
Y0043120D01*
X-0156500Y0029750D02*
X-0147500D01*
X-0146000Y0037250D02*
X-0136750D01*
X-0100500Y0048000D02*
X-0071024D01*
X-0070370Y0048654D01*
X-0120500Y0034500D02*
X-0119500Y0033500D01*
X-0070370Y0045653D02*
X-0069000Y0047023D01*
Y0051783D01*
X-0070370Y0053153D01*
X-0123080Y0041920D02*
Y0042250D01*
X-0122210Y0043120D01*
X-0122000D01*
X-0096250Y0061500D02*
X-0086000D01*
X-0085750Y0061250D01*
X-0073750D01*
X-0073000Y0060500D01*
X-0072000D01*
X-0071750Y0060750D01*
Y0063250D01*
X-0136750Y0039500D02*
X-0136500Y0039750D01*
X-0124250D01*
X-0121500Y0042250D02*
Y0043120D01*
X-0070370Y0038153D02*
X-0072466Y0040250D01*
X-0087000D01*
X-0137250Y0032750D02*
X-0155750D01*
X-0156500Y0032000D01*
X-0104000Y0063500D02*
X-0124500D01*
X-0125880Y0064880D01*
Y0065096D01*
X-0102500Y0055000D02*
X-0103000Y0055500D01*
X-0129000D01*
X-0130750Y0057250D01*
X-0157000D01*
X-0152500Y0056000D02*
X-0131750D01*
X-0130750Y0055000D01*
X-0103250D01*
X-0099750Y0044250D02*
X-0100000Y0044500D01*
X-0120250D01*
X-0121000Y0043750D01*
Y0043120D01*
X-0080500Y0058250D02*
X-0083000D01*
X-0085500Y0060750D01*
X-0086000D01*
X-0086250Y0061000D01*
X-0096250D01*
X-0096500Y0060750D01*
X-0107000Y0058500D02*
X-0089500D01*
X-0106000Y0064000D02*
X-0117500D01*
X-0118596Y0065096D01*
X-0118880D01*
X-0070370Y0041154D02*
X-0070904D01*
X-0071750Y0042000D01*
X-0101000D01*
X-0102000Y0061500D02*
X-0105750D01*
X-0106000Y0061250D01*
X-0139750D01*
X-0140500Y0062000D01*
Y0063716D01*
X-0141880Y0065096D01*
X-0121500Y0043120D02*
Y0044000D01*
X-0120500Y0045000D01*
X-0099000D01*
X-0167750Y0055750D02*
X-0167000Y0055000D01*
X-0132000D01*
X-0131500Y0054500D01*
X-0101500D01*
X-0102500Y0033250D02*
X-0105250D01*
X-0131000Y0051000D02*
X-0129000Y0053000D01*
X-0086000D01*
X-0084000Y0055000D01*
X-0133500Y0035750D02*
Y0035000D01*
X-0133250Y0034750D01*
X-0126000D01*
X-0125500Y0035250D01*
X-0125250D01*
X-0124500Y0034500D01*
X-0174750Y0054750D02*
X-0174500Y0054500D01*
X-0132500D01*
X-0132000Y0054000D01*
X-0102000D01*
X-0135250Y0031750D02*
X-0134750Y0031250D01*
X-0122750D01*
X-0120500Y0033500D01*
X-0121500D02*
X-0123250Y0031750D01*
X-0131250D01*
X-0103500Y0063000D02*
X-0105000D01*
X-0106250Y0061750D01*
X-0131500D01*
X-0134846Y0065096D01*
X-0134880D01*
X-0162153Y0060130D02*
Y0060000D01*
X-0162250D01*
Y0059750D01*
X-0161750Y0059250D01*
X-0147500D01*
X-0145750Y0044750D02*
X-0139000D01*
X-0138000Y0045750D01*
X-0128750D01*
X-0128000Y0045000D01*
X-0155153Y0060130D02*
X-0154620D01*
X-0153750Y0061000D01*
X-0145000D01*
X-0144000Y0046750D02*
X-0143750Y0046500D01*
X-0139250D01*
X-0139000Y0046750D01*
X-0126750D01*
X-0125000Y0045000D01*
X-0119000Y0036160D02*
Y0035000D01*
X-0118500Y0034500D01*
X-0133000Y0045000D02*
X-0134250Y0043750D01*
X-0144250D01*
X-0144500Y0044000D01*
X-0145750Y0053500D02*
X-0155000D01*
X-0155500Y0053000D01*
Y0051000D01*
X-0144000Y0061750D02*
Y0061500D01*
X-0143500Y0060750D02*
X-0137000D01*
X-0171750Y0045000D02*
X-0149000D01*
X-0147250Y0043250D01*
X-0126250D01*
X-0126000Y0043000D01*
X-0114500Y0033500D02*
X-0113500Y0032500D01*
Y0031840D01*
X-0114500Y0036160D02*
Y0035500D01*
X-0115500Y0034500D01*
X-0129500Y0035750D02*
X-0129000Y0036250D01*
X-0124250D01*
X-0122500Y0034500D01*
X-0128250Y0032750D02*
X-0124250D01*
X-0123500Y0033500D01*
X-0091250Y0052250D02*
X-0113000D01*
X-0113750Y0051500D01*
X-0114500D01*
X-0114750Y0051750D01*
X-0123250D01*
X-0124000Y0051000D01*
X-0085750Y0046000D02*
X-0090500D01*
X-0136500Y0036500D02*
X-0136000D01*
X-0135500Y0037000D01*
X-0124000D01*
X-0121500Y0034500D01*
X-0152500Y0051000D02*
X-0151500Y0052000D01*
X-0148250D01*
X-0147750Y0045500D02*
X-0139250D01*
X-0138500Y0046250D01*
X-0128250D01*
X-0127000Y0045000D01*
X-0092500Y0045750D02*
X-0120500D01*
X-0124000Y0042250D01*
X-0126500D01*
X-0127000Y0042750D01*
X-0147250D01*
X-0147500Y0042500D01*
X-0147750Y0033250D02*
X-0161250D01*
X-0162500Y0032000D01*
X-0115500Y0033500D02*
X-0115000Y0033000D01*
Y0031840D01*
X-0124000Y0045000D02*
X-0126250Y0047250D01*
X-0139000D01*
X-0139250Y0047500D01*
X-0133000Y0035250D02*
X-0126750D01*
X-0126250Y0035750D01*
X-0124750D01*
X-0123500Y0034500D01*
X-0074750Y0051500D02*
X-0079500D01*
X-0080500Y0050500D01*
X-0083250D01*
X-0084250Y0051500D01*
X-0104000D01*
X-0105250Y0050250D01*
X-0124250D01*
X-0125000Y0051000D01*
X-0098000Y0053500D02*
X-0132250D01*
X-0132750Y0054000D01*
X-0157500D01*
X-0160500Y0051000D01*
X-0136750Y0055500D02*
X-0156500D01*
X-0170250Y0034500D02*
X-0157000D01*
X-0152500Y0039000D01*
X-0132000D01*
X-0075370Y0038153D02*
X-0075466Y0038250D01*
X-0087000D01*
X-0087250Y0038500D01*
X-0157000Y0057250D02*
X-0130750D01*
X-0129000Y0055500D01*
X-0103000D01*
X-0102500Y0055000D01*
X-0113500Y0031000D02*
X-0110750D01*
X-0111250Y0044000D02*
X-0117000D01*
Y0043120D01*
X-0126000Y0051000D02*
X-0124750Y0049750D01*
X-0104500D01*
X-0103500Y0050750D01*
X-0084500D01*
X-0083750Y0050000D01*
X-0075250D01*
X-0168250Y0045750D02*
X-0167750Y0046250D01*
X-0146500D01*
X-0144500Y0048250D01*
X-0138750D01*
X-0138250Y0047750D01*
X-0133000D01*
X-0132250Y0048500D01*
X-0101500D01*
X-0101000Y0049000D01*
X-0090250D01*
X-0117500Y0036160D02*
Y0034500D01*
X-0123000Y0051000D02*
X-0108500D01*
X-0108000Y0051500D01*
X-0116500Y0033500D02*
Y0031840D01*
X-0146380Y0060096D02*
X-0145846D01*
X-0145000Y0059250D01*
X-0129000D01*
X-0154500Y0051000D02*
X-0152500Y0053000D01*
X-0137250D01*
X-0153500Y0050000D02*
X-0152750Y0049250D01*
X-0148250D01*
X-0147875Y0049625D01*
Y0051500D01*
X-0147375Y0052000D01*
X-0137000D01*
X-0136000Y0051000D01*
X-0130380Y0060096D02*
X-0128846D01*
X-0128000Y0059250D01*
X-0121750D01*
Y0046000D02*
Y0045500D01*
X-0123000Y0044250D01*
X-0128250D01*
X-0129000Y0045000D01*
X-0156500Y0050000D02*
X-0154250Y0047750D01*
X-0147250D01*
X-0145250Y0049750D01*
X-0138000D01*
X-0137500Y0049250D01*
X-0134750D01*
X-0133000Y0051000D01*
X-0072870Y0038153D02*
X-0072966Y0038250D01*
X-0073500D01*
X-0074250Y0039000D01*
X-0082500D01*
X-0082750Y0039250D01*
X-0117500Y0033500D02*
X-0118000Y0033000D01*
Y0031840D01*
X-0130000Y0045000D02*
X-0128750Y0043750D01*
X-0123000D01*
X-0120500Y0046250D01*
X-0099000D01*
X-0098750Y0046500D01*
X-0120500Y0036160D02*
Y0035500D01*
X-0119500Y0034500D01*
X-0153500Y0051000D02*
X-0152000Y0052500D01*
X-0137750D01*
X-0118500Y0033500D02*
X-0119500Y0032500D01*
Y0031840D01*
X-0114000Y0052500D02*
X-0128500D01*
X-0130000Y0051000D01*
X-0157500Y0050000D02*
X-0154750Y0047250D01*
X-0147000D01*
X-0145000Y0049250D01*
X-0138250D01*
X-0137750Y0048750D01*
X-0134250D01*
X-0132000Y0051000D01*
X-0132750Y0031750D02*
X-0132250Y0032250D01*
X-0123750D01*
X-0122500Y0033500D01*
X-0120500Y0039500D02*
Y0037000D01*
X-0119500Y0031000D02*
X-0119000D01*
X-0118750Y0031250D01*
Y0031500D01*
X-0113250Y0040250D02*
Y0040750D01*
X-0113750Y0041250D01*
X-0118250D01*
X-0119250Y0040250D01*
X-0120000D01*
Y0039500D01*
X-0119500D02*
Y0037500D01*
X-0119000Y0037000D01*
X-0118000Y0031000D02*
X-0116500Y0029500D01*
X-0112750D01*
Y0039750D02*
X-0115750D01*
Y0040750D02*
X-0118250D01*
X-0119000Y0040000D01*
Y0039500D01*
X-0076250Y0047500D02*
X-0099250D01*
X-0099500Y0047250D01*
X-0103750D01*
X-0104500Y0048000D01*
X-0131000D01*
X-0117500Y0037000D02*
X-0117750D01*
X-0118500Y0037750D01*
Y0039500D01*
X-0135000Y0051000D02*
X-0135750Y0050250D01*
X-0136250D01*
X-0137500Y0051500D01*
X-0147000D01*
X-0147500Y0051000D01*
Y0049500D01*
X-0148250Y0048750D01*
X-0153250D01*
X-0154500Y0050000D01*
X-0118000Y0039500D02*
Y0040250D01*
X-0114000D01*
X-0111250Y0030000D02*
X-0115500D01*
X-0116500Y0031000D01*
X-0128000Y0051000D02*
X-0130000Y0049000D01*
X-0132500D01*
X-0133250Y0048250D01*
X-0138000D01*
X-0138500Y0048750D01*
X-0144750D01*
X-0146750Y0046750D01*
X-0171250D01*
X-0116000Y0037000D02*
X-0116500D01*
X-0117500Y0038000D01*
Y0039500D01*
X-0117000D02*
Y0038750D01*
X-0116750Y0038500D01*
X-0114250D01*
X-0112500Y0036750D01*
X-0112250Y0030500D02*
X-0114500D01*
X-0115000Y0031000D01*
X-0155500Y0050000D02*
X-0153750Y0048250D01*
X-0147500D01*
X-0145500Y0050250D01*
X-0137750D01*
X-0137250Y0049750D01*
X-0135250D01*
X-0134000Y0051000D01*
X-0116500Y0043120D02*
Y0043000D01*
X-0115250D01*
Y0037750D02*
X-0114500Y0037000D01*
G54D10*
X-0081500Y0052000D03*
X-0088000Y0027000D03*
X-0176500D03*
Y0052000D03*
G54D11*
X-0088000Y0031500D03*
Y0035000D03*
G54D12*
X-0089000Y0031500D03*
Y0035000D03*
G54D13*
X-0113500Y0031000D03*
Y0031840D03*
X-0115000Y0031000D03*
Y0031840D03*
X-0114500Y0037000D03*
Y0036160D03*
X-0116000Y0037000D03*
Y0036160D03*
X-0116500Y0031000D03*
Y0031840D03*
X-0117500Y0037000D03*
Y0036160D03*
X-0118000Y0031000D03*
Y0031840D03*
X-0119000Y0037000D03*
Y0036160D03*
X-0119500Y0031000D03*
Y0031840D03*
X-0120500Y0037000D03*
Y0036160D03*
X-0123080Y0041920D03*
Y0041080D03*
G54D14*
X-0070370Y0033654D03*
X-0075370D03*
X-0072870D03*
X-0070370Y0038153D03*
X-0072870D03*
X-0075370D03*
X-0173880Y0065096D03*
Y0060096D03*
Y0062596D03*
X-0178380Y0065096D03*
Y0062596D03*
Y0060096D03*
X-0166880Y0065096D03*
Y0060096D03*
Y0062596D03*
X-0171380Y0065096D03*
Y0062596D03*
Y0060096D03*
X-0150654Y0065130D03*
Y0060130D03*
Y0062630D03*
X-0155153Y0065130D03*
Y0062630D03*
Y0060130D03*
X-0157654Y0065130D03*
Y0060130D03*
Y0062630D03*
X-0162153Y0065130D03*
Y0062630D03*
Y0060130D03*
X-0134880Y0065096D03*
Y0060096D03*
Y0062596D03*
X-0139380Y0065096D03*
Y0062596D03*
Y0060096D03*
X-0141880Y0065096D03*
Y0060096D03*
Y0062596D03*
X-0146380Y0065096D03*
Y0062596D03*
Y0060096D03*
X-0118880Y0065096D03*
Y0060096D03*
Y0062596D03*
X-0123380Y0065096D03*
Y0062596D03*
Y0060096D03*
X-0125880Y0065096D03*
Y0060096D03*
Y0062596D03*
X-0130380Y0065096D03*
Y0062596D03*
Y0060096D03*
X-0102654Y0065130D03*
Y0060130D03*
Y0062630D03*
X-0107153Y0065130D03*
Y0062630D03*
Y0060130D03*
X-0109654Y0065130D03*
Y0060130D03*
Y0062630D03*
X-0114153Y0065130D03*
Y0062630D03*
Y0060130D03*
X-0086654Y0065130D03*
Y0060130D03*
Y0062630D03*
X-0091153Y0065130D03*
Y0062630D03*
Y0060130D03*
X-0093654Y0065130D03*
Y0060130D03*
Y0062630D03*
X-0098153Y0065130D03*
Y0062630D03*
Y0060130D03*
X-0070654Y0065130D03*
Y0060130D03*
Y0062630D03*
X-0075153Y0065130D03*
Y0062630D03*
Y0060130D03*
X-0077880Y0065096D03*
Y0060096D03*
Y0062596D03*
X-0082380Y0065096D03*
Y0062596D03*
Y0060096D03*
X-0070370Y0041154D03*
X-0075370D03*
X-0072870D03*
X-0070370Y0045653D03*
X-0072870D03*
X-0075370D03*
X-0070370Y0048654D03*
X-0075370D03*
X-0072870D03*
X-0070370Y0053153D03*
X-0072870D03*
X-0075370D03*
G54D15*
X-0148500Y0032000D03*
X-0149500Y0031000D03*
Y0032000D03*
X-0150500Y0031000D03*
Y0032000D03*
X-0151500Y0031000D03*
Y0032000D03*
X-0152500Y0031000D03*
X-0153500D03*
Y0032000D03*
X-0154500Y0031000D03*
Y0032000D03*
X-0155500Y0031000D03*
Y0032000D03*
X-0156500Y0031000D03*
Y0032000D03*
X-0157500Y0031000D03*
X-0158500D03*
Y0032000D03*
X-0159500Y0031000D03*
Y0032000D03*
X-0160500Y0031000D03*
Y0032000D03*
X-0161500Y0031000D03*
Y0032000D03*
X-0162500Y0031000D03*
X-0163500D03*
Y0032000D03*
X-0164500Y0031000D03*
Y0032000D03*
X-0165500Y0031000D03*
Y0032000D03*
X-0166500Y0031000D03*
Y0032000D03*
X-0167500Y0031000D03*
X-0168500D03*
Y0032000D03*
X-0169500Y0031000D03*
Y0032000D03*
X-0170500Y0031000D03*
Y0032000D03*
X-0148500Y0051000D03*
X-0149500Y0050000D03*
Y0051000D03*
X-0150500Y0050000D03*
Y0051000D03*
X-0151500Y0050000D03*
Y0051000D03*
X-0152500Y0050000D03*
X-0153500D03*
Y0051000D03*
X-0154500Y0050000D03*
Y0051000D03*
X-0155500Y0050000D03*
Y0051000D03*
X-0156500Y0050000D03*
Y0051000D03*
X-0157500Y0050000D03*
X-0158500D03*
Y0051000D03*
X-0159500Y0050000D03*
Y0051000D03*
X-0160500Y0050000D03*
Y0051000D03*
X-0161500Y0050000D03*
Y0051000D03*
X-0162500Y0050000D03*
X-0163500D03*
Y0051000D03*
X-0164500Y0050000D03*
Y0051000D03*
X-0165500Y0050000D03*
Y0051000D03*
X-0166500Y0050000D03*
Y0051000D03*
X-0167500Y0050000D03*
X-0168500D03*
Y0051000D03*
X-0169500Y0050000D03*
Y0051000D03*
X-0170500Y0050000D03*
Y0051000D03*
X-0135000Y0045000D03*
X-0134000D03*
X-0133000D03*
X-0132000D03*
X-0131000D03*
X-0130000D03*
X-0129000D03*
X-0128000D03*
X-0127000D03*
X-0126000D03*
X-0125000D03*
X-0124000D03*
X-0123000D03*
Y0051000D03*
X-0124000D03*
X-0125000D03*
X-0126000D03*
X-0127000D03*
X-0128000D03*
X-0129000D03*
X-0130000D03*
X-0131000D03*
X-0132000D03*
X-0133000D03*
X-0134000D03*
X-0135000D03*
X-0136000D03*
X-0125500Y0034500D03*
X-0124500Y0033500D03*
Y0034500D03*
X-0123500Y0033500D03*
Y0034500D03*
X-0122500Y0033500D03*
Y0034500D03*
X-0121500Y0033500D03*
X-0120500D03*
Y0034500D03*
X-0119500Y0033500D03*
Y0034500D03*
X-0118500Y0033500D03*
Y0034500D03*
X-0117500Y0033500D03*
Y0034500D03*
X-0116500Y0033500D03*
X-0115500D03*
Y0034500D03*
X-0114500Y0033500D03*
Y0034500D03*
X-0113500Y0033500D03*
Y0034500D03*
G54D16*
X-0148500Y0031000D03*
X-0152500Y0032000D03*
X-0157500D03*
X-0162500D03*
X-0167500D03*
X-0148500Y0050000D03*
X-0152500Y0051000D03*
X-0157500D03*
X-0162500D03*
X-0167500D03*
X-0136000Y0045000D03*
X-0125500Y0033500D03*
X-0121500Y0034500D03*
X-0116500D03*
G54D17*
X-0071500Y0027500D03*
X-0073862D03*
X-0072681Y0029468D03*
G54D18*
X-0121500Y0039500D03*
X-0121000D03*
X-0120500D03*
X-0120000D03*
X-0119500D03*
X-0119000D03*
X-0118500D03*
X-0118000D03*
X-0117500D03*
X-0117000D03*
X-0116500D03*
Y0043120D03*
X-0117000D03*
X-0117500D03*
X-0118000D03*
X-0118500D03*
X-0119000D03*
X-0119500D03*
X-0120000D03*
X-0120500D03*
X-0121000D03*
X-0121500D03*
X-0122000D03*
G54D19*
Y0039500D03*
G54D20*
X-0146625Y0031500D03*
Y0050500D03*
X-0172375Y0049300D03*
Y0032700D03*
G54D23*
X-0115250Y0043000D03*
Y0037750D03*
G54D25*
X-0086500Y0032250D03*
X-0077000Y0032000D03*
Y0049000D03*
X-0089000Y0050000D03*
X-0136000Y0040250D03*
X-0154500Y0038250D03*
X-0069250Y0037000D03*
X-0073500Y0054250D03*
X-0169000Y0061750D03*
X-0176000D03*
X-0078500Y0035000D03*
X-0074000D03*
X-0148500Y0033750D03*
X-0104750Y0034000D03*
X-0122000Y0038500D03*
X-0089000Y0059250D03*
X-0105000D03*
X-0112000Y0060750D03*
X-0104500Y0060875D03*
X-0094750Y0063500D03*
X-0097500Y0034750D03*
X-0134500Y0031750D03*
X-0079500Y0062250D03*
X-0089000Y0062000D03*
X-0072250Y0061250D03*
X-0160000Y0061750D03*
X-0153000D03*
X-0121000Y0060750D03*
X-0128000D03*
X-0114500Y0041750D03*
X-0090000Y0043000D03*
X-0114500D03*
X-0099750Y0034000D03*
X-0134000Y0030250D03*
X-0075000Y0029750D03*
X-0150500Y0028750D03*
X-0134500Y0037500D03*
X-0124750Y0037750D03*
X-0122000Y0041750D03*
X-0156500Y0029750D03*
X-0147500D03*
X-0146000Y0037250D03*
X-0136750D03*
X-0100500Y0048000D03*
X-0096250Y0061500D03*
X-0071750Y0063250D03*
X-0136750Y0039500D03*
X-0124250Y0039750D03*
X-0121500Y0042250D03*
X-0087000Y0040250D03*
X-0137250Y0032750D03*
X-0104000Y0063500D03*
X-0152500Y0056000D03*
X-0103250Y0055000D03*
X-0099750Y0044250D03*
X-0080500Y0058250D03*
X-0096500Y0060750D03*
X-0107000Y0058500D03*
X-0089500D03*
X-0106000Y0064000D03*
X-0101000Y0042000D03*
X-0102000Y0061500D03*
X-0099000Y0045000D03*
X-0167750Y0055750D03*
X-0101500Y0054500D03*
X-0102500Y0033250D03*
X-0105250D03*
X-0084000Y0055000D03*
X-0133500Y0035750D03*
X-0174750Y0054750D03*
X-0102000Y0054000D03*
X-0135250Y0031750D03*
X-0131250D03*
X-0103500Y0063000D03*
X-0147500Y0059250D03*
X-0145750Y0044750D03*
X-0145000Y0061000D03*
X-0144000Y0046750D03*
X-0144500Y0044000D03*
X-0145750Y0053500D03*
X-0144000Y0061750D03*
X-0143500Y0060750D03*
X-0137000D03*
X-0171750Y0045000D03*
X-0126000Y0043000D03*
X-0129500Y0035750D03*
X-0128250Y0032750D03*
X-0091250Y0052250D03*
X-0085750Y0046000D03*
X-0090500D03*
X-0136500Y0036500D03*
X-0148250Y0052000D03*
X-0147750Y0045500D03*
X-0092500Y0045750D03*
X-0147500Y0042500D03*
X-0147750Y0033250D03*
X-0139250Y0047500D03*
X-0133000Y0035250D03*
X-0074750Y0051500D03*
X-0098000Y0053500D03*
X-0136750Y0055500D03*
X-0156500D03*
X-0170250Y0034500D03*
X-0132000Y0039000D03*
X-0087250Y0038500D03*
X-0157000Y0057250D03*
X-0102500Y0055000D03*
X-0110750Y0031000D03*
X-0111250Y0044000D03*
X-0075250Y0050000D03*
X-0168250Y0045750D03*
X-0090250Y0049000D03*
X-0108000Y0051500D03*
X-0129000Y0059250D03*
X-0137250Y0053000D03*
X-0121750Y0059250D03*
Y0046000D03*
X-0082750Y0039250D03*
X-0098750Y0046500D03*
X-0137750Y0052500D03*
X-0114000D03*
X-0132750Y0031750D03*
X-0118750Y0031500D03*
X-0113250Y0040250D03*
X-0112750Y0029500D03*
Y0039750D03*
X-0115750D03*
Y0040750D03*
X-0076250Y0047500D03*
X-0131000Y0048000D03*
X-0114000Y0040250D03*
X-0111250Y0030000D03*
X-0171250Y0046750D03*
X-0112500Y0036750D03*
X-0112250Y0030500D03*
M02*
