*
G04 Mass Parameters ***
*
G04 Image ***
*
%INE:\ANALOGEFFECTS\HW\SCHEMATIC\NEW\DESIGN_II-2.SMT*%
%ICAS*%
%MOIN*%
%IPPOS*%
%ASAXBY*%
G74*%FSLAN2X34Y34*%
*
G04 Aperture Definitions ***
*
%ADD10C,0.2100*%
%ADD11C,0.0550*%
%ADD12R,0.0550X0.0550*%
%ADD13R,0.0500X0.0500*%
%ADD14C,0.0866*%
%ADD15C,0.0580*%
%ADD16R,0.0580X0.0580*%
%ADD17C,0.1496*%
%ADD18O,0.0250X0.1000*%
%ADD19R,0.0250X0.1000*%
%ADD20C,0.1299*%
%ADD21C,0.1300*%
%ADD22C,0.0500*%
%ADD23C,0.0500*%
%ADD24C,0.0200*%
%ADD25C,0.0500*%
%ADD26R,0.0840X0.0560*%
%ADD27R,0.0340X0.0400*%
%ADD28R,0.0340X0.0500*%
%ADD29O,0.1000X0.0250*%
%ADD30R,0.1000X0.0250*%
%ADD31R,0.4803X0.3838*%
%ADD32R,0.1378X0.0720*%
%ADD33C,0.2200*%
%ADD34C,0.0750*%
%ADD35R,0.0750X0.0750*%
%ADD36C,0.0780*%
%ADD37R,0.0780X0.0780*%
%ADD38C,0.1299*%
%ADD39C,0.0750*%
%ADD40C,0.2200*%
%ADD41C,0.0925*%
%ADD42C,0.1378*%
%ADD43C,0.0550*%
*
G04 Plot Data ***
*
G54D11*
X-0088000Y0031500D03*
Y0035000D03*
G54D12*
X-0089000Y0031500D03*
Y0035000D03*
G54D13*
X-0113500Y0031000D03*
Y0031840D03*
X-0115000Y0031000D03*
Y0031840D03*
X-0114500Y0037000D03*
Y0036160D03*
X-0116000Y0037000D03*
Y0036160D03*
X-0116500Y0031000D03*
Y0031840D03*
X-0117500Y0037000D03*
Y0036160D03*
X-0118000Y0031000D03*
Y0031840D03*
X-0119000Y0037000D03*
Y0036160D03*
X-0119500Y0031000D03*
Y0031840D03*
X-0120500Y0037000D03*
Y0036160D03*
X-0123080Y0041920D03*
Y0041080D03*
G54D15*
X-0148500Y0032000D03*
X-0149500Y0031000D03*
Y0032000D03*
X-0150500Y0031000D03*
Y0032000D03*
X-0151500Y0031000D03*
Y0032000D03*
X-0152500Y0031000D03*
X-0153500D03*
Y0032000D03*
X-0154500Y0031000D03*
Y0032000D03*
X-0155500Y0031000D03*
Y0032000D03*
X-0156500Y0031000D03*
Y0032000D03*
X-0157500Y0031000D03*
X-0158500D03*
Y0032000D03*
X-0159500Y0031000D03*
Y0032000D03*
X-0160500Y0031000D03*
Y0032000D03*
X-0161500Y0031000D03*
Y0032000D03*
X-0162500Y0031000D03*
X-0163500D03*
Y0032000D03*
X-0164500Y0031000D03*
Y0032000D03*
X-0165500Y0031000D03*
Y0032000D03*
X-0166500Y0031000D03*
Y0032000D03*
X-0167500Y0031000D03*
X-0168500D03*
Y0032000D03*
X-0169500Y0031000D03*
Y0032000D03*
X-0170500Y0031000D03*
Y0032000D03*
X-0148500Y0051000D03*
X-0149500Y0050000D03*
Y0051000D03*
X-0150500Y0050000D03*
Y0051000D03*
X-0151500Y0050000D03*
Y0051000D03*
X-0152500Y0050000D03*
X-0153500D03*
Y0051000D03*
X-0154500Y0050000D03*
Y0051000D03*
X-0155500Y0050000D03*
Y0051000D03*
X-0156500Y0050000D03*
Y0051000D03*
X-0157500Y0050000D03*
X-0158500D03*
Y0051000D03*
X-0159500Y0050000D03*
Y0051000D03*
X-0160500Y0050000D03*
Y0051000D03*
X-0161500Y0050000D03*
Y0051000D03*
X-0162500Y0050000D03*
X-0163500D03*
Y0051000D03*
X-0164500Y0050000D03*
Y0051000D03*
X-0165500Y0050000D03*
Y0051000D03*
X-0166500Y0050000D03*
Y0051000D03*
X-0167500Y0050000D03*
X-0168500D03*
Y0051000D03*
X-0169500Y0050000D03*
Y0051000D03*
X-0170500Y0050000D03*
Y0051000D03*
X-0135000Y0045000D03*
X-0134000D03*
X-0133000D03*
X-0132000D03*
X-0131000D03*
X-0130000D03*
X-0129000D03*
X-0128000D03*
X-0127000D03*
X-0126000D03*
X-0125000D03*
X-0124000D03*
X-0123000D03*
Y0051000D03*
X-0124000D03*
X-0125000D03*
X-0126000D03*
X-0127000D03*
X-0128000D03*
X-0129000D03*
X-0130000D03*
X-0131000D03*
X-0132000D03*
X-0133000D03*
X-0134000D03*
X-0135000D03*
X-0136000D03*
X-0125500Y0034500D03*
X-0124500Y0033500D03*
Y0034500D03*
X-0123500Y0033500D03*
Y0034500D03*
X-0122500Y0033500D03*
Y0034500D03*
X-0121500Y0033500D03*
X-0120500D03*
Y0034500D03*
X-0119500Y0033500D03*
Y0034500D03*
X-0118500Y0033500D03*
Y0034500D03*
X-0117500Y0033500D03*
Y0034500D03*
X-0116500Y0033500D03*
X-0115500D03*
Y0034500D03*
X-0114500Y0033500D03*
Y0034500D03*
X-0113500Y0033500D03*
Y0034500D03*
G54D16*
X-0148500Y0031000D03*
X-0152500Y0032000D03*
X-0157500D03*
X-0162500D03*
X-0167500D03*
X-0148500Y0050000D03*
X-0152500Y0051000D03*
X-0157500D03*
X-0162500D03*
X-0167500D03*
X-0136000Y0045000D03*
X-0125500Y0033500D03*
X-0121500Y0034500D03*
X-0116500D03*
G54D18*
X-0121500Y0039500D03*
X-0121000D03*
X-0120500D03*
X-0120000D03*
X-0119500D03*
X-0119000D03*
X-0118500D03*
X-0118000D03*
X-0117500D03*
X-0117000D03*
X-0116500D03*
Y0043120D03*
X-0117000D03*
X-0117500D03*
X-0118000D03*
X-0118500D03*
X-0119000D03*
X-0119500D03*
X-0120000D03*
X-0120500D03*
X-0121000D03*
X-0121500D03*
X-0122000D03*
G54D19*
Y0039500D03*
G54D20*
X-0146625Y0031500D03*
Y0050500D03*
X-0172375Y0049300D03*
Y0032700D03*
G54D40*
X-0081500Y0052000D03*
X-0088000Y0027000D03*
X-0176500D03*
Y0052000D03*
G54D41*
X-0070370Y0033654D03*
X-0075370D03*
X-0072870D03*
X-0070370Y0038153D03*
X-0072870D03*
X-0075370D03*
X-0173880Y0065096D03*
Y0060096D03*
Y0062596D03*
X-0178380Y0065096D03*
Y0062596D03*
Y0060096D03*
X-0166880Y0065096D03*
Y0060096D03*
Y0062596D03*
X-0171380Y0065096D03*
Y0062596D03*
Y0060096D03*
X-0150654Y0065130D03*
Y0060130D03*
Y0062630D03*
X-0155153Y0065130D03*
Y0062630D03*
Y0060130D03*
X-0157654Y0065130D03*
Y0060130D03*
Y0062630D03*
X-0162153Y0065130D03*
Y0062630D03*
Y0060130D03*
X-0134880Y0065096D03*
Y0060096D03*
Y0062596D03*
X-0139380Y0065096D03*
Y0062596D03*
Y0060096D03*
X-0141880Y0065096D03*
Y0060096D03*
Y0062596D03*
X-0146380Y0065096D03*
Y0062596D03*
Y0060096D03*
X-0118880Y0065096D03*
Y0060096D03*
Y0062596D03*
X-0123380Y0065096D03*
Y0062596D03*
Y0060096D03*
X-0125880Y0065096D03*
Y0060096D03*
Y0062596D03*
X-0130380Y0065096D03*
Y0062596D03*
Y0060096D03*
X-0102654Y0065130D03*
Y0060130D03*
Y0062630D03*
X-0107153Y0065130D03*
Y0062630D03*
Y0060130D03*
X-0109654Y0065130D03*
Y0060130D03*
Y0062630D03*
X-0114153Y0065130D03*
Y0062630D03*
Y0060130D03*
X-0086654Y0065130D03*
Y0060130D03*
Y0062630D03*
X-0091153Y0065130D03*
Y0062630D03*
Y0060130D03*
X-0093654Y0065130D03*
Y0060130D03*
Y0062630D03*
X-0098153Y0065130D03*
Y0062630D03*
Y0060130D03*
X-0070654Y0065130D03*
Y0060130D03*
Y0062630D03*
X-0075153Y0065130D03*
Y0062630D03*
Y0060130D03*
X-0077880Y0065096D03*
Y0060096D03*
Y0062596D03*
X-0082380Y0065096D03*
Y0062596D03*
Y0060096D03*
X-0070370Y0041154D03*
X-0075370D03*
X-0072870D03*
X-0070370Y0045653D03*
X-0072870D03*
X-0075370D03*
X-0070370Y0048654D03*
X-0075370D03*
X-0072870D03*
X-0070370Y0053153D03*
X-0072870D03*
X-0075370D03*
G54D42*
X-0071500Y0027500D03*
X-0073862D03*
X-0072681Y0029468D03*
G54D43*
X-0086500Y0032250D03*
X-0077000Y0032000D03*
Y0049000D03*
X-0089000Y0050000D03*
X-0136000Y0040250D03*
X-0154500Y0038250D03*
X-0069250Y0037000D03*
X-0073500Y0054250D03*
X-0169000Y0061750D03*
X-0176000D03*
X-0078500Y0035000D03*
X-0074000D03*
X-0148500Y0033750D03*
X-0104750Y0034000D03*
X-0122000Y0038500D03*
X-0089000Y0059250D03*
X-0105000D03*
X-0112000Y0060750D03*
X-0104500Y0060875D03*
X-0094750Y0063500D03*
X-0097500Y0034750D03*
X-0134500Y0031750D03*
X-0079500Y0062250D03*
X-0089000Y0062000D03*
X-0072250Y0061250D03*
X-0160000Y0061750D03*
X-0153000D03*
X-0121000Y0060750D03*
X-0128000D03*
X-0114500Y0041750D03*
X-0090000Y0043000D03*
X-0114500D03*
X-0099750Y0034000D03*
X-0134000Y0030250D03*
X-0075000Y0029750D03*
X-0150500Y0028750D03*
X-0134500Y0037500D03*
X-0124750Y0037750D03*
X-0122000Y0041750D03*
X-0156500Y0029750D03*
X-0147500D03*
X-0146000Y0037250D03*
X-0136750D03*
X-0100500Y0048000D03*
X-0096250Y0061500D03*
X-0071750Y0063250D03*
X-0136750Y0039500D03*
X-0124250Y0039750D03*
X-0121500Y0042250D03*
X-0087000Y0040250D03*
X-0137250Y0032750D03*
X-0104000Y0063500D03*
X-0152500Y0056000D03*
X-0103250Y0055000D03*
X-0099750Y0044250D03*
X-0080500Y0058250D03*
X-0096500Y0060750D03*
X-0107000Y0058500D03*
X-0089500D03*
X-0106000Y0064000D03*
X-0101000Y0042000D03*
X-0102000Y0061500D03*
X-0099000Y0045000D03*
X-0167750Y0055750D03*
X-0101500Y0054500D03*
X-0102500Y0033250D03*
X-0105250D03*
X-0084000Y0055000D03*
X-0133500Y0035750D03*
X-0174750Y0054750D03*
X-0102000Y0054000D03*
X-0135250Y0031750D03*
X-0131250D03*
X-0103500Y0063000D03*
X-0147500Y0059250D03*
X-0145750Y0044750D03*
X-0145000Y0061000D03*
X-0144000Y0046750D03*
X-0144500Y0044000D03*
X-0145750Y0053500D03*
X-0144000Y0061750D03*
X-0143500Y0060750D03*
X-0137000D03*
X-0171750Y0045000D03*
X-0126000Y0043000D03*
X-0129500Y0035750D03*
X-0128250Y0032750D03*
X-0091250Y0052250D03*
X-0085750Y0046000D03*
X-0090500D03*
X-0136500Y0036500D03*
X-0148250Y0052000D03*
X-0147750Y0045500D03*
X-0092500Y0045750D03*
X-0147500Y0042500D03*
X-0147750Y0033250D03*
X-0139250Y0047500D03*
X-0133000Y0035250D03*
X-0074750Y0051500D03*
X-0098000Y0053500D03*
X-0136750Y0055500D03*
X-0156500D03*
X-0170250Y0034500D03*
X-0132000Y0039000D03*
X-0087250Y0038500D03*
X-0157000Y0057250D03*
X-0102500Y0055000D03*
X-0110750Y0031000D03*
X-0111250Y0044000D03*
X-0075250Y0050000D03*
X-0168250Y0045750D03*
X-0090250Y0049000D03*
X-0108000Y0051500D03*
X-0129000Y0059250D03*
X-0137250Y0053000D03*
X-0121750Y0059250D03*
Y0046000D03*
X-0082750Y0039250D03*
X-0098750Y0046500D03*
X-0137750Y0052500D03*
X-0114000D03*
X-0132750Y0031750D03*
X-0118750Y0031500D03*
X-0113250Y0040250D03*
X-0112750Y0029500D03*
Y0039750D03*
X-0115750D03*
Y0040750D03*
X-0076250Y0047500D03*
X-0131000Y0048000D03*
X-0114000Y0040250D03*
X-0111250Y0030000D03*
X-0171250Y0046750D03*
X-0112500Y0036750D03*
X-0112250Y0030500D03*
X-0115250Y0043000D03*
Y0037750D03*
M02*
