*
G04 Mass Parameters ***
*
G04 Image ***
*
%INE:\ANALOGEFFECTS\HW\SCHEMATIC\NEW\DESIGN_II-2.FAB*%
%ICAS*%
%MOIN*%
%IPPOS*%
%ASAXBY*%
G74*%FSLAN2X34Y34*%
*
G04 Aperture Definitions ***
*
%ADD10C,0.2100*%
%ADD11C,0.0550*%
%ADD12R,0.0550X0.0550*%
%ADD13R,0.0500X0.0500*%
%ADD14C,0.0866*%
%ADD15C,0.0580*%
%ADD16R,0.0580X0.0580*%
%ADD17C,0.1496*%
%ADD18O,0.0250X0.1000*%
%ADD19R,0.0250X0.1000*%
%ADD20C,0.1299*%
%ADD21C,0.1300*%
%ADD22C,0.0500*%
%ADD23C,0.0500*%
%ADD24C,0.0200*%
%ADD25C,0.0500*%
%ADD26R,0.0840X0.0560*%
%ADD27R,0.0340X0.0400*%
%ADD28R,0.0340X0.0500*%
%ADD29O,0.1000X0.0250*%
%ADD30R,0.1000X0.0250*%
%ADD31R,0.4803X0.3838*%
%ADD32R,0.1378X0.0720*%
%ADD33C,0.2200*%
%ADD34C,0.0750*%
%ADD35R,0.0750X0.0750*%
%ADD36C,0.0780*%
%ADD37R,0.0780X0.0780*%
%ADD38C,0.1299*%
%ADD39C,0.0750*%
%ADD40C,0.2200*%
%ADD41C,0.0925*%
%ADD42C,0.1378*%
%ADD43C,0.0550*%
%ADD44C,0.0080*%
%ADD45C,0.0060*%
%ADD46C,0.0098*%
%ADD47C,0.0100*%
%ADD48C,0.0450*%
%ADD49C,0.0280*%
*
G04 Plot Data ***
*
G54D22*
G01X-0180000Y0067250D02*
X-0068250D01*
Y0024750D01*
X-0180000D01*
Y0067250D01*
G54D49*
X-0086500Y0032250D03*
X-0077000Y0032000D03*
Y0049000D03*
X-0089000Y0050000D03*
X-0136000Y0040250D03*
X-0154500Y0038250D03*
X-0069250Y0037000D03*
X-0073500Y0054250D03*
X-0169000Y0061750D03*
X-0176000D03*
X-0078500Y0035000D03*
X-0074000D03*
X-0148500Y0033750D03*
X-0104750Y0034000D03*
X-0122000Y0038500D03*
X-0089000Y0059250D03*
X-0105000D03*
X-0112000Y0060750D03*
X-0104500Y0060875D03*
X-0094750Y0063500D03*
X-0097500Y0034750D03*
X-0134500Y0031750D03*
X-0079500Y0062250D03*
X-0089000Y0062000D03*
X-0072250Y0061250D03*
X-0160000Y0061750D03*
X-0153000D03*
X-0121000Y0060750D03*
X-0128000D03*
X-0114500Y0041750D03*
X-0090000Y0043000D03*
X-0114500D03*
X-0099750Y0034000D03*
X-0134000Y0030250D03*
X-0075000Y0029750D03*
X-0150500Y0028750D03*
X-0134500Y0037500D03*
X-0124750Y0037750D03*
X-0122000Y0041750D03*
X-0156500Y0029750D03*
X-0147500D03*
X-0146000Y0037250D03*
X-0136750D03*
X-0100500Y0048000D03*
X-0096250Y0061500D03*
X-0071750Y0063250D03*
X-0136750Y0039500D03*
X-0124250Y0039750D03*
X-0121500Y0042250D03*
X-0087000Y0040250D03*
X-0137250Y0032750D03*
X-0104000Y0063500D03*
X-0152500Y0056000D03*
X-0103250Y0055000D03*
X-0099750Y0044250D03*
X-0080500Y0058250D03*
X-0096500Y0060750D03*
X-0107000Y0058500D03*
X-0089500D03*
X-0106000Y0064000D03*
X-0101000Y0042000D03*
X-0102000Y0061500D03*
X-0099000Y0045000D03*
X-0167750Y0055750D03*
X-0101500Y0054500D03*
X-0102500Y0033250D03*
X-0105250D03*
X-0084000Y0055000D03*
X-0133500Y0035750D03*
X-0174750Y0054750D03*
X-0102000Y0054000D03*
X-0135250Y0031750D03*
X-0131250D03*
X-0103500Y0063000D03*
X-0147500Y0059250D03*
X-0145750Y0044750D03*
X-0145000Y0061000D03*
X-0144000Y0046750D03*
X-0144500Y0044000D03*
X-0145750Y0053500D03*
X-0144000Y0061750D03*
X-0143500Y0060750D03*
X-0137000D03*
X-0171750Y0045000D03*
X-0126000Y0043000D03*
X-0129500Y0035750D03*
X-0128250Y0032750D03*
X-0091250Y0052250D03*
X-0085750Y0046000D03*
X-0090500D03*
X-0136500Y0036500D03*
X-0148250Y0052000D03*
X-0147750Y0045500D03*
X-0092500Y0045750D03*
X-0147500Y0042500D03*
X-0147750Y0033250D03*
X-0139250Y0047500D03*
X-0133000Y0035250D03*
X-0074750Y0051500D03*
X-0098000Y0053500D03*
X-0136750Y0055500D03*
X-0156500D03*
X-0170250Y0034500D03*
X-0132000Y0039000D03*
X-0087250Y0038500D03*
X-0157000Y0057250D03*
X-0102500Y0055000D03*
X-0110750Y0031000D03*
X-0111250Y0044000D03*
X-0075250Y0050000D03*
X-0168250Y0045750D03*
X-0090250Y0049000D03*
X-0108000Y0051500D03*
X-0129000Y0059250D03*
X-0137250Y0053000D03*
X-0121750Y0059250D03*
Y0046000D03*
X-0082750Y0039250D03*
X-0098750Y0046500D03*
X-0137750Y0052500D03*
X-0114000D03*
X-0132750Y0031750D03*
X-0118750Y0031500D03*
X-0113250Y0040250D03*
X-0112750Y0029500D03*
Y0039750D03*
X-0115750D03*
Y0040750D03*
X-0076250Y0047500D03*
X-0131000Y0048000D03*
X-0114000Y0040250D03*
X-0111250Y0030000D03*
X-0171250Y0046750D03*
X-0112500Y0036750D03*
X-0112250Y0030500D03*
X-0115250Y0043000D03*
Y0037750D03*
M02*
