*
G04 Mass Parameters ***
*
G04 Image ***
*
%INE:\ANALOGEFFECTS\HW\SCHEMATIC\NEW\DESIGN_II-2.SSB*%
%ICAS*%
%MOIN*%
%IPPOS*%
%ASAXBY*%
G74*%FSLAN2X34Y34*%
*
G04 Aperture Definitions ***
*
%ADD10C,0.2100*%
%ADD11C,0.0550*%
%ADD12R,0.0550X0.0550*%
%ADD13R,0.0500X0.0500*%
%ADD14C,0.0866*%
%ADD15C,0.0580*%
%ADD16R,0.0580X0.0580*%
%ADD17C,0.1496*%
%ADD18O,0.0250X0.1000*%
%ADD19R,0.0250X0.1000*%
%ADD20C,0.1299*%
%ADD21C,0.1300*%
%ADD22C,0.0500*%
%ADD23C,0.0500*%
%ADD24C,0.0200*%
%ADD25C,0.0500*%
%ADD26R,0.0840X0.0560*%
%ADD27R,0.0340X0.0400*%
%ADD28R,0.0340X0.0500*%
%ADD29O,0.1000X0.0250*%
%ADD30R,0.1000X0.0250*%
%ADD31R,0.4803X0.3838*%
%ADD32R,0.1378X0.0720*%
%ADD33C,0.2200*%
%ADD34C,0.0750*%
%ADD35R,0.0750X0.0750*%
%ADD36C,0.0780*%
%ADD37R,0.0780X0.0780*%
%ADD38C,0.1299*%
%ADD39C,0.0750*%
%ADD40C,0.2200*%
%ADD41C,0.0925*%
%ADD42C,0.1378*%
%ADD43C,0.0550*%
%ADD44C,0.0080*%
%ADD45C,0.0060*%
%ADD46C,0.0098*%
%ADD47C,0.0100*%
%ADD48C,0.0450*%
*
G04 Plot Data ***
*
G54D44*
G01X-0096764Y0034763D02*
X-0096820Y0034708D01*
X-0096931D01*
X-0096986Y0034763D01*
Y0034819D01*
X-0096875Y0034930D01*
X-0096986Y0035041D01*
X-0096764D01*
X-0096576D02*
Y0034763D01*
X-0096549Y0034708D01*
X-0096382D01*
X-0096354Y0034763D01*
Y0035041D01*
X-0135319Y0039513D02*
Y0039736D01*
X-0135541Y0039625D01*
Y0039569D01*
X-0135208D01*
X-0135541Y0039923D02*
X-0135263D01*
X-0135208Y0039951D01*
Y0040118D01*
X-0135263Y0040146D01*
X-0135541D01*
X-0098125Y0034435D02*
X-0104375D01*
Y0032185D01*
X-0098125D01*
Y0034435D01*
X-0098375D02*
Y0032185D01*
X-0134935Y0038375D02*
Y0032125D01*
X-0132685D01*
Y0038375D01*
X-0134935D01*
Y0038125D02*
X-0132685D01*
G54D45*
G01X-0090751Y0044651D02*
Y0044818D01*
X-0090806Y0044845D01*
X-0090862D01*
X-0090917Y0044818D01*
Y0044651D01*
X-0090862Y0044623D01*
X-0090806D01*
X-0090584Y0044734D01*
X-0090751Y0044392D02*
X-0090917Y0044475D01*
X-0090751Y0044253D02*
Y0044420D01*
X-0090695Y0044475D01*
X-0090639D01*
X-0090584Y0044420D01*
Y0044253D01*
X-0090917D01*
X-0071284Y0042917D02*
X-0071507D01*
X-0071284Y0042695D01*
Y0042639D01*
X-0071312Y0042584D01*
X-0071479D01*
X-0071507Y0042639D01*
X-0071654Y0042917D02*
X-0071877D01*
X-0071654Y0042695D01*
Y0042639D01*
X-0071682Y0042584D01*
X-0071849D01*
X-0071877Y0042639D01*
X-0072108Y0042751D02*
X-0072024Y0042917D01*
X-0072247Y0042751D02*
X-0072080D01*
X-0072024Y0042695D01*
Y0042639D01*
X-0072080Y0042584D01*
X-0072247D01*
Y0042917D01*
X-0136417Y0063493D02*
X-0136084Y0063660D01*
Y0063437D01*
X-0136417Y0063290D02*
Y0063179D01*
Y0063234D02*
X-0136084D01*
X-0136139Y0063179D01*
X-0136251Y0062892D02*
X-0136417Y0062975D01*
X-0136251Y0062753D02*
Y0062920D01*
X-0136195Y0062975D01*
X-0136139D01*
X-0136084Y0062920D01*
Y0062753D01*
X-0136417D01*
X-0072251Y0063318D02*
Y0063151D01*
X-0072195Y0063123D01*
X-0072139D01*
X-0072084Y0063151D01*
Y0063318D01*
X-0072139Y0063345D01*
X-0072195D01*
X-0072417Y0063234D01*
X-0072251Y0062892D02*
X-0072417Y0062975D01*
X-0072251Y0062753D02*
Y0062920D01*
X-0072195Y0062975D01*
X-0072139D01*
X-0072084Y0062920D01*
Y0062753D01*
X-0072417D01*
X-0086000Y0048253D02*
X-0085889D01*
X-0085944D02*
Y0048586D01*
X-0085889Y0048530D01*
X-0085574Y0048364D02*
X-0085685Y0048253D01*
X-0085463Y0048308D02*
X-0085491Y0048253D01*
X-0085602D01*
X-0085630Y0048308D01*
X-0085685Y0048364D01*
Y0048530D01*
X-0085658Y0048586D01*
X-0085491D01*
X-0085463Y0048530D01*
Y0048308D01*
X-0090417Y0032290D02*
Y0032179D01*
Y0032234D02*
X-0090084D01*
X-0090139Y0032179D01*
X-0090251Y0031892D02*
X-0090417Y0031975D01*
X-0090251Y0031753D02*
Y0031920D01*
X-0090195Y0031975D01*
X-0090139D01*
X-0090084Y0031920D01*
Y0031753D01*
X-0090417D01*
X-0089821Y0043917D02*
X-0089654Y0043584D01*
X-0089877D01*
X-0090108Y0043751D02*
X-0090024Y0043917D01*
X-0090247Y0043751D02*
X-0090080D01*
X-0090024Y0043695D01*
Y0043639D01*
X-0090080Y0043584D01*
X-0090247D01*
Y0043917D01*
X-0111417Y0063660D02*
Y0063437D01*
X-0111195Y0063660D01*
X-0111139D01*
X-0111084Y0063632D01*
Y0063465D01*
X-0111139Y0063437D01*
X-0111417Y0063290D02*
Y0063179D01*
Y0063234D02*
X-0111084D01*
X-0111139Y0063179D01*
X-0111251Y0062892D02*
X-0111417Y0062975D01*
X-0111251Y0062753D02*
Y0062920D01*
X-0111195Y0062975D01*
X-0111139D01*
X-0111084Y0062920D01*
Y0062753D01*
X-0111417D01*
X-0129179Y0048583D02*
X-0129345Y0048916D01*
X-0129123D01*
X-0128975Y0048638D02*
X-0128948Y0048583D01*
X-0128781D01*
X-0128753Y0048638D01*
Y0048860D01*
X-0128781Y0048916D01*
X-0128948D01*
X-0128975Y0048860D01*
X-0159251Y0063632D02*
X-0159195Y0063660D01*
X-0159139D01*
X-0159084Y0063632D01*
Y0063465D01*
X-0159139Y0063437D01*
X-0159195D01*
X-0159251Y0063465D01*
Y0063632D01*
X-0159306Y0063660D01*
X-0159362D01*
X-0159417Y0063632D01*
Y0063465D01*
X-0159362Y0063437D01*
X-0159306D01*
X-0159251Y0063465D01*
X-0159417Y0063290D02*
Y0063179D01*
Y0063234D02*
X-0159084D01*
X-0159139Y0063179D01*
X-0159251Y0062892D02*
X-0159417Y0062975D01*
X-0159251Y0062753D02*
Y0062920D01*
X-0159195Y0062975D01*
X-0159139D01*
X-0159084Y0062920D01*
Y0062753D01*
X-0159417D01*
X-0089555Y0047864D02*
X-0089333D01*
X-0089444Y0048086D01*
X-0089500D01*
Y0047753D01*
X-0089074Y0047864D02*
X-0089185Y0047753D01*
X-0088963Y0047808D02*
X-0088991Y0047753D01*
X-0089102D01*
X-0089130Y0047808D01*
X-0089185Y0047864D01*
Y0048030D01*
X-0089158Y0048086D01*
X-0088991D01*
X-0088963Y0048030D01*
Y0047808D01*
X-0155806Y0034715D02*
Y0034493D01*
X-0155584Y0034604D01*
Y0034660D01*
X-0155917D01*
Y0034345D02*
Y0034123D01*
X-0155695Y0034345D01*
X-0155639D01*
X-0155584Y0034318D01*
Y0034151D01*
X-0155639Y0034123D01*
X-0155751Y0033892D02*
X-0155917Y0033975D01*
X-0155751Y0033753D02*
Y0033920D01*
X-0155695Y0033975D01*
X-0155639D01*
X-0155584Y0033920D01*
Y0033753D01*
X-0155917D01*
X-0090167Y0035280D02*
Y0035169D01*
Y0035224D02*
X-0089834D01*
X-0089890Y0035169D01*
X-0090167Y0034771D02*
X-0089834D01*
X-0090167Y0034743D02*
Y0034910D01*
X-0090056Y0034965D01*
X-0089945D01*
X-0089834Y0034910D01*
Y0034743D01*
X-0095417Y0063521D02*
X-0095362Y0063465D01*
X-0095306Y0063437D01*
X-0095195D01*
X-0095139Y0063465D01*
X-0095084Y0063521D01*
Y0063576D01*
X-0095139Y0063632D01*
X-0095195Y0063660D01*
X-0095306D01*
X-0095362Y0063632D01*
X-0095417Y0063576D01*
Y0063521D01*
Y0063290D02*
Y0063179D01*
Y0063234D02*
X-0095084D01*
X-0095139Y0063179D01*
X-0095251Y0062892D02*
X-0095417Y0062975D01*
X-0095251Y0062753D02*
Y0062920D01*
X-0095195Y0062975D01*
X-0095139D01*
X-0095084Y0062920D01*
Y0062753D01*
X-0095417D01*
X-0152251Y0063632D02*
Y0063465D01*
X-0152195Y0063437D01*
X-0152139D01*
X-0152084Y0063465D01*
Y0063632D01*
X-0152139Y0063660D01*
X-0152195D01*
X-0152417Y0063549D01*
Y0063290D02*
Y0063179D01*
Y0063234D02*
X-0152084D01*
X-0152139Y0063179D01*
X-0152251Y0062892D02*
X-0152417Y0062975D01*
X-0152251Y0062753D02*
Y0062920D01*
X-0152195Y0062975D01*
X-0152139D01*
X-0152084Y0062920D01*
Y0062753D01*
X-0152417D01*
X-0104362Y0063437D02*
X-0104417Y0063493D01*
Y0063604D01*
X-0104362Y0063660D01*
X-0104306D01*
X-0104195Y0063549D01*
X-0104084Y0063660D01*
Y0063437D01*
X-0104417Y0063290D02*
Y0063179D01*
Y0063234D02*
X-0104084D01*
X-0104139Y0063179D01*
X-0104251Y0062892D02*
X-0104417Y0062975D01*
X-0104251Y0062753D02*
Y0062920D01*
X-0104195Y0062975D01*
X-0104139D01*
X-0104084Y0062920D01*
Y0062753D01*
X-0104417D01*
X-0091833Y0047808D02*
X-0091889Y0047753D01*
X-0092000D01*
X-0092055Y0047808D01*
Y0047864D01*
X-0091944Y0047975D01*
X-0092055Y0048086D01*
X-0091833D01*
X-0091574Y0047864D02*
X-0091685Y0047753D01*
X-0091463Y0047808D02*
X-0091491Y0047753D01*
X-0091602D01*
X-0091630Y0047808D01*
X-0091685Y0047864D01*
Y0048030D01*
X-0091658Y0048086D01*
X-0091491D01*
X-0091463Y0048030D01*
Y0047808D01*
X-0134005Y0031694D02*
X-0133783D01*
X-0133894Y0031916D01*
X-0133950D01*
Y0031583D01*
X-0133635Y0031638D02*
X-0133608Y0031583D01*
X-0133441D01*
X-0133413Y0031638D01*
Y0031860D01*
X-0133441Y0031916D01*
X-0133608D01*
X-0133635Y0031860D01*
X-0168417Y0063576D02*
X-0168362Y0063521D01*
X-0168306Y0063493D01*
X-0168195D01*
X-0168139Y0063521D01*
X-0168084Y0063576D01*
Y0063632D01*
X-0168139Y0063688D01*
X-0168195Y0063715D01*
X-0168306D01*
X-0168362Y0063688D01*
X-0168417Y0063632D01*
Y0063576D01*
Y0063345D02*
Y0063123D01*
X-0168195Y0063345D01*
X-0168139D01*
X-0168084Y0063318D01*
Y0063151D01*
X-0168139Y0063123D01*
X-0168251Y0062892D02*
X-0168417Y0062975D01*
X-0168251Y0062753D02*
Y0062920D01*
X-0168195Y0062975D01*
X-0168139D01*
X-0168084Y0062920D01*
Y0062753D01*
X-0168417D01*
X-0077682Y0026251D02*
X-0077849D01*
X-0077877Y0026195D01*
Y0026139D01*
X-0077849Y0026084D01*
X-0077682D01*
X-0077654Y0026139D01*
Y0026195D01*
X-0077766Y0026417D01*
X-0078024Y0026362D02*
X-0078052Y0026417D01*
X-0078219D01*
X-0078247Y0026362D01*
Y0026139D01*
X-0078219Y0026084D01*
X-0078052D01*
X-0078024Y0026139D01*
X-0088417Y0063604D02*
Y0063493D01*
Y0063549D02*
X-0088084D01*
X-0088139Y0063493D01*
X-0088417Y0063290D02*
Y0063179D01*
Y0063234D02*
X-0088084D01*
X-0088139Y0063179D01*
X-0088251Y0062892D02*
X-0088417Y0062975D01*
X-0088251Y0062753D02*
Y0062920D01*
X-0088195Y0062975D01*
X-0088139D01*
X-0088084Y0062920D01*
Y0062753D01*
X-0088417D01*
X-0077522Y0032251D02*
X-0077494Y0032195D01*
Y0032139D01*
X-0077522Y0032084D01*
X-0077689D01*
X-0077717Y0032139D01*
Y0032195D01*
X-0077689Y0032251D01*
X-0077522D01*
X-0077494Y0032306D01*
Y0032362D01*
X-0077522Y0032417D01*
X-0077689D01*
X-0077717Y0032362D01*
Y0032306D01*
X-0077689Y0032251D01*
X-0077864Y0032362D02*
X-0077892Y0032417D01*
X-0078059D01*
X-0078087Y0032362D01*
Y0032139D01*
X-0078059Y0032084D01*
X-0077892D01*
X-0077864Y0032139D01*
X-0127306Y0063660D02*
Y0063437D01*
X-0127084Y0063549D01*
Y0063604D01*
X-0127417D01*
Y0063290D02*
Y0063179D01*
Y0063234D02*
X-0127084D01*
X-0127139Y0063179D01*
X-0127251Y0062892D02*
X-0127417Y0062975D01*
X-0127251Y0062753D02*
Y0062920D01*
X-0127195Y0062975D01*
X-0127139D01*
X-0127084Y0062920D01*
Y0062753D01*
X-0127417D01*
X-0175417Y0063660D02*
Y0063549D01*
Y0063604D02*
X-0175084D01*
X-0175139Y0063549D01*
X-0175417Y0063345D02*
Y0063123D01*
X-0175195Y0063345D01*
X-0175139D01*
X-0175084Y0063318D01*
Y0063151D01*
X-0175139Y0063123D01*
X-0175251Y0062892D02*
X-0175417Y0062975D01*
X-0175251Y0062753D02*
Y0062920D01*
X-0175195Y0062975D01*
X-0175139D01*
X-0175084Y0062920D01*
Y0062753D01*
X-0175417D01*
X-0120362Y0063437D02*
X-0120417Y0063465D01*
Y0063632D01*
X-0120362Y0063660D01*
X-0120251D01*
X-0120195Y0063604D01*
Y0063437D01*
X-0120084D01*
Y0063660D01*
X-0120417Y0063290D02*
Y0063179D01*
Y0063234D02*
X-0120084D01*
X-0120139Y0063179D01*
X-0120251Y0062892D02*
X-0120417Y0062975D01*
X-0120251Y0062753D02*
Y0062920D01*
X-0120195Y0062975D01*
X-0120139D01*
X-0120084Y0062920D01*
Y0062753D01*
X-0120417D01*
X-0079251Y0063318D02*
X-0079195Y0063345D01*
X-0079139D01*
X-0079084Y0063318D01*
Y0063151D01*
X-0079139Y0063123D01*
X-0079195D01*
X-0079251Y0063151D01*
Y0063318D01*
X-0079306Y0063345D01*
X-0079362D01*
X-0079417Y0063318D01*
Y0063151D01*
X-0079362Y0063123D01*
X-0079306D01*
X-0079251Y0063151D01*
Y0062892D02*
X-0079417Y0062975D01*
X-0079251Y0062753D02*
Y0062920D01*
X-0079195Y0062975D01*
X-0079139D01*
X-0079084Y0062920D01*
Y0062753D01*
X-0079417D01*
X-0086377Y0043362D02*
X-0086349Y0043417D01*
X-0086182D01*
X-0086154Y0043362D01*
Y0043251D01*
X-0086210Y0043195D01*
X-0086377D01*
Y0043084D01*
X-0086154D01*
X-0086608Y0043251D02*
X-0086524Y0043417D01*
X-0086747Y0043251D02*
X-0086580D01*
X-0086524Y0043195D01*
Y0043139D01*
X-0086580Y0043084D01*
X-0086747D01*
Y0043417D01*
X-0157138Y0028507D02*
X-0157083Y0028479D01*
Y0028312D01*
X-0157138Y0028284D01*
X-0157249D01*
X-0157305Y0028340D01*
Y0028507D01*
X-0157416D01*
Y0028284D01*
X-0157083Y0028654D02*
Y0028877D01*
X-0157305Y0028654D01*
X-0157360D01*
X-0157416Y0028682D01*
Y0028849D01*
X-0157360Y0028877D01*
X-0157249Y0029108D02*
X-0157083Y0029024D01*
X-0157249Y0029247D02*
Y0029080D01*
X-0157305Y0029024D01*
X-0157360D01*
X-0157416Y0029080D01*
Y0029247D01*
X-0157083D01*
X-0098138Y0033877D02*
X-0098083Y0033821D01*
Y0033710D01*
X-0098138Y0033654D01*
X-0098194D01*
X-0098305Y0033766D01*
X-0098416Y0033654D01*
Y0033877D01*
X-0098138Y0034024D02*
X-0098083Y0034052D01*
Y0034219D01*
X-0098138Y0034247D01*
X-0098360D01*
X-0098416Y0034219D01*
Y0034052D01*
X-0098360Y0034024D01*
X-0087845Y0049694D02*
X-0087623D01*
X-0087734Y0049916D01*
X-0087790D01*
Y0049583D01*
X-0087392Y0049749D02*
X-0087475Y0049583D01*
X-0087253Y0049749D02*
X-0087420D01*
X-0087475Y0049805D01*
Y0049860D01*
X-0087420Y0049916D01*
X-0087253D01*
Y0049583D01*
X-0143251Y0063465D02*
Y0063632D01*
X-0143306Y0063660D01*
X-0143362D01*
X-0143417Y0063632D01*
Y0063465D01*
X-0143362Y0063437D01*
X-0143306D01*
X-0143084Y0063549D01*
X-0143417Y0063290D02*
Y0063179D01*
Y0063234D02*
X-0143084D01*
X-0143139Y0063179D01*
X-0143251Y0062892D02*
X-0143417Y0062975D01*
X-0143251Y0062753D02*
Y0062920D01*
X-0143195Y0062975D01*
X-0143139D01*
X-0143084Y0062920D01*
Y0062753D01*
X-0143417D01*
X-0071507Y0050362D02*
X-0071451Y0050417D01*
X-0071340D01*
X-0071284Y0050362D01*
Y0050306D01*
X-0071396Y0050195D01*
X-0071284Y0050084D01*
X-0071507D01*
X-0071654Y0050417D02*
X-0071877D01*
X-0071654Y0050195D01*
Y0050139D01*
X-0071682Y0050084D01*
X-0071849D01*
X-0071877Y0050139D01*
X-0072108Y0050251D02*
X-0072024Y0050417D01*
X-0072247Y0050251D02*
X-0072080D01*
X-0072024Y0050195D01*
Y0050139D01*
X-0072080Y0050084D01*
X-0072247D01*
Y0050417D01*
X-0086055Y0051253D02*
X-0085833D01*
X-0086055Y0051475D01*
Y0051530D01*
X-0086028Y0051586D01*
X-0085861D01*
X-0085833Y0051530D01*
X-0085574Y0051364D02*
X-0085685Y0051253D01*
X-0085463Y0051308D02*
X-0085491Y0051253D01*
X-0085602D01*
X-0085630Y0051308D01*
X-0085685Y0051364D01*
Y0051530D01*
X-0085658Y0051586D01*
X-0085491D01*
X-0085463Y0051530D01*
Y0051308D01*
X-0070780Y0043875D02*
Y0043125D01*
X-0072380D01*
Y0043875D01*
X-0070780D01*
X-0137375Y0064220D02*
X-0136625D01*
Y0062620D01*
X-0137375D01*
Y0064220D01*
X-0073375D02*
X-0072625D01*
Y0062620D01*
X-0073375D01*
Y0064220D01*
X-0085790Y0047700D02*
X-0085530D01*
Y0047400D01*
X-0085480D01*
X-0086730D02*
Y0047700D01*
X-0086470D01*
X-0091375Y0033220D02*
X-0090625D01*
Y0031620D01*
X-0091375D01*
Y0033220D01*
X-0088780Y0044875D02*
Y0044125D01*
X-0090380D01*
Y0044875D01*
X-0088780D01*
X-0112375Y0064220D02*
X-0111625D01*
Y0062620D01*
X-0112375D01*
Y0064220D01*
X-0130220Y0047625D02*
Y0048375D01*
X-0128620D01*
Y0047625D01*
X-0130220D01*
X-0160375Y0064220D02*
X-0159625D01*
Y0062620D01*
X-0160375D01*
Y0064220D01*
X-0089290Y0047200D02*
X-0089030D01*
Y0046900D01*
X-0088980D01*
X-0090230D02*
Y0047200D01*
X-0089970D01*
X-0156875Y0035220D02*
X-0156125D01*
Y0033620D01*
X-0156875D01*
Y0035220D01*
X-0091575Y0036840D02*
X-0091600D01*
X-0090425D01*
Y0034480D01*
X-0090930D01*
X-0091000Y0034410D01*
X-0091070Y0034480D01*
X-0091600D01*
X-0091575D01*
X-0091600Y0034485D02*
Y0036835D01*
X-0096375Y0064220D02*
X-0095625D01*
Y0062620D01*
X-0096375D01*
Y0064220D01*
X-0153375D02*
X-0152625D01*
Y0062620D01*
X-0153375D01*
Y0064220D01*
X-0105375D02*
X-0104625D01*
Y0062620D01*
X-0105375D01*
Y0064220D01*
X-0091790Y0047200D02*
X-0091530D01*
Y0046900D01*
X-0091480D01*
X-0092730D02*
Y0047200D01*
X-0092470D01*
X-0134880Y0030625D02*
Y0031375D01*
X-0133280D01*
Y0030625D01*
X-0134880D01*
X-0169375Y0064220D02*
X-0168625D01*
Y0062620D01*
X-0169375D01*
Y0064220D01*
X-0076780Y0027375D02*
Y0026625D01*
X-0078380D01*
Y0027375D01*
X-0076780D01*
X-0089375Y0064220D02*
X-0088625D01*
Y0062620D01*
X-0089375D01*
Y0064220D01*
X-0076620Y0033375D02*
Y0032625D01*
X-0078220D01*
Y0033375D01*
X-0076620D01*
X-0128375Y0064220D02*
X-0127625D01*
Y0062620D01*
X-0128375D01*
Y0064220D01*
X-0176375D02*
X-0175625D01*
Y0062620D01*
X-0176375D01*
Y0064220D01*
X-0121375D02*
X-0120625D01*
Y0062620D01*
X-0121375D01*
Y0064220D01*
X-0080375D02*
X-0079625D01*
Y0062620D01*
X-0080375D01*
Y0064220D01*
X-0085280Y0044375D02*
Y0043625D01*
X-0086880D01*
Y0044375D01*
X-0085280D01*
X-0156125Y0027780D02*
X-0156875D01*
Y0029380D01*
X-0156125D01*
Y0027780D01*
X-0097125Y0032780D02*
X-0097875D01*
Y0034380D01*
X-0097125D01*
Y0032780D01*
X-0088720Y0048625D02*
Y0049375D01*
X-0087120D01*
Y0048625D01*
X-0088720D01*
X-0144375Y0064220D02*
X-0143625D01*
Y0062620D01*
X-0144375D01*
Y0064220D01*
X-0070780Y0051375D02*
Y0050625D01*
X-0072380D01*
Y0051375D01*
X-0070780D01*
X-0085790Y0050700D02*
X-0085530D01*
Y0050400D01*
X-0085480D01*
X-0086730D02*
Y0050700D01*
X-0086470D01*
X-0091875Y0045720D02*
X-0091125D01*
Y0044120D01*
X-0091875D01*
Y0045720D01*
G54D47*
G01X-0174637Y0025458D02*
X-0174471D01*
X-0174554D02*
Y0025958D01*
X-0174637D02*
X-0174471D01*
X-0174146Y0025458D02*
X-0173979D01*
X-0174062D02*
Y0025958D01*
X-0174146D02*
X-0173979D01*
X-0172892Y0025458D02*
Y0025708D01*
X-0172850Y0025792D01*
X-0172600D01*
Y0025458D01*
X-0172150Y0025292D02*
X-0172317D01*
X-0172358Y0025375D01*
Y0025792D01*
X-0172108D01*
X-0172067Y0025708D01*
Y0025542D01*
X-0172108Y0025458D01*
X-0172358D01*
X-0171741Y0025958D02*
Y0025959D01*
X-0171742D01*
Y0025958D01*
X-0171741D01*
X-0171825Y0025458D02*
X-0171658D01*
X-0171742D02*
Y0025792D01*
X-0171658D01*
X-0171333D02*
X-0171083D01*
X-0171042Y0025708D01*
X-0171083Y0025625D01*
X-0171333D01*
X-0171375Y0025542D01*
X-0171333Y0025458D01*
X-0171083D01*
X-0170758D02*
X-0170508D01*
X-0170467Y0025542D01*
Y0025708D01*
X-0170508Y0025792D01*
X-0170758D01*
X-0170800Y0025708D01*
Y0025625D01*
X-0170467D01*
X-0169933Y0025458D02*
Y0025958D01*
X-0169892Y0025458D02*
X-0170142D01*
X-0170225Y0025625D01*
Y0025792D01*
X-0170142Y0025958D01*
X-0169892D01*
X-0168887Y0025792D02*
X-0168721D01*
X-0168679Y0025708D01*
X-0168596D01*
Y0025792D02*
Y0025458D01*
X-0168062D02*
X-0168021Y0025542D01*
Y0025708D01*
X-0168062Y0025792D01*
X-0168312D01*
X-0168354Y0025708D01*
Y0025542D01*
X-0168312Y0025458D01*
X-0168062D01*
X-0167695Y0025958D02*
Y0025959D01*
X-0167696D01*
Y0025958D01*
X-0167695D01*
X-0167779Y0025458D02*
X-0167612D01*
X-0167696D02*
Y0025792D01*
X-0167612D01*
X-0167329Y0025458D02*
Y0025708D01*
X-0167287Y0025792D01*
X-0167037D01*
Y0025458D01*
X-0166754D02*
X-0166504D01*
X-0166462Y0025542D01*
Y0025708D01*
X-0166504Y0025792D01*
X-0166754D01*
X-0166796Y0025708D01*
Y0025625D01*
X-0166462D01*
X-0166221Y0025875D02*
X-0166179Y0025958D01*
X-0165929D01*
X-0165887Y0025875D01*
Y0025792D01*
X-0165929Y0025708D01*
X-0166179D01*
X-0166221Y0025625D01*
Y0025542D01*
X-0166179Y0025458D01*
X-0165929D01*
X-0165887Y0025542D01*
X-0164800Y0025458D02*
X-0164883Y0025625D01*
Y0025792D01*
X-0164800Y0025958D01*
X-0164392Y0025708D02*
X-0164142D01*
X-0164475Y0025458D02*
X-0164142D01*
Y0025958D01*
X-0164475D01*
X-0163567Y0025708D02*
X-0163817D01*
X-0163900Y0025792D01*
Y0025875D01*
X-0163817Y0025958D01*
X-0163567D01*
Y0025458D01*
X-0163325Y0025542D02*
X-0163283Y0025458D01*
X-0163033D01*
X-0162992Y0025542D01*
Y0025875D01*
X-0163033Y0025958D01*
X-0163283D01*
X-0163325Y0025875D01*
X-0162750Y0025458D02*
X-0162667Y0025625D01*
Y0025792D01*
X-0162750Y0025958D01*
X-0161496Y0025458D02*
X-0161162D01*
X-0161496Y0025792D01*
Y0025875D01*
X-0161454Y0025958D01*
X-0161204D01*
X-0161162Y0025875D01*
X-0160921Y0025625D02*
X-0160587D01*
X-0160754Y0025958D01*
X-0160837D01*
Y0025458D01*
X-0160012Y0025542D02*
X-0160054Y0025458D01*
X-0160304D01*
X-0160346Y0025542D01*
Y0025708D01*
X-0160262Y0025792D01*
X-0160012D01*
Y0025958D01*
X-0160346D01*
X-0159771Y0025625D02*
X-0159437D01*
X-0159604Y0025958D01*
X-0159687D01*
Y0025458D01*
X-0158350Y0025708D02*
X-0158100D01*
X-0158433Y0025458D02*
X-0158100D01*
Y0025958D01*
X-0158433D01*
X-0157858Y0025542D02*
X-0157817Y0025458D01*
X-0157567D01*
X-0157525Y0025542D01*
Y0025875D01*
X-0157567Y0025958D01*
X-0157817D01*
X-0157858Y0025875D01*
X-0157200Y0025708D02*
X-0156950D01*
X-0157283Y0025458D02*
X-0156950D01*
Y0025958D01*
X-0157283D01*
X-0155946D02*
X-0155696Y0025458D01*
X-0154567D02*
X-0154650Y0025625D01*
Y0025792D01*
X-0154567Y0025958D01*
X-0154158Y0025708D02*
X-0153908D01*
X-0154242Y0025458D02*
X-0153908D01*
Y0025958D01*
X-0154242D01*
X-0153583Y0025708D02*
X-0153333D01*
X-0153667Y0025458D02*
X-0153333D01*
Y0025958D01*
X-0153667D01*
X-0153092Y0025458D02*
X-0153008Y0025625D01*
Y0025792D01*
X-0153092Y0025958D01*
X-0151837Y0025458D02*
X-0151504D01*
X-0151837Y0025792D01*
Y0025875D01*
X-0151796Y0025958D01*
X-0151546D01*
X-0151504Y0025875D01*
X-0151262Y0025458D02*
X-0150929D01*
X-0151262Y0025792D01*
Y0025875D01*
X-0151221Y0025958D01*
X-0150971D01*
X-0150929Y0025875D01*
X-0150354Y0025542D02*
X-0150396Y0025458D01*
X-0150646D01*
X-0150687Y0025542D01*
Y0025708D01*
X-0150604Y0025792D01*
X-0150354D01*
Y0025958D01*
X-0150687D01*
X-0150112Y0025625D02*
X-0149779D01*
X-0149946Y0025958D01*
X-0150029D01*
Y0025458D01*
X-0148692Y0025708D02*
X-0148442D01*
X-0148775Y0025458D02*
X-0148442D01*
Y0025958D01*
X-0148775D01*
X-0148200Y0025542D02*
X-0148158Y0025458D01*
X-0147908D01*
X-0147867Y0025542D01*
Y0025875D01*
X-0147908Y0025958D01*
X-0148158D01*
X-0148200Y0025875D01*
X-0147542Y0025708D02*
X-0147292D01*
X-0147625Y0025458D02*
X-0147292D01*
Y0025958D01*
X-0147625D01*
X-0140725Y0025542D02*
X-0140892D01*
X-0140933Y0025625D01*
Y0026042D01*
X-0140683D01*
X-0140642Y0025958D01*
Y0025792D01*
X-0140683Y0025708D01*
X-0140933D01*
X-0140400D02*
Y0025958D01*
X-0140358Y0026042D01*
X-0140108D01*
Y0025708D01*
X-0139783Y0026208D02*
Y0026209D01*
X-0139784D01*
Y0026208D01*
X-0139783D01*
X-0139867Y0025708D02*
X-0139700D01*
X-0139783D02*
Y0026042D01*
X-0139700D01*
X-0139417D02*
X-0139250D01*
X-0139208Y0025958D01*
X-0139125D01*
Y0026042D02*
Y0025708D01*
X-0138842D02*
X-0138592D01*
X-0138550Y0025792D01*
Y0025958D01*
X-0138592Y0026042D01*
X-0138842D01*
X-0138883Y0025958D01*
Y0025875D01*
X-0138550D01*
X-0138267Y0025708D02*
X-0138017D01*
X-0137975Y0025792D01*
Y0025958D01*
X-0138017Y0026042D01*
X-0138267D01*
X-0138308Y0025958D01*
Y0025875D01*
X-0137975D01*
X-0137733Y0025708D02*
Y0025958D01*
X-0137692Y0026042D01*
X-0137442D01*
Y0025708D01*
X-0137116Y0026208D02*
Y0026209D01*
X-0137117D01*
Y0026208D01*
X-0137116D01*
X-0137200Y0025708D02*
X-0137033D01*
X-0137117D02*
Y0026042D01*
X-0137033D01*
X-0136542Y0025542D02*
X-0136708D01*
X-0136750Y0025625D01*
Y0026042D01*
X-0136500D01*
X-0136458Y0025958D01*
Y0025792D01*
X-0136500Y0025708D01*
X-0136750D01*
X-0136217D02*
Y0025958D01*
X-0136175Y0026042D01*
X-0135925D01*
Y0025708D01*
X-0135600Y0025958D02*
X-0135350D01*
X-0135683Y0025708D02*
X-0135350D01*
Y0026208D01*
X-0135683D01*
X-0134346Y0026042D02*
X-0134179D01*
X-0134137Y0025958D01*
X-0134054D01*
Y0026042D02*
Y0025708D01*
X-0133771D02*
X-0133521D01*
X-0133479Y0025792D01*
Y0025958D01*
X-0133521Y0026042D01*
X-0133771D01*
X-0133812Y0025958D01*
Y0025875D01*
X-0133479D01*
X-0133196Y0026042D02*
X-0132946D01*
X-0133237Y0025708D02*
X-0133071D01*
X-0133029Y0025792D01*
Y0026208D01*
X-0132662Y0026042D02*
Y0025708D01*
X-0132704D02*
X-0132412D01*
X-0132371Y0025792D01*
Y0026042D01*
X-0131837Y0025542D02*
Y0026042D01*
X-0132087D01*
X-0132129Y0025958D01*
Y0025792D01*
X-0132087Y0025708D01*
X-0131837D01*
X-0131429D02*
Y0025958D01*
X-0131596Y0025708D02*
Y0025958D01*
X-0131554Y0026042D01*
X-0131471D01*
X-0131429Y0025958D01*
X-0131387Y0026042D01*
X-0131304D01*
X-0131262Y0025958D01*
Y0025708D01*
X-0130729D02*
X-0130687Y0025792D01*
Y0025958D01*
X-0130729Y0026042D01*
X-0130979D01*
X-0131021Y0025958D01*
Y0025792D01*
X-0130979Y0025708D01*
X-0130729D01*
X-0130446Y0025792D02*
X-0130404Y0025708D01*
X-0130154D01*
X-0130112Y0025792D01*
Y0026125D01*
X-0130154Y0026208D01*
X-0130404D01*
X-0130446Y0026125D01*
X-0129108Y0026208D02*
Y0025708D01*
X-0128858D01*
X-0128817Y0025792D01*
Y0025958D01*
X-0128858Y0026042D01*
X-0129108D01*
X-0128575Y0025708D02*
Y0025958D01*
X-0128533Y0026042D01*
X-0128283D01*
Y0025708D01*
X-0127792Y0026042D02*
X-0127958D01*
X-0128000Y0025958D01*
Y0025792D01*
X-0128042Y0025708D01*
X-0127750D01*
X-0127708Y0025792D01*
X-0127750Y0025875D01*
X-0128000D01*
X-0126704Y0025708D02*
X-0126537D01*
X-0126621D02*
Y0026208D01*
X-0126537D01*
X-0126004Y0026042D02*
X-0126171D01*
X-0126212Y0025958D01*
Y0025792D01*
X-0126254Y0025708D01*
X-0125962D01*
X-0125921Y0025792D01*
X-0125962Y0025875D01*
X-0126212D01*
X-0125679Y0026042D02*
X-0125429D01*
X-0125387Y0025958D01*
Y0025792D01*
X-0125429Y0025708D01*
X-0125679D01*
X-0125062Y0026208D02*
Y0026209D01*
X-0125063D01*
Y0026208D01*
X-0125062D01*
X-0125146Y0025708D02*
X-0124979D01*
X-0125062D02*
Y0026042D01*
X-0124979D01*
X-0124696D02*
X-0124529D01*
X-0124487Y0025958D01*
X-0124404D01*
Y0026042D02*
Y0025708D01*
X-0124121Y0026042D02*
X-0123871D01*
X-0124162Y0025708D02*
X-0123996D01*
X-0123954Y0025792D01*
Y0026208D01*
X-0123629Y0026042D02*
X-0123379D01*
X-0123337Y0025958D01*
Y0025792D01*
X-0123379Y0025708D01*
X-0123629D01*
X-0123054D02*
X-0122804D01*
X-0122762Y0025792D01*
Y0025958D01*
X-0122804Y0026042D01*
X-0123054D01*
X-0123096Y0025958D01*
Y0025875D01*
X-0122762D01*
X-0122521Y0025708D02*
X-0122354D01*
X-0122437D02*
Y0026208D01*
X-0122354D01*
X-0121987Y0025958D02*
X-0121737D01*
X-0122071Y0025708D02*
X-0121737D01*
Y0026208D01*
X-0122071D01*
X-0120733Y0026042D02*
X-0120567Y0025708D01*
X-0120483Y0025542D02*
X-0120567Y0025708D01*
X-0120400Y0026042D01*
X-0120117D02*
X-0119867D01*
X-0120158Y0025708D02*
X-0119992D01*
X-0119950Y0025792D01*
Y0026208D01*
X-0119541D02*
Y0026209D01*
X-0119542D01*
Y0026208D01*
X-0119541D01*
X-0119625Y0025708D02*
X-0119458D01*
X-0119542D02*
Y0026042D01*
X-0119458D01*
X-0119133D02*
X-0118883D01*
X-0118842Y0025958D01*
X-0118883Y0025875D01*
X-0119133D01*
X-0119175Y0025792D01*
X-0119133Y0025708D01*
X-0118883D01*
X-0118600Y0026042D02*
X-0118433D01*
X-0118392Y0025958D01*
X-0118308D01*
Y0026042D02*
Y0025708D01*
X-0118025D02*
X-0117775D01*
X-0117733Y0025792D01*
Y0025958D01*
X-0117775Y0026042D01*
X-0118025D01*
X-0118067Y0025958D01*
Y0025875D01*
X-0117733D01*
X-0117492Y0026042D02*
X-0117325Y0025708D01*
X-0117158Y0026042D01*
X-0116833Y0026208D02*
Y0026209D01*
X-0116834D01*
Y0026208D01*
X-0116833D01*
X-0116917Y0025708D02*
X-0116750D01*
X-0116833D02*
Y0026042D01*
X-0116750D01*
X-0116467Y0025708D02*
Y0025958D01*
X-0116425Y0026042D01*
X-0116175D01*
Y0025708D01*
X-0115933Y0026208D02*
Y0025792D01*
X-0115892Y0025708D01*
X-0115642D01*
X-0115600Y0025792D01*
Y0026208D01*
X-0114554Y0025708D02*
X-0114304D01*
X-0114262Y0025792D01*
Y0025958D01*
X-0114304Y0026042D01*
X-0114554D01*
X-0114596Y0025958D01*
Y0025875D01*
X-0114262D01*
X-0113979Y0026042D02*
X-0113729D01*
X-0114021Y0025708D02*
X-0113854D01*
X-0113812Y0025792D01*
Y0026208D01*
X-0113237Y0026042D02*
X-0113404D01*
X-0113446Y0025958D01*
Y0025792D01*
X-0113487Y0025708D01*
X-0113196D01*
X-0113154Y0025792D01*
X-0113196Y0025875D01*
X-0113446D01*
X-0112871Y0026042D02*
X-0112621D01*
X-0112912Y0025708D02*
X-0112746D01*
X-0112704Y0025792D01*
Y0026208D01*
X-0112379Y0026125D02*
X-0112337Y0026208D01*
X-0112087D01*
X-0112046Y0026125D01*
Y0026042D01*
X-0112087Y0025958D01*
X-0112337D01*
X-0112379Y0025875D01*
Y0025792D01*
X-0112337Y0025708D01*
X-0112087D01*
X-0112046Y0025792D01*
X-0110958Y0026208D02*
Y0026209D01*
X-0110959D01*
Y0026208D01*
X-0110958D01*
X-0111042Y0025708D02*
X-0110875D01*
X-0110958D02*
Y0026042D01*
X-0110875D01*
X-0110300Y0025542D02*
Y0026042D01*
X-0110550D01*
X-0110592Y0025958D01*
Y0025792D01*
X-0110550Y0025708D01*
X-0110300D01*
X-0109767Y0025542D02*
Y0026042D01*
X-0110017D01*
X-0110058Y0025958D01*
Y0025792D01*
X-0110017Y0025708D01*
X-0109767D01*
X-0109441Y0026208D02*
Y0026209D01*
X-0109442D01*
Y0026208D01*
X-0109441D01*
X-0109525Y0025708D02*
X-0109358D01*
X-0109442D02*
Y0026042D01*
X-0109358D01*
X-0109033D02*
X-0108783D01*
X-0108742Y0025958D01*
X-0108783Y0025875D01*
X-0109033D01*
X-0109075Y0025792D01*
X-0109033Y0025708D01*
X-0108783D01*
X-0108458Y0026042D02*
X-0108208D01*
X-0108167Y0025958D01*
X-0108208Y0025875D01*
X-0108458D01*
X-0108500Y0025792D01*
X-0108458Y0025708D01*
X-0108208D01*
X-0107841Y0026208D02*
Y0026209D01*
X-0107842D01*
Y0026208D01*
X-0107841D01*
X-0107925Y0025708D02*
X-0107758D01*
X-0107842D02*
Y0026042D01*
X-0107758D01*
X-0107433D02*
X-0107183D01*
X-0107142Y0025958D01*
X-0107183Y0025875D01*
X-0107433D01*
X-0107475Y0025792D01*
X-0107433Y0025708D01*
X-0107183D01*
X-0106858Y0026042D02*
X-0106608D01*
X-0106567Y0025958D01*
X-0106608Y0025875D01*
X-0106858D01*
X-0106900Y0025792D01*
X-0106858Y0025708D01*
X-0106608D01*
X-0106241Y0026208D02*
Y0026209D01*
X-0106242D01*
Y0026208D01*
X-0106241D01*
X-0106325Y0025708D02*
X-0106158D01*
X-0106242D02*
Y0026042D01*
X-0106158D01*
X-0105875Y0025708D02*
Y0026208D01*
X-0105792Y0026125D01*
X-0105708Y0025958D01*
X-0105625Y0026125D01*
X-0105542Y0026208D01*
Y0025708D01*
X-0102779D02*
Y0025958D01*
X-0102737Y0026042D01*
X-0102487D01*
Y0025708D01*
X-0101996Y0026042D02*
X-0102162D01*
X-0102204Y0025958D01*
Y0025792D01*
X-0102246Y0025708D01*
X-0101954D01*
X-0101912Y0025792D01*
X-0101954Y0025875D01*
X-0102204D01*
X-0101504Y0025708D02*
Y0025958D01*
X-0101671Y0025708D02*
Y0025958D01*
X-0101629Y0026042D01*
X-0101546D01*
X-0101504Y0025958D01*
X-0101462Y0026042D01*
X-0101379D01*
X-0101337Y0025958D01*
Y0025708D01*
X-0101096Y0026042D02*
X-0100929D01*
X-0100887Y0025958D01*
X-0100804D01*
Y0026042D02*
Y0025708D01*
X-0100521D02*
X-0100271D01*
X-0100229Y0025792D01*
Y0025958D01*
X-0100271Y0026042D01*
X-0100521D01*
X-0100562Y0025958D01*
Y0025875D01*
X-0100229D01*
X-0099821Y0025708D02*
Y0025958D01*
X-0099987Y0025708D02*
Y0025958D01*
X-0099946Y0026042D01*
X-0099862D01*
X-0099821Y0025958D01*
X-0099779Y0026042D01*
X-0099696D01*
X-0099654Y0025958D01*
Y0025708D01*
X-0099246D02*
Y0025958D01*
X-0099412Y0025708D02*
Y0025958D01*
X-0099371Y0026042D01*
X-0099287D01*
X-0099246Y0025958D01*
X-0099204Y0026042D01*
X-0099121D01*
X-0099079Y0025958D01*
Y0025708D01*
X-0098754Y0026208D02*
Y0026209D01*
Y0026208D01*
X-0098837Y0025708D02*
X-0098671D01*
X-0098754D02*
Y0026042D01*
X-0098671D01*
X-0098221Y0025708D02*
Y0026208D01*
X-0098387D02*
X-0098054D01*
X-0096800Y0026042D02*
X-0096967D01*
X-0097008Y0025958D01*
Y0025792D01*
X-0097050Y0025708D01*
X-0096758D01*
X-0096717Y0025792D01*
X-0096758Y0025875D01*
X-0097008D01*
X-0096475Y0026042D02*
X-0096225D01*
X-0096183Y0025958D01*
Y0025792D01*
X-0096225Y0025708D01*
X-0096475D01*
X-0095942Y0026042D02*
X-0095692D01*
X-0095650Y0025958D01*
Y0025792D01*
X-0095692Y0025708D01*
X-0095942D01*
X-0095367Y0026042D02*
Y0025708D01*
X-0095408D02*
X-0095117D01*
X-0095075Y0025792D01*
Y0026042D01*
X-0094833Y0025708D02*
X-0094542D01*
Y0026208D01*
X-0102121Y0027042D02*
X-0101871D01*
X-0102162Y0026708D02*
X-0101996D01*
X-0101954Y0026792D01*
Y0027208D01*
X-0101629Y0026708D02*
Y0026958D01*
X-0101587Y0027042D01*
X-0101337D01*
Y0026708D01*
X-0100846Y0027042D02*
X-0101012D01*
X-0101054Y0026958D01*
Y0026792D01*
X-0101096Y0026708D01*
X-0100804D01*
X-0100762Y0026792D01*
X-0100804Y0026875D01*
X-0101054D01*
X-0100521Y0026708D02*
Y0026958D01*
X-0100479Y0027042D01*
X-0100229D01*
Y0026708D02*
Y0027208D01*
X-0099987Y0027042D02*
X-0099737D01*
X-0099696Y0026958D01*
Y0026792D01*
X-0099737Y0026708D01*
X-0099987D01*
X-0099454Y0027042D02*
X-0099287D01*
X-0099246Y0026958D01*
X-0099162D01*
Y0027042D02*
Y0026708D01*
X-0098879D02*
X-0098629D01*
X-0098587Y0026792D01*
Y0026958D01*
X-0098629Y0027042D01*
X-0098879D01*
X-0098921Y0026958D01*
Y0026875D01*
X-0098587D01*
X-0098346Y0026708D02*
Y0027208D01*
X-0098262Y0027125D01*
X-0098179Y0026958D01*
X-0098096Y0027125D01*
X-0098012Y0027208D01*
Y0026708D01*
X-0096717Y0027042D02*
X-0096967D01*
X-0097008Y0026958D01*
Y0026792D01*
X-0096967Y0026708D01*
X-0096717D01*
Y0027208D01*
X-0096433Y0026708D02*
X-0096183D01*
X-0096142Y0026792D01*
Y0026958D01*
X-0096183Y0027042D01*
X-0096433D01*
X-0096475Y0026958D01*
Y0026875D01*
X-0096142D01*
X-0095900Y0026708D02*
X-0095733D01*
X-0095817D02*
Y0027208D01*
X-0095733D01*
X-0095200Y0027042D02*
X-0095367D01*
X-0095408Y0026958D01*
Y0026792D01*
X-0095450Y0026708D01*
X-0095158D01*
X-0095117Y0026792D01*
X-0095158Y0026875D01*
X-0095408D01*
X-0094875Y0026792D02*
X-0094833Y0026708D01*
X-0094583D01*
X-0094542Y0026792D01*
Y0027125D01*
X-0094583Y0027208D01*
X-0094833D01*
X-0094875Y0027125D01*
X-0100029Y0028042D02*
X-0099862D01*
X-0099821Y0027958D01*
X-0099737D01*
Y0028042D02*
Y0027708D01*
X-0099454Y0028042D02*
Y0027708D01*
X-0099496D02*
X-0099204D01*
X-0099162Y0027792D01*
Y0028042D01*
X-0098629Y0027708D02*
X-0098587Y0027792D01*
Y0027958D01*
X-0098629Y0028042D01*
X-0098879D01*
X-0098921Y0027958D01*
Y0027792D01*
X-0098879Y0027708D01*
X-0098629D01*
X-0098179D02*
Y0027958D01*
X-0098346Y0027708D02*
Y0027958D01*
X-0098304Y0028042D01*
X-0098221D01*
X-0098179Y0027958D01*
X-0098137Y0028042D01*
X-0098054D01*
X-0098012Y0027958D01*
Y0027708D01*
X-0097771Y0028042D02*
X-0097604D01*
X-0097562Y0027958D01*
X-0097479D01*
Y0028042D02*
Y0027708D01*
X-0097237Y0027875D02*
X-0096904D01*
X-0097237Y0027708D02*
Y0027958D01*
X-0097112Y0028208D01*
X-0097029D01*
X-0096904Y0027958D01*
Y0027708D01*
X-0095858D02*
X-0095608D01*
X-0095567Y0027792D01*
Y0027958D01*
X-0095608Y0028042D01*
X-0095858D01*
X-0095900Y0027958D01*
Y0027875D01*
X-0095567D01*
X-0095158D02*
X-0095075D01*
X-0095325Y0027708D02*
X-0095158Y0027875D01*
X-0095325Y0028042D01*
X-0095075Y0027708D02*
Y0028208D01*
X-0094792Y0027708D02*
X-0094625D01*
X-0094708D02*
Y0028208D01*
X-0094792D02*
X-0094625D01*
X-0100929Y0029042D02*
X-0100679D01*
X-0100637Y0028958D01*
X-0100679Y0028875D01*
X-0100929D01*
X-0100971Y0028792D01*
X-0100929Y0028708D01*
X-0100679D01*
X-0100396Y0029042D02*
Y0028792D01*
X-0100354Y0028708D01*
X-0100229Y0028958D01*
X-0100104Y0028708D01*
X-0100062Y0028792D01*
Y0029042D01*
X-0099529Y0028708D02*
X-0099487Y0028792D01*
Y0028958D01*
X-0099529Y0029042D01*
X-0099779D01*
X-0099821Y0028958D01*
Y0028792D01*
X-0099779Y0028708D01*
X-0099529D01*
X-0099246Y0029208D02*
Y0028708D01*
X-0098996D01*
X-0098954Y0028792D01*
Y0028958D01*
X-0098996Y0029042D01*
X-0099246D01*
X-0098462D02*
X-0098629D01*
X-0098671Y0028958D01*
Y0028792D01*
X-0098712Y0028708D01*
X-0098421D01*
X-0098379Y0028792D01*
X-0098421Y0028875D01*
X-0098671D01*
X-0098096Y0028708D02*
X-0097846D01*
X-0097804Y0028792D01*
Y0028958D01*
X-0097846Y0029042D01*
X-0098096D01*
X-0098137Y0028958D01*
Y0028875D01*
X-0097804D01*
X-0097562Y0028708D02*
Y0029208D01*
X-0097479Y0029125D01*
X-0097396Y0028958D01*
X-0097312Y0029125D01*
X-0097229Y0029208D01*
Y0028708D01*
X-0096225D02*
X-0096058D01*
X-0096142D02*
Y0029208D01*
X-0096058D01*
X-0095775Y0028708D02*
X-0095608D01*
X-0095692D02*
Y0029208D01*
X-0095608D01*
X-0095241D02*
Y0029209D01*
X-0095242D01*
Y0029208D01*
X-0095241D01*
X-0095325Y0028708D02*
X-0095158D01*
X-0095242D02*
Y0029042D01*
X-0095158D01*
X-0094875Y0029208D02*
Y0028792D01*
X-0094833Y0028708D01*
X-0094708Y0028958D01*
Y0029042D02*
Y0028958D01*
X-0094583Y0028708D01*
X-0094542Y0028792D01*
Y0029208D01*
X-0100521Y0030042D02*
X-0100354Y0029708D01*
X-0100271Y0029542D02*
X-0100354Y0029708D01*
X-0100187Y0030042D01*
X-0099654D02*
X-0099904D01*
X-0099946Y0029958D01*
Y0029792D01*
X-0099904Y0029708D01*
X-0099654D01*
Y0030208D01*
X-0098650D02*
Y0029708D01*
X-0098400D01*
X-0098358Y0029792D01*
Y0029958D01*
X-0098400Y0030042D01*
X-0098650D01*
X-0098075Y0029708D02*
X-0097825D01*
X-0097783Y0029792D01*
Y0029958D01*
X-0097825Y0030042D01*
X-0098075D01*
X-0098117Y0029958D01*
Y0029875D01*
X-0097783D01*
X-0097542Y0029708D02*
Y0029958D01*
X-0097500Y0030042D01*
X-0097250D01*
Y0029708D01*
X-0096800Y0029542D02*
X-0096967D01*
X-0097008Y0029625D01*
Y0030042D01*
X-0096758D01*
X-0096717Y0029958D01*
Y0029792D01*
X-0096758Y0029708D01*
X-0097008D01*
X-0096391Y0030208D02*
Y0030209D01*
X-0096392D01*
Y0030208D01*
X-0096391D01*
X-0096475Y0029708D02*
X-0096308D01*
X-0096392D02*
Y0030042D01*
X-0096308D01*
X-0095983D02*
X-0095733D01*
X-0095692Y0029958D01*
X-0095733Y0029875D01*
X-0095983D01*
X-0096025Y0029792D01*
X-0095983Y0029708D01*
X-0095733D01*
X-0095408D02*
X-0095158D01*
X-0095117Y0029792D01*
Y0029958D01*
X-0095158Y0030042D01*
X-0095408D01*
X-0095450Y0029958D01*
Y0029875D01*
X-0095117D01*
X-0094583Y0029708D02*
Y0030208D01*
X-0094542Y0029708D02*
X-0094792D01*
X-0094875Y0029875D01*
Y0030042D01*
X-0094792Y0030208D01*
X-0094542D01*
X-0079934Y0033086D02*
X-0080101D01*
X-0080129Y0033031D01*
Y0032975D01*
X-0080101Y0032919D01*
X-0079934D01*
X-0079906Y0032975D01*
Y0033031D01*
X-0080018Y0033253D01*
X-0079679D02*
Y0032975D01*
X-0079651Y0032919D01*
X-0079484D01*
X-0079456Y0032975D01*
Y0033253D01*
G54D48*
G01X-0120055Y0047611D02*
X-0119778Y0047055D01*
X-0118666Y0045944D01*
X-0118389Y0045389D01*
X-0120055D02*
X-0119778Y0045944D01*
X-0118666Y0047055D01*
X-0118389Y0047611D01*
X-0116653Y0048719D02*
Y0048725D01*
X-0116658D01*
Y0048719D01*
X-0116653D01*
X-0117211Y0045389D02*
X-0116100D01*
X-0116655D02*
Y0047611D01*
X-0116100D01*
X-0114644D02*
X-0113533D01*
X-0113255Y0047055D01*
X-0112700D01*
Y0047611D02*
Y0045389D01*
X-0111244Y0047611D02*
X-0109578D01*
X-0111522Y0045389D02*
X-0110411D01*
X-0110133Y0045944D01*
Y0048722D01*
X-0106733Y0047611D02*
X-0107844D01*
X-0108122Y0047055D01*
Y0045944D01*
X-0108400Y0045389D01*
X-0106455D01*
X-0106178Y0045944D01*
X-0106455Y0046500D01*
X-0108122D01*
X-0105000Y0045389D02*
Y0048722D01*
X-0104444Y0048167D01*
X-0103889Y0047055D01*
X-0103333Y0048167D01*
X-0102778Y0048722D01*
Y0045389D01*
X-0110739Y0049889D02*
X-0109628D01*
X-0110183D02*
Y0053222D01*
X-0109628D01*
X-0106505Y0052111D02*
X-0107616D01*
X-0107894Y0051555D01*
Y0050444D01*
X-0108172Y0049889D01*
X-0106228D01*
X-0105950Y0050444D01*
X-0106228Y0051000D01*
X-0107894D01*
X-0104772Y0053222D02*
Y0049889D01*
X-0103105D01*
X-0102828Y0050444D01*
Y0051555D01*
X-0103105Y0052111D01*
X-0104772D01*
X-0101372Y0049889D02*
X-0099705D01*
X-0099428Y0050444D01*
Y0051555D01*
X-0099705Y0052111D01*
X-0101372D01*
X-0101650Y0051555D01*
Y0051000D01*
X-0099428D01*
X-0096028Y0051555D02*
X-0097694D01*
X-0098250Y0052111D01*
Y0052667D01*
X-0097694Y0053222D01*
X-0096028D01*
Y0049889D01*
M02*
