*
G04 Mass Parameters ***
*
G04 Image ***
*
%INE:\ANALOG FX\NEW\MASTER SCHEMATIC-6.AST*%
%ICAS*%
%MOIN*%
%IPPOS*%
%ASAXBY*%
G74*%FSLAN2X34Y34*%
*
G04 Aperture Definitions ***
*
%ADD10C,0.0550*%
%ADD11R,0.0550X0.0550*%
%ADD12C,0.0866*%
%ADD13C,0.0580*%
%ADD14R,0.0580X0.0580*%
%ADD15C,0.1496*%
%ADD16C,0.1299*%
%ADD17C,0.1100*%
%ADD18C,0.0500*%
%ADD19C,0.0500*%
%ADD20C,0.0250*%
%ADD21C,0.0500*%
%ADD22R,0.0500X0.0500*%
%ADD23R,0.0340X0.0400*%
%ADD24R,0.0340X0.0500*%
%ADD25O,0.0250X0.1000*%
%ADD26R,0.0250X0.1000*%
%ADD27R,0.0880X0.1420*%
%ADD28R,0.0880X0.0480*%
%ADD29O,0.0216X0.0472*%
%ADD30R,0.0216X0.0472*%
%ADD31C,0.1000*%
%ADD32C,0.0750*%
%ADD33R,0.0750X0.0750*%
%ADD34C,0.0780*%
%ADD35R,0.0780X0.0780*%
%ADD36C,0.1299*%
%ADD37C,0.1400*%
%ADD38C,0.0750*%
%ADD39C,0.0925*%
%ADD40C,0.1378*%
%ADD41C,0.1050*%
%ADD42C,0.0550*%
%ADD43O,0.0272X0.0527*%
%ADD44R,0.0272X0.0527*%
%ADD45C,0.0080*%
%ADD46C,0.0098*%
%ADD47C,0.0100*%
*
G04 Plot Data ***
*
G54D18*
G01X-0169000Y0047250D02*
X-0051500D01*
Y-0001500D01*
X-0169000D01*
Y0047250D01*
G54D45*
G01X-0139310Y0027393D02*
X-0139254Y0027365D01*
X-0139199D01*
X-0139143Y0027393D01*
Y0027559D01*
X-0139199Y0027587D01*
X-0139254D01*
X-0139310Y0027559D01*
Y0027393D01*
X-0139365Y0027365D01*
X-0139421D01*
X-0139476Y0027393D01*
Y0027559D01*
X-0139421Y0027587D01*
X-0139365D01*
X-0139310Y0027559D01*
X-0139143Y0027775D02*
X-0139421D01*
X-0139476Y0027803D01*
Y0027969D01*
X-0139421Y0027997D01*
X-0139143D01*
X-0138865Y0022056D02*
Y0022111D01*
X-0138976Y0021944D02*
X-0138865Y0022056D01*
X-0138754Y0021944D01*
X-0138976Y0022111D02*
X-0138643D01*
X-0138754Y0022327D02*
Y0022493D01*
X-0138810Y0022521D01*
X-0138921D01*
X-0138976Y0022493D01*
Y0022327D01*
X-0138754Y0022875D02*
Y0022764D01*
X-0138810Y0022737D01*
X-0138921D01*
X-0138976Y0022709D01*
Y0022903D01*
X-0138921Y0022931D01*
X-0138865Y0022903D01*
Y0022737D01*
X-0138976Y0023119D02*
Y0023230D01*
Y0023174D02*
X-0138643D01*
Y0023230D01*
X-0138976Y0023640D02*
X-0138643D01*
X-0138976Y0023668D02*
Y0023501D01*
X-0138921Y0023445D01*
X-0138865D01*
X-0138810Y0023473D01*
Y0023640D02*
Y0023473D01*
X-0138754Y0023445D01*
X-0138698D01*
X-0138643Y0023501D01*
Y0023668D01*
X-0138976Y0024418D02*
Y0024585D01*
X-0138921Y0024613D01*
X-0138810D01*
X-0138754Y0024585D01*
Y0024418D01*
X-0138810Y0024390D01*
X-0138865D01*
Y0024613D01*
X-0138976Y0024800D02*
X-0138810D01*
X-0138754Y0024828D01*
Y0024995D01*
X-0138976D01*
Y0025377D02*
X-0138921Y0025405D01*
X-0138810D01*
X-0138754Y0025377D01*
Y0025210D01*
X-0138810Y0025183D01*
X-0138921D01*
X-0138976Y0025210D01*
Y0025377D01*
X-0138754Y0025787D02*
Y0025620D01*
X-0138810Y0025593D01*
X-0138921D01*
X-0138976Y0025620D01*
Y0025787D01*
X-0138643D01*
X-0138976Y0026003D02*
Y0026169D01*
X-0138921Y0026197D01*
X-0138810D01*
X-0138754Y0026169D01*
Y0026003D01*
X-0138810Y0025975D01*
X-0138865D01*
Y0026197D01*
X-0138976Y0026385D02*
Y0026496D01*
Y0026440D02*
X-0138643D01*
Y0026496D01*
X-0139087Y0026850D02*
Y0026739D01*
X-0139032Y0026711D01*
X-0138754D01*
Y0026878D01*
X-0138810Y0026906D01*
X-0138921D01*
X-0138976Y0026878D01*
Y0026711D01*
X-0138754Y0027260D02*
Y0027149D01*
X-0138810Y0027121D01*
X-0138921D01*
X-0138976Y0027094D01*
Y0027288D01*
X-0138921Y0027316D01*
X-0138865Y0027288D01*
Y0027121D01*
X-0138976Y0027531D02*
Y0027698D01*
X-0138921Y0027726D01*
X-0138810D01*
X-0138754Y0027698D01*
Y0027531D01*
X-0138810Y0027504D01*
X-0138865D01*
Y0027726D01*
X-0138976Y0028108D02*
X-0138643D01*
X-0138976Y0028136D02*
Y0027969D01*
X-0138921Y0027914D01*
X-0138865D01*
X-0138810Y0027941D01*
Y0028108D02*
Y0027941D01*
X-0138754Y0027914D01*
X-0138698D01*
X-0138643Y0027969D01*
Y0028136D01*
X-0136942Y0029718D02*
X-0137053D01*
X-0136997D02*
Y0030051D01*
X-0137053Y0029995D01*
X-0137899Y0029713D02*
X-0138121D01*
X-0137899Y0029935D01*
Y0029990D01*
X-0137927Y0030046D01*
X-0138093D01*
X-0138121Y0029990D01*
X-0137872Y0006159D02*
X-0137706D01*
X-0137678Y0006104D01*
Y0006048D01*
X-0137706Y0005993D01*
X-0137872D01*
X-0137900Y0006048D01*
Y0006104D01*
X-0137789Y0006326D01*
X-0138088Y0006104D02*
X-0138310D01*
X-0138199Y0006326D01*
X-0138143D01*
Y0005993D01*
X-0136950Y0006058D02*
X-0136922Y0006002D01*
X-0136756D01*
X-0136728Y0006058D01*
Y0006169D01*
X-0136783Y0006225D01*
X-0136950D01*
Y0006336D01*
X-0136728D01*
X-0137138Y0006114D02*
X-0137360D01*
X-0137249Y0006336D01*
X-0137193D01*
Y0006002D01*
X-0164501Y0027200D02*
X-0164445Y0027172D01*
X-0164390D01*
X-0164334Y0027200D01*
Y0027367D01*
X-0164390Y0027395D01*
X-0164445D01*
X-0164501Y0027367D01*
Y0027200D01*
X-0164556Y0027172D01*
X-0164612D01*
X-0164667Y0027200D01*
Y0027367D01*
X-0164612Y0027395D01*
X-0164556D01*
X-0164501Y0027367D01*
Y0027805D02*
Y0027638D01*
X-0164445Y0027582D01*
X-0164390D01*
X-0164334Y0027638D01*
Y0027805D01*
X-0164667D01*
X-0164779Y0027992D02*
Y0028215D01*
X-0164667Y0028597D02*
X-0164334D01*
X-0164667Y0028625D02*
Y0028458D01*
X-0164556Y0028402D01*
X-0164445D01*
X-0164334Y0028458D01*
Y0028625D01*
X-0164612Y0028812D02*
X-0164667Y0028840D01*
Y0029007D01*
X-0164612Y0029035D01*
X-0164390D01*
X-0164334Y0029007D01*
Y0028840D01*
X-0164390Y0028812D01*
X-0164667Y0029222D02*
Y0029417D01*
X-0164334D01*
X-0164167Y0025164D02*
Y0025386D01*
X-0163945Y0025164D01*
X-0163889D01*
X-0163834Y0025192D01*
Y0025358D01*
X-0163889Y0025386D01*
X-0163945Y0025574D02*
X-0164001Y0025602D01*
X-0164112Y0025713D01*
X-0164167Y0025741D01*
Y0025574D02*
X-0164112Y0025602D01*
X-0164001Y0025713D01*
X-0163945Y0025741D01*
X-0164112Y0026151D02*
X-0164167Y0026095D01*
Y0025984D01*
X-0164112Y0025928D01*
X-0164056D01*
X-0163945Y0026039D01*
X-0163834Y0025928D01*
Y0026151D01*
X-0164167Y0026338D02*
Y0026561D01*
X-0163945Y0026338D01*
X-0163889D01*
X-0163834Y0026366D01*
Y0026533D01*
X-0163889Y0026561D01*
X-0164001Y0027367D02*
X-0164167Y0027283D01*
X-0164001Y0027506D02*
Y0027339D01*
X-0163945Y0027283D01*
X-0163889D01*
X-0163834Y0027339D01*
Y0027506D01*
X-0164167D01*
X-0164001Y0027749D02*
Y0027916D01*
X-0164167Y0027693D02*
Y0027916D01*
X-0163834D01*
Y0027693D01*
X-0164167Y0028298D02*
X-0163834D01*
X-0164167Y0028326D02*
Y0028159D01*
X-0164056Y0028103D01*
X-0163945D01*
X-0163834Y0028159D01*
Y0028326D01*
X-0164056Y0028513D02*
Y0028736D01*
X-0164167Y0028513D02*
X-0164001D01*
X-0163834Y0028597D01*
Y0028652D01*
X-0164001Y0028736D01*
X-0164167D01*
X-0164001Y0028979D02*
Y0029146D01*
X-0164167Y0028923D02*
Y0029146D01*
X-0163834D01*
Y0028923D01*
X-0164001Y0029333D02*
Y0029556D01*
X-0164167Y0029333D02*
X-0163834D01*
X-0164167Y0029556D02*
X-0163834D01*
X-0163167Y0029944D02*
Y0030055D01*
Y0030000D02*
X-0162834D01*
X-0162890Y0030055D01*
X-0162167Y0029889D02*
Y0030111D01*
X-0161945Y0029889D01*
X-0161889D01*
X-0161834Y0029917D01*
Y0030083D01*
X-0161889Y0030111D01*
X-0162001Y0005562D02*
Y0005396D01*
X-0162056Y0005368D01*
X-0162112D01*
X-0162167Y0005396D01*
Y0005562D01*
X-0162112Y0005590D01*
X-0162056D01*
X-0161834Y0005479D01*
X-0162056Y0005778D02*
Y0006000D01*
X-0161834Y0005889D01*
Y0005833D01*
X-0162167D01*
X-0163112Y0005590D02*
X-0163167Y0005562D01*
Y0005396D01*
X-0163112Y0005368D01*
X-0163001D01*
X-0162945Y0005423D01*
Y0005590D01*
X-0162834D01*
Y0005368D01*
X-0163056Y0005778D02*
Y0006000D01*
X-0162834Y0005889D01*
Y0005833D01*
X-0163167D01*
X-0115565Y0028408D02*
X-0115676D01*
X-0115621D02*
Y0028741D01*
X-0115676Y0028685D01*
X-0115919Y0028741D02*
Y0028463D01*
X-0115947Y0028408D01*
X-0116114D01*
X-0116142Y0028463D01*
Y0028741D01*
X-0114036Y0027449D02*
X-0114203D01*
X-0114231Y0027505D01*
Y0027560D01*
X-0114203Y0027616D01*
X-0114036D01*
X-0114008Y0027560D01*
Y0027505D01*
X-0114119Y0027283D01*
X-0114557D02*
X-0114613Y0027338D01*
X-0114641Y0027394D01*
Y0027505D01*
X-0114613Y0027560D01*
X-0114557Y0027616D01*
X-0114502D01*
X-0114446Y0027560D01*
X-0114418Y0027505D01*
Y0027394D01*
X-0114446Y0027338D01*
X-0114502Y0027283D01*
X-0114557D01*
X-0114856Y0027449D02*
X-0114828Y0027505D01*
Y0027560D01*
X-0114856Y0027616D01*
X-0115023D01*
X-0115051Y0027560D01*
Y0027505D01*
X-0115023Y0027449D01*
X-0114856D01*
X-0114828Y0027394D01*
Y0027338D01*
X-0114856Y0027283D01*
X-0115023D01*
X-0115051Y0027338D01*
Y0027394D01*
X-0115023Y0027449D01*
X-0115266D02*
X-0115238Y0027505D01*
Y0027560D01*
X-0115266Y0027616D01*
X-0115433D01*
X-0115461Y0027560D01*
Y0027505D01*
X-0115433Y0027449D01*
X-0115266D01*
X-0115238Y0027394D01*
Y0027338D01*
X-0115266Y0027283D01*
X-0115433D01*
X-0115461Y0027338D01*
Y0027394D01*
X-0115433Y0027449D01*
X-0115759Y0027283D02*
Y0027616D01*
X-0115648D02*
X-0115871D01*
X-0116058Y0027283D02*
Y0027616D01*
X-0116114Y0027560D01*
X-0116169Y0027449D01*
X-0116225Y0027560D01*
X-0116281Y0027616D01*
Y0027283D01*
X-0090625Y0007667D02*
X-0090792Y0007334D01*
X-0090570D01*
X-0090382Y0007667D02*
X-0090271D01*
X-0090326D02*
Y0007334D01*
X-0090271Y0007390D01*
X-0089833Y0007556D02*
Y0007612D01*
X-0089861Y0007667D01*
X-0089972D01*
X-0090000Y0007612D01*
Y0007334D01*
X-0090028D02*
X-0089916D01*
X-0091362Y0007001D02*
X-0091529D01*
X-0091557Y0007056D01*
Y0007112D01*
X-0091529Y0007167D01*
X-0091362D01*
X-0091334Y0007112D01*
Y0007056D01*
X-0091445Y0006834D01*
X-0091147Y0007167D02*
X-0090924D01*
X-0091147Y0006945D01*
Y0006889D01*
X-0091119Y0006834D01*
X-0090952D01*
X-0090924Y0006889D01*
X-0090737Y0006834D02*
Y0007167D01*
X-0090681Y0007112D01*
X-0090570Y0006889D01*
X-0090514Y0006834D01*
Y0007167D01*
X-0090132D02*
X-0090104Y0007112D01*
Y0006889D01*
X-0090132Y0006834D01*
X-0090299D01*
X-0090327Y0006889D01*
Y0007112D01*
X-0090299Y0007167D01*
X-0090132D01*
X-0089917Y0007112D02*
X-0089889Y0007167D01*
X-0089722D01*
X-0089694Y0007112D01*
Y0006889D01*
X-0089722Y0006834D01*
X-0089889D01*
X-0089917Y0006889D01*
X-0089055Y0006167D02*
X-0088944D01*
X-0089000D02*
Y0005834D01*
X-0088944Y0005890D01*
X-0089111Y0005167D02*
X-0088889D01*
X-0089111Y0004945D01*
Y0004889D01*
X-0089083Y0004834D01*
X-0088917D01*
X-0088889Y0004889D01*
X-0103438Y0005001D02*
X-0103604D01*
X-0103632Y0005056D01*
Y0005112D01*
X-0103604Y0005167D01*
X-0103438D01*
X-0103410Y0005112D01*
Y0005056D01*
X-0103521Y0004834D01*
X-0103222Y0005167D02*
X-0103000D01*
X-0103222Y0004945D01*
Y0004889D01*
X-0103194Y0004834D01*
X-0103028D01*
X-0103000Y0004889D01*
X-0103410Y0006112D02*
X-0103438Y0006167D01*
X-0103604D01*
X-0103632Y0006112D01*
Y0006001D01*
X-0103576Y0005945D01*
X-0103410D01*
Y0005834D01*
X-0103632D01*
X-0103222Y0006167D02*
X-0103000D01*
X-0103222Y0005945D01*
Y0005890D01*
X-0103194Y0005834D01*
X-0103028D01*
X-0103000Y0005890D01*
X-0065683Y0000514D02*
Y0000292D01*
X-0065905Y0000514D01*
X-0065960D01*
X-0066016Y0000487D01*
Y0000320D01*
X-0065960Y0000292D01*
X-0065738Y0000104D02*
X-0065683Y0000077D01*
Y-0000090D01*
X-0065738Y-0000118D01*
X-0065960D01*
X-0066016Y-0000090D01*
Y0000077D01*
X-0065960Y0000104D01*
X-0064424Y0000594D02*
X-0064201D01*
Y0000622D02*
Y0000427D01*
X-0064257Y0000399D01*
X-0064424D01*
X-0064201Y0000045D02*
X-0064535Y0000212D01*
Y-0000011D01*
X-0064313Y-0000198D02*
Y-0000421D01*
X-0064535Y-0000309D01*
Y-0000254D01*
X-0064201D01*
X-0064317Y0006541D02*
Y0006652D01*
Y0006597D02*
X-0063984D01*
X-0064039Y0006652D01*
X-0064262Y0006895D02*
X-0064317Y0006923D01*
Y0007090D01*
X-0064262Y0007118D01*
X-0064039D01*
X-0063984Y0007090D01*
Y0006923D01*
X-0064039Y0006895D01*
X-0065576Y0006406D02*
X-0065798D01*
Y0006378D02*
Y0006573D01*
X-0065743Y0006601D01*
X-0065576D01*
X-0065798Y0006955D02*
X-0065465Y0006788D01*
Y0007011D01*
X-0065687Y0007198D02*
Y0007421D01*
X-0065465Y0007309D01*
Y0007254D01*
X-0065798D01*
X-0133501Y0027200D02*
Y0027367D01*
X-0133445Y0027395D01*
X-0133390D01*
X-0133334Y0027367D01*
Y0027200D01*
X-0133390Y0027172D01*
X-0133445D01*
X-0133667Y0027283D01*
X-0133501Y0027805D02*
Y0027638D01*
X-0133445Y0027582D01*
X-0133390D01*
X-0133334Y0027638D01*
Y0027805D01*
X-0133667D01*
X-0133779Y0027992D02*
Y0028215D01*
X-0133667Y0028597D02*
X-0133334D01*
X-0133667Y0028625D02*
Y0028458D01*
X-0133556Y0028402D01*
X-0133445D01*
X-0133334Y0028458D01*
Y0028625D01*
X-0133612Y0028812D02*
X-0133667Y0028840D01*
Y0029007D01*
X-0133612Y0029035D01*
X-0133390D01*
X-0133334Y0029007D01*
Y0028840D01*
X-0133390Y0028812D01*
X-0133667Y0029222D02*
Y0029417D01*
X-0133334D01*
X-0133167Y0025164D02*
Y0025386D01*
X-0132945Y0025164D01*
X-0132889D01*
X-0132834Y0025192D01*
Y0025358D01*
X-0132889Y0025386D01*
X-0132945Y0025574D02*
X-0133001Y0025602D01*
X-0133112Y0025713D01*
X-0133167Y0025741D01*
Y0025574D02*
X-0133112Y0025602D01*
X-0133001Y0025713D01*
X-0132945Y0025741D01*
X-0133112Y0026151D02*
X-0133167Y0026095D01*
Y0025984D01*
X-0133112Y0025928D01*
X-0133056D01*
X-0132945Y0026039D01*
X-0132834Y0025928D01*
Y0026151D01*
X-0133167Y0026338D02*
Y0026561D01*
X-0132945Y0026338D01*
X-0132889D01*
X-0132834Y0026366D01*
Y0026533D01*
X-0132889Y0026561D01*
X-0133001Y0027367D02*
X-0133167Y0027283D01*
X-0133001Y0027506D02*
Y0027339D01*
X-0132945Y0027283D01*
X-0132889D01*
X-0132834Y0027339D01*
Y0027506D01*
X-0133167D01*
X-0133001Y0027749D02*
Y0027916D01*
X-0133167Y0027693D02*
Y0027916D01*
X-0132834D01*
Y0027693D01*
X-0133167Y0028298D02*
X-0132834D01*
X-0133167Y0028326D02*
Y0028159D01*
X-0133056Y0028103D01*
X-0132945D01*
X-0132834Y0028159D01*
Y0028326D01*
X-0133056Y0028513D02*
Y0028736D01*
X-0133167Y0028513D02*
X-0133001D01*
X-0132834Y0028597D01*
Y0028652D01*
X-0133001Y0028736D01*
X-0133167D01*
X-0133001Y0028979D02*
Y0029146D01*
X-0133167Y0028923D02*
Y0029146D01*
X-0132834D01*
Y0028923D01*
X-0133001Y0029333D02*
Y0029556D01*
X-0133167Y0029333D02*
X-0132834D01*
X-0133167Y0029556D02*
X-0132834D01*
X-0132167Y0029944D02*
Y0030055D01*
Y0030000D02*
X-0131834D01*
X-0131890Y0030055D01*
X-0131167Y0029889D02*
Y0030111D01*
X-0130945Y0029889D01*
X-0130889D01*
X-0130834Y0029917D01*
Y0030083D01*
X-0130889Y0030111D01*
X-0131001Y0005562D02*
Y0005396D01*
X-0131056Y0005368D01*
X-0131112D01*
X-0131167Y0005396D01*
Y0005562D01*
X-0131112Y0005590D01*
X-0131056D01*
X-0130834Y0005479D01*
X-0131056Y0005778D02*
Y0006000D01*
X-0130834Y0005889D01*
Y0005833D01*
X-0131167D01*
X-0132112Y0005590D02*
X-0132167Y0005562D01*
Y0005396D01*
X-0132112Y0005368D01*
X-0132001D01*
X-0131945Y0005423D01*
Y0005590D01*
X-0131834D01*
Y0005368D01*
X-0132056Y0005778D02*
Y0006000D01*
X-0131834Y0005889D01*
Y0005833D01*
X-0132167D01*
X-0155952Y0029718D02*
X-0156063D01*
X-0156007D02*
Y0030051D01*
X-0156063Y0029995D01*
X-0156909Y0029713D02*
X-0157131D01*
X-0156909Y0029935D01*
Y0029990D01*
X-0156937Y0030046D01*
X-0157103D01*
X-0157131Y0029990D01*
X-0161500Y0029500D02*
Y0006500D01*
X-0163500D01*
Y0029500D01*
X-0161500D01*
X-0122500Y0027500D02*
Y0028500D01*
Y0030500D01*
X-0108500D01*
Y0025500D01*
X-0122500D01*
Y0027500D01*
X-0122250D01*
Y0028500D01*
X-0122500D01*
X-0089500Y0004500D02*
X-0102500D01*
Y0006500D01*
X-0089500D01*
Y0004500D01*
X-0130500Y0029500D02*
Y0006500D01*
X-0132500D01*
Y0029500D01*
X-0130500D01*
X-0138490Y0006540D02*
X-0136490D01*
Y0029540D01*
X-0138490D01*
Y0006540D01*
X-0157510Y0006510D02*
X-0155510D01*
Y0029510D01*
X-0157510D01*
Y0006510D01*
G01X-0065000Y-0001000D02*
G03X-0063500Y0000500I0000000J0001500D01*
G03X-0065000Y0002000I0001500J0000000D01*
G03X-0066500Y0000500I0000000J0001500D01*
G03X-0065000Y-0001000I0001500J0000000D01*
Y0008000D02*
G03X-0066500Y0006500I0000000J0001500D01*
G03X-0065000Y0005000I0001500J0000000D01*
G03X-0063500Y0006500I0000000J0001500D01*
G03X-0065000Y0008000I0001500J0000000D01*
G54D46*
G01X-0054422Y0021972D02*
Y0021447D01*
X-0054597D02*
X-0054247D01*
X-0054007D02*
Y0021884D01*
X-0053963Y0021972D01*
X-0053701D01*
X-0053657Y0021884D01*
Y0021447D01*
X-0053067Y0021710D02*
X-0053329D01*
X-0053417Y0021622D01*
Y0021535D01*
X-0053329Y0021447D01*
X-0053067D01*
Y0021972D01*
X-0052826Y0021447D02*
Y0021972D01*
X-0052739Y0021884D01*
X-0052564Y0021535D01*
X-0052476Y0021447D01*
Y0021972D01*
X-0052236D02*
X-0052061D01*
X-0052149D02*
Y0021447D01*
X-0052236D02*
X-0052061D01*
X-0052113Y0019431D02*
X-0051938D01*
X-0052025D02*
Y0018906D01*
X-0051938Y0018994D01*
X-0051304Y0019256D02*
Y0019343D01*
X-0051347Y0019431D01*
X-0051522D01*
X-0051566Y0019343D01*
Y0018906D01*
X-0051610D02*
X-0051435D01*
X-0144481Y0041311D02*
X-0145005D01*
X-0144918Y0041399D01*
X-0144568Y0041574D01*
X-0144481Y0041661D01*
X-0145005D01*
Y0041902D02*
Y0042077D01*
Y0041989D02*
X-0144481D01*
Y0041902D02*
Y0042077D01*
X-0145180Y0042404D02*
Y0042754D01*
X-0144743Y0043301D02*
Y0043039D01*
X-0144830Y0042995D01*
X-0144918D01*
X-0145005Y0043039D01*
Y0043301D01*
X-0144918Y0043345D01*
X-0144830D01*
X-0144481Y0043170D01*
X-0145005Y0043585D02*
Y0043891D01*
X-0144481D01*
X-0144830Y0044132D02*
Y0044482D01*
X-0145005Y0044132D02*
X-0144743D01*
X-0144481Y0044263D01*
Y0044350D01*
X-0144743Y0044482D01*
X-0145005D01*
Y0045028D02*
X-0144481D01*
X-0145005Y0045072D02*
Y0044809D01*
X-0144830Y0044722D01*
X-0144656D01*
X-0144481Y0044809D01*
Y0045072D01*
X-0144743Y0045400D02*
Y0045662D01*
X-0145005Y0045312D02*
Y0045662D01*
X-0144481D01*
Y0045312D01*
X-0144743Y0046253D02*
Y0045990D01*
X-0144656Y0045903D01*
X-0144568D01*
X-0144481Y0045990D01*
Y0046253D01*
X-0145005D01*
X-0142377Y0045873D02*
X-0142464Y0045786D01*
Y0045611D01*
X-0142377Y0045523D01*
X-0142289D01*
X-0142115Y0045698D01*
X-0141940Y0045523D01*
Y0045873D01*
X-0142464Y0046114D02*
Y0046289D01*
Y0046201D02*
X-0141940D01*
X-0142027Y0046289D01*
X-0142289Y0046923D02*
X-0142377D01*
X-0142464Y0046879D01*
Y0046704D01*
X-0142377Y0046660D01*
X-0141940D01*
Y0046616D02*
Y0046791D01*
X-0053788Y0014710D02*
X-0054051D01*
X-0054095Y0014797D01*
Y0014884D01*
X-0054051Y0014972D01*
X-0053788D01*
X-0053745Y0014884D01*
Y0014797D01*
X-0053920Y0014447D01*
X-0053504D02*
Y0014972D01*
X-0053417Y0014884D01*
X-0053242Y0014535D01*
X-0053154Y0014447D01*
Y0014972D01*
X-0052608D02*
X-0052564Y0014884D01*
Y0014535D01*
X-0052608Y0014447D01*
X-0052870D01*
X-0052914Y0014535D01*
Y0014884D01*
X-0052870Y0014972D01*
X-0052608D01*
X-0052324Y0014884D02*
X-0052280Y0014972D01*
X-0052017D01*
X-0051974Y0014884D01*
Y0014535D01*
X-0052017Y0014447D01*
X-0052280D01*
X-0052324Y0014535D01*
X-0052572Y0012431D02*
X-0052484Y0012343D01*
X-0052440Y0012256D01*
Y0012081D01*
X-0052484Y0011994D01*
X-0052572Y0011906D01*
X-0052659D01*
X-0052747Y0011994D01*
X-0052790Y0012081D01*
Y0012256D01*
X-0052747Y0012343D01*
X-0052659Y0012431D01*
X-0052572D01*
X-0052200D02*
X-0051850D01*
X-0052200Y0012081D01*
Y0011994D01*
X-0052156Y0011906D01*
X-0051894D01*
X-0051850Y0011994D01*
X-0051304Y0012256D02*
Y0012343D01*
X-0051347Y0012431D01*
X-0051522D01*
X-0051566Y0012343D01*
Y0011906D01*
X-0051610D02*
X-0051435D01*
X-0160481Y0041311D02*
X-0161005D01*
X-0160918Y0041399D01*
X-0160568Y0041574D01*
X-0160481Y0041661D01*
X-0161005D01*
Y0041902D02*
Y0042077D01*
Y0041989D02*
X-0160481D01*
Y0041902D02*
Y0042077D01*
X-0161180Y0042404D02*
Y0042754D01*
X-0161005Y0043257D02*
X-0160481Y0042995D01*
Y0043345D01*
X-0161005Y0043585D02*
Y0043891D01*
X-0160481D01*
X-0160830Y0044132D02*
Y0044482D01*
X-0161005Y0044132D02*
X-0160743D01*
X-0160481Y0044263D01*
Y0044350D01*
X-0160743Y0044482D01*
X-0161005D01*
Y0045028D02*
X-0160481D01*
X-0161005Y0045072D02*
Y0044809D01*
X-0160830Y0044722D01*
X-0160656D01*
X-0160481Y0044809D01*
Y0045072D01*
X-0160743Y0045400D02*
Y0045662D01*
X-0161005Y0045312D02*
Y0045662D01*
X-0160481D01*
Y0045312D01*
X-0160743Y0046253D02*
Y0045990D01*
X-0160656Y0045903D01*
X-0160568D01*
X-0160481Y0045990D01*
Y0046253D01*
X-0161005D01*
X-0158377Y0045873D02*
X-0158464Y0045830D01*
Y0045567D01*
X-0158377Y0045523D01*
X-0158202D01*
X-0158115Y0045611D01*
Y0045873D01*
X-0157940D01*
Y0045523D01*
X-0158464Y0046114D02*
Y0046289D01*
Y0046201D02*
X-0157940D01*
X-0158027Y0046289D01*
X-0158289Y0046923D02*
X-0158377D01*
X-0158464Y0046879D01*
Y0046704D01*
X-0158377Y0046660D01*
X-0157940D01*
Y0046616D02*
Y0046791D01*
X-0090005Y0040808D02*
X-0089481D01*
Y0040633D02*
Y0040983D01*
Y0041224D02*
X-0089918D01*
X-0090005Y0041268D01*
Y0041530D01*
X-0089918Y0041574D01*
X-0089481D01*
X-0090005Y0042120D02*
X-0089918Y0042164D01*
X-0089568D01*
X-0089481Y0042120D01*
Y0041858D01*
X-0089568Y0041814D01*
X-0089918D01*
X-0090005Y0041858D01*
Y0042120D01*
X-0090180Y0042404D02*
Y0042754D01*
X-0089918Y0043345D02*
X-0090005Y0043257D01*
Y0043082D01*
X-0089918Y0042995D01*
X-0089830D01*
X-0089656Y0043170D01*
X-0089481Y0042995D01*
Y0043345D01*
X-0090005Y0043585D02*
Y0043891D01*
X-0089481D01*
X-0089830Y0044132D02*
Y0044482D01*
X-0090005Y0044132D02*
X-0089743D01*
X-0089481Y0044263D01*
Y0044350D01*
X-0089743Y0044482D01*
X-0090005D01*
Y0045028D02*
X-0089481D01*
X-0090005Y0045072D02*
Y0044809D01*
X-0089830Y0044722D01*
X-0089656D01*
X-0089481Y0044809D01*
Y0045072D01*
X-0089743Y0045400D02*
Y0045662D01*
X-0090005Y0045312D02*
Y0045662D01*
X-0089481D01*
Y0045312D01*
X-0089743Y0046253D02*
Y0045990D01*
X-0089656Y0045903D01*
X-0089568D01*
X-0089481Y0045990D01*
Y0046253D01*
X-0090005D01*
X-0087202Y0046070D02*
X-0087115Y0046026D01*
X-0087027D01*
X-0086940Y0046070D01*
Y0046332D01*
X-0087027Y0046376D01*
X-0087115D01*
X-0087202Y0046332D01*
Y0046070D01*
X-0087289Y0046026D01*
X-0087377D01*
X-0087464Y0046070D01*
Y0046332D01*
X-0087377Y0046376D01*
X-0087289D01*
X-0087202Y0046332D01*
X-0087289Y0046923D02*
X-0087377D01*
X-0087464Y0046879D01*
Y0046704D01*
X-0087377Y0046660D01*
X-0086940D01*
Y0046616D02*
Y0046791D01*
X-0122005Y0040808D02*
X-0121481D01*
Y0040633D02*
Y0040983D01*
Y0041224D02*
X-0121918D01*
X-0122005Y0041268D01*
Y0041530D01*
X-0121918Y0041574D01*
X-0121481D01*
X-0122005Y0042120D02*
X-0121918Y0042164D01*
X-0121568D01*
X-0121481Y0042120D01*
Y0041858D01*
X-0121568Y0041814D01*
X-0121918D01*
X-0122005Y0041858D01*
Y0042120D01*
X-0122180Y0042404D02*
Y0042754D01*
X-0121918Y0043345D02*
X-0122005Y0043301D01*
Y0043039D01*
X-0121918Y0042995D01*
X-0121743D01*
X-0121656Y0043082D01*
Y0043345D01*
X-0121481D01*
Y0042995D01*
X-0122005Y0043585D02*
Y0043891D01*
X-0121481D01*
X-0121830Y0044132D02*
Y0044482D01*
X-0122005Y0044132D02*
X-0121743D01*
X-0121481Y0044263D01*
Y0044350D01*
X-0121743Y0044482D01*
X-0122005D01*
Y0045028D02*
X-0121481D01*
X-0122005Y0045072D02*
Y0044809D01*
X-0121830Y0044722D01*
X-0121656D01*
X-0121481Y0044809D01*
Y0045072D01*
X-0121743Y0045400D02*
Y0045662D01*
X-0122005Y0045312D02*
Y0045662D01*
X-0121481D01*
Y0045312D01*
X-0121743Y0046253D02*
Y0045990D01*
X-0121656Y0045903D01*
X-0121568D01*
X-0121481Y0045990D01*
Y0046253D01*
X-0122005D01*
X-0119464Y0045523D02*
Y0045873D01*
X-0119115Y0045523D01*
X-0119027D01*
X-0118940Y0045567D01*
Y0045830D01*
X-0119027Y0045873D01*
X-0119464Y0046114D02*
Y0046289D01*
Y0046201D02*
X-0118940D01*
X-0119027Y0046289D01*
X-0119289Y0046923D02*
X-0119377D01*
X-0119464Y0046879D01*
Y0046704D01*
X-0119377Y0046660D01*
X-0118940D01*
Y0046616D02*
Y0046791D01*
X-0105779Y0040842D02*
X-0105254D01*
Y0040667D02*
Y0041017D01*
Y0041257D02*
X-0105692D01*
X-0105779Y0041301D01*
Y0041564D01*
X-0105692Y0041607D01*
X-0105254D01*
X-0105779Y0042154D02*
X-0105692Y0042198D01*
X-0105342D01*
X-0105254Y0042154D01*
Y0041892D01*
X-0105342Y0041848D01*
X-0105692D01*
X-0105779Y0041892D01*
Y0042154D01*
X-0105954Y0042438D02*
Y0042788D01*
X-0105604Y0043028D02*
Y0043378D01*
X-0105254Y0043203D01*
Y0043116D01*
X-0105779D01*
Y0043619D02*
Y0043925D01*
X-0105254D01*
X-0105604Y0044165D02*
Y0044515D01*
X-0105779Y0044165D02*
X-0105517D01*
X-0105254Y0044297D01*
Y0044384D01*
X-0105517Y0044515D01*
X-0105779D01*
Y0045062D02*
X-0105254D01*
X-0105779Y0045106D02*
Y0044843D01*
X-0105604Y0044756D01*
X-0105429D01*
X-0105254Y0044843D01*
Y0045106D01*
X-0105517Y0045433D02*
Y0045696D01*
X-0105779Y0045346D02*
Y0045696D01*
X-0105254D01*
Y0045346D01*
X-0105517Y0046286D02*
Y0046024D01*
X-0105429Y0045936D01*
X-0105342D01*
X-0105254Y0046024D01*
Y0046286D01*
X-0105779D01*
X-0103238Y0045776D02*
X-0103151Y0045863D01*
X-0103063Y0045907D01*
X-0102888D01*
X-0102801Y0045863D01*
X-0102713Y0045776D01*
Y0045688D01*
X-0102801Y0045601D01*
X-0102888Y0045557D01*
X-0103063D01*
X-0103151Y0045601D01*
X-0103238Y0045688D01*
Y0045776D01*
Y0046147D02*
Y0046322D01*
Y0046235D02*
X-0102713D01*
X-0102801Y0046322D01*
X-0103063Y0046956D02*
X-0103151D01*
X-0103238Y0046913D01*
Y0046738D01*
X-0103151Y0046694D01*
X-0102713D01*
Y0046650D02*
Y0046825D01*
X-0128481Y0041311D02*
X-0129005D01*
X-0128918Y0041399D01*
X-0128568Y0041574D01*
X-0128481Y0041661D01*
X-0129005D01*
Y0041902D02*
Y0042077D01*
Y0041989D02*
X-0128481D01*
Y0041902D02*
Y0042077D01*
X-0129180Y0042404D02*
Y0042754D01*
X-0128918Y0043345D02*
X-0129005Y0043301D01*
Y0043039D01*
X-0128918Y0042995D01*
X-0128743D01*
X-0128656Y0043082D01*
Y0043345D01*
X-0128481D01*
Y0042995D01*
X-0129005Y0043585D02*
Y0043891D01*
X-0128481D01*
X-0128830Y0044132D02*
Y0044482D01*
X-0129005Y0044132D02*
X-0128743D01*
X-0128481Y0044263D01*
Y0044350D01*
X-0128743Y0044482D01*
X-0129005D01*
Y0045028D02*
X-0128481D01*
X-0129005Y0045072D02*
Y0044809D01*
X-0128830Y0044722D01*
X-0128656D01*
X-0128481Y0044809D01*
Y0045072D01*
X-0128743Y0045400D02*
Y0045662D01*
X-0129005Y0045312D02*
Y0045662D01*
X-0128481D01*
Y0045312D01*
X-0128743Y0046253D02*
Y0045990D01*
X-0128656Y0045903D01*
X-0128568D01*
X-0128481Y0045990D01*
Y0046253D01*
X-0129005D01*
X-0126464Y0045611D02*
Y0045786D01*
Y0045698D02*
X-0125940D01*
X-0126027Y0045786D01*
X-0126464Y0046114D02*
Y0046289D01*
Y0046201D02*
X-0125940D01*
X-0126027Y0046289D01*
X-0126289Y0046923D02*
X-0126377D01*
X-0126464Y0046879D01*
Y0046704D01*
X-0126377Y0046660D01*
X-0125940D01*
Y0046616D02*
Y0046791D01*
X-0058005Y0040896D02*
X-0057481D01*
Y0040721D02*
Y0041071D01*
Y0041311D02*
X-0057918D01*
X-0058005Y0041355D01*
Y0041618D01*
X-0057918Y0041661D01*
X-0057481D01*
X-0058005Y0042208D02*
X-0057918Y0042252D01*
X-0057568D01*
X-0057481Y0042208D01*
Y0041945D01*
X-0057568Y0041902D01*
X-0057918D01*
X-0058005Y0041945D01*
Y0042208D01*
X-0058180Y0042492D02*
Y0042842D01*
X-0058005Y0043082D02*
Y0043257D01*
Y0043170D02*
X-0057481D01*
X-0057568Y0043257D01*
X-0058005Y0043585D02*
Y0043891D01*
X-0057481D01*
X-0057830Y0044132D02*
Y0044482D01*
X-0058005Y0044132D02*
X-0057743D01*
X-0057481Y0044263D01*
Y0044350D01*
X-0057743Y0044482D01*
X-0058005D01*
Y0045028D02*
X-0057481D01*
X-0058005Y0045072D02*
Y0044809D01*
X-0057830Y0044722D01*
X-0057656D01*
X-0057481Y0044809D01*
Y0045072D01*
X-0057743Y0045400D02*
Y0045662D01*
X-0058005Y0045312D02*
Y0045662D01*
X-0057481D01*
Y0045312D01*
X-0057743Y0046253D02*
Y0045990D01*
X-0057656Y0045903D01*
X-0057568D01*
X-0057481Y0045990D01*
Y0046253D01*
X-0058005D01*
X-0055289Y0046026D02*
Y0046376D01*
X-0054940Y0046201D01*
Y0046114D01*
X-0055464D01*
X-0055289Y0046923D02*
X-0055377D01*
X-0055464Y0046879D01*
Y0046704D01*
X-0055377Y0046660D01*
X-0054940D01*
Y0046616D02*
Y0046791D01*
X-0064481Y0041399D02*
X-0065005D01*
X-0064918Y0041486D01*
X-0064568Y0041661D01*
X-0064481Y0041749D01*
X-0065005D01*
Y0041989D02*
Y0042164D01*
Y0042077D02*
X-0064481D01*
Y0041989D02*
Y0042164D01*
X-0065180Y0042492D02*
Y0042842D01*
X-0065005Y0043082D02*
Y0043257D01*
Y0043170D02*
X-0064481D01*
X-0064568Y0043257D01*
X-0065005Y0043585D02*
Y0043891D01*
X-0064481D01*
X-0064830Y0044132D02*
Y0044482D01*
X-0065005Y0044132D02*
X-0064743D01*
X-0064481Y0044263D01*
Y0044350D01*
X-0064743Y0044482D01*
X-0065005D01*
Y0045028D02*
X-0064481D01*
X-0065005Y0045072D02*
Y0044809D01*
X-0064830Y0044722D01*
X-0064656D01*
X-0064481Y0044809D01*
Y0045072D01*
X-0064743Y0045400D02*
Y0045662D01*
X-0065005Y0045312D02*
Y0045662D01*
X-0064481D01*
Y0045312D01*
X-0064743Y0046253D02*
Y0045990D01*
X-0064656Y0045903D01*
X-0064568D01*
X-0064481Y0045990D01*
Y0046253D01*
X-0065005D01*
X-0062377Y0046376D02*
X-0062464Y0046289D01*
Y0046114D01*
X-0062377Y0046026D01*
X-0062289D01*
X-0062115Y0046201D01*
X-0061940Y0046026D01*
Y0046376D01*
X-0062289Y0046923D02*
X-0062377D01*
X-0062464Y0046879D01*
Y0046704D01*
X-0062377Y0046660D01*
X-0061940D01*
Y0046616D02*
Y0046791D01*
X-0055100Y0028972D02*
Y0028447D01*
X-0055275D02*
X-0054925D01*
X-0054685D02*
Y0028884D01*
X-0054641Y0028972D01*
X-0054379D01*
X-0054335Y0028884D01*
Y0028447D01*
X-0053745Y0028710D02*
X-0054007D01*
X-0054095Y0028622D01*
Y0028535D01*
X-0054007Y0028447D01*
X-0053745D01*
Y0028972D01*
X-0053329D02*
Y0028447D01*
X-0053504D02*
X-0053154D01*
X-0052914D02*
Y0028884D01*
X-0052870Y0028972D01*
X-0052608D01*
X-0052564Y0028884D01*
Y0028447D01*
X-0052017Y0028972D02*
X-0051974Y0028884D01*
Y0028535D01*
X-0052017Y0028447D01*
X-0052280D01*
X-0052324Y0028535D01*
Y0028884D01*
X-0052280Y0028972D01*
X-0052017D01*
X-0052200Y0026431D02*
X-0051850D01*
X-0052200Y0026081D01*
Y0025994D01*
X-0052156Y0025906D01*
X-0051894D01*
X-0051850Y0025994D01*
X-0051304Y0026256D02*
Y0026343D01*
X-0051347Y0026431D01*
X-0051522D01*
X-0051566Y0026343D01*
Y0025906D01*
X-0051610D02*
X-0051435D01*
X-0074005Y0040808D02*
X-0073481D01*
Y0040633D02*
Y0040983D01*
Y0041224D02*
X-0073918D01*
X-0074005Y0041268D01*
Y0041530D01*
X-0073918Y0041574D01*
X-0073481D01*
X-0074005Y0042120D02*
X-0073918Y0042164D01*
X-0073568D01*
X-0073481Y0042120D01*
Y0041858D01*
X-0073568Y0041814D01*
X-0073918D01*
X-0074005Y0041858D01*
Y0042120D01*
X-0074180Y0042404D02*
Y0042754D01*
X-0074005Y0042995D02*
Y0043345D01*
X-0073656Y0042995D01*
X-0073568D01*
X-0073481Y0043039D01*
Y0043301D01*
X-0073568Y0043345D01*
X-0074005Y0043585D02*
Y0043891D01*
X-0073481D01*
X-0073830Y0044132D02*
Y0044482D01*
X-0074005Y0044132D02*
X-0073743D01*
X-0073481Y0044263D01*
Y0044350D01*
X-0073743Y0044482D01*
X-0074005D01*
Y0045028D02*
X-0073481D01*
X-0074005Y0045072D02*
Y0044809D01*
X-0073830Y0044722D01*
X-0073656D01*
X-0073481Y0044809D01*
Y0045072D01*
X-0073743Y0045400D02*
Y0045662D01*
X-0074005Y0045312D02*
Y0045662D01*
X-0073481D01*
Y0045312D01*
X-0073743Y0046253D02*
Y0045990D01*
X-0073656Y0045903D01*
X-0073568D01*
X-0073481Y0045990D01*
Y0046253D01*
X-0074005D01*
X-0071202Y0046332D02*
Y0046070D01*
X-0071289Y0046026D01*
X-0071377D01*
X-0071464Y0046070D01*
Y0046332D01*
X-0071377Y0046376D01*
X-0071289D01*
X-0070940Y0046201D01*
X-0071289Y0046923D02*
X-0071377D01*
X-0071464Y0046879D01*
Y0046704D01*
X-0071377Y0046660D01*
X-0070940D01*
Y0046616D02*
Y0046791D01*
X-0138005Y0040808D02*
X-0137481D01*
Y0040633D02*
Y0040983D01*
Y0041224D02*
X-0137918D01*
X-0138005Y0041268D01*
Y0041530D01*
X-0137918Y0041574D01*
X-0137481D01*
X-0138005Y0042120D02*
X-0137918Y0042164D01*
X-0137568D01*
X-0137481Y0042120D01*
Y0041858D01*
X-0137568Y0041814D01*
X-0137918D01*
X-0138005Y0041858D01*
Y0042120D01*
X-0138180Y0042404D02*
Y0042754D01*
X-0137743Y0043301D02*
Y0043039D01*
X-0137830Y0042995D01*
X-0137918D01*
X-0138005Y0043039D01*
Y0043301D01*
X-0137918Y0043345D01*
X-0137830D01*
X-0137481Y0043170D01*
X-0138005Y0043585D02*
Y0043891D01*
X-0137481D01*
X-0137830Y0044132D02*
Y0044482D01*
X-0138005Y0044132D02*
X-0137743D01*
X-0137481Y0044263D01*
Y0044350D01*
X-0137743Y0044482D01*
X-0138005D01*
Y0045028D02*
X-0137481D01*
X-0138005Y0045072D02*
Y0044809D01*
X-0137830Y0044722D01*
X-0137656D01*
X-0137481Y0044809D01*
Y0045072D01*
X-0137743Y0045400D02*
Y0045662D01*
X-0138005Y0045312D02*
Y0045662D01*
X-0137481D01*
Y0045312D01*
X-0137743Y0046253D02*
Y0045990D01*
X-0137656Y0045903D01*
X-0137568D01*
X-0137481Y0045990D01*
Y0046253D01*
X-0138005D01*
X-0135289Y0045523D02*
Y0045873D01*
X-0134940Y0045698D01*
Y0045611D01*
X-0135464D01*
Y0046114D02*
Y0046289D01*
Y0046201D02*
X-0134940D01*
X-0135027Y0046289D01*
X-0135289Y0046923D02*
X-0135377D01*
X-0135464Y0046879D01*
Y0046704D01*
X-0135377Y0046660D01*
X-0134940D01*
Y0046616D02*
Y0046791D01*
X-0154005Y0040808D02*
X-0153481D01*
Y0040633D02*
Y0040983D01*
Y0041224D02*
X-0153918D01*
X-0154005Y0041268D01*
Y0041530D01*
X-0153918Y0041574D01*
X-0153481D01*
X-0154005Y0042120D02*
X-0153918Y0042164D01*
X-0153568D01*
X-0153481Y0042120D01*
Y0041858D01*
X-0153568Y0041814D01*
X-0153918D01*
X-0154005Y0041858D01*
Y0042120D01*
X-0154180Y0042404D02*
Y0042754D01*
X-0154005Y0043257D02*
X-0153481Y0042995D01*
Y0043345D01*
X-0154005Y0043585D02*
Y0043891D01*
X-0153481D01*
X-0153830Y0044132D02*
Y0044482D01*
X-0154005Y0044132D02*
X-0153743D01*
X-0153481Y0044263D01*
Y0044350D01*
X-0153743Y0044482D01*
X-0154005D01*
Y0045028D02*
X-0153481D01*
X-0154005Y0045072D02*
Y0044809D01*
X-0153830Y0044722D01*
X-0153656D01*
X-0153481Y0044809D01*
Y0045072D01*
X-0153743Y0045400D02*
Y0045662D01*
X-0154005Y0045312D02*
Y0045662D01*
X-0153481D01*
Y0045312D01*
X-0153743Y0046253D02*
Y0045990D01*
X-0153656Y0045903D01*
X-0153568D01*
X-0153481Y0045990D01*
Y0046253D01*
X-0154005D01*
X-0151202Y0045830D02*
Y0045567D01*
X-0151289Y0045523D01*
X-0151377D01*
X-0151464Y0045567D01*
Y0045830D01*
X-0151377Y0045873D01*
X-0151289D01*
X-0150940Y0045698D01*
X-0151464Y0046114D02*
Y0046289D01*
Y0046201D02*
X-0150940D01*
X-0151027Y0046289D01*
X-0151289Y0046923D02*
X-0151377D01*
X-0151464Y0046879D01*
Y0046704D01*
X-0151377Y0046660D01*
X-0150940D01*
Y0046616D02*
Y0046791D01*
X-0096481Y0041311D02*
X-0097005D01*
X-0096918Y0041399D01*
X-0096568Y0041574D01*
X-0096481Y0041661D01*
X-0097005D01*
Y0041902D02*
Y0042077D01*
Y0041989D02*
X-0096481D01*
Y0041902D02*
Y0042077D01*
X-0097180Y0042404D02*
Y0042754D01*
X-0096918Y0043345D02*
X-0097005Y0043257D01*
Y0043082D01*
X-0096918Y0042995D01*
X-0096830D01*
X-0096656Y0043170D01*
X-0096481Y0042995D01*
Y0043345D01*
X-0097005Y0043585D02*
Y0043891D01*
X-0096481D01*
X-0096830Y0044132D02*
Y0044482D01*
X-0097005Y0044132D02*
X-0096743D01*
X-0096481Y0044263D01*
Y0044350D01*
X-0096743Y0044482D01*
X-0097005D01*
Y0045028D02*
X-0096481D01*
X-0097005Y0045072D02*
Y0044809D01*
X-0096830Y0044722D01*
X-0096656D01*
X-0096481Y0044809D01*
Y0045072D01*
X-0096743Y0045400D02*
Y0045662D01*
X-0097005Y0045312D02*
Y0045662D01*
X-0096481D01*
Y0045312D01*
X-0096743Y0046253D02*
Y0045990D01*
X-0096656Y0045903D01*
X-0096568D01*
X-0096481Y0045990D01*
Y0046253D01*
X-0097005D01*
X-0094464Y0046289D02*
X-0093940Y0046026D01*
Y0046376D01*
X-0094289Y0046923D02*
X-0094377D01*
X-0094464Y0046879D01*
Y0046704D01*
X-0094377Y0046660D01*
X-0093940D01*
Y0046616D02*
Y0046791D01*
X-0112254Y0041345D02*
X-0112779D01*
X-0112692Y0041432D01*
X-0112342Y0041607D01*
X-0112254Y0041695D01*
X-0112779D01*
Y0041935D02*
Y0042110D01*
Y0042023D02*
X-0112254D01*
Y0041935D02*
Y0042110D01*
X-0112954Y0042438D02*
Y0042788D01*
X-0112604Y0043028D02*
Y0043378D01*
X-0112254Y0043203D01*
Y0043116D01*
X-0112779D01*
Y0043619D02*
Y0043925D01*
X-0112254D01*
X-0112604Y0044165D02*
Y0044515D01*
X-0112779Y0044165D02*
X-0112517D01*
X-0112254Y0044297D01*
Y0044384D01*
X-0112517Y0044515D01*
X-0112779D01*
Y0045062D02*
X-0112254D01*
X-0112779Y0045106D02*
Y0044843D01*
X-0112604Y0044756D01*
X-0112429D01*
X-0112254Y0044843D01*
Y0045106D01*
X-0112517Y0045433D02*
Y0045696D01*
X-0112779Y0045346D02*
Y0045696D01*
X-0112254D01*
Y0045346D01*
X-0112517Y0046286D02*
Y0046024D01*
X-0112429Y0045936D01*
X-0112342D01*
X-0112254Y0046024D01*
Y0046286D01*
X-0112779D01*
X-0109976Y0046104D02*
Y0046366D01*
X-0109888Y0046410D01*
X-0109801D01*
X-0109713Y0046366D01*
Y0046104D01*
X-0109801Y0046060D01*
X-0109888D01*
X-0110238Y0046235D01*
X-0110063Y0046956D02*
X-0110151D01*
X-0110238Y0046913D01*
Y0046738D01*
X-0110151Y0046694D01*
X-0109713D01*
Y0046650D02*
Y0046825D01*
X-0080481Y0041311D02*
X-0081005D01*
X-0080918Y0041399D01*
X-0080568Y0041574D01*
X-0080481Y0041661D01*
X-0081005D01*
Y0041902D02*
Y0042077D01*
Y0041989D02*
X-0080481D01*
Y0041902D02*
Y0042077D01*
X-0081180Y0042404D02*
Y0042754D01*
X-0081005Y0042995D02*
Y0043345D01*
X-0080656Y0042995D01*
X-0080568D01*
X-0080481Y0043039D01*
Y0043301D01*
X-0080568Y0043345D01*
X-0081005Y0043585D02*
Y0043891D01*
X-0080481D01*
X-0080830Y0044132D02*
Y0044482D01*
X-0081005Y0044132D02*
X-0080743D01*
X-0080481Y0044263D01*
Y0044350D01*
X-0080743Y0044482D01*
X-0081005D01*
Y0045028D02*
X-0080481D01*
X-0081005Y0045072D02*
Y0044809D01*
X-0080830Y0044722D01*
X-0080656D01*
X-0080481Y0044809D01*
Y0045072D01*
X-0080743Y0045400D02*
Y0045662D01*
X-0081005Y0045312D02*
Y0045662D01*
X-0080481D01*
Y0045312D01*
X-0080743Y0046253D02*
Y0045990D01*
X-0080656Y0045903D01*
X-0080568D01*
X-0080481Y0045990D01*
Y0046253D01*
X-0081005D01*
X-0078377Y0046376D02*
X-0078464Y0046332D01*
Y0046070D01*
X-0078377Y0046026D01*
X-0078202D01*
X-0078115Y0046114D01*
Y0046376D01*
X-0077940D01*
Y0046026D01*
X-0078289Y0046923D02*
X-0078377D01*
X-0078464Y0046879D01*
Y0046704D01*
X-0078377Y0046660D01*
X-0077940D01*
Y0046616D02*
Y0046791D01*
G54D47*
G01X-0048454Y0005458D02*
X-0048704Y0005708D01*
X-0048454Y0005958D01*
X-0048787D02*
Y0005458D01*
X-0049029Y0005542D02*
X-0049071Y0005458D01*
X-0049321D01*
X-0049362Y0005542D01*
Y0005875D01*
X-0049321Y0005958D01*
X-0049071D01*
X-0049029Y0005875D01*
X-0049604Y0005625D02*
X-0049937D01*
X-0049604Y0005458D02*
Y0005708D01*
X-0049729Y0005958D01*
X-0049812D01*
X-0049937Y0005708D01*
Y0005458D01*
X-0050471Y0005625D02*
Y0005542D01*
X-0050429Y0005458D01*
X-0050262D01*
X-0050221Y0005542D01*
Y0005958D01*
X-0050179D02*
X-0050346D01*
X-0051475Y0005625D02*
X-0051808D01*
X-0051475Y0005458D02*
Y0005708D01*
X-0051600Y0005958D01*
X-0051683D01*
X-0051808Y0005708D01*
Y0005458D01*
X-0052050Y0005542D02*
X-0052092Y0005458D01*
X-0052342D01*
X-0052383Y0005542D01*
Y0005875D01*
X-0052342Y0005958D01*
X-0052092D01*
X-0052050Y0005875D01*
X-0052750Y0005708D02*
X-0052625Y0005458D01*
X-0052958Y0005708D02*
X-0052708D01*
X-0052625Y0005792D01*
Y0005875D01*
X-0052708Y0005958D01*
X-0052958D01*
Y0005458D01*
X-0051642Y0006833D02*
X-0051600Y0006917D01*
Y0007000D01*
X-0051642Y0007083D01*
X-0051892D01*
X-0051933Y0007000D01*
Y0006917D01*
X-0051892Y0006833D01*
X-0051642D01*
X-0051600Y0006750D01*
Y0006667D01*
X-0051642Y0006583D01*
X-0051892D01*
X-0051933Y0006667D01*
Y0006750D01*
X-0051892Y0006833D01*
X-0052175Y0006583D02*
X-0052342D01*
X-0052258D02*
Y0007083D01*
X-0052342Y0007000D01*
X-0052958Y0006750D02*
Y0006667D01*
X-0052917Y0006583D01*
X-0052750D01*
X-0052708Y0006667D01*
Y0007083D01*
X-0052667D02*
X-0052833D01*
G54D10*
X-0065000Y0001000D03*
Y0006000D03*
G54D11*
Y0000000D03*
Y0007000D03*
G54D13*
X-0138000Y0029000D03*
X-0137000Y0028000D03*
X-0138000D03*
X-0137000Y0027000D03*
X-0138000D03*
X-0137000Y0026000D03*
X-0138000D03*
X-0137000Y0025000D03*
Y0024000D03*
X-0138000D03*
X-0137000Y0023000D03*
X-0138000D03*
X-0137000Y0022000D03*
X-0138000D03*
X-0137000Y0021000D03*
X-0138000D03*
X-0137000Y0020000D03*
Y0019000D03*
X-0138000D03*
X-0137000Y0018000D03*
X-0138000D03*
X-0137000Y0017000D03*
X-0138000D03*
X-0137000Y0016000D03*
X-0138000D03*
X-0137000Y0015000D03*
Y0014000D03*
X-0138000D03*
X-0137000Y0013000D03*
X-0138000D03*
X-0137000Y0012000D03*
X-0138000D03*
X-0137000Y0011000D03*
X-0138000D03*
X-0137000Y0010000D03*
Y0009000D03*
X-0138000D03*
X-0137000Y0008000D03*
X-0138000D03*
X-0137000Y0007000D03*
X-0138000D03*
X-0157000Y0029000D03*
X-0156000Y0028000D03*
X-0157000D03*
X-0156000Y0027000D03*
X-0157000D03*
X-0156000Y0026000D03*
X-0157000D03*
X-0156000Y0025000D03*
Y0024000D03*
X-0157000D03*
X-0156000Y0023000D03*
X-0157000D03*
X-0156000Y0022000D03*
X-0157000D03*
X-0156000Y0021000D03*
X-0157000D03*
X-0156000Y0020000D03*
Y0019000D03*
X-0157000D03*
X-0156000Y0018000D03*
X-0157000D03*
X-0156000Y0017000D03*
X-0157000D03*
X-0156000Y0016000D03*
X-0157000D03*
X-0156000Y0015000D03*
Y0014000D03*
X-0157000D03*
X-0156000Y0013000D03*
X-0157000D03*
X-0156000Y0012000D03*
X-0157000D03*
X-0156000Y0011000D03*
X-0157000D03*
X-0156000Y0010000D03*
Y0009000D03*
X-0157000D03*
X-0156000Y0008000D03*
X-0157000D03*
X-0156000Y0007000D03*
X-0157000D03*
X-0121000Y0025000D03*
X-0120000D03*
X-0119000D03*
X-0118000D03*
X-0117000D03*
X-0116000D03*
X-0115000D03*
X-0114000D03*
X-0113000D03*
X-0112000D03*
X-0111000D03*
X-0110000D03*
X-0109000D03*
Y0031000D03*
X-0110000D03*
X-0111000D03*
X-0112000D03*
X-0113000D03*
X-0114000D03*
X-0115000D03*
X-0116000D03*
X-0117000D03*
X-0118000D03*
X-0119000D03*
X-0120000D03*
X-0121000D03*
X-0122000D03*
X-0131000Y0029000D03*
X-0132000Y0028000D03*
X-0131000D03*
X-0132000Y0027000D03*
X-0131000D03*
X-0132000Y0026000D03*
X-0131000D03*
X-0132000Y0025000D03*
Y0024000D03*
X-0131000D03*
X-0132000Y0023000D03*
X-0131000D03*
X-0132000Y0022000D03*
X-0131000D03*
X-0132000Y0021000D03*
X-0131000D03*
X-0132000Y0020000D03*
Y0019000D03*
X-0131000D03*
X-0132000Y0018000D03*
X-0131000D03*
X-0132000Y0017000D03*
X-0131000D03*
X-0132000Y0016000D03*
X-0131000D03*
X-0132000Y0015000D03*
Y0014000D03*
X-0131000D03*
X-0132000Y0013000D03*
X-0131000D03*
X-0132000Y0012000D03*
X-0131000D03*
X-0132000Y0011000D03*
X-0131000D03*
X-0132000Y0010000D03*
Y0009000D03*
X-0131000D03*
X-0132000Y0008000D03*
X-0131000D03*
X-0132000Y0007000D03*
X-0131000D03*
X-0162000Y0029000D03*
X-0163000Y0028000D03*
X-0162000D03*
X-0163000Y0027000D03*
X-0162000D03*
X-0163000Y0026000D03*
X-0162000D03*
X-0163000Y0025000D03*
Y0024000D03*
X-0162000D03*
X-0163000Y0023000D03*
X-0162000D03*
X-0163000Y0022000D03*
X-0162000D03*
X-0163000Y0021000D03*
X-0162000D03*
X-0163000Y0020000D03*
Y0019000D03*
X-0162000D03*
X-0163000Y0018000D03*
X-0162000D03*
X-0163000Y0017000D03*
X-0162000D03*
X-0163000Y0016000D03*
X-0162000D03*
X-0163000Y0015000D03*
Y0014000D03*
X-0162000D03*
X-0163000Y0013000D03*
X-0162000D03*
X-0163000Y0012000D03*
X-0162000D03*
X-0163000Y0011000D03*
X-0162000D03*
X-0163000Y0010000D03*
Y0009000D03*
X-0162000D03*
X-0163000Y0008000D03*
X-0162000D03*
X-0163000Y0007000D03*
X-0162000D03*
X-0090000Y0005000D03*
X-0091000Y0006000D03*
Y0005000D03*
X-0092000Y0006000D03*
Y0005000D03*
X-0093000Y0006000D03*
Y0005000D03*
X-0094000Y0006000D03*
X-0095000D03*
Y0005000D03*
X-0096000Y0006000D03*
Y0005000D03*
X-0097000Y0006000D03*
Y0005000D03*
X-0098000Y0006000D03*
Y0005000D03*
X-0099000Y0006000D03*
X-0100000D03*
Y0005000D03*
X-0101000Y0006000D03*
Y0005000D03*
X-0102000Y0006000D03*
Y0005000D03*
G54D14*
X-0137000Y0029000D03*
X-0138000Y0025000D03*
Y0020000D03*
Y0015000D03*
Y0010000D03*
X-0156000Y0029000D03*
X-0157000Y0025000D03*
Y0020000D03*
Y0015000D03*
Y0010000D03*
X-0122000Y0025000D03*
X-0132000Y0029000D03*
X-0131000Y0025000D03*
Y0020000D03*
Y0015000D03*
Y0010000D03*
X-0163000Y0029000D03*
X-0162000Y0025000D03*
Y0020000D03*
Y0015000D03*
Y0010000D03*
X-0090000Y0006000D03*
X-0094000Y0005000D03*
X-0099000D03*
M02*
