*
G04 Mass Parameters ***
*
G04 Image ***
*
%INE:\ANALOG FX\NEW\MASTER SCHEMATIC-6.SST*%
%ICAS*%
%MOIN*%
%IPPOS*%
%ASAXBY*%
G74*%FSLAN2X34Y34*%
*
G04 Aperture Definitions ***
*
%ADD10C,0.0550*%
%ADD11R,0.0550X0.0550*%
%ADD12C,0.0866*%
%ADD13C,0.0580*%
%ADD14R,0.0580X0.0580*%
%ADD15C,0.1496*%
%ADD16C,0.1299*%
%ADD17C,0.1100*%
%ADD18C,0.0500*%
%ADD19C,0.0500*%
%ADD20C,0.0250*%
%ADD21C,0.0500*%
%ADD22R,0.0500X0.0500*%
%ADD23R,0.0340X0.0400*%
%ADD24R,0.0340X0.0500*%
%ADD25O,0.0250X0.1000*%
%ADD26R,0.0250X0.1000*%
%ADD27R,0.0880X0.1420*%
%ADD28R,0.0880X0.0480*%
%ADD29O,0.0216X0.0472*%
%ADD30R,0.0216X0.0472*%
%ADD31C,0.1000*%
%ADD32C,0.0750*%
%ADD33R,0.0750X0.0750*%
%ADD34C,0.0780*%
%ADD35R,0.0780X0.0780*%
%ADD36C,0.1299*%
%ADD37C,0.1400*%
%ADD38C,0.0750*%
%ADD39C,0.0925*%
%ADD40C,0.1378*%
%ADD41C,0.1050*%
%ADD42C,0.0550*%
%ADD43O,0.0272X0.0527*%
%ADD44R,0.0272X0.0527*%
%ADD45C,0.0080*%
%ADD46C,0.0098*%
%ADD47C,0.0100*%
*
G04 Plot Data ***
*
G54D45*
G01X-0156916Y0029708D02*
X-0157138D01*
X-0156916Y0029930D01*
Y0029985D01*
X-0156944Y0030041D01*
X-0157111D01*
X-0157138Y0029985D01*
X-0156888Y0006163D02*
X-0156722D01*
X-0156694Y0006108D01*
Y0006052D01*
X-0156722Y0005997D01*
X-0156888D01*
X-0156916Y0006052D01*
Y0006108D01*
X-0156805Y0006330D01*
X-0157104Y0006108D02*
X-0157326D01*
X-0157215Y0006330D01*
X-0157159D01*
Y0005997D01*
X-0155956Y0006062D02*
X-0155928Y0006007D01*
X-0155761D01*
X-0155734Y0006062D01*
Y0006173D01*
X-0155789Y0006229D01*
X-0155956D01*
Y0006340D01*
X-0155734D01*
X-0156144Y0006118D02*
X-0156366D01*
X-0156255Y0006340D01*
X-0156199D01*
Y0006007D01*
X-0138931Y0024798D02*
X-0138986Y0024853D01*
X-0139014Y0024909D01*
Y0025020D01*
X-0138986Y0025075D01*
X-0138931Y0025131D01*
X-0138875D01*
X-0138820Y0025075D01*
X-0138792Y0025020D01*
Y0024909D01*
X-0138820Y0024853D01*
X-0138875Y0024798D01*
X-0138931D01*
X-0139202D02*
X-0139313D01*
X-0139257D02*
Y0025131D01*
X-0139313Y0025075D01*
X-0138905Y0019818D02*
X-0138961Y0019873D01*
X-0138988Y0019929D01*
Y0020040D01*
X-0138961Y0020095D01*
X-0138905Y0020151D01*
X-0138849D01*
X-0138794Y0020095D01*
X-0138766Y0020040D01*
Y0019929D01*
X-0138794Y0019873D01*
X-0138849Y0019818D01*
X-0138905D01*
X-0139176D02*
X-0139398D01*
X-0139176Y0020040D01*
Y0020095D01*
X-0139204Y0020151D01*
X-0139371D01*
X-0139398Y0020095D01*
X-0138875Y0014788D02*
X-0138931Y0014843D01*
X-0138958Y0014899D01*
Y0015010D01*
X-0138931Y0015065D01*
X-0138875Y0015121D01*
X-0138819D01*
X-0138764Y0015065D01*
X-0138736Y0015010D01*
Y0014899D01*
X-0138764Y0014843D01*
X-0138819Y0014788D01*
X-0138875D01*
X-0139368Y0014843D02*
X-0139313Y0014788D01*
X-0139202D01*
X-0139146Y0014843D01*
Y0014899D01*
X-0139257Y0015010D01*
X-0139146Y0015121D01*
X-0139368D01*
X-0138875Y0009808D02*
X-0138931Y0009863D01*
X-0138958Y0009919D01*
Y0010030D01*
X-0138931Y0010085D01*
X-0138875Y0010141D01*
X-0138819D01*
X-0138764Y0010085D01*
X-0138736Y0010030D01*
Y0009919D01*
X-0138764Y0009863D01*
X-0138819Y0009808D01*
X-0138875D01*
X-0139146Y0009919D02*
X-0139368D01*
X-0139257Y0010141D01*
X-0139202D01*
Y0009808D01*
X-0157971Y0024828D02*
X-0158026Y0024883D01*
X-0158054Y0024939D01*
Y0025050D01*
X-0158026Y0025105D01*
X-0157971Y0025161D01*
X-0157915D01*
X-0157860Y0025105D01*
X-0157832Y0025050D01*
Y0024939D01*
X-0157860Y0024883D01*
X-0157915Y0024828D01*
X-0157971D01*
X-0158242D02*
X-0158353D01*
X-0158297D02*
Y0025161D01*
X-0158353Y0025105D01*
X-0157945Y0019848D02*
X-0158001Y0019903D01*
X-0158028Y0019959D01*
Y0020070D01*
X-0158001Y0020125D01*
X-0157945Y0020181D01*
X-0157889D01*
X-0157834Y0020125D01*
X-0157806Y0020070D01*
Y0019959D01*
X-0157834Y0019903D01*
X-0157889Y0019848D01*
X-0157945D01*
X-0158216D02*
X-0158438D01*
X-0158216Y0020070D01*
Y0020125D01*
X-0158244Y0020181D01*
X-0158411D01*
X-0158438Y0020125D01*
X-0157915Y0014818D02*
X-0157971Y0014873D01*
X-0157998Y0014929D01*
Y0015040D01*
X-0157971Y0015095D01*
X-0157915Y0015151D01*
X-0157859D01*
X-0157804Y0015095D01*
X-0157776Y0015040D01*
Y0014929D01*
X-0157804Y0014873D01*
X-0157859Y0014818D01*
X-0157915D01*
X-0158408Y0014873D02*
X-0158353Y0014818D01*
X-0158242D01*
X-0158186Y0014873D01*
Y0014929D01*
X-0158297Y0015040D01*
X-0158186Y0015151D01*
X-0158408D01*
X-0157915Y0009838D02*
X-0157971Y0009893D01*
X-0157998Y0009949D01*
Y0010060D01*
X-0157971Y0010115D01*
X-0157915Y0010171D01*
X-0157859D01*
X-0157804Y0010115D01*
X-0157776Y0010060D01*
Y0009949D01*
X-0157804Y0009893D01*
X-0157859Y0009838D01*
X-0157915D01*
X-0158186Y0009949D02*
X-0158408D01*
X-0158297Y0010171D01*
X-0158242D01*
Y0009838D01*
X-0156184Y0029874D02*
X-0156156Y0029930D01*
Y0029985D01*
X-0156184Y0030041D01*
X-0156351D01*
X-0156378Y0029985D01*
Y0029930D01*
X-0156351Y0029874D01*
X-0156184D01*
X-0156156Y0029819D01*
Y0029763D01*
X-0156184Y0029708D01*
X-0156351D01*
X-0156378Y0029763D01*
Y0029819D01*
X-0156351Y0029874D01*
X-0156788D02*
X-0156622D01*
X-0156566Y0029930D01*
Y0029985D01*
X-0156622Y0030041D01*
X-0156788D01*
Y0029708D01*
X-0137174Y0029884D02*
X-0137341D01*
X-0137368Y0029940D01*
Y0029995D01*
X-0137341Y0030051D01*
X-0137174D01*
X-0137146Y0029995D01*
Y0029940D01*
X-0137257Y0029718D01*
X-0137778Y0029884D02*
X-0137612D01*
X-0137556Y0029940D01*
Y0029995D01*
X-0137612Y0030051D01*
X-0137778D01*
Y0029718D01*
X-0139281Y0027391D02*
X-0139225Y0027364D01*
X-0139169D01*
X-0139114Y0027391D01*
Y0027558D01*
X-0139169Y0027586D01*
X-0139225D01*
X-0139281Y0027558D01*
Y0027391D01*
X-0139336Y0027364D01*
X-0139392D01*
X-0139447Y0027391D01*
Y0027558D01*
X-0139392Y0027586D01*
X-0139336D01*
X-0139281Y0027558D01*
X-0139114Y0027774D02*
X-0139392D01*
X-0139447Y0027801D01*
Y0027968D01*
X-0139392Y0027996D01*
X-0139114D01*
X-0136952Y0029698D02*
X-0137063D01*
X-0137007D02*
Y0030031D01*
X-0137063Y0029975D01*
X-0137906Y0029708D02*
X-0138128D01*
X-0137906Y0029930D01*
Y0029985D01*
X-0137934Y0030041D01*
X-0138101D01*
X-0138128Y0029985D01*
X-0137878Y0006163D02*
X-0137712D01*
X-0137684Y0006108D01*
Y0006052D01*
X-0137712Y0005997D01*
X-0137878D01*
X-0137906Y0006052D01*
Y0006108D01*
X-0137795Y0006330D01*
X-0138094Y0006108D02*
X-0138316D01*
X-0138205Y0006330D01*
X-0138149D01*
Y0005997D01*
X-0164501Y0027200D02*
X-0164445Y0027172D01*
X-0164390D01*
X-0164334Y0027200D01*
Y0027367D01*
X-0164390Y0027395D01*
X-0164445D01*
X-0164501Y0027367D01*
Y0027200D01*
X-0164556Y0027172D01*
X-0164612D01*
X-0164667Y0027200D01*
Y0027367D01*
X-0164612Y0027395D01*
X-0164556D01*
X-0164501Y0027367D01*
Y0027805D02*
Y0027638D01*
X-0164445Y0027582D01*
X-0164390D01*
X-0164334Y0027638D01*
Y0027805D01*
X-0164667D01*
X-0164779Y0027992D02*
Y0028215D01*
X-0164667Y0028597D02*
X-0164334D01*
X-0164667Y0028625D02*
Y0028458D01*
X-0164556Y0028402D01*
X-0164445D01*
X-0164334Y0028458D01*
Y0028625D01*
X-0164612Y0028812D02*
X-0164667Y0028840D01*
Y0029007D01*
X-0164612Y0029035D01*
X-0164390D01*
X-0164334Y0029007D01*
Y0028840D01*
X-0164390Y0028812D01*
X-0164667Y0029222D02*
Y0029417D01*
X-0164334D01*
X-0163167Y0029944D02*
Y0030055D01*
Y0030000D02*
X-0162834D01*
X-0162890Y0030055D01*
X-0162167Y0029889D02*
Y0030111D01*
X-0161945Y0029889D01*
X-0161889D01*
X-0161834Y0029917D01*
Y0030083D01*
X-0161889Y0030111D01*
X-0162001Y0005562D02*
Y0005396D01*
X-0162056Y0005368D01*
X-0162112D01*
X-0162167Y0005396D01*
Y0005562D01*
X-0162112Y0005590D01*
X-0162056D01*
X-0161834Y0005479D01*
X-0162056Y0005778D02*
Y0006000D01*
X-0161834Y0005889D01*
Y0005833D01*
X-0162167D01*
X-0163112Y0005590D02*
X-0163167Y0005562D01*
Y0005396D01*
X-0163112Y0005368D01*
X-0163001D01*
X-0162945Y0005423D01*
Y0005590D01*
X-0162834D01*
Y0005368D01*
X-0163056Y0005778D02*
Y0006000D01*
X-0162834Y0005889D01*
Y0005833D01*
X-0163167D01*
X-0121815Y0031658D02*
X-0121926D01*
X-0121871D02*
Y0031991D01*
X-0121926Y0031935D01*
X-0122169Y0031991D02*
Y0031713D01*
X-0122197Y0031658D01*
X-0122364D01*
X-0122392Y0031713D01*
Y0031991D01*
X-0090625Y0007667D02*
X-0090792Y0007334D01*
X-0090570D01*
X-0090382Y0007667D02*
X-0090271D01*
X-0090326D02*
Y0007334D01*
X-0090271Y0007390D01*
X-0089833Y0007556D02*
Y0007612D01*
X-0089861Y0007667D01*
X-0089972D01*
X-0090000Y0007612D01*
Y0007334D01*
X-0090028D02*
X-0089916D01*
X-0089055Y0006167D02*
X-0088944D01*
X-0089000D02*
Y0005834D01*
X-0088944Y0005890D01*
X-0089111Y0005167D02*
X-0088889D01*
X-0089111Y0004945D01*
Y0004889D01*
X-0089083Y0004834D01*
X-0088917D01*
X-0088889Y0004889D01*
X-0103438Y0005001D02*
X-0103604D01*
X-0103632Y0005056D01*
Y0005112D01*
X-0103604Y0005167D01*
X-0103438D01*
X-0103410Y0005112D01*
Y0005056D01*
X-0103521Y0004834D01*
X-0103222Y0005167D02*
X-0103000D01*
X-0103222Y0004945D01*
Y0004889D01*
X-0103194Y0004834D01*
X-0103028D01*
X-0103000Y0004889D01*
X-0103410Y0006112D02*
X-0103438Y0006167D01*
X-0103604D01*
X-0103632Y0006112D01*
Y0006001D01*
X-0103576Y0005945D01*
X-0103410D01*
Y0005834D01*
X-0103632D01*
X-0103222Y0006167D02*
X-0103000D01*
X-0103222Y0005945D01*
Y0005890D01*
X-0103194Y0005834D01*
X-0103028D01*
X-0103000Y0005890D01*
X-0066683Y0000264D02*
Y0000042D01*
X-0066905Y0000264D01*
X-0066960D01*
X-0067016Y0000237D01*
Y0000070D01*
X-0066960Y0000042D01*
X-0066738Y-0000145D02*
X-0066683Y-0000173D01*
Y-0000340D01*
X-0066738Y-0000368D01*
X-0066960D01*
X-0067016Y-0000340D01*
Y-0000173D01*
X-0066960Y-0000145D01*
X-0063317Y0006791D02*
Y0006902D01*
Y0006847D02*
X-0062984D01*
X-0063039Y0006902D01*
X-0063262Y0007145D02*
X-0063317Y0007173D01*
Y0007340D01*
X-0063262Y0007368D01*
X-0063039D01*
X-0062984Y0007340D01*
Y0007173D01*
X-0063039Y0007145D01*
X-0133501Y0027200D02*
Y0027367D01*
X-0133445Y0027395D01*
X-0133390D01*
X-0133334Y0027367D01*
Y0027200D01*
X-0133390Y0027172D01*
X-0133445D01*
X-0133667Y0027283D01*
X-0133501Y0027805D02*
Y0027638D01*
X-0133445Y0027582D01*
X-0133390D01*
X-0133334Y0027638D01*
Y0027805D01*
X-0133667D01*
X-0133779Y0027992D02*
Y0028215D01*
X-0133667Y0028597D02*
X-0133334D01*
X-0133667Y0028625D02*
Y0028458D01*
X-0133556Y0028402D01*
X-0133445D01*
X-0133334Y0028458D01*
Y0028625D01*
X-0133612Y0028812D02*
X-0133667Y0028840D01*
Y0029007D01*
X-0133612Y0029035D01*
X-0133390D01*
X-0133334Y0029007D01*
Y0028840D01*
X-0133390Y0028812D01*
X-0133667Y0029222D02*
Y0029417D01*
X-0133334D01*
X-0132167Y0029944D02*
Y0030055D01*
Y0030000D02*
X-0131834D01*
X-0131890Y0030055D01*
X-0131167Y0029889D02*
Y0030111D01*
X-0130945Y0029889D01*
X-0130889D01*
X-0130834Y0029917D01*
Y0030083D01*
X-0130889Y0030111D01*
X-0131001Y0005562D02*
Y0005396D01*
X-0131056Y0005368D01*
X-0131112D01*
X-0131167Y0005396D01*
Y0005562D01*
X-0131112Y0005590D01*
X-0131056D01*
X-0130834Y0005479D01*
X-0131056Y0005778D02*
Y0006000D01*
X-0130834Y0005889D01*
Y0005833D01*
X-0131167D01*
X-0132112Y0005590D02*
X-0132167Y0005562D01*
Y0005396D01*
X-0132112Y0005368D01*
X-0132001D01*
X-0131945Y0005423D01*
Y0005590D01*
X-0131834D01*
Y0005368D01*
X-0132056Y0005778D02*
Y0006000D01*
X-0131834Y0005889D01*
Y0005833D01*
X-0132167D01*
X-0136946Y0006062D02*
X-0136918Y0006007D01*
X-0136751D01*
X-0136724Y0006062D01*
Y0006173D01*
X-0136779Y0006229D01*
X-0136946D01*
Y0006340D01*
X-0136724D01*
X-0137134Y0006118D02*
X-0137356D01*
X-0137245Y0006340D01*
X-0137189D01*
Y0006007D01*
X-0155962Y0029698D02*
X-0156073D01*
X-0156017D02*
Y0030031D01*
X-0156073Y0029975D01*
X-0161500Y0029500D02*
Y0006500D01*
X-0163500D01*
Y0029500D01*
X-0161500D01*
X-0122500Y0027500D02*
Y0028500D01*
Y0030500D01*
X-0108500D01*
Y0025500D01*
X-0122500D01*
Y0027500D01*
X-0122250D01*
Y0028500D01*
X-0122500D01*
X-0089500Y0004500D02*
X-0102500D01*
Y0006500D01*
X-0089500D01*
Y0004500D01*
X-0130500Y0029500D02*
Y0006500D01*
X-0132500D01*
Y0029500D01*
X-0130500D01*
X-0157510Y0006510D02*
X-0155510D01*
Y0029510D01*
X-0157510D01*
Y0006510D01*
X-0138490Y0006540D02*
X-0136490D01*
Y0029540D01*
X-0138490D01*
Y0006540D01*
G01X-0065000Y-0001000D02*
G03X-0063500Y0000500I0000000J0001500D01*
G03X-0065000Y0002000I0001500J0000000D01*
G03X-0066500Y0000500I0000000J0001500D01*
G03X-0065000Y-0001000I0001500J0000000D01*
Y0008000D02*
G03X-0066500Y0006500I0000000J0001500D01*
G03X-0065000Y0005000I0001500J0000000D01*
G03X-0063500Y0006500I0000000J0001500D01*
G03X-0065000Y0008000I0001500J0000000D01*
G54D46*
G01X-0052113Y0019431D02*
X-0051938D01*
X-0052025D02*
Y0018906D01*
X-0051938Y0018994D01*
X-0051304Y0019256D02*
Y0019343D01*
X-0051347Y0019431D01*
X-0051522D01*
X-0051566Y0019343D01*
Y0018906D01*
X-0051610D02*
X-0051435D01*
X-0142377Y0045873D02*
X-0142464Y0045786D01*
Y0045611D01*
X-0142377Y0045523D01*
X-0142289D01*
X-0142115Y0045698D01*
X-0141940Y0045523D01*
Y0045873D01*
X-0142464Y0046114D02*
Y0046289D01*
Y0046201D02*
X-0141940D01*
X-0142027Y0046289D01*
X-0142289Y0046923D02*
X-0142377D01*
X-0142464Y0046879D01*
Y0046704D01*
X-0142377Y0046660D01*
X-0141940D01*
Y0046616D02*
Y0046791D01*
X-0052572Y0012431D02*
X-0052484Y0012343D01*
X-0052440Y0012256D01*
Y0012081D01*
X-0052484Y0011994D01*
X-0052572Y0011906D01*
X-0052659D01*
X-0052747Y0011994D01*
X-0052790Y0012081D01*
Y0012256D01*
X-0052747Y0012343D01*
X-0052659Y0012431D01*
X-0052572D01*
X-0052200D02*
X-0051850D01*
X-0052200Y0012081D01*
Y0011994D01*
X-0052156Y0011906D01*
X-0051894D01*
X-0051850Y0011994D01*
X-0051304Y0012256D02*
Y0012343D01*
X-0051347Y0012431D01*
X-0051522D01*
X-0051566Y0012343D01*
Y0011906D01*
X-0051610D02*
X-0051435D01*
X-0158377Y0045873D02*
X-0158464Y0045830D01*
Y0045567D01*
X-0158377Y0045523D01*
X-0158202D01*
X-0158115Y0045611D01*
Y0045873D01*
X-0157940D01*
Y0045523D01*
X-0158464Y0046114D02*
Y0046289D01*
Y0046201D02*
X-0157940D01*
X-0158027Y0046289D01*
X-0158289Y0046923D02*
X-0158377D01*
X-0158464Y0046879D01*
Y0046704D01*
X-0158377Y0046660D01*
X-0157940D01*
Y0046616D02*
Y0046791D01*
X-0087202Y0046070D02*
X-0087115Y0046026D01*
X-0087027D01*
X-0086940Y0046070D01*
Y0046332D01*
X-0087027Y0046376D01*
X-0087115D01*
X-0087202Y0046332D01*
Y0046070D01*
X-0087289Y0046026D01*
X-0087377D01*
X-0087464Y0046070D01*
Y0046332D01*
X-0087377Y0046376D01*
X-0087289D01*
X-0087202Y0046332D01*
X-0087289Y0046923D02*
X-0087377D01*
X-0087464Y0046879D01*
Y0046704D01*
X-0087377Y0046660D01*
X-0086940D01*
Y0046616D02*
Y0046791D01*
X-0119464Y0045523D02*
Y0045873D01*
X-0119115Y0045523D01*
X-0119027D01*
X-0118940Y0045567D01*
Y0045830D01*
X-0119027Y0045873D01*
X-0119464Y0046114D02*
Y0046289D01*
Y0046201D02*
X-0118940D01*
X-0119027Y0046289D01*
X-0119289Y0046923D02*
X-0119377D01*
X-0119464Y0046879D01*
Y0046704D01*
X-0119377Y0046660D01*
X-0118940D01*
Y0046616D02*
Y0046791D01*
X-0103238Y0045776D02*
X-0103151Y0045863D01*
X-0103063Y0045907D01*
X-0102888D01*
X-0102801Y0045863D01*
X-0102713Y0045776D01*
Y0045688D01*
X-0102801Y0045601D01*
X-0102888Y0045557D01*
X-0103063D01*
X-0103151Y0045601D01*
X-0103238Y0045688D01*
Y0045776D01*
Y0046147D02*
Y0046322D01*
Y0046235D02*
X-0102713D01*
X-0102801Y0046322D01*
X-0103063Y0046956D02*
X-0103151D01*
X-0103238Y0046913D01*
Y0046738D01*
X-0103151Y0046694D01*
X-0102713D01*
Y0046650D02*
Y0046825D01*
X-0126464Y0045611D02*
Y0045786D01*
Y0045698D02*
X-0125940D01*
X-0126027Y0045786D01*
X-0126464Y0046114D02*
Y0046289D01*
Y0046201D02*
X-0125940D01*
X-0126027Y0046289D01*
X-0126289Y0046923D02*
X-0126377D01*
X-0126464Y0046879D01*
Y0046704D01*
X-0126377Y0046660D01*
X-0125940D01*
Y0046616D02*
Y0046791D01*
X-0055289Y0046026D02*
Y0046376D01*
X-0054940Y0046201D01*
Y0046114D01*
X-0055464D01*
X-0055289Y0046923D02*
X-0055377D01*
X-0055464Y0046879D01*
Y0046704D01*
X-0055377Y0046660D01*
X-0054940D01*
Y0046616D02*
Y0046791D01*
X-0062377Y0046376D02*
X-0062464Y0046289D01*
Y0046114D01*
X-0062377Y0046026D01*
X-0062289D01*
X-0062115Y0046201D01*
X-0061940Y0046026D01*
Y0046376D01*
X-0062289Y0046923D02*
X-0062377D01*
X-0062464Y0046879D01*
Y0046704D01*
X-0062377Y0046660D01*
X-0061940D01*
Y0046616D02*
Y0046791D01*
X-0052200Y0026431D02*
X-0051850D01*
X-0052200Y0026081D01*
Y0025994D01*
X-0052156Y0025906D01*
X-0051894D01*
X-0051850Y0025994D01*
X-0051304Y0026256D02*
Y0026343D01*
X-0051347Y0026431D01*
X-0051522D01*
X-0051566Y0026343D01*
Y0025906D01*
X-0051610D02*
X-0051435D01*
X-0071202Y0046332D02*
Y0046070D01*
X-0071289Y0046026D01*
X-0071377D01*
X-0071464Y0046070D01*
Y0046332D01*
X-0071377Y0046376D01*
X-0071289D01*
X-0070940Y0046201D01*
X-0071289Y0046923D02*
X-0071377D01*
X-0071464Y0046879D01*
Y0046704D01*
X-0071377Y0046660D01*
X-0070940D01*
Y0046616D02*
Y0046791D01*
X-0135289Y0045523D02*
Y0045873D01*
X-0134940Y0045698D01*
Y0045611D01*
X-0135464D01*
Y0046114D02*
Y0046289D01*
Y0046201D02*
X-0134940D01*
X-0135027Y0046289D01*
X-0135289Y0046923D02*
X-0135377D01*
X-0135464Y0046879D01*
Y0046704D01*
X-0135377Y0046660D01*
X-0134940D01*
Y0046616D02*
Y0046791D01*
X-0151202Y0045830D02*
Y0045567D01*
X-0151289Y0045523D01*
X-0151377D01*
X-0151464Y0045567D01*
Y0045830D01*
X-0151377Y0045873D01*
X-0151289D01*
X-0150940Y0045698D01*
X-0151464Y0046114D02*
Y0046289D01*
Y0046201D02*
X-0150940D01*
X-0151027Y0046289D01*
X-0151289Y0046923D02*
X-0151377D01*
X-0151464Y0046879D01*
Y0046704D01*
X-0151377Y0046660D01*
X-0150940D01*
Y0046616D02*
Y0046791D01*
X-0094464Y0046289D02*
X-0093940Y0046026D01*
Y0046376D01*
X-0094289Y0046923D02*
X-0094377D01*
X-0094464Y0046879D01*
Y0046704D01*
X-0094377Y0046660D01*
X-0093940D01*
Y0046616D02*
Y0046791D01*
X-0109976Y0046104D02*
Y0046366D01*
X-0109888Y0046410D01*
X-0109801D01*
X-0109713Y0046366D01*
Y0046104D01*
X-0109801Y0046060D01*
X-0109888D01*
X-0110238Y0046235D01*
X-0110063Y0046956D02*
X-0110151D01*
X-0110238Y0046913D01*
Y0046738D01*
X-0110151Y0046694D01*
X-0109713D01*
Y0046650D02*
Y0046825D01*
X-0078377Y0046376D02*
X-0078464Y0046332D01*
Y0046070D01*
X-0078377Y0046026D01*
X-0078202D01*
X-0078115Y0046114D01*
Y0046376D01*
X-0077940D01*
Y0046026D01*
X-0078289Y0046923D02*
X-0078377D01*
X-0078464Y0046879D01*
Y0046704D01*
X-0078377Y0046660D01*
X-0077940D01*
Y0046616D02*
Y0046791D01*
G54D47*
G01X-0051642Y0006833D02*
X-0051600Y0006917D01*
Y0007000D01*
X-0051642Y0007083D01*
X-0051892D01*
X-0051933Y0007000D01*
Y0006917D01*
X-0051892Y0006833D01*
X-0051642D01*
X-0051600Y0006750D01*
Y0006667D01*
X-0051642Y0006583D01*
X-0051892D01*
X-0051933Y0006667D01*
Y0006750D01*
X-0051892Y0006833D01*
X-0052175Y0006583D02*
X-0052342D01*
X-0052258D02*
Y0007083D01*
X-0052342Y0007000D01*
X-0052958Y0006750D02*
Y0006667D01*
X-0052917Y0006583D01*
X-0052750D01*
X-0052708Y0006667D01*
Y0007083D01*
X-0052667D02*
X-0052833D01*
M02*
