*
G04 Mass Parameters ***
*
G04 Image ***
*
%INE:\ANALOGEFFECTS\HW\SCHEMATIC\NEW\MASTER SCHEMATIC-9.SMB*%
%ICAS*%
%MOIN*%
%IPPOS*%
%ASAXBY*%
G74*%FSLAN2X34Y34*%
*
G04 Aperture Definitions ***
*
%ADD10C,0.1100*%
%ADD11C,0.0550*%
%ADD12R,0.0550X0.0550*%
%ADD13C,0.0866*%
%ADD14C,0.0580*%
%ADD15R,0.0580X0.0580*%
%ADD16C,0.1496*%
%ADD17C,0.1299*%
%ADD18C,0.0500*%
%ADD19C,0.0550*%
%ADD20C,0.0200*%
%ADD21C,0.0550*%
%ADD22C,0.1000*%
%ADD23R,0.0500X0.0500*%
%ADD24R,0.0400X0.0340*%
%ADD25R,0.0500X0.0340*%
%ADD26O,0.1000X0.0250*%
%ADD27R,0.1000X0.0250*%
%ADD28O,0.0250X0.1000*%
%ADD29R,0.0250X0.1000*%
%ADD30R,0.0880X0.1420*%
%ADD31R,0.0880X0.0480*%
%ADD32C,0.0250*%
%ADD33C,0.1400*%
%ADD34C,0.0750*%
%ADD35R,0.0750X0.0750*%
%ADD36C,0.0780*%
%ADD37R,0.0780X0.0780*%
%ADD38C,0.1299*%
%ADD39C,0.0800*%
%ADD40C,0.1050*%
%ADD41C,0.0925*%
%ADD42C,0.1378*%
%ADD43C,0.0600*%
*
G04 Plot Data ***
*
G54D11*
X-0079000Y0030000D03*
Y0038000D03*
G54D12*
Y0029000D03*
Y0039000D03*
G54D14*
X-0142000Y0035000D03*
X-0143000Y0034000D03*
Y0035000D03*
X-0144000Y0034000D03*
Y0035000D03*
X-0145000Y0034000D03*
Y0035000D03*
X-0146000Y0034000D03*
X-0147000D03*
Y0035000D03*
X-0148000Y0034000D03*
Y0035000D03*
X-0149000Y0034000D03*
Y0035000D03*
X-0150000Y0034000D03*
Y0035000D03*
X-0151000Y0034000D03*
X-0152000D03*
Y0035000D03*
X-0153000Y0034000D03*
Y0035000D03*
X-0154000Y0034000D03*
Y0035000D03*
X-0155000Y0034000D03*
Y0035000D03*
X-0156000Y0034000D03*
X-0157000D03*
Y0035000D03*
X-0158000Y0034000D03*
Y0035000D03*
X-0159000Y0034000D03*
Y0035000D03*
X-0160000Y0034000D03*
Y0035000D03*
X-0161000Y0034000D03*
X-0162000D03*
Y0035000D03*
X-0163000Y0034000D03*
Y0035000D03*
X-0164000Y0034000D03*
Y0035000D03*
X-0142000Y0054000D03*
X-0143000Y0053000D03*
Y0054000D03*
X-0144000Y0053000D03*
Y0054000D03*
X-0145000Y0053000D03*
Y0054000D03*
X-0146000Y0053000D03*
X-0147000D03*
Y0054000D03*
X-0148000Y0053000D03*
Y0054000D03*
X-0149000Y0053000D03*
Y0054000D03*
X-0150000Y0053000D03*
Y0054000D03*
X-0151000Y0053000D03*
X-0152000D03*
Y0054000D03*
X-0153000Y0053000D03*
Y0054000D03*
X-0154000Y0053000D03*
Y0054000D03*
X-0155000Y0053000D03*
Y0054000D03*
X-0156000Y0053000D03*
X-0157000D03*
Y0054000D03*
X-0158000Y0053000D03*
Y0054000D03*
X-0159000Y0053000D03*
Y0054000D03*
X-0160000Y0053000D03*
Y0054000D03*
X-0161000Y0053000D03*
X-0162000D03*
Y0054000D03*
X-0163000Y0053000D03*
Y0054000D03*
X-0164000Y0053000D03*
Y0054000D03*
X-0114000Y0047000D03*
X-0113000D03*
X-0112000D03*
X-0111000D03*
X-0110000D03*
X-0109000D03*
X-0108000D03*
X-0107000D03*
X-0106000D03*
X-0105000D03*
X-0104000D03*
X-0103000D03*
X-0102000D03*
Y0053000D03*
X-0103000D03*
X-0104000D03*
X-0105000D03*
X-0106000D03*
X-0107000D03*
X-0108000D03*
X-0109000D03*
X-0110000D03*
X-0111000D03*
X-0112000D03*
X-0113000D03*
X-0114000D03*
X-0115000D03*
X-0103000Y0028000D03*
X-0104000Y0029000D03*
Y0028000D03*
X-0105000Y0029000D03*
Y0028000D03*
X-0106000Y0029000D03*
Y0028000D03*
X-0107000Y0029000D03*
X-0108000D03*
Y0028000D03*
X-0109000Y0029000D03*
Y0028000D03*
X-0110000Y0029000D03*
Y0028000D03*
X-0111000Y0029000D03*
Y0028000D03*
X-0112000Y0029000D03*
X-0113000D03*
Y0028000D03*
X-0114000Y0029000D03*
Y0028000D03*
X-0115000Y0029000D03*
Y0028000D03*
G54D15*
X-0142000Y0034000D03*
X-0146000Y0035000D03*
X-0151000D03*
X-0156000D03*
X-0161000D03*
X-0142000Y0053000D03*
X-0146000Y0054000D03*
X-0151000D03*
X-0156000D03*
X-0161000D03*
X-0115000Y0047000D03*
X-0103000Y0029000D03*
X-0107000Y0028000D03*
X-0112000D03*
G54D17*
X-0140125Y0034500D03*
Y0053500D03*
X-0165875Y0052300D03*
Y0035700D03*
G54D23*
X-0074000Y0039000D03*
X-0073160D03*
X-0074000Y0042000D03*
X-0073160D03*
X-0081000Y0038840D03*
Y0038000D03*
X-0081420Y0029580D03*
Y0030420D03*
X-0072000Y0035000D03*
Y0034160D03*
X-0070580Y0033420D03*
Y0032580D03*
X-0108000Y0050000D03*
X-0108840D03*
X-0117000Y0037000D03*
Y0036160D03*
X-0100000Y0037000D03*
X-0100840D03*
X-0126000Y0047000D03*
X-0125160D03*
G54D24*
X-0071765Y0042975D03*
Y0042235D03*
X-0071790Y0039740D03*
Y0039000D03*
G54D25*
X-0070975Y0042605D03*
X-0071000Y0039370D03*
G54D26*
X-0123940Y0053060D03*
Y0052560D03*
Y0052060D03*
Y0051560D03*
Y0051060D03*
Y0050560D03*
Y0050060D03*
Y0049560D03*
Y0049060D03*
Y0048560D03*
Y0048060D03*
X-0127560D03*
Y0048560D03*
Y0049060D03*
Y0049560D03*
Y0050060D03*
Y0050560D03*
Y0051060D03*
Y0051560D03*
Y0052060D03*
Y0052560D03*
Y0053060D03*
Y0053560D03*
G54D27*
X-0123940D03*
G54D28*
X-0110500Y0035000D03*
X-0111000D03*
X-0111500D03*
X-0112000D03*
X-0112500D03*
X-0113000D03*
X-0113500D03*
X-0114000D03*
X-0114500D03*
X-0115000D03*
X-0115500D03*
Y0038620D03*
X-0115000D03*
X-0114500D03*
X-0114000D03*
X-0113500D03*
X-0113000D03*
X-0112500D03*
X-0112000D03*
X-0111500D03*
X-0111000D03*
X-0110500D03*
X-0110000D03*
X-0102500Y0035000D03*
X-0103000D03*
X-0103500D03*
X-0104000D03*
X-0104500D03*
X-0105000D03*
X-0105500D03*
X-0106000D03*
X-0106500D03*
X-0107000D03*
X-0107500D03*
Y0038620D03*
X-0107000D03*
X-0106500D03*
X-0106000D03*
X-0105500D03*
X-0105000D03*
X-0104500D03*
X-0104000D03*
X-0103500D03*
X-0103000D03*
X-0102500D03*
X-0102000D03*
G54D29*
X-0110000Y0035000D03*
X-0102000D03*
G54D30*
X-0076120Y0034220D03*
G54D31*
X-0073680Y0035120D03*
Y0034220D03*
Y0033320D03*
G54D40*
X-0062000Y0068000D03*
Y0027000D03*
X-0172000D03*
Y0057000D03*
G54D41*
X-0061870Y0038154D03*
X-0066870D03*
X-0064370D03*
X-0061870Y0042653D03*
X-0064370D03*
X-0066870D03*
X-0161380Y0067096D03*
Y0062096D03*
Y0064596D03*
X-0165880Y0067096D03*
Y0064596D03*
Y0062096D03*
X-0168380Y0067096D03*
Y0062096D03*
Y0064596D03*
X-0172880Y0067096D03*
Y0064596D03*
Y0062096D03*
X-0145380Y0067096D03*
Y0062096D03*
Y0064596D03*
X-0149880Y0067096D03*
Y0064596D03*
Y0062096D03*
X-0152380Y0067096D03*
Y0062096D03*
Y0064596D03*
X-0156880Y0067096D03*
Y0064596D03*
Y0062096D03*
X-0129380Y0067096D03*
Y0062096D03*
Y0064596D03*
X-0133880Y0067096D03*
Y0064596D03*
Y0062096D03*
X-0136380Y0067096D03*
Y0062096D03*
Y0064596D03*
X-0140880Y0067096D03*
Y0064596D03*
Y0062096D03*
X-0113380Y0067096D03*
Y0062096D03*
Y0064596D03*
X-0117880Y0067096D03*
Y0064596D03*
Y0062096D03*
X-0120380Y0067096D03*
Y0062096D03*
Y0064596D03*
X-0124880Y0067096D03*
Y0064596D03*
Y0062096D03*
X-0097380Y0067096D03*
Y0062096D03*
Y0064596D03*
X-0101880Y0067096D03*
Y0064596D03*
Y0062096D03*
X-0104380Y0067096D03*
Y0062096D03*
Y0064596D03*
X-0108880Y0067096D03*
Y0064596D03*
Y0062096D03*
X-0081380Y0067096D03*
Y0062096D03*
Y0064596D03*
X-0085880Y0067096D03*
Y0064596D03*
Y0062096D03*
X-0088380Y0067096D03*
Y0062096D03*
Y0064596D03*
X-0092880Y0067096D03*
Y0064596D03*
Y0062096D03*
X-0065380Y0067096D03*
Y0062096D03*
Y0064596D03*
X-0069880Y0067096D03*
Y0064596D03*
Y0062096D03*
X-0072380Y0067096D03*
Y0062096D03*
Y0064596D03*
X-0076880Y0067096D03*
Y0064596D03*
Y0062096D03*
X-0061870Y0045154D03*
X-0066870D03*
X-0064370D03*
X-0061870Y0049653D03*
X-0064370D03*
X-0066870D03*
X-0061870Y0052154D03*
X-0066870D03*
X-0064370D03*
X-0061870Y0056653D03*
X-0064370D03*
X-0066870D03*
G54D42*
X-0063000Y0033000D03*
X-0065362D03*
X-0064181Y0034968D03*
G54D43*
X-0083250Y0055000D03*
X-0117000Y0044750D03*
X-0126000Y0043500D03*
X-0144000Y0043000D03*
X-0102000Y0041000D03*
X-0109750Y0039750D03*
X-0116500Y0054000D03*
X-0131250Y0055250D03*
X-0079000Y0048000D03*
X-0061750D03*
X-0079000Y0036000D03*
Y0032000D03*
X-0142000Y0036500D03*
X-0102750D03*
X-0110250D03*
X-0117250Y0034750D03*
X-0072250Y0045250D03*
X-0120000Y0044000D03*
X-0113750Y0031750D03*
X-0115750Y0032750D03*
X-0125250Y0048750D03*
X-0121500Y0049750D03*
X-0121250Y0056750D03*
X-0125000D03*
X-0110000Y0031000D03*
X-0109000Y0027000D03*
X-0131500Y0042750D03*
X-0133000Y0057000D03*
X-0128750Y0052500D03*
X-0102500Y0042500D03*
X-0065500Y0053000D03*
X-0148000Y0055000D03*
X-0139000D03*
X-0140500Y0046750D03*
X-0151000Y0052000D03*
X-0131750Y0052250D03*
X-0131000Y0057500D03*
X-0077750Y0037250D03*
X-0162000Y0038000D03*
X-0146500Y0049250D03*
X-0128750Y0053500D03*
X-0118750Y0053250D03*
Y0043000D03*
X-0144000Y0037250D03*
X-0081500Y0036250D03*
X-0141250Y0042000D03*
X-0151000Y0048000D03*
X-0154000Y0058750D03*
X-0124250Y0057750D03*
X-0128000Y0058750D03*
X-0062750Y0061000D03*
X-0134250Y0054750D03*
Y0051750D03*
X-0150000Y0051250D03*
X-0129000Y0047750D03*
X-0125750Y0049500D03*
X-0114250Y0057500D03*
X-0119750D03*
X-0131250Y0053750D03*
X-0136750Y0054250D03*
X-0129000Y0058750D03*
X-0153250Y0059500D03*
X-0132000Y0060500D03*
X-0146250Y0060250D03*
X-0169250Y0049500D03*
X-0126500Y0050250D03*
X-0128750Y0050500D03*
X-0164750Y0051000D03*
X-0126500Y0051250D03*
X-0062750Y0050750D03*
X-0103250Y0043000D03*
X-0111000Y0042750D03*
X-0122750Y0050750D03*
X-0089250Y0051250D03*
X-0110250Y0041500D03*
X-0149250Y0041000D03*
X-0099000Y0041750D03*
X-0107250Y0040250D03*
X-0125750Y0056000D03*
X-0082250Y0056500D03*
X-0077000Y0056250D03*
X-0070000Y0056500D03*
X-0114750Y0040250D03*
X-0108250D03*
X-0108750Y0032500D03*
X-0113000Y0030500D03*
X-0099750Y0061750D03*
X-0093000Y0061000D03*
X-0166750Y0066000D03*
X-0100000Y0065500D03*
X-0099500Y0048000D03*
X-0123500Y0058250D03*
X-0073250Y0059750D03*
X-0066250Y0059000D03*
X-0122750Y0057000D03*
X-0130000Y0055500D03*
X-0130250Y0050250D03*
X-0149000Y0050500D03*
X-0150000Y0057000D03*
X-0142000D03*
X-0141250Y0047500D03*
X-0075000Y0038000D03*
X-0156000Y0039250D03*
X-0106750Y0032750D03*
X-0104500Y0026250D03*
X-0149000Y0055750D03*
X-0135500D03*
X-0135250Y0044250D03*
X-0147000Y0052000D03*
X-0101000Y0031000D03*
X-0105500Y0031500D03*
X-0101000Y0032500D03*
X-0127000Y0034500D03*
X-0138000Y0058250D03*
X-0153000Y0058000D03*
X-0147000Y0056500D03*
X-0138750D03*
X-0138250Y0046500D03*
X-0100250Y0033250D03*
X-0104250D03*
X-0102250Y0033750D03*
X-0103750Y0036000D03*
X-0112500Y0029750D03*
X-0115250Y0031250D03*
X-0107000Y0064500D03*
X-0173000Y0063250D03*
X-0112750Y0027000D03*
X-0118000D03*
Y0041000D03*
X-0115750D03*
X-0125000Y0050000D03*
X-0117250Y0050250D03*
X-0122500Y0058000D03*
X-0096500Y0058750D03*
X-0086000Y0053500D03*
X-0100750Y0046250D03*
X-0098500Y0063500D03*
X-0124750Y0061000D03*
X-0118000D03*
X-0100500Y0060750D03*
X-0116250Y0033500D03*
X-0113250Y0033250D03*
X-0108000Y0060750D03*
X-0140750Y0061000D03*
X-0101250Y0059750D03*
X-0133750Y0060500D03*
X-0133250Y0048250D03*
X-0133750Y0057500D03*
X-0156750Y0057250D03*
X-0101000Y0066250D03*
X-0150750D03*
M02*
