*
G04 Mass Parameters ***
*
G04 Image ***
*
%INE:\ANALOG FX\NEW\MASTER SCHEMATIC-9.AST*%
%ICAS*%
%MOIN*%
%IPPOS*%
%ASAXBY*%
G74*%FSLAN2X34Y34*%
*
G04 Aperture Definitions ***
*
%ADD10C,0.0550*%
%ADD11R,0.0550X0.0550*%
%ADD12C,0.0866*%
%ADD13C,0.0580*%
%ADD14R,0.0580X0.0580*%
%ADD15C,0.1496*%
%ADD16C,0.1299*%
%ADD17C,0.1100*%
%ADD18C,0.0500*%
%ADD19C,0.0550*%
%ADD20C,0.0200*%
%ADD21C,0.0550*%
%ADD22R,0.0500X0.0500*%
%ADD23R,0.0400X0.0340*%
%ADD24R,0.0500X0.0340*%
%ADD25O,0.1000X0.0250*%
%ADD26R,0.1000X0.0250*%
%ADD27O,0.0250X0.1000*%
%ADD28R,0.0250X0.1000*%
%ADD29R,0.0880X0.1420*%
%ADD30R,0.0880X0.0480*%
%ADD31C,0.1000*%
%ADD32C,0.0250*%
%ADD33C,0.0750*%
%ADD34R,0.0750X0.0750*%
%ADD35C,0.0780*%
%ADD36R,0.0780X0.0780*%
%ADD37C,0.1299*%
%ADD38C,0.1400*%
%ADD39C,0.0800*%
%ADD40C,0.0925*%
%ADD41C,0.1378*%
%ADD42C,0.1050*%
%ADD43C,0.0600*%
%ADD44C,0.0080*%
%ADD45C,0.0098*%
%ADD46C,0.0100*%
*
G04 Plot Data ***
*
G54D18*
G01X-0174500Y0069500D02*
X-0059500D01*
Y0023750D01*
X-0174500D01*
Y0069500D01*
G54D44*
G01X-0143607Y0036310D02*
X-0143635Y0036254D01*
Y0036199D01*
X-0143607Y0036143D01*
X-0143441D01*
X-0143413Y0036199D01*
Y0036254D01*
X-0143441Y0036310D01*
X-0143607D01*
X-0143635Y0036365D01*
Y0036421D01*
X-0143607Y0036476D01*
X-0143441D01*
X-0143413Y0036421D01*
Y0036365D01*
X-0143441Y0036310D01*
X-0143225Y0036143D02*
Y0036421D01*
X-0143197Y0036476D01*
X-0143031D01*
X-0143003Y0036421D01*
Y0036143D01*
X-0148944Y0035865D02*
X-0148889D01*
X-0149055Y0035976D02*
X-0148944Y0035865D01*
X-0149055Y0035754D01*
X-0148889Y0035976D02*
Y0035643D01*
X-0148673Y0035754D02*
X-0148507D01*
X-0148479Y0035810D01*
Y0035921D01*
X-0148507Y0035976D01*
X-0148673D01*
X-0148124Y0035754D02*
X-0148235D01*
X-0148263Y0035810D01*
Y0035921D01*
X-0148291Y0035976D01*
X-0148097D01*
X-0148069Y0035921D01*
X-0148097Y0035865D01*
X-0148263D01*
X-0147881Y0035976D02*
X-0147770D01*
X-0147825D02*
Y0035643D01*
X-0147770D01*
X-0147360Y0035976D02*
Y0035643D01*
X-0147332Y0035976D02*
X-0147499D01*
X-0147554Y0035921D01*
Y0035865D01*
X-0147527Y0035810D01*
X-0147360D02*
X-0147527D01*
X-0147554Y0035754D01*
Y0035698D01*
X-0147499Y0035643D01*
X-0147332D01*
X-0146582Y0035976D02*
X-0146415D01*
X-0146387Y0035921D01*
Y0035810D01*
X-0146415Y0035754D01*
X-0146582D01*
X-0146609Y0035810D01*
Y0035865D01*
X-0146387D01*
X-0146199Y0035976D02*
Y0035810D01*
X-0146172Y0035754D01*
X-0146005D01*
Y0035976D01*
X-0145623D02*
X-0145595Y0035921D01*
Y0035810D01*
X-0145623Y0035754D01*
X-0145789D01*
X-0145817Y0035810D01*
Y0035921D01*
X-0145789Y0035976D01*
X-0145623D01*
X-0145213Y0035754D02*
X-0145379D01*
X-0145407Y0035810D01*
Y0035921D01*
X-0145379Y0035976D01*
X-0145213D01*
Y0035643D01*
X-0144997Y0035976D02*
X-0144831D01*
X-0144803Y0035921D01*
Y0035810D01*
X-0144831Y0035754D01*
X-0144997D01*
X-0145025Y0035810D01*
Y0035865D01*
X-0144803D01*
X-0144615Y0035976D02*
X-0144504D01*
X-0144559D02*
Y0035643D01*
X-0144504D01*
X-0144150Y0036087D02*
X-0144261D01*
X-0144288Y0036032D01*
Y0035754D01*
X-0144122D01*
X-0144094Y0035810D01*
Y0035921D01*
X-0144122Y0035976D01*
X-0144288D01*
X-0143740Y0035754D02*
X-0143851D01*
X-0143878Y0035810D01*
Y0035921D01*
X-0143906Y0035976D01*
X-0143712D01*
X-0143684Y0035921D01*
X-0143712Y0035865D01*
X-0143878D01*
X-0143468Y0035976D02*
X-0143302D01*
X-0143274Y0035921D01*
Y0035810D01*
X-0143302Y0035754D01*
X-0143468D01*
X-0143496Y0035810D01*
Y0035865D01*
X-0143274D01*
X-0142892Y0035976D02*
Y0035643D01*
X-0142864Y0035976D02*
X-0143031D01*
X-0143086Y0035921D01*
Y0035865D01*
X-0143058Y0035810D01*
X-0142892D02*
X-0143058D01*
X-0143086Y0035754D01*
Y0035698D01*
X-0143031Y0035643D01*
X-0142864D01*
X-0141282Y0033942D02*
Y0034053D01*
Y0033997D02*
X-0140949D01*
X-0141004Y0034053D01*
X-0141287Y0034899D02*
Y0035121D01*
X-0141065Y0034899D01*
X-0141009D01*
X-0140954Y0034927D01*
Y0035093D01*
X-0141009Y0035121D01*
X-0164841Y0034872D02*
Y0034706D01*
X-0164896Y0034678D01*
X-0164952D01*
X-0165007Y0034706D01*
Y0034872D01*
X-0164952Y0034900D01*
X-0164896D01*
X-0164674Y0034789D01*
X-0164896Y0035088D02*
Y0035310D01*
X-0164674Y0035199D01*
Y0035143D01*
X-0165007D01*
X-0164942Y0033950D02*
X-0164997Y0033922D01*
Y0033756D01*
X-0164942Y0033728D01*
X-0164831D01*
X-0164775Y0033783D01*
Y0033950D01*
X-0164664D01*
Y0033728D01*
X-0164886Y0034138D02*
Y0034360D01*
X-0164664Y0034249D01*
Y0034193D01*
X-0164997D01*
X-0108565Y0050408D02*
X-0108676D01*
X-0108621D02*
Y0050741D01*
X-0108676Y0050685D01*
X-0108919Y0050741D02*
Y0050463D01*
X-0108947Y0050408D01*
X-0109114D01*
X-0109142Y0050463D01*
Y0050741D01*
X-0107036Y0049449D02*
X-0107203D01*
X-0107231Y0049505D01*
Y0049560D01*
X-0107203Y0049616D01*
X-0107036D01*
X-0107008Y0049560D01*
Y0049505D01*
X-0107119Y0049283D01*
X-0107557D02*
X-0107613Y0049338D01*
X-0107641Y0049394D01*
Y0049505D01*
X-0107613Y0049560D01*
X-0107557Y0049616D01*
X-0107502D01*
X-0107446Y0049560D01*
X-0107418Y0049505D01*
Y0049394D01*
X-0107446Y0049338D01*
X-0107502Y0049283D01*
X-0107557D01*
X-0107856Y0049449D02*
X-0107828Y0049505D01*
Y0049560D01*
X-0107856Y0049616D01*
X-0108023D01*
X-0108051Y0049560D01*
Y0049505D01*
X-0108023Y0049449D01*
X-0107856D01*
X-0107828Y0049394D01*
Y0049338D01*
X-0107856Y0049283D01*
X-0108023D01*
X-0108051Y0049338D01*
Y0049394D01*
X-0108023Y0049449D01*
X-0108266D02*
X-0108238Y0049505D01*
Y0049560D01*
X-0108266Y0049616D01*
X-0108433D01*
X-0108461Y0049560D01*
Y0049505D01*
X-0108433Y0049449D01*
X-0108266D01*
X-0108238Y0049394D01*
Y0049338D01*
X-0108266Y0049283D01*
X-0108433D01*
X-0108461Y0049338D01*
Y0049394D01*
X-0108433Y0049449D01*
X-0108759Y0049283D02*
Y0049616D01*
X-0108648D02*
X-0108871D01*
X-0109058Y0049283D02*
Y0049616D01*
X-0109114Y0049560D01*
X-0109169Y0049449D01*
X-0109225Y0049560D01*
X-0109281Y0049616D01*
Y0049283D01*
X-0103625Y0030667D02*
X-0103792Y0030334D01*
X-0103570D01*
X-0103382Y0030667D02*
X-0103271D01*
X-0103326D02*
Y0030334D01*
X-0103271Y0030390D01*
X-0102833Y0030556D02*
Y0030612D01*
X-0102861Y0030667D01*
X-0102972D01*
X-0103000Y0030612D01*
Y0030334D01*
X-0103028D02*
X-0102916D01*
X-0104362Y0030001D02*
X-0104529D01*
X-0104557Y0030056D01*
Y0030112D01*
X-0104529Y0030167D01*
X-0104362D01*
X-0104334Y0030112D01*
Y0030056D01*
X-0104445Y0029834D01*
X-0104147Y0030167D02*
X-0103924D01*
X-0104147Y0029945D01*
Y0029889D01*
X-0104119Y0029834D01*
X-0103952D01*
X-0103924Y0029889D01*
X-0103737Y0029834D02*
Y0030167D01*
X-0103681Y0030112D01*
X-0103570Y0029889D01*
X-0103514Y0029834D01*
Y0030167D01*
X-0103132D02*
X-0103104Y0030112D01*
Y0029889D01*
X-0103132Y0029834D01*
X-0103299D01*
X-0103327Y0029889D01*
Y0030112D01*
X-0103299Y0030167D01*
X-0103132D01*
X-0102917Y0030112D02*
X-0102889Y0030167D01*
X-0102722D01*
X-0102694Y0030112D01*
Y0029889D01*
X-0102722Y0029834D01*
X-0102889D01*
X-0102917Y0029889D01*
X-0102055Y0029167D02*
X-0101944D01*
X-0102000D02*
Y0028834D01*
X-0101944Y0028890D01*
X-0102111Y0028167D02*
X-0101889D01*
X-0102111Y0027945D01*
Y0027889D01*
X-0102083Y0027834D01*
X-0101917D01*
X-0101889Y0027889D01*
X-0116438Y0028001D02*
X-0116604D01*
X-0116632Y0028056D01*
Y0028112D01*
X-0116604Y0028167D01*
X-0116438D01*
X-0116410Y0028112D01*
Y0028056D01*
X-0116521Y0027834D01*
X-0116222Y0028167D02*
X-0116000D01*
X-0116222Y0027945D01*
Y0027889D01*
X-0116194Y0027834D01*
X-0116028D01*
X-0116000Y0027889D01*
X-0116410Y0029112D02*
X-0116438Y0029167D01*
X-0116604D01*
X-0116632Y0029112D01*
Y0029001D01*
X-0116576Y0028945D01*
X-0116410D01*
Y0028834D01*
X-0116632D01*
X-0116222Y0029167D02*
X-0116000D01*
X-0116222Y0028945D01*
Y0028890D01*
X-0116194Y0028834D01*
X-0116028D01*
X-0116000Y0028890D01*
X-0079683Y0029514D02*
Y0029292D01*
X-0079905Y0029514D01*
X-0079960D01*
X-0080016Y0029487D01*
Y0029320D01*
X-0079960Y0029292D01*
X-0079738Y0029104D02*
X-0079683Y0029077D01*
Y0028910D01*
X-0079738Y0028882D01*
X-0079960D01*
X-0080016Y0028910D01*
Y0029077D01*
X-0079960Y0029104D01*
X-0078424Y0029594D02*
X-0078201D01*
Y0029622D02*
Y0029427D01*
X-0078257Y0029399D01*
X-0078424D01*
X-0078201Y0029045D02*
X-0078535Y0029212D01*
Y0028989D01*
X-0078313Y0028802D02*
Y0028579D01*
X-0078535Y0028690D01*
Y0028746D01*
X-0078201D01*
X-0078317Y0038541D02*
Y0038652D01*
Y0038597D02*
X-0077984D01*
X-0078039Y0038652D01*
X-0078262Y0038895D02*
X-0078317Y0038923D01*
Y0039090D01*
X-0078262Y0039118D01*
X-0078039D01*
X-0077984Y0039090D01*
Y0038923D01*
X-0078039Y0038895D01*
X-0079576Y0038406D02*
X-0079798D01*
Y0038378D02*
Y0038573D01*
X-0079743Y0038601D01*
X-0079576D01*
X-0079798Y0038955D02*
X-0079465Y0038788D01*
Y0039011D01*
X-0079687Y0039198D02*
Y0039421D01*
X-0079465Y0039309D01*
Y0039254D01*
X-0079798D01*
X-0141282Y0052952D02*
Y0053063D01*
Y0053007D02*
X-0140949D01*
X-0141004Y0053063D01*
X-0141287Y0053909D02*
Y0054131D01*
X-0141065Y0053909D01*
X-0141009D01*
X-0140954Y0053937D01*
Y0054103D01*
X-0141009Y0054131D01*
X-0115500Y0049500D02*
Y0050500D01*
Y0052500D01*
X-0101500D01*
Y0047500D01*
X-0115500D01*
Y0049500D01*
X-0115250D01*
Y0050500D01*
X-0115500D01*
X-0102500Y0027500D02*
X-0115500D01*
Y0029500D01*
X-0102500D01*
Y0027500D01*
X-0164460Y0035490D02*
Y0033490D01*
X-0141460D01*
Y0035490D01*
X-0164460D01*
X-0164490Y0054510D02*
Y0052510D01*
X-0141490D01*
Y0054510D01*
X-0164490D01*
G01X-0079000Y0028000D02*
G03X-0077500Y0029500I0000000J0001500D01*
G03X-0079000Y0031000I0001500J0000000D01*
G03X-0080500Y0029500I0000000J0001500D01*
G03X-0079000Y0028000I0001500J0000000D01*
Y0040000D02*
G03X-0080500Y0038500I0000000J0001500D01*
G03X-0079000Y0037000I0001500J0000000D01*
G03X-0077500Y0038500I0000000J0001500D01*
G03X-0079000Y0040000I0001500J0000000D01*
G54D45*
G01X-0063162Y0053779D02*
Y0053254D01*
X-0063337D02*
X-0062987D01*
X-0062747D02*
Y0053692D01*
X-0062703Y0053779D01*
X-0062441D01*
X-0062397Y0053692D01*
Y0053254D01*
X-0061807Y0053517D02*
X-0062069D01*
X-0062157Y0053429D01*
Y0053342D01*
X-0062069Y0053254D01*
X-0061807D01*
Y0053779D01*
X-0061566Y0053254D02*
Y0053779D01*
X-0061479Y0053692D01*
X-0061304Y0053342D01*
X-0061216Y0053254D01*
Y0053779D01*
X-0060976D02*
X-0060801D01*
X-0060889D02*
Y0053254D01*
X-0060976D02*
X-0060801D01*
X-0060853Y0051238D02*
X-0060678D01*
X-0060765D02*
Y0050713D01*
X-0060678Y0050801D01*
X-0060044Y0051063D02*
Y0051151D01*
X-0060087Y0051238D01*
X-0060262D01*
X-0060306Y0051151D01*
Y0050713D01*
X-0060350D02*
X-0060175D01*
X-0153481Y0063311D02*
X-0154005D01*
X-0153918Y0063399D01*
X-0153568Y0063574D01*
X-0153481Y0063661D01*
X-0154005D01*
Y0063902D02*
Y0064077D01*
Y0063989D02*
X-0153481D01*
Y0063902D02*
Y0064077D01*
X-0154180Y0064404D02*
Y0064754D01*
X-0153743Y0065301D02*
Y0065039D01*
X-0153830Y0064995D01*
X-0153918D01*
X-0154005Y0065039D01*
Y0065301D01*
X-0153918Y0065345D01*
X-0153830D01*
X-0153481Y0065170D01*
X-0154005Y0065585D02*
Y0065891D01*
X-0153481D01*
X-0153830Y0066132D02*
Y0066482D01*
X-0154005Y0066132D02*
X-0153743D01*
X-0153481Y0066263D01*
Y0066350D01*
X-0153743Y0066482D01*
X-0154005D01*
Y0067028D02*
X-0153481D01*
X-0154005Y0067072D02*
Y0066809D01*
X-0153830Y0066722D01*
X-0153656D01*
X-0153481Y0066809D01*
Y0067072D01*
X-0153743Y0067400D02*
Y0067662D01*
X-0154005Y0067312D02*
Y0067662D01*
X-0153481D01*
Y0067312D01*
X-0153743Y0068253D02*
Y0067990D01*
X-0153656Y0067903D01*
X-0153568D01*
X-0153481Y0067990D01*
Y0068253D01*
X-0154005D01*
X-0151377Y0067873D02*
X-0151464Y0067786D01*
Y0067611D01*
X-0151377Y0067523D01*
X-0151289D01*
X-0151115Y0067698D01*
X-0150940Y0067523D01*
Y0067873D01*
X-0151464Y0068114D02*
Y0068289D01*
Y0068201D02*
X-0150940D01*
X-0151027Y0068289D01*
X-0151289Y0068923D02*
X-0151377D01*
X-0151464Y0068879D01*
Y0068704D01*
X-0151377Y0068660D01*
X-0150940D01*
Y0068616D02*
Y0068791D01*
X-0062528Y0039517D02*
X-0062791D01*
X-0062835Y0039604D01*
Y0039692D01*
X-0062791Y0039779D01*
X-0062528D01*
X-0062485Y0039692D01*
Y0039604D01*
X-0062660Y0039254D01*
X-0062244D02*
Y0039779D01*
X-0062157Y0039692D01*
X-0061982Y0039342D01*
X-0061894Y0039254D01*
Y0039779D01*
X-0061348D02*
X-0061304Y0039692D01*
Y0039342D01*
X-0061348Y0039254D01*
X-0061610D01*
X-0061654Y0039342D01*
Y0039692D01*
X-0061610Y0039779D01*
X-0061348D01*
X-0061064Y0039692D02*
X-0061020Y0039779D01*
X-0060757D01*
X-0060714Y0039692D01*
Y0039342D01*
X-0060757Y0039254D01*
X-0061020D01*
X-0061064Y0039342D01*
X-0061312Y0037238D02*
X-0061224Y0037151D01*
X-0061180Y0037063D01*
Y0036888D01*
X-0061224Y0036801D01*
X-0061312Y0036713D01*
X-0061399D01*
X-0061487Y0036801D01*
X-0061530Y0036888D01*
Y0037063D01*
X-0061487Y0037151D01*
X-0061399Y0037238D01*
X-0061312D01*
X-0060940D02*
X-0060590D01*
X-0060940Y0036888D01*
Y0036801D01*
X-0060896Y0036713D01*
X-0060634D01*
X-0060590Y0036801D01*
X-0060044Y0037063D02*
Y0037151D01*
X-0060087Y0037238D01*
X-0060262D01*
X-0060306Y0037151D01*
Y0036713D01*
X-0060350D02*
X-0060175D01*
X-0169481Y0063311D02*
X-0170005D01*
X-0169918Y0063399D01*
X-0169568Y0063574D01*
X-0169481Y0063661D01*
X-0170005D01*
Y0063902D02*
Y0064077D01*
Y0063989D02*
X-0169481D01*
Y0063902D02*
Y0064077D01*
X-0170180Y0064404D02*
Y0064754D01*
X-0170005Y0065257D02*
X-0169481Y0064995D01*
Y0065345D01*
X-0170005Y0065585D02*
Y0065891D01*
X-0169481D01*
X-0169830Y0066132D02*
Y0066482D01*
X-0170005Y0066132D02*
X-0169743D01*
X-0169481Y0066263D01*
Y0066350D01*
X-0169743Y0066482D01*
X-0170005D01*
Y0067028D02*
X-0169481D01*
X-0170005Y0067072D02*
Y0066809D01*
X-0169830Y0066722D01*
X-0169656D01*
X-0169481Y0066809D01*
Y0067072D01*
X-0169743Y0067400D02*
Y0067662D01*
X-0170005Y0067312D02*
Y0067662D01*
X-0169481D01*
Y0067312D01*
X-0169743Y0068253D02*
Y0067990D01*
X-0169656Y0067903D01*
X-0169568D01*
X-0169481Y0067990D01*
Y0068253D01*
X-0170005D01*
X-0167377Y0067873D02*
X-0167464Y0067830D01*
Y0067567D01*
X-0167377Y0067523D01*
X-0167202D01*
X-0167115Y0067611D01*
Y0067873D01*
X-0166940D01*
Y0067523D01*
X-0167464Y0068114D02*
Y0068289D01*
Y0068201D02*
X-0166940D01*
X-0167027Y0068289D01*
X-0167289Y0068923D02*
X-0167377D01*
X-0167464Y0068879D01*
Y0068704D01*
X-0167377Y0068660D01*
X-0166940D01*
Y0068616D02*
Y0068791D01*
X-0099005Y0062808D02*
X-0098481D01*
Y0062633D02*
Y0062983D01*
Y0063224D02*
X-0098918D01*
X-0099005Y0063268D01*
Y0063530D01*
X-0098918Y0063574D01*
X-0098481D01*
X-0099005Y0064120D02*
X-0098918Y0064164D01*
X-0098568D01*
X-0098481Y0064120D01*
Y0063858D01*
X-0098568Y0063814D01*
X-0098918D01*
X-0099005Y0063858D01*
Y0064120D01*
X-0099180Y0064404D02*
Y0064754D01*
X-0098918Y0065345D02*
X-0099005Y0065257D01*
Y0065082D01*
X-0098918Y0064995D01*
X-0098830D01*
X-0098656Y0065170D01*
X-0098481Y0064995D01*
Y0065345D01*
X-0099005Y0065585D02*
Y0065891D01*
X-0098481D01*
X-0098830Y0066132D02*
Y0066482D01*
X-0099005Y0066132D02*
X-0098743D01*
X-0098481Y0066263D01*
Y0066350D01*
X-0098743Y0066482D01*
X-0099005D01*
Y0067028D02*
X-0098481D01*
X-0099005Y0067072D02*
Y0066809D01*
X-0098830Y0066722D01*
X-0098656D01*
X-0098481Y0066809D01*
Y0067072D01*
X-0098743Y0067400D02*
Y0067662D01*
X-0099005Y0067312D02*
Y0067662D01*
X-0098481D01*
Y0067312D01*
X-0098743Y0068253D02*
Y0067990D01*
X-0098656Y0067903D01*
X-0098568D01*
X-0098481Y0067990D01*
Y0068253D01*
X-0099005D01*
X-0096202Y0068070D02*
X-0096115Y0068026D01*
X-0096027D01*
X-0095940Y0068070D01*
Y0068332D01*
X-0096027Y0068376D01*
X-0096115D01*
X-0096202Y0068332D01*
Y0068070D01*
X-0096289Y0068026D01*
X-0096377D01*
X-0096464Y0068070D01*
Y0068332D01*
X-0096377Y0068376D01*
X-0096289D01*
X-0096202Y0068332D01*
X-0096289Y0068923D02*
X-0096377D01*
X-0096464Y0068879D01*
Y0068704D01*
X-0096377Y0068660D01*
X-0095940D01*
Y0068616D02*
Y0068791D01*
X-0131005Y0062808D02*
X-0130481D01*
Y0062633D02*
Y0062983D01*
Y0063224D02*
X-0130918D01*
X-0131005Y0063268D01*
Y0063530D01*
X-0130918Y0063574D01*
X-0130481D01*
X-0131005Y0064120D02*
X-0130918Y0064164D01*
X-0130568D01*
X-0130481Y0064120D01*
Y0063858D01*
X-0130568Y0063814D01*
X-0130918D01*
X-0131005Y0063858D01*
Y0064120D01*
X-0131180Y0064404D02*
Y0064754D01*
X-0130918Y0065345D02*
X-0131005Y0065301D01*
Y0065039D01*
X-0130918Y0064995D01*
X-0130743D01*
X-0130656Y0065082D01*
Y0065345D01*
X-0130481D01*
Y0064995D01*
X-0131005Y0065585D02*
Y0065891D01*
X-0130481D01*
X-0130830Y0066132D02*
Y0066482D01*
X-0131005Y0066132D02*
X-0130743D01*
X-0130481Y0066263D01*
Y0066350D01*
X-0130743Y0066482D01*
X-0131005D01*
Y0067028D02*
X-0130481D01*
X-0131005Y0067072D02*
Y0066809D01*
X-0130830Y0066722D01*
X-0130656D01*
X-0130481Y0066809D01*
Y0067072D01*
X-0130743Y0067400D02*
Y0067662D01*
X-0131005Y0067312D02*
Y0067662D01*
X-0130481D01*
Y0067312D01*
X-0130743Y0068253D02*
Y0067990D01*
X-0130656Y0067903D01*
X-0130568D01*
X-0130481Y0067990D01*
Y0068253D01*
X-0131005D01*
X-0128464Y0067523D02*
Y0067873D01*
X-0128115Y0067523D01*
X-0128027D01*
X-0127940Y0067567D01*
Y0067830D01*
X-0128027Y0067873D01*
X-0128464Y0068114D02*
Y0068289D01*
Y0068201D02*
X-0127940D01*
X-0128027Y0068289D01*
X-0128289Y0068923D02*
X-0128377D01*
X-0128464Y0068879D01*
Y0068704D01*
X-0128377Y0068660D01*
X-0127940D01*
Y0068616D02*
Y0068791D01*
X-0115005Y0062808D02*
X-0114481D01*
Y0062633D02*
Y0062983D01*
Y0063224D02*
X-0114918D01*
X-0115005Y0063268D01*
Y0063530D01*
X-0114918Y0063574D01*
X-0114481D01*
X-0115005Y0064120D02*
X-0114918Y0064164D01*
X-0114568D01*
X-0114481Y0064120D01*
Y0063858D01*
X-0114568Y0063814D01*
X-0114918D01*
X-0115005Y0063858D01*
Y0064120D01*
X-0115180Y0064404D02*
Y0064754D01*
X-0114830Y0064995D02*
Y0065345D01*
X-0114481Y0065170D01*
Y0065082D01*
X-0115005D01*
Y0065585D02*
Y0065891D01*
X-0114481D01*
X-0114830Y0066132D02*
Y0066482D01*
X-0115005Y0066132D02*
X-0114743D01*
X-0114481Y0066263D01*
Y0066350D01*
X-0114743Y0066482D01*
X-0115005D01*
Y0067028D02*
X-0114481D01*
X-0115005Y0067072D02*
Y0066809D01*
X-0114830Y0066722D01*
X-0114656D01*
X-0114481Y0066809D01*
Y0067072D01*
X-0114743Y0067400D02*
Y0067662D01*
X-0115005Y0067312D02*
Y0067662D01*
X-0114481D01*
Y0067312D01*
X-0114743Y0068253D02*
Y0067990D01*
X-0114656Y0067903D01*
X-0114568D01*
X-0114481Y0067990D01*
Y0068253D01*
X-0115005D01*
X-0112464Y0067742D02*
X-0112377Y0067830D01*
X-0112289Y0067873D01*
X-0112115D01*
X-0112027Y0067830D01*
X-0111940Y0067742D01*
Y0067655D01*
X-0112027Y0067567D01*
X-0112115Y0067523D01*
X-0112289D01*
X-0112377Y0067567D01*
X-0112464Y0067655D01*
Y0067742D01*
Y0068114D02*
Y0068289D01*
Y0068201D02*
X-0111940D01*
X-0112027Y0068289D01*
X-0112289Y0068923D02*
X-0112377D01*
X-0112464Y0068879D01*
Y0068704D01*
X-0112377Y0068660D01*
X-0111940D01*
Y0068616D02*
Y0068791D01*
X-0137481Y0063311D02*
X-0138005D01*
X-0137918Y0063399D01*
X-0137568Y0063574D01*
X-0137481Y0063661D01*
X-0138005D01*
Y0063902D02*
Y0064077D01*
Y0063989D02*
X-0137481D01*
Y0063902D02*
Y0064077D01*
X-0138180Y0064404D02*
Y0064754D01*
X-0137918Y0065345D02*
X-0138005Y0065301D01*
Y0065039D01*
X-0137918Y0064995D01*
X-0137743D01*
X-0137656Y0065082D01*
Y0065345D01*
X-0137481D01*
Y0064995D01*
X-0138005Y0065585D02*
Y0065891D01*
X-0137481D01*
X-0137830Y0066132D02*
Y0066482D01*
X-0138005Y0066132D02*
X-0137743D01*
X-0137481Y0066263D01*
Y0066350D01*
X-0137743Y0066482D01*
X-0138005D01*
Y0067028D02*
X-0137481D01*
X-0138005Y0067072D02*
Y0066809D01*
X-0137830Y0066722D01*
X-0137656D01*
X-0137481Y0066809D01*
Y0067072D01*
X-0137743Y0067400D02*
Y0067662D01*
X-0138005Y0067312D02*
Y0067662D01*
X-0137481D01*
Y0067312D01*
X-0137743Y0068253D02*
Y0067990D01*
X-0137656Y0067903D01*
X-0137568D01*
X-0137481Y0067990D01*
Y0068253D01*
X-0138005D01*
X-0135464Y0067611D02*
Y0067786D01*
Y0067698D02*
X-0134940D01*
X-0135027Y0067786D01*
X-0135464Y0068114D02*
Y0068289D01*
Y0068201D02*
X-0134940D01*
X-0135027Y0068289D01*
X-0135289Y0068923D02*
X-0135377D01*
X-0135464Y0068879D01*
Y0068704D01*
X-0135377Y0068660D01*
X-0134940D01*
Y0068616D02*
Y0068791D01*
X-0067005Y0062896D02*
X-0066481D01*
Y0062721D02*
Y0063071D01*
Y0063311D02*
X-0066918D01*
X-0067005Y0063355D01*
Y0063618D01*
X-0066918Y0063661D01*
X-0066481D01*
X-0067005Y0064208D02*
X-0066918Y0064252D01*
X-0066568D01*
X-0066481Y0064208D01*
Y0063945D01*
X-0066568Y0063902D01*
X-0066918D01*
X-0067005Y0063945D01*
Y0064208D01*
X-0067180Y0064492D02*
Y0064842D01*
X-0067005Y0065082D02*
Y0065257D01*
Y0065170D02*
X-0066481D01*
X-0066568Y0065257D01*
X-0067005Y0065585D02*
Y0065891D01*
X-0066481D01*
X-0066830Y0066132D02*
Y0066482D01*
X-0067005Y0066132D02*
X-0066743D01*
X-0066481Y0066263D01*
Y0066350D01*
X-0066743Y0066482D01*
X-0067005D01*
Y0067028D02*
X-0066481D01*
X-0067005Y0067072D02*
Y0066809D01*
X-0066830Y0066722D01*
X-0066656D01*
X-0066481Y0066809D01*
Y0067072D01*
X-0066743Y0067400D02*
Y0067662D01*
X-0067005Y0067312D02*
Y0067662D01*
X-0066481D01*
Y0067312D01*
X-0066743Y0068253D02*
Y0067990D01*
X-0066656Y0067903D01*
X-0066568D01*
X-0066481Y0067990D01*
Y0068253D01*
X-0067005D01*
X-0064289Y0068026D02*
Y0068376D01*
X-0063940Y0068201D01*
Y0068114D01*
X-0064464D01*
X-0064289Y0068923D02*
X-0064377D01*
X-0064464Y0068879D01*
Y0068704D01*
X-0064377Y0068660D01*
X-0063940D01*
Y0068616D02*
Y0068791D01*
X-0073481Y0063399D02*
X-0074005D01*
X-0073918Y0063486D01*
X-0073568Y0063661D01*
X-0073481Y0063749D01*
X-0074005D01*
Y0063989D02*
Y0064164D01*
Y0064077D02*
X-0073481D01*
Y0063989D02*
Y0064164D01*
X-0074180Y0064492D02*
Y0064842D01*
X-0074005Y0065082D02*
Y0065257D01*
Y0065170D02*
X-0073481D01*
X-0073568Y0065257D01*
X-0074005Y0065585D02*
Y0065891D01*
X-0073481D01*
X-0073830Y0066132D02*
Y0066482D01*
X-0074005Y0066132D02*
X-0073743D01*
X-0073481Y0066263D01*
Y0066350D01*
X-0073743Y0066482D01*
X-0074005D01*
Y0067028D02*
X-0073481D01*
X-0074005Y0067072D02*
Y0066809D01*
X-0073830Y0066722D01*
X-0073656D01*
X-0073481Y0066809D01*
Y0067072D01*
X-0073743Y0067400D02*
Y0067662D01*
X-0074005Y0067312D02*
Y0067662D01*
X-0073481D01*
Y0067312D01*
X-0073743Y0068253D02*
Y0067990D01*
X-0073656Y0067903D01*
X-0073568D01*
X-0073481Y0067990D01*
Y0068253D01*
X-0074005D01*
X-0071377Y0068376D02*
X-0071464Y0068289D01*
Y0068114D01*
X-0071377Y0068026D01*
X-0071289D01*
X-0071115Y0068201D01*
X-0070940Y0068026D01*
Y0068376D01*
X-0071289Y0068923D02*
X-0071377D01*
X-0071464Y0068879D01*
Y0068704D01*
X-0071377Y0068660D01*
X-0070940D01*
Y0068616D02*
Y0068791D01*
X-0063840Y0046779D02*
Y0046254D01*
X-0064015D02*
X-0063665D01*
X-0063425D02*
Y0046692D01*
X-0063381Y0046779D01*
X-0063119D01*
X-0063075Y0046692D01*
Y0046254D01*
X-0062485Y0046517D02*
X-0062747D01*
X-0062835Y0046429D01*
Y0046342D01*
X-0062747Y0046254D01*
X-0062485D01*
Y0046779D01*
X-0062069D02*
Y0046254D01*
X-0062244D02*
X-0061894D01*
X-0061654D02*
Y0046692D01*
X-0061610Y0046779D01*
X-0061348D01*
X-0061304Y0046692D01*
Y0046254D01*
X-0060757Y0046779D02*
X-0060714Y0046692D01*
Y0046342D01*
X-0060757Y0046254D01*
X-0061020D01*
X-0061064Y0046342D01*
Y0046692D01*
X-0061020Y0046779D01*
X-0060757D01*
X-0060940Y0044238D02*
X-0060590D01*
X-0060940Y0043888D01*
Y0043801D01*
X-0060896Y0043713D01*
X-0060634D01*
X-0060590Y0043801D01*
X-0060044Y0044063D02*
Y0044151D01*
X-0060087Y0044238D01*
X-0060262D01*
X-0060306Y0044151D01*
Y0043713D01*
X-0060350D02*
X-0060175D01*
X-0083005Y0062808D02*
X-0082481D01*
Y0062633D02*
Y0062983D01*
Y0063224D02*
X-0082918D01*
X-0083005Y0063268D01*
Y0063530D01*
X-0082918Y0063574D01*
X-0082481D01*
X-0083005Y0064120D02*
X-0082918Y0064164D01*
X-0082568D01*
X-0082481Y0064120D01*
Y0063858D01*
X-0082568Y0063814D01*
X-0082918D01*
X-0083005Y0063858D01*
Y0064120D01*
X-0083180Y0064404D02*
Y0064754D01*
X-0083005Y0064995D02*
Y0065345D01*
X-0082656Y0064995D01*
X-0082568D01*
X-0082481Y0065039D01*
Y0065301D01*
X-0082568Y0065345D01*
X-0083005Y0065585D02*
Y0065891D01*
X-0082481D01*
X-0082830Y0066132D02*
Y0066482D01*
X-0083005Y0066132D02*
X-0082743D01*
X-0082481Y0066263D01*
Y0066350D01*
X-0082743Y0066482D01*
X-0083005D01*
Y0067028D02*
X-0082481D01*
X-0083005Y0067072D02*
Y0066809D01*
X-0082830Y0066722D01*
X-0082656D01*
X-0082481Y0066809D01*
Y0067072D01*
X-0082743Y0067400D02*
Y0067662D01*
X-0083005Y0067312D02*
Y0067662D01*
X-0082481D01*
Y0067312D01*
X-0082743Y0068253D02*
Y0067990D01*
X-0082656Y0067903D01*
X-0082568D01*
X-0082481Y0067990D01*
Y0068253D01*
X-0083005D01*
X-0080202Y0068332D02*
Y0068070D01*
X-0080289Y0068026D01*
X-0080377D01*
X-0080464Y0068070D01*
Y0068332D01*
X-0080377Y0068376D01*
X-0080289D01*
X-0079940Y0068201D01*
X-0080289Y0068923D02*
X-0080377D01*
X-0080464Y0068879D01*
Y0068704D01*
X-0080377Y0068660D01*
X-0079940D01*
Y0068616D02*
Y0068791D01*
X-0147005Y0062808D02*
X-0146481D01*
Y0062633D02*
Y0062983D01*
Y0063224D02*
X-0146918D01*
X-0147005Y0063268D01*
Y0063530D01*
X-0146918Y0063574D01*
X-0146481D01*
X-0147005Y0064120D02*
X-0146918Y0064164D01*
X-0146568D01*
X-0146481Y0064120D01*
Y0063858D01*
X-0146568Y0063814D01*
X-0146918D01*
X-0147005Y0063858D01*
Y0064120D01*
X-0147180Y0064404D02*
Y0064754D01*
X-0146743Y0065301D02*
Y0065039D01*
X-0146830Y0064995D01*
X-0146918D01*
X-0147005Y0065039D01*
Y0065301D01*
X-0146918Y0065345D01*
X-0146830D01*
X-0146481Y0065170D01*
X-0147005Y0065585D02*
Y0065891D01*
X-0146481D01*
X-0146830Y0066132D02*
Y0066482D01*
X-0147005Y0066132D02*
X-0146743D01*
X-0146481Y0066263D01*
Y0066350D01*
X-0146743Y0066482D01*
X-0147005D01*
Y0067028D02*
X-0146481D01*
X-0147005Y0067072D02*
Y0066809D01*
X-0146830Y0066722D01*
X-0146656D01*
X-0146481Y0066809D01*
Y0067072D01*
X-0146743Y0067400D02*
Y0067662D01*
X-0147005Y0067312D02*
Y0067662D01*
X-0146481D01*
Y0067312D01*
X-0146743Y0068253D02*
Y0067990D01*
X-0146656Y0067903D01*
X-0146568D01*
X-0146481Y0067990D01*
Y0068253D01*
X-0147005D01*
X-0144289Y0067523D02*
Y0067873D01*
X-0143940Y0067698D01*
Y0067611D01*
X-0144464D01*
Y0068114D02*
Y0068289D01*
Y0068201D02*
X-0143940D01*
X-0144027Y0068289D01*
X-0144289Y0068923D02*
X-0144377D01*
X-0144464Y0068879D01*
Y0068704D01*
X-0144377Y0068660D01*
X-0143940D01*
Y0068616D02*
Y0068791D01*
X-0163005Y0062808D02*
X-0162481D01*
Y0062633D02*
Y0062983D01*
Y0063224D02*
X-0162918D01*
X-0163005Y0063268D01*
Y0063530D01*
X-0162918Y0063574D01*
X-0162481D01*
X-0163005Y0064120D02*
X-0162918Y0064164D01*
X-0162568D01*
X-0162481Y0064120D01*
Y0063858D01*
X-0162568Y0063814D01*
X-0162918D01*
X-0163005Y0063858D01*
Y0064120D01*
X-0163180Y0064404D02*
Y0064754D01*
X-0163005Y0065257D02*
X-0162481Y0064995D01*
Y0065345D01*
X-0163005Y0065585D02*
Y0065891D01*
X-0162481D01*
X-0162830Y0066132D02*
Y0066482D01*
X-0163005Y0066132D02*
X-0162743D01*
X-0162481Y0066263D01*
Y0066350D01*
X-0162743Y0066482D01*
X-0163005D01*
Y0067028D02*
X-0162481D01*
X-0163005Y0067072D02*
Y0066809D01*
X-0162830Y0066722D01*
X-0162656D01*
X-0162481Y0066809D01*
Y0067072D01*
X-0162743Y0067400D02*
Y0067662D01*
X-0163005Y0067312D02*
Y0067662D01*
X-0162481D01*
Y0067312D01*
X-0162743Y0068253D02*
Y0067990D01*
X-0162656Y0067903D01*
X-0162568D01*
X-0162481Y0067990D01*
Y0068253D01*
X-0163005D01*
X-0160202Y0067830D02*
Y0067567D01*
X-0160289Y0067523D01*
X-0160377D01*
X-0160464Y0067567D01*
Y0067830D01*
X-0160377Y0067873D01*
X-0160289D01*
X-0159940Y0067698D01*
X-0160464Y0068114D02*
Y0068289D01*
Y0068201D02*
X-0159940D01*
X-0160027Y0068289D01*
X-0160289Y0068923D02*
X-0160377D01*
X-0160464Y0068879D01*
Y0068704D01*
X-0160377Y0068660D01*
X-0159940D01*
Y0068616D02*
Y0068791D01*
X-0105481Y0063311D02*
X-0106005D01*
X-0105918Y0063399D01*
X-0105568Y0063574D01*
X-0105481Y0063661D01*
X-0106005D01*
Y0063902D02*
Y0064077D01*
Y0063989D02*
X-0105481D01*
Y0063902D02*
Y0064077D01*
X-0106180Y0064404D02*
Y0064754D01*
X-0105918Y0065345D02*
X-0106005Y0065257D01*
Y0065082D01*
X-0105918Y0064995D01*
X-0105830D01*
X-0105656Y0065170D01*
X-0105481Y0064995D01*
Y0065345D01*
X-0106005Y0065585D02*
Y0065891D01*
X-0105481D01*
X-0105830Y0066132D02*
Y0066482D01*
X-0106005Y0066132D02*
X-0105743D01*
X-0105481Y0066263D01*
Y0066350D01*
X-0105743Y0066482D01*
X-0106005D01*
Y0067028D02*
X-0105481D01*
X-0106005Y0067072D02*
Y0066809D01*
X-0105830Y0066722D01*
X-0105656D01*
X-0105481Y0066809D01*
Y0067072D01*
X-0105743Y0067400D02*
Y0067662D01*
X-0106005Y0067312D02*
Y0067662D01*
X-0105481D01*
Y0067312D01*
X-0105743Y0068253D02*
Y0067990D01*
X-0105656Y0067903D01*
X-0105568D01*
X-0105481Y0067990D01*
Y0068253D01*
X-0106005D01*
X-0103464Y0068289D02*
X-0102940Y0068026D01*
Y0068376D01*
X-0103289Y0068923D02*
X-0103377D01*
X-0103464Y0068879D01*
Y0068704D01*
X-0103377Y0068660D01*
X-0102940D01*
Y0068616D02*
Y0068791D01*
X-0121481Y0063311D02*
X-0122005D01*
X-0121918Y0063399D01*
X-0121568Y0063574D01*
X-0121481Y0063661D01*
X-0122005D01*
Y0063902D02*
Y0064077D01*
Y0063989D02*
X-0121481D01*
Y0063902D02*
Y0064077D01*
X-0122180Y0064404D02*
Y0064754D01*
X-0121830Y0064995D02*
Y0065345D01*
X-0121481Y0065170D01*
Y0065082D01*
X-0122005D01*
Y0065585D02*
Y0065891D01*
X-0121481D01*
X-0121830Y0066132D02*
Y0066482D01*
X-0122005Y0066132D02*
X-0121743D01*
X-0121481Y0066263D01*
Y0066350D01*
X-0121743Y0066482D01*
X-0122005D01*
Y0067028D02*
X-0121481D01*
X-0122005Y0067072D02*
Y0066809D01*
X-0121830Y0066722D01*
X-0121656D01*
X-0121481Y0066809D01*
Y0067072D01*
X-0121743Y0067400D02*
Y0067662D01*
X-0122005Y0067312D02*
Y0067662D01*
X-0121481D01*
Y0067312D01*
X-0121743Y0068253D02*
Y0067990D01*
X-0121656Y0067903D01*
X-0121568D01*
X-0121481Y0067990D01*
Y0068253D01*
X-0122005D01*
X-0119202Y0068070D02*
Y0068332D01*
X-0119115Y0068376D01*
X-0119027D01*
X-0118940Y0068332D01*
Y0068070D01*
X-0119027Y0068026D01*
X-0119115D01*
X-0119464Y0068201D01*
X-0119289Y0068923D02*
X-0119377D01*
X-0119464Y0068879D01*
Y0068704D01*
X-0119377Y0068660D01*
X-0118940D01*
Y0068616D02*
Y0068791D01*
X-0089481Y0063311D02*
X-0090005D01*
X-0089918Y0063399D01*
X-0089568Y0063574D01*
X-0089481Y0063661D01*
X-0090005D01*
Y0063902D02*
Y0064077D01*
Y0063989D02*
X-0089481D01*
Y0063902D02*
Y0064077D01*
X-0090180Y0064404D02*
Y0064754D01*
X-0090005Y0064995D02*
Y0065345D01*
X-0089656Y0064995D01*
X-0089568D01*
X-0089481Y0065039D01*
Y0065301D01*
X-0089568Y0065345D01*
X-0090005Y0065585D02*
Y0065891D01*
X-0089481D01*
X-0089830Y0066132D02*
Y0066482D01*
X-0090005Y0066132D02*
X-0089743D01*
X-0089481Y0066263D01*
Y0066350D01*
X-0089743Y0066482D01*
X-0090005D01*
Y0067028D02*
X-0089481D01*
X-0090005Y0067072D02*
Y0066809D01*
X-0089830Y0066722D01*
X-0089656D01*
X-0089481Y0066809D01*
Y0067072D01*
X-0089743Y0067400D02*
Y0067662D01*
X-0090005Y0067312D02*
Y0067662D01*
X-0089481D01*
Y0067312D01*
X-0089743Y0068253D02*
Y0067990D01*
X-0089656Y0067903D01*
X-0089568D01*
X-0089481Y0067990D01*
Y0068253D01*
X-0090005D01*
X-0087377Y0068376D02*
X-0087464Y0068332D01*
Y0068070D01*
X-0087377Y0068026D01*
X-0087202D01*
X-0087115Y0068114D01*
Y0068376D01*
X-0086940D01*
Y0068026D01*
X-0087289Y0068923D02*
X-0087377D01*
X-0087464Y0068879D01*
Y0068704D01*
X-0087377Y0068660D01*
X-0086940D01*
Y0068616D02*
Y0068791D01*
G54D46*
G01X-0172472Y0058222D02*
X-0172561Y0058311D01*
X-0172606Y0058400D01*
Y0058578D01*
X-0172561Y0058667D01*
X-0172472Y0058755D01*
X-0172383D01*
X-0172294Y0058667D01*
X-0172250Y0058578D01*
Y0058400D01*
X-0172294Y0058311D01*
X-0172383Y0058222D01*
X-0172472D01*
X-0172850Y0058400D02*
X-0173206D01*
X-0173028Y0058755D01*
X-0172939D01*
Y0058222D01*
X-0062250Y0069400D02*
X-0062606D01*
X-0062428Y0069755D01*
X-0062339D01*
Y0069222D01*
X-0062850Y0069400D02*
X-0063206D01*
X-0063028Y0069755D01*
X-0062939D01*
Y0069222D01*
X-0062250Y0028222D02*
X-0062606D01*
X-0062250Y0028578D01*
Y0028667D01*
X-0062294Y0028755D01*
X-0062561D01*
X-0062606Y0028667D01*
X-0062850Y0028400D02*
X-0063206D01*
X-0063028Y0028755D01*
X-0062939D01*
Y0028222D01*
X-0172339D02*
X-0172517D01*
X-0172428D02*
Y0028755D01*
X-0172517Y0028667D01*
X-0172850Y0028400D02*
X-0173206D01*
X-0173028Y0028755D01*
X-0172939D01*
Y0028222D01*
X-0058454Y0035458D02*
X-0058704Y0035708D01*
X-0058454Y0035958D01*
X-0058787D02*
Y0035458D01*
X-0059029Y0035542D02*
X-0059071Y0035458D01*
X-0059321D01*
X-0059362Y0035542D01*
Y0035875D01*
X-0059321Y0035958D01*
X-0059071D01*
X-0059029Y0035875D01*
X-0059604Y0035625D02*
X-0059937D01*
X-0059604Y0035458D02*
Y0035708D01*
X-0059729Y0035958D01*
X-0059812D01*
X-0059937Y0035708D01*
Y0035458D01*
X-0060471Y0035625D02*
Y0035542D01*
X-0060429Y0035458D01*
X-0060262D01*
X-0060221Y0035542D01*
Y0035958D01*
X-0060179D02*
X-0060346D01*
X-0061475Y0035625D02*
X-0061808D01*
X-0061475Y0035458D02*
Y0035708D01*
X-0061600Y0035958D01*
X-0061683D01*
X-0061808Y0035708D01*
Y0035458D01*
X-0062050Y0035542D02*
X-0062092Y0035458D01*
X-0062342D01*
X-0062383Y0035542D01*
Y0035875D01*
X-0062342Y0035958D01*
X-0062092D01*
X-0062050Y0035875D01*
X-0062750Y0035708D02*
X-0062625Y0035458D01*
X-0062958Y0035708D02*
X-0062708D01*
X-0062625Y0035792D01*
Y0035875D01*
X-0062708Y0035958D01*
X-0062958D01*
Y0035458D01*
X-0061642Y0036833D02*
X-0061600Y0036917D01*
Y0037000D01*
X-0061642Y0037083D01*
X-0061892D01*
X-0061933Y0037000D01*
Y0036917D01*
X-0061892Y0036833D01*
X-0061642D01*
X-0061600Y0036750D01*
Y0036667D01*
X-0061642Y0036583D01*
X-0061892D01*
X-0061933Y0036667D01*
Y0036750D01*
X-0061892Y0036833D01*
X-0062175Y0036583D02*
X-0062342D01*
X-0062258D02*
Y0037083D01*
X-0062342Y0037000D01*
X-0062958Y0036750D02*
Y0036667D01*
X-0062917Y0036583D01*
X-0062750D01*
X-0062708Y0036667D01*
Y0037083D01*
X-0062667D02*
X-0062833D01*
G54D10*
X-0079000Y0030000D03*
Y0038000D03*
G54D11*
Y0029000D03*
Y0039000D03*
G54D13*
X-0142000Y0035000D03*
X-0143000Y0034000D03*
Y0035000D03*
X-0144000Y0034000D03*
Y0035000D03*
X-0145000Y0034000D03*
Y0035000D03*
X-0146000Y0034000D03*
X-0147000D03*
Y0035000D03*
X-0148000Y0034000D03*
Y0035000D03*
X-0149000Y0034000D03*
Y0035000D03*
X-0150000Y0034000D03*
Y0035000D03*
X-0151000Y0034000D03*
X-0152000D03*
Y0035000D03*
X-0153000Y0034000D03*
Y0035000D03*
X-0154000Y0034000D03*
Y0035000D03*
X-0155000Y0034000D03*
Y0035000D03*
X-0156000Y0034000D03*
X-0157000D03*
Y0035000D03*
X-0158000Y0034000D03*
Y0035000D03*
X-0159000Y0034000D03*
Y0035000D03*
X-0160000Y0034000D03*
Y0035000D03*
X-0161000Y0034000D03*
X-0162000D03*
Y0035000D03*
X-0163000Y0034000D03*
Y0035000D03*
X-0164000Y0034000D03*
Y0035000D03*
X-0142000Y0054000D03*
X-0143000Y0053000D03*
Y0054000D03*
X-0144000Y0053000D03*
Y0054000D03*
X-0145000Y0053000D03*
Y0054000D03*
X-0146000Y0053000D03*
X-0147000D03*
Y0054000D03*
X-0148000Y0053000D03*
Y0054000D03*
X-0149000Y0053000D03*
Y0054000D03*
X-0150000Y0053000D03*
Y0054000D03*
X-0151000Y0053000D03*
X-0152000D03*
Y0054000D03*
X-0153000Y0053000D03*
Y0054000D03*
X-0154000Y0053000D03*
Y0054000D03*
X-0155000Y0053000D03*
Y0054000D03*
X-0156000Y0053000D03*
X-0157000D03*
Y0054000D03*
X-0158000Y0053000D03*
Y0054000D03*
X-0159000Y0053000D03*
Y0054000D03*
X-0160000Y0053000D03*
Y0054000D03*
X-0161000Y0053000D03*
X-0162000D03*
Y0054000D03*
X-0163000Y0053000D03*
Y0054000D03*
X-0164000Y0053000D03*
Y0054000D03*
X-0114000Y0047000D03*
X-0113000D03*
X-0112000D03*
X-0111000D03*
X-0110000D03*
X-0109000D03*
X-0108000D03*
X-0107000D03*
X-0106000D03*
X-0105000D03*
X-0104000D03*
X-0103000D03*
X-0102000D03*
Y0053000D03*
X-0103000D03*
X-0104000D03*
X-0105000D03*
X-0106000D03*
X-0107000D03*
X-0108000D03*
X-0109000D03*
X-0110000D03*
X-0111000D03*
X-0112000D03*
X-0113000D03*
X-0114000D03*
X-0115000D03*
X-0103000Y0028000D03*
X-0104000Y0029000D03*
Y0028000D03*
X-0105000Y0029000D03*
Y0028000D03*
X-0106000Y0029000D03*
Y0028000D03*
X-0107000Y0029000D03*
X-0108000D03*
Y0028000D03*
X-0109000Y0029000D03*
Y0028000D03*
X-0110000Y0029000D03*
Y0028000D03*
X-0111000Y0029000D03*
Y0028000D03*
X-0112000Y0029000D03*
X-0113000D03*
Y0028000D03*
X-0114000Y0029000D03*
Y0028000D03*
X-0115000Y0029000D03*
Y0028000D03*
G54D14*
X-0142000Y0034000D03*
X-0146000Y0035000D03*
X-0151000D03*
X-0156000D03*
X-0161000D03*
X-0142000Y0053000D03*
X-0146000Y0054000D03*
X-0151000D03*
X-0156000D03*
X-0161000D03*
X-0115000Y0047000D03*
X-0103000Y0029000D03*
X-0107000Y0028000D03*
X-0112000D03*
M02*
