*
G04 Mass Parameters ***
*
G04 Image ***
*
%INE:\ANALOG FX\NEW\MASTER SCHEMATIC-9.PWR*%
%ICAS*%
%MOIN*%
%IPPOS*%
%ASAXBY*%
G74*%FSLAN2X34Y34*%
*
G04 Aperture Definitions ***
*
%ADD10C,0.0550*%
%ADD11R,0.0550X0.0550*%
%ADD12C,0.0866*%
%ADD13C,0.0580*%
%ADD14R,0.0580X0.0580*%
%ADD15C,0.1496*%
%ADD16C,0.1299*%
%ADD17C,0.1100*%
%ADD18C,0.0500*%
%ADD19C,0.0550*%
%ADD20C,0.0200*%
%ADD21C,0.0550*%
%ADD22R,0.0500X0.0500*%
%ADD23R,0.0400X0.0340*%
%ADD24R,0.0500X0.0340*%
%ADD25O,0.1000X0.0250*%
%ADD26R,0.1000X0.0250*%
%ADD27O,0.0250X0.1000*%
%ADD28R,0.0250X0.1000*%
%ADD29R,0.0880X0.1420*%
%ADD30R,0.0880X0.0480*%
%ADD31C,0.1000*%
%ADD32C,0.0250*%
%ADD33C,0.0750*%
%ADD34R,0.0750X0.0750*%
%ADD35C,0.0780*%
%ADD36R,0.0780X0.0780*%
%ADD37C,0.1299*%
%ADD38C,0.1400*%
%ADD39C,0.0800*%
*
G04 Plot Data ***
*
G54D18*
G01X-0174500Y0069500D02*
X-0059500D01*
Y0023750D01*
X-0174500D01*
Y0069500D01*
G54D33*
X-0079000Y0030000D03*
Y0038000D03*
G54D34*
Y0029000D03*
Y0039000D03*
G54D35*
X-0142000Y0035000D03*
X-0143000Y0034000D03*
Y0035000D03*
X-0144000Y0034000D03*
Y0035000D03*
X-0145000Y0034000D03*
Y0035000D03*
X-0146000Y0034000D03*
X-0147000D03*
Y0035000D03*
X-0148000Y0034000D03*
Y0035000D03*
X-0149000Y0034000D03*
Y0035000D03*
X-0150000Y0034000D03*
Y0035000D03*
X-0151000Y0034000D03*
X-0152000D03*
Y0035000D03*
X-0153000Y0034000D03*
Y0035000D03*
X-0154000Y0034000D03*
Y0035000D03*
X-0155000Y0034000D03*
Y0035000D03*
X-0156000Y0034000D03*
X-0157000D03*
Y0035000D03*
X-0158000Y0034000D03*
Y0035000D03*
X-0159000Y0034000D03*
Y0035000D03*
X-0160000Y0034000D03*
Y0035000D03*
X-0161000Y0034000D03*
X-0162000D03*
Y0035000D03*
X-0163000Y0034000D03*
Y0035000D03*
X-0164000Y0034000D03*
Y0035000D03*
X-0142000Y0054000D03*
X-0143000Y0053000D03*
Y0054000D03*
X-0144000Y0053000D03*
Y0054000D03*
X-0145000Y0053000D03*
Y0054000D03*
X-0146000Y0053000D03*
X-0147000D03*
Y0054000D03*
X-0148000Y0053000D03*
Y0054000D03*
X-0149000Y0053000D03*
Y0054000D03*
X-0150000Y0053000D03*
Y0054000D03*
X-0151000Y0053000D03*
X-0152000D03*
Y0054000D03*
X-0153000Y0053000D03*
Y0054000D03*
X-0154000Y0053000D03*
Y0054000D03*
X-0155000Y0053000D03*
Y0054000D03*
X-0156000Y0053000D03*
X-0157000D03*
Y0054000D03*
X-0158000Y0053000D03*
Y0054000D03*
X-0159000Y0053000D03*
Y0054000D03*
X-0160000Y0053000D03*
Y0054000D03*
X-0161000Y0053000D03*
X-0162000D03*
Y0054000D03*
X-0163000Y0053000D03*
Y0054000D03*
X-0164000Y0053000D03*
Y0054000D03*
X-0114000Y0047000D03*
X-0113000D03*
X-0112000D03*
X-0111000D03*
X-0110000D03*
X-0109000D03*
X-0108000D03*
X-0107000D03*
X-0106000D03*
X-0105000D03*
X-0104000D03*
X-0103000D03*
X-0102000D03*
Y0053000D03*
X-0103000D03*
X-0104000D03*
X-0105000D03*
X-0106000D03*
X-0107000D03*
X-0108000D03*
X-0109000D03*
X-0110000D03*
X-0111000D03*
X-0112000D03*
X-0113000D03*
X-0114000D03*
X-0115000D03*
X-0103000Y0028000D03*
X-0104000Y0029000D03*
Y0028000D03*
X-0105000Y0029000D03*
Y0028000D03*
X-0106000Y0029000D03*
Y0028000D03*
X-0107000Y0029000D03*
X-0108000D03*
Y0028000D03*
X-0109000Y0029000D03*
Y0028000D03*
X-0110000Y0029000D03*
Y0028000D03*
X-0111000Y0029000D03*
Y0028000D03*
X-0112000Y0029000D03*
X-0113000D03*
Y0028000D03*
X-0114000Y0029000D03*
Y0028000D03*
X-0115000Y0029000D03*
Y0028000D03*
G54D36*
X-0142000Y0034000D03*
X-0146000Y0035000D03*
X-0151000D03*
X-0156000D03*
X-0161000D03*
X-0142000Y0053000D03*
X-0146000Y0054000D03*
X-0151000D03*
X-0156000D03*
X-0161000D03*
X-0115000Y0047000D03*
X-0103000Y0029000D03*
X-0107000Y0028000D03*
X-0112000D03*
G54D37*
X-0140125Y0034500D03*
Y0053500D03*
X-0165875Y0052300D03*
Y0035700D03*
G54D38*
X-0062000Y0068000D03*
Y0027000D03*
X-0172000D03*
Y0057000D03*
G54D39*
X-0083250Y0055000D03*
X-0117000Y0044750D03*
X-0126000Y0043500D03*
X-0144000Y0043000D03*
X-0102000Y0041000D03*
X-0109750Y0039750D03*
X-0116500Y0054000D03*
X-0131250Y0055250D03*
X-0079000Y0048000D03*
X-0061750D03*
X-0079000Y0036000D03*
Y0032000D03*
X-0142000Y0036500D03*
X-0102750D03*
X-0110250D03*
X-0117250Y0034750D03*
X-0072250Y0045250D03*
X-0120000Y0044000D03*
X-0113750Y0031750D03*
X-0115750Y0032750D03*
X-0125250Y0048750D03*
X-0121500Y0049750D03*
X-0121250Y0056750D03*
X-0125000D03*
X-0110000Y0031000D03*
X-0109000Y0027000D03*
X-0131500Y0042750D03*
X-0133000Y0057000D03*
X-0128750Y0052500D03*
X-0102500Y0042500D03*
X-0065500Y0053000D03*
X-0148000Y0055000D03*
X-0139000D03*
X-0140500Y0046750D03*
X-0151000Y0052000D03*
X-0131750Y0052250D03*
X-0131000Y0057500D03*
X-0077750Y0037250D03*
X-0162000Y0038000D03*
X-0146500Y0049250D03*
X-0128750Y0053500D03*
X-0118750Y0053250D03*
Y0043000D03*
X-0144000Y0037250D03*
X-0081500Y0036250D03*
X-0141250Y0042000D03*
X-0151000Y0048000D03*
X-0154000Y0058750D03*
X-0124250Y0057750D03*
X-0128000Y0058750D03*
X-0062750Y0061000D03*
X-0134250Y0054750D03*
Y0051750D03*
X-0150000Y0051250D03*
X-0129000Y0047750D03*
X-0125750Y0049500D03*
X-0114250Y0057500D03*
X-0119750D03*
X-0131250Y0053750D03*
X-0136750Y0054250D03*
X-0129000Y0058750D03*
X-0153250Y0059500D03*
X-0132000Y0060500D03*
X-0146250Y0060250D03*
X-0169250Y0049500D03*
X-0126500Y0050250D03*
X-0128750Y0050500D03*
X-0164750Y0051000D03*
X-0126500Y0051250D03*
X-0062750Y0050750D03*
X-0103250Y0043000D03*
X-0111000Y0042750D03*
X-0122750Y0050750D03*
X-0089250Y0051250D03*
X-0110250Y0041500D03*
X-0149250Y0041000D03*
X-0099000Y0041750D03*
X-0107250Y0040250D03*
X-0125750Y0056000D03*
X-0082250Y0056500D03*
X-0077000Y0056250D03*
X-0070000Y0056500D03*
X-0114750Y0040250D03*
X-0108250D03*
X-0108750Y0032500D03*
X-0113000Y0030500D03*
X-0099750Y0061750D03*
X-0093000Y0061000D03*
X-0166750Y0066000D03*
X-0100000Y0065500D03*
X-0099500Y0048000D03*
X-0123500Y0058250D03*
X-0073250Y0059750D03*
X-0066250Y0059000D03*
X-0122750Y0057000D03*
X-0130000Y0055500D03*
X-0130250Y0050250D03*
X-0149000Y0050500D03*
X-0150000Y0057000D03*
X-0142000D03*
X-0141250Y0047500D03*
X-0075000Y0038000D03*
X-0156000Y0039250D03*
X-0106750Y0032750D03*
X-0104500Y0026250D03*
X-0149000Y0055750D03*
X-0135500D03*
X-0135250Y0044250D03*
X-0147000Y0052000D03*
X-0101000Y0031000D03*
X-0105500Y0031500D03*
X-0101000Y0032500D03*
X-0127000Y0034500D03*
X-0138000Y0058250D03*
X-0153000Y0058000D03*
X-0147000Y0056500D03*
X-0138750D03*
X-0138250Y0046500D03*
X-0100250Y0033250D03*
X-0104250D03*
X-0102250Y0033750D03*
X-0103750Y0036000D03*
X-0112500Y0029750D03*
X-0115250Y0031250D03*
X-0107000Y0064500D03*
X-0173000Y0063250D03*
X-0112750Y0027000D03*
X-0118000D03*
Y0041000D03*
X-0115750D03*
X-0125000Y0050000D03*
X-0117250Y0050250D03*
X-0122500Y0058000D03*
X-0096500Y0058750D03*
X-0086000Y0053500D03*
X-0100750Y0046250D03*
X-0098500Y0063500D03*
X-0124750Y0061000D03*
X-0118000D03*
X-0100500Y0060750D03*
X-0116250Y0033500D03*
X-0113250Y0033250D03*
X-0108000Y0060750D03*
X-0140750Y0061000D03*
X-0101250Y0059750D03*
X-0133750Y0060500D03*
X-0133250Y0048250D03*
X-0133750Y0057500D03*
X-0156750Y0057250D03*
X-0101000Y0066250D03*
X-0150750D03*
M02*
