*
G04 Mass Parameters ***
*
G04 Image ***
*
%INH:\NEW\MINIPB-1.AST*%
%ICAS*%
%MOIN*%
%IPPOS*%
%ASAXBY*%
G74*%FSLAN2X34Y34*%
*
G04 Aperture Definitions ***
*
%ADD10R,0.0500X0.0500*%
%ADD11C,0.0580*%
%ADD12R,0.0580X0.0580*%
%ADD13C,0.0590*%
%ADD14C,0.0500*%
%ADD15C,0.1300*%
%ADD16C,0.0500*%
%ADD17C,0.0500*%
%ADD18C,0.0250*%
%ADD19C,0.0500*%
%ADD20C,0.0200*%
%ADD21C,0.0780*%
%ADD22R,0.0780X0.0780*%
%ADD23C,0.0750*%
%ADD24C,0.0750*%
%ADD25C,0.0630*%
%ADD26C,0.0550*%
%ADD27C,0.0550*%
%ADD28C,0.0060*%
%ADD29C,0.0098*%
*
G04 Plot Data ***
*
G54D16*
G01X-0029500Y0020250D02*
Y-0002250D01*
X0016000D01*
Y0020250D01*
X-0029500D01*
G54D28*
G01X-0026290Y0001667D02*
X-0026179D01*
X-0026234D02*
Y0001334D01*
X-0026179Y0001389D01*
X-0025781Y0001667D02*
Y0001334D01*
X-0025753Y0001667D02*
X-0025920D01*
X-0025975Y0001556D01*
Y0001445D01*
X-0025920Y0001334D01*
X-0025753D01*
X-0026354Y0002667D02*
Y0002334D01*
X-0026326Y0002667D02*
X-0026493D01*
X-0026549Y0002556D01*
Y0002445D01*
X-0026493Y0002334D01*
X-0026326D01*
X-0026123Y0002501D02*
X-0025956D01*
X-0026179Y0002667D02*
X-0025956D01*
Y0002334D01*
X-0026179D01*
X-0025809Y0002667D02*
X-0025614D01*
Y0002334D01*
X-0004654Y0002444D02*
X-0004877D01*
X-0004766Y0002666D01*
X-0004710D01*
Y0002333D01*
X-0005219D02*
Y0002666D01*
X-0005247Y0002333D02*
X-0005080D01*
X-0005024Y0002444D01*
Y0002555D01*
X-0005080Y0002666D01*
X-0005247D01*
X-0004646Y0001332D02*
Y0001666D01*
X-0004673Y0001332D02*
X-0004507D01*
X-0004451Y0001444D01*
Y0001555D01*
X-0004507Y0001666D01*
X-0004673D01*
X-0004877Y0001499D02*
X-0005043D01*
X-0004821Y0001332D02*
X-0005043D01*
Y0001666D01*
X-0004821D01*
X-0005191Y0001332D02*
X-0005386D01*
Y0001666D01*
X-0011877Y0002388D02*
X-0011821Y0002333D01*
X-0011710D01*
X-0011654Y0002388D01*
Y0002444D01*
X-0011766Y0002555D01*
X-0011654Y0002666D01*
X-0011877D01*
X-0012219Y0002333D02*
Y0002666D01*
X-0012247Y0002333D02*
X-0012080D01*
X-0012024Y0002444D01*
Y0002555D01*
X-0012080Y0002666D01*
X-0012247D01*
X-0011646Y0001332D02*
Y0001666D01*
X-0011673Y0001332D02*
X-0011507D01*
X-0011451Y0001444D01*
Y0001555D01*
X-0011507Y0001666D01*
X-0011673D01*
X-0011877Y0001499D02*
X-0012043D01*
X-0011821Y0001332D02*
X-0012043D01*
Y0001666D01*
X-0011821D01*
X-0012191Y0001332D02*
X-0012386D01*
Y0001666D01*
X-0024333Y0016290D02*
Y0016179D01*
Y0016234D02*
X-0024666D01*
X-0024610Y0016179D01*
X-0024499Y0015892D02*
X-0024333Y0015975D01*
X-0024499Y0015753D02*
Y0015920D01*
X-0024555Y0015975D01*
X-0024610D01*
X-0024666Y0015920D01*
Y0015753D01*
X-0024333D01*
X-0023332Y0016068D02*
X-0023388Y0016012D01*
X-0023444Y0015984D01*
X-0023555D01*
X-0023610Y0016012D01*
X-0023666Y0016068D01*
Y0016123D01*
X-0023610Y0016179D01*
X-0023555Y0016207D01*
X-0023444D01*
X-0023388Y0016179D01*
X-0023332Y0016123D01*
Y0016068D01*
Y0015837D02*
Y0015614D01*
X-0023555Y0015837D01*
X-0023610D01*
X-0023666Y0015809D01*
Y0015642D01*
X-0023610Y0015614D01*
X-0019654Y0002333D02*
X-0019877D01*
X-0019654Y0002555D01*
Y0002610D01*
X-0019682Y0002666D01*
X-0019849D01*
X-0019877Y0002610D01*
X-0020219Y0002333D02*
Y0002666D01*
X-0020247Y0002333D02*
X-0020080D01*
X-0020024Y0002444D01*
Y0002555D01*
X-0020080Y0002666D01*
X-0020247D01*
X-0019646Y0001332D02*
Y0001666D01*
X-0019673Y0001332D02*
X-0019507D01*
X-0019451Y0001444D01*
Y0001555D01*
X-0019507Y0001666D01*
X-0019673D01*
X-0019877Y0001499D02*
X-0020043D01*
X-0019821Y0001332D02*
X-0020043D01*
Y0001666D01*
X-0019821D01*
X-0020191Y0001332D02*
X-0020386D01*
Y0001666D01*
X-0010780Y0001625D02*
Y0002375D01*
X-0012380D01*
Y0001625D01*
X-0010780D01*
X-0023625Y0017220D02*
X-0024375D01*
Y0015620D01*
X-0023625D01*
Y0017220D01*
X-0018780Y0001625D02*
Y0002375D01*
X-0020380D01*
Y0001625D01*
X-0018780D01*
X-0027220Y0002375D02*
Y0001625D01*
X-0025620D01*
Y0002375D01*
X-0027220D01*
X-0003780Y0001625D02*
Y0002375D01*
X-0005380D01*
Y0001625D01*
X-0003780D01*
G54D29*
G01X-0006581Y0011892D02*
Y0011542D01*
X-0006931Y0011892D01*
X-0007018D01*
X-0007106Y0011848D01*
Y0011585D01*
X-0007018Y0011542D01*
X-0006843Y0011170D02*
X-0006581Y0011301D01*
X-0006843Y0010951D02*
Y0011214D01*
X-0006931Y0011301D01*
X-0007018D01*
X-0007106Y0011214D01*
Y0010951D01*
X-0006581D01*
X-0006843Y0010624D02*
Y0010361D01*
X-0006581Y0010711D02*
Y0010361D01*
X-0007106D01*
Y0010711D01*
X-0006843Y0009771D02*
Y0010033D01*
X-0006931Y0010121D01*
X-0007018D01*
X-0007106Y0010033D01*
Y0009771D01*
X-0006581D01*
Y0009530D02*
X-0007106D01*
X-0007018Y0009443D01*
X-0006843Y0009355D01*
X-0007018Y0009268D01*
X-0007106Y0009180D01*
X-0006581D01*
X-0007106Y0008940D02*
X-0006668D01*
X-0006581Y0008896D01*
Y0008634D01*
X-0006668Y0008590D01*
X-0007106D01*
X-0006756Y0008044D02*
X-0006668D01*
X-0006581Y0008087D01*
Y0008262D01*
X-0006668Y0008306D01*
X-0007106D01*
Y0008350D02*
Y0008175D01*
X-0007937Y0009530D02*
Y0009180D01*
X-0008287Y0009355D01*
Y0009443D01*
X-0007762D01*
X-0008024Y0008590D02*
Y0008853D01*
X-0008112Y0008940D01*
X-0008199D01*
X-0008287Y0008853D01*
Y0008590D01*
X-0007762D01*
X-0007937Y0008044D02*
X-0007849D01*
X-0007762Y0008087D01*
Y0008262D01*
X-0007849Y0008306D01*
X-0008287D01*
Y0008350D02*
Y0008175D01*
X-0010419Y0009108D02*
Y0009458D01*
X-0010069Y0009108D01*
X-0009982D01*
X-0009894Y0009152D01*
Y0009414D01*
X-0009982Y0009458D01*
X-0010157Y0009830D02*
X-0010419Y0009698D01*
X-0010157Y0010048D02*
Y0009786D01*
X-0010069Y0009698D01*
X-0009982D01*
X-0009894Y0009786D01*
Y0010048D01*
X-0010419D01*
X-0010157Y0010376D02*
Y0010639D01*
X-0010419Y0010289D02*
Y0010639D01*
X-0009894D01*
Y0010289D01*
X-0010157Y0011229D02*
Y0010967D01*
X-0010069Y0010879D01*
X-0009982D01*
X-0009894Y0010967D01*
Y0011229D01*
X-0010419D01*
Y0011469D02*
X-0009894D01*
X-0009982Y0011557D01*
X-0010157Y0011644D01*
X-0009982Y0011732D01*
X-0009894Y0011819D01*
X-0010419D01*
X-0009894Y0012060D02*
X-0010332D01*
X-0010419Y0012104D01*
Y0012366D01*
X-0010332Y0012410D01*
X-0009894D01*
X-0010244Y0012956D02*
X-0010332D01*
X-0010419Y0012913D01*
Y0012738D01*
X-0010332Y0012694D01*
X-0009894D01*
Y0012650D02*
Y0012825D01*
X-0009151Y0011819D02*
X-0009238Y0011732D01*
Y0011557D01*
X-0009151Y0011469D01*
X-0009063D01*
X-0008888Y0011644D01*
X-0008713Y0011469D01*
Y0011819D01*
X-0008976Y0012410D02*
Y0012147D01*
X-0008888Y0012060D01*
X-0008801D01*
X-0008713Y0012147D01*
Y0012410D01*
X-0009238D01*
X-0009063Y0012956D02*
X-0009151D01*
X-0009238Y0012913D01*
Y0012738D01*
X-0009151Y0012694D01*
X-0008713D01*
Y0012650D02*
Y0012825D01*
X0004892Y0014581D02*
X0004542D01*
X0004892Y0014931D01*
Y0015018D01*
X0004848Y0015106D01*
X0004585D01*
X0004542Y0015018D01*
X0004170Y0014843D02*
X0004301Y0014581D01*
X0003951Y0014843D02*
X0004214D01*
X0004301Y0014931D01*
Y0015018D01*
X0004214Y0015106D01*
X0003951D01*
Y0014581D01*
X0003624Y0014843D02*
X0003361D01*
X0003711Y0014581D02*
X0003361D01*
Y0015106D01*
X0003711D01*
X0002771Y0014843D02*
X0003033D01*
X0003121Y0014931D01*
Y0015018D01*
X0003033Y0015106D01*
X0002771D01*
Y0014581D01*
X0002530D02*
Y0015106D01*
X0002443Y0015018D01*
X0002355Y0014843D01*
X0002268Y0015018D01*
X0002180Y0015106D01*
Y0014581D01*
X0001940Y0015106D02*
Y0014668D01*
X0001896Y0014581D01*
X0001634D01*
X0001590Y0014668D01*
Y0015106D01*
X0001044Y0014756D02*
Y0014668D01*
X0001087Y0014581D01*
X0001262D01*
X0001306Y0014668D01*
Y0015106D01*
X0001350D02*
X0001175D01*
X0002224Y0016024D02*
X0002487D01*
X0002530Y0015937D01*
Y0015849D01*
X0002487Y0015762D01*
X0002224D01*
X0002180Y0015849D01*
Y0015937D01*
X0002355Y0016287D01*
X0001590Y0016024D02*
X0001853D01*
X0001940Y0016112D01*
Y0016199D01*
X0001853Y0016287D01*
X0001590D01*
Y0015762D01*
X0001044Y0015937D02*
Y0015849D01*
X0001087Y0015762D01*
X0001262D01*
X0001306Y0015849D01*
Y0016287D01*
X0001350D02*
X0001175D01*
X-0020581Y0011892D02*
Y0011542D01*
X-0020931Y0011892D01*
X-0021018D01*
X-0021106Y0011848D01*
Y0011585D01*
X-0021018Y0011542D01*
X-0020843Y0011170D02*
X-0020581Y0011301D01*
X-0020843Y0010951D02*
Y0011214D01*
X-0020931Y0011301D01*
X-0021018D01*
X-0021106Y0011214D01*
Y0010951D01*
X-0020581D01*
X-0020843Y0010624D02*
Y0010361D01*
X-0020581Y0010711D02*
Y0010361D01*
X-0021106D01*
Y0010711D01*
X-0020843Y0009771D02*
Y0010033D01*
X-0020931Y0010121D01*
X-0021018D01*
X-0021106Y0010033D01*
Y0009771D01*
X-0020581D01*
Y0009530D02*
X-0021106D01*
X-0021018Y0009443D01*
X-0020843Y0009355D01*
X-0021018Y0009268D01*
X-0021106Y0009180D01*
X-0020581D01*
X-0021106Y0008940D02*
X-0020668D01*
X-0020581Y0008896D01*
Y0008634D01*
X-0020668Y0008590D01*
X-0021106D01*
X-0020756Y0008044D02*
X-0020668D01*
X-0020581Y0008087D01*
Y0008262D01*
X-0020668Y0008306D01*
X-0021106D01*
Y0008350D02*
Y0008175D01*
X-0021762Y0009530D02*
Y0009180D01*
X-0022112Y0009530D01*
X-0022199D01*
X-0022287Y0009487D01*
Y0009224D01*
X-0022199Y0009180D01*
X-0022024Y0008590D02*
Y0008853D01*
X-0022112Y0008940D01*
X-0022199D01*
X-0022287Y0008853D01*
Y0008590D01*
X-0021762D01*
X-0021937Y0008044D02*
X-0021849D01*
X-0021762Y0008087D01*
Y0008262D01*
X-0021849Y0008306D01*
X-0022287D01*
Y0008350D02*
Y0008175D01*
X0004892Y0007581D02*
X0004542D01*
X0004892Y0007931D01*
Y0008018D01*
X0004848Y0008106D01*
X0004585D01*
X0004542Y0008018D01*
X0004170Y0007843D02*
X0004301Y0007581D01*
X0003951Y0007843D02*
X0004214D01*
X0004301Y0007931D01*
Y0008018D01*
X0004214Y0008106D01*
X0003951D01*
Y0007581D01*
X0003624Y0007843D02*
X0003361D01*
X0003711Y0007581D02*
X0003361D01*
Y0008106D01*
X0003711D01*
X0002771Y0007843D02*
X0003033D01*
X0003121Y0007931D01*
Y0008018D01*
X0003033Y0008106D01*
X0002771D01*
Y0007581D01*
X0002530D02*
Y0008106D01*
X0002443Y0008018D01*
X0002355Y0007843D01*
X0002268Y0008018D01*
X0002180Y0008106D01*
Y0007581D01*
X0001940Y0008106D02*
Y0007668D01*
X0001896Y0007581D01*
X0001634D01*
X0001590Y0007668D01*
Y0008106D01*
X0001044Y0007756D02*
Y0007668D01*
X0001087Y0007581D01*
X0001262D01*
X0001306Y0007668D01*
Y0008106D01*
X0001350D02*
X0001175D01*
X0002180Y0008849D02*
X0002224Y0008762D01*
X0002487D01*
X0002530Y0008849D01*
Y0009024D01*
X0002443Y0009112D01*
X0002180D01*
Y0009287D01*
X0002530D01*
X0001590Y0009024D02*
X0001853D01*
X0001940Y0009112D01*
Y0009199D01*
X0001853Y0009287D01*
X0001590D01*
Y0008762D01*
X0001044Y0008937D02*
Y0008849D01*
X0001087Y0008762D01*
X0001262D01*
X0001306Y0008849D01*
Y0009287D01*
X0001350D02*
X0001175D01*
X-0024419Y0009108D02*
Y0009458D01*
X-0024069Y0009108D01*
X-0023982D01*
X-0023894Y0009152D01*
Y0009414D01*
X-0023982Y0009458D01*
X-0024157Y0009830D02*
X-0024419Y0009698D01*
X-0024157Y0010048D02*
Y0009786D01*
X-0024069Y0009698D01*
X-0023982D01*
X-0023894Y0009786D01*
Y0010048D01*
X-0024419D01*
X-0024157Y0010376D02*
Y0010639D01*
X-0024419Y0010289D02*
Y0010639D01*
X-0023894D01*
Y0010289D01*
X-0024157Y0011229D02*
Y0010967D01*
X-0024069Y0010879D01*
X-0023982D01*
X-0023894Y0010967D01*
Y0011229D01*
X-0024419D01*
Y0011469D02*
X-0023894D01*
X-0023982Y0011557D01*
X-0024157Y0011644D01*
X-0023982Y0011732D01*
X-0023894Y0011819D01*
X-0024419D01*
X-0023894Y0012060D02*
X-0024332D01*
X-0024419Y0012104D01*
Y0012366D01*
X-0024332Y0012410D01*
X-0023894D01*
X-0024244Y0012956D02*
X-0024332D01*
X-0024419Y0012913D01*
Y0012738D01*
X-0024332Y0012694D01*
X-0023894D01*
Y0012650D02*
Y0012825D01*
X-0023238Y0011557D02*
Y0011732D01*
Y0011644D02*
X-0022713D01*
X-0022801Y0011732D01*
X-0022976Y0012410D02*
Y0012147D01*
X-0022888Y0012060D01*
X-0022801D01*
X-0022713Y0012147D01*
Y0012410D01*
X-0023238D01*
X-0023063Y0012956D02*
X-0023151D01*
X-0023238Y0012913D01*
Y0012738D01*
X-0023151Y0012694D01*
X-0022713D01*
Y0012650D02*
Y0012825D01*
G54D10*
X-0024000Y0016000D03*
Y0016840D03*
X-0005000Y0002000D03*
X-0004160D03*
X-0012000D03*
X-0011160D03*
X-0020000D03*
X-0019160D03*
X-0026000D03*
X-0026840D03*
G54D11*
X-0010000Y0017000D03*
X-0011000Y0016000D03*
Y0017000D03*
X-0012000Y0016000D03*
Y0017000D03*
X-0013000Y0016000D03*
Y0017000D03*
X-0014000Y0016000D03*
X-0015000D03*
Y0017000D03*
X-0016000Y0016000D03*
Y0017000D03*
X-0017000Y0016000D03*
Y0017000D03*
X-0018000Y0016000D03*
Y0017000D03*
X-0019000Y0016000D03*
X-0020000D03*
Y0017000D03*
X-0021000Y0016000D03*
Y0017000D03*
X-0022000Y0016000D03*
Y0017000D03*
G54D12*
X-0010000Y0016000D03*
X-0014000Y0017000D03*
X-0019000D03*
M02*
