*
G04 Mass Parameters ***
*
G04 Image ***
*
%INH:\NEW\MINIPB-1.TOP*%
%ICAS*%
%MOIN*%
%IPPOS*%
%ASAXBY*%
G74*%FSLAN2X34Y34*%
*
G04 Aperture Definitions ***
*
%ADD10R,0.0500X0.0500*%
%ADD11C,0.0580*%
%ADD12R,0.0580X0.0580*%
%ADD13C,0.0590*%
%ADD14C,0.0500*%
%ADD15C,0.1300*%
%ADD16C,0.0500*%
%ADD17C,0.0500*%
%ADD18C,0.0250*%
%ADD19C,0.0500*%
%ADD20C,0.0200*%
*
G04 Plot Data ***
*
G54D15*
G01X0014000Y0017950D02*
G03X0014050Y0018000I0000000J0000050D01*
G01X0013950D02*
G03X0014000Y0017950I0000050J0000000D01*
Y0018050D02*
G03X0013950Y0018000I0000000J0000050D01*
G01X0014050D02*
G03X0014000Y0018050I0000050J0000000D01*
Y-0000050D02*
G03X0014050Y0000000I0000000J0000050D01*
G01X0013950D02*
G03X0014000Y-0000050I0000050J0000000D01*
Y0000050D02*
G03X0013950Y0000000I0000000J0000050D01*
G01X0014050D02*
G03X0014000Y0000050I0000050J0000000D01*
G01X-0027000Y-0000050D02*
G03X-0026950Y0000000I0000000J0000050D01*
G01X-0027050D02*
G03X-0027000Y-0000050I0000050J0000000D01*
Y0000050D02*
G03X-0027050Y0000000I0000000J0000050D01*
G01X-0026950D02*
G03X-0027000Y0000050I0000050J0000000D01*
G01X-0026750Y0018200D02*
G03X-0026700Y0018250I0000000J0000050D01*
G01X-0026800D02*
G03X-0026750Y0018200I0000050J0000000D01*
Y0018300D02*
G03X-0026800Y0018250I0000000J0000050D01*
G01X-0026700D02*
G03X-0026750Y0018300I0000050J0000000D01*
G54D16*
G01X-0004000Y0004750D02*
X-0005556D01*
X-0004778Y0006305D01*
X-0004389D01*
Y0003972D01*
X-0012556Y0004361D02*
X-0012167Y0003972D01*
X-0011389D01*
X-0011000Y0004361D01*
Y0004750D01*
X-0011778Y0005528D01*
X-0011000Y0006305D01*
X-0012556D01*
X-0018500Y0003972D02*
X-0020056D01*
X-0018500Y0005528D01*
Y0005917D01*
X-0018694Y0006305D01*
X-0019861D01*
X-0020056Y0005917D01*
X-0025639Y0003722D02*
X-0026417D01*
X-0026028D02*
Y0006055D01*
X-0026417Y0005667D01*
X0016000Y0009000D02*
X-0003696D01*
X-0025900Y0012418D02*
Y0008463D01*
X-0001980Y0017550D02*
X-0007928D01*
X-0007900Y0020250D02*
Y0017457D01*
X-0011050Y0011955D02*
Y0008927D01*
X-0021011Y0013050D02*
X-0023988D01*
X-0010600Y0020250D02*
Y0018875D01*
X-0028186Y0018450D02*
X-0029500D01*
X-0002704Y0016200D02*
X-0007796D01*
X-0008878Y0018615D02*
X-0008135Y0017872D01*
X-0024550Y0012072D02*
Y0008809D01*
X-0002530Y0015875D02*
X-0007969D01*
X-0024639Y0006913D02*
Y0002875D01*
X0013700Y-0001418D02*
Y-0002250D01*
X-0003160Y0001000D02*
X-0004000D01*
X-0006362Y0001875D02*
X-0009137D01*
X-0005200Y0012410D02*
Y0008708D01*
X-0023267Y-0000900D02*
X-0025863D01*
X-0013792Y0007200D02*
X-0017328D01*
X-0006000Y0002250D02*
X-0008762D01*
X-0013556Y0003150D02*
X-0017500D01*
X-0028046Y0018900D02*
X-0029500D01*
X-0013437Y0001800D02*
X-0014020D01*
X-0023125Y0002875D02*
X-0024639D01*
X-0014234Y0019625D02*
X-0022750D01*
X-0012400Y-0002183D02*
Y-0002250D01*
X-0017500Y0002972D02*
X-0018160D01*
X-0024100Y0020250D02*
Y0018637D01*
X-0028450Y0000000D02*
X-0029500D01*
X0010100Y0011000D02*
Y0008000D01*
X-0028537Y0001800D02*
X-0029500D01*
X-0021375Y0006516D02*
Y0002875D01*
X-0008208Y-0002183D02*
X-0023267D01*
Y0000517D02*
Y-0002183D01*
X-0021000Y0001125D02*
X-0022250D01*
X-0003000Y0007305D02*
Y0002972D01*
X0016000Y0015300D02*
X-0001562D01*
X-0008125Y0007650D02*
X-0010013D01*
X-0014019D02*
X-0017015D01*
X-0018973Y0013500D02*
X-0018996D01*
X-0021056Y0007305D02*
Y0002972D01*
X-0011500Y0012066D02*
Y0008816D01*
X-0026800Y0011974D02*
Y0008908D01*
X-0029500Y0020250D02*
Y-0002250D01*
X0016000D02*
X-0029500D01*
X0016000Y0020250D02*
Y-0002250D01*
Y0020250D02*
X-0029500D01*
X0016000Y-0001350D02*
X0014529D01*
X0015950Y0020250D02*
Y-0002250D01*
X0016000Y0017550D02*
X0015378D01*
X0015500Y0020250D02*
Y-0002250D01*
X0016000Y0013950D02*
X0012714D01*
X0015050Y-0001000D02*
Y-0002250D01*
X0016000Y0006300D02*
X0013964D01*
X0013700Y0006036D02*
Y0001418D01*
X0013250Y0005586D02*
Y0001241D01*
X0012800Y0005136D02*
Y0000814D01*
X0011900Y0020250D02*
Y0014764D01*
X0013957Y0006293D02*
X0011709Y0004045D01*
X0011000Y0003750D02*
Y-0002250D01*
X0010550Y0003857D02*
Y-0002250D01*
X0010100Y0004236D02*
Y-0002250D01*
X0007850Y0006564D02*
Y-0002250D01*
X0007400Y0020250D02*
Y-0002250D01*
X0006950Y0004368D02*
Y-0002250D01*
X0006500Y0004027D02*
Y-0002250D01*
X0006050Y0003957D02*
Y-0002250D01*
X0016000Y0003150D02*
X-0003000D01*
X0004700Y0020250D02*
Y-0002250D01*
X0004250Y0020250D02*
Y-0002250D01*
X0003800Y0020250D02*
Y-0002250D01*
X0003350Y0020250D02*
Y-0002250D01*
X0002900Y0020250D02*
Y-0002250D01*
X0002450Y0020250D02*
Y-0002250D01*
X0002000Y0004696D02*
Y-0002250D01*
X0001550Y0004111D02*
Y-0002250D01*
X0001100Y0003960D02*
Y-0002250D01*
X0013471Y0019350D02*
X-0012950D01*
X-0000125Y0017266D02*
Y0017250D01*
X-0001150Y0015700D02*
Y0014937D01*
X-0005650Y0000198D02*
Y-0002250D01*
X-0002050Y0001286D02*
Y-0002250D01*
X-0021850Y0001125D02*
Y0000517D01*
X-0002950Y0001020D02*
Y-0002250D01*
X-0003400Y0001000D02*
Y-0002250D01*
X-0003850Y0001000D02*
Y-0002250D01*
X-0004000Y0001000D02*
X-0004762D01*
X-0013000Y0002250D02*
X-0014032D01*
X-0006556Y0003150D02*
X-0007862D01*
X-0008350Y0002662D02*
Y0001875D01*
X-0011500Y-0002183D02*
Y-0002250D01*
X-0006000Y0000125D02*
X-0008208D01*
X-0028875Y0003600D02*
X-0029500D01*
X-0008350Y-0002183D02*
Y-0002250D01*
X-0008800Y-0002183D02*
Y-0002250D01*
X-0006272Y0009000D02*
X-0006375D01*
X-0009250Y-0002183D02*
Y-0002250D01*
X-0009700Y-0002183D02*
Y-0002250D01*
X-0010150Y-0002183D02*
Y-0002250D01*
X-0010600Y-0002183D02*
Y-0002250D01*
X-0023387Y0019350D02*
X-0025805D01*
X-0006635Y0004378D02*
X-0009137Y0001875D01*
X0016000Y-0001800D02*
X-0008208D01*
X-0012850Y-0002183D02*
Y-0002250D01*
X-0013300Y-0002183D02*
Y-0002250D01*
X-0013750Y-0002183D02*
Y-0002250D01*
X-0014200Y-0002183D02*
Y-0002250D01*
X-0014650Y-0002183D02*
Y-0002250D01*
X-0015100Y-0002183D02*
Y-0002250D01*
X-0015550Y-0002183D02*
Y-0002250D01*
X-0016000Y-0002183D02*
Y-0002250D01*
X-0016450Y-0002183D02*
Y-0002250D01*
X-0023125Y0004050D02*
X-0024639D01*
X-0016900Y-0002183D02*
Y-0002250D01*
X-0028875Y0003150D02*
X-0029500D01*
X-0018250Y-0002183D02*
Y-0002250D01*
X-0018700Y-0002183D02*
Y-0002250D01*
X-0019150Y-0002183D02*
Y-0002250D01*
X-0019600Y-0002183D02*
Y-0002250D01*
X-0020500Y-0002183D02*
Y-0002250D01*
X-0020950Y-0002183D02*
Y-0002250D01*
X-0021400Y-0002183D02*
Y-0002250D01*
X-0021850Y-0002183D02*
Y-0002250D01*
X-0022300Y-0002183D02*
Y-0002250D01*
X-0027637Y0014850D02*
X-0029500D01*
X-0027125Y0011962D02*
Y0008919D01*
X-0024550Y0006954D02*
Y0002875D01*
X-0028875Y0004500D02*
X-0029500D01*
X0015050Y0017000D02*
Y0001000D01*
X-0027700Y-0001270D02*
Y-0002250D01*
X-0025000Y0001000D02*
Y-0002250D01*
X0008300Y0011107D02*
Y0007893D01*
X0012800Y0011000D02*
Y0008000D01*
X0012863Y0000900D02*
X-0004862D01*
X-0028875Y0004050D02*
X-0029500D01*
X-0028600Y0001862D02*
Y-0002250D01*
X0016000Y0018450D02*
X0015378D01*
X-0025900Y0020250D02*
Y0019425D01*
X0013250Y0011000D02*
Y0008000D01*
X0000200Y0004328D02*
Y-0002250D01*
X-0017350Y0012300D02*
Y0008818D01*
X-0011500Y0020250D02*
Y0018875D01*
X-0010600Y0012048D02*
Y0008834D01*
X-0028600Y0020250D02*
Y0013887D01*
X-0028838Y0013500D02*
X-0029500D01*
X0000200Y0011328D02*
Y0007640D01*
X-0028875Y0012150D02*
X-0029500D01*
X-0028875Y0011700D02*
X-0029500D01*
X-0028875Y0011250D02*
X-0029500D01*
X-0028875Y0010800D02*
X-0029500D01*
X-0020749Y0007305D02*
X-0021056D01*
X-0025900Y0007300D02*
Y0007055D01*
X-0028875Y0006750D02*
X-0029500D01*
X-0025823Y0007200D02*
X-0026208D01*
X-0008125Y0009450D02*
X-0027125D01*
X-0028875Y0007200D02*
X-0029500D01*
X-0008125Y0009900D02*
X-0027125D01*
X-0028875Y0007650D02*
X-0029500D01*
X-0028875Y0005850D02*
X-0029500D01*
X-0028875Y0005400D02*
X-0029500D01*
X-0028875Y0004950D02*
X-0029500D01*
X-0020857Y0008550D02*
X-0024228D01*
X-0023267Y-0001800D02*
X-0029500D01*
X-0019504Y0000517D02*
X-0023267D01*
X-0017350Y-0002183D02*
Y-0002250D01*
X-0026800Y-0001436D02*
Y-0002250D01*
X-0027250Y-0001428D02*
Y-0002250D01*
X-0025450Y0001000D02*
Y-0002250D01*
X-0024550Y0001125D02*
Y-0002250D01*
X-0028378Y0000450D02*
X-0029500D01*
X-0020050Y-0002183D02*
Y-0002250D01*
X-0008125Y0012600D02*
X-0010066D01*
X-0008125Y0012150D02*
X-0010424D01*
X-0013965Y0012600D02*
X-0017092D01*
X-0006000Y0002972D02*
X-0006556D01*
X-0013000Y0002700D02*
X-0014286D01*
X-0011050Y-0002183D02*
Y-0002250D01*
X-0013300Y0011999D02*
Y0008883D01*
X-0014468Y0013500D02*
X-0017027D01*
X-0014200Y0013036D02*
Y0002600D01*
X-0006550Y0002972D02*
Y0001875D01*
X-0013803Y0008550D02*
X-0017111D01*
X-0003000Y0002972D02*
X-0003160D01*
X-0004300Y0001000D02*
Y-0002250D01*
X-0010150Y0020250D02*
Y0018875D01*
X0016000Y0002250D02*
X-0001782D01*
X-0020362Y0012150D02*
X-0024424D01*
X-0025362Y0015125D02*
X-0027000D01*
X-0003160Y0001088D02*
Y0001000D01*
X-0020953Y0007650D02*
X-0021490D01*
X-0014650Y0013625D02*
Y0002937D01*
X-0020876Y0012600D02*
X-0024066D01*
X-0008350Y0020250D02*
Y0018087D01*
X0016000Y0015750D02*
X-0001088D01*
X-0021850Y0014971D02*
Y0007916D01*
X-0001972Y0017515D02*
X-0002026Y0017461D01*
X-0022300Y0013786D02*
Y0007999D01*
X-0000250Y0020250D02*
Y0018411D01*
X-0021000Y0002972D02*
Y0002875D01*
X-0021850Y0020250D02*
Y0019625D01*
X-0009500Y0018875D02*
X-0012758D01*
X-0028537Y0013950D02*
X-0029500D01*
X-0028150Y0020250D02*
Y0018627D01*
X0005390Y0011250D02*
X0001728D01*
X0005150Y0013574D02*
Y0012394D01*
X-0003027Y0012150D02*
X-0003606D01*
X0000200Y0013296D02*
Y0012672D01*
X0005682Y0004050D02*
X0001435D01*
X0005150Y0006574D02*
Y0005394D01*
X0000564Y0004050D02*
X-0003000D01*
X0000200Y0006296D02*
Y0005672D01*
X0000066Y0013500D02*
X-0000634D01*
X-0006362Y0012150D02*
X-0006375D01*
X-0006100Y0012081D02*
Y0009037D01*
X-0008125Y0006750D02*
X-0010000D01*
X-0028875Y0010350D02*
X-0029500D01*
X-0004300Y0012117D02*
Y0009001D01*
X0016000Y0010350D02*
X-0006375D01*
X-0008125Y0012766D02*
Y0005362D01*
X-0005650Y0012123D02*
Y0008995D01*
X-0013556Y0003600D02*
X-0017500D01*
X-0011903Y0007305D02*
X-0012128D01*
X-0011639Y0012150D02*
X-0012392D01*
X-0020950Y0014961D02*
Y0014910D01*
X-0018914Y0013625D02*
X-0019055D01*
X-0023218Y0006750D02*
X-0024639D01*
X-0018250Y0012103D02*
Y0009014D01*
X-0021009Y0008100D02*
X-0024009D01*
X-0025000Y0017550D02*
X-0025480D01*
X-0020950Y0007641D02*
Y0007305D01*
Y0014526D02*
Y0013477D01*
X-0028615Y0001878D02*
X-0028122Y0001385D01*
X-0020272Y0009000D02*
X-0027125D01*
X-0006100Y0000125D02*
Y-0002250D01*
X-0025835Y0008550D02*
X-0026196D01*
X-0028875Y0006300D02*
X-0029500D01*
X-0025450Y0012042D02*
Y0008839D01*
X-0027622Y0014865D02*
X-0028615Y0013872D01*
X-0027633Y0017100D02*
X-0029500D01*
X-0007000Y0020250D02*
Y0015875D01*
X-0025900Y0017075D02*
Y0015125D01*
X-0000385Y0016628D02*
X-0000789Y0016223D01*
X-0018700Y0020250D02*
Y0019625D01*
X-0022750Y0020250D02*
Y0019625D01*
X-0020500Y0020250D02*
Y0019625D01*
X-0021400Y0020250D02*
Y0019625D01*
X0005600Y0020250D02*
Y0014876D01*
X-0016900Y0020250D02*
Y0019625D01*
X-0023200Y0020250D02*
Y0019500D01*
X-0025000Y0015840D02*
Y0015487D01*
X-0018250Y0020250D02*
Y0019625D01*
X-0014200Y0020250D02*
Y0019643D01*
X-0024806Y0017840D02*
X-0025000D01*
X-0020950Y0020250D02*
Y0019625D01*
X-0019600Y0012140D02*
Y0008978D01*
X-0028875Y0013050D02*
X-0029500D01*
X-0012850Y0020250D02*
Y0019186D01*
X-0020050Y0020250D02*
Y0019625D01*
X-0017350Y0020250D02*
Y0019625D01*
X-0023835Y0013950D02*
X-0024062D01*
X-0025997Y0012600D02*
X-0026034D01*
X-0026007Y0013375D02*
X-0026024D01*
X-0006100Y0002972D02*
Y0002137D01*
X-0025450Y0017608D02*
Y0015125D01*
X-0003160Y0002972D02*
Y0002912D01*
X-0023650Y0020250D02*
Y0019087D01*
X-0015100Y0013625D02*
Y0002995D01*
X-0000001Y0011700D02*
X-0006375D01*
X-0017800Y0020250D02*
Y0019625D01*
X-0012400Y0020250D02*
Y0018875D01*
X-0008125Y0005400D02*
X-0010000D01*
X-0028875Y0009450D02*
X-0029500D01*
X-0013300Y0020250D02*
Y0019643D01*
X-0006556Y0004050D02*
X-0006962D01*
X-0020941Y0013500D02*
X-0024114D01*
X-0028875Y0009900D02*
X-0029500D01*
X-0022300Y0001125D02*
Y0000517D01*
X-0016450Y0020250D02*
Y0019625D01*
X-0025000Y0015750D02*
X-0029500D01*
X-0023125Y0006300D02*
X-0024639D01*
X-0023650Y0013740D02*
Y0002875D01*
X-0023125Y0003600D02*
X-0024639D01*
X-0028150Y-0000883D02*
Y-0002250D01*
X-0022250Y0001125D02*
X-0025000D01*
X-0023125Y0006516D02*
Y0002875D01*
X-0024100Y0007409D02*
Y0002875D01*
X-0027250Y0020250D02*
Y0019611D01*
X-0002500Y0020250D02*
Y0017161D01*
X0000439Y0014850D02*
X-0000973D01*
X-0001968Y0018000D02*
X-0008262D01*
X0012621Y0018450D02*
X-0000286D01*
X-0001600Y0020250D02*
Y0018550D01*
X-0000700Y0016312D02*
Y0014600D01*
X-0004750Y0020250D02*
Y0015875D01*
X-0026800Y0016801D02*
Y0015125D01*
X0010293Y0014957D02*
X0008045Y0012709D01*
X0012863Y0018900D02*
X-0012761D01*
X0016000Y0007200D02*
X0014230D01*
X-0008350Y0012875D02*
Y0005137D01*
X-0014214Y0013050D02*
X-0016957D01*
X-0014492Y0013625D02*
X-0017086D01*
X-0011997Y0012600D02*
X-0012034D01*
X-0019600Y0000612D02*
Y0000517D01*
X-0007450Y0020250D02*
Y0015875D01*
X-0014650Y0020250D02*
Y0019625D01*
X-0021056Y0007200D02*
X-0021270D01*
X-0004750Y0012390D02*
Y0008728D01*
X0000144Y0012600D02*
X-0001583D01*
X-0000034Y0012150D02*
X-0001973D01*
X-0004300Y0020250D02*
Y0015875D01*
X0000048Y0014400D02*
X-0000583D01*
X-0006100Y0020250D02*
Y0015875D01*
X0000501Y0013050D02*
X-0001188D01*
X-0000700Y0020250D02*
Y0018704D01*
X-0005200Y0020250D02*
Y0015875D01*
X-0000045Y0013950D02*
X-0000501D01*
X-0024100Y0012527D02*
Y0008355D01*
X0016000Y0009900D02*
X-0006375D01*
X-0001762Y0015500D02*
X-0001223Y0014961D01*
X-0001600Y0015511D02*
Y0015337D01*
X-0009700Y0020250D02*
Y0018875D01*
X-0002950Y0020250D02*
Y0015875D01*
X-0011950Y0020250D02*
Y0018875D01*
X-0021056Y0005400D02*
X-0021375D01*
X-0019600Y0020250D02*
Y0019625D01*
X-0018700Y0012342D02*
Y0008776D01*
X-0020680Y0013950D02*
X-0022165D01*
X0014150Y0011564D02*
Y0007436D01*
X-0026350Y0012182D02*
Y0008700D01*
X0016000Y0019800D02*
X-0029500D01*
X-0023915Y0014097D02*
X-0024283Y0013729D01*
X-0022750Y0001125D02*
Y0000517D01*
X-0023372Y0019365D02*
X-0024615Y0018122D01*
X-0021400Y0001125D02*
Y0000517D01*
X-0025000Y0017840D02*
Y0017000D01*
X-0022300Y0020250D02*
Y0019625D01*
X-0025000Y0016200D02*
X-0029500D01*
X0012800Y0017186D02*
Y0013864D01*
X-0025671Y0007055D02*
X-0026361D01*
X-0001714Y0018450D02*
X-0008712D01*
X-0015100Y0020250D02*
Y0019625D01*
X-0001600Y0012564D02*
Y-0002250D01*
X-0002739Y0016650D02*
X-0007761D01*
X-0007875Y0017250D02*
Y0016984D01*
X-0009250Y0020250D02*
Y0018838D01*
X-0011050Y0020250D02*
Y0018875D01*
X-0000250Y0016799D02*
Y-0002250D01*
X0010550Y0011000D02*
Y0008000D01*
X-0024100Y0001125D02*
Y-0002250D01*
X-0027700Y0017154D02*
Y0014787D01*
X-0007900Y0015973D02*
Y0015875D01*
X-0008125Y0010800D02*
X-0027125D01*
X-0008125Y0011250D02*
X-0027125D01*
X-0008125Y0011700D02*
X-0027125D01*
X-0024100Y0013912D02*
Y0013473D01*
X-0015484Y0002875D02*
X-0018160D01*
X-0008125Y0010350D02*
X-0027125D01*
X-0028875Y0008100D02*
X-0029500D01*
X-0028875Y0013250D02*
Y0002500D01*
X-0009700Y0012875D02*
Y0003787D01*
X-0023837Y0018900D02*
X-0025454D01*
X-0028087Y0014400D02*
X-0029500D01*
X-0028838Y0002250D02*
X-0029500D01*
X-0025000Y0020250D02*
Y0015487D01*
X0008036Y0006300D02*
X0006921D01*
X-0020916Y0014400D02*
X-0022005D01*
X-0025450Y0020250D02*
Y0018892D01*
X-0024550Y0020250D02*
Y0018187D01*
X-0028875Y0002700D02*
X-0029500D01*
X-0025000Y0015487D02*
X-0025362Y0015125D01*
X-0001150Y0020250D02*
Y0018739D01*
X-0026350Y0020250D02*
Y0019644D01*
X-0020950Y0012759D02*
Y0008359D01*
X-0025000Y0017100D02*
X-0025867D01*
X-0017800Y-0002183D02*
Y-0002250D01*
X-0020960Y0014850D02*
X-0022063D01*
X-0023267Y-0000450D02*
X-0025621D01*
X-0019150Y0020250D02*
Y0019625D01*
X-0013750Y0020250D02*
Y0019750D01*
X-0015550Y0020250D02*
Y0019625D01*
X0007950Y0012600D02*
X0006973D01*
X-0002050Y0020250D02*
Y0017454D01*
X-0025840Y0001000D02*
X-0025950D01*
X-0018394Y0012150D02*
X-0019575D01*
X-0018907Y0012600D02*
X-0019061D01*
X-0013000Y0002237D02*
X-0013612Y0001625D01*
X-0009887Y0003600D02*
X-0010000D01*
X-0009437Y0004050D02*
X-0010000D01*
X-0022750Y-0002183D02*
Y-0002250D01*
X-0006556Y0003600D02*
X-0007412D01*
X-0019150Y0012468D02*
Y0008649D01*
X-0023010Y0007650D02*
X-0024013D01*
X-0023230Y0007200D02*
X-0024240D01*
X-0021056Y0006300D02*
X-0021375D01*
X-0023125Y0005850D02*
X-0024639D01*
X-0023125Y0005400D02*
X-0024639D01*
X-0023125Y0004950D02*
X-0024639D01*
X-0023125Y0004500D02*
X-0024639D01*
X-0021000Y0001125D02*
Y0001000D01*
X-0025000Y0011955D02*
Y0008926D01*
X-0025639Y0012150D02*
X-0026392D01*
X-0026350Y0007064D02*
Y0007055D01*
X0016000Y0000900D02*
X0015137D01*
X0009836Y0004500D02*
X0007035D01*
X0011900Y0004236D02*
Y-0002250D01*
X0008043Y0006293D02*
X0010291Y0004045D01*
X0010293Y0004043D01*
X0011709Y0004045D02*
X0011707Y0004043D01*
X0013250Y0008000D02*
X0008750D01*
X0007782Y0006750D02*
X0007140D01*
X0010286Y0004050D02*
X0006553D01*
X0016000Y0004500D02*
X0012164D01*
X0011000Y0011000D02*
Y0008000D01*
X0013250D02*
X0008750D01*
X0007850Y0011564D02*
Y0007436D01*
X0007761Y0012150D02*
X0007152D01*
X0011450Y0020250D02*
Y0015143D01*
X0016000Y0005850D02*
X0013514D01*
X0007796Y0011700D02*
X0007119D01*
X0013250Y0011000D02*
X0008750D01*
X0012800Y-0000814D02*
Y-0002250D01*
X0008300Y0020250D02*
Y0012964D01*
X0016000Y0012600D02*
X0014050D01*
X0016000Y0005400D02*
X0013064D01*
X0008088Y0011250D02*
X0006846D01*
X0013250Y0011000D02*
X0008750D01*
X0016000Y0011700D02*
X0014204D01*
X0008750Y0020250D02*
Y0013414D01*
X0013471Y0016650D02*
X-0000363D01*
X0012550Y0018000D02*
X-0000032D01*
X0007850Y0020250D02*
Y0012436D01*
X0016000Y0018900D02*
X0015137D01*
X0016000Y0019350D02*
X0014529D01*
X0005150Y0020250D02*
Y0014362D01*
X0012350Y0004686D02*
Y-0002250D01*
X0016000Y0016650D02*
X0014529D01*
X0011000Y0020250D02*
Y0015250D01*
X0013250Y0016759D02*
Y0013414D01*
X0013700Y0016581D02*
Y0012964D01*
X0008045Y0012709D02*
X0008043Y0012707D01*
X0009200Y0020250D02*
Y0013864D01*
X0016000Y0017100D02*
X0015137D01*
X0012350Y0020250D02*
Y0014314D01*
X0013250Y0020250D02*
Y0019241D01*
X0016000Y0018000D02*
X0015450D01*
X0012800Y0020250D02*
Y0018814D01*
X0012621Y-0000450D02*
X-0008208D01*
X0012863Y-0000900D02*
X-0008208D01*
X0016000D02*
X0015137D01*
X0013700Y0020250D02*
Y0019418D01*
X0013471Y0001350D02*
X-0001990D01*
X0016000D02*
X0014529D01*
X0016000Y0003600D02*
X-0003000D01*
X0013471Y-0001350D02*
X-0008208D01*
X0014150Y0016558D02*
Y0012436D01*
X0016000Y-0000450D02*
X0015378D01*
X0016000Y0014400D02*
X0012264D01*
X0016000Y0000000D02*
X0015450D01*
X0016000Y0000450D02*
X0015378D01*
X0012863Y0017100D02*
X-0000138D01*
X0010186Y0014850D02*
X0006679D01*
X0016000Y0012150D02*
X0014239D01*
X0014600Y0020250D02*
Y0019320D01*
X0015050Y0020250D02*
Y0019000D01*
X0014150Y0020250D02*
Y0019442D01*
X0016000Y0013050D02*
X0013614D01*
X0016000Y0013500D02*
X0013164D01*
X-0027840Y0001194D02*
Y0001182D01*
X-0028150Y0001412D02*
Y0000883D01*
X-0025900Y-0000945D02*
Y-0002250D01*
X0016000Y0014850D02*
X0011814D01*
X-0028137Y-0000900D02*
X-0029500D01*
X-0029050Y0020250D02*
Y-0002250D01*
X-0021000Y0002972D02*
X-0021056D01*
X0010550Y0020250D02*
Y0015143D01*
X-0023267Y-0001350D02*
X-0026471D01*
X0014150Y-0001442D02*
Y-0002250D01*
X0009200Y0011000D02*
Y0008000D01*
X-0019802Y0000900D02*
X-0025863D01*
X0011450Y0011000D02*
Y0008000D01*
X-0026350Y-0001296D02*
Y-0002250D01*
X-0023650Y0001125D02*
Y-0002250D01*
X0011900Y0011000D02*
Y0008000D01*
X0012350Y0011000D02*
Y0008000D01*
X0012621Y0017550D02*
X-0000020D01*
X0013955Y0012709D02*
X0013957Y0012707D01*
X-0026350Y0016856D02*
Y0015125D01*
X-0028020Y0017550D02*
X-0029500D01*
X0013700Y0011107D02*
Y0007893D01*
X-0025187Y0015300D02*
X-0029500D01*
X0016000Y0006750D02*
X0014218D01*
X0016000Y0007650D02*
X0014010D01*
X-0028875Y0009000D02*
X-0029500D01*
X-0023267Y0000450D02*
X-0025621D01*
X-0025900Y0001000D02*
Y0000945D01*
X-0028378Y-0000450D02*
X-0029500D01*
X-0028150Y0017872D02*
Y0014337D01*
X-0024287Y0018450D02*
X-0025314D01*
X-0023267Y0000000D02*
X-0025550D01*
X-0027695Y0019350D02*
X-0029500D01*
X-0024718Y0018000D02*
X-0025322D01*
X-0027700Y0020250D02*
Y0019345D01*
X-0023200Y0001125D02*
Y0000517D01*
Y-0002183D02*
Y-0002250D01*
X-0021056Y0004950D02*
X-0021375D01*
X-0021056Y0003150D02*
X-0021375D01*
X-0017350Y0007182D02*
Y0002875D01*
X-0019838Y0001000D02*
X-0020160D01*
X0011450Y0003857D02*
Y-0002250D01*
X0009650Y0011000D02*
Y0008000D01*
X-0025000Y0001000D02*
X-0025840D01*
X-0021056Y0004050D02*
X-0021375D01*
X-0021056Y0003600D02*
X-0021375D01*
X-0028875Y0008550D02*
X-0029500D01*
X-0007900Y0000125D02*
Y-0002250D01*
X-0028086Y0001350D02*
X-0029500D01*
X-0013300Y0002972D02*
Y0001937D01*
X-0020500Y0012218D02*
Y0008900D01*
X-0016000Y0013625D02*
Y0002875D01*
X-0006000Y0002237D02*
X-0006362Y0001875D01*
X-0026800Y0020250D02*
Y0019699D01*
X-0018781Y0007305D02*
X-0019188D01*
X-0008250Y0012875D02*
X-0009994D01*
X-0018888Y0008550D02*
X-0019080D01*
X-0006556Y0004467D02*
Y0002972D01*
X-0007900Y0003112D02*
Y0001875D01*
X-0006000Y0002972D02*
Y0002237D01*
X0002000Y0020250D02*
Y0014272D01*
X-0018303Y0009000D02*
X-0019665D01*
X0016000Y0002700D02*
X-0002036D01*
X0005150Y0004606D02*
Y-0002250D01*
X-0002500Y0001032D02*
Y-0002250D01*
X-0000700Y0013400D02*
Y-0002250D01*
X-0004750Y0001000D02*
Y-0002250D01*
X-0007000Y0004012D02*
Y0001875D01*
X-0005200Y0000562D02*
Y-0002250D01*
X-0008800Y0020250D02*
Y0018537D01*
X0013250Y-0001241D02*
Y-0002250D01*
X-0008800Y0002212D02*
Y0001875D01*
X-0013608Y0012150D02*
X-0017606D01*
X-0013556Y0006997D02*
Y0002972D01*
X-0023200Y0006688D02*
Y0002875D01*
X-0027529Y-0001350D02*
X-0029500D01*
X-0013612Y0001625D02*
X-0014073D01*
X-0007450Y0003562D02*
Y0001875D01*
X-0020050Y0001000D02*
Y0000517D01*
X-0006000Y0002700D02*
X-0008312D01*
X-0016450Y0013625D02*
Y0002875D01*
X-0006550Y0000125D02*
Y-0002250D01*
X0012550Y0000000D02*
X-0008208D01*
X-0015550Y0013625D02*
Y0002875D01*
X-0028178Y0018000D02*
X-0029500D01*
X-0004762Y0001000D02*
X-0005378Y0000385D01*
X-0020160Y0001000D02*
X-0021000D01*
X-0016900Y0013625D02*
Y0002875D01*
X-0017800Y0002972D02*
Y0002875D01*
X-0023200Y0013520D02*
Y0007312D01*
X-0021056Y0004500D02*
X-0021375D01*
X-0021056Y0006750D02*
X-0021282D01*
X0016000Y0004950D02*
X0012614D01*
X0014150Y0006564D02*
Y0001442D01*
X0011707Y0014957D02*
X0013955Y0012709D01*
X0009736Y0014400D02*
X0007070D01*
X0009286Y0013950D02*
X0007163D01*
X0009650Y0020250D02*
Y0014314D01*
X0010100Y0020250D02*
Y0014764D01*
X0006050Y0020250D02*
Y0015011D01*
X0006950Y0020250D02*
Y0014600D01*
X0005619Y0013050D02*
X0001499D01*
X0006950Y0013336D02*
Y0012632D01*
X0006500Y0012995D02*
Y0012973D01*
Y0020250D02*
Y0014941D01*
X0005600Y0013061D02*
Y0012907D01*
X0008836Y0013500D02*
X0007052D01*
X0008386Y0013050D02*
X0006617D01*
X0009650Y0004686D02*
Y-0002250D01*
X0009200Y0005136D02*
Y-0002250D01*
X0005557Y0014850D02*
X0001561D01*
X0005166Y0014400D02*
X0001952D01*
X0005073Y0013950D02*
X0002045D01*
X0005184Y0013500D02*
X0001934D01*
X0016000Y0011250D02*
X0013911D01*
X0016000Y0016200D02*
X-0000796D01*
X0000650Y0020250D02*
Y0014953D01*
X0005150Y0011606D02*
Y0007362D01*
X0005084Y0012150D02*
X0002034D01*
X0002000Y0013665D02*
Y0012303D01*
X0001550Y0013080D02*
Y0012888D01*
Y0020250D02*
Y0014857D01*
X0001100Y0020250D02*
Y0015008D01*
X0005262Y0012600D02*
X0001855D01*
X0005117Y0011700D02*
X0002001D01*
X0008750Y0011000D02*
Y0008000D01*
X0007990Y0007650D02*
X0006910D01*
X0007770Y0007200D02*
X0007137D01*
X0006950Y0011368D02*
Y0007600D01*
X0006050Y0010957D02*
Y0008011D01*
X0005600Y0011092D02*
Y0007876D01*
X0005314Y0006300D02*
X0001803D01*
X0006950Y0006336D02*
Y0005632D01*
X0006500Y0005995D02*
Y0005973D01*
Y0011027D02*
Y0007941D01*
X0005600Y0006061D02*
Y0005907D01*
X0008750Y0005586D02*
Y-0002250D01*
X0008300Y0006036D02*
Y-0002250D01*
X0008486Y0005850D02*
X0006726D01*
X0008936Y0005400D02*
X0007083D01*
X0009386Y0004950D02*
X0007162D01*
X-0028875Y0012600D02*
X-0029500D01*
X0005326Y0007650D02*
X0001792D01*
X0005099Y0007200D02*
X0002019D01*
X0005096Y0006750D02*
X0002022D01*
X0002000Y0011696D02*
Y0007272D01*
X0000650Y0011015D02*
Y0007953D01*
X0000196Y0006300D02*
X-0003000D01*
X0002000Y0006665D02*
Y0005303D01*
X0001550Y0006080D02*
Y0005888D01*
Y0011111D02*
Y0007857D01*
X0001100Y0010960D02*
Y0008008D01*
X0005600Y0004092D02*
Y-0002250D01*
X0005510Y0005850D02*
X0001608D01*
X0005152Y0005400D02*
X0001965D01*
X0005074Y0004950D02*
X0002044D01*
X0005200Y0004500D02*
X0001917D01*
X-0002500Y0012000D02*
Y0002968D01*
X0000272Y0011250D02*
X-0006375D01*
X-0009250Y0012875D02*
Y0004237D01*
X-0004394Y0012150D02*
X-0005575D01*
X-0004907Y0012600D02*
X-0005061D01*
X-0003400Y0020250D02*
Y0015875D01*
X-0003850Y0020250D02*
Y0015875D01*
X-0002050Y0012107D02*
Y0002714D01*
X-0021056Y0005850D02*
X-0021375D01*
X-0001150Y0013063D02*
Y-0002250D01*
X-0002950Y0012107D02*
Y0002980D01*
X-0004303Y0009000D02*
X-0005665D01*
X-0005650Y0020250D02*
Y0015875D01*
X-0004888Y0008550D02*
X-0005080D01*
X0016000Y0009450D02*
X-0006375D01*
X-0003000Y0007305D02*
X-0003219D01*
X0016000Y0004050D02*
X0011714D01*
X0016000Y0008550D02*
X-0003111D01*
X-0010150Y0012439D02*
Y0008443D01*
X-0011950Y0012501D02*
Y0008381D01*
X-0010000Y0007305D02*
X-0010160D01*
X-0013750Y0012272D02*
Y0008610D01*
X-0011835Y0008550D02*
X-0012196D01*
X-0004781Y0007305D02*
X-0005188D01*
X-0008800Y0012875D02*
Y0004687D01*
X0000200Y0020250D02*
Y0014640D01*
X-0006550Y0020250D02*
Y0015875D01*
X-0002550Y0017100D02*
X-0007875D01*
X-0028137Y0000900D02*
X-0029500D01*
X-0023125Y0002875D02*
X-0024639D01*
X-0020950Y0001000D02*
Y0000517D01*
X-0023125Y0003150D02*
X-0024639D01*
X-0021000Y0002875D02*
X-0021375D01*
X-0025000Y0001125D02*
Y0001000D01*
X-0008125Y0005362D02*
X-0010000Y0003487D01*
X-0007000Y0000125D02*
Y-0002250D01*
X-0007450Y0000125D02*
Y-0002250D01*
X-0011950Y-0002183D02*
Y-0002250D01*
X-0013000Y0002972D02*
Y0002237D01*
X-0012400Y0012144D02*
Y0008737D01*
X-0012850Y0011966D02*
Y0008916D01*
X-0013750Y0007154D02*
Y0001625D01*
X-0016000Y0020250D02*
Y0019625D01*
X-0008208Y0000125D02*
Y-0002183D01*
X0014600Y0016680D02*
Y0001320D01*
X0012621Y0000450D02*
X-0005312D01*
X0014600Y-0001320D02*
Y-0002250D01*
X-0019615Y0000628D02*
X-0019504Y0000517D01*
X-0013000Y0002972D02*
X-0013556D01*
X-0020500Y0001000D02*
Y0000517D01*
X-0020050Y0012076D02*
Y0009042D01*
X-0022750Y0013532D02*
Y0007866D01*
X-0025000Y0016650D02*
X-0029500D01*
X-0003400Y0012262D02*
Y0008855D01*
X-0003850Y0012084D02*
Y0009034D01*
X0000208Y0007650D02*
X-0003015D01*
X-0000019Y0007200D02*
X-0003000D01*
X-0000022Y0006750D02*
X-0003000D01*
X0000650Y0004015D02*
Y-0002250D01*
X0000392Y0005850D02*
X-0003000D01*
X0000034Y0005400D02*
X-0003000D01*
X-0000044Y0004950D02*
X-0003000D01*
X0000082Y0004500D02*
X-0003000D01*
X0016000Y0008100D02*
X-0002960D01*
X-0008125D02*
X-0010009D01*
X0016000Y0001800D02*
X-0001770D01*
X-0006375Y0012155D02*
Y0008963D01*
X-0008125Y0008550D02*
X-0010228D01*
X-0008125Y0007200D02*
X-0010000D01*
X-0008125Y0006300D02*
X-0010000D01*
X0016000Y0010800D02*
X-0006375D01*
X-0008125Y0005850D02*
X-0010000D01*
X-0008537Y0004950D02*
X-0010000D01*
X-0008987Y0004500D02*
X-0010000D01*
Y0007305D02*
Y0003487D01*
X-0011950Y0007383D02*
Y0007305D01*
X-0010150Y0007321D02*
Y0007305D01*
X-0018160Y0002972D02*
Y0002875D01*
X-0021400Y0015040D02*
Y0007527D01*
X-0014022Y0008100D02*
X-0016960D01*
X-0008125Y0009000D02*
X-0017696D01*
X-0013556Y0006750D02*
X-0017500D01*
X-0013556Y0006300D02*
X-0017500D01*
X-0013556Y0005850D02*
X-0017500D01*
X-0013556Y0005400D02*
X-0017500D01*
X-0013556Y0004950D02*
X-0017500D01*
X-0013556Y0004500D02*
X-0017500D01*
X-0013556Y0004050D02*
X-0017500D01*
Y0007082D02*
Y0002972D01*
X-0027250Y0016889D02*
Y0015088D01*
X-0017800Y0012092D02*
Y0009026D01*
X-0019150Y0007350D02*
Y0007305D01*
X0011850Y0007000D02*
Y0005600D01*
X0011400Y0007000D02*
Y0005150D01*
X0010950Y0007000D02*
Y0004800D01*
X0010500Y0007000D02*
Y0005250D01*
X0010050Y0007000D02*
Y0005700D01*
X0009600Y0007000D02*
Y0006150D01*
X0009150Y0007000D02*
Y0006600D01*
X0013200Y0006950D02*
X0008800D01*
X0012750Y0006500D02*
X0009250D01*
X0012300Y0006050D02*
X0009700D01*
X0011850Y0005600D02*
X0010150D01*
X0011400Y0005150D02*
X0010600D01*
X0013250Y0007000D02*
X0011000Y0004750D01*
X0008750Y0007000D02*
X0011000Y0004750D01*
X0013250Y0007000D02*
X0008750D01*
X0013200D02*
Y0006950D01*
X0012750Y0007000D02*
Y0006500D01*
X0012300Y0007000D02*
Y0006050D01*
X0011850Y0007000D02*
Y0005600D01*
X0011400Y0007000D02*
Y0005150D01*
X0010950Y0007000D02*
Y0004800D01*
X0010500Y0007000D02*
Y0005250D01*
X0010050Y0007000D02*
Y0005700D01*
X0009600Y0007000D02*
Y0006150D01*
X0009150Y0007000D02*
Y0006600D01*
X0013200Y0006950D02*
X0008800D01*
X0012750Y0006500D02*
X0009250D01*
X0012300Y0006050D02*
X0009700D01*
X0011850Y0005600D02*
X0010150D01*
X0011400Y0005150D02*
X0010600D01*
X0013250Y0007000D02*
X0011000Y0004750D01*
X0008750Y0007000D02*
X0011000Y0004750D01*
X0013250Y0007000D02*
X0008750D01*
X0013200D02*
Y0006950D01*
X0012750Y0007000D02*
Y0006500D01*
X0012300Y0007000D02*
Y0006050D01*
X0011850Y0013400D02*
Y0012000D01*
X0011400Y0013850D02*
Y0012000D01*
X0010950Y0014200D02*
Y0012000D01*
X0010500Y0013750D02*
Y0012000D01*
X0010050Y0013300D02*
Y0012000D01*
X0009600Y0012850D02*
Y0012000D01*
X0009150Y0012400D02*
Y0012000D01*
X0011050Y0014200D02*
X0010950D01*
X0011500Y0013750D02*
X0010500D01*
X0011950Y0013300D02*
X0010050D01*
X0012400Y0012850D02*
X0009600D01*
X0012850Y0012400D02*
X0009150D01*
X0011000Y0014250D02*
X0008750Y0012000D01*
X0011000Y0014250D02*
X0013250Y0012000D01*
X0008750D01*
X0013200Y0012050D02*
Y0012000D01*
X0012750Y0012500D02*
Y0012000D01*
X0012300Y0012950D02*
Y0012000D01*
X0011850Y0013400D02*
Y0012000D01*
X0011400Y0013850D02*
Y0012000D01*
X0010950Y0014200D02*
Y0012000D01*
X0010500Y0013750D02*
Y0012000D01*
X0010050Y0013300D02*
Y0012000D01*
X0009600Y0012850D02*
Y0012000D01*
X0009150Y0012400D02*
Y0012000D01*
X0011050Y0014200D02*
X0010950D01*
X0011500Y0013750D02*
X0010500D01*
X0011950Y0013300D02*
X0010050D01*
X0012400Y0012850D02*
X0009600D01*
X0012850Y0012400D02*
X0009150D01*
X0011000Y0014250D02*
X0008750Y0012000D01*
X0011000Y0014250D02*
X0013250Y0012000D01*
X0008750D01*
X0013200Y0012050D02*
Y0012000D01*
X0012750Y0012500D02*
Y0012000D01*
X0012300Y0012950D02*
Y0012000D01*
G01X-0002750Y0016500D02*
G03X-0002530Y0015875I0001000J0000000D01*
G01X-0028119Y0001381D02*
G03X-0027840Y0001194I0000619J0000619D01*
G01X-0004000Y0009045D02*
G03X-0004984Y0008351I0000000J0001045D01*
G01X-0011032Y0008927D02*
G03X-0012016Y0008233I0000000J0001045D01*
G01X-0018984Y0008351D02*
G03X-0019969Y0009046I0000985J0000351D01*
G01X-0018000Y0009045D02*
G03X-0018984Y0008351I0000000J0001045D01*
G01X0015450Y0000000D02*
G03X0014000Y0001450I0001450J0000000D01*
G01X0013250Y0011000D02*
G03X0014250Y0012000I0000000J0001000D01*
G01X0005766Y0005984D02*
G03X0005073Y0005000I0000352J0000984D01*
G01X0000648Y0005984D02*
G03X-0000045Y0005000I0000352J0000984D01*
G01X-0002000Y0017750D02*
G03X-0001972Y0017515I0001000J0000000D01*
G01X-0003219Y0007305D02*
G03X-0002955Y0008000I0000781J0000695D01*
G01X-0006000Y0000125D02*
G03X-0005381Y0000381I0000000J0000875D01*
G01X-0015000Y0003000D02*
G03X-0015484Y0002875I0000000J0001000D01*
G01X-0027000Y0015125D02*
G03X-0027619Y0014869I0000000J0000875D01*
G01X-0026750Y0019700D02*
G03X-0028200Y0018250I0000000J0001450D01*
G01X0006469Y0012984D02*
G03X0007163Y0013968I0000351J0000984D01*
G01X-0000500Y0014000D02*
G03X-0001223Y0014961I0001000J0000000D01*
G01X-0027125Y0011962D02*
G03X-0027000Y0011955I0000125J0001038D01*
G01X-0006375Y0012155D02*
G03X-0005969Y0012073I0000406J0000963D01*
G01X-0027000Y0008927D02*
G03X-0027125Y0008919I0000000J0001045D01*
G01X-0017500Y0007082D02*
G03X-0016955Y0008000I0000500J0000918D01*
G01X-0028119Y0001381D02*
G03X-0027840Y0001194I0000619J0000619D01*
G01X0014000Y0019450D02*
G03X0012550Y0018000I0000000J0001450D01*
G01X-0020648Y0013912D02*
G03X-0021014Y0013118I0000679J0000794D01*
G01X-0006631Y0004381D02*
G03X-0006556Y0004467I0000619J0000619D01*
G01X-0006631Y0004381D02*
G03X-0006556Y0004467I0000619J0000619D01*
G01X-0002026Y0017461D02*
G03X-0002750Y0016500I0000276J0000961D01*
Y0003000D02*
G03X-0003160Y0002912I0000000J0001000D01*
G01X-0002750Y0001000D02*
G03X-0001750Y0002000I0000000J0001000D01*
G03X-0002750Y0003000I0001000J0000000D01*
G01X-0003160Y0001088D02*
G03X-0002750Y0001000I0000410J0000912D01*
G01X-0020969Y0014718D02*
G03X-0020819Y0014192I0001000J0000000D01*
G01X-0000125Y0017266D02*
G03X0000000Y0017750I0000875J0000484D01*
G03X-0001000Y0018750I0001000J0000000D01*
G03X-0002000Y0017750I0000000J0001000D01*
G01X-0008178Y0012878D02*
G03X-0008125Y0012766I0000928J0000372D01*
G01X0005073Y0013968D02*
G03X0005766Y0012984I0001045J0000000D01*
G01X0007163Y0013968D02*
G03X0006118Y0015013I0001045J0000000D01*
G03X0005073Y0013968I0000000J0001045D01*
Y0012000D02*
G03X0006118Y0010955I0001045J0000000D01*
G03X0007163Y0012000I0000000J0001045D01*
G03X0006469Y0012984I0001045J0000000D01*
G01X-0000045Y0013968D02*
G03X0000648Y0012984I0001045J0000000D01*
G01X0002045Y0013968D02*
G03X0001000Y0015013I0001045J0000000D01*
G03X-0000045Y0013968I0000000J0001045D01*
Y0012000D02*
G03X0001000Y0010955I0001045J0000000D01*
G03X0002045Y0012000I0000000J0001045D01*
G03X0001351Y0012984I0001045J0000000D01*
G01X0005073Y0006968D02*
G03X0005766Y0005984I0001045J0000000D01*
G01X0007163Y0006968D02*
G03X0006118Y0008013I0001045J0000000D01*
G03X0005073Y0006968I0000000J0001045D01*
Y0005000D02*
G03X0006118Y0003955I0001045J0000000D01*
G03X0007163Y0005000I0000000J0001045D01*
G03X0006469Y0005984I0001045J0000000D01*
G01X-0000045Y0006968D02*
G03X0000648Y0005984I0001045J0000000D01*
G01X0002045Y0006968D02*
G03X0001000Y0008013I0001045J0000000D01*
G03X-0000045Y0006968I0000000J0001045D01*
Y0005000D02*
G03X0001000Y0003955I0001045J0000000D01*
G03X0002045Y0005000I0000000J0001045D01*
G03X0001351Y0005984I0001045J0000000D01*
G01X-0005969Y0012073D02*
G03X-0004984Y0012767I0000000J0001045D01*
G03X-0004000Y0012073I0000984J0000351D01*
G01X0001351Y0005984D02*
G03X0002045Y0006968I0000351J0000984D01*
G01X-0002955Y0008000D02*
G03X-0004000Y0009045I0001045J0000000D01*
G01X-0009987Y0007882D02*
G03X-0011032Y0008927I0001045J0000000D01*
G01X-0012016Y0007530D02*
G03X-0011903Y0007305I0000984J0000352D01*
G01X-0010160D02*
G03X-0009986Y0007882I0000872J0000577D01*
G01X-0014045D02*
G03X-0013556Y0006997I0001045J0000000D01*
G01X-0004984Y0008351D02*
G03X-0005969Y0009046I0000985J0000351D01*
G01X-0013000Y0008927D02*
G03X-0014045Y0007882I0000000J0001045D01*
G01X-0012016Y0012648D02*
G03X-0011032Y0011955I0000984J0000352D01*
G01X-0013000D02*
G03X-0012016Y0012648I0000000J0001045D01*
G01X-0021014Y0013118D02*
G03X-0019969Y0012073I0001045J0000000D01*
G03X-0018984Y0012767I0000000J0001045D01*
Y0013469D02*
G03X-0019055Y0013625I0000985J0000351D01*
G01X-0018000Y0012073D02*
G03X-0016955Y0013118I0000000J0001045D01*
G01X-0014041Y0012909D02*
G03X-0013000Y0011955I0001041J0000091D01*
G01X-0018984Y0012767D02*
G03X-0018000Y0012073I0000984J0000351D01*
G01X-0021014Y0008000D02*
G03X-0020749Y0007305I0001045J0000000D01*
G01X-0019969Y0009045D02*
G03X-0021014Y0008000I0000000J0001045D01*
G01X-0016955D02*
G03X-0018000Y0009045I0001045J0000000D01*
G01X-0023987Y0007882D02*
G03X-0025032Y0008927I0001045J0000000D01*
G01X-0024639Y0006913D02*
G03X-0023986Y0007882I0000393J0000969D01*
G01X-0025032Y0011955D02*
G03X-0023987Y0013000I0000000J0001045D01*
G01X-0026016Y0012648D02*
G03X-0025032Y0011955I0000984J0000352D01*
G01X-0016955Y0013118D02*
G03X-0017086Y0013625I0001045J0000000D01*
G01X-0027000Y0011955D02*
G03X-0026016Y0012648I0000000J0001045D01*
Y0013351D02*
G03X-0026024Y0013375I0000984J0000351D01*
G01X-0022000Y0014500D02*
G03X-0022115Y0014966I0001000J0000000D01*
G01X-0021500Y0015088D02*
G03X-0021000Y0014960I0000500J0000912D01*
G01X-0013750Y0019750D02*
G03X-0014234Y0019625I0000000J0001000D01*
G01X-0022000Y0014960D02*
G03X-0021500Y0015088I0000000J0001040D01*
G01X-0023987Y0013000D02*
G03X-0024283Y0013729I0001045J0000000D01*
G01X-0022115Y0014966D02*
G03X-0022000Y0014960I0000115J0001034D01*
G01X-0020938Y0014962D02*
G03X-0020968Y0014718I0000969J0000244D01*
G01X-0024619Y0018119D02*
G03X-0024806Y0017840I0000619J0000619D01*
G01X-0026007Y0013375D02*
G03X-0026016Y0013351I0000975J0000375D01*
G01X-0020819Y0014192D02*
G03X-0020648Y0013912I0000819J0000308D01*
G01X-0012758Y0018875D02*
G03X-0013750Y0019750I0000992J0000125D01*
G01X-0026016Y0008233D02*
G03X-0027000Y0008927I0000984J0000351D01*
G01X-0023250Y0007000D02*
G03X-0023125Y0006516I0001000J0000000D01*
G01X-0021250Y0007000D02*
G03X-0022250Y0008000I0001000J0000000D01*
G03X-0023250Y0007000I0000000J0001000D01*
G01X-0021000Y0014960D02*
G03X-0020938Y0014962I0000000J0001040D01*
G01X-0007750Y0016500D02*
G03X-0007875Y0016984I0001000J0000000D01*
G01X-0000381Y0016631D02*
G03X-0000125Y0017250I0000619J0000619D01*
G01X-0008250Y0012875D02*
G03X-0008178Y0012878I0000000J0000875D01*
G01X-0001762Y0015500D02*
G03X-0001750Y0015500I0000012J0001000D01*
G01X-0002500Y0012000D02*
G03X-0001500Y0013000I0000000J0001000D01*
G01X-0003274Y0012366D02*
G03X-0002500Y0011999I0000774J0000634D01*
G01X-0004000Y0012073D02*
G03X-0003274Y0012366I0000000J0001045D01*
G01X-0011032Y0011955D02*
G03X-0009994Y0012875I0000000J0001045D01*
G01X-0001500Y0013000D02*
G03X-0000500Y0014000I0000000J0001000D01*
G01X-0018914Y0013625D02*
G03X-0018984Y0013469I0000914J0000507D01*
G01X-0014492Y0013625D02*
G03X-0014041Y0012909I0000992J0000125D01*
G01X-0012128Y0007305D02*
G03X-0012016Y0007530I0000872J0000577D01*
G01X-0001750Y0015500D02*
G03X-0000789Y0016223I0000000J0001000D01*
G01X-0023000Y0013500D02*
G03X-0022000Y0014500I0000000J0001000D01*
G01X-0008881Y0018619D02*
G03X-0009500Y0018875I0000619J0000619D01*
G01X-0007875Y0017250D02*
G03X-0008131Y0017869I0000875J0000000D01*
G01X-0007875Y0017250D02*
G03X-0008131Y0017869I0000875J0000000D01*
G01X-0007969Y0015875D02*
G03X-0007750Y0016500I0000781J0000625D01*
G01X-0028619Y0013869D02*
G03X-0028875Y0013250I0000619J0000619D01*
Y0002500D02*
G03X-0028619Y0001881I0000875J0000000D01*
G01X-0027000Y0015125D02*
G03X-0027619Y0014869I0000000J0000875D01*
G01X-0023915Y0014097D02*
G03X-0023000Y0013500I0000915J0000403D01*
G01X-0022750Y0019625D02*
G03X-0023369Y0019369I0000000J0000875D01*
G01X-0024619Y0018119D02*
G03X-0024806Y0017840I0000619J0000619D01*
G01X-0014000Y0002000D02*
G03X-0015000Y0003000I0001000J0000000D01*
G01X-0026016Y0007530D02*
G03X-0025671Y0007055I0000984J0000352D01*
G01X-0026361D02*
G03X-0026016Y0007530I0000639J0000827D01*
G01X-0025032Y0008927D02*
G03X-0026016Y0008233I0000000J0001045D01*
G01X0010293Y0004043D02*
G03X0011000Y0003750I0000707J0000707D01*
G01X0013957Y0006293D02*
G03X0014250Y0007000I0000707J0000707D01*
G01X0007750D02*
G03X0008043Y0006293I0001000J0000000D01*
G01X0011000Y0003750D02*
G03X0011707Y0004043I0000000J0001000D01*
G01X0010293D02*
G03X0011000Y0003750I0000707J0000707D01*
G01X0013957Y0006293D02*
G03X0014250Y0007000I0000707J0000707D01*
G01X0007750D02*
G03X0008043Y0006293I0001000J0000000D01*
G01X0011000Y0003750D02*
G03X0011707Y0004043I0000000J0001000D01*
G01X0007750Y0012000D02*
G03X0008750Y0011000I0001000J0000000D01*
G01X0011707Y0014957D02*
G03X0011000Y0015250I0000707J0000707D01*
G01X0008043Y0012707D02*
G03X0007750Y0012000I0000707J0000707D01*
G01X0014250D02*
G03X0013957Y0012707I0001000J0000000D01*
G01X0011000Y0015250D02*
G03X0010293Y0014957I0000000J0001000D01*
G01X0011707D02*
G03X0011000Y0015250I0000707J0000707D01*
G01X0008043Y0012707D02*
G03X0007750Y0012000I0000707J0000707D01*
G01X0014250D02*
G03X0013957Y0012707I0001000J0000000D01*
G01X0011000Y0015250D02*
G03X0010293Y0014957I0000000J0001000D01*
G01X0008750Y0008000D02*
G03X0007750Y0007000I0000000J0001000D01*
G01X0014000Y0016550D02*
G03X0015450Y0018000I0000000J0001450D01*
G01X0012550D02*
G03X0014000Y0016550I0001450J0000000D01*
G01X0012550Y0000000D02*
G03X0014000Y-0001450I0001450J0000000D01*
G03X0015450Y0000000I0000000J0001450D01*
G01X0014000Y0001450D02*
G03X0012550Y0000000I0000000J0001450D01*
G01X-0028875Y0002500D02*
G03X-0028619Y0001881I0000875J0000000D01*
G01X-0027000Y-0001450D02*
G03X-0025550Y0000000I0000000J0001450D01*
G01X-0027840Y0001182D02*
G03X-0028450Y0000000I0000840J0001182D01*
G01X0015450Y0018000D02*
G03X0014000Y0019450I0001450J0000000D01*
G01X-0028450Y0000000D02*
G03X-0027000Y-0001450I0001450J0000000D01*
G01X-0028200Y0018250D02*
G03X-0026750Y0016800I0001450J0000000D01*
G03X-0025300Y0018250I0000000J0001450D01*
G03X-0026750Y0019700I0001450J0000000D01*
G01X-0025550Y0000000D02*
G03X-0025950Y0001000I0001450J0000000D01*
G01X-0014073Y0001625D02*
G03X-0014000Y0002000I0000927J0000375D01*
G01X-0005969Y0009045D02*
G03X-0006375Y0008963I0000000J0001045D01*
G01X-0019838Y0001000D02*
G03X-0019619Y0000631I0000838J0000250D01*
G01X0014250Y0007000D02*
G03X0013250Y0008000I0001000J0000000D01*
G01X0005766Y0012984D02*
G03X0005073Y0012000I0000352J0000984D01*
G01X0001351Y0012984D02*
G03X0002045Y0013968I0000351J0000984D01*
G01X0000648Y0012984D02*
G03X-0000045Y0012000I0000352J0000984D01*
G01X0006469Y0005984D02*
G03X0007163Y0006968I0000351J0000984D01*
G01X-0012016Y0008233D02*
G03X-0013000Y0008927I0000984J0000351D01*
G01X-0019838Y0001000D02*
G03X-0019619Y0000631I0000838J0000250D01*
G01X-0021375Y0006516D02*
G03X-0021250Y0007000I0000875J0000484D01*
G01X-0005188Y0007305D02*
G03X-0004984Y0007649I0000781J0000695D01*
G03X-0004781Y0007305I0000984J0000351D01*
G01X-0019188D02*
G03X-0018984Y0007649I0000781J0000695D01*
G03X-0018781Y0007305I0000984J0000351D01*
G54D18*
G01X-0020000Y0002000D02*
X-0022250D01*
X-0026000D01*
X-0012000D02*
Y0001250D01*
X-0011750Y0001000D01*
X-0006000D01*
X-0005000Y0002000D01*
X-0012000D02*
X-0013250Y0000750D01*
X-0018500D01*
X-0019000Y0001250D01*
Y0002000D01*
X-0020000D01*
X-0022250Y0007000D02*
Y0002000D01*
X-0026000D01*
X-0001000Y0017750D02*
Y0017250D01*
X-0001750Y0016500D01*
X-0013500Y0013750D02*
X-0008250D01*
X-0007750Y0014250D01*
X-0003750D01*
X-0002500Y0013000D01*
X-0001500Y0014000D02*
X-0002500Y0015000D01*
X-0010250D01*
X-0010500Y0015250D01*
X-0013750D01*
Y0015000D01*
X-0023000Y0014500D02*
Y0017500D01*
X-0022500Y0018000D01*
X-0009500D01*
X-0008750Y0017250D01*
Y0016500D01*
X-0026840Y0002000D02*
X-0027500D01*
X-0028000Y0002500D01*
Y0013250D01*
X-0027000Y0014250D01*
X-0025000D01*
X-0024000Y0015250D01*
Y0016000D01*
X-0013750Y0018750D02*
X-0022750D01*
X-0024000Y0017500D01*
Y0016840D01*
X-0019160Y0002000D02*
X-0015000D01*
X-0007250Y0013250D02*
Y0005000D01*
X-0010250Y0002000D01*
X-0011160D01*
X-0002750D02*
X-0004160D01*
X-0020000Y0014500D02*
X-0011750D01*
G54D20*
G01X-0009058Y-0001333D02*
X-0009558Y-0000333D01*
X-0009058D02*
X-0009558Y-0001333D01*
X-0010125D02*
X-0010458D01*
X-0010292D02*
Y-0000333D01*
X-0010125D02*
X-0010458D01*
X-0011358Y-0000833D02*
X-0011108Y-0001333D01*
X-0011775Y-0000833D02*
X-0011275D01*
X-0011108Y-0000667D01*
Y-0000500D01*
X-0011275Y-0000333D01*
X-0011775D01*
Y-0001333D01*
X-0012592D02*
Y-0000333D01*
X-0012258D02*
X-0012925D01*
X-0013408Y-0001000D02*
X-0014075D01*
X-0013408Y-0001333D02*
Y-0000833D01*
X-0013658Y-0000333D01*
X-0013825D01*
X-0014075Y-0000833D01*
Y-0001333D01*
X-0014558D02*
Y-0000333D01*
X-0014725Y-0000500D01*
X-0014892Y-0000833D01*
X-0015058Y-0000500D01*
X-0015225Y-0000333D01*
Y-0001333D01*
X-0017233D02*
X-0017817D01*
Y-0000333D01*
X-0018300Y-0001000D02*
X-0018967D01*
X-0018300Y-0001333D02*
Y-0000833D01*
X-0018550Y-0000333D01*
X-0018717D01*
X-0018967Y-0000833D01*
Y-0001333D01*
X-0020033D02*
Y-0000333D01*
X-0020117Y-0001333D02*
X-0019617D01*
X-0019450Y-0001000D01*
Y-0000667D01*
X-0019617Y-0000333D01*
X-0020117D01*
X-0020767Y-0000833D02*
X-0021267D01*
X-0020600Y-0001333D02*
X-0021267D01*
Y-0000333D01*
X-0020600D01*
X-0022417Y-0000833D02*
X-0021917D01*
X-0021750Y-0000667D01*
Y-0000500D01*
X-0021917Y-0000333D01*
X-0022417D01*
Y-0001333D01*
G54D10*
X-0024000Y0016000D03*
Y0016840D03*
X-0005000Y0002000D03*
X-0004160D03*
X-0012000D03*
X-0011160D03*
X-0020000D03*
X-0019160D03*
X-0026000D03*
X-0026840D03*
G54D11*
X-0010000Y0017000D03*
X-0011000Y0016000D03*
Y0017000D03*
X-0012000Y0016000D03*
Y0017000D03*
X-0013000Y0016000D03*
Y0017000D03*
X-0014000Y0016000D03*
X-0015000D03*
Y0017000D03*
X-0016000Y0016000D03*
Y0017000D03*
X-0017000Y0016000D03*
Y0017000D03*
X-0018000Y0016000D03*
Y0017000D03*
X-0019000Y0016000D03*
X-0020000D03*
Y0017000D03*
X-0021000Y0016000D03*
Y0017000D03*
X-0022000Y0016000D03*
Y0017000D03*
G54D12*
X-0010000Y0016000D03*
X-0014000Y0017000D03*
X-0019000D03*
G54D13*
X0001000Y0012000D03*
Y0013968D03*
X0006118Y0012000D03*
Y0013968D03*
X0001000Y0005000D03*
Y0006968D03*
X0006118Y0005000D03*
Y0006968D03*
X-0004000Y0008000D03*
X-0005968D03*
X-0004000Y0013118D03*
X-0005968D03*
X-0013000Y0013000D03*
X-0011031D03*
X-0013000Y0007882D03*
X-0011031D03*
X-0018000Y0008000D03*
X-0019968D03*
X-0018000Y0013118D03*
X-0019968D03*
X-0027000Y0013000D03*
X-0025031D03*
X-0027000Y0007882D03*
X-0025031D03*
G54D14*
X-0001750Y0016500D03*
X-0001000Y0017750D03*
G54D17*
X-0019968Y0014718D03*
X-0011750Y0014500D03*
G54D19*
X-0022250Y0007000D03*
X-0013500Y0013750D03*
X-0002500Y0013000D03*
X-0001500Y0014000D03*
X-0013750Y0015000D03*
X-0023000Y0014500D03*
X-0008750Y0016500D03*
X-0013750Y0018750D03*
X-0015000Y0002000D03*
X-0007250Y0013250D03*
X-0002750Y0002000D03*
M02*
