  0
SECTION
  2
HEADER
  9
$ACADVER
  1
AC1014
  9
$HANDSEED
  5
FFFF
  9
$MEASUREMENT
 70
     1
  0
ENDSEC
  0
SECTION
  2
TABLES
  0
TABLE
  2
VPORT
  5
8
330
0
100
AcDbSymbolTable
 70
     4
  0
VPORT
  5
2E
330
8
100
AcDbSymbolTableRecord
100
AcDbViewportTableRecord
  2
*ACTIVE
 70
     0
 10
0.0
 20
0.0
 11
1.0
 21
1.0
 12
210.0
 22
148.5
 13
0.0
 23
0.0
 14
10.0
 24
10.0
 15
10.0
 25
10.0
 16
0.0
 26
0.0
 36
1.0
 17
0.0
 27
0.0
 37
0.0
 40
341.0
 41
1.24
 42
50.0
 43
0.0
 44
0.0
 50
0.0
 51
0.0
 71
     0
 72
   100
 73
     1
 74
     3
 75
     0
 76
     0
 77
     0
 78
     0
  0
ENDTAB
  0
TABLE
  2
LTYPE
  5
5
330
0
100
AcDbSymbolTable
 70
     1
  0
LTYPE
  5
14
330
5
100
AcDbSymbolTableRecord
100
AcDbLinetypeTableRecord
  2
BYBLOCK
 70
     0
  3

 72
    65
 73
     0
 40
0.0
  0
LTYPE
  5
15
330
5
100
AcDbSymbolTableRecord
100
AcDbLinetypeTableRecord
  2
BYLAYER
 70
     0
  3

 72
    65
 73
     0
 40
0.0
  0
LTYPE
  5
16
330
5
100
AcDbSymbolTableRecord
100
AcDbLinetypeTableRecord
  2
CONTINUOUS
 70
     0
  3
Solid line
 72
    65
 73
     0
 40
0.0
  0
ENDTAB
  0
TABLE
  2
LAYER
  5
2
100
AcDbSymbolTable
 70
2
  0
LAYER
  5
50
100
AcDbSymbolTableRecord
100
AcDbLayerTableRecord
  2
0
 70
0
  6
CONTINUOUS
  0
LAYER
  5
51
100
AcDbSymbolTableRecord
100
AcDbLayerTableRecord
  2
Layer_1
 70
0
  6
CONTINUOUS
  0
ENDTAB
  0
TABLE
  2
STYLE
  5
3
330
0
100
AcDbSymbolTable
 70
     1
  0
STYLE
  5
11
330
3
100
AcDbSymbolTableRecord
100
AcDbTextStyleTableRecord
  2
STANDARD
 70
     0
 40
0.0
 41
1.0
 50
0.0
 71
     0
 42
2.5
  3
txt
  4

  0
ENDTAB
  0
TABLE
  2
VIEW
  5
6
330
0
100
AcDbSymbolTable
 70
     0
  0
ENDTAB
  0
TABLE
  2
UCS
  5
7
330
0
100
AcDbSymbolTable
 70
     0
  0
ENDTAB
  0
TABLE
  2
APPID
  5
9
330
0
100
AcDbSymbolTable
 70
     2
  0
APPID
  5
12
330
9
100
AcDbSymbolTableRecord
100
AcDbRegAppTableRecord
  2
ACAD
 70
     0
  0
ENDTAB
  0
TABLE
  2
DIMSTYLE
  5
A
330
0
100
AcDbSymbolTable
 70
     1
  0
DIMSTYLE
105
27
330
A
100
AcDbSymbolTableRecord
100
AcDbDimStyleTableRecord
  2
ISO-25
 70
     0
  3

  4

  5

  6

  7

 40
1.0
 41
2.5
 42
0.625
 43
3.75
 44
1.25
 45
0.0
 46
0.0
 47
0.0
 48
0.0
140
2.5
141
2.5
142
0.0
143
0.03937007874016
144
1.0
145
0.0
146
1.0
147
0.625
 71
     0
 72
     0
 73
     0
 74
     0
 75
     0
 76
     0
 77
     1
 78
     8
170
     0
171
     3
172
     1
173
     0
174
     0
175
     0
176
     0
177
     0
178
     0
270
     2
271
     2
272
     2
273
     2
274
     3
340
11
275
     0
280
     0
281
     0
282
     0
283
     0
284
     8
285
     0
286
     0
287
     3
288
     0
  0
ENDTAB
  0
TABLE
  2
BLOCK_RECORD
  5
1
330
0
100
AcDbSymbolTable
 70
     1
  0
BLOCK_RECORD
  5
1F
330
1
100
AcDbSymbolTableRecord
100
AcDbBlockTableRecord
  2
*MODEL_SPACE
  0
BLOCK_RECORD
  5
1B
330
1
100
AcDbSymbolTableRecord
100
AcDbBlockTableRecord
  2
*PAPER_SPACE
  0
ENDTAB
  0
ENDSEC
  0
SECTION
  2
BLOCKS
  0
BLOCK
  5
20
330
1F
100
AcDbEntity
  8
0
100
AcDbBlockBegin
  2
*MODEL_SPACE
 70
     0
 10
0.0
 20
0.0
 30
0.0
  3
*MODEL_SPACE
  1

  0
ENDBLK
  5
21
330
1F
100
AcDbEntity
  8
0
100
AcDbBlockEnd
  0
BLOCK
  5
1C
330
1B
100
AcDbEntity
 67
     1
  8
0
100
AcDbBlockBegin
  2
*PAPER_SPACE
  1

  0
ENDBLK
  5
1D
330
1B
100
AcDbEntity
 67
     1
  8
0
100
AcDbBlockEnd
  0
ENDSEC
  0
SECTION
  2
ENTITIES
  0
SPLINE
  5
100
100
AcDbEntity
  8
Layer_1
 62
7
100
AcDbSpline
 70
8
 71
3
 72
8
 73
4
 74
0
 40
0
 40
0
 40
0
 40
0
 40
1
 40
1
 40
1
 40
1
 10
296.149521
 20
380.835524
 30
0.0
 10
296.149521
 20
394.366507
 30
0.0
 10
296.163694
 20
396.604460
 30
0.0
 10
296.251852
 20
396.502951
 30
0.0
  0
SPLINE
  5
101
100
AcDbEntity
  8
Layer_1
 62
7
100
AcDbSpline
 70
8
 71
3
 72
8
 73
4
 74
0
 40
0
 40
0
 40
0
 40
0
 40
1
 40
1
 40
1
 40
1
 10
296.251852
 20
396.502951
 30
0.0
 10
296.307978
 20
396.438038
 30
0.0
 10
299.268709
 20
391.290123
 30
0.0
 10
302.831065
 20
385.063597
 30
0.0
  0
SPLINE
  5
102
100
AcDbEntity
  8
Layer_1
 62
7
100
AcDbSpline
 70
8
 71
3
 72
8
 73
4
 74
0
 40
0
 40
0
 40
0
 40
0
 40
1
 40
1
 40
1
 40
1
 10
302.831065
 20
385.063597
 30
0.0
 10
306.393392
 20
378.837043
 30
0.0
 10
309.329915
 20
373.716567
 30
0.0
 10
309.356646
 20
373.684819
 30
0.0
  0
SPLINE
  5
103
100
AcDbEntity
  8
Layer_1
 62
7
100
AcDbSpline
 70
8
 71
3
 72
8
 73
4
 74
0
 40
0
 40
0
 40
0
 40
0
 40
1
 40
1
 40
1
 40
1
 10
309.356646
 20
373.684819
 30
0.0
 10
309.382157
 20
373.653071
 30
0.0
 10
312.362164
 20
378.792085
 30
0.0
 10
315.976139
 20
385.104954
 30
0.0
  0
SPLINE
  5
104
100
AcDbEntity
  8
Layer_1
 62
7
100
AcDbSpline
 70
8
 71
3
 72
8
 73
4
 74
0
 40
0
 40
0
 40
0
 40
0
 40
1
 40
1
 40
1
 40
1
 10
315.976139
 20
385.104954
 30
0.0
 10
319.590142
 20
391.417795
 30
0.0
 10
322.571707
 20
396.583739
 30
0.0
 10
322.601811
 20
396.584787
 30
0.0
  0
SPLINE
  5
105
100
AcDbEntity
  8
Layer_1
 62
7
100
AcDbSpline
 70
8
 71
3
 72
8
 73
4
 74
0
 40
0
 40
0
 40
0
 40
0
 40
1
 40
1
 40
1
 40
1
 10
322.601811
 20
396.584787
 30
0.0
 10
322.631858
 20
396.585609
 30
0.0
 10
322.656520
 20
389.490917
 30
0.0
 10
322.656520
 20
380.818176
 30
0.0
  0
SPLINE
  5
106
100
AcDbEntity
  8
Layer_1
 62
7
100
AcDbSpline
 70
8
 71
3
 72
8
 73
4
 74
0
 40
0
 40
0
 40
0
 40
0
 40
1
 40
1
 40
1
 40
1
 10
358.878784
 20
383.711556
 30
0.0
 10
357.796318
 20
385.546564
 30
0.0
 10
356.888891
 20
387.086882
 30
0.0
 10
356.862302
 20
387.134532
 30
0.0
  0
SPLINE
  5
107
100
AcDbEntity
  8
Layer_1
 62
7
100
AcDbSpline
 70
8
 71
3
 72
8
 73
4
 74
0
 40
0
 40
0
 40
0
 40
0
 40
1
 40
1
 40
1
 40
1
 10
356.862302
 20
387.134532
 30
0.0
 10
356.712350
 20
387.402973
 30
0.0
 10
360.894472
 20
384.870274
 30
0.0
 10
363.797093
 20
382.934636
 30
0.0
  0
SPLINE
  5
108
100
AcDbEntity
  8
Layer_1
 62
7
100
AcDbSpline
 70
8
 71
3
 72
8
 73
4
 74
0
 40
0
 40
0
 40
0
 40
0
 40
1
 40
1
 40
1
 40
1
 10
363.797093
 20
382.934636
 30
0.0
 10
364.842369
 20
382.237597
 30
0.0
 10
365.723433
 20
381.655162
 30
0.0
 10
365.755011
 20
381.640309
 30
0.0
  0
SPLINE
  5
109
100
AcDbEntity
  8
Layer_1
 62
7
100
AcDbSpline
 70
8
 71
3
 72
8
 73
4
 74
0
 40
0
 40
0
 40
0
 40
0
 40
1
 40
1
 40
1
 40
1
 10
365.755011
 20
381.640309
 30
0.0
 10
365.786476
 20
381.626135
 30
0.0
 10
365.812271
 20
384.422230
 30
0.0
 10
365.812271
 20
387.855298
 30
0.0
  0
SPLINE
  5
10a
100
AcDbEntity
  8
Layer_1
 62
7
100
AcDbSpline
 70
8
 71
3
 72
8
 73
4
 74
0
 40
0
 40
0
 40
0
 40
0
 40
1
 40
1
 40
1
 40
1
 10
365.812271
 20
387.855298
 30
0.0
 10
365.812271
 20
393.704447
 30
0.0
 10
365.820775
 20
394.093899
 30
0.0
 10
365.936712
 20
394.044321
 30
0.0
  0
SPLINE
  5
10b
100
AcDbEntity
  8
Layer_1
 62
7
100
AcDbSpline
 70
8
 71
3
 72
8
 73
4
 74
0
 40
0
 40
0
 40
0
 40
0
 40
1
 40
1
 40
1
 40
1
 10
365.936712
 20
394.044321
 30
0.0
 10
366.113594
 20
393.969203
 30
0.0
 10
368.997987
 20
392.036343
 30
0.0
 10
371.048655
 20
390.618850
 30
0.0
  0
SPLINE
  5
10c
100
AcDbEntity
  8
Layer_1
 62
7
100
AcDbSpline
 70
8
 71
3
 72
8
 73
4
 74
0
 40
0
 40
0
 40
0
 40
0
 40
1
 40
1
 40
1
 40
1
 10
371.048655
 20
390.618850
 30
0.0
 10
373.686803
 20
388.795351
 30
0.0
 10
376.027909
 20
387.119112
 30
0.0
 10
378.834803
 20
385.044009
 30
0.0
  0
SPLINE
  5
10d
100
AcDbEntity
  8
Layer_1
 62
7
100
AcDbSpline
 70
8
 71
3
 72
8
 73
4
 74
0
 40
0
 40
0
 40
0
 40
0
 40
1
 40
1
 40
1
 40
1
 10
378.834803
 20
385.044009
 30
0.0
 10
380.234013
 20
384.009591
 30
0.0
 10
381.386976
 20
383.163250
 30
0.0
 10
381.396954
 20
383.163250
 30
0.0
  0
SPLINE
  5
10e
100
AcDbEntity
  8
Layer_1
 62
7
100
AcDbSpline
 70
8
 71
3
 72
8
 73
4
 74
0
 40
0
 40
0
 40
0
 40
0
 40
1
 40
1
 40
1
 40
1
 10
381.396954
 20
383.163250
 30
0.0
 10
381.408293
 20
383.163250
 30
0.0
 10
379.613735
 20
389.540438
 30
0.0
 10
377.412038
 20
397.334721
 30
0.0
  0
SPLINE
  5
10f
100
AcDbEntity
  8
Layer_1
 62
7
100
AcDbSpline
 70
8
 71
3
 72
8
 73
4
 74
0
 40
0
 40
0
 40
0
 40
0
 40
1
 40
1
 40
1
 40
1
 10
377.412038
 20
397.334721
 30
0.0
 10
375.210340
 20
405.129033
 30
0.0
 10
373.408384
 20
411.564416
 30
0.0
 10
373.407704
 20
411.635622
 30
0.0
  0
SPLINE
  5
110
100
AcDbEntity
  8
Layer_1
 62
7
100
AcDbSpline
 70
8
 71
3
 72
8
 73
4
 74
0
 40
0
 40
0
 40
0
 40
0
 40
1
 40
1
 40
1
 40
1
 10
373.407704
 20
411.635622
 30
0.0
 10
373.406995
 20
411.707055
 30
0.0
 10
374.643638
 20
414.761641
 30
0.0
 10
376.155751
 20
418.424088
 30
0.0
  0
LWPOLYLINE
  5
111
100
AcDbEntity
  8
Layer_1
 62
7
100
AcDbPolyline
 90
7
 70
0
 10
322.656520
 20
380.818176
 30
0.0
 10
322.656520
 20
365.049638
 30
0.0
 10
341.751742
 20
365.049638
 30
0.0
 10
360.846935
 20
365.049638
 30
0.0
 10
360.846935
 20
372.712450
 30
0.0
 10
360.846935
 20
380.375235
 30
0.0
 10
358.878784
 20
383.711556
 30
0.0
  0
SPLINE
  5
112
100
AcDbEntity
  8
Layer_1
 62
7
100
AcDbSpline
 70
8
 71
3
 72
8
 73
4
 74
0
 40
0
 40
0
 40
0
 40
0
 40
1
 40
1
 40
1
 40
1
 10
378.665490
 20
425.289146
 30
0.0
 10
378.019020
 20
425.845899
 30
0.0
 10
375.905169
 20
427.420942
 30
0.0
 10
374.501792
 20
428.391439
 30
0.0
  0
SPLINE
  5
113
100
AcDbEntity
  8
Layer_1
 62
7
100
AcDbSpline
 70
8
 71
3
 72
8
 73
4
 74
0
 40
0
 40
0
 40
0
 40
0
 40
1
 40
1
 40
1
 40
1
 10
374.501792
 20
428.391439
 30
0.0
 10
369.894813
 20
431.577383
 30
0.0
 10
363.688101
 20
435.122306
 30
0.0
 10
357.743282
 20
437.962904
 30
0.0
  0
SPLINE
  5
114
100
AcDbEntity
  8
Layer_1
 62
7
100
AcDbSpline
 70
8
 71
3
 72
8
 73
4
 74
0
 40
0
 40
0
 40
0
 40
0
 40
1
 40
1
 40
1
 40
1
 10
357.743282
 20
437.962904
 30
0.0
 10
356.859723
 20
438.385096
 30
0.0
 10
356.126769
 20
438.741553
 30
0.0
 10
356.114551
 20
438.755017
 30
0.0
  0
SPLINE
  5
115
100
AcDbEntity
  8
Layer_1
 62
7
100
AcDbSpline
 70
8
 71
3
 72
8
 73
4
 74
0
 40
0
 40
0
 40
0
 40
0
 40
1
 40
1
 40
1
 40
1
 10
356.114551
 20
438.755017
 30
0.0
 10
356.103213
 20
438.769191
 30
0.0
 10
357.162038
 20
440.683909
 30
0.0
 10
358.469490
 20
443.011606
 30
0.0
  0
LWPOLYLINE
  5
116
100
AcDbEntity
  8
Layer_1
 62
7
100
AcDbPolyline
 90
3
 70
0
 10
376.155751
 20
418.424088
 30
0.0
 10
378.905017
 20
425.083068
 30
0.0
 10
378.665490
 20
425.289146
 30
0.0
  0
SPLINE
  5
117
100
AcDbEntity
  8
Layer_1
 62
7
100
AcDbSpline
 70
8
 71
3
 72
8
 73
4
 74
0
 40
0
 40
0
 40
0
 40
0
 40
1
 40
1
 40
1
 40
1
 10
262.506467
 20
438.658923
 30
0.0
 10
262.394952
 20
438.603647
 30
0.0
 10
261.630102
 20
438.235597
 30
0.0
 10
260.806785
 20
437.841298
 30
0.0
  0
SPLINE
  5
118
100
AcDbEntity
  8
Layer_1
 62
7
100
AcDbSpline
 70
8
 71
3
 72
8
 73
4
 74
0
 40
0
 40
0
 40
0
 40
0
 40
1
 40
1
 40
1
 40
1
 10
260.806785
 20
437.841298
 30
0.0
 10
254.636189
 20
434.886009
 30
0.0
 10
248.248698
 20
431.201395
 30
0.0
 10
243.610138
 20
427.921483
 30
0.0
  0
SPLINE
  5
119
100
AcDbEntity
  8
Layer_1
 62
7
100
AcDbSpline
 70
8
 71
3
 72
8
 73
4
 74
0
 40
0
 40
0
 40
0
 40
0
 40
1
 40
1
 40
1
 40
1
 10
243.610138
 20
427.921483
 30
0.0
 10
242.426608
 20
427.084611
 30
0.0
 10
240.717112
 20
425.802359
 30
0.0
 10
240.172146
 20
425.342721
 30
0.0
  0
LWPOLYLINE
  5
11a
100
AcDbEntity
  8
Layer_1
 62
7
100
AcDbPolyline
 90
19
 70
0
 10
358.469490
 20
443.011606
 30
0.0
 10
360.846709
 20
447.243647
 30
0.0
 10
360.846709
 20
454.746132
 30
0.0
 10
360.846709
 20
462.248589
 30
0.0
 10
343.418485
 20
462.228746
 30
0.0
 10
325.990290
 20
462.208904
 30
0.0
 10
319.522082
 20
451.070164
 30
0.0
 10
313.053902
 20
439.931424
 30
0.0
 10
309.393553
 20
439.931112
 30
0.0
 10
305.733203
 20
439.930828
 30
0.0
 10
299.251616
 20
451.090233
 30
0.0
 10
292.770057
 20
462.249638
 30
0.0
 10
275.346235
 20
462.229795
 30
0.0
 10
257.922411
 20
462.209953
 30
0.0
 10
257.905403
 20
454.770425
 30
0.0
 10
257.888395
 20
447.330898
 30
0.0
 10
260.298797
 20
443.045254
 30
0.0
 10
262.709201
 20
438.759553
 30
0.0
 10
262.506467
 20
438.658923
 30
0.0
  0
SPLINE
  5
11b
100
AcDbEntity
  8
Layer_1
 62
7
100
AcDbSpline
 70
8
 71
3
 72
8
 73
4
 74
0
 40
0
 40
0
 40
0
 40
0
 40
1
 40
1
 40
1
 40
1
 10
242.564304
 20
418.582658
 30
0.0
 10
244.043921
 20
415.002954
 30
0.0
 10
245.288180
 20
411.964894
 30
0.0
 10
245.329313
 20
411.831439
 30
0.0
  0
SPLINE
  5
11c
100
AcDbEntity
  8
Layer_1
 62
7
100
AcDbSpline
 70
8
 71
3
 72
8
 73
4
 74
0
 40
0
 40
0
 40
0
 40
0
 40
1
 40
1
 40
1
 40
1
 10
245.329313
 20
411.831439
 30
0.0
 10
245.395446
 20
411.617140
 30
0.0
 10
244.937449
 20
409.937924
 30
0.0
 10
241.392606
 20
397.397197
 30
0.0
  0
SPLINE
  5
11d
100
AcDbEntity
  8
Layer_1
 62
7
100
AcDbSpline
 70
8
 71
3
 72
8
 73
4
 74
0
 40
0
 40
0
 40
0
 40
0
 40
1
 40
1
 40
1
 40
1
 10
241.392606
 20
397.397197
 30
0.0
 10
239.186273
 20
389.591745
 30
0.0
 10
237.388275
 20
383.197039
 30
0.0
 10
237.397042
 20
383.186665
 30
0.0
  0
SPLINE
  5
11e
100
AcDbEntity
  8
Layer_1
 62
7
100
AcDbSpline
 70
8
 71
3
 72
8
 73
4
 74
0
 40
0
 40
0
 40
0
 40
0
 40
1
 40
1
 40
1
 40
1
 10
237.397042
 20
383.186665
 30
0.0
 10
237.405830
 20
383.175326
 30
0.0
 10
238.659474
 20
384.087317
 30
0.0
 10
240.182963
 20
385.211197
 30
0.0
  0
SPLINE
  5
11f
100
AcDbEntity
  8
Layer_1
 62
7
100
AcDbSpline
 70
8
 71
3
 72
8
 73
4
 74
0
 40
0
 40
0
 40
0
 40
0
 40
1
 40
1
 40
1
 40
1
 10
240.182963
 20
385.211197
 30
0.0
 10
241.706455
 20
386.335106
 30
0.0
 10
243.511563
 20
387.650636
 30
0.0
 10
244.194316
 20
388.134680
 30
0.0
  0
SPLINE
  5
120
100
AcDbEntity
  8
Layer_1
 62
7
100
AcDbSpline
 70
8
 71
3
 72
8
 73
4
 74
0
 40
0
 40
0
 40
0
 40
0
 40
1
 40
1
 40
1
 40
1
 10
244.194316
 20
388.134680
 30
0.0
 10
247.700940
 20
390.620693
 30
0.0
 10
252.779794
 20
394.081739
 30
0.0
 10
252.921271
 20
394.081739
 30
0.0
  0
SPLINE
  5
121
100
AcDbEntity
  8
Layer_1
 62
7
100
AcDbSpline
 70
8
 71
3
 72
8
 73
4
 74
0
 40
0
 40
0
 40
0
 40
0
 40
1
 40
1
 40
1
 40
1
 10
252.921271
 20
394.081739
 30
0.0
 10
252.968213
 20
394.081739
 30
0.0
 10
252.993441
 20
391.903654
 30
0.0
 10
252.993441
 20
387.855184
 30
0.0
  0
SPLINE
  5
122
100
AcDbEntity
  8
Layer_1
 62
7
100
AcDbSpline
 70
8
 71
3
 72
8
 73
4
 74
0
 40
0
 40
0
 40
0
 40
0
 40
1
 40
1
 40
1
 40
1
 10
252.993441
 20
387.855184
 30
0.0
 10
252.993441
 20
384.430592
 30
0.0
 10
253.006481
 20
381.628630
 30
0.0
 10
253.022581
 20
381.628630
 30
0.0
  0
SPLINE
  5
123
100
AcDbEntity
  8
Layer_1
 62
7
100
AcDbSpline
 70
8
 71
3
 72
8
 73
4
 74
0
 40
0
 40
0
 40
0
 40
0
 40
1
 40
1
 40
1
 40
1
 10
253.022581
 20
381.628630
 30
0.0
 10
253.038739
 20
381.628630
 30
0.0
 10
253.535995
 20
381.959376
 30
0.0
 10
254.127861
 20
382.363654
 30
0.0
  0
SPLINE
  5
124
100
AcDbEntity
  8
Layer_1
 62
7
100
AcDbSpline
 70
8
 71
3
 72
8
 73
4
 74
0
 40
0
 40
0
 40
0
 40
0
 40
1
 40
1
 40
1
 40
1
 10
254.127861
 20
382.363654
 30
0.0
 10
255.754911
 20
383.474948
 30
0.0
 10
258.168577
 20
385.011383
 30
0.0
 10
259.887830
 20
386.030211
 30
0.0
  0
SPLINE
  5
125
100
AcDbEntity
  8
Layer_1
 62
7
100
AcDbSpline
 70
8
 71
3
 72
8
 73
4
 74
0
 40
0
 40
0
 40
0
 40
0
 40
1
 40
1
 40
1
 40
1
 10
259.887830
 20
386.030211
 30
0.0
 10
262.029759
 20
387.299480
 30
0.0
 10
261.930790
 20
387.246019
 30
0.0
 10
261.882808
 20
387.107546
 30
0.0
  0
SPLINE
  5
126
100
AcDbEntity
  8
Layer_1
 62
7
100
AcDbSpline
 70
8
 71
3
 72
8
 73
4
 74
0
 40
0
 40
0
 40
0
 40
0
 40
1
 40
1
 40
1
 40
1
 10
261.882808
 20
387.107546
 30
0.0
 10
261.860414
 20
387.043200
 30
0.0
 10
260.968496
 20
385.508948
 30
0.0
 10
259.900571
 20
383.698120
 30
0.0
  0
LWPOLYLINE
  5
127
100
AcDbEntity
  8
Layer_1
 62
7
100
AcDbPolyline
 90
3
 70
0
 10
240.172146
 20
425.342721
 30
0.0
 10
239.874086
 20
425.091288
 30
0.0
 10
242.564304
 20
418.582658
 30
0.0
  0
LWPOLYLINE
  5
128
100
AcDbEntity
  8
Layer_1
 62
7
100
AcDbPolyline
 90
7
 70
0
 10
259.900571
 20
383.698120
 30
0.0
 10
257.958904
 20
380.405679
 30
0.0
 10
257.958904
 20
372.728551
 30
0.0
 10
257.958904
 20
365.051424
 30
0.0
 10
277.054121
 20
365.051424
 30
0.0
 10
296.149323
 20
365.051424
 30
0.0
 10
296.149521
 20
380.835524
 30
0.0
  0
SPLINE
  5
129
100
AcDbEntity
  8
Layer_1
 62
7
100
AcDbSpline
 70
8
 71
3
 72
8
 73
4
 74
0
 40
0
 40
0
 40
0
 40
0
 40
1
 40
1
 40
1
 40
1
 10
264.622521
 20
392.034359
 30
0.0
 10
262.416980
 20
390.942425
 30
0.0
 10
259.012596
 20
389.018409
 30
0.0
 10
256.705790
 20
387.560041
 30
0.0
  0
SPLINE
  5
12a
100
AcDbEntity
  8
Layer_1
 62
7
100
AcDbSpline
 70
8
 71
3
 72
8
 73
4
 74
0
 40
0
 40
0
 40
0
 40
0
 40
1
 40
1
 40
1
 40
1
 10
256.705790
 20
387.560041
 30
0.0
 10
256.116773
 20
387.187682
 30
0.0
 10
255.615659
 20
386.883043
 30
0.0
 10
255.592205
 20
386.883043
 30
0.0
  0
SPLINE
  5
12b
100
AcDbEntity
  8
Layer_1
 62
7
100
AcDbSpline
 70
8
 71
3
 72
8
 73
4
 74
0
 40
0
 40
0
 40
0
 40
0
 40
1
 40
1
 40
1
 40
1
 10
255.592205
 20
386.883043
 30
0.0
 10
255.568677
 20
386.883043
 30
0.0
 10
255.549600
 20
389.576154
 30
0.0
 10
255.549600
 20
392.867688
 30
0.0
  0
LWPOLYLINE
  5
12c
100
AcDbEntity
  8
Layer_1
 62
7
100
AcDbPolyline
 90
7
 70
0
 10
260.806946
 20
373.806567
 30
0.0
 10
260.806946
 20
379.328854
 30
0.0
 10
263.215389
 20
383.409213
 30
0.0
 10
265.623834
 20
387.489487
 30
0.0
 10
265.625203
 20
390.010507
 30
0.0
 10
265.626570
 20
392.531443
 30
0.0
 10
264.622521
 20
392.034359
 30
0.0
  0
SPLINE
  5
12d
100
AcDbEntity
  8
Layer_1
 62
7
100
AcDbSpline
 70
8
 71
3
 72
8
 73
4
 74
0
 40
0
 40
0
 40
0
 40
0
 40
1
 40
1
 40
1
 40
1
 10
254.837636
 20
398.456674
 30
0.0
 10
251.853999
 20
396.798265
 30
0.0
 10
247.614077
 20
394.112976
 30
0.0
 10
244.328573
 20
391.800841
 30
0.0
  0
SPLINE
  5
12e
100
AcDbEntity
  8
Layer_1
 62
7
100
AcDbSpline
 70
8
 71
3
 72
8
 73
4
 74
0
 40
0
 40
0
 40
0
 40
0
 40
1
 40
1
 40
1
 40
1
 10
244.328573
 20
391.800841
 30
0.0
 10
243.518632
 20
391.230879
 30
0.0
 10
242.828575
 20
390.765969
 30
0.0
 10
242.795112
 20
390.767783
 30
0.0
  0
SPLINE
  5
12f
100
AcDbEntity
  8
Layer_1
 62
7
100
AcDbSpline
 70
8
 71
3
 72
8
 73
4
 74
0
 40
0
 40
0
 40
0
 40
0
 40
1
 40
1
 40
1
 40
1
 10
242.795112
 20
390.767783
 30
0.0
 10
242.761635
 20
390.769455
 30
0.0
 10
242.629739
 20
390.870113
 30
0.0
 10
242.501961
 20
390.991436
 30
0.0
  0
LWPOLYLINE
  5
130
100
AcDbEntity
  8
Layer_1
 62
7
100
AcDbPolyline
 90
3
 70
0
 10
255.549600
 20
392.867688
 30
0.0
 10
255.549600
 20
398.852391
 30
0.0
 10
254.837636
 20
398.456674
 30
0.0
  0
SPLINE
  5
131
100
AcDbEntity
  8
Layer_1
 62
7
100
AcDbSpline
 70
8
 71
3
 72
8
 73
4
 74
0
 40
0
 40
0
 40
0
 40
0
 40
1
 40
1
 40
1
 40
1
 10
245.184114
 20
401.520898
 30
0.0
 10
246.787067
 20
407.190841
 30
0.0
 10
248.099202
 20
411.891534
 30
0.0
 10
248.099975
 20
411.966879
 30
0.0
  0
SPLINE
  5
132
100
AcDbEntity
  8
Layer_1
 62
7
100
AcDbSpline
 70
8
 71
3
 72
8
 73
4
 74
0
 40
0
 40
0
 40
0
 40
0
 40
1
 40
1
 40
1
 40
1
 10
248.099975
 20
411.966879
 30
0.0
 10
248.100673
 20
412.042280
 30
0.0
 10
246.998985
 20
414.771420
 30
0.0
 10
245.651615
 20
418.031688
 30
0.0
  0
SPLINE
  5
133
100
AcDbEntity
  8
Layer_1
 62
7
100
AcDbSpline
 70
8
 71
3
 72
8
 73
4
 74
0
 40
0
 40
0
 40
0
 40
0
 40
1
 40
1
 40
1
 40
1
 10
245.651615
 20
418.031688
 30
0.0
 10
243.487857
 20
423.267449
 30
0.0
 10
243.208964
 20
423.987761
 30
0.0
 10
243.262715
 20
424.201465
 30
0.0
  0
SPLINE
  5
134
100
AcDbEntity
  8
Layer_1
 62
7
100
AcDbSpline
 70
8
 71
3
 72
8
 73
4
 74
0
 40
0
 40
0
 40
0
 40
0
 40
1
 40
1
 40
1
 40
1
 10
243.262715
 20
424.201465
 30
0.0
 10
243.331342
 20
424.474157
 30
0.0
 10
243.736900
 20
424.791383
 30
0.0
 10
245.947235
 20
426.300945
 30
0.0
  0
SPLINE
  5
135
100
AcDbEntity
  8
Layer_1
 62
7
100
AcDbSpline
 70
8
 71
3
 72
8
 73
4
 74
0
 40
0
 40
0
 40
0
 40
0
 40
1
 40
1
 40
1
 40
1
 10
245.947235
 20
426.300945
 30
0.0
 10
251.586456
 20
430.152208
 30
0.0
 10
257.468734
 20
433.420923
 30
0.0
 10
263.655028
 20
436.140850
 30
0.0
  0
SPLINE
  5
136
100
AcDbEntity
  8
Layer_1
 62
7
100
AcDbSpline
 70
8
 71
3
 72
8
 73
4
 74
0
 40
0
 40
0
 40
0
 40
0
 40
1
 40
1
 40
1
 40
1
 10
263.655028
 20
436.140850
 30
0.0
 10
264.558671
 20
436.538126
 30
0.0
 10
265.371953
 20
436.897474
 30
0.0
 10
265.462322
 20
436.939427
 30
0.0
  0
SPLINE
  5
137
100
AcDbEntity
  8
Layer_1
 62
7
100
AcDbSpline
 70
8
 71
3
 72
8
 73
4
 74
0
 40
0
 40
0
 40
0
 40
0
 40
1
 40
1
 40
1
 40
1
 10
265.462322
 20
436.939427
 30
0.0
 10
265.623160
 20
437.013978
 30
0.0
 10
265.626618
 20
437.043175
 30
0.0
 10
265.626618
 20
438.334157
 30
0.0
  0
LWPOLYLINE
  5
138
100
AcDbEntity
  8
Layer_1
 62
7
100
AcDbPolyline
 90
3
 70
0
 10
242.501961
 20
390.991436
 30
0.0
 10
242.269662
 20
391.211972
 30
0.0
 10
245.184114
 20
401.520898
 30
0.0
  0
SPLINE
  5
139
100
AcDbEntity
  8
Layer_1
 62
7
100
AcDbSpline
 70
8
 71
3
 72
8
 73
4
 74
0
 40
0
 40
0
 40
0
 40
0
 40
1
 40
1
 40
1
 40
1
 10
303.365877
 20
438.763323
 30
0.0
 10
303.594066
 20
438.764995
 30
0.0
 10
305.062781
 20
438.816047
 30
0.0
 10
306.629745
 20
438.876142
 30
0.0
  0
SPLINE
  5
13a
100
AcDbEntity
  8
Layer_1
 62
7
100
AcDbSpline
 70
8
 71
3
 72
8
 73
4
 74
0
 40
0
 40
0
 40
0
 40
0
 40
1
 40
1
 40
1
 40
1
 10
306.629745
 20
438.876142
 30
0.0
 10
308.907383
 20
438.963165
 30
0.0
 10
310.005751
 20
438.966283
 30
0.0
 10
312.106394
 20
438.890315
 30
0.0
  0
SPLINE
  5
13b
100
AcDbEntity
  8
Layer_1
 62
7
100
AcDbSpline
 70
8
 71
3
 72
8
 73
4
 74
0
 40
0
 40
0
 40
0
 40
0
 40
1
 40
1
 40
1
 40
1
 10
312.106394
 20
438.890315
 30
0.0
 10
313.551553
 20
438.838441
 30
0.0
 10
314.980469
 20
438.776646
 30
0.0
 10
315.281679
 20
438.753118
 30
0.0
  0
LWPOLYLINE
  5
13c
100
AcDbEntity
  8
Layer_1
 62
7
100
AcDbPolyline
 90
11
 70
0
 10
265.626618
 20
438.334157
 30
0.0
 10
265.626618
 20
439.652721
 30
0.0
 10
263.217385
 20
443.935729
 30
0.0
 10
260.808160
 20
448.218765
 30
0.0
 10
260.826018
 20
453.596258
 30
0.0
 10
260.843876
 20
458.973723
 30
0.0
 10
276.025246
 20
458.973723
 30
0.0
 10
291.206636
 20
458.973723
 30
0.0
 10
297.078832
 20
448.865688
 30
0.0
 10
302.950998
 20
438.757654
 30
0.0
 10
303.365877
 20
438.763323
 30
0.0
  0
SPLINE
  5
13d
100
AcDbEntity
  8
Layer_1
 62
7
100
AcDbSpline
 70
8
 71
3
 72
8
 73
4
 74
0
 40
0
 40
0
 40
0
 40
0
 40
1
 40
1
 40
1
 40
1
 10
321.086920
 20
447.781465
 30
0.0
 10
323.978570
 20
452.770951
 30
0.0
 10
326.630665
 20
457.339890
 30
0.0
 10
326.980432
 20
457.934712
 30
0.0
  0
LWPOLYLINE
  5
13e
100
AcDbEntity
  8
Layer_1
 62
7
100
AcDbPolyline
 90
3
 70
0
 10
315.281679
 20
438.753118
 30
0.0
 10
315.829332
 20
438.709748
 30
0.0
 10
321.086920
 20
447.781465
 30
0.0
  0
SPLINE
  5
13f
100
AcDbEntity
  8
Layer_1
 62
7
100
AcDbSpline
 70
8
 71
3
 72
8
 73
4
 74
0
 40
0
 40
0
 40
0
 40
0
 40
1
 40
1
 40
1
 40
1
 10
357.982781
 20
453.656835
 30
0.0
 10
357.999789
 20
449.218120
 30
0.0
 10
357.984935
 20
448.300772
 30
0.0
 10
357.899159
 20
448.117597
 30
0.0
  0
SPLINE
  5
140
100
AcDbEntity
  8
Layer_1
 62
7
100
AcDbSpline
 70
8
 71
3
 72
8
 73
4
 74
0
 40
0
 40
0
 40
0
 40
0
 40
1
 40
1
 40
1
 40
1
 10
357.899159
 20
448.117597
 30
0.0
 10
357.842750
 20
447.996841
 30
0.0
 10
356.757364
 20
446.049496
 30
0.0
 10
355.487159
 20
443.790028
 30
0.0
  0
LWPOLYLINE
  5
141
100
AcDbEntity
  8
Layer_1
 62
7
100
AcDbPolyline
 90
5
 70
0
 10
326.980432
 20
457.934712
 30
0.0
 10
327.616384
 20
459.016243
 30
0.0
 10
342.789647
 20
458.996400
 30
0.0
 10
357.962939
 20
458.976557
 30
0.0
 10
357.982781
 20
453.656835
 30
0.0
  0
SPLINE
  5
142
100
AcDbEntity
  8
Layer_1
 62
7
100
AcDbSpline
 70
8
 71
3
 72
8
 73
4
 74
0
 40
0
 40
0
 40
0
 40
0
 40
1
 40
1
 40
1
 40
1
 10
355.079424
 20
436.176567
 30
0.0
 10
362.102060
 20
433.061178
 30
0.0
 10
368.304661
 20
429.545679
 30
0.0
 10
374.368847
 20
425.243764
 30
0.0
  0
SPLINE
  5
143
100
AcDbEntity
  8
Layer_1
 62
7
100
AcDbSpline
 70
8
 71
3
 72
8
 73
4
 74
0
 40
0
 40
0
 40
0
 40
0
 40
1
 40
1
 40
1
 40
1
 10
374.368847
 20
425.243764
 30
0.0
 10
375.218164
 20
424.641288
 30
0.0
 10
375.455424
 20
424.433339
 30
0.0
 10
375.517106
 20
424.237380
 30
0.0
  0
SPLINE
  5
144
100
AcDbEntity
  8
Layer_1
 62
7
100
AcDbSpline
 70
8
 71
3
 72
8
 73
4
 74
0
 40
0
 40
0
 40
0
 40
0
 40
1
 40
1
 40
1
 40
1
 10
375.517106
 20
424.237380
 30
0.0
 10
375.589672
 20
424.007206
 30
0.0
 10
375.426113
 20
423.581868
 30
0.0
 10
373.136003
 20
418.037131
 30
0.0
  0
SPLINE
  5
145
100
AcDbEntity
  8
Layer_1
 62
7
100
AcDbSpline
 70
8
 71
3
 72
8
 73
4
 74
0
 40
0
 40
0
 40
0
 40
0
 40
1
 40
1
 40
1
 40
1
 10
373.136003
 20
418.037131
 30
0.0
 10
371.783650
 20
414.762860
 30
0.0
 10
370.681115
 20
412.025953
 30
0.0
 10
370.685934
 20
411.955172
 30
0.0
  0
SPLINE
  5
146
100
AcDbEntity
  8
Layer_1
 62
7
100
AcDbSpline
 70
8
 71
3
 72
8
 73
4
 74
0
 40
0
 40
0
 40
0
 40
0
 40
1
 40
1
 40
1
 40
1
 10
370.685934
 20
411.955172
 30
0.0
 10
370.691603
 20
411.884306
 30
0.0
 10
371.995200
 20
407.221710
 30
0.0
 10
373.584756
 20
401.593805
 30
0.0
  0
SPLINE
  5
147
100
AcDbEntity
  8
Layer_1
 62
7
100
AcDbSpline
 70
8
 71
3
 72
8
 73
4
 74
0
 40
0
 40
0
 40
0
 40
0
 40
1
 40
1
 40
1
 40
1
 10
373.584756
 20
401.593805
 30
0.0
 10
375.174283
 20
395.965871
 30
0.0
 10
376.474592
 20
391.309483
 30
0.0
 10
376.474309
 20
391.246299
 30
0.0
  0
SPLINE
  5
148
100
AcDbEntity
  8
Layer_1
 62
7
100
AcDbSpline
 70
8
 71
3
 72
8
 73
4
 74
0
 40
0
 40
0
 40
0
 40
0
 40
1
 40
1
 40
1
 40
1
 10
376.474309
 20
391.246299
 30
0.0
 10
376.474309
 20
391.183087
 30
0.0
 10
376.359789
 20
391.045323
 30
0.0
 10
376.220324
 20
390.940328
 30
0.0
  0
LWPOLYLINE
  5
149
100
AcDbEntity
  8
Layer_1
 62
7
100
AcDbPolyline
 90
5
 70
0
 10
355.487159
 20
443.790028
 30
0.0
 10
353.177688
 20
439.682003
 30
0.0
 10
353.197531
 20
438.342265
 30
0.0
 10
353.217373
 20
437.002639
 30
0.0
 10
355.079424
 20
436.176567
 30
0.0
  0
SPLINE
  5
14a
100
AcDbEntity
  8
Layer_1
 62
7
100
AcDbSpline
 70
8
 71
3
 72
8
 73
4
 74
0
 40
0
 40
0
 40
0
 40
0
 40
1
 40
1
 40
1
 40
1
 10
374.559534
 20
391.742164
 30
0.0
 10
371.588202
 20
393.838469
 30
0.0
 10
368.806479
 20
395.621858
 30
0.0
 10
365.338800
 20
397.653732
 30
0.0
  0
LWPOLYLINE
  5
14b
100
AcDbEntity
  8
Layer_1
 62
7
100
AcDbPolyline
 90
3
 70
0
 10
376.220324
 20
390.940328
 30
0.0
 10
375.966907
 20
390.749272
 30
0.0
 10
374.559534
 20
391.742164
 30
0.0
  0
SPLINE
  5
14c
100
AcDbEntity
  8
Layer_1
 62
7
100
AcDbSpline
 70
8
 71
3
 72
8
 73
4
 74
0
 40
0
 40
0
 40
0
 40
0
 40
1
 40
1
 40
1
 40
1
 10
363.274356
 20
392.860460
 30
0.0
 10
363.257348
 20
387.434920
 30
0.0
 10
363.244592
 20
386.873802
 30
0.0
 10
363.139994
 20
386.918277
 30
0.0
  0
SPLINE
  5
14d
100
AcDbEntity
  8
Layer_1
 62
7
100
AcDbSpline
 70
8
 71
3
 72
8
 73
4
 74
0
 40
0
 40
0
 40
0
 40
0
 40
1
 40
1
 40
1
 40
1
 10
363.139994
 20
386.918277
 30
0.0
 10
363.076498
 20
386.946624
 30
0.0
 10
362.542677
 20
387.272013
 30
0.0
 10
361.953865
 20
387.644428
 30
0.0
  0
SPLINE
  5
14e
100
AcDbEntity
  8
Layer_1
 62
7
100
AcDbSpline
 70
8
 71
3
 72
8
 73
4
 74
0
 40
0
 40
0
 40
0
 40
0
 40
1
 40
1
 40
1
 40
1
 10
361.953865
 20
387.644428
 30
0.0
 10
359.673591
 20
389.086554
 30
0.0
 10
356.398639
 20
390.934545
 30
0.0
 10
354.073975
 20
392.090882
 30
0.0
  0
LWPOLYLINE
  5
14f
100
AcDbEntity
  8
Layer_1
 62
7
100
AcDbPolyline
 90
3
 70
0
 10
365.338800
 20
397.653732
 30
0.0
 10
363.294198
 20
398.851767
 30
0.0
 10
363.274356
 20
392.860460
 30
0.0
  0
SPLINE
  5
150
100
AcDbEntity
  8
Layer_1
 62
7
100
AcDbSpline
 70
8
 71
3
 72
8
 73
4
 74
0
 40
0
 40
0
 40
0
 40
0
 40
1
 40
1
 40
1
 40
1
 10
323.795820
 20
401.393055
 30
0.0
 10
322.749581
 20
401.540173
 30
0.0
 10
322.085452
 20
401.601118
 30
0.0
 10
322.020964
 20
401.555197
 30
0.0
  0
SPLINE
  5
151
100
AcDbEntity
  8
Layer_1
 62
7
100
AcDbSpline
 70
8
 71
3
 72
8
 73
4
 74
0
 40
0
 40
0
 40
0
 40
0
 40
1
 40
1
 40
1
 40
1
 10
322.020964
 20
401.555197
 30
0.0
 10
321.964271
 20
401.514945
 30
0.0
 10
319.116246
 20
396.590003
 30
0.0
 10
315.691965
 20
390.610772
 30
0.0
  0
SPLINE
  5
152
100
AcDbEntity
  8
Layer_1
 62
7
100
AcDbSpline
 70
8
 71
3
 72
8
 73
4
 74
0
 40
0
 40
0
 40
0
 40
0
 40
1
 40
1
 40
1
 40
1
 10
315.691965
 20
390.610772
 30
0.0
 10
312.267685
 20
384.631569
 30
0.0
 10
309.435364
 20
379.729899
 30
0.0
 10
309.397918
 20
379.718220
 30
0.0
  0
SPLINE
  5
153
100
AcDbEntity
  8
Layer_1
 62
7
100
AcDbSpline
 70
8
 71
3
 72
8
 73
4
 74
0
 40
0
 40
0
 40
0
 40
0
 40
1
 40
1
 40
1
 40
1
 10
309.397918
 20
379.718220
 30
0.0
 10
309.360501
 20
379.706882
 30
0.0
 10
306.520299
 20
384.611471
 30
0.0
 10
303.086466
 20
390.618057
 30
0.0
  0
SPLINE
  5
154
100
AcDbEntity
  8
Layer_1
 62
7
100
AcDbSpline
 70
8
 71
3
 72
8
 73
4
 74
0
 40
0
 40
0
 40
0
 40
0
 40
1
 40
1
 40
1
 40
1
 10
303.086466
 20
390.618057
 30
0.0
 10
299.652605
 20
396.624671
 30
0.0
 10
296.804608
 20
401.556416
 30
0.0
 10
296.757609
 20
401.577477
 30
0.0
  0
SPLINE
  5
155
100
AcDbEntity
  8
Layer_1
 62
7
100
AcDbSpline
 70
8
 71
3
 72
8
 73
4
 74
0
 40
0
 40
0
 40
0
 40
0
 40
1
 40
1
 40
1
 40
1
 10
296.757609
 20
401.577477
 30
0.0
 10
296.650743
 20
401.625383
 30
0.0
 10
293.990712
 20
401.289534
 30
0.0
 10
293.392800
 20
401.152706
 30
0.0
  0
LWPOLYLINE
  5
156
100
AcDbEntity
  8
Layer_1
 62
7
100
AcDbPolyline
 90
13
 70
0
 10
354.073975
 20
392.090882
 30
0.0
 10
353.179474
 20
392.535836
 30
0.0
 10
353.179474
 20
390.000387
 30
0.0
 10
353.179474
 20
387.464910
 30
0.0
 10
355.552668
 20
383.446233
 30
0.0
 10
357.925890
 20
379.427556
 30
0.0
 10
357.925890
 20
373.857420
 30
0.0
 10
357.925890
 20
368.287285
 30
0.0
 10
341.715203
 20
368.287285
 30
0.0
 10
325.504488
 20
368.287285
 30
0.0
 10
325.487480
 20
384.722504
 30
0.0
 10
325.467638
 20
401.157780
 30
0.0
 10
323.795820
 20
401.393055
 30
0.0
  0
LWPOLYLINE
  5
157
100
AcDbEntity
  8
Layer_1
 62
7
100
AcDbPolyline
 90
7
 70
0
 10
293.392800
 20
401.152706
 30
0.0
 10
293.228391
 20
401.115288
 30
0.0
 10
293.228391
 20
384.701386
 30
0.0
 10
293.228391
 20
368.287483
 30
0.0
 10
277.017687
 20
368.287483
 30
0.0
 10
260.806833
 20
368.287483
 30
0.0
 10
260.806946
 20
373.806567
 30
0.0
  0
SPLINE
  5
158
100
AcDbEntity
  8
Layer_1
 62
7
100
AcDbSpline
 70
8
 71
3
 72
8
 73
4
 74
0
 40
0
 40
0
 40
0
 40
0
 40
1
 40
1
 40
1
 40
1
 10
357.323584
 20
422.502009
 30
0.0
 10
347.501027
 20
427.844183
 30
0.0
 10
336.810274
 20
431.582372
 30
0.0
 10
325.869420
 20
433.500520
 30
0.0
  0
SPLINE
  5
159
100
AcDbEntity
  8
Layer_1
 62
7
100
AcDbSpline
 70
8
 71
3
 72
8
 73
4
 74
0
 40
0
 40
0
 40
0
 40
0
 40
1
 40
1
 40
1
 40
1
 10
325.869420
 20
433.500520
 30
0.0
 10
320.183575
 20
434.497323
 30
0.0
 10
315.157606
 20
434.935247
 30
0.0
 10
309.402992
 20
434.935247
 30
0.0
  0
SPLINE
  5
15a
100
AcDbEntity
  8
Layer_1
 62
7
100
AcDbSpline
 70
8
 71
3
 72
8
 73
4
 74
0
 40
0
 40
0
 40
0
 40
0
 40
1
 40
1
 40
1
 40
1
 10
309.402992
 20
434.935247
 30
0.0
 10
304.739972
 20
434.935247
 30
0.0
 10
301.139065
 20
434.691468
 30
0.0
 10
296.551134
 20
434.065209
 30
0.0
  0
SPLINE
  5
15b
100
AcDbEntity
  8
Layer_1
 62
7
100
AcDbSpline
 70
8
 71
3
 72
8
 73
4
 74
0
 40
0
 40
0
 40
0
 40
0
 40
1
 40
1
 40
1
 40
1
 10
296.551134
 20
434.065209
 30
0.0
 10
295.001603
 20
433.853745
 30
0.0
 10
294.930340
 20
433.842406
 30
0.0
 10
292.717502
 20
433.456809
 30
0.0
  0
SPLINE
  5
15c
100
AcDbEntity
  8
Layer_1
 62
7
100
AcDbSpline
 70
8
 71
3
 72
8
 73
4
 74
0
 40
0
 40
0
 40
0
 40
0
 40
1
 40
1
 40
1
 40
1
 10
292.717502
 20
433.456809
 30
0.0
 10
283.002148
 20
431.763846
 30
0.0
 10
273.156457
 20
428.472737
 30
0.0
 10
264.046754
 20
423.873014
 30
0.0
  0
SPLINE
  5
15d
100
AcDbEntity
  8
Layer_1
 62
7
100
AcDbSpline
 70
8
 71
3
 72
8
 73
4
 74
0
 40
0
 40
0
 40
0
 40
0
 40
1
 40
1
 40
1
 40
1
 10
264.046754
 20
423.873014
 30
0.0
 10
262.736637
 20
423.211521
 30
0.0
 10
259.371686
 20
421.371128
 30
0.0
 10
259.218723
 20
421.232428
 30
0.0
  0
SPLINE
  5
15e
100
AcDbEntity
  8
Layer_1
 62
7
100
AcDbSpline
 70
8
 71
3
 72
8
 73
4
 74
0
 40
0
 40
0
 40
0
 40
0
 40
1
 40
1
 40
1
 40
1
 10
259.218723
 20
421.232428
 30
0.0
 10
259.094735
 20
421.119893
 30
0.0
 10
259.083454
 20
393.190469
 30
0.0
 10
259.207384
 20
393.190469
 30
0.0
  0
SPLINE
  5
15f
100
AcDbEntity
  8
Layer_1
 62
7
100
AcDbSpline
 70
8
 71
3
 72
8
 73
4
 74
0
 40
0
 40
0
 40
0
 40
0
 40
1
 40
1
 40
1
 40
1
 10
259.207384
 20
393.190469
 30
0.0
 10
259.251406
 20
393.190469
 30
0.0
 10
259.966063
 20
393.550214
 30
0.0
 10
260.795608
 20
393.989981
 30
0.0
  0
SPLINE
  5
160
100
AcDbEntity
  8
Layer_1
 62
7
100
AcDbSpline
 70
8
 71
3
 72
8
 73
4
 74
0
 40
0
 40
0
 40
0
 40
0
 40
1
 40
1
 40
1
 40
1
 10
260.795608
 20
393.989981
 30
0.0
 10
268.820830
 20
398.244246
 30
0.0
 10
277.003369
 20
401.360287
 30
0.0
 10
285.743906
 20
403.490693
 30
0.0
  0
SPLINE
  5
161
100
AcDbEntity
  8
Layer_1
 62
7
100
AcDbSpline
 70
8
 71
3
 72
8
 73
4
 74
0
 40
0
 40
0
 40
0
 40
0
 40
1
 40
1
 40
1
 40
1
 10
285.743906
 20
403.490693
 30
0.0
 10
296.185578
 20
406.035751
 30
0.0
 10
306.641735
 20
406.904117
 30
0.0
 10
316.997263
 20
406.086293
 30
0.0
  0
SPLINE
  5
162
100
AcDbEntity
  8
Layer_1
 62
7
100
AcDbSpline
 70
8
 71
3
 72
8
 73
4
 74
0
 40
0
 40
0
 40
0
 40
0
 40
1
 40
1
 40
1
 40
1
 10
316.997263
 20
406.086293
 30
0.0
 10
325.488557
 20
405.415701
 30
0.0
 10
334.183635
 20
403.586589
 30
0.0
 10
342.554882
 20
400.709934
 30
0.0
  0
SPLINE
  5
163
100
AcDbEntity
  8
Layer_1
 62
7
100
AcDbSpline
 70
8
 71
3
 72
8
 73
4
 74
0
 40
0
 40
0
 40
0
 40
0
 40
1
 40
1
 40
1
 40
1
 10
342.554882
 20
400.709934
 30
0.0
 10
347.872365
 20
398.882693
 30
0.0
 10
353.655893
 20
396.358781
 30
0.0
 10
358.108554
 20
393.922346
 30
0.0
  0
SPLINE
  5
164
100
AcDbEntity
  8
Layer_1
 62
7
100
AcDbSpline
 70
8
 71
3
 72
8
 73
4
 74
0
 40
0
 40
0
 40
0
 40
0
 40
1
 40
1
 40
1
 40
1
 10
358.108554
 20
393.922346
 30
0.0
 10
358.911780
 20
393.482835
 30
0.0
 10
359.577184
 20
393.120170
 30
0.0
 10
359.587247
 20
393.116428
 30
0.0
  0
SPLINE
  5
165
100
AcDbEntity
  8
Layer_1
 62
7
100
AcDbSpline
 70
8
 71
3
 72
8
 73
4
 74
0
 40
0
 40
0
 40
0
 40
0
 40
1
 40
1
 40
1
 40
1
 10
359.587247
 20
393.116428
 30
0.0
 10
359.598586
 20
393.110759
 30
0.0
 10
359.604255
 20
399.443669
 30
0.0
 10
359.604255
 20
407.185257
 30
0.0
  0
LWPOLYLINE
  5
166
100
AcDbEntity
  8
Layer_1
 62
7
100
AcDbPolyline
 90
3
 70
0
 10
359.605502
 20
407.185257
 30
0.0
 10
359.605502
 20
421.260945
 30
0.0
 10
357.323584
 20
422.502009
 30
0.0
  0
SPLINE
  5
167
100
AcDbEntity
  8
Layer_1
 62
7
100
AcDbSpline
 70
8
 71
3
 72
8
 73
4
 74
0
 40
0
 40
0
 40
0
 40
0
 40
1
 40
1
 40
1
 40
1
 10
349.487093
 20
401.763260
 30
0.0
 10
345.846586
 20
403.415632
 30
0.0
 10
341.374904
 20
405.092551
 30
0.0
 10
337.443364
 20
406.279701
 30
0.0
  0
LWPOLYLINE
  5
168
100
AcDbEntity
  8
Layer_1
 62
7
100
AcDbPolyline
 90
2
 70
0
 10
359.604255
 20
407.185257
 30
0.0
 10
359.605502
 20
407.185257
 30
0.0
  0
SPLINE
  5
169
100
AcDbEntity
  8
Layer_1
 62
7
100
AcDbSpline
 70
8
 71
3
 72
8
 73
4
 74
0
 40
0
 40
0
 40
0
 40
0
 40
1
 40
1
 40
1
 40
1
 10
336.109124
 20
408.430261
 30
0.0
 10
336.089282
 20
410.076000
 30
0.0
 10
336.097786
 20
410.181109
 30
0.0
 10
336.218542
 20
410.139893
 30
0.0
  0
SPLINE
  5
16a
100
AcDbEntity
  8
Layer_1
 62
7
100
AcDbSpline
 70
8
 71
3
 72
8
 73
4
 74
0
 40
0
 40
0
 40
0
 40
0
 40
1
 40
1
 40
1
 40
1
 10
336.218542
 20
410.139893
 30
0.0
 10
336.289691
 20
410.117216
 30
0.0
 10
336.651732
 20
410.006381
 30
0.0
 10
337.023213
 20
409.897247
 30
0.0
  0
LWPOLYLINE
  5
16b
100
AcDbEntity
  8
Layer_1
 62
7
100
AcDbPolyline
 90
3
 70
0
 10
337.443364
 20
406.279701
 30
0.0
 10
336.128967
 20
406.676636
 30
0.0
 10
336.109124
 20
408.430261
 30
0.0
  0
SPLINE
  5
16c
100
AcDbEntity
  8
Layer_1
 62
7
100
AcDbSpline
 70
8
 71
3
 72
8
 73
4
 74
0
 40
0
 40
0
 40
0
 40
0
 40
1
 40
1
 40
1
 40
1
 10
336.767641
 20
427.101137
 30
0.0
 10
341.439194
 20
425.698838
 30
0.0
 10
346.929931
 20
423.611688
 30
0.0
 10
350.641786
 20
421.827194
 30
0.0
  0
LWPOLYLINE
  5
16d
100
AcDbEntity
  8
Layer_1
 62
7
100
AcDbPolyline
 90
9
 70
0
 10
337.023213
 20
409.897247
 30
0.0
 10
337.698680
 20
409.698539
 30
0.0
 10
337.698680
 20
416.511071
 30
0.0
 10
337.698680
 20
423.323632
 30
0.0
 10
336.895427
 20
423.551537
 30
0.0
 10
336.092202
 20
423.779443
 30
0.0
 10
336.092202
 20
425.541742
 30
0.0
 10
336.092202
 20
427.304098
 30
0.0
 10
336.767641
 20
427.101137
 30
0.0
  0
SPLINE
  5
16e
100
AcDbEntity
  8
Layer_1
 62
7
100
AcDbSpline
 70
8
 71
3
 72
8
 73
4
 74
0
 40
0
 40
0
 40
0
 40
0
 40
1
 40
1
 40
1
 40
1
 10
350.988661
 20
419.305578
 30
0.0
 10
350.988661
 20
418.010485
 30
0.0
 10
350.960315
 20
416.963027
 30
0.0
 10
350.926016
 20
416.977852
 30
0.0
  0
SPLINE
  5
16f
100
AcDbEntity
  8
Layer_1
 62
7
100
AcDbSpline
 70
8
 71
3
 72
8
 73
4
 74
0
 40
0
 40
0
 40
0
 40
0
 40
1
 40
1
 40
1
 40
1
 10
350.926016
 20
416.977852
 30
0.0
 10
350.891433
 20
416.992025
 30
0.0
 10
350.038658
 20
417.368721
 30
0.0
 10
349.030715
 20
417.813449
 30
0.0
  0
LWPOLYLINE
  5
170
100
AcDbEntity
  8
Layer_1
 62
7
100
AcDbPolyline
 90
3
 70
0
 10
350.641786
 20
421.827194
 30
0.0
 10
350.988661
 20
421.660233
 30
0.0
 10
350.988661
 20
419.305578
 30
0.0
  0
SPLINE
  5
171
100
AcDbEntity
  8
Layer_1
 62
7
100
AcDbSpline
 70
8
 71
3
 72
8
 73
4
 74
0
 40
0
 40
0
 40
0
 40
0
 40
1
 40
1
 40
1
 40
1
 10
346.495521
 20
420.173206
 30
0.0
 10
345.473008
 20
420.597666
 30
0.0
 10
341.780740
 20
421.977827
 30
0.0
 10
341.667694
 20
421.977827
 30
0.0
  0
SPLINE
  5
172
100
AcDbEntity
  8
Layer_1
 62
7
100
AcDbSpline
 70
8
 71
3
 72
8
 73
4
 74
0
 40
0
 40
0
 40
0
 40
0
 40
1
 40
1
 40
1
 40
1
 10
341.667694
 20
421.977827
 30
0.0
 10
341.583789
 20
421.977827
 30
0.0
 10
341.566498
 20
421.555720
 30
0.0
 10
341.566498
 20
419.489206
 30
0.0
  0
LWPOLYLINE
  5
173
100
AcDbEntity
  8
Layer_1
 62
7
100
AcDbPolyline
 90
5
 70
0
 10
349.030715
 20
417.813449
 30
0.0
 10
347.198088
 20
418.622060
 30
0.0
 10
347.175411
 20
419.261272
 30
0.0
 10
347.152734
 20
419.900513
 30
0.0
 10
346.495521
 20
420.173206
 30
0.0
  0
SPLINE
  5
174
100
AcDbEntity
  8
Layer_1
 62
7
100
AcDbSpline
 70
8
 71
3
 72
8
 73
4
 74
0
 40
0
 40
0
 40
0
 40
0
 40
1
 40
1
 40
1
 40
1
 10
342.643578
 20
416.608668
 30
0.0
 10
343.235962
 20
416.393235
 30
0.0
 10
344.418917
 20
415.939493
 30
0.0
 10
345.272372
 20
415.600469
 30
0.0
  0
LWPOLYLINE
  5
175
100
AcDbEntity
  8
Layer_1
 62
7
100
AcDbPolyline
 90
3
 70
0
 10
341.566498
 20
419.489206
 30
0.0
 10
341.566498
 20
417.000501
 30
0.0
 10
342.643578
 20
416.608668
 30
0.0
  0
SPLINE
  5
176
100
AcDbEntity
  8
Layer_1
 62
7
100
AcDbSpline
 70
8
 71
3
 72
8
 73
4
 74
0
 40
0
 40
0
 40
0
 40
0
 40
1
 40
1
 40
1
 40
1
 10
346.824085
 20
413.426976
 30
0.0
 10
346.824085
 20
412.570545
 30
0.0
 10
346.804243
 20
411.869820
 30
0.0
 10
346.781565
 20
411.869820
 30
0.0
  0
SPLINE
  5
177
100
AcDbEntity
  8
Layer_1
 62
7
100
AcDbSpline
 70
8
 71
3
 72
8
 73
4
 74
0
 40
0
 40
0
 40
0
 40
0
 40
1
 40
1
 40
1
 40
1
 10
346.781565
 20
411.869820
 30
0.0
 10
346.758888
 20
411.869820
 30
0.0
 10
346.273540
 20
412.056057
 30
0.0
 10
345.704513
 20
412.283962
 30
0.0
  0
SPLINE
  5
178
100
AcDbEntity
  8
Layer_1
 62
7
100
AcDbSpline
 70
8
 71
3
 72
8
 73
4
 74
0
 40
0
 40
0
 40
0
 40
0
 40
1
 40
1
 40
1
 40
1
 10
345.704513
 20
412.283962
 30
0.0
 10
344.509965
 20
412.762139
 30
0.0
 10
341.707011
 20
413.810561
 30
0.0
 10
341.623219
 20
413.810561
 30
0.0
  0
SPLINE
  5
179
100
AcDbEntity
  8
Layer_1
 62
7
100
AcDbSpline
 70
8
 71
3
 72
8
 73
4
 74
0
 40
0
 40
0
 40
0
 40
0
 40
1
 40
1
 40
1
 40
1
 10
341.623219
 20
413.810561
 30
0.0
 10
341.592038
 20
413.810561
 30
0.0
 10
341.566526
 20
412.600450
 30
0.0
 10
341.566526
 20
411.121502
 30
0.0
  0
LWPOLYLINE
  5
17a
100
AcDbEntity
  8
Layer_1
 62
7
100
AcDbPolyline
 90
3
 70
0
 10
345.272372
 20
415.600469
 30
0.0
 10
346.824085
 20
414.984132
 30
0.0
 10
346.824085
 20
413.426976
 30
0.0
  0
SPLINE
  5
17b
100
AcDbEntity
  8
Layer_1
 62
7
100
AcDbSpline
 70
8
 71
3
 72
8
 73
4
 74
0
 40
0
 40
0
 40
0
 40
0
 40
1
 40
1
 40
1
 40
1
 10
343.154750
 20
407.835865
 30
0.0
 10
344.028274
 20
407.507754
 30
0.0
 10
345.265342
 20
407.025751
 30
0.0
 10
345.903817
 20
406.764737
 30
0.0
  0
SPLINE
  5
17c
100
AcDbEntity
  8
Layer_1
 62
7
100
AcDbSpline
 70
8
 71
3
 72
8
 73
4
 74
0
 40
0
 40
0
 40
0
 40
0
 40
1
 40
1
 40
1
 40
1
 10
345.903817
 20
406.764737
 30
0.0
 10
346.542265
 20
406.503666
 30
0.0
 10
347.091506
 20
406.290161
 30
0.0
 10
347.124302
 20
406.290161
 30
0.0
  0
SPLINE
  5
17d
100
AcDbEntity
  8
Layer_1
 62
7
100
AcDbSpline
 70
8
 71
3
 72
8
 73
4
 74
0
 40
0
 40
0
 40
0
 40
0
 40
1
 40
1
 40
1
 40
1
 10
347.124302
 20
406.290161
 30
0.0
 10
347.156901
 20
406.290161
 30
0.0
 10
347.193184
 20
406.629468
 30
0.0
 10
347.204806
 20
407.044148
 30
0.0
  0
LWPOLYLINE
  5
17e
100
AcDbEntity
  8
Layer_1
 62
7
100
AcDbPolyline
 90
3
 70
0
 10
341.566526
 20
411.121502
 30
0.0
 10
341.566526
 20
408.432416
 30
0.0
 10
343.154750
 20
407.835865
 30
0.0
  0
SPLINE
  5
17f
100
AcDbEntity
  8
Layer_1
 62
7
100
AcDbSpline
 70
8
 71
3
 72
8
 73
4
 74
0
 40
0
 40
0
 40
0
 40
0
 40
1
 40
1
 40
1
 40
1
 10
350.968620
 20
403.631376
 30
0.0
 10
350.979959
 20
402.247304
 30
0.0
 10
350.962951
 20
401.118491
 30
0.0
 10
350.932054
 20
401.122942
 30
0.0
  0
SPLINE
  5
180
100
AcDbEntity
  8
Layer_1
 62
7
100
AcDbSpline
 70
8
 71
3
 72
8
 73
4
 74
0
 40
0
 40
0
 40
0
 40
0
 40
1
 40
1
 40
1
 40
1
 10
350.932054
 20
401.122942
 30
0.0
 10
350.901439
 20
401.128611
 30
0.0
 10
350.249726
 20
401.415420
 30
0.0
 10
349.483946
 20
401.763005
 30
0.0
  0
LWPOLYLINE
  5
181
100
AcDbEntity
  8
Layer_1
 62
7
100
AcDbPolyline
 90
5
 70
0
 10
347.204806
 20
407.044148
 30
0.0
 10
347.224649
 20
407.798135
 30
0.0
 10
349.086699
 20
406.973027
 30
0.0
 10
350.948778
 20
406.147918
 30
0.0
 10
350.968620
 20
403.631376
 30
0.0
  0
LWPOLYLINE
  5
182
100
AcDbEntity
  8
Layer_1
 62
7
100
AcDbPolyline
 90
2
 70
0
 10
349.483946
 20
401.763005
 30
0.0
 10
349.487093
 20
401.763260
 30
0.0
  0
SPLINE
  5
183
100
AcDbEntity
  8
Layer_1
 62
7
100
AcDbSpline
 70
8
 71
3
 72
8
 73
4
 74
0
 40
0
 40
0
 40
0
 40
0
 40
1
 40
1
 40
1
 40
1
 10
267.305893
 20
406.942583
 30
0.0
 10
267.486630
 20
407.023937
 30
0.0
 10
268.324549
 20
407.398422
 30
0.0
 10
269.167946
 20
407.774636
 30
0.0
  0
LWPOLYLINE
  5
184
100
AcDbEntity
  8
Layer_1
 62
7
100
AcDbPolyline
 90
5
 70
0
 10
268.364707
 20
403.363814
 30
0.0
 10
266.977293
 20
404.314526
 30
0.0
 10
266.977293
 20
405.554570
 30
0.0
 10
266.977293
 20
406.794614
 30
0.0
 10
267.305893
 20
406.942583
 30
0.0
  0
SPLINE
  5
185
100
AcDbEntity
  8
Layer_1
 62
7
100
AcDbSpline
 70
8
 71
3
 72
8
 73
4
 74
0
 40
0
 40
0
 40
0
 40
0
 40
1
 40
1
 40
1
 40
1
 10
270.721531
 20
407.253232
 30
0.0
 10
270.732586
 20
406.590236
 30
0.0
 10
270.752570
 20
406.047770
 30
0.0
 10
270.765836
 20
406.047770
 30
0.0
  0
SPLINE
  5
186
100
AcDbEntity
  8
Layer_1
 62
7
100
AcDbSpline
 70
8
 71
3
 72
8
 73
4
 74
0
 40
0
 40
0
 40
0
 40
0
 40
1
 40
1
 40
1
 40
1
 10
270.765836
 20
406.047770
 30
0.0
 10
270.779159
 20
406.047770
 30
0.0
 10
271.262934
 20
406.244211
 30
0.0
 10
271.841009
 20
406.484135
 30
0.0
  0
SPLINE
  5
187
100
AcDbEntity
  8
Layer_1
 62
7
100
AcDbSpline
 70
8
 71
3
 72
8
 73
4
 74
0
 40
0
 40
0
 40
0
 40
0
 40
1
 40
1
 40
1
 40
1
 10
271.841009
 20
406.484135
 30
0.0
 10
272.419084
 20
406.724230
 30
0.0
 10
273.688912
 20
407.220066
 30
0.0
 10
274.662842
 20
407.586189
 30
0.0
  0
LWPOLYLINE
  5
188
100
AcDbEntity
  8
Layer_1
 62
7
100
AcDbPolyline
 90
3
 70
0
 10
269.167946
 20
407.774636
 30
0.0
 10
270.701405
 20
408.458693
 30
0.0
 10
270.721531
 20
407.253232
 30
0.0
  0
SPLINE
  5
189
100
AcDbEntity
  8
Layer_1
 62
7
100
AcDbSpline
 70
8
 71
3
 72
8
 73
4
 74
0
 40
0
 40
0
 40
0
 40
0
 40
1
 40
1
 40
1
 40
1
 10
276.433620
 20
411.188287
 30
0.0
 10
276.433620
 20
412.803298
 30
0.0
 10
276.408958
 20
414.141165
 30
0.0
 10
276.378883
 20
414.161291
 30
0.0
  0
SPLINE
  5
18a
100
AcDbEntity
  8
Layer_1
 62
7
100
AcDbSpline
 70
8
 71
3
 72
8
 73
4
 74
0
 40
0
 40
0
 40
0
 40
0
 40
1
 40
1
 40
1
 40
1
 10
276.378883
 20
414.161291
 30
0.0
 10
276.273490
 20
414.231591
 30
0.0
 10
272.156139
 20
412.652863
 30
0.0
 10
269.488845
 20
411.519175
 30
0.0
  0
LWPOLYLINE
  5
18b
100
AcDbEntity
  8
Layer_1
 62
7
100
AcDbPolyline
 90
3
 70
0
 10
274.662842
 20
407.586189
 30
0.0
 10
276.433620
 20
408.251877
 30
0.0
 10
276.433620
 20
411.188287
 30
0.0
  0
SPLINE
  5
18c
100
AcDbEntity
  8
Layer_1
 62
7
100
AcDbSpline
 70
8
 71
3
 72
8
 73
4
 74
0
 40
0
 40
0
 40
0
 40
0
 40
1
 40
1
 40
1
 40
1
 10
267.233323
 20
418.710416
 30
0.0
 10
267.394190
 20
418.973187
 30
0.0
 10
268.093080
 20
420.059934
 30
0.0
 10
268.786386
 20
421.125591
 30
0.0
  0
LWPOLYLINE
  5
18d
100
AcDbEntity
  8
Layer_1
 62
7
100
AcDbPolyline
 90
7
 70
0
 10
269.488845
 20
411.519175
 30
0.0
 10
269.006479
 20
411.313946
 30
0.0
 10
267.973642
 20
412.092340
 30
0.0
 10
266.940808
 20
412.870762
 30
0.0
 10
266.940808
 20
415.551770
 30
0.0
 10
266.940808
 20
418.232835
 30
0.0
 10
267.233323
 20
418.710416
 30
0.0
  0
SPLINE
  5
18e
100
AcDbEntity
  8
Layer_1
 62
7
100
AcDbSpline
 70
8
 71
3
 72
8
 73
4
 74
0
 40
0
 40
0
 40
0
 40
0
 40
1
 40
1
 40
1
 40
1
 10
270.775800
 20
423.372019
 30
0.0
 10
272.040579
 20
423.908164
 30
0.0
 10
274.890317
 20
425.014101
 30
0.0
 10
276.126763
 20
425.448680
 30
0.0
  0
LWPOLYLINE
  5
18f
100
AcDbEntity
  8
Layer_1
 62
7
100
AcDbPolyline
 90
3
 70
0
 10
268.786386
 20
421.125591
 30
0.0
 10
270.046930
 20
423.063071
 30
0.0
 10
270.775800
 20
423.372019
 30
0.0
  0
SPLINE
  5
190
100
AcDbEntity
  8
Layer_1
 62
7
100
AcDbSpline
 70
8
 71
3
 72
8
 73
4
 74
0
 40
0
 40
0
 40
0
 40
0
 40
1
 40
1
 40
1
 40
1
 10
279.974982
 20
421.686850
 30
0.0
 10
279.814343
 20
421.631008
 30
0.0
 10
278.992837
 20
421.359165
 30
0.0
 10
278.149433
 20
421.083099
 30
0.0
  0
SPLINE
  5
191
100
AcDbEntity
  8
Layer_1
 62
7
100
AcDbSpline
 70
8
 71
3
 72
8
 73
4
 74
0
 40
0
 40
0
 40
0
 40
0
 40
1
 40
1
 40
1
 40
1
 10
278.149433
 20
421.083099
 30
0.0
 10
277.306030
 20
420.807005
 30
0.0
 10
276.574901
 20
420.564019
 30
0.0
 10
276.524697
 20
420.543043
 30
0.0
  0
SPLINE
  5
192
100
AcDbEntity
  8
Layer_1
 62
7
100
AcDbSpline
 70
8
 71
3
 72
8
 73
4
 74
0
 40
0
 40
0
 40
0
 40
0
 40
1
 40
1
 40
1
 40
1
 10
276.524697
 20
420.543043
 30
0.0
 10
276.455872
 20
420.514129
 30
0.0
 10
276.433421
 20
420.685625
 30
0.0
 10
276.433421
 20
421.241301
 30
0.0
  0
SPLINE
  5
193
100
AcDbEntity
  8
Layer_1
 62
7
100
AcDbSpline
 70
8
 71
3
 72
8
 73
4
 74
0
 40
0
 40
0
 40
0
 40
0
 40
1
 40
1
 40
1
 40
1
 10
276.433421
 20
421.241301
 30
0.0
 10
276.433421
 20
421.802220
 30
0.0
 10
276.410177
 20
421.977685
 30
0.0
 10
276.335739
 20
421.977685
 30
0.0
  0
SPLINE
  5
194
100
AcDbEntity
  8
Layer_1
 62
7
100
AcDbSpline
 70
8
 71
3
 72
8
 73
4
 74
0
 40
0
 40
0
 40
0
 40
0
 40
1
 40
1
 40
1
 40
1
 10
276.335739
 20
421.977685
 30
0.0
 10
276.213311
 20
421.977685
 30
0.0
 10
273.668173
 20
421.026973
 30
0.0
 10
271.997331
 20
420.357090
 30
0.0
  0
LWPOLYLINE
  5
195
100
AcDbEntity
  8
Layer_1
 62
7
100
AcDbPolyline
 90
7
 70
0
 10
276.126763
 20
425.448680
 30
0.0
 10
277.316824
 20
425.866932
 30
0.0
 10
278.812636
 20
424.772192
 30
0.0
 10
280.308450
 20
423.677509
 30
0.0
 10
280.287757
 20
422.733175
 30
0.0
 10
280.267064
 20
421.788898
 30
0.0
 10
279.974982
 20
421.686850
 30
0.0
  0
SPLINE
  5
196
100
AcDbEntity
  8
Layer_1
 62
7
100
AcDbSpline
 70
8
 71
3
 72
8
 73
4
 74
0
 40
0
 40
0
 40
0
 40
0
 40
1
 40
1
 40
1
 40
1
 10
270.737705
 20
417.509943
 30
0.0
 10
270.737705
 20
415.311676
 30
0.0
 10
270.745642
 20
415.171304
 30
0.0
 10
270.865491
 20
415.224397
 30
0.0
  0
SPLINE
  5
197
100
AcDbEntity
  8
Layer_1
 62
7
100
AcDbSpline
 70
8
 71
3
 72
8
 73
4
 74
0
 40
0
 40
0
 40
0
 40
0
 40
1
 40
1
 40
1
 40
1
 10
270.865491
 20
415.224397
 30
0.0
 10
272.209425
 20
415.819531
 30
0.0
 10
277.307144
 20
417.759024
 30
0.0
 10
277.857334
 20
417.884513
 30
0.0
  0
SPLINE
  5
198
100
AcDbEntity
  8
Layer_1
 62
7
100
AcDbSpline
 70
8
 71
3
 72
8
 73
4
 74
0
 40
0
 40
0
 40
0
 40
0
 40
1
 40
1
 40
1
 40
1
 10
277.857334
 20
417.884513
 30
0.0
 10
278.046916
 20
417.927883
 30
0.0
 10
278.226255
 20
417.826120
 30
0.0
 10
279.189986
 20
417.128627
 30
0.0
  0
LWPOLYLINE
  5
199
100
AcDbEntity
  8
Layer_1
 62
7
100
AcDbPolyline
 90
3
 70
0
 10
271.997331
 20
420.357090
 30
0.0
 10
270.737705
 20
419.852098
 30
0.0
 10
270.737705
 20
417.509943
 30
0.0
  0
SPLINE
  5
19a
100
AcDbEntity
  8
Layer_1
 62
7
100
AcDbSpline
 70
8
 71
3
 72
8
 73
4
 74
0
 40
0
 40
0
 40
0
 40
0
 40
1
 40
1
 40
1
 40
1
 10
276.234134
 20
404.879528
 30
0.0
 10
274.859379
 20
404.394576
 30
0.0
 10
272.482611
 20
403.480573
 30
0.0
 10
271.147175
 20
402.923310
 30
0.0
  0
SPLINE
  5
19b
100
AcDbEntity
  8
Layer_1
 62
7
100
AcDbSpline
 70
8
 71
3
 72
8
 73
4
 74
0
 40
0
 40
0
 40
0
 40
0
 40
1
 40
1
 40
1
 40
1
 10
271.147175
 20
402.923310
 30
0.0
 10
270.468737
 20
402.640129
 30
0.0
 10
269.877257
 20
402.409474
 30
0.0
 10
269.832781
 20
402.410665
 30
0.0
  0
SPLINE
  5
19c
100
AcDbEntity
  8
Layer_1
 62
7
100
AcDbSpline
 70
8
 71
3
 72
8
 73
4
 74
0
 40
0
 40
0
 40
0
 40
0
 40
1
 40
1
 40
1
 40
1
 10
269.832781
 20
402.410665
 30
0.0
 10
269.788277
 20
402.411458
 30
0.0
 10
269.127575
 20
402.840510
 30
0.0
 10
268.364497
 20
403.363417
 30
0.0
  0
LWPOLYLINE
  5
19d
100
AcDbEntity
  8
Layer_1
 62
7
100
AcDbPolyline
 90
7
 70
0
 10
279.189986
 20
417.128627
 30
0.0
 10
280.303566
 20
416.322765
 30
0.0
 10
280.303566
 20
412.999767
 30
0.0
 10
280.303566
 20
409.676712
 30
0.0
 10
278.698618
 20
407.429717
 30
0.0
 10
277.093670
 20
405.182693
 30
0.0
 10
276.234134
 20
404.879528
 30
0.0
  0
LWPOLYLINE
  5
19e
100
AcDbEntity
  8
Layer_1
 62
7
100
AcDbPolyline
 90
2
 70
0
 10
268.364497
 20
403.363417
 30
0.0
 10
268.364707
 20
403.363814
 30
0.0
  0
SPLINE
  5
19f
100
AcDbEntity
  8
Layer_1
 62
7
100
AcDbSpline
 70
8
 71
3
 72
8
 73
4
 74
0
 40
0
 40
0
 40
0
 40
0
 40
1
 40
1
 40
1
 40
1
 10
288.390954
 20
411.826394
 30
0.0
 10
288.782532
 20
411.907465
 30
0.0
 10
289.144006
 20
411.990803
 30
0.0
 10
289.194208
 20
412.011496
 30
0.0
  0
SPLINE
  5
1a0
100
AcDbEntity
  8
Layer_1
 62
7
100
AcDbSpline
 70
8
 71
3
 72
8
 73
4
 74
0
 40
0
 40
0
 40
0
 40
0
 40
1
 40
1
 40
1
 40
1
 10
289.194208
 20
412.011496
 30
0.0
 10
289.266208
 20
412.041260
 30
0.0
 10
289.285483
 20
413.479984
 30
0.0
 10
289.285483
 20
418.833099
 30
0.0
  0
SPLINE
  5
1a1
100
AcDbEntity
  8
Layer_1
 62
7
100
AcDbSpline
 70
8
 71
3
 72
8
 73
4
 74
0
 40
0
 40
0
 40
0
 40
0
 40
1
 40
1
 40
1
 40
1
 10
289.285483
 20
418.833099
 30
0.0
 10
289.285483
 20
422.564315
 30
0.0
 10
289.271310
 20
425.617058
 30
0.0
 10
289.252035
 20
425.617058
 30
0.0
  0
SPLINE
  5
1a2
100
AcDbEntity
  8
Layer_1
 62
7
100
AcDbSpline
 70
8
 71
3
 72
8
 73
4
 74
0
 40
0
 40
0
 40
0
 40
0
 40
1
 40
1
 40
1
 40
1
 10
289.252035
 20
425.617058
 30
0.0
 10
289.235027
 20
425.617058
 30
0.0
 10
288.502554
 20
425.453499
 30
0.0
 10
287.627301
 20
425.253742
 30
0.0
  0
SPLINE
  5
1a3
100
AcDbEntity
  8
Layer_1
 62
7
100
AcDbSpline
 70
8
 71
3
 72
8
 73
4
 74
0
 40
0
 40
0
 40
0
 40
0
 40
1
 40
1
 40
1
 40
1
 10
287.627301
 20
425.253742
 30
0.0
 10
286.752019
 20
425.053899
 30
0.0
 10
286.011269
 20
424.890170
 30
0.0
 10
285.981137
 20
424.889858
 30
0.0
  0
SPLINE
  5
1a4
100
AcDbEntity
  8
Layer_1
 62
7
100
AcDbSpline
 70
8
 71
3
 72
8
 73
4
 74
0
 40
0
 40
0
 40
0
 40
0
 40
1
 40
1
 40
1
 40
1
 10
285.981137
 20
424.889858
 30
0.0
 10
285.951090
 20
424.889518
 30
0.0
 10
285.926428
 20
424.346457
 30
0.0
 10
285.926428
 20
423.682980
 30
0.0
  0
LWPOLYLINE
  5
1a5
100
AcDbEntity
  8
Layer_1
 62
7
100
AcDbPolyline
 90
3
 70
0
 10
287.679005
 20
409.909039
 30
0.0
 10
287.679005
 20
411.678709
 30
0.0
 10
288.390954
 20
411.826394
 30
0.0
  0
SPLINE
  5
1a6
100
AcDbEntity
  8
Layer_1
 62
7
100
AcDbSpline
 70
8
 71
3
 72
8
 73
4
 74
0
 40
0
 40
0
 40
0
 40
0
 40
1
 40
1
 40
1
 40
1
 10
285.214450
 20
422.300580
 30
0.0
 10
284.822872
 20
422.203918
 30
0.0
 10
284.132835
 20
422.022784
 30
0.0
 10
283.680992
 20
421.898457
 30
0.0
  0
LWPOLYLINE
  5
1a7
100
AcDbEntity
  8
Layer_1
 62
7
100
AcDbPolyline
 90
3
 70
0
 10
285.926428
 20
423.682980
 30
0.0
 10
285.926428
 20
422.476611
 30
0.0
 10
285.214450
 20
422.300580
 30
0.0
  0
SPLINE
  5
1a8
100
AcDbEntity
  8
Layer_1
 62
7
100
AcDbSpline
 70
8
 71
3
 72
8
 73
4
 74
0
 40
0
 40
0
 40
0
 40
0
 40
1
 40
1
 40
1
 40
1
 10
283.718183
 20
427.826296
 30
0.0
 10
287.204315
 20
428.754076
 30
0.0
 10
291.122872
 20
429.569121
 30
0.0
 10
294.666832
 20
430.103594
 30
0.0
  0
SPLINE
  5
1a9
100
AcDbEntity
  8
Layer_1
 62
7
100
AcDbSpline
 70
8
 71
3
 72
8
 73
4
 74
0
 40
0
 40
0
 40
0
 40
0
 40
1
 40
1
 40
1
 40
1
 10
294.666832
 20
430.103594
 30
0.0
 10
296.059039
 20
430.313641
 30
0.0
 10
299.298557
 20
430.711455
 30
0.0
 10
299.615839
 20
430.711455
 30
0.0
  0
LWPOLYLINE
  5
1aa
100
AcDbEntity
  8
Layer_1
 62
7
100
AcDbPolyline
 90
5
 70
0
 10
283.680992
 20
421.898457
 30
0.0
 10
282.859495
 20
421.672252
 30
0.0
 10
282.860152
 20
424.635165
 30
0.0
 10
282.860813
 20
427.598107
 30
0.0
 10
283.718183
 20
427.826296
 30
0.0
  0
SPLINE
  5
1ab
100
AcDbEntity
  8
Layer_1
 62
7
100
AcDbSpline
 70
8
 71
3
 72
8
 73
4
 74
0
 40
0
 40
0
 40
0
 40
0
 40
1
 40
1
 40
1
 40
1
 10
299.800658
 20
427.759880
 30
0.0
 10
299.800658
 20
426.136535
 30
0.0
 10
299.775146
 20
424.808334
 30
0.0
 10
299.742832
 20
424.808334
 30
0.0
  0
SPLINE
  5
1ac
100
AcDbEntity
  8
Layer_1
 62
7
100
AcDbSpline
 70
8
 71
3
 72
8
 73
4
 74
0
 40
0
 40
0
 40
0
 40
0
 40
1
 40
1
 40
1
 40
1
 10
299.742832
 20
424.808334
 30
0.0
 10
299.711083
 20
424.808334
 30
0.0
 10
299.046983
 20
424.735483
 30
0.0
 10
298.267313
 20
424.646476
 30
0.0
  0
SPLINE
  5
1ad
100
AcDbEntity
  8
Layer_1
 62
7
100
AcDbSpline
 70
8
 71
3
 72
8
 73
4
 74
0
 40
0
 40
0
 40
0
 40
0
 40
1
 40
1
 40
1
 40
1
 10
298.267313
 20
424.646476
 30
0.0
 10
297.487644
 20
424.557468
 30
0.0
 10
296.823657
 20
424.484617
 30
0.0
 10
296.791795
 20
424.484617
 30
0.0
  0
SPLINE
  5
1ae
100
AcDbEntity
  8
Layer_1
 62
7
100
AcDbSpline
 70
8
 71
3
 72
8
 73
4
 74
0
 40
0
 40
0
 40
0
 40
0
 40
1
 40
1
 40
1
 40
1
 10
296.791795
 20
424.484617
 30
0.0
 10
296.760047
 20
424.484617
 30
0.0
 10
296.733969
 20
425.012258
 30
0.0
 10
296.733969
 20
425.657140
 30
0.0
  0
LWPOLYLINE
  5
1af
100
AcDbEntity
  8
Layer_1
 62
7
100
AcDbPolyline
 90
3
 70
0
 10
299.615839
 20
430.711455
 30
0.0
 10
299.800658
 20
430.711455
 30
0.0
 10
299.800658
 20
427.759880
 30
0.0
  0
SPLINE
  5
1b0
100
AcDbEntity
  8
Layer_1
 62
7
100
AcDbSpline
 70
8
 71
3
 72
8
 73
4
 74
0
 40
0
 40
0
 40
0
 40
0
 40
1
 40
1
 40
1
 40
1
 10
296.557654
 20
426.829691
 30
0.0
 10
296.390126
 20
426.829691
 30
0.0
 10
293.967241
 20
426.479584
 30
0.0
 10
293.466132
 20
426.382923
 30
0.0
  0
LWPOLYLINE
  5
1b1
100
AcDbEntity
  8
Layer_1
 62
7
100
AcDbPolyline
 90
3
 70
0
 10
296.733969
 20
425.657140
 30
0.0
 10
296.733969
 20
426.829691
 30
0.0
 10
296.557654
 20
426.829691
 30
0.0
  0
SPLINE
  5
1b2
100
AcDbEntity
  8
Layer_1
 62
7
100
AcDbSpline
 70
8
 71
3
 72
8
 73
4
 74
0
 40
0
 40
0
 40
0
 40
0
 40
1
 40
1
 40
1
 40
1
 10
293.228872
 20
419.593521
 30
0.0
 10
293.228872
 20
415.884472
 30
0.0
 10
293.257219
 20
412.830595
 30
0.0
 10
293.291235
 20
412.807181
 30
0.0
  0
SPLINE
  5
1b3
100
AcDbEntity
  8
Layer_1
 62
7
100
AcDbSpline
 70
8
 71
3
 72
8
 73
4
 74
0
 40
0
 40
0
 40
0
 40
0
 40
1
 40
1
 40
1
 40
1
 10
293.291235
 20
412.807181
 30
0.0
 10
293.325534
 20
412.784504
 30
0.0
 10
293.547203
 20
412.795843
 30
0.0
 10
293.784123
 20
412.835528
 30
0.0
  0
SPLINE
  5
1b4
100
AcDbEntity
  8
Layer_1
 62
7
100
AcDbSpline
 70
8
 71
3
 72
8
 73
4
 74
0
 40
0
 40
0
 40
0
 40
0
 40
1
 40
1
 40
1
 40
1
 10
293.784123
 20
412.835528
 30
0.0
 10
294.021099
 20
412.874646
 30
0.0
 10
294.354397
 20
412.928220
 30
0.0
 10
294.525099
 20
412.955150
 30
0.0
  0
LWPOLYLINE
  5
1b5
100
AcDbEntity
  8
Layer_1
 62
7
100
AcDbPolyline
 90
3
 70
0
 10
293.466132
 20
426.382923
 30
0.0
 10
293.228872
 20
426.337285
 30
0.0
 10
293.228872
 20
419.593521
 30
0.0
  0
SPLINE
  5
1b6
100
AcDbEntity
  8
Layer_1
 62
7
100
AcDbSpline
 70
8
 71
3
 72
8
 73
4
 74
0
 40
0
 40
0
 40
0
 40
0
 40
1
 40
1
 40
1
 40
1
 10
294.123458
 20
409.372129
 30
0.0
 10
292.712655
 20
409.174271
 30
0.0
 10
288.296617
 20
408.341679
 30
0.0
 10
287.807074
 20
408.181209
 30
0.0
  0
SPLINE
  5
1b7
100
AcDbEntity
  8
Layer_1
 62
7
100
AcDbSpline
 70
8
 71
3
 72
8
 73
4
 74
0
 40
0
 40
0
 40
0
 40
0
 40
1
 40
1
 40
1
 40
1
 10
287.807074
 20
408.181209
 30
0.0
 10
287.688019
 20
408.142091
 30
0.0
 10
287.679232
 20
408.261713
 30
0.0
 10
287.679232
 20
409.908954
 30
0.0
  0
LWPOLYLINE
  5
1b8
100
AcDbEntity
  8
Layer_1
 62
7
100
AcDbPolyline
 90
5
 70
0
 10
294.525099
 20
412.955150
 30
0.0
 10
294.835436
 20
413.004189
 30
0.0
 10
294.835436
 20
411.238205
 30
0.0
 10
294.835436
 20
409.472192
 30
0.0
 10
294.123458
 20
409.372129
 30
0.0
  0
SPLINE
  5
1b9
100
AcDbEntity
  8
Layer_1
 62
7
100
AcDbSpline
 70
8
 71
3
 72
8
 73
4
 74
0
 40
0
 40
0
 40
0
 40
0
 40
1
 40
1
 40
1
 40
1
 10
327.548920
 20
408.721096
 30
0.0
 10
326.560365
 20
408.929159
 30
0.0
 10
324.207326
 20
409.329836
 30
0.0
 10
322.839014
 20
409.523046
 30
0.0
  0
SPLINE
  5
1ba
100
AcDbEntity
  8
Layer_1
 62
7
100
AcDbSpline
 70
8
 71
3
 72
8
 73
4
 74
0
 40
0
 40
0
 40
0
 40
0
 40
1
 40
1
 40
1
 40
1
 10
322.839014
 20
409.523046
 30
0.0
 10
322.196400
 20
409.613754
 30
0.0
 10
321.563849
 20
409.707581
 30
0.0
 10
321.433342
 20
409.731392
 30
0.0
  0
LWPOLYLINE
  5
1bb
100
AcDbEntity
  8
Layer_1
 62
7
100
AcDbPolyline
 90
2
 70
0
 10
287.679232
 20
409.908954
 30
0.0
 10
287.679005
 20
409.909039
 30
0.0
  0
SPLINE
  5
1bc
100
AcDbEntity
  8
Layer_1
 62
7
100
AcDbSpline
 70
8
 71
3
 72
8
 73
4
 74
0
 40
0
 40
0
 40
0
 40
0
 40
1
 40
1
 40
1
 40
1
 10
321.615978
 20
413.213868
 30
0.0
 10
321.847002
 20
413.184387
 30
0.0
 10
322.187159
 20
413.139317
 30
0.0
 10
322.372091
 20
413.112954
 30
0.0
  0
SPLINE
  5
1bd
100
AcDbEntity
  8
Layer_1
 62
7
100
AcDbSpline
 70
8
 71
3
 72
8
 73
4
 74
0
 40
0
 40
0
 40
0
 40
0
 40
1
 40
1
 40
1
 40
1
 10
322.372091
 20
413.112954
 30
0.0
 10
322.680699
 20
413.069301
 30
0.0
 10
322.712135
 20
413.080923
 30
0.0
 10
322.754457
 20
413.255820
 30
0.0
  0
SPLINE
  5
1be
100
AcDbEntity
  8
Layer_1
 62
7
100
AcDbSpline
 70
8
 71
3
 72
8
 73
4
 74
0
 40
0
 40
0
 40
0
 40
0
 40
1
 40
1
 40
1
 40
1
 10
322.754457
 20
413.255820
 30
0.0
 10
322.826457
 20
413.553912
 30
0.0
 10
322.810866
 20
426.571795
 30
0.0
 10
322.737449
 20
426.621402
 30
0.0
  0
SPLINE
  5
1bf
100
AcDbEntity
  8
Layer_1
 62
7
100
AcDbSpline
 70
8
 71
3
 72
8
 73
4
 74
0
 40
0
 40
0
 40
0
 40
0
 40
1
 40
1
 40
1
 40
1
 10
322.737449
 20
426.621402
 30
0.0
 10
322.681039
 20
426.660236
 30
0.0
 10
319.696838
 20
427.070069
 30
0.0
 10
319.460825
 20
427.071628
 30
0.0
  0
SPLINE
  5
1c0
100
AcDbEntity
  8
Layer_1
 62
7
100
AcDbSpline
 70
8
 71
3
 72
8
 73
4
 74
0
 40
0
 40
0
 40
0
 40
0
 40
1
 40
1
 40
1
 40
1
 10
319.460825
 20
427.071628
 30
0.0
 10
319.391943
 20
427.072139
 30
0.0
 10
319.369550
 20
426.784167
 30
0.0
 10
319.369550
 20
425.899701
 30
0.0
  0
LWPOLYLINE
  5
1c1
100
AcDbEntity
  8
Layer_1
 62
7
100
AcDbPolyline
 90
5
 70
0
 10
321.433342
 20
409.731392
 30
0.0
 10
321.196082
 20
409.774762
 30
0.0
 10
321.196082
 20
411.520847
 30
0.0
 10
321.196082
 20
413.266876
 30
0.0
 10
321.615978
 20
413.213868
 30
0.0
  0
SPLINE
  5
1c2
100
AcDbEntity
  8
Layer_1
 62
7
100
AcDbSpline
 70
8
 71
3
 72
8
 73
4
 74
0
 40
0
 40
0
 40
0
 40
0
 40
1
 40
1
 40
1
 40
1
 10
319.126620
 20
424.727178
 30
0.0
 10
318.993109
 20
424.727178
 30
0.0
 10
318.541181
 20
424.761761
 30
0.0
 10
318.122561
 20
424.804564
 30
0.0
  0
SPLINE
  5
1c3
100
AcDbEntity
  8
Layer_1
 62
7
100
AcDbSpline
 70
8
 71
3
 72
8
 73
4
 74
0
 40
0
 40
0
 40
0
 40
0
 40
1
 40
1
 40
1
 40
1
 10
318.122561
 20
424.804564
 30
0.0
 10
317.703912
 20
424.846800
 30
0.0
 10
317.106737
 20
424.904910
 30
0.0
 10
316.795465
 20
424.932690
 30
0.0
  0
LWPOLYLINE
  5
1c4
100
AcDbEntity
  8
Layer_1
 62
7
100
AcDbPolyline
 90
3
 70
0
 10
319.369550
 20
425.899701
 30
0.0
 10
319.369550
 20
424.727178
 30
0.0
 10
319.126620
 20
424.727178
 30
0.0
  0
SPLINE
  5
1c5
100
AcDbEntity
  8
Layer_1
 62
7
100
AcDbSpline
 70
8
 71
3
 72
8
 73
4
 74
0
 40
0
 40
0
 40
0
 40
0
 40
1
 40
1
 40
1
 40
1
 10
316.503383
 20
430.872208
 30
0.0
 10
316.893969
 20
430.870535
 30
0.0
 10
319.027351
 20
430.659326
 30
0.0
 10
320.610869
 20
430.465436
 30
0.0
  0
SPLINE
  5
1c6
100
AcDbEntity
  8
Layer_1
 62
7
100
AcDbSpline
 70
8
 71
3
 72
8
 73
4
 74
0
 40
0
 40
0
 40
0
 40
0
 40
1
 40
1
 40
1
 40
1
 10
320.610869
 20
430.465436
 30
0.0
 10
324.421540
 20
429.998343
 30
0.0
 10
327.752702
 20
429.397030
 30
0.0
 10
331.655414
 20
428.471773
 30
0.0
  0
LWPOLYLINE
  5
1c7
100
AcDbEntity
  8
Layer_1
 62
7
100
AcDbPolyline
 90
5
 70
0
 10
316.795465
 20
424.932690
 30
0.0
 10
316.229556
 20
424.983713
 30
0.0
 10
316.229556
 20
427.928372
 30
0.0
 10
316.229556
 20
430.873030
 30
0.0
 10
316.503383
 20
430.872208
 30
0.0
  0
SPLINE
  5
1c8
100
AcDbEntity
  8
Layer_1
 62
7
100
AcDbSpline
 70
8
 71
3
 72
8
 73
4
 74
0
 40
0
 40
0
 40
0
 40
0
 40
1
 40
1
 40
1
 40
1
 10
333.042945
 20
422.239238
 30
0.0
 10
332.932394
 20
422.259080
 30
0.0
 10
332.242611
 20
422.418104
 30
0.0
 10
331.509883
 20
422.592066
 30
0.0
  0
LWPOLYLINE
  5
1c9
100
AcDbEntity
  8
Layer_1
 62
7
100
AcDbPolyline
 90
5
 70
0
 10
331.655414
 20
428.471773
 30
0.0
 10
333.243638
 20
428.095247
 30
0.0
 10
333.243638
 20
425.148803
 30
0.0
 10
333.243638
 20
422.202387
 30
0.0
 10
333.042945
 20
422.239238
 30
0.0
  0
SPLINE
  5
1ca
100
AcDbEntity
  8
Layer_1
 62
7
100
AcDbSpline
 70
8
 71
3
 72
8
 73
4
 74
0
 40
0
 40
0
 40
0
 40
0
 40
1
 40
1
 40
1
 40
1
 10
330.176920
 20
424.099502
 30
0.0
 10
330.176211
 20
425.267887
 30
0.0
 10
330.174085
 20
425.291499
 30
0.0
 10
330.012227
 20
425.334104
 30
0.0
  0
SPLINE
  5
1cb
100
AcDbEntity
  8
Layer_1
 62
7
100
AcDbSpline
 70
8
 71
3
 72
8
 73
4
 74
0
 40
0
 40
0
 40
0
 40
0
 40
1
 40
1
 40
1
 40
1
 10
330.012227
 20
425.334104
 30
0.0
 10
329.576088
 20
425.449757
 30
0.0
 10
327.069609
 20
425.940690
 30
0.0
 10
326.917417
 20
425.940690
 30
0.0
  0
LWPOLYLINE
  5
1cc
100
AcDbEntity
  8
Layer_1
 62
7
100
AcDbPolyline
 90
3
 70
0
 10
331.509883
 20
422.592066
 30
0.0
 10
330.177600
 20
422.908243
 30
0.0
 10
330.176920
 20
424.099502
 30
0.0
  0
SPLINE
  5
1cd
100
AcDbEntity
  8
Layer_1
 62
7
100
AcDbSpline
 70
8
 71
3
 72
8
 73
4
 74
0
 40
0
 40
0
 40
0
 40
0
 40
1
 40
1
 40
1
 40
1
 10
328.353591
 20
410.320772
 30
0.0
 10
328.353591
 20
409.349424
 30
0.0
 10
328.328079
 20
408.559380
 30
0.0
 10
328.298882
 20
408.564992
 30
0.0
  0
SPLINE
  5
1ce
100
AcDbEntity
  8
Layer_1
 62
7
100
AcDbSpline
 70
8
 71
3
 72
8
 73
4
 74
0
 40
0
 40
0
 40
0
 40
0
 40
1
 40
1
 40
1
 40
1
 10
328.298882
 20
408.564992
 30
0.0
 10
328.268835
 20
408.573496
 30
0.0
 10
327.931965
 20
408.640677
 30
0.0
 10
327.550422
 20
408.721181
 30
0.0
  0
LWPOLYLINE
  5
1cf
100
AcDbEntity
  8
Layer_1
 62
7
100
AcDbPolyline
 90
7
 70
0
 10
326.917417
 20
425.940690
 30
0.0
 10
326.743937
 20
425.940690
 30
0.0
 10
326.763780
 20
419.168494
 30
0.0
 10
326.783622
 20
412.396271
 30
0.0
 10
327.568592
 20
412.241499
 30
0.0
 10
328.353591
 20
412.086728
 30
0.0
 10
328.353591
 20
410.320772
 30
0.0
  0
LWPOLYLINE
  5
1d0
100
AcDbEntity
  8
Layer_1
 62
7
100
AcDbPolyline
 90
2
 70
0
 10
327.550422
 20
408.721181
 30
0.0
 10
327.548920
 20
408.721096
 30
0.0
  0
SPLINE
  5
1d1
100
AcDbEntity
  8
Layer_1
 62
7
100
AcDbSpline
 70
8
 71
3
 72
8
 73
4
 74
0
 40
0
 40
0
 40
0
 40
0
 40
1
 40
1
 40
1
 40
1
 10
298.979121
 20
413.516806
 30
0.0
 10
299.129641
 20
413.539483
 30
0.0
 10
299.471443
 20
413.582854
 30
0.0
 10
299.738494
 20
413.610350
 30
0.0
  0
LWPOLYLINE
  5
1d2
100
AcDbEntity
  8
Layer_1
 62
7
100
AcDbPolyline
 90
3
 70
0
 10
298.705294
 20
411.729704
 30
0.0
 10
298.705294
 20
413.473153
 30
0.0
 10
298.979121
 20
413.516806
 30
0.0
  0
SPLINE
  5
1d3
100
AcDbEntity
  8
Layer_1
 62
7
100
AcDbSpline
 70
8
 71
3
 72
8
 73
4
 74
0
 40
0
 40
0
 40
0
 40
0
 40
1
 40
1
 40
1
 40
1
 10
301.318583
 20
417.071169
 30
0.0
 10
301.920576
 20
418.947194
 30
0.0
 10
303.178620
 20
422.869465
 30
0.0
 10
304.114252
 20
425.787335
 30
0.0
  0
LWPOLYLINE
  5
1d4
100
AcDbEntity
  8
Layer_1
 62
7
100
AcDbPolyline
 90
3
 70
0
 10
299.738494
 20
413.610350
 30
0.0
 10
300.224041
 20
413.660239
 30
0.0
 10
301.318583
 20
417.071169
 30
0.0
  0
SPLINE
  5
1d5
100
AcDbEntity
  8
Layer_1
 62
7
100
AcDbSpline
 70
8
 71
3
 72
8
 73
4
 74
0
 40
0
 40
0
 40
0
 40
0
 40
1
 40
1
 40
1
 40
1
 10
306.689613
 20
431.144674
 30
0.0
 10
307.170454
 20
431.173304
 30
0.0
 10
308.163402
 20
431.196832
 30
0.0
 10
308.896157
 20
431.196832
 30
0.0
  0
LWPOLYLINE
  5
1d6
100
AcDbEntity
  8
Layer_1
 62
7
100
AcDbPolyline
 90
3
 70
0
 10
304.114252
 20
425.787335
 30
0.0
 10
305.815380
 20
431.092517
 30
0.0
 10
306.689613
 20
431.144674
 30
0.0
  0
SPLINE
  5
1d7
100
AcDbEntity
  8
Layer_1
 62
7
100
AcDbSpline
 70
8
 71
3
 72
8
 73
4
 74
0
 40
0
 40
0
 40
0
 40
0
 40
1
 40
1
 40
1
 40
1
 10
310.296756
 20
430.974312
 30
0.0
 10
310.334173
 20
430.852139
 30
0.0
 10
311.542696
 20
426.943729
 30
0.0
 10
312.982129
 20
422.289213
 30
0.0
  0
LWPOLYLINE
  5
1d8
100
AcDbEntity
  8
Layer_1
 62
7
100
AcDbPolyline
 90
3
 70
0
 10
308.896157
 20
431.196832
 30
0.0
 10
310.228441
 20
431.196832
 30
0.0
 10
310.296756
 20
430.974312
 30
0.0
  0
SPLINE
  5
1d9
100
AcDbEntity
  8
Layer_1
 62
7
100
AcDbSpline
 70
8
 71
3
 72
8
 73
4
 74
0
 40
0
 40
0
 40
0
 40
0
 40
1
 40
1
 40
1
 40
1
 10
316.761789
 20
410.205175
 30
0.0
 10
315.807109
 20
410.301269
 30
0.0
 10
313.840743
 20
410.412104
 30
0.0
 10
312.123458
 20
410.466246
 30
0.0
  0
LWPOLYLINE
  5
1da
100
AcDbEntity
  8
Layer_1
 62
7
100
AcDbPolyline
 90
7
 70
0
 10
312.982129
 20
422.289213
 30
0.0
 10
315.599301
 20
413.826520
 30
0.0
 10
316.407855
 20
413.758205
 30
0.0
 10
317.216438
 20
413.689890
 30
0.0
 10
317.236280
 20
411.922743
 30
0.0
 10
317.256123
 20
410.155569
 30
0.0
 10
316.761789
 20
410.205175
 30
0.0
  0
SPLINE
  5
1db
100
AcDbEntity
  8
Layer_1
 62
7
100
AcDbSpline
 70
8
 71
3
 72
8
 73
4
 74
0
 40
0
 40
0
 40
0
 40
0
 40
1
 40
1
 40
1
 40
1
 10
311.119398
 20
414.032400
 30
0.0
 10
311.645934
 20
414.000369
 30
0.0
 10
311.849972
 20
414.015392
 30
0.0
 10
311.850879
 20
414.081156
 30
0.0
  0
SPLINE
  5
1dc
100
AcDbEntity
  8
Layer_1
 62
7
100
AcDbSpline
 70
8
 71
3
 72
8
 73
4
 74
0
 40
0
 40
0
 40
0
 40
0
 40
1
 40
1
 40
1
 40
1
 10
311.850879
 20
414.081156
 30
0.0
 10
311.853713
 20
414.296589
 30
0.0
 10
310.942488
 20
417.094214
 30
0.0
 10
310.839194
 20
417.186822
 30
0.0
  0
SPLINE
  5
1dd
100
AcDbEntity
  8
Layer_1
 62
7
100
AcDbSpline
 70
8
 71
3
 72
8
 73
4
 74
0
 40
0
 40
0
 40
0
 40
0
 40
1
 40
1
 40
1
 40
1
 10
310.839194
 20
417.186822
 30
0.0
 10
310.716170
 20
417.297090
 30
0.0
 10
309.098693
 20
417.307294
 30
0.0
 10
306.270227
 20
417.216019
 30
0.0
  0
LWPOLYLINE
  5
1de
100
AcDbEntity
  8
Layer_1
 62
7
100
AcDbPolyline
 90
5
 70
0
 10
312.123458
 20
410.466246
 30
0.0
 10
310.389194
 20
410.520954
 30
0.0
 10
310.389194
 20
412.298901
 30
0.0
 10
310.389194
 20
414.076904
 30
0.0
 10
311.119398
 20
414.032400
 30
0.0
  0
SPLINE
  5
1df
100
AcDbEntity
  8
Layer_1
 62
7
100
AcDbSpline
 70
8
 71
3
 72
8
 73
4
 74
0
 40
0
 40
0
 40
0
 40
0
 40
1
 40
1
 40
1
 40
1
 10
304.244164
 20
415.670683
 30
0.0
 10
303.969487
 20
414.847899
 30
0.0
 10
303.725650
 20
414.109701
 30
0.0
 10
303.702208
 20
414.030217
 30
0.0
  0
SPLINE
  5
1e0
100
AcDbEntity
  8
Layer_1
 62
7
100
AcDbSpline
 70
8
 71
3
 72
8
 73
4
 74
0
 40
0
 40
0
 40
0
 40
0
 40
1
 40
1
 40
1
 40
1
 10
303.702208
 20
414.030217
 30
0.0
 10
303.662523
 20
413.895288
 30
0.0
 10
303.710712
 20
413.889335
 30
0.0
 10
304.432129
 20
413.940926
 30
0.0
  0
LWPOLYLINE
  5
1e1
100
AcDbEntity
  8
Layer_1
 62
7
100
AcDbPolyline
 90
3
 70
0
 10
306.270227
 20
417.216019
 30
0.0
 10
304.743543
 20
417.166696
 30
0.0
 10
304.244164
 20
415.670683
 30
0.0
  0
SPLINE
  5
1e2
100
AcDbEntity
  8
Layer_1
 62
7
100
AcDbSpline
 70
8
 71
3
 72
8
 73
4
 74
0
 40
0
 40
0
 40
0
 40
0
 40
1
 40
1
 40
1
 40
1
 10
303.981506
 20
410.385798
 30
0.0
 10
302.905559
 20
410.338743
 30
0.0
 10
301.235216
 20
410.215153
 30
0.0
 10
299.308110
 20
410.040567
 30
0.0
  0
LWPOLYLINE
  5
1e3
100
AcDbEntity
  8
Layer_1
 62
7
100
AcDbPolyline
 90
5
 70
0
 10
304.432129
 20
413.940926
 30
0.0
 10
305.204627
 20
413.996202
 30
0.0
 10
305.204627
 20
412.217915
 30
0.0
 10
305.204627
 20
410.439657
 30
0.0
 10
303.981506
 20
410.385798
 30
0.0
  0
SPLINE
  5
1e4
100
AcDbEntity
  8
Layer_1
 62
7
100
AcDbSpline
 70
8
 71
3
 72
8
 73
4
 74
0
 40
0
 40
0
 40
0
 40
0
 40
1
 40
1
 40
1
 40
1
 10
309.877625
 20
420.420161
 30
0.0
 10
309.877625
 20
420.533830
 30
0.0
 10
307.964098
 20
426.628233
 30
0.0
 10
307.907575
 20
426.694876
 30
0.0
  0
SPLINE
  5
1e5
100
AcDbEntity
  8
Layer_1
 62
7
100
AcDbSpline
 70
8
 71
3
 72
8
 73
4
 74
0
 40
0
 40
0
 40
0
 40
0
 40
1
 40
1
 40
1
 40
1
 10
307.907575
 20
426.694876
 30
0.0
 10
307.876394
 20
426.731726
 30
0.0
 10
307.800992
 20
426.604167
 30
0.0
 10
307.740331
 20
426.411694
 30
0.0
  0
SPLINE
  5
1e6
100
AcDbEntity
  8
Layer_1
 62
7
100
AcDbSpline
 70
8
 71
3
 72
8
 73
4
 74
0
 40
0
 40
0
 40
0
 40
0
 40
1
 40
1
 40
1
 40
1
 10
307.740331
 20
426.411694
 30
0.0
 10
307.575921
 20
425.890006
 30
0.0
 10
305.880860
 20
420.666265
 30
0.0
 10
305.822835
 20
420.502224
 30
0.0
  0
SPLINE
  5
1e7
100
AcDbEntity
  8
Layer_1
 62
7
100
AcDbSpline
 70
8
 71
3
 72
8
 73
4
 74
0
 40
0
 40
0
 40
0
 40
0
 40
1
 40
1
 40
1
 40
1
 10
305.822835
 20
420.502224
 30
0.0
 10
305.776063
 20
420.369562
 30
0.0
 10
305.900220
 20
420.360491
 30
0.0
 10
307.825228
 20
420.360491
 30
0.0
  0
SPLINE
  5
1e8
100
AcDbEntity
  8
Layer_1
 62
7
100
AcDbSpline
 70
8
 71
3
 72
8
 73
4
 74
0
 40
0
 40
0
 40
0
 40
0
 40
1
 40
1
 40
1
 40
1
 10
307.825228
 20
420.360491
 30
0.0
 10
308.954069
 20
420.360491
 30
0.0
 10
309.877654
 20
420.386003
 30
0.0
 10
309.877654
 20
420.420019
 30
0.0
  0
LWPOLYLINE
  5
1e9
100
AcDbEntity
  8
Layer_1
 62
7
100
AcDbPolyline
 90
3
 70
0
 10
299.308110
 20
410.040567
 30
0.0
 10
298.705691
 20
409.985858
 30
0.0
 10
298.705294
 20
411.729704
 30
0.0
  0
SPLINE
  5
1ea
100
AcDbEntity
  8
Layer_1
 62
7
100
AcDbSpline
 70
8
 71
3
 72
8
 73
4
 74
0
 40
0
 40
0
 40
0
 40
0
 40
1
 40
1
 40
1
 40
1
 10
248.515552
 20
398.784132
 30
0.0
 10
249.860781
 20
399.633789
 30
0.0
 10
252.387859
 20
401.115798
 30
0.0
 10
254.004832
 20
402.003326
 30
0.0
  0
LWPOLYLINE
  5
1eb
100
AcDbEntity
  8
Layer_1
 62
7
100
AcDbPolyline
 90
2
 70
0
 10
309.877654
 20
420.420019
 30
0.0
 10
309.877625
 20
420.420161
 30
0.0
  0
SPLINE
  5
1ec
100
AcDbEntity
  8
Layer_1
 62
7
100
AcDbSpline
 70
8
 71
3
 72
8
 73
4
 74
0
 40
0
 40
0
 40
0
 40
0
 40
1
 40
1
 40
1
 40
1
 10
255.714032
 20
423.610072
 30
0.0
 10
256.058116
 20
424.065487
 30
0.0
 10
262.353112
 20
427.489398
 30
0.0
 10
265.206512
 20
428.773124
 30
0.0
  0
LWPOLYLINE
  5
1ed
100
AcDbEntity
  8
Layer_1
 62
7
100
AcDbPolyline
 90
5
 70
0
 10
254.004832
 20
402.003326
 30
0.0
 10
255.549373
 20
402.851027
 30
0.0
 10
255.549742
 20
413.122139
 30
0.0
 10
255.550105
 20
423.393222
 30
0.0
 10
255.714032
 20
423.610072
 30
0.0
  0
SPLINE
  5
1ee
100
AcDbEntity
  8
Layer_1
 62
7
100
AcDbSpline
 70
8
 71
3
 72
8
 73
4
 74
0
 40
0
 40
0
 40
0
 40
0
 40
1
 40
1
 40
1
 40
1
 10
265.626386
 20
431.049515
 30
0.0
 10
265.626380
 20
432.197688
 30
0.0
 10
265.609094
 20
433.137146
 30
0.0
 10
265.587749
 20
433.137146
 30
0.0
  0
SPLINE
  5
1ef
100
AcDbEntity
  8
Layer_1
 62
7
100
AcDbSpline
 70
8
 71
3
 72
8
 73
4
 74
0
 40
0
 40
0
 40
0
 40
0
 40
1
 40
1
 40
1
 40
1
 10
265.587749
 20
433.137146
 30
0.0
 10
265.498571
 20
433.137146
 30
0.0
 10
262.924705
 20
431.969528
 30
0.0
 10
261.573659
 20
431.316170
 30
0.0
  0
SPLINE
  5
1f0
100
AcDbEntity
  8
Layer_1
 62
7
100
AcDbSpline
 70
8
 71
3
 72
8
 73
4
 74
0
 40
0
 40
0
 40
0
 40
0
 40
1
 40
1
 40
1
 40
1
 10
261.573659
 20
431.316170
 30
0.0
 10
257.068264
 20
429.137461
 30
0.0
 10
252.699100
 20
426.647679
 30
0.0
 10
248.831348
 20
424.054857
 30
0.0
  0
SPLINE
  5
1f1
100
AcDbEntity
  8
Layer_1
 62
7
100
AcDbSpline
 70
8
 71
3
 72
8
 73
4
 74
0
 40
0
 40
0
 40
0
 40
0
 40
1
 40
1
 40
1
 40
1
 10
248.831348
 20
424.054857
 30
0.0
 10
248.168673
 20
423.610611
 30
0.0
 10
247.535152
 20
423.189014
 30
0.0
 10
247.423524
 20
423.117893
 30
0.0
  0
SPLINE
  5
1f2
100
AcDbEntity
  8
Layer_1
 62
7
100
AcDbSpline
 70
8
 71
3
 72
8
 73
4
 74
0
 40
0
 40
0
 40
0
 40
0
 40
1
 40
1
 40
1
 40
1
 10
247.423524
 20
423.117893
 30
0.0
 10
247.277455
 20
423.024917
 30
0.0
 10
247.230995
 20
422.943279
 30
0.0
 10
247.257811
 20
422.826917
 30
0.0
  0
SPLINE
  5
1f3
100
AcDbEntity
  8
Layer_1
 62
7
100
AcDbSpline
 70
8
 71
3
 72
8
 73
4
 74
0
 40
0
 40
0
 40
0
 40
0
 40
1
 40
1
 40
1
 40
1
 10
247.257811
 20
422.826917
 30
0.0
 10
247.278220
 20
422.737909
 30
0.0
 10
248.264138
 20
420.323414
 30
0.0
 10
249.448569
 20
417.461187
 30
0.0
  0
LWPOLYLINE
  5
1f4
100
AcDbEntity
  8
Layer_1
 62
7
100
AcDbPolyline
 90
3
 70
0
 10
265.206512
 20
428.773124
 30
0.0
 10
265.626386
 20
428.961912
 30
0.0
 10
265.626386
 20
431.049515
 30
0.0
  0
SPLINE
  5
1f5
100
AcDbEntity
  8
Layer_1
 62
7
100
AcDbSpline
 70
8
 71
3
 72
8
 73
4
 74
0
 40
0
 40
0
 40
0
 40
0
 40
1
 40
1
 40
1
 40
1
 10
249.659232
 20
405.371991
 30
0.0
 10
248.590661
 20
401.585159
 30
0.0
 10
247.700854
 20
398.441310
 30
0.0
 10
247.681877
 20
398.385694
 30
0.0
  0
SPLINE
  5
1f6
100
AcDbEntity
  8
Layer_1
 62
7
100
AcDbSpline
 70
8
 71
3
 72
8
 73
4
 74
0
 40
0
 40
0
 40
0
 40
0
 40
1
 40
1
 40
1
 40
1
 10
247.681877
 20
398.385694
 30
0.0
 10
247.662884
 20
398.330135
 30
0.0
 10
247.664869
 20
398.284781
 30
0.0
 10
247.686129
 20
398.284781
 30
0.0
  0
SPLINE
  5
1f7
100
AcDbEntity
  8
Layer_1
 62
7
100
AcDbSpline
 70
8
 71
3
 72
8
 73
4
 74
0
 40
0
 40
0
 40
0
 40
0
 40
1
 40
1
 40
1
 40
1
 10
247.686129
 20
398.284781
 30
0.0
 10
247.707388
 20
398.284781
 30
0.0
 10
248.080686
 20
398.509569
 30
0.0
 10
248.515438
 20
398.784047
 30
0.0
  0
LWPOLYLINE
  5
1f8
100
AcDbEntity
  8
Layer_1
 62
7
100
AcDbPolyline
 90
3
 70
0
 10
249.448569
 20
417.461187
 30
0.0
 10
251.602078
 20
412.257175
 30
0.0
 10
249.659232
 20
405.371991
 30
0.0
  0
SPLINE
  5
1f9
100
AcDbEntity
  8
Layer_1
 62
7
100
AcDbSpline
 70
8
 71
3
 72
8
 73
4
 74
0
 40
0
 40
0
 40
0
 40
0
 40
1
 40
1
 40
1
 40
1
 10
370.963134
 20
398.871156
 30
0.0
 10
370.872992
 20
399.193625
 30
0.0
 10
369.986372
 20
402.337389
 30
0.0
 10
368.992942
 20
405.857339
 30
0.0
  0
LWPOLYLINE
  5
1fa
100
AcDbEntity
  8
Layer_1
 62
7
100
AcDbPolyline
 90
2
 70
0
 10
248.515438
 20
398.784047
 30
0.0
 10
248.515552
 20
398.784132
 30
0.0
  0
SPLINE
  5
1fb
100
AcDbEntity
  8
Layer_1
 62
7
100
AcDbSpline
 70
8
 71
3
 72
8
 73
4
 74
0
 40
0
 40
0
 40
0
 40
0
 40
1
 40
1
 40
1
 40
1
 10
369.383981
 20
417.579619
 30
0.0
 10
371.135112
 20
421.821213
 30
0.0
 10
371.562746
 20
422.922104
 30
0.0
 10
371.489924
 20
423.000879
 30
0.0
  0
SPLINE
  5
1fc
100
AcDbEntity
  8
Layer_1
 62
7
100
AcDbSpline
 70
8
 71
3
 72
8
 73
4
 74
0
 40
0
 40
0
 40
0
 40
0
 40
1
 40
1
 40
1
 40
1
 10
371.489924
 20
423.000879
 30
0.0
 10
371.327216
 20
423.176910
 30
0.0
 10
368.597877
 20
424.968661
 30
0.0
 10
366.798161
 20
426.081033
 30
0.0
  0
SPLINE
  5
1fd
100
AcDbEntity
  8
Layer_1
 62
7
100
AcDbSpline
 70
8
 71
3
 72
8
 73
4
 74
0
 40
0
 40
0
 40
0
 40
0
 40
1
 40
1
 40
1
 40
1
 10
366.798161
 20
426.081033
 30
0.0
 10
364.592920
 20
427.444044
 30
0.0
 10
360.545669
 20
429.683131
 30
0.0
 10
358.245326
 20
430.812794
 30
0.0
  0
SPLINE
  5
1fe
100
AcDbEntity
  8
Layer_1
 62
7
100
AcDbSpline
 70
8
 71
3
 72
8
 73
4
 74
0
 40
0
 40
0
 40
0
 40
0
 40
1
 40
1
 40
1
 40
1
 10
358.245326
 20
430.812794
 30
0.0
 10
356.608035
 20
431.616869
 30
0.0
 10
353.720580
 20
432.958819
 30
0.0
 10
353.343883
 20
433.090772
 30
0.0
  0
LWPOLYLINE
  5
1ff
100
AcDbEntity
  8
Layer_1
 62
7
100
AcDbPolyline
 90
3
 70
0
 10
368.992942
 20
405.857339
 30
0.0
 10
367.186677
 20
412.257232
 30
0.0
 10
369.383981
 20
417.579619
 30
0.0
  0
SPLINE
  5
200
100
AcDbEntity
  8
Layer_1
 62
7
100
AcDbSpline
 70
8
 71
3
 72
8
 73
4
 74
0
 40
0
 40
0
 40
0
 40
0
 40
1
 40
1
 40
1
 40
1
 10
353.380167
 20
428.870608
 30
0.0
 10
354.739323
 20
428.344101
 30
0.0
 10
362.660882
 20
424.097093
 30
0.0
 10
363.019039
 20
423.702879
 30
0.0
  0
LWPOLYLINE
  5
201
100
AcDbEntity
  8
Layer_1
 62
7
100
AcDbPolyline
 90
5
 70
0
 10
353.343883
 20
433.090772
 30
0.0
 10
353.179474
 20
433.148315
 30
0.0
 10
353.179474
 20
431.048296
 30
0.0
 10
353.179474
 20
428.948277
 30
0.0
 10
353.380167
 20
428.870608
 30
0.0
  0
SPLINE
  5
202
100
AcDbEntity
  8
Layer_1
 62
7
100
AcDbSpline
 70
8
 71
3
 72
8
 73
4
 74
0
 40
0
 40
0
 40
0
 40
0
 40
1
 40
1
 40
1
 40
1
 10
364.879814
 20
401.954995
 30
0.0
 10
366.654444
 20
400.971657
 30
0.0
 10
368.962724
 20
399.611792
 30
0.0
 10
370.266576
 20
398.781524
 30
0.0
  0
SPLINE
  5
203
100
AcDbEntity
  8
Layer_1
 62
7
100
AcDbSpline
 70
8
 71
3
 72
8
 73
4
 74
0
 40
0
 40
0
 40
0
 40
0
 40
1
 40
1
 40
1
 40
1
 10
370.266576
 20
398.781524
 30
0.0
 10
370.688287
 20
398.513083
 30
0.0
 10
371.054381
 20
398.291414
 30
0.0
 10
371.080148
 20
398.289146
 30
0.0
  0
SPLINE
  5
204
100
AcDbEntity
  8
Layer_1
 62
7
100
AcDbSpline
 70
8
 71
3
 72
8
 73
4
 74
0
 40
0
 40
0
 40
0
 40
0
 40
1
 40
1
 40
1
 40
1
 10
371.080148
 20
398.289146
 30
0.0
 10
371.105660
 20
398.286935
 30
0.0
 10
371.051802
 20
398.548800
 30
0.0
 10
370.963077
 20
398.871269
 30
0.0
  0
LWPOLYLINE
  5
205
100
AcDbEntity
  8
Layer_1
 62
7
100
AcDbPolyline
 90
5
 70
0
 10
363.019039
 20
423.702879
 30
0.0
 10
363.183449
 20
423.522028
 30
0.0
 10
363.183449
 20
413.208454
 30
0.0
 10
363.183449
 20
402.894935
 30
0.0
 10
364.879814
 20
401.954995
 30
0.0
  0
LWPOLYLINE
  5
206
100
AcDbEntity
  8
Layer_1
 62
7
100
AcDbPolyline
 90
2
 70
0
 10
370.963077
 20
398.871269
 30
0.0
 10
370.963134
 20
398.871156
 30
0.0
  0
ENDSEC
  0
SECTION
  2
OBJECTS
  0
DICTIONARY
  5
C
330
0
100
AcDbDictionary
  3
ACAD_GROUP
350
D
  3
ACAD_MLINESTYLE
350
17
  0
DICTIONARY
  5
D
330
C
100
AcDbDictionary
  0
DICTIONARY
  5
1A
330
C
100
AcDbDictionary
  0
DICTIONARY
  5
17
330
C
100
AcDbDictionary
  3
STANDARD
350
18
  0
DICTIONARY
  5
19
330
C
100
AcDbDictionary
  0
ENDSEC
  0
EOF
