%
T1C0.0320F200S100
X-173000Y063250
X-169250Y049500
X-166750Y066000
X-164750Y051000
X-162000Y038000
X-156750Y057250
X-156000Y039250
X-154000Y058750
X-153250Y059500
X-153000Y058000
X-151000Y048000
X-151000Y052000
X-150750Y066250
X-150000Y051250
X-150000Y057000
X-149250Y041000
X-149000Y050500
X-148000Y055000
X-149000Y055750
X-147000Y052000
X-146500Y049250
X-147000Y056500
X-146250Y060250
X-144000Y037250
X-144000Y043000
X-142000Y036500
X-141250Y042000
X-141250Y047500
X-142000Y057000
X-140750Y061000
X-140500Y046750
X-139000Y055000
X-138750Y056500
X-138250Y046500
X-138000Y058250
X-136750Y054250
X-135500Y055750
X-135250Y044250
X-134250Y051750
X-134250Y054750
X-133750Y057500
X-133750Y060500
X-133250Y048250
X-133000Y057000
X-132000Y060500
X-131750Y052250
X-131500Y042750
X-131250Y053750
X-131250Y055250
X-131000Y057500
X-130250Y050250
X-130000Y055500
X-129000Y047750
X-128750Y050500
X-128750Y052500
X-128750Y053500
X-129000Y058750
X-128000Y058750
X-127000Y034500
X-126500Y050250
X-126500Y051250
X-126000Y043500
X-125750Y049500
X-125250Y048750
X-125750Y056000
X-125000Y050000
X-125000Y056750
X-124750Y061000
X-124250Y057750
X-123500Y058250
X-122750Y050750
X-122750Y057000
X-122500Y058000
X-121500Y049750
X-121250Y056750
X-120000Y044000
X-119750Y057500
X-118750Y043000
X-118750Y053250
X-118000Y027000
X-118000Y041000
X-118000Y061000
X-117250Y034750
X-117000Y044750
X-117250Y050250
X-116500Y054000
X-116250Y033500
X-115750Y032750
X-115250Y031250
X-115750Y041000
X-114750Y040250
X-114250Y057500
X-113750Y031750
X-113250Y033250
X-113000Y030500
X-112750Y027000
X-112500Y029750
X-111000Y042750
X-110250Y036500
X-110250Y041500
X-110000Y031000
X-109750Y039750
X-109000Y027000
X-108750Y032500
X-108250Y040250
X-108000Y060750
X-107250Y040250
X-107000Y064500
X-106750Y032750
X-105500Y031500
X-104500Y026250
X-104250Y033250
X-103750Y036000
X-103250Y043000
X-102750Y036500
X-102500Y042500
X-102250Y033750
X-102000Y041000
X-101250Y059750
X-101000Y031000
X-101000Y032500
X-100750Y046250
X-101000Y066250
X-100500Y060750
X-100250Y033250
X-100000Y065500
X-099750Y061750
X-099500Y048000
X-099000Y041750
X-098500Y063500
X-096500Y058750
X-093000Y061000
X-089250Y051250
X-086000Y053500
X-083250Y055000
X-082250Y056500
X-081500Y036250
X-079000Y032000
X-079000Y036000
X-077750Y037250
X-079000Y048000
X-077000Y056250
X-075000Y038000
X-073250Y059750
X-072250Y045250
X-070000Y056500
X-066250Y059000
X-065500Y053000
X-062750Y050750
X-062750Y061000
X-061750Y048000
T2C0.0340F200S100
X-115000Y047000
X-114000Y047000
X-114000Y053000
X-115000Y053000
X-113000Y047000
X-112000Y047000
X-112000Y053000
X-113000Y053000
X-111000Y047000
X-110000Y047000
X-110000Y053000
X-111000Y053000
X-109000Y047000
X-108000Y047000
X-108000Y053000
X-109000Y053000
X-107000Y047000
X-106000Y047000
X-106000Y053000
X-107000Y053000
X-105000Y047000
X-104000Y047000
X-104000Y053000
X-105000Y053000
X-103000Y047000
X-102000Y047000
X-102000Y053000
X-103000Y053000
X-079000Y029000
X-079000Y030000
X-079000Y038000
X-079000Y039000
T4C0.0590F200S100
X-172880Y062096
X-172880Y064596
X-172880Y067096
X-168380Y062096
X-168380Y064596
X-168380Y067096
X-165880Y062096
X-165880Y064596
X-165880Y067096
X-161380Y062096
X-161380Y064596
X-161380Y067096
X-156880Y062096
X-156880Y064596
X-156880Y067096
X-152380Y062096
X-152380Y064596
X-152380Y067096
X-149880Y062096
X-149880Y064596
X-149880Y067096
X-145380Y062096
X-145380Y064596
X-145380Y067096
X-140880Y062096
X-140880Y064596
X-140880Y067096
X-136380Y062096
X-136380Y064596
X-136380Y067096
X-133880Y062096
X-133880Y064596
X-133880Y067096
X-129380Y062096
X-129380Y064596
X-129380Y067096
X-124880Y062096
X-124880Y064596
X-124880Y067096
X-120380Y062096
X-120380Y064596
X-120380Y067096
X-117880Y062096
X-117880Y064596
X-117880Y067096
X-113380Y062096
X-113380Y064596
X-113380Y067096
X-108880Y062096
X-108880Y064596
X-108880Y067096
X-104380Y062096
X-104380Y064596
X-104380Y067096
X-101880Y062096
X-101880Y064596
X-101880Y067096
X-097380Y062096
X-097380Y064596
X-097380Y067096
X-092880Y062096
X-092880Y064596
X-092880Y067096
X-088380Y062096
X-088380Y064596
X-088380Y067096
X-085880Y062096
X-085880Y064596
X-085880Y067096
X-081380Y062096
X-081380Y064596
X-081380Y067096
X-076880Y062096
X-076880Y064596
X-076880Y067096
X-072380Y062096
X-072380Y064596
X-072380Y067096
X-069880Y062096
X-069880Y064596
X-069880Y067096
X-066870Y038154
X-066870Y042653
X-066870Y045154
X-066870Y049653
X-066870Y052154
X-066870Y056653
X-065380Y062096
X-065380Y064596
X-065380Y067096
X-064370Y038154
X-064370Y042653
X-064370Y045154
X-064370Y049653
X-064370Y052154
X-064370Y056653
X-061870Y038154
X-061870Y042653
X-061870Y045154
X-061870Y049653
X-061870Y052154
X-061870Y056653
T3C0.0370F200S100
X-164000Y034000
X-164000Y035000
X-163000Y034000
X-163000Y035000
X-163000Y053000
X-164000Y053000
X-164000Y054000
X-163000Y054000
X-162000Y034000
X-162000Y035000
X-161000Y034000
X-161000Y035000
X-161000Y053000
X-162000Y053000
X-162000Y054000
X-161000Y054000
X-160000Y034000
X-160000Y035000
X-159000Y034000
X-159000Y035000
X-159000Y053000
X-160000Y053000
X-160000Y054000
X-159000Y054000
X-158000Y034000
X-158000Y035000
X-157000Y034000
X-157000Y035000
X-157000Y053000
X-158000Y053000
X-158000Y054000
X-157000Y054000
X-156000Y034000
X-156000Y035000
X-155000Y034000
X-155000Y035000
X-155000Y053000
X-156000Y053000
X-156000Y054000
X-155000Y054000
X-154000Y034000
X-154000Y035000
X-153000Y034000
X-153000Y035000
X-153000Y053000
X-154000Y053000
X-154000Y054000
X-153000Y054000
X-152000Y034000
X-152000Y035000
X-151000Y034000
X-151000Y035000
X-151000Y053000
X-152000Y053000
X-152000Y054000
X-151000Y054000
X-150000Y034000
X-150000Y035000
X-149000Y034000
X-149000Y035000
X-149000Y053000
X-150000Y053000
X-150000Y054000
X-149000Y054000
X-148000Y034000
X-148000Y035000
X-147000Y034000
X-147000Y035000
X-147000Y053000
X-148000Y053000
X-148000Y054000
X-147000Y054000
X-146000Y034000
X-146000Y035000
X-145000Y034000
X-145000Y035000
X-145000Y053000
X-146000Y053000
X-146000Y054000
X-145000Y054000
X-144000Y034000
X-144000Y035000
X-143000Y034000
X-143000Y035000
X-143000Y053000
X-144000Y053000
X-144000Y054000
X-143000Y054000
X-142000Y034000
X-142000Y035000
X-142000Y053000
X-142000Y054000
X-115000Y028000
X-115000Y029000
X-114000Y028000
X-114000Y029000
X-113000Y028000
X-113000Y029000
X-112000Y028000
X-112000Y029000
X-111000Y028000
X-111000Y029000
X-110000Y028000
X-110000Y029000
X-109000Y028000
X-109000Y029000
X-108000Y028000
X-108000Y029000
X-107000Y028000
X-107000Y029000
X-106000Y028000
X-106000Y029000
X-105000Y028000
X-105000Y029000
X-104000Y028000
X-104000Y029000
X-103000Y028000
X-103000Y029000
T7C0.1181F200S100
X-065362Y033000
X-064181Y034968
X-063000Y033000
T5C0.1000F200S100
X-165875Y035700
X-165875Y052300
X-140125Y034500
X-140125Y053500
T6C0.1100F200S100
X-172000Y027000
X-172000Y057000
X-062000Y027000
X-062000Y068000
M30
