%
T1C0.0280F200S100
X-176000Y061750
X-174750Y054750
X-171750Y045000
X-171250Y046750
X-170250Y034500
X-169000Y061750
X-168250Y045750
X-167750Y055750
X-160000Y061750
X-157000Y057250
X-156500Y029750
X-154500Y038250
X-156500Y055500
X-153000Y061750
X-152500Y056000
X-150500Y028750
X-148500Y033750
X-148250Y052000
X-147750Y033250
X-147750Y045500
X-147500Y029750
X-146000Y037250
X-147500Y042500
X-147500Y059250
X-145750Y044750
X-145750Y053500
X-145000Y061000
X-144500Y044000
X-144000Y046750
X-144000Y061750
X-143500Y060750
X-139250Y047500
X-137750Y052500
X-137250Y032750
X-137250Y053000
X-137000Y060750
X-136750Y037250
X-136750Y039500
X-136750Y055500
X-136500Y036500
X-136000Y040250
X-135250Y031750
X-134500Y031750
X-134500Y037500
X-134000Y030250
X-133500Y035750
X-133000Y035250
X-132750Y031750
X-132000Y039000
X-131250Y031750
X-131000Y048000
X-129500Y035750
X-129000Y059250
X-128250Y032750
X-128000Y060750
X-126000Y043000
X-124750Y037750
X-124250Y039750
X-122000Y038500
X-122000Y041750
X-121750Y046000
X-121750Y059250
X-121500Y042250
X-121000Y060750
X-118750Y031500
X-115750Y039750
X-115750Y040750
X-115250Y037750
X-114500Y041750
X-114500Y043000
X-115250Y043000
X-114000Y040250
X-113250Y040250
X-114000Y052500
X-112750Y029500
X-112500Y036750
X-112750Y039750
X-112250Y030500
X-112000Y060750
X-111250Y030000
X-110750Y031000
X-111250Y044000
X-108000Y051500
X-107000Y058500
X-106000Y064000
X-105250Y033250
X-105000Y059250
X-104750Y034000
X-104500Y060875
X-104000Y063500
X-103500Y063000
X-103250Y055000
X-102500Y033250
X-102000Y054000
X-102500Y055000
X-102000Y061500
X-101500Y054500
X-101000Y042000
X-100500Y048000
X-099750Y034000
X-099750Y044250
X-099000Y045000
X-098750Y046500
X-098000Y053500
X-097500Y034750
X-096500Y060750
X-096250Y061500
X-094750Y063500
X-092500Y045750
X-091250Y052250
X-090500Y046000
X-090250Y049000
X-090000Y043000
X-089500Y058500
X-089000Y050000
X-089000Y059250
X-089000Y062000
X-087250Y038500
X-087000Y040250
X-086500Y032250
X-085750Y046000
X-084000Y055000
X-082750Y039250
X-080500Y058250
X-079500Y062250
X-078500Y035000
X-077000Y032000
X-077000Y049000
X-076250Y047500
X-075250Y050000
X-075000Y029750
X-074750Y051500
X-074000Y035000
X-073500Y054250
X-072250Y061250
X-071750Y063250
X-069250Y037000
T2C0.0340F200S100
X-136000Y045000
X-135000Y045000
X-135000Y051000
X-136000Y051000
X-134000Y045000
X-133000Y045000
X-133000Y051000
X-134000Y051000
X-132000Y045000
X-131000Y045000
X-131000Y051000
X-132000Y051000
X-130000Y045000
X-129000Y045000
X-129000Y051000
X-130000Y051000
X-128000Y045000
X-127000Y045000
X-127000Y051000
X-128000Y051000
X-126000Y045000
X-125000Y045000
X-125000Y051000
X-126000Y051000
X-124000Y045000
X-123000Y045000
X-123000Y051000
X-124000Y051000
X-089000Y031500
X-088000Y031500
X-088000Y035000
X-089000Y035000
T4C0.0590F200S100
X-178380Y060096
X-178380Y062596
X-178380Y065096
X-173880Y060096
X-173880Y062596
X-173880Y065096
X-171380Y060096
X-171380Y062596
X-171380Y065096
X-166880Y060096
X-166880Y062596
X-166880Y065096
X-162153Y060130
X-162153Y062630
X-162153Y065130
X-157654Y060130
X-157654Y062630
X-157654Y065130
X-155153Y060130
X-155153Y062630
X-155153Y065130
X-150654Y060130
X-150654Y062630
X-150654Y065130
X-146380Y060096
X-146380Y062596
X-146380Y065096
X-141880Y060096
X-141880Y062596
X-141880Y065096
X-139380Y060096
X-139380Y062596
X-139380Y065096
X-134880Y060096
X-134880Y062596
X-134880Y065096
X-130380Y060096
X-130380Y062596
X-130380Y065096
X-125880Y060096
X-125880Y062596
X-125880Y065096
X-123380Y060096
X-123380Y062596
X-123380Y065096
X-118880Y060096
X-118880Y062596
X-118880Y065096
X-114153Y060130
X-114153Y062630
X-114153Y065130
X-109654Y060130
X-109654Y062630
X-109654Y065130
X-107153Y060130
X-107153Y062630
X-107153Y065130
X-102654Y060130
X-102654Y062630
X-102654Y065130
X-098153Y060130
X-098153Y062630
X-098153Y065130
X-093654Y060130
X-093654Y062630
X-093654Y065130
X-091153Y060130
X-091153Y062630
X-091153Y065130
X-086654Y060130
X-086654Y062630
X-086654Y065130
X-082380Y060096
X-082380Y062596
X-082380Y065096
X-077880Y060096
X-077880Y062596
X-077880Y065096
X-075370Y033654
X-075370Y038153
X-075370Y041154
X-075370Y045653
X-075370Y048654
X-075370Y053153
X-075153Y060130
X-075153Y062630
X-075153Y065130
X-072870Y033654
X-072870Y038153
X-072870Y041154
X-072870Y045653
X-072870Y048654
X-072870Y053153
X-070654Y060130
X-070654Y062630
X-070654Y065130
X-070370Y033654
X-070370Y038153
X-070370Y041154
X-070370Y045653
X-070370Y048654
X-070370Y053153
T3C0.0370F200S100
X-170500Y031000
X-170500Y032000
X-169500Y031000
X-169500Y032000
X-169500Y050000
X-170500Y050000
X-170500Y051000
X-169500Y051000
X-168500Y031000
X-168500Y032000
X-167500Y031000
X-167500Y032000
X-167500Y050000
X-168500Y050000
X-168500Y051000
X-167500Y051000
X-166500Y031000
X-166500Y032000
X-165500Y031000
X-165500Y032000
X-165500Y050000
X-166500Y050000
X-166500Y051000
X-165500Y051000
X-164500Y031000
X-164500Y032000
X-163500Y031000
X-163500Y032000
X-163500Y050000
X-164500Y050000
X-164500Y051000
X-163500Y051000
X-162500Y031000
X-162500Y032000
X-161500Y031000
X-161500Y032000
X-161500Y050000
X-162500Y050000
X-162500Y051000
X-161500Y051000
X-160500Y031000
X-160500Y032000
X-159500Y031000
X-159500Y032000
X-159500Y050000
X-160500Y050000
X-160500Y051000
X-159500Y051000
X-158500Y031000
X-158500Y032000
X-157500Y031000
X-157500Y032000
X-157500Y050000
X-158500Y050000
X-158500Y051000
X-157500Y051000
X-156500Y031000
X-156500Y032000
X-155500Y031000
X-155500Y032000
X-155500Y050000
X-156500Y050000
X-156500Y051000
X-155500Y051000
X-154500Y031000
X-154500Y032000
X-153500Y031000
X-153500Y032000
X-153500Y050000
X-154500Y050000
X-154500Y051000
X-153500Y051000
X-152500Y031000
X-152500Y032000
X-151500Y031000
X-151500Y032000
X-151500Y050000
X-152500Y050000
X-152500Y051000
X-151500Y051000
X-150500Y031000
X-150500Y032000
X-149500Y031000
X-149500Y032000
X-149500Y050000
X-150500Y050000
X-150500Y051000
X-149500Y051000
X-148500Y031000
X-148500Y032000
X-148500Y050000
X-148500Y051000
X-125500Y033500
X-125500Y034500
X-124500Y033500
X-124500Y034500
X-123500Y033500
X-123500Y034500
X-122500Y033500
X-122500Y034500
X-121500Y033500
X-121500Y034500
X-120500Y033500
X-120500Y034500
X-119500Y033500
X-119500Y034500
X-118500Y033500
X-118500Y034500
X-117500Y033500
X-117500Y034500
X-116500Y033500
X-116500Y034500
X-115500Y033500
X-115500Y034500
X-114500Y033500
X-114500Y034500
X-113500Y033500
X-113500Y034500
T6C0.1181F200S100
X-073862Y027500
X-072681Y029468
X-071500Y027500
T5C0.1000F200S100
X-172375Y032700
X-172375Y049300
X-146625Y031500
X-146625Y050500
T7C0.1900F200S100
X-176500Y027000
X-176500Y052000
X-088000Y027000
X-081500Y052000
M30
