 0
SECTION
 2
HEADER
 9
$ACADVER
 1
AC1009
 0
ENDSEC
 0
SECTION
 2
ENTITIES
 0
POLYLINE
 8
TITLE
 66
1
 70
1
 10
0.0
 20
0.0
 30
0.0
 0
VERTEX
 8
TITLE
 10
 -0.1000
 20
  0.1000
 30
0.0
 0
VERTEX
 8
TITLE
 10
  9.6000
 20
  0.1000
 30
0.0
 0
VERTEX
 8
TITLE
 10
  9.6000
 20
  7.3000
 30
0.0
 0
VERTEX
 8
TITLE
 10
 -0.1000
 20
  7.3000
 30
0.0
 0
SEQEND
 8
TITLE
 0
POLYLINE
 8
TITLE
 66
1
 70
1
 10
0.0
 20
0.0
 30
0.0
 0
VERTEX
 8
TITLE
 10
  0.0000
 20
  0.2000
 30
0.0
 0
VERTEX
 8
TITLE
 10
  9.5000
 20
  0.2000
 30
0.0
 0
VERTEX
 8
TITLE
 10
  9.5000
 20
  7.2000
 30
0.0
 0
VERTEX
 8
TITLE
 10
  0.0000
 20
  7.2000
 30
0.0
 0
SEQEND
 8
TITLE
 0
POLYLINE
 8
TITLE
 66
1
 10
0.0
 20
0.0
 30
0.0
 0
VERTEX
 8
TITLE
 10
  2.0600
 20
  0.2000
 30
0.0
 0
VERTEX
 8
TITLE
 10
  2.0600
 20
  0.1000
 30
0.0
 0
SEQEND
 8
TITLE
 0
POLYLINE
 8
TITLE
 66
1
 10
0.0
 20
0.0
 30
0.0
 0
VERTEX
 8
TITLE
 10
  2.0600
 20
  7.2000
 30
0.0
 0
VERTEX
 8
TITLE
 10
  2.0600
 20
  7.3000
 30
0.0
 0
SEQEND
 8
TITLE
 0
POLYLINE
 8
TITLE
 66
1
 10
0.0
 20
0.0
 30
0.0
 0
VERTEX
 8
TITLE
 10
  3.9200
 20
  0.2000
 30
0.0
 0
VERTEX
 8
TITLE
 10
  3.9200
 20
  0.1000
 30
0.0
 0
SEQEND
 8
TITLE
 0
POLYLINE
 8
TITLE
 66
1
 10
0.0
 20
0.0
 30
0.0
 0
VERTEX
 8
TITLE
 10
  3.9200
 20
  7.2000
 30
0.0
 0
VERTEX
 8
TITLE
 10
  3.9200
 20
  7.3000
 30
0.0
 0
SEQEND
 8
TITLE
 0
POLYLINE
 8
TITLE
 66
1
 10
0.0
 20
0.0
 30
0.0
 0
VERTEX
 8
TITLE
 10
  5.7800
 20
  0.2000
 30
0.0
 0
VERTEX
 8
TITLE
 10
  5.7800
 20
  0.1000
 30
0.0
 0
SEQEND
 8
TITLE
 0
POLYLINE
 8
TITLE
 66
1
 10
0.0
 20
0.0
 30
0.0
 0
VERTEX
 8
TITLE
 10
  5.7800
 20
  7.2000
 30
0.0
 0
VERTEX
 8
TITLE
 10
  5.7800
 20
  7.3000
 30
0.0
 0
SEQEND
 8
TITLE
 0
POLYLINE
 8
TITLE
 66
1
 10
0.0
 20
0.0
 30
0.0
 0
VERTEX
 8
TITLE
 10
  7.6400
 20
  0.2000
 30
0.0
 0
VERTEX
 8
TITLE
 10
  7.6400
 20
  0.1000
 30
0.0
 0
SEQEND
 8
TITLE
 0
POLYLINE
 8
TITLE
 66
1
 10
0.0
 20
0.0
 30
0.0
 0
VERTEX
 8
TITLE
 10
  7.6400
 20
  7.2000
 30
0.0
 0
VERTEX
 8
TITLE
 10
  7.6400
 20
  7.3000
 30
0.0
 0
SEQEND
 8
TITLE
 0
TEXT
 8
TITLE
 10
  1.1300
 20
  0.1200
 30
0.0
 40
  0.0500
 1
5
 0
TEXT
 8
TITLE
 10
  1.1300
 20
  7.2200
 30
0.0
 40
  0.0500
 1
5
 0
TEXT
 8
TITLE
 10
  2.9900
 20
  0.1200
 30
0.0
 40
  0.0500
 1
4
 0
TEXT
 8
TITLE
 10
  2.9900
 20
  7.2200
 30
0.0
 40
  0.0500
 1
4
 0
TEXT
 8
TITLE
 10
  4.8500
 20
  0.1200
 30
0.0
 40
  0.0500
 1
3
 0
TEXT
 8
TITLE
 10
  4.8500
 20
  7.2200
 30
0.0
 40
  0.0500
 1
3
 0
TEXT
 8
TITLE
 10
  6.7100
 20
  0.1200
 30
0.0
 40
  0.0500
 1
2
 0
TEXT
 8
TITLE
 10
  6.7100
 20
  7.2200
 30
0.0
 40
  0.0500
 1
2
 0
TEXT
 8
TITLE
 10
  8.5700
 20
  0.1200
 30
0.0
 40
  0.0500
 1
1
 0
TEXT
 8
TITLE
 10
  8.5700
 20
  7.2200
 30
0.0
 40
  0.0500
 1
1
 0
POLYLINE
 8
TITLE
 66
1
 10
0.0
 20
0.0
 30
0.0
 0
VERTEX
 8
TITLE
 10
 -0.1000
 20
  5.3000
 30
0.0
 0
VERTEX
 8
TITLE
 10
  0.0000
 20
  5.3000
 30
0.0
 0
SEQEND
 8
TITLE
 0
POLYLINE
 8
TITLE
 66
1
 10
0.0
 20
0.0
 30
0.0
 0
VERTEX
 8
TITLE
 10
  9.5000
 20
  5.3000
 30
0.0
 0
VERTEX
 8
TITLE
 10
  9.6000
 20
  5.3000
 30
0.0
 0
SEQEND
 8
TITLE
 0
SOLID
 8
TITLE
 10
  0.0000
 20
  3.6000
 30
0.0
 11
 -0.0500
 21
  3.6200
 31
0.0
 12
 -0.0500
 22
  3.5800
 32
0.0
 13
 -0.0500
 23
  3.6000
 33
0.0
 0
SOLID
 8
TITLE
 10
  9.5000
 20
  3.6000
 30
0.0
 11
  9.5500
 21
  3.6200
 31
0.0
 12
  9.5500
 22
  3.5800
 32
0.0
 13
  9.5500
 23
  3.6000
 33
0.0
 0
POLYLINE
 8
TITLE
 66
1
 10
0.0
 20
0.0
 30
0.0
 0
VERTEX
 8
TITLE
 10
 -0.1000
 20
  3.6000
 30
0.0
 0
VERTEX
 8
TITLE
 10
  0.0000
 20
  3.6000
 30
0.0
 0
SEQEND
 8
TITLE
 0
POLYLINE
 8
TITLE
 66
1
 10
0.0
 20
0.0
 30
0.0
 0
VERTEX
 8
TITLE
 10
  9.5000
 20
  3.6000
 30
0.0
 0
VERTEX
 8
TITLE
 10
  9.6000
 20
  3.6000
 30
0.0
 0
SEQEND
 8
TITLE
 0
SOLID
 8
TITLE
 10
  0.0000
 20
  3.6000
 30
0.0
 11
 -0.0500
 21
  3.6200
 31
0.0
 12
 -0.0500
 22
  3.5800
 32
0.0
 13
 -0.0500
 23
  3.6000
 33
0.0
 0
SOLID
 8
TITLE
 10
  9.5000
 20
  3.6000
 30
0.0
 11
  9.5500
 21
  3.6200
 31
0.0
 12
  9.5500
 22
  3.5800
 32
0.0
 13
  9.5500
 23
  3.6000
 33
0.0
 0
POLYLINE
 8
TITLE
 66
1
 10
0.0
 20
0.0
 30
0.0
 0
VERTEX
 8
TITLE
 10
 -0.1000
 20
  1.9000
 30
0.0
 0
VERTEX
 8
TITLE
 10
  0.0000
 20
  1.9000
 30
0.0
 0
SEQEND
 8
TITLE
 0
POLYLINE
 8
TITLE
 66
1
 10
0.0
 20
0.0
 30
0.0
 0
VERTEX
 8
TITLE
 10
  9.5000
 20
  1.9000
 30
0.0
 0
VERTEX
 8
TITLE
 10
  9.6000
 20
  1.9000
 30
0.0
 0
SEQEND
 8
TITLE
 0
SOLID
 8
TITLE
 10
  0.0000
 20
  3.6000
 30
0.0
 11
 -0.0500
 21
  3.6200
 31
0.0
 12
 -0.0500
 22
  3.5800
 32
0.0
 13
 -0.0500
 23
  3.6000
 33
0.0
 0
SOLID
 8
TITLE
 10
  9.5000
 20
  3.6000
 30
0.0
 11
  9.5500
 21
  3.6200
 31
0.0
 12
  9.5500
 22
  3.5800
 32
0.0
 13
  9.5500
 23
  3.6000
 33
0.0
 0
TEXT
 8
TITLE
 10
 -0.0800
 20
  6.1500
 30
0.0
 40
  0.0500
 1
D
 0
TEXT
 8
TITLE
 10
  9.5200
 20
  6.1500
 30
0.0
 40
  0.0500
 1
D
 0
TEXT
 8
TITLE
 10
 -0.0800
 20
  4.4500
 30
0.0
 40
  0.0500
 1
C
 0
TEXT
 8
TITLE
 10
  9.5200
 20
  4.4500
 30
0.0
 40
  0.0500
 1
C
 0
TEXT
 8
TITLE
 10
 -0.0800
 20
  2.7500
 30
0.0
 40
  0.0500
 1
B
 0
TEXT
 8
TITLE
 10
  9.5200
 20
  2.7500
 30
0.0
 40
  0.0500
 1
B
 0
TEXT
 8
TITLE
 10
 -0.0800
 20
  1.0500
 30
0.0
 40
  0.0500
 1
A
 0
TEXT
 8
TITLE
 10
  9.5200
 20
  1.0500
 30
0.0
 40
  0.0500
 1
A
 0
TEXT
 8
TITLE
 10
  6.3000
 20
  0.4186
 30
0.0
 40
  0.0514
 1
<Doc>
 0
TEXT
 8
TITLE
 10
  9.3000
 20
  0.4186
 30
0.0
 40
  0.0514
 1
<RevCode>
 0
TEXT
 8
TITLE
 10
  6.3000
 20
  0.7186
 30
0.0
 40
  0.0514
 1
<Title>
 0
TEXT
 8
TITLE
 10
  6.0000
 20
  0.4186
 30
0.0
 40
  0.0514
 1
A
 0
TEXT
 8
TITLE
 10
  8.4000
 20
  0.2186
 30
0.0
 40
  0.0514
 1
1
 0
TEXT
 8
TITLE
 10
  9.0000
 20
  0.2186
 30
0.0
 40
  0.0514
 1
1
 0
TEXT
 8
TITLE
 10
  6.4200
 20
  0.2186
 30
0.0
 40
  0.0514
 1
Wednesday, August 30, 2017
 0
TEXT
 8
PARTTEXT
 10
  5.9000
 20
  0.8186
 30
0.0
 40
  0.0514
 1
Title
 0
TEXT
 8
PARTTEXT
 10
  5.9000
 20
  0.5186
 30
0.0
 40
  0.0514
 1
Size
 0
TEXT
 8
PARTTEXT
 10
  6.3000
 20
  0.5186
 30
0.0
 40
  0.0514
 1
Document Number
 0
TEXT
 8
PARTTEXT
 10
  9.2000
 20
  0.5186
 30
0.0
 40
  0.0514
 1
Rev
 0
TEXT
 8
PARTTEXT
 10
  5.9000
 20
  0.2186
 30
0.0
 40
  0.0514
 1
Date:
 0
TEXT
 8
PARTTEXT
 10
  7.9000
 20
  0.2186
 30
0.0
 40
  0.0514
 1
Sheet
 0
POLYLINE
 8
TITLE
 66
1
 70
1
 10
0.0
 20
0.0
 30
0.0
 0
VERTEX
 8
TITLE
 10
  5.9000
 20
  1.1000
 30
0.0
 0
VERTEX
 8
TITLE
 10
  9.5000
 20
  1.1000
 30
0.0
 0
VERTEX
 8
TITLE
 10
  9.5000
 20
  0.9000
 30
0.0
 0
VERTEX
 8
TITLE
 10
  5.9000
 20
  0.9000
 30
0.0
 0
SEQEND
 8
TITLE
 0
POLYLINE
 8
TITLE
 66
1
 70
1
 10
0.0
 20
0.0
 30
0.0
 0
VERTEX
 8
TITLE
 10
  5.9000
 20
  0.9000
 30
0.0
 0
VERTEX
 8
TITLE
 10
  9.5000
 20
  0.9000
 30
0.0
 0
VERTEX
 8
TITLE
 10
  9.5000
 20
  0.6000
 30
0.0
 0
VERTEX
 8
TITLE
 10
  5.9000
 20
  0.6000
 30
0.0
 0
SEQEND
 8
TITLE
 0
POLYLINE
 8
TITLE
 66
1
 70
1
 10
0.0
 20
0.0
 30
0.0
 0
VERTEX
 8
TITLE
 10
  5.9000
 20
  0.6000
 30
0.0
 0
VERTEX
 8
TITLE
 10
  6.2000
 20
  0.6000
 30
0.0
 0
VERTEX
 8
TITLE
 10
  6.2000
 20
  0.3000
 30
0.0
 0
VERTEX
 8
TITLE
 10
  5.9000
 20
  0.3000
 30
0.0
 0
SEQEND
 8
TITLE
 0
POLYLINE
 8
TITLE
 66
1
 70
1
 10
0.0
 20
0.0
 30
0.0
 0
VERTEX
 8
TITLE
 10
  6.2000
 20
  0.6000
 30
0.0
 0
VERTEX
 8
TITLE
 10
  9.2000
 20
  0.6000
 30
0.0
 0
VERTEX
 8
TITLE
 10
  9.2000
 20
  0.3000
 30
0.0
 0
VERTEX
 8
TITLE
 10
  6.2000
 20
  0.3000
 30
0.0
 0
SEQEND
 8
TITLE
 0
POLYLINE
 8
TITLE
 66
1
 70
1
 10
0.0
 20
0.0
 30
0.0
 0
VERTEX
 8
TITLE
 10
  9.2000
 20
  0.6000
 30
0.0
 0
VERTEX
 8
TITLE
 10
  9.5000
 20
  0.6000
 30
0.0
 0
VERTEX
 8
TITLE
 10
  9.5000
 20
  0.3000
 30
0.0
 0
VERTEX
 8
TITLE
 10
  9.2000
 20
  0.3000
 30
0.0
 0
SEQEND
 8
TITLE
 0
POLYLINE
 8
TITLE
 66
1
 70
1
 10
0.0
 20
0.0
 30
0.0
 0
VERTEX
 8
TITLE
 10
  5.9000
 20
  0.3000
 30
0.0
 0
VERTEX
 8
TITLE
 10
  7.9000
 20
  0.3000
 30
0.0
 0
VERTEX
 8
TITLE
 10
  7.9000
 20
  0.2000
 30
0.0
 0
VERTEX
 8
TITLE
 10
  5.9000
 20
  0.2000
 30
0.0
 0
SEQEND
 8
TITLE
 0
POLYLINE
 8
TITLE
 66
1
 70
1
 10
0.0
 20
0.0
 30
0.0
 0
VERTEX
 8
TITLE
 10
  7.9000
 20
  0.3000
 30
0.0
 0
VERTEX
 8
TITLE
 10
  9.5000
 20
  0.3000
 30
0.0
 0
VERTEX
 8
TITLE
 10
  9.5000
 20
  0.2000
 30
0.0
 0
VERTEX
 8
TITLE
 10
  7.9000
 20
  0.2000
 30
0.0
 0
SEQEND
 8
TITLE
 0
TEXT
 8
PARTTEXT
 10
  8.7000
 20
  0.2186
 30
0.0
 40
  0.0514
 1
of
 0
TEXT
 8
PARTTEXT
 10
  2.3900
 20
  5.7186
 30
0.0
 40
  0.0514
 1
P8
 0
TEXT
 8
PARTTEXT
 10
  1.8800
 20
  2.8286
 30
0.0
 40
  0.0514
 1
HEADER 23x2
 0
LINE
 8
PARTS
 10
  1.8000
 20
  5.4000
 30
0.0
 11
  2.1000
 21
  5.4000
 31
0.0
 0
TEXT
 8
PARTS
 10
  2.0000
 20
  5.4300
 30
0.0
 40
  0.0500
 1
1
 0
LINE
 8
PARTS
 10
  1.8000
 20
  5.3000
 30
0.0
 11
  2.1000
 21
  5.3000
 31
0.0
 0
TEXT
 8
PARTS
 10
  2.0000
 20
  5.3300
 30
0.0
 40
  0.0500
 1
3
 0
LINE
 8
PARTS
 10
  1.8000
 20
  5.2000
 30
0.0
 11
  2.1000
 21
  5.2000
 31
0.0
 0
TEXT
 8
PARTS
 10
  2.0000
 20
  5.2300
 30
0.0
 40
  0.0500
 1
5
 0
LINE
 8
PARTS
 10
  1.8000
 20
  5.1000
 30
0.0
 11
  2.1000
 21
  5.1000
 31
0.0
 0
TEXT
 8
PARTS
 10
  2.0000
 20
  5.1300
 30
0.0
 40
  0.0500
 1
7
 0
LINE
 8
PARTS
 10
  1.8000
 20
  5.0000
 30
0.0
 11
  2.1000
 21
  5.0000
 31
0.0
 0
TEXT
 8
PARTS
 10
  2.0000
 20
  5.0300
 30
0.0
 40
  0.0500
 1
9
 0
LINE
 8
PARTS
 10
  1.8000
 20
  4.9000
 30
0.0
 11
  2.1000
 21
  4.9000
 31
0.0
 0
TEXT
 8
PARTS
 10
  1.9600
 20
  4.9300
 30
0.0
 40
  0.0500
 1
11
 0
LINE
 8
PARTS
 10
  1.8000
 20
  4.8000
 30
0.0
 11
  2.1000
 21
  4.8000
 31
0.0
 0
TEXT
 8
PARTS
 10
  1.9600
 20
  4.8300
 30
0.0
 40
  0.0500
 1
13
 0
LINE
 8
PARTS
 10
  1.8000
 20
  4.7000
 30
0.0
 11
  2.1000
 21
  4.7000
 31
0.0
 0
TEXT
 8
PARTS
 10
  1.9600
 20
  4.7300
 30
0.0
 40
  0.0500
 1
15
 0
LINE
 8
PARTS
 10
  1.8000
 20
  4.6000
 30
0.0
 11
  2.1000
 21
  4.6000
 31
0.0
 0
TEXT
 8
PARTS
 10
  1.9600
 20
  4.6300
 30
0.0
 40
  0.0500
 1
17
 0
LINE
 8
PARTS
 10
  1.8000
 20
  4.5000
 30
0.0
 11
  2.1000
 21
  4.5000
 31
0.0
 0
TEXT
 8
PARTS
 10
  1.9600
 20
  4.5300
 30
0.0
 40
  0.0500
 1
19
 0
LINE
 8
PARTS
 10
  1.8000
 20
  4.4000
 30
0.0
 11
  2.1000
 21
  4.4000
 31
0.0
 0
TEXT
 8
PARTS
 10
  1.9600
 20
  4.4300
 30
0.0
 40
  0.0500
 1
21
 0
LINE
 8
PARTS
 10
  1.8000
 20
  4.3000
 30
0.0
 11
  2.1000
 21
  4.3000
 31
0.0
 0
TEXT
 8
PARTS
 10
  1.9600
 20
  4.3300
 30
0.0
 40
  0.0500
 1
23
 0
LINE
 8
PARTS
 10
  1.8000
 20
  4.2000
 30
0.0
 11
  2.1000
 21
  4.2000
 31
0.0
 0
TEXT
 8
PARTS
 10
  1.9600
 20
  4.2300
 30
0.0
 40
  0.0500
 1
25
 0
LINE
 8
PARTS
 10
  1.8000
 20
  4.1000
 30
0.0
 11
  2.1000
 21
  4.1000
 31
0.0
 0
TEXT
 8
PARTS
 10
  1.9600
 20
  4.1300
 30
0.0
 40
  0.0500
 1
27
 0
LINE
 8
PARTS
 10
  1.8000
 20
  4.0000
 30
0.0
 11
  2.1000
 21
  4.0000
 31
0.0
 0
TEXT
 8
PARTS
 10
  1.9600
 20
  4.0300
 30
0.0
 40
  0.0500
 1
29
 0
LINE
 8
PARTS
 10
  1.8000
 20
  3.9000
 30
0.0
 11
  2.1000
 21
  3.9000
 31
0.0
 0
TEXT
 8
PARTS
 10
  1.9600
 20
  3.9300
 30
0.0
 40
  0.0500
 1
31
 0
LINE
 8
PARTS
 10
  1.8000
 20
  3.8000
 30
0.0
 11
  2.1000
 21
  3.8000
 31
0.0
 0
TEXT
 8
PARTS
 10
  1.9600
 20
  3.8300
 30
0.0
 40
  0.0500
 1
33
 0
LINE
 8
PARTS
 10
  1.8000
 20
  3.7000
 30
0.0
 11
  2.1000
 21
  3.7000
 31
0.0
 0
TEXT
 8
PARTS
 10
  1.9600
 20
  3.7300
 30
0.0
 40
  0.0500
 1
35
 0
LINE
 8
PARTS
 10
  1.8000
 20
  3.6000
 30
0.0
 11
  2.1000
 21
  3.6000
 31
0.0
 0
TEXT
 8
PARTS
 10
  1.9600
 20
  3.6300
 30
0.0
 40
  0.0500
 1
37
 0
LINE
 8
PARTS
 10
  1.8000
 20
  3.5000
 30
0.0
 11
  2.1000
 21
  3.5000
 31
0.0
 0
TEXT
 8
PARTS
 10
  1.9600
 20
  3.5300
 30
0.0
 40
  0.0500
 1
39
 0
LINE
 8
PARTS
 10
  1.8000
 20
  3.4000
 30
0.0
 11
  2.1000
 21
  3.4000
 31
0.0
 0
TEXT
 8
PARTS
 10
  1.9600
 20
  3.4300
 30
0.0
 40
  0.0500
 1
41
 0
LINE
 8
PARTS
 10
  1.8000
 20
  3.3000
 30
0.0
 11
  2.1000
 21
  3.3000
 31
0.0
 0
TEXT
 8
PARTS
 10
  1.9600
 20
  3.3300
 30
0.0
 40
  0.0500
 1
43
 0
LINE
 8
PARTS
 10
  1.8000
 20
  3.2000
 30
0.0
 11
  2.1000
 21
  3.2000
 31
0.0
 0
TEXT
 8
PARTS
 10
  1.9600
 20
  3.2300
 30
0.0
 40
  0.0500
 1
45
 0
LINE
 8
PARTS
 10
  2.8000
 20
  5.4000
 30
0.0
 11
  2.5000
 21
  5.4000
 31
0.0
 0
TEXT
 8
PARTS
 10
  2.5600
 20
  5.4300
 30
0.0
 40
  0.0500
 1
2
 0
LINE
 8
PARTS
 10
  2.8000
 20
  5.3000
 30
0.0
 11
  2.5000
 21
  5.3000
 31
0.0
 0
TEXT
 8
PARTS
 10
  2.5600
 20
  5.3300
 30
0.0
 40
  0.0500
 1
4
 0
LINE
 8
PARTS
 10
  2.8000
 20
  5.2000
 30
0.0
 11
  2.5000
 21
  5.2000
 31
0.0
 0
TEXT
 8
PARTS
 10
  2.5600
 20
  5.2300
 30
0.0
 40
  0.0500
 1
6
 0
LINE
 8
PARTS
 10
  2.8000
 20
  5.1000
 30
0.0
 11
  2.5000
 21
  5.1000
 31
0.0
 0
TEXT
 8
PARTS
 10
  2.5600
 20
  5.1300
 30
0.0
 40
  0.0500
 1
8
 0
LINE
 8
PARTS
 10
  2.8000
 20
  5.0000
 30
0.0
 11
  2.5000
 21
  5.0000
 31
0.0
 0
TEXT
 8
PARTS
 10
  2.5600
 20
  5.0300
 30
0.0
 40
  0.0500
 1
10
 0
LINE
 8
PARTS
 10
  2.8000
 20
  4.9000
 30
0.0
 11
  2.5000
 21
  4.9000
 31
0.0
 0
TEXT
 8
PARTS
 10
  2.5600
 20
  4.9300
 30
0.0
 40
  0.0500
 1
12
 0
LINE
 8
PARTS
 10
  2.8000
 20
  4.8000
 30
0.0
 11
  2.5000
 21
  4.8000
 31
0.0
 0
TEXT
 8
PARTS
 10
  2.5600
 20
  4.8300
 30
0.0
 40
  0.0500
 1
14
 0
LINE
 8
PARTS
 10
  2.8000
 20
  4.7000
 30
0.0
 11
  2.5000
 21
  4.7000
 31
0.0
 0
TEXT
 8
PARTS
 10
  2.5600
 20
  4.7300
 30
0.0
 40
  0.0500
 1
16
 0
LINE
 8
PARTS
 10
  2.8000
 20
  4.6000
 30
0.0
 11
  2.5000
 21
  4.6000
 31
0.0
 0
TEXT
 8
PARTS
 10
  2.5600
 20
  4.6300
 30
0.0
 40
  0.0500
 1
18
 0
LINE
 8
PARTS
 10
  2.8000
 20
  4.5000
 30
0.0
 11
  2.5000
 21
  4.5000
 31
0.0
 0
TEXT
 8
PARTS
 10
  2.5600
 20
  4.5300
 30
0.0
 40
  0.0500
 1
20
 0
LINE
 8
PARTS
 10
  2.8000
 20
  4.4000
 30
0.0
 11
  2.5000
 21
  4.4000
 31
0.0
 0
TEXT
 8
PARTS
 10
  2.5600
 20
  4.4300
 30
0.0
 40
  0.0500
 1
22
 0
LINE
 8
PARTS
 10
  2.8000
 20
  4.3000
 30
0.0
 11
  2.5000
 21
  4.3000
 31
0.0
 0
TEXT
 8
PARTS
 10
  2.5600
 20
  4.3300
 30
0.0
 40
  0.0500
 1
24
 0
LINE
 8
PARTS
 10
  2.8000
 20
  4.2000
 30
0.0
 11
  2.5000
 21
  4.2000
 31
0.0
 0
TEXT
 8
PARTS
 10
  2.5600
 20
  4.2300
 30
0.0
 40
  0.0500
 1
26
 0
LINE
 8
PARTS
 10
  2.8000
 20
  4.1000
 30
0.0
 11
  2.5000
 21
  4.1000
 31
0.0
 0
TEXT
 8
PARTS
 10
  2.5600
 20
  4.1300
 30
0.0
 40
  0.0500
 1
28
 0
LINE
 8
PARTS
 10
  2.8000
 20
  4.0000
 30
0.0
 11
  2.5000
 21
  4.0000
 31
0.0
 0
TEXT
 8
PARTS
 10
  2.5600
 20
  4.0300
 30
0.0
 40
  0.0500
 1
30
 0
LINE
 8
PARTS
 10
  2.8000
 20
  3.9000
 30
0.0
 11
  2.5000
 21
  3.9000
 31
0.0
 0
TEXT
 8
PARTS
 10
  2.5600
 20
  3.9300
 30
0.0
 40
  0.0500
 1
32
 0
LINE
 8
PARTS
 10
  2.8000
 20
  3.8000
 30
0.0
 11
  2.5000
 21
  3.8000
 31
0.0
 0
TEXT
 8
PARTS
 10
  2.5600
 20
  3.8300
 30
0.0
 40
  0.0500
 1
34
 0
LINE
 8
PARTS
 10
  2.8000
 20
  3.7000
 30
0.0
 11
  2.5000
 21
  3.7000
 31
0.0
 0
TEXT
 8
PARTS
 10
  2.5600
 20
  3.7300
 30
0.0
 40
  0.0500
 1
36
 0
LINE
 8
PARTS
 10
  2.8000
 20
  3.6000
 30
0.0
 11
  2.5000
 21
  3.6000
 31
0.0
 0
TEXT
 8
PARTS
 10
  2.5600
 20
  3.6300
 30
0.0
 40
  0.0500
 1
38
 0
LINE
 8
PARTS
 10
  2.8000
 20
  3.5000
 30
0.0
 11
  2.5000
 21
  3.5000
 31
0.0
 0
TEXT
 8
PARTS
 10
  2.5600
 20
  3.5300
 30
0.0
 40
  0.0500
 1
40
 0
LINE
 8
PARTS
 10
  2.8000
 20
  3.4000
 30
0.0
 11
  2.5000
 21
  3.4000
 31
0.0
 0
TEXT
 8
PARTS
 10
  2.5600
 20
  3.4300
 30
0.0
 40
  0.0500
 1
42
 0
LINE
 8
PARTS
 10
  2.8000
 20
  3.3000
 30
0.0
 11
  2.5000
 21
  3.3000
 31
0.0
 0
TEXT
 8
PARTS
 10
  2.5600
 20
  3.3300
 30
0.0
 40
  0.0500
 1
44
 0
LINE
 8
PARTS
 10
  2.8000
 20
  3.2000
 30
0.0
 11
  2.5000
 21
  3.2000
 31
0.0
 0
TEXT
 8
PARTS
 10
  2.5600
 20
  3.2300
 30
0.0
 40
  0.0500
 1
46
 0
POLYLINE
 8
PARTS
 66
1
 70
1
 10
0.0
 20
0.0
 30
0.0
 0
VERTEX
 8
PARTS
 10
  2.5000
 20
  5.5000
 30
0.0
 0
VERTEX
 8
PARTS
 10
  2.1000
 20
  5.5000
 30
0.0
 0
VERTEX
 8
PARTS
 10
  2.1000
 20
  3.1000
 30
0.0
 0
VERTEX
 8
PARTS
 10
  2.5000
 20
  3.1000
 30
0.0
 0
SEQEND
 8
PARTS
 0
POLYLINE
 8
PARTS
 66
1
 10
0.0
 20
0.0
 30
0.0
 0
VERTEX
 8
PARTS
 10
  2.2400
 20
  5.5000
 30
0.0
 0
VERTEX
 8
PARTS
 10
  2.2300
 20
  5.5000
 30
0.0
 0
VERTEX
 8
PARTS
 10
  2.2300
 20
  5.5500
 30
0.0
 0
VERTEX
 8
PARTS
 10
  2.3800
 20
  5.5500
 30
0.0
 0
VERTEX
 8
PARTS
 10
  2.3800
 20
  5.5000
 30
0.0
 0
SEQEND
 8
PARTS
 0
POLYLINE
 8
PARTS
 66
1
 10
0.0
 20
0.0
 30
0.0
 0
VERTEX
 8
PARTS
 10
  2.4000
 20
  3.1000
 30
0.0
 0
VERTEX
 8
PARTS
 10
  2.4000
 20
  3.1000
 30
0.0
 0
VERTEX
 8
PARTS
 10
  2.4000
 20
  3.0500
 30
0.0
 0
VERTEX
 8
PARTS
 10
  2.2500
 20
  3.0500
 30
0.0
 0
VERTEX
 8
PARTS
 10
  2.2500
 20
  3.1000
 30
0.0
 0
SEQEND
 8
PARTS
 0
TEXT
 8
PARTTEXT
 10
  6.0900
 20
  5.7186
 30
0.0
 40
  0.0514
 1
P9
 0
TEXT
 8
PARTTEXT
 10
  5.5800
 20
  2.8286
 30
0.0
 40
  0.0514
 1
HEADER 23x2
 0
LINE
 8
PARTS
 10
  5.5000
 20
  5.4000
 30
0.0
 11
  5.8000
 21
  5.4000
 31
0.0
 0
TEXT
 8
PARTS
 10
  5.7000
 20
  5.4300
 30
0.0
 40
  0.0500
 1
1
 0
LINE
 8
PARTS
 10
  5.5000
 20
  5.3000
 30
0.0
 11
  5.8000
 21
  5.3000
 31
0.0
 0
TEXT
 8
PARTS
 10
  5.7000
 20
  5.3300
 30
0.0
 40
  0.0500
 1
3
 0
LINE
 8
PARTS
 10
  5.5000
 20
  5.2000
 30
0.0
 11
  5.8000
 21
  5.2000
 31
0.0
 0
TEXT
 8
PARTS
 10
  5.7000
 20
  5.2300
 30
0.0
 40
  0.0500
 1
5
 0
LINE
 8
PARTS
 10
  5.5000
 20
  5.1000
 30
0.0
 11
  5.8000
 21
  5.1000
 31
0.0
 0
TEXT
 8
PARTS
 10
  5.7000
 20
  5.1300
 30
0.0
 40
  0.0500
 1
7
 0
LINE
 8
PARTS
 10
  5.5000
 20
  5.0000
 30
0.0
 11
  5.8000
 21
  5.0000
 31
0.0
 0
TEXT
 8
PARTS
 10
  5.7000
 20
  5.0300
 30
0.0
 40
  0.0500
 1
9
 0
LINE
 8
PARTS
 10
  5.5000
 20
  4.9000
 30
0.0
 11
  5.8000
 21
  4.9000
 31
0.0
 0
TEXT
 8
PARTS
 10
  5.6600
 20
  4.9300
 30
0.0
 40
  0.0500
 1
11
 0
LINE
 8
PARTS
 10
  5.5000
 20
  4.8000
 30
0.0
 11
  5.8000
 21
  4.8000
 31
0.0
 0
TEXT
 8
PARTS
 10
  5.6600
 20
  4.8300
 30
0.0
 40
  0.0500
 1
13
 0
LINE
 8
PARTS
 10
  5.5000
 20
  4.7000
 30
0.0
 11
  5.8000
 21
  4.7000
 31
0.0
 0
TEXT
 8
PARTS
 10
  5.6600
 20
  4.7300
 30
0.0
 40
  0.0500
 1
15
 0
LINE
 8
PARTS
 10
  5.5000
 20
  4.6000
 30
0.0
 11
  5.8000
 21
  4.6000
 31
0.0
 0
TEXT
 8
PARTS
 10
  5.6600
 20
  4.6300
 30
0.0
 40
  0.0500
 1
17
 0
LINE
 8
PARTS
 10
  5.5000
 20
  4.5000
 30
0.0
 11
  5.8000
 21
  4.5000
 31
0.0
 0
TEXT
 8
PARTS
 10
  5.6600
 20
  4.5300
 30
0.0
 40
  0.0500
 1
19
 0
LINE
 8
PARTS
 10
  5.5000
 20
  4.4000
 30
0.0
 11
  5.8000
 21
  4.4000
 31
0.0
 0
TEXT
 8
PARTS
 10
  5.6600
 20
  4.4300
 30
0.0
 40
  0.0500
 1
21
 0
LINE
 8
PARTS
 10
  5.5000
 20
  4.3000
 30
0.0
 11
  5.8000
 21
  4.3000
 31
0.0
 0
TEXT
 8
PARTS
 10
  5.6600
 20
  4.3300
 30
0.0
 40
  0.0500
 1
23
 0
LINE
 8
PARTS
 10
  5.5000
 20
  4.2000
 30
0.0
 11
  5.8000
 21
  4.2000
 31
0.0
 0
TEXT
 8
PARTS
 10
  5.6600
 20
  4.2300
 30
0.0
 40
  0.0500
 1
25
 0
LINE
 8
PARTS
 10
  5.5000
 20
  4.1000
 30
0.0
 11
  5.8000
 21
  4.1000
 31
0.0
 0
TEXT
 8
PARTS
 10
  5.6600
 20
  4.1300
 30
0.0
 40
  0.0500
 1
27
 0
LINE
 8
PARTS
 10
  5.5000
 20
  4.0000
 30
0.0
 11
  5.8000
 21
  4.0000
 31
0.0
 0
TEXT
 8
PARTS
 10
  5.6600
 20
  4.0300
 30
0.0
 40
  0.0500
 1
29
 0
LINE
 8
PARTS
 10
  5.5000
 20
  3.9000
 30
0.0
 11
  5.8000
 21
  3.9000
 31
0.0
 0
TEXT
 8
PARTS
 10
  5.6600
 20
  3.9300
 30
0.0
 40
  0.0500
 1
31
 0
LINE
 8
PARTS
 10
  5.5000
 20
  3.8000
 30
0.0
 11
  5.8000
 21
  3.8000
 31
0.0
 0
TEXT
 8
PARTS
 10
  5.6600
 20
  3.8300
 30
0.0
 40
  0.0500
 1
33
 0
LINE
 8
PARTS
 10
  5.5000
 20
  3.7000
 30
0.0
 11
  5.8000
 21
  3.7000
 31
0.0
 0
TEXT
 8
PARTS
 10
  5.6600
 20
  3.7300
 30
0.0
 40
  0.0500
 1
35
 0
LINE
 8
PARTS
 10
  5.5000
 20
  3.6000
 30
0.0
 11
  5.8000
 21
  3.6000
 31
0.0
 0
TEXT
 8
PARTS
 10
  5.6600
 20
  3.6300
 30
0.0
 40
  0.0500
 1
37
 0
LINE
 8
PARTS
 10
  5.5000
 20
  3.5000
 30
0.0
 11
  5.8000
 21
  3.5000
 31
0.0
 0
TEXT
 8
PARTS
 10
  5.6600
 20
  3.5300
 30
0.0
 40
  0.0500
 1
39
 0
LINE
 8
PARTS
 10
  5.5000
 20
  3.4000
 30
0.0
 11
  5.8000
 21
  3.4000
 31
0.0
 0
TEXT
 8
PARTS
 10
  5.6600
 20
  3.4300
 30
0.0
 40
  0.0500
 1
41
 0
LINE
 8
PARTS
 10
  5.5000
 20
  3.3000
 30
0.0
 11
  5.8000
 21
  3.3000
 31
0.0
 0
TEXT
 8
PARTS
 10
  5.6600
 20
  3.3300
 30
0.0
 40
  0.0500
 1
43
 0
LINE
 8
PARTS
 10
  5.5000
 20
  3.2000
 30
0.0
 11
  5.8000
 21
  3.2000
 31
0.0
 0
TEXT
 8
PARTS
 10
  5.6600
 20
  3.2300
 30
0.0
 40
  0.0500
 1
45
 0
LINE
 8
PARTS
 10
  6.5000
 20
  5.4000
 30
0.0
 11
  6.2000
 21
  5.4000
 31
0.0
 0
TEXT
 8
PARTS
 10
  6.2600
 20
  5.4300
 30
0.0
 40
  0.0500
 1
2
 0
LINE
 8
PARTS
 10
  6.5000
 20
  5.3000
 30
0.0
 11
  6.2000
 21
  5.3000
 31
0.0
 0
TEXT
 8
PARTS
 10
  6.2600
 20
  5.3300
 30
0.0
 40
  0.0500
 1
4
 0
LINE
 8
PARTS
 10
  6.5000
 20
  5.2000
 30
0.0
 11
  6.2000
 21
  5.2000
 31
0.0
 0
TEXT
 8
PARTS
 10
  6.2600
 20
  5.2300
 30
0.0
 40
  0.0500
 1
6
 0
LINE
 8
PARTS
 10
  6.5000
 20
  5.1000
 30
0.0
 11
  6.2000
 21
  5.1000
 31
0.0
 0
TEXT
 8
PARTS
 10
  6.2600
 20
  5.1300
 30
0.0
 40
  0.0500
 1
8
 0
LINE
 8
PARTS
 10
  6.5000
 20
  5.0000
 30
0.0
 11
  6.2000
 21
  5.0000
 31
0.0
 0
TEXT
 8
PARTS
 10
  6.2600
 20
  5.0300
 30
0.0
 40
  0.0500
 1
10
 0
LINE
 8
PARTS
 10
  6.5000
 20
  4.9000
 30
0.0
 11
  6.2000
 21
  4.9000
 31
0.0
 0
TEXT
 8
PARTS
 10
  6.2600
 20
  4.9300
 30
0.0
 40
  0.0500
 1
12
 0
LINE
 8
PARTS
 10
  6.5000
 20
  4.8000
 30
0.0
 11
  6.2000
 21
  4.8000
 31
0.0
 0
TEXT
 8
PARTS
 10
  6.2600
 20
  4.8300
 30
0.0
 40
  0.0500
 1
14
 0
LINE
 8
PARTS
 10
  6.5000
 20
  4.7000
 30
0.0
 11
  6.2000
 21
  4.7000
 31
0.0
 0
TEXT
 8
PARTS
 10
  6.2600
 20
  4.7300
 30
0.0
 40
  0.0500
 1
16
 0
LINE
 8
PARTS
 10
  6.5000
 20
  4.6000
 30
0.0
 11
  6.2000
 21
  4.6000
 31
0.0
 0
TEXT
 8
PARTS
 10
  6.2600
 20
  4.6300
 30
0.0
 40
  0.0500
 1
18
 0
LINE
 8
PARTS
 10
  6.5000
 20
  4.5000
 30
0.0
 11
  6.2000
 21
  4.5000
 31
0.0
 0
TEXT
 8
PARTS
 10
  6.2600
 20
  4.5300
 30
0.0
 40
  0.0500
 1
20
 0
LINE
 8
PARTS
 10
  6.5000
 20
  4.4000
 30
0.0
 11
  6.2000
 21
  4.4000
 31
0.0
 0
TEXT
 8
PARTS
 10
  6.2600
 20
  4.4300
 30
0.0
 40
  0.0500
 1
22
 0
LINE
 8
PARTS
 10
  6.5000
 20
  4.3000
 30
0.0
 11
  6.2000
 21
  4.3000
 31
0.0
 0
TEXT
 8
PARTS
 10
  6.2600
 20
  4.3300
 30
0.0
 40
  0.0500
 1
24
 0
LINE
 8
PARTS
 10
  6.5000
 20
  4.2000
 30
0.0
 11
  6.2000
 21
  4.2000
 31
0.0
 0
TEXT
 8
PARTS
 10
  6.2600
 20
  4.2300
 30
0.0
 40
  0.0500
 1
26
 0
LINE
 8
PARTS
 10
  6.5000
 20
  4.1000
 30
0.0
 11
  6.2000
 21
  4.1000
 31
0.0
 0
TEXT
 8
PARTS
 10
  6.2600
 20
  4.1300
 30
0.0
 40
  0.0500
 1
28
 0
LINE
 8
PARTS
 10
  6.5000
 20
  4.0000
 30
0.0
 11
  6.2000
 21
  4.0000
 31
0.0
 0
TEXT
 8
PARTS
 10
  6.2600
 20
  4.0300
 30
0.0
 40
  0.0500
 1
30
 0
LINE
 8
PARTS
 10
  6.5000
 20
  3.9000
 30
0.0
 11
  6.2000
 21
  3.9000
 31
0.0
 0
TEXT
 8
PARTS
 10
  6.2600
 20
  3.9300
 30
0.0
 40
  0.0500
 1
32
 0
LINE
 8
PARTS
 10
  6.5000
 20
  3.8000
 30
0.0
 11
  6.2000
 21
  3.8000
 31
0.0
 0
TEXT
 8
PARTS
 10
  6.2600
 20
  3.8300
 30
0.0
 40
  0.0500
 1
34
 0
LINE
 8
PARTS
 10
  6.5000
 20
  3.7000
 30
0.0
 11
  6.2000
 21
  3.7000
 31
0.0
 0
TEXT
 8
PARTS
 10
  6.2600
 20
  3.7300
 30
0.0
 40
  0.0500
 1
36
 0
LINE
 8
PARTS
 10
  6.5000
 20
  3.6000
 30
0.0
 11
  6.2000
 21
  3.6000
 31
0.0
 0
TEXT
 8
PARTS
 10
  6.2600
 20
  3.6300
 30
0.0
 40
  0.0500
 1
38
 0
LINE
 8
PARTS
 10
  6.5000
 20
  3.5000
 30
0.0
 11
  6.2000
 21
  3.5000
 31
0.0
 0
TEXT
 8
PARTS
 10
  6.2600
 20
  3.5300
 30
0.0
 40
  0.0500
 1
40
 0
LINE
 8
PARTS
 10
  6.5000
 20
  3.4000
 30
0.0
 11
  6.2000
 21
  3.4000
 31
0.0
 0
TEXT
 8
PARTS
 10
  6.2600
 20
  3.4300
 30
0.0
 40
  0.0500
 1
42
 0
LINE
 8
PARTS
 10
  6.5000
 20
  3.3000
 30
0.0
 11
  6.2000
 21
  3.3000
 31
0.0
 0
TEXT
 8
PARTS
 10
  6.2600
 20
  3.3300
 30
0.0
 40
  0.0500
 1
44
 0
LINE
 8
PARTS
 10
  6.5000
 20
  3.2000
 30
0.0
 11
  6.2000
 21
  3.2000
 31
0.0
 0
TEXT
 8
PARTS
 10
  6.2600
 20
  3.2300
 30
0.0
 40
  0.0500
 1
46
 0
POLYLINE
 8
PARTS
 66
1
 70
1
 10
0.0
 20
0.0
 30
0.0
 0
VERTEX
 8
PARTS
 10
  6.2000
 20
  5.5000
 30
0.0
 0
VERTEX
 8
PARTS
 10
  5.8000
 20
  5.5000
 30
0.0
 0
VERTEX
 8
PARTS
 10
  5.8000
 20
  3.1000
 30
0.0
 0
VERTEX
 8
PARTS
 10
  6.2000
 20
  3.1000
 30
0.0
 0
SEQEND
 8
PARTS
 0
POLYLINE
 8
PARTS
 66
1
 10
0.0
 20
0.0
 30
0.0
 0
VERTEX
 8
PARTS
 10
  5.9400
 20
  5.5000
 30
0.0
 0
VERTEX
 8
PARTS
 10
  5.9300
 20
  5.5000
 30
0.0
 0
VERTEX
 8
PARTS
 10
  5.9300
 20
  5.5500
 30
0.0
 0
VERTEX
 8
PARTS
 10
  6.0800
 20
  5.5500
 30
0.0
 0
VERTEX
 8
PARTS
 10
  6.0800
 20
  5.5000
 30
0.0
 0
SEQEND
 8
PARTS
 0
POLYLINE
 8
PARTS
 66
1
 10
0.0
 20
0.0
 30
0.0
 0
VERTEX
 8
PARTS
 10
  6.1000
 20
  3.1000
 30
0.0
 0
VERTEX
 8
PARTS
 10
  6.1000
 20
  3.1000
 30
0.0
 0
VERTEX
 8
PARTS
 10
  6.1000
 20
  3.0500
 30
0.0
 0
VERTEX
 8
PARTS
 10
  5.9500
 20
  3.0500
 30
0.0
 0
VERTEX
 8
PARTS
 10
  5.9500
 20
  3.1000
 30
0.0
 0
SEQEND
 8
PARTS
 0
POLYLINE
 8
WIRE
 66
1
 10
0.0
 20
0.0
 30
0.0
 0
VERTEX
 8
WIRE
 10
  1.7000
 20
  4.1000
 30
0.0
 0
VERTEX
 8
WIRE
 10
  1.8000
 20
  4.1000
 30
0.0
 0
SEQEND
 8
WIRE
 0
POLYLINE
 8
WIRE
 66
1
 10
0.0
 20
0.0
 30
0.0
 0
VERTEX
 8
WIRE
 10
  1.7000
 20
  4.0000
 30
0.0
 0
VERTEX
 8
WIRE
 10
  1.8000
 20
  4.0000
 30
0.0
 0
SEQEND
 8
WIRE
 0
POLYLINE
 8
WIRE
 66
1
 10
0.0
 20
0.0
 30
0.0
 0
VERTEX
 8
WIRE
 10
  1.7000
 20
  3.9000
 30
0.0
 0
VERTEX
 8
WIRE
 10
  1.8000
 20
  3.9000
 30
0.0
 0
SEQEND
 8
WIRE
 0
POLYLINE
 8
WIRE
 66
1
 10
0.0
 20
0.0
 30
0.0
 0
VERTEX
 8
WIRE
 10
  1.7000
 20
  3.8000
 30
0.0
 0
VERTEX
 8
WIRE
 10
  1.8000
 20
  3.8000
 30
0.0
 0
SEQEND
 8
WIRE
 0
POLYLINE
 8
WIRE
 66
1
 10
0.0
 20
0.0
 30
0.0
 0
VERTEX
 8
WIRE
 10
  1.7000
 20
  3.7000
 30
0.0
 0
VERTEX
 8
WIRE
 10
  1.8000
 20
  3.7000
 30
0.0
 0
SEQEND
 8
WIRE
 0
POLYLINE
 8
WIRE
 66
1
 10
0.0
 20
0.0
 30
0.0
 0
VERTEX
 8
WIRE
 10
  1.7000
 20
  3.6000
 30
0.0
 0
VERTEX
 8
WIRE
 10
  1.8000
 20
  3.6000
 30
0.0
 0
SEQEND
 8
WIRE
 0
POLYLINE
 8
WIRE
 66
1
 10
0.0
 20
0.0
 30
0.0
 0
VERTEX
 8
WIRE
 10
  1.7000
 20
  3.5000
 30
0.0
 0
VERTEX
 8
WIRE
 10
  1.8000
 20
  3.5000
 30
0.0
 0
SEQEND
 8
WIRE
 0
POLYLINE
 8
WIRE
 66
1
 10
0.0
 20
0.0
 30
0.0
 0
VERTEX
 8
WIRE
 10
  1.7000
 20
  3.4000
 30
0.0
 0
VERTEX
 8
WIRE
 10
  1.8000
 20
  3.4000
 30
0.0
 0
SEQEND
 8
WIRE
 0
POLYLINE
 8
WIRE
 66
1
 10
0.0
 20
0.0
 30
0.0
 0
VERTEX
 8
WIRE
 10
  1.7000
 20
  3.3000
 30
0.0
 0
VERTEX
 8
WIRE
 10
  1.8000
 20
  3.3000
 30
0.0
 0
SEQEND
 8
WIRE
 0
POLYLINE
 8
WIRE
 66
1
 10
0.0
 20
0.0
 30
0.0
 0
VERTEX
 8
WIRE
 10
  1.7000
 20
  3.2000
 30
0.0
 0
VERTEX
 8
WIRE
 10
  1.8000
 20
  3.2000
 30
0.0
 0
SEQEND
 8
WIRE
 0
POLYLINE
 8
WIRE
 66
1
 10
0.0
 20
0.0
 30
0.0
 0
VERTEX
 8
WIRE
 10
  2.8000
 20
  3.4000
 30
0.0
 0
VERTEX
 8
WIRE
 10
  2.9000
 20
  3.4000
 30
0.0
 0
SEQEND
 8
WIRE
 0
POLYLINE
 8
WIRE
 66
1
 10
0.0
 20
0.0
 30
0.0
 0
VERTEX
 8
WIRE
 10
  2.8000
 20
  3.2000
 30
0.0
 0
VERTEX
 8
WIRE
 10
  2.9000
 20
  3.2000
 30
0.0
 0
SEQEND
 8
WIRE
 0
POLYLINE
 8
WIRE
 66
1
 10
0.0
 20
0.0
 30
0.0
 0
VERTEX
 8
WIRE
 10
  2.8000
 20
  4.0000
 30
0.0
 0
VERTEX
 8
WIRE
 10
  2.9000
 20
  4.0000
 30
0.0
 0
SEQEND
 8
WIRE
 0
POLYLINE
 8
WIRE
 66
1
 10
0.0
 20
0.0
 30
0.0
 0
VERTEX
 8
WIRE
 10
  2.8000
 20
  3.8000
 30
0.0
 0
VERTEX
 8
WIRE
 10
  2.9000
 20
  3.8000
 30
0.0
 0
SEQEND
 8
WIRE
 0
POLYLINE
 8
WIRE
 66
1
 10
0.0
 20
0.0
 30
0.0
 0
VERTEX
 8
WIRE
 10
  2.8000
 20
  3.6000
 30
0.0
 0
VERTEX
 8
WIRE
 10
  2.9000
 20
  3.6000
 30
0.0
 0
SEQEND
 8
WIRE
 0
POLYLINE
 8
WIRE
 66
1
 10
0.0
 20
0.0
 30
0.0
 0
VERTEX
 8
WIRE
 10
  2.8000
 20
  4.1000
 30
0.0
 0
VERTEX
 8
WIRE
 10
  2.9000
 20
  4.1000
 30
0.0
 0
SEQEND
 8
WIRE
 0
POLYLINE
 8
WIRE
 66
1
 10
0.0
 20
0.0
 30
0.0
 0
VERTEX
 8
WIRE
 10
  2.9000
 20
  3.9000
 30
0.0
 0
VERTEX
 8
WIRE
 10
  2.8000
 20
  3.9000
 30
0.0
 0
SEQEND
 8
WIRE
 0
POLYLINE
 8
WIRE
 66
1
 10
0.0
 20
0.0
 30
0.0
 0
VERTEX
 8
WIRE
 10
  2.8000
 20
  3.7000
 30
0.0
 0
VERTEX
 8
WIRE
 10
  2.9000
 20
  3.7000
 30
0.0
 0
SEQEND
 8
WIRE
 0
POLYLINE
 8
WIRE
 66
1
 10
0.0
 20
0.0
 30
0.0
 0
VERTEX
 8
WIRE
 10
  2.9000
 20
  3.5000
 30
0.0
 0
VERTEX
 8
WIRE
 10
  2.8000
 20
  3.5000
 30
0.0
 0
SEQEND
 8
WIRE
 0
POLYLINE
 8
WIRE
 66
1
 10
0.0
 20
0.0
 30
0.0
 0
VERTEX
 8
WIRE
 10
  2.8000
 20
  3.3000
 30
0.0
 0
VERTEX
 8
WIRE
 10
  2.9000
 20
  3.3000
 30
0.0
 0
SEQEND
 8
WIRE
 0
POLYLINE
 8
WIRE
 66
1
 10
0.0
 20
0.0
 30
0.0
 0
VERTEX
 8
WIRE
 10
  6.6000
 20
  5.2000
 30
0.0
 0
VERTEX
 8
WIRE
 10
  6.5000
 20
  5.2000
 30
0.0
 0
SEQEND
 8
WIRE
 0
POLYLINE
 8
WIRE
 66
1
 10
0.0
 20
0.0
 30
0.0
 0
VERTEX
 8
WIRE
 10
  6.6000
 20
  5.3000
 30
0.0
 0
VERTEX
 8
WIRE
 10
  6.5000
 20
  5.3000
 30
0.0
 0
SEQEND
 8
WIRE
 0
POLYLINE
 8
WIRE
 66
1
 10
0.0
 20
0.0
 30
0.0
 0
VERTEX
 8
WIRE
 10
  6.6000
 20
  5.1000
 30
0.0
 0
VERTEX
 8
WIRE
 10
  6.5000
 20
  5.1000
 30
0.0
 0
SEQEND
 8
WIRE
 0
POLYLINE
 8
WIRE
 66
1
 10
0.0
 20
0.0
 30
0.0
 0
VERTEX
 8
WIRE
 10
  6.5000
 20
  5.0000
 30
0.0
 0
VERTEX
 8
WIRE
 10
  6.6000
 20
  5.0000
 30
0.0
 0
SEQEND
 8
WIRE
 0
POLYLINE
 8
WIRE
 66
1
 10
0.0
 20
0.0
 30
0.0
 0
VERTEX
 8
WIRE
 10
  6.5000
 20
  4.9000
 30
0.0
 0
VERTEX
 8
WIRE
 10
  6.6000
 20
  4.9000
 30
0.0
 0
SEQEND
 8
WIRE
 0
POLYLINE
 8
WIRE
 66
1
 10
0.0
 20
0.0
 30
0.0
 0
VERTEX
 8
WIRE
 10
  6.5000
 20
  4.8000
 30
0.0
 0
VERTEX
 8
WIRE
 10
  6.6000
 20
  4.8000
 30
0.0
 0
SEQEND
 8
WIRE
 0
POLYLINE
 8
WIRE
 66
1
 10
0.0
 20
0.0
 30
0.0
 0
VERTEX
 8
WIRE
 10
  5.4000
 20
  5.2000
 30
0.0
 0
VERTEX
 8
WIRE
 10
  5.5000
 20
  5.2000
 30
0.0
 0
SEQEND
 8
WIRE
 0
POLYLINE
 8
WIRE
 66
1
 10
0.0
 20
0.0
 30
0.0
 0
VERTEX
 8
WIRE
 10
  5.5000
 20
  5.3000
 30
0.0
 0
VERTEX
 8
WIRE
 10
  5.4000
 20
  5.3000
 30
0.0
 0
SEQEND
 8
WIRE
 0
POLYLINE
 8
WIRE
 66
1
 10
0.0
 20
0.0
 30
0.0
 0
VERTEX
 8
WIRE
 10
  5.4000
 20
  5.1000
 30
0.0
 0
VERTEX
 8
WIRE
 10
  5.5000
 20
  5.1000
 30
0.0
 0
SEQEND
 8
WIRE
 0
POLYLINE
 8
WIRE
 66
1
 10
0.0
 20
0.0
 30
0.0
 0
VERTEX
 8
WIRE
 10
  5.4000
 20
  5.0000
 30
0.0
 0
VERTEX
 8
WIRE
 10
  5.5000
 20
  5.0000
 30
0.0
 0
SEQEND
 8
WIRE
 0
POLYLINE
 8
WIRE
 66
1
 10
0.0
 20
0.0
 30
0.0
 0
VERTEX
 8
WIRE
 10
  6.5000
 20
  5.4000
 30
0.0
 0
VERTEX
 8
WIRE
 10
  6.6000
 20
  5.4000
 30
0.0
 0
SEQEND
 8
WIRE
 0
POLYLINE
 8
WIRE
 66
1
 10
0.0
 20
0.0
 30
0.0
 0
VERTEX
 8
WIRE
 10
  6.6000
 20
  5.4000
 30
0.0
 0
VERTEX
 8
WIRE
 10
  6.6000
 20
  5.5000
 30
0.0
 0
SEQEND
 8
WIRE
 0
POLYLINE
 8
WIRE
 66
1
 10
0.0
 20
0.0
 30
0.0
 0
VERTEX
 8
WIRE
 10
  5.3000
 20
  5.5000
 30
0.0
 0
VERTEX
 8
WIRE
 10
  5.3000
 20
  5.4000
 30
0.0
 0
SEQEND
 8
WIRE
 0
POLYLINE
 8
WIRE
 66
1
 10
0.0
 20
0.0
 30
0.0
 0
VERTEX
 8
WIRE
 10
  5.3000
 20
  5.4000
 30
0.0
 0
VERTEX
 8
WIRE
 10
  5.5000
 20
  5.4000
 30
0.0
 0
SEQEND
 8
WIRE
 0
POLYLINE
 8
WIRE
 66
1
 10
0.0
 20
0.0
 30
0.0
 0
VERTEX
 8
WIRE
 10
  1.8000
 20
  5.4000
 30
0.0
 0
VERTEX
 8
WIRE
 10
  1.5000
 20
  5.4000
 30
0.0
 0
SEQEND
 8
WIRE
 0
POLYLINE
 8
WIRE
 66
1
 10
0.0
 20
0.0
 30
0.0
 0
VERTEX
 8
WIRE
 10
  2.8000
 20
  5.4000
 30
0.0
 0
VERTEX
 8
WIRE
 10
  3.1000
 20
  5.4000
 30
0.0
 0
SEQEND
 8
WIRE
 0
POLYLINE
 8
WIRE
 66
1
 10
0.0
 20
0.0
 30
0.0
 0
VERTEX
 8
WIRE
 10
  5.2000
 20
  3.0000
 30
0.0
 0
VERTEX
 8
WIRE
 10
  5.2000
 20
  3.2000
 30
0.0
 0
SEQEND
 8
WIRE
 0
POLYLINE
 8
WIRE
 66
1
 10
0.0
 20
0.0
 30
0.0
 0
VERTEX
 8
WIRE
 10
  5.2000
 20
  3.3000
 30
0.0
 0
VERTEX
 8
WIRE
 10
  5.5000
 20
  3.3000
 30
0.0
 0
SEQEND
 8
WIRE
 0
POLYLINE
 8
WIRE
 66
1
 10
0.0
 20
0.0
 30
0.0
 0
VERTEX
 8
WIRE
 10
  5.2000
 20
  3.2000
 30
0.0
 0
VERTEX
 8
WIRE
 10
  5.5000
 20
  3.2000
 30
0.0
 0
SEQEND
 8
WIRE
 0
POLYLINE
 8
WIRE
 66
1
 10
0.0
 20
0.0
 30
0.0
 0
VERTEX
 8
WIRE
 10
  5.2000
 20
  3.2000
 30
0.0
 0
VERTEX
 8
WIRE
 10
  5.2000
 20
  3.3000
 30
0.0
 0
SEQEND
 8
WIRE
 0
POLYLINE
 8
WIRE
 66
1
 70
1
 10
0.0
 20
0.0
 30
0.0
 40
  0.0200
 41
  0.0200
 0
VERTEX
 8
WIRE
 10
  5.1900
 20
  3.2000
 30
0.0
 42
1.0
 0
VERTEX
 8
WIRE
 10
  5.2100
 20
  3.2000
 30
0.0
 42
1.0
 0
SEQEND
 8
WIRE
 0
POLYLINE
 8
WIRE
 66
1
 10
0.0
 20
0.0
 30
0.0
 0
VERTEX
 8
WIRE
 10
  6.5000
 20
  3.2000
 30
0.0
 0
VERTEX
 8
WIRE
 10
  6.7000
 20
  3.2000
 30
0.0
 0
SEQEND
 8
WIRE
 0
POLYLINE
 8
WIRE
 66
1
 10
0.0
 20
0.0
 30
0.0
 0
VERTEX
 8
WIRE
 10
  6.7000
 20
  3.2000
 30
0.0
 0
VERTEX
 8
WIRE
 10
  6.7000
 20
  2.9000
 30
0.0
 0
SEQEND
 8
WIRE
 0
POLYLINE
 8
WIRE
 66
1
 70
1
 10
0.0
 20
0.0
 30
0.0
 40
  0.0200
 41
  0.0200
 0
VERTEX
 8
WIRE
 10
  6.6900
 20
  3.2000
 30
0.0
 42
1.0
 0
VERTEX
 8
WIRE
 10
  6.7100
 20
  3.2000
 30
0.0
 42
1.0
 0
SEQEND
 8
WIRE
 0
POLYLINE
 8
WIRE
 66
1
 10
0.0
 20
0.0
 30
0.0
 0
VERTEX
 8
WIRE
 10
  6.5000
 20
  3.3000
 30
0.0
 0
VERTEX
 8
WIRE
 10
  6.7000
 20
  3.3000
 30
0.0
 0
SEQEND
 8
WIRE
 0
POLYLINE
 8
WIRE
 66
1
 10
0.0
 20
0.0
 30
0.0
 0
VERTEX
 8
WIRE
 10
  6.7000
 20
  3.3000
 30
0.0
 0
VERTEX
 8
WIRE
 10
  6.7000
 20
  3.2000
 30
0.0
 0
SEQEND
 8
WIRE
 0
POLYLINE
 8
WIRE
 66
1
 10
0.0
 20
0.0
 30
0.0
 0
VERTEX
 8
WIRE
 10
  5.4000
 20
  4.9000
 30
0.0
 0
VERTEX
 8
WIRE
 10
  5.5000
 20
  4.9000
 30
0.0
 0
SEQEND
 8
WIRE
 0
POLYLINE
 8
WIRE
 66
1
 10
0.0
 20
0.0
 30
0.0
 0
VERTEX
 8
WIRE
 10
  5.4000
 20
  4.8000
 30
0.0
 0
VERTEX
 8
WIRE
 10
  5.5000
 20
  4.8000
 30
0.0
 0
SEQEND
 8
WIRE
 0
POLYLINE
 8
WIRE
 66
1
 10
0.0
 20
0.0
 30
0.0
 0
VERTEX
 8
WIRE
 10
  5.4000
 20
  4.5000
 30
0.0
 0
VERTEX
 8
WIRE
 10
  5.5000
 20
  4.5000
 30
0.0
 0
SEQEND
 8
WIRE
 0
POLYLINE
 8
WIRE
 66
1
 10
0.0
 20
0.0
 30
0.0
 0
VERTEX
 8
WIRE
 10
  5.4000
 20
  4.4000
 30
0.0
 0
VERTEX
 8
WIRE
 10
  5.5000
 20
  4.4000
 30
0.0
 0
SEQEND
 8
WIRE
 0
POLYLINE
 8
WIRE
 66
1
 10
0.0
 20
0.0
 30
0.0
 0
VERTEX
 8
WIRE
 10
  1.7000
 20
  4.4000
 30
0.0
 0
VERTEX
 8
WIRE
 10
  1.8000
 20
  4.4000
 30
0.0
 0
SEQEND
 8
WIRE
 0
POLYLINE
 8
WIRE
 66
1
 10
0.0
 20
0.0
 30
0.0
 0
VERTEX
 8
WIRE
 10
  1.7000
 20
  4.2000
 30
0.0
 0
VERTEX
 8
WIRE
 10
  1.8000
 20
  4.2000
 30
0.0
 0
SEQEND
 8
WIRE
 0
POLYLINE
 8
WIRE
 66
1
 10
0.0
 20
0.0
 30
0.0
 0
VERTEX
 8
WIRE
 10
  5.4000
 20
  3.5000
 30
0.0
 0
VERTEX
 8
WIRE
 10
  5.5000
 20
  3.5000
 30
0.0
 0
SEQEND
 8
WIRE
 0
POLYLINE
 8
WIRE
 66
1
 10
0.0
 20
0.0
 30
0.0
 0
VERTEX
 8
WIRE
 10
  5.4000
 20
  3.7000
 30
0.0
 0
VERTEX
 8
WIRE
 10
  5.5000
 20
  3.7000
 30
0.0
 0
SEQEND
 8
WIRE
 0
POLYLINE
 8
WIRE
 66
1
 10
0.0
 20
0.0
 30
0.0
 0
VERTEX
 8
WIRE
 10
  5.5000
 20
  3.8000
 30
0.0
 0
VERTEX
 8
WIRE
 10
  5.4000
 20
  3.8000
 30
0.0
 0
SEQEND
 8
WIRE
 0
POLYLINE
 8
WIRE
 66
1
 10
0.0
 20
0.0
 30
0.0
 0
VERTEX
 8
WIRE
 10
  5.4000
 20
  3.9000
 30
0.0
 0
VERTEX
 8
WIRE
 10
  5.5000
 20
  3.9000
 30
0.0
 0
SEQEND
 8
WIRE
 0
POLYLINE
 8
WIRE
 66
1
 10
0.0
 20
0.0
 30
0.0
 0
VERTEX
 8
WIRE
 10
  6.5000
 20
  4.7000
 30
0.0
 0
VERTEX
 8
WIRE
 10
  6.6000
 20
  4.7000
 30
0.0
 0
SEQEND
 8
WIRE
 0
POLYLINE
 8
WIRE
 66
1
 10
0.0
 20
0.0
 30
0.0
 0
VERTEX
 8
WIRE
 10
  6.5000
 20
  4.0000
 30
0.0
 0
VERTEX
 8
WIRE
 10
  6.6000
 20
  4.0000
 30
0.0
 0
SEQEND
 8
WIRE
 0
POLYLINE
 8
WIRE
 66
1
 10
0.0
 20
0.0
 30
0.0
 0
VERTEX
 8
WIRE
 10
  6.5000
 20
  4.1000
 30
0.0
 0
VERTEX
 8
WIRE
 10
  6.6000
 20
  4.1000
 30
0.0
 0
SEQEND
 8
WIRE
 0
TEXT
 8
PARTTEXT
 10
  5.2700
 20
  5.6472
 30
0.0
 40
  0.0628
 1
0
 0
POLYLINE
 8
PARTS
 66
1
 10
0.0
 20
0.0
 30
0.0
 0
VERTEX
 8
PARTS
 10
  5.4000
 20
  5.5000
 30
0.0
 0
VERTEX
 8
PARTS
 10
  5.2000
 20
  5.5000
 30
0.0
 0
SEQEND
 8
PARTS
 0
POLYLINE
 8
PARTS
 66
1
 10
0.0
 20
0.0
 30
0.0
 0
VERTEX
 8
PARTS
 10
  5.3700
 20
  5.5300
 30
0.0
 0
VERTEX
 8
PARTS
 10
  5.2300
 20
  5.5300
 30
0.0
 0
SEQEND
 8
PARTS
 0
POLYLINE
 8
PARTS
 66
1
 10
0.0
 20
0.0
 30
0.0
 0
VERTEX
 8
PARTS
 10
  5.2600
 20
  5.5600
 30
0.0
 0
VERTEX
 8
PARTS
 10
  5.3400
 20
  5.5600
 30
0.0
 0
SEQEND
 8
PARTS
 0
POLYLINE
 8
PARTS
 66
1
 10
0.0
 20
0.0
 30
0.0
 0
VERTEX
 8
PARTS
 10
  5.3100
 20
  5.5900
 30
0.0
 0
VERTEX
 8
PARTS
 10
  5.2900
 20
  5.5900
 30
0.0
 0
SEQEND
 8
PARTS
 0
TEXT
 8
PARTTEXT
 10
  6.5700
 20
  5.6472
 30
0.0
 40
  0.0628
 1
0
 0
POLYLINE
 8
PARTS
 66
1
 10
0.0
 20
0.0
 30
0.0
 0
VERTEX
 8
PARTS
 10
  6.7000
 20
  5.5000
 30
0.0
 0
VERTEX
 8
PARTS
 10
  6.5000
 20
  5.5000
 30
0.0
 0
SEQEND
 8
PARTS
 0
POLYLINE
 8
PARTS
 66
1
 10
0.0
 20
0.0
 30
0.0
 0
VERTEX
 8
PARTS
 10
  6.6700
 20
  5.5300
 30
0.0
 0
VERTEX
 8
PARTS
 10
  6.5300
 20
  5.5300
 30
0.0
 0
SEQEND
 8
PARTS
 0
POLYLINE
 8
PARTS
 66
1
 10
0.0
 20
0.0
 30
0.0
 0
VERTEX
 8
PARTS
 10
  6.5600
 20
  5.5600
 30
0.0
 0
VERTEX
 8
PARTS
 10
  6.6400
 20
  5.5600
 30
0.0
 0
SEQEND
 8
PARTS
 0
POLYLINE
 8
PARTS
 66
1
 10
0.0
 20
0.0
 30
0.0
 0
VERTEX
 8
PARTS
 10
  6.6100
 20
  5.5900
 30
0.0
 0
VERTEX
 8
PARTS
 10
  6.5900
 20
  5.5900
 30
0.0
 0
SEQEND
 8
PARTS
 0
TEXT
 8
PARTTEXT
 10
  3.2000
 20
  5.3772
 30
0.0
 40
  0.0628
 1
0
 0
POLYLINE
 8
PARTS
 66
1
 10
0.0
 20
0.0
 30
0.0
 0
VERTEX
 8
PARTS
 10
  3.1000
 20
  5.3000
 30
0.0
 0
VERTEX
 8
PARTS
 10
  3.1000
 20
  5.5000
 30
0.0
 0
SEQEND
 8
PARTS
 0
POLYLINE
 8
PARTS
 66
1
 10
0.0
 20
0.0
 30
0.0
 0
VERTEX
 8
PARTS
 10
  3.1300
 20
  5.3300
 30
0.0
 0
VERTEX
 8
PARTS
 10
  3.1300
 20
  5.4700
 30
0.0
 0
SEQEND
 8
PARTS
 0
POLYLINE
 8
PARTS
 66
1
 10
0.0
 20
0.0
 30
0.0
 0
VERTEX
 8
PARTS
 10
  3.1600
 20
  5.4400
 30
0.0
 0
VERTEX
 8
PARTS
 10
  3.1600
 20
  5.3600
 30
0.0
 0
SEQEND
 8
PARTS
 0
POLYLINE
 8
PARTS
 66
1
 10
0.0
 20
0.0
 30
0.0
 0
VERTEX
 8
PARTS
 10
  3.1900
 20
  5.3900
 30
0.0
 0
VERTEX
 8
PARTS
 10
  3.1900
 20
  5.4100
 30
0.0
 0
SEQEND
 8
PARTS
 0
TEXT
 8
PARTTEXT
 10
  1.3400
 20
  5.3772
 30
0.0
 40
  0.0628
 1
0
 0
POLYLINE
 8
PARTS
 66
1
 10
0.0
 20
0.0
 30
0.0
 0
VERTEX
 8
PARTS
 10
  1.5000
 20
  5.5000
 30
0.0
 0
VERTEX
 8
PARTS
 10
  1.5000
 20
  5.3000
 30
0.0
 0
SEQEND
 8
PARTS
 0
POLYLINE
 8
PARTS
 66
1
 10
0.0
 20
0.0
 30
0.0
 0
VERTEX
 8
PARTS
 10
  1.4700
 20
  5.4700
 30
0.0
 0
VERTEX
 8
PARTS
 10
  1.4700
 20
  5.3300
 30
0.0
 0
SEQEND
 8
PARTS
 0
POLYLINE
 8
PARTS
 66
1
 10
0.0
 20
0.0
 30
0.0
 0
VERTEX
 8
PARTS
 10
  1.4400
 20
  5.3600
 30
0.0
 0
VERTEX
 8
PARTS
 10
  1.4400
 20
  5.4400
 30
0.0
 0
SEQEND
 8
PARTS
 0
POLYLINE
 8
PARTS
 66
1
 10
0.0
 20
0.0
 30
0.0
 0
VERTEX
 8
PARTS
 10
  1.4100
 20
  5.4100
 30
0.0
 0
VERTEX
 8
PARTS
 10
  1.4100
 20
  5.3900
 30
0.0
 0
SEQEND
 8
PARTS
 0
TEXT
 8
PARTTEXT
 10
  6.7600
 20
  2.7572
 30
0.0
 40
  0.0628
 1
0
 0
POLYLINE
 8
PARTS
 66
1
 10
0.0
 20
0.0
 30
0.0
 0
VERTEX
 8
PARTS
 10
  6.6000
 20
  2.9000
 30
0.0
 0
VERTEX
 8
PARTS
 10
  6.8000
 20
  2.9000
 30
0.0
 0
SEQEND
 8
PARTS
 0
POLYLINE
 8
PARTS
 66
1
 10
0.0
 20
0.0
 30
0.0
 0
VERTEX
 8
PARTS
 10
  6.6300
 20
  2.8700
 30
0.0
 0
VERTEX
 8
PARTS
 10
  6.7700
 20
  2.8700
 30
0.0
 0
SEQEND
 8
PARTS
 0
POLYLINE
 8
PARTS
 66
1
 10
0.0
 20
0.0
 30
0.0
 0
VERTEX
 8
PARTS
 10
  6.7400
 20
  2.8400
 30
0.0
 0
VERTEX
 8
PARTS
 10
  6.6600
 20
  2.8400
 30
0.0
 0
SEQEND
 8
PARTS
 0
POLYLINE
 8
PARTS
 66
1
 10
0.0
 20
0.0
 30
0.0
 0
VERTEX
 8
PARTS
 10
  6.6900
 20
  2.8100
 30
0.0
 0
VERTEX
 8
PARTS
 10
  6.7100
 20
  2.8100
 30
0.0
 0
SEQEND
 8
PARTS
 0
TEXT
 8
PARTTEXT
 10
  5.2600
 20
  2.8572
 30
0.0
 40
  0.0628
 1
0
 0
POLYLINE
 8
PARTS
 66
1
 10
0.0
 20
0.0
 30
0.0
 0
VERTEX
 8
PARTS
 10
  5.1000
 20
  3.0000
 30
0.0
 0
VERTEX
 8
PARTS
 10
  5.3000
 20
  3.0000
 30
0.0
 0
SEQEND
 8
PARTS
 0
POLYLINE
 8
PARTS
 66
1
 10
0.0
 20
0.0
 30
0.0
 0
VERTEX
 8
PARTS
 10
  5.1300
 20
  2.9700
 30
0.0
 0
VERTEX
 8
PARTS
 10
  5.2700
 20
  2.9700
 30
0.0
 0
SEQEND
 8
PARTS
 0
POLYLINE
 8
PARTS
 66
1
 10
0.0
 20
0.0
 30
0.0
 0
VERTEX
 8
PARTS
 10
  5.2400
 20
  2.9400
 30
0.0
 0
VERTEX
 8
PARTS
 10
  5.1600
 20
  2.9400
 30
0.0
 0
SEQEND
 8
PARTS
 0
POLYLINE
 8
PARTS
 66
1
 10
0.0
 20
0.0
 30
0.0
 0
VERTEX
 8
PARTS
 10
  5.1900
 20
  2.9100
 30
0.0
 0
VERTEX
 8
PARTS
 10
  5.2100
 20
  2.9100
 30
0.0
 0
SEQEND
 8
PARTS
 0
TEXT
 8
PARTTEXT
 10
  1.0300
 20
  4.0586
 30
0.0
 40
  0.0514
 1
LCD_VSYNC
 0
POLYLINE
 8
PARTS
 66
1
 10
0.0
 20
0.0
 30
0.0
 0
VERTEX
 8
PARTS
 10
  1.6000
 20
  4.1000
 30
0.0
 0
VERTEX
 8
PARTS
 10
  1.6500
 20
  4.1500
 30
0.0
 0
SEQEND
 8
PARTS
 0
POLYLINE
 8
PARTS
 66
1
 10
0.0
 20
0.0
 30
0.0
 0
VERTEX
 8
PARTS
 10
  1.6000
 20
  4.1000
 30
0.0
 0
VERTEX
 8
PARTS
 10
  1.6500
 20
  4.0500
 30
0.0
 0
SEQEND
 8
PARTS
 0
POLYLINE
 8
PARTS
 66
1
 10
0.0
 20
0.0
 30
0.0
 0
VERTEX
 8
PARTS
 10
  1.6500
 20
  4.1000
 30
0.0
 0
VERTEX
 8
PARTS
 10
  1.7000
 20
  4.1500
 30
0.0
 0
SEQEND
 8
PARTS
 0
POLYLINE
 8
PARTS
 66
1
 10
0.0
 20
0.0
 30
0.0
 0
VERTEX
 8
PARTS
 10
  1.6500
 20
  4.1000
 30
0.0
 0
VERTEX
 8
PARTS
 10
  1.7000
 20
  4.0500
 30
0.0
 0
SEQEND
 8
PARTS
 0
TEXT
 8
PARTTEXT
 10
  1.0300
 20
  3.8586
 30
0.0
 40
  0.0514
 1
LCD_DATA14
 0
POLYLINE
 8
PARTS
 66
1
 10
0.0
 20
0.0
 30
0.0
 0
VERTEX
 8
PARTS
 10
  1.6000
 20
  3.9000
 30
0.0
 0
VERTEX
 8
PARTS
 10
  1.6500
 20
  3.9500
 30
0.0
 0
SEQEND
 8
PARTS
 0
POLYLINE
 8
PARTS
 66
1
 10
0.0
 20
0.0
 30
0.0
 0
VERTEX
 8
PARTS
 10
  1.6000
 20
  3.9000
 30
0.0
 0
VERTEX
 8
PARTS
 10
  1.6500
 20
  3.8500
 30
0.0
 0
SEQEND
 8
PARTS
 0
POLYLINE
 8
PARTS
 66
1
 10
0.0
 20
0.0
 30
0.0
 0
VERTEX
 8
PARTS
 10
  1.6500
 20
  3.9000
 30
0.0
 0
VERTEX
 8
PARTS
 10
  1.7000
 20
  3.9500
 30
0.0
 0
SEQEND
 8
PARTS
 0
POLYLINE
 8
PARTS
 66
1
 10
0.0
 20
0.0
 30
0.0
 0
VERTEX
 8
PARTS
 10
  1.6500
 20
  3.9000
 30
0.0
 0
VERTEX
 8
PARTS
 10
  1.7000
 20
  3.8500
 30
0.0
 0
SEQEND
 8
PARTS
 0
TEXT
 8
PARTTEXT
 10
  1.0300
 20
  3.5586
 30
0.0
 40
  0.0514
 1
LCD_DATA8
 0
POLYLINE
 8
PARTS
 66
1
 10
0.0
 20
0.0
 30
0.0
 0
VERTEX
 8
PARTS
 10
  1.6000
 20
  3.6000
 30
0.0
 0
VERTEX
 8
PARTS
 10
  1.6500
 20
  3.6500
 30
0.0
 0
SEQEND
 8
PARTS
 0
POLYLINE
 8
PARTS
 66
1
 10
0.0
 20
0.0
 30
0.0
 0
VERTEX
 8
PARTS
 10
  1.6000
 20
  3.6000
 30
0.0
 0
VERTEX
 8
PARTS
 10
  1.6500
 20
  3.5500
 30
0.0
 0
SEQEND
 8
PARTS
 0
POLYLINE
 8
PARTS
 66
1
 10
0.0
 20
0.0
 30
0.0
 0
VERTEX
 8
PARTS
 10
  1.6500
 20
  3.6000
 30
0.0
 0
VERTEX
 8
PARTS
 10
  1.7000
 20
  3.6500
 30
0.0
 0
SEQEND
 8
PARTS
 0
POLYLINE
 8
PARTS
 66
1
 10
0.0
 20
0.0
 30
0.0
 0
VERTEX
 8
PARTS
 10
  1.6500
 20
  3.6000
 30
0.0
 0
VERTEX
 8
PARTS
 10
  1.7000
 20
  3.5500
 30
0.0
 0
SEQEND
 8
PARTS
 0
TEXT
 8
PARTTEXT
 10
  1.0300
 20
  3.3586
 30
0.0
 40
  0.0514
 1
LCD_DATA4
 0
POLYLINE
 8
PARTS
 66
1
 10
0.0
 20
0.0
 30
0.0
 0
VERTEX
 8
PARTS
 10
  1.6000
 20
  3.4000
 30
0.0
 0
VERTEX
 8
PARTS
 10
  1.6500
 20
  3.4500
 30
0.0
 0
SEQEND
 8
PARTS
 0
POLYLINE
 8
PARTS
 66
1
 10
0.0
 20
0.0
 30
0.0
 0
VERTEX
 8
PARTS
 10
  1.6000
 20
  3.4000
 30
0.0
 0
VERTEX
 8
PARTS
 10
  1.6500
 20
  3.3500
 30
0.0
 0
SEQEND
 8
PARTS
 0
POLYLINE
 8
PARTS
 66
1
 10
0.0
 20
0.0
 30
0.0
 0
VERTEX
 8
PARTS
 10
  1.6500
 20
  3.4000
 30
0.0
 0
VERTEX
 8
PARTS
 10
  1.7000
 20
  3.4500
 30
0.0
 0
SEQEND
 8
PARTS
 0
POLYLINE
 8
PARTS
 66
1
 10
0.0
 20
0.0
 30
0.0
 0
VERTEX
 8
PARTS
 10
  1.6500
 20
  3.4000
 30
0.0
 0
VERTEX
 8
PARTS
 10
  1.7000
 20
  3.3500
 30
0.0
 0
SEQEND
 8
PARTS
 0
TEXT
 8
PARTTEXT
 10
  1.0300
 20
  3.1586
 30
0.0
 40
  0.0514
 1
LCD_DATA0
 0
POLYLINE
 8
PARTS
 66
1
 10
0.0
 20
0.0
 30
0.0
 0
VERTEX
 8
PARTS
 10
  1.6000
 20
  3.2000
 30
0.0
 0
VERTEX
 8
PARTS
 10
  1.6500
 20
  3.2500
 30
0.0
 0
SEQEND
 8
PARTS
 0
POLYLINE
 8
PARTS
 66
1
 10
0.0
 20
0.0
 30
0.0
 0
VERTEX
 8
PARTS
 10
  1.6000
 20
  3.2000
 30
0.0
 0
VERTEX
 8
PARTS
 10
  1.6500
 20
  3.1500
 30
0.0
 0
SEQEND
 8
PARTS
 0
POLYLINE
 8
PARTS
 66
1
 10
0.0
 20
0.0
 30
0.0
 0
VERTEX
 8
PARTS
 10
  1.6500
 20
  3.2000
 30
0.0
 0
VERTEX
 8
PARTS
 10
  1.7000
 20
  3.2500
 30
0.0
 0
SEQEND
 8
PARTS
 0
POLYLINE
 8
PARTS
 66
1
 10
0.0
 20
0.0
 30
0.0
 0
VERTEX
 8
PARTS
 10
  1.6500
 20
  3.2000
 30
0.0
 0
VERTEX
 8
PARTS
 10
  1.7000
 20
  3.1500
 30
0.0
 0
SEQEND
 8
PARTS
 0
TEXT
 8
PARTTEXT
 10
  1.0300
 20
  3.2586
 30
0.0
 40
  0.0514
 1
LCD_DATA2
 0
POLYLINE
 8
PARTS
 66
1
 10
0.0
 20
0.0
 30
0.0
 0
VERTEX
 8
PARTS
 10
  1.6000
 20
  3.3000
 30
0.0
 0
VERTEX
 8
PARTS
 10
  1.6500
 20
  3.3500
 30
0.0
 0
SEQEND
 8
PARTS
 0
POLYLINE
 8
PARTS
 66
1
 10
0.0
 20
0.0
 30
0.0
 0
VERTEX
 8
PARTS
 10
  1.6000
 20
  3.3000
 30
0.0
 0
VERTEX
 8
PARTS
 10
  1.6500
 20
  3.2500
 30
0.0
 0
SEQEND
 8
PARTS
 0
POLYLINE
 8
PARTS
 66
1
 10
0.0
 20
0.0
 30
0.0
 0
VERTEX
 8
PARTS
 10
  1.6500
 20
  3.3000
 30
0.0
 0
VERTEX
 8
PARTS
 10
  1.7000
 20
  3.3500
 30
0.0
 0
SEQEND
 8
PARTS
 0
POLYLINE
 8
PARTS
 66
1
 10
0.0
 20
0.0
 30
0.0
 0
VERTEX
 8
PARTS
 10
  1.6500
 20
  3.3000
 30
0.0
 0
VERTEX
 8
PARTS
 10
  1.7000
 20
  3.2500
 30
0.0
 0
SEQEND
 8
PARTS
 0
TEXT
 8
PARTTEXT
 10
  1.0300
 20
  3.4586
 30
0.0
 40
  0.0514
 1
LCD_DATA6
 0
POLYLINE
 8
PARTS
 66
1
 10
0.0
 20
0.0
 30
0.0
 0
VERTEX
 8
PARTS
 10
  1.6000
 20
  3.5000
 30
0.0
 0
VERTEX
 8
PARTS
 10
  1.6500
 20
  3.5500
 30
0.0
 0
SEQEND
 8
PARTS
 0
POLYLINE
 8
PARTS
 66
1
 10
0.0
 20
0.0
 30
0.0
 0
VERTEX
 8
PARTS
 10
  1.6000
 20
  3.5000
 30
0.0
 0
VERTEX
 8
PARTS
 10
  1.6500
 20
  3.4500
 30
0.0
 0
SEQEND
 8
PARTS
 0
POLYLINE
 8
PARTS
 66
1
 10
0.0
 20
0.0
 30
0.0
 0
VERTEX
 8
PARTS
 10
  1.6500
 20
  3.5000
 30
0.0
 0
VERTEX
 8
PARTS
 10
  1.7000
 20
  3.5500
 30
0.0
 0
SEQEND
 8
PARTS
 0
POLYLINE
 8
PARTS
 66
1
 10
0.0
 20
0.0
 30
0.0
 0
VERTEX
 8
PARTS
 10
  1.6500
 20
  3.5000
 30
0.0
 0
VERTEX
 8
PARTS
 10
  1.7000
 20
  3.4500
 30
0.0
 0
SEQEND
 8
PARTS
 0
TEXT
 8
PARTTEXT
 10
  1.0300
 20
  3.6586
 30
0.0
 40
  0.0514
 1
LCD_DATA12
 0
POLYLINE
 8
PARTS
 66
1
 10
0.0
 20
0.0
 30
0.0
 0
VERTEX
 8
PARTS
 10
  1.6000
 20
  3.7000
 30
0.0
 0
VERTEX
 8
PARTS
 10
  1.6500
 20
  3.7500
 30
0.0
 0
SEQEND
 8
PARTS
 0
POLYLINE
 8
PARTS
 66
1
 10
0.0
 20
0.0
 30
0.0
 0
VERTEX
 8
PARTS
 10
  1.6000
 20
  3.7000
 30
0.0
 0
VERTEX
 8
PARTS
 10
  1.6500
 20
  3.6500
 30
0.0
 0
SEQEND
 8
PARTS
 0
POLYLINE
 8
PARTS
 66
1
 10
0.0
 20
0.0
 30
0.0
 0
VERTEX
 8
PARTS
 10
  1.6500
 20
  3.7000
 30
0.0
 0
VERTEX
 8
PARTS
 10
  1.7000
 20
  3.7500
 30
0.0
 0
SEQEND
 8
PARTS
 0
POLYLINE
 8
PARTS
 66
1
 10
0.0
 20
0.0
 30
0.0
 0
VERTEX
 8
PARTS
 10
  1.6500
 20
  3.7000
 30
0.0
 0
VERTEX
 8
PARTS
 10
  1.7000
 20
  3.6500
 30
0.0
 0
SEQEND
 8
PARTS
 0
TEXT
 8
PARTTEXT
 10
  1.0300
 20
  3.7586
 30
0.0
 40
  0.0514
 1
LCD_DATA13
 0
POLYLINE
 8
PARTS
 66
1
 10
0.0
 20
0.0
 30
0.0
 0
VERTEX
 8
PARTS
 10
  1.6000
 20
  3.8000
 30
0.0
 0
VERTEX
 8
PARTS
 10
  1.6500
 20
  3.8500
 30
0.0
 0
SEQEND
 8
PARTS
 0
POLYLINE
 8
PARTS
 66
1
 10
0.0
 20
0.0
 30
0.0
 0
VERTEX
 8
PARTS
 10
  1.6000
 20
  3.8000
 30
0.0
 0
VERTEX
 8
PARTS
 10
  1.6500
 20
  3.7500
 30
0.0
 0
SEQEND
 8
PARTS
 0
POLYLINE
 8
PARTS
 66
1
 10
0.0
 20
0.0
 30
0.0
 0
VERTEX
 8
PARTS
 10
  1.6500
 20
  3.8000
 30
0.0
 0
VERTEX
 8
PARTS
 10
  1.7000
 20
  3.8500
 30
0.0
 0
SEQEND
 8
PARTS
 0
POLYLINE
 8
PARTS
 66
1
 10
0.0
 20
0.0
 30
0.0
 0
VERTEX
 8
PARTS
 10
  1.6500
 20
  3.8000
 30
0.0
 0
VERTEX
 8
PARTS
 10
  1.7000
 20
  3.7500
 30
0.0
 0
SEQEND
 8
PARTS
 0
TEXT
 8
PARTTEXT
 10
  1.0300
 20
  3.9586
 30
0.0
 40
  0.0514
 1
LCD_HSYNC
 0
POLYLINE
 8
PARTS
 66
1
 10
0.0
 20
0.0
 30
0.0
 0
VERTEX
 8
PARTS
 10
  1.6000
 20
  4.0000
 30
0.0
 0
VERTEX
 8
PARTS
 10
  1.6500
 20
  4.0500
 30
0.0
 0
SEQEND
 8
PARTS
 0
POLYLINE
 8
PARTS
 66
1
 10
0.0
 20
0.0
 30
0.0
 0
VERTEX
 8
PARTS
 10
  1.6000
 20
  4.0000
 30
0.0
 0
VERTEX
 8
PARTS
 10
  1.6500
 20
  3.9500
 30
0.0
 0
SEQEND
 8
PARTS
 0
POLYLINE
 8
PARTS
 66
1
 10
0.0
 20
0.0
 30
0.0
 0
VERTEX
 8
PARTS
 10
  1.6500
 20
  4.0000
 30
0.0
 0
VERTEX
 8
PARTS
 10
  1.7000
 20
  4.0500
 30
0.0
 0
SEQEND
 8
PARTS
 0
POLYLINE
 8
PARTS
 66
1
 10
0.0
 20
0.0
 30
0.0
 0
VERTEX
 8
PARTS
 10
  1.6500
 20
  4.0000
 30
0.0
 0
VERTEX
 8
PARTS
 10
  1.7000
 20
  3.9500
 30
0.0
 0
SEQEND
 8
PARTS
 0
TEXT
 8
PARTTEXT
 10
  3.0000
 20
  3.1786
 30
0.0
 40
  0.0514
 1
LCD_DATA1
 0
POLYLINE
 8
PARTS
 66
1
 10
0.0
 20
0.0
 30
0.0
 0
VERTEX
 8
PARTS
 10
  3.0000
 20
  3.2000
 30
0.0
 0
VERTEX
 8
PARTS
 10
  2.9500
 20
  3.1500
 30
0.0
 0
SEQEND
 8
PARTS
 0
POLYLINE
 8
PARTS
 66
1
 10
0.0
 20
0.0
 30
0.0
 0
VERTEX
 8
PARTS
 10
  3.0000
 20
  3.2000
 30
0.0
 0
VERTEX
 8
PARTS
 10
  2.9500
 20
  3.2500
 30
0.0
 0
SEQEND
 8
PARTS
 0
POLYLINE
 8
PARTS
 66
1
 10
0.0
 20
0.0
 30
0.0
 0
VERTEX
 8
PARTS
 10
  2.9500
 20
  3.2000
 30
0.0
 0
VERTEX
 8
PARTS
 10
  2.9000
 20
  3.1500
 30
0.0
 0
SEQEND
 8
PARTS
 0
POLYLINE
 8
PARTS
 66
1
 10
0.0
 20
0.0
 30
0.0
 0
VERTEX
 8
PARTS
 10
  2.9500
 20
  3.2000
 30
0.0
 0
VERTEX
 8
PARTS
 10
  2.9000
 20
  3.2500
 30
0.0
 0
SEQEND
 8
PARTS
 0
TEXT
 8
PARTTEXT
 10
  3.0000
 20
  4.0786
 30
0.0
 40
  0.0514
 1
LCD_PCLK
 0
POLYLINE
 8
PARTS
 66
1
 10
0.0
 20
0.0
 30
0.0
 0
VERTEX
 8
PARTS
 10
  3.0000
 20
  4.1000
 30
0.0
 0
VERTEX
 8
PARTS
 10
  2.9500
 20
  4.0500
 30
0.0
 0
SEQEND
 8
PARTS
 0
POLYLINE
 8
PARTS
 66
1
 10
0.0
 20
0.0
 30
0.0
 0
VERTEX
 8
PARTS
 10
  3.0000
 20
  4.1000
 30
0.0
 0
VERTEX
 8
PARTS
 10
  2.9500
 20
  4.1500
 30
0.0
 0
SEQEND
 8
PARTS
 0
POLYLINE
 8
PARTS
 66
1
 10
0.0
 20
0.0
 30
0.0
 0
VERTEX
 8
PARTS
 10
  2.9500
 20
  4.1000
 30
0.0
 0
VERTEX
 8
PARTS
 10
  2.9000
 20
  4.0500
 30
0.0
 0
SEQEND
 8
PARTS
 0
POLYLINE
 8
PARTS
 66
1
 10
0.0
 20
0.0
 30
0.0
 0
VERTEX
 8
PARTS
 10
  2.9500
 20
  4.1000
 30
0.0
 0
VERTEX
 8
PARTS
 10
  2.9000
 20
  4.1500
 30
0.0
 0
SEQEND
 8
PARTS
 0
TEXT
 8
PARTTEXT
 10
  3.0000
 20
  3.4786
 30
0.0
 40
  0.0514
 1
LCD_DATA7
 0
POLYLINE
 8
PARTS
 66
1
 10
0.0
 20
0.0
 30
0.0
 0
VERTEX
 8
PARTS
 10
  3.0000
 20
  3.5000
 30
0.0
 0
VERTEX
 8
PARTS
 10
  2.9500
 20
  3.4500
 30
0.0
 0
SEQEND
 8
PARTS
 0
POLYLINE
 8
PARTS
 66
1
 10
0.0
 20
0.0
 30
0.0
 0
VERTEX
 8
PARTS
 10
  3.0000
 20
  3.5000
 30
0.0
 0
VERTEX
 8
PARTS
 10
  2.9500
 20
  3.5500
 30
0.0
 0
SEQEND
 8
PARTS
 0
POLYLINE
 8
PARTS
 66
1
 10
0.0
 20
0.0
 30
0.0
 0
VERTEX
 8
PARTS
 10
  2.9500
 20
  3.5000
 30
0.0
 0
VERTEX
 8
PARTS
 10
  2.9000
 20
  3.4500
 30
0.0
 0
SEQEND
 8
PARTS
 0
POLYLINE
 8
PARTS
 66
1
 10
0.0
 20
0.0
 30
0.0
 0
VERTEX
 8
PARTS
 10
  2.9500
 20
  3.5000
 30
0.0
 0
VERTEX
 8
PARTS
 10
  2.9000
 20
  3.5500
 30
0.0
 0
SEQEND
 8
PARTS
 0
TEXT
 8
PARTTEXT
 10
  3.0000
 20
  3.6786
 30
0.0
 40
  0.0514
 1
LCD_DATA10
 0
POLYLINE
 8
PARTS
 66
1
 10
0.0
 20
0.0
 30
0.0
 0
VERTEX
 8
PARTS
 10
  3.0000
 20
  3.7000
 30
0.0
 0
VERTEX
 8
PARTS
 10
  2.9500
 20
  3.6500
 30
0.0
 0
SEQEND
 8
PARTS
 0
POLYLINE
 8
PARTS
 66
1
 10
0.0
 20
0.0
 30
0.0
 0
VERTEX
 8
PARTS
 10
  3.0000
 20
  3.7000
 30
0.0
 0
VERTEX
 8
PARTS
 10
  2.9500
 20
  3.7500
 30
0.0
 0
SEQEND
 8
PARTS
 0
POLYLINE
 8
PARTS
 66
1
 10
0.0
 20
0.0
 30
0.0
 0
VERTEX
 8
PARTS
 10
  2.9500
 20
  3.7000
 30
0.0
 0
VERTEX
 8
PARTS
 10
  2.9000
 20
  3.6500
 30
0.0
 0
SEQEND
 8
PARTS
 0
POLYLINE
 8
PARTS
 66
1
 10
0.0
 20
0.0
 30
0.0
 0
VERTEX
 8
PARTS
 10
  2.9500
 20
  3.7000
 30
0.0
 0
VERTEX
 8
PARTS
 10
  2.9000
 20
  3.7500
 30
0.0
 0
SEQEND
 8
PARTS
 0
TEXT
 8
PARTTEXT
 10
  3.0000
 20
  3.8786
 30
0.0
 40
  0.0514
 1
LCD_DATA15
 0
POLYLINE
 8
PARTS
 66
1
 10
0.0
 20
0.0
 30
0.0
 0
VERTEX
 8
PARTS
 10
  3.0000
 20
  3.9000
 30
0.0
 0
VERTEX
 8
PARTS
 10
  2.9500
 20
  3.8500
 30
0.0
 0
SEQEND
 8
PARTS
 0
POLYLINE
 8
PARTS
 66
1
 10
0.0
 20
0.0
 30
0.0
 0
VERTEX
 8
PARTS
 10
  3.0000
 20
  3.9000
 30
0.0
 0
VERTEX
 8
PARTS
 10
  2.9500
 20
  3.9500
 30
0.0
 0
SEQEND
 8
PARTS
 0
POLYLINE
 8
PARTS
 66
1
 10
0.0
 20
0.0
 30
0.0
 0
VERTEX
 8
PARTS
 10
  2.9500
 20
  3.9000
 30
0.0
 0
VERTEX
 8
PARTS
 10
  2.9000
 20
  3.8500
 30
0.0
 0
SEQEND
 8
PARTS
 0
POLYLINE
 8
PARTS
 66
1
 10
0.0
 20
0.0
 30
0.0
 0
VERTEX
 8
PARTS
 10
  2.9500
 20
  3.9000
 30
0.0
 0
VERTEX
 8
PARTS
 10
  2.9000
 20
  3.9500
 30
0.0
 0
SEQEND
 8
PARTS
 0
TEXT
 8
PARTTEXT
 10
  3.0000
 20
  3.2786
 30
0.0
 40
  0.0514
 1
LCD_DATA3
 0
POLYLINE
 8
PARTS
 66
1
 10
0.0
 20
0.0
 30
0.0
 0
VERTEX
 8
PARTS
 10
  3.0000
 20
  3.3000
 30
0.0
 0
VERTEX
 8
PARTS
 10
  2.9500
 20
  3.2500
 30
0.0
 0
SEQEND
 8
PARTS
 0
POLYLINE
 8
PARTS
 66
1
 10
0.0
 20
0.0
 30
0.0
 0
VERTEX
 8
PARTS
 10
  3.0000
 20
  3.3000
 30
0.0
 0
VERTEX
 8
PARTS
 10
  2.9500
 20
  3.3500
 30
0.0
 0
SEQEND
 8
PARTS
 0
POLYLINE
 8
PARTS
 66
1
 10
0.0
 20
0.0
 30
0.0
 0
VERTEX
 8
PARTS
 10
  2.9500
 20
  3.3000
 30
0.0
 0
VERTEX
 8
PARTS
 10
  2.9000
 20
  3.2500
 30
0.0
 0
SEQEND
 8
PARTS
 0
POLYLINE
 8
PARTS
 66
1
 10
0.0
 20
0.0
 30
0.0
 0
VERTEX
 8
PARTS
 10
  2.9500
 20
  3.3000
 30
0.0
 0
VERTEX
 8
PARTS
 10
  2.9000
 20
  3.3500
 30
0.0
 0
SEQEND
 8
PARTS
 0
TEXT
 8
PARTTEXT
 10
  3.0000
 20
  3.3786
 30
0.0
 40
  0.0514
 1
LCD_DATA5
 0
POLYLINE
 8
PARTS
 66
1
 10
0.0
 20
0.0
 30
0.0
 0
VERTEX
 8
PARTS
 10
  3.0000
 20
  3.4000
 30
0.0
 0
VERTEX
 8
PARTS
 10
  2.9500
 20
  3.3500
 30
0.0
 0
SEQEND
 8
PARTS
 0
POLYLINE
 8
PARTS
 66
1
 10
0.0
 20
0.0
 30
0.0
 0
VERTEX
 8
PARTS
 10
  3.0000
 20
  3.4000
 30
0.0
 0
VERTEX
 8
PARTS
 10
  2.9500
 20
  3.4500
 30
0.0
 0
SEQEND
 8
PARTS
 0
POLYLINE
 8
PARTS
 66
1
 10
0.0
 20
0.0
 30
0.0
 0
VERTEX
 8
PARTS
 10
  2.9500
 20
  3.4000
 30
0.0
 0
VERTEX
 8
PARTS
 10
  2.9000
 20
  3.3500
 30
0.0
 0
SEQEND
 8
PARTS
 0
POLYLINE
 8
PARTS
 66
1
 10
0.0
 20
0.0
 30
0.0
 0
VERTEX
 8
PARTS
 10
  2.9500
 20
  3.4000
 30
0.0
 0
VERTEX
 8
PARTS
 10
  2.9000
 20
  3.4500
 30
0.0
 0
SEQEND
 8
PARTS
 0
TEXT
 8
PARTTEXT
 10
  3.0000
 20
  3.7786
 30
0.0
 40
  0.0514
 1
LCD_DATA11
 0
POLYLINE
 8
PARTS
 66
1
 10
0.0
 20
0.0
 30
0.0
 0
VERTEX
 8
PARTS
 10
  3.0000
 20
  3.8000
 30
0.0
 0
VERTEX
 8
PARTS
 10
  2.9500
 20
  3.7500
 30
0.0
 0
SEQEND
 8
PARTS
 0
POLYLINE
 8
PARTS
 66
1
 10
0.0
 20
0.0
 30
0.0
 0
VERTEX
 8
PARTS
 10
  3.0000
 20
  3.8000
 30
0.0
 0
VERTEX
 8
PARTS
 10
  2.9500
 20
  3.8500
 30
0.0
 0
SEQEND
 8
PARTS
 0
POLYLINE
 8
PARTS
 66
1
 10
0.0
 20
0.0
 30
0.0
 0
VERTEX
 8
PARTS
 10
  2.9500
 20
  3.8000
 30
0.0
 0
VERTEX
 8
PARTS
 10
  2.9000
 20
  3.7500
 30
0.0
 0
SEQEND
 8
PARTS
 0
POLYLINE
 8
PARTS
 66
1
 10
0.0
 20
0.0
 30
0.0
 0
VERTEX
 8
PARTS
 10
  2.9500
 20
  3.8000
 30
0.0
 0
VERTEX
 8
PARTS
 10
  2.9000
 20
  3.8500
 30
0.0
 0
SEQEND
 8
PARTS
 0
TEXT
 8
PARTTEXT
 10
  3.0000
 20
  3.5786
 30
0.0
 40
  0.0514
 1
LCD_DATA9
 0
POLYLINE
 8
PARTS
 66
1
 10
0.0
 20
0.0
 30
0.0
 0
VERTEX
 8
PARTS
 10
  3.0000
 20
  3.6000
 30
0.0
 0
VERTEX
 8
PARTS
 10
  2.9500
 20
  3.5500
 30
0.0
 0
SEQEND
 8
PARTS
 0
POLYLINE
 8
PARTS
 66
1
 10
0.0
 20
0.0
 30
0.0
 0
VERTEX
 8
PARTS
 10
  3.0000
 20
  3.6000
 30
0.0
 0
VERTEX
 8
PARTS
 10
  2.9500
 20
  3.6500
 30
0.0
 0
SEQEND
 8
PARTS
 0
POLYLINE
 8
PARTS
 66
1
 10
0.0
 20
0.0
 30
0.0
 0
VERTEX
 8
PARTS
 10
  2.9500
 20
  3.6000
 30
0.0
 0
VERTEX
 8
PARTS
 10
  2.9000
 20
  3.5500
 30
0.0
 0
SEQEND
 8
PARTS
 0
POLYLINE
 8
PARTS
 66
1
 10
0.0
 20
0.0
 30
0.0
 0
VERTEX
 8
PARTS
 10
  2.9500
 20
  3.6000
 30
0.0
 0
VERTEX
 8
PARTS
 10
  2.9000
 20
  3.6500
 30
0.0
 0
SEQEND
 8
PARTS
 0
TEXT
 8
PARTTEXT
 10
  3.0000
 20
  3.9786
 30
0.0
 40
  0.0514
 1
LCD_EN
 0
POLYLINE
 8
PARTS
 66
1
 10
0.0
 20
0.0
 30
0.0
 0
VERTEX
 8
PARTS
 10
  3.0000
 20
  4.0000
 30
0.0
 0
VERTEX
 8
PARTS
 10
  2.9500
 20
  3.9500
 30
0.0
 0
SEQEND
 8
PARTS
 0
POLYLINE
 8
PARTS
 66
1
 10
0.0
 20
0.0
 30
0.0
 0
VERTEX
 8
PARTS
 10
  3.0000
 20
  4.0000
 30
0.0
 0
VERTEX
 8
PARTS
 10
  2.9500
 20
  4.0500
 30
0.0
 0
SEQEND
 8
PARTS
 0
POLYLINE
 8
PARTS
 66
1
 10
0.0
 20
0.0
 30
0.0
 0
VERTEX
 8
PARTS
 10
  2.9500
 20
  4.0000
 30
0.0
 0
VERTEX
 8
PARTS
 10
  2.9000
 20
  3.9500
 30
0.0
 0
SEQEND
 8
PARTS
 0
POLYLINE
 8
PARTS
 66
1
 10
0.0
 20
0.0
 30
0.0
 0
VERTEX
 8
PARTS
 10
  2.9500
 20
  4.0000
 30
0.0
 0
VERTEX
 8
PARTS
 10
  2.9000
 20
  4.0500
 30
0.0
 0
SEQEND
 8
PARTS
 0
TEXT
 8
PARTTEXT
 10
  6.7000
 20
  5.1786
 30
0.0
 40
  0.0514
 1
VCC
 0
POLYLINE
 8
PARTS
 66
1
 10
0.0
 20
0.0
 30
0.0
 0
VERTEX
 8
PARTS
 10
  6.7000
 20
  5.2000
 30
0.0
 0
VERTEX
 8
PARTS
 10
  6.6500
 20
  5.1500
 30
0.0
 0
SEQEND
 8
PARTS
 0
POLYLINE
 8
PARTS
 66
1
 10
0.0
 20
0.0
 30
0.0
 0
VERTEX
 8
PARTS
 10
  6.7000
 20
  5.2000
 30
0.0
 0
VERTEX
 8
PARTS
 10
  6.6500
 20
  5.2500
 30
0.0
 0
SEQEND
 8
PARTS
 0
POLYLINE
 8
PARTS
 66
1
 10
0.0
 20
0.0
 30
0.0
 0
VERTEX
 8
PARTS
 10
  6.6500
 20
  5.2000
 30
0.0
 0
VERTEX
 8
PARTS
 10
  6.6000
 20
  5.1500
 30
0.0
 0
SEQEND
 8
PARTS
 0
POLYLINE
 8
PARTS
 66
1
 10
0.0
 20
0.0
 30
0.0
 0
VERTEX
 8
PARTS
 10
  6.6500
 20
  5.2000
 30
0.0
 0
VERTEX
 8
PARTS
 10
  6.6000
 20
  5.2500
 30
0.0
 0
SEQEND
 8
PARTS
 0
TEXT
 8
PARTTEXT
 10
  6.7000
 20
  5.2786
 30
0.0
 40
  0.0514
 1
VDD_3V3B
 0
POLYLINE
 8
PARTS
 66
1
 10
0.0
 20
0.0
 30
0.0
 0
VERTEX
 8
PARTS
 10
  6.7000
 20
  5.3000
 30
0.0
 0
VERTEX
 8
PARTS
 10
  6.6500
 20
  5.2500
 30
0.0
 0
SEQEND
 8
PARTS
 0
POLYLINE
 8
PARTS
 66
1
 10
0.0
 20
0.0
 30
0.0
 0
VERTEX
 8
PARTS
 10
  6.7000
 20
  5.3000
 30
0.0
 0
VERTEX
 8
PARTS
 10
  6.6500
 20
  5.3500
 30
0.0
 0
SEQEND
 8
PARTS
 0
POLYLINE
 8
PARTS
 66
1
 10
0.0
 20
0.0
 30
0.0
 0
VERTEX
 8
PARTS
 10
  6.6500
 20
  5.3000
 30
0.0
 0
VERTEX
 8
PARTS
 10
  6.6000
 20
  5.2500
 30
0.0
 0
SEQEND
 8
PARTS
 0
POLYLINE
 8
PARTS
 66
1
 10
0.0
 20
0.0
 30
0.0
 0
VERTEX
 8
PARTS
 10
  6.6500
 20
  5.3000
 30
0.0
 0
VERTEX
 8
PARTS
 10
  6.6000
 20
  5.3500
 30
0.0
 0
SEQEND
 8
PARTS
 0
TEXT
 8
PARTTEXT
 10
  6.7000
 20
  5.0786
 30
0.0
 40
  0.0514
 1
SYS_5V
 0
POLYLINE
 8
PARTS
 66
1
 10
0.0
 20
0.0
 30
0.0
 0
VERTEX
 8
PARTS
 10
  6.7000
 20
  5.1000
 30
0.0
 0
VERTEX
 8
PARTS
 10
  6.6500
 20
  5.0500
 30
0.0
 0
SEQEND
 8
PARTS
 0
POLYLINE
 8
PARTS
 66
1
 10
0.0
 20
0.0
 30
0.0
 0
VERTEX
 8
PARTS
 10
  6.7000
 20
  5.1000
 30
0.0
 0
VERTEX
 8
PARTS
 10
  6.6500
 20
  5.1500
 30
0.0
 0
SEQEND
 8
PARTS
 0
POLYLINE
 8
PARTS
 66
1
 10
0.0
 20
0.0
 30
0.0
 0
VERTEX
 8
PARTS
 10
  6.6500
 20
  5.1000
 30
0.0
 0
VERTEX
 8
PARTS
 10
  6.6000
 20
  5.0500
 30
0.0
 0
SEQEND
 8
PARTS
 0
POLYLINE
 8
PARTS
 66
1
 10
0.0
 20
0.0
 30
0.0
 0
VERTEX
 8
PARTS
 10
  6.6500
 20
  5.1000
 30
0.0
 0
VERTEX
 8
PARTS
 10
  6.6000
 20
  5.1500
 30
0.0
 0
SEQEND
 8
PARTS
 0
TEXT
 8
PARTTEXT
 10
  6.7000
 20
  4.9786
 30
0.0
 40
  0.0514
 1
SYS_RESET
 0
POLYLINE
 8
PARTS
 66
1
 10
0.0
 20
0.0
 30
0.0
 0
VERTEX
 8
PARTS
 10
  6.7000
 20
  5.0000
 30
0.0
 0
VERTEX
 8
PARTS
 10
  6.6500
 20
  4.9500
 30
0.0
 0
SEQEND
 8
PARTS
 0
POLYLINE
 8
PARTS
 66
1
 10
0.0
 20
0.0
 30
0.0
 0
VERTEX
 8
PARTS
 10
  6.7000
 20
  5.0000
 30
0.0
 0
VERTEX
 8
PARTS
 10
  6.6500
 20
  5.0500
 30
0.0
 0
SEQEND
 8
PARTS
 0
POLYLINE
 8
PARTS
 66
1
 10
0.0
 20
0.0
 30
0.0
 0
VERTEX
 8
PARTS
 10
  6.6500
 20
  5.0000
 30
0.0
 0
VERTEX
 8
PARTS
 10
  6.6000
 20
  4.9500
 30
0.0
 0
SEQEND
 8
PARTS
 0
POLYLINE
 8
PARTS
 66
1
 10
0.0
 20
0.0
 30
0.0
 0
VERTEX
 8
PARTS
 10
  6.6500
 20
  5.0000
 30
0.0
 0
VERTEX
 8
PARTS
 10
  6.6000
 20
  5.0500
 30
0.0
 0
SEQEND
 8
PARTS
 0
TEXT
 8
PARTTEXT
 10
  6.7000
 20
  4.8786
 30
0.0
 40
  0.0514
 1
GPIO1_28
 0
POLYLINE
 8
PARTS
 66
1
 10
0.0
 20
0.0
 30
0.0
 0
VERTEX
 8
PARTS
 10
  6.7000
 20
  4.9000
 30
0.0
 0
VERTEX
 8
PARTS
 10
  6.6500
 20
  4.8500
 30
0.0
 0
SEQEND
 8
PARTS
 0
POLYLINE
 8
PARTS
 66
1
 10
0.0
 20
0.0
 30
0.0
 0
VERTEX
 8
PARTS
 10
  6.7000
 20
  4.9000
 30
0.0
 0
VERTEX
 8
PARTS
 10
  6.6500
 20
  4.9500
 30
0.0
 0
SEQEND
 8
PARTS
 0
POLYLINE
 8
PARTS
 66
1
 10
0.0
 20
0.0
 30
0.0
 0
VERTEX
 8
PARTS
 10
  6.6500
 20
  4.9000
 30
0.0
 0
VERTEX
 8
PARTS
 10
  6.6000
 20
  4.8500
 30
0.0
 0
SEQEND
 8
PARTS
 0
POLYLINE
 8
PARTS
 66
1
 10
0.0
 20
0.0
 30
0.0
 0
VERTEX
 8
PARTS
 10
  6.6500
 20
  4.9000
 30
0.0
 0
VERTEX
 8
PARTS
 10
  6.6000
 20
  4.9500
 30
0.0
 0
SEQEND
 8
PARTS
 0
TEXT
 8
PARTTEXT
 10
  6.7000
 20
  4.7786
 30
0.0
 40
  0.0514
 1
EHRPWM1A
 0
POLYLINE
 8
PARTS
 66
1
 10
0.0
 20
0.0
 30
0.0
 0
VERTEX
 8
PARTS
 10
  6.7000
 20
  4.8000
 30
0.0
 0
VERTEX
 8
PARTS
 10
  6.6500
 20
  4.7500
 30
0.0
 0
SEQEND
 8
PARTS
 0
POLYLINE
 8
PARTS
 66
1
 10
0.0
 20
0.0
 30
0.0
 0
VERTEX
 8
PARTS
 10
  6.7000
 20
  4.8000
 30
0.0
 0
VERTEX
 8
PARTS
 10
  6.6500
 20
  4.8500
 30
0.0
 0
SEQEND
 8
PARTS
 0
POLYLINE
 8
PARTS
 66
1
 10
0.0
 20
0.0
 30
0.0
 0
VERTEX
 8
PARTS
 10
  6.6500
 20
  4.8000
 30
0.0
 0
VERTEX
 8
PARTS
 10
  6.6000
 20
  4.7500
 30
0.0
 0
SEQEND
 8
PARTS
 0
POLYLINE
 8
PARTS
 66
1
 10
0.0
 20
0.0
 30
0.0
 0
VERTEX
 8
PARTS
 10
  6.6500
 20
  4.8000
 30
0.0
 0
VERTEX
 8
PARTS
 10
  6.6000
 20
  4.8500
 30
0.0
 0
SEQEND
 8
PARTS
 0
TEXT
 8
PARTTEXT
 10
  5.0300
 20
  5.1586
 30
0.0
 40
  0.0514
 1
VCC
 0
POLYLINE
 8
PARTS
 66
1
 10
0.0
 20
0.0
 30
0.0
 0
VERTEX
 8
PARTS
 10
  5.3000
 20
  5.2000
 30
0.0
 0
VERTEX
 8
PARTS
 10
  5.3500
 20
  5.2500
 30
0.0
 0
SEQEND
 8
PARTS
 0
POLYLINE
 8
PARTS
 66
1
 10
0.0
 20
0.0
 30
0.0
 0
VERTEX
 8
PARTS
 10
  5.3000
 20
  5.2000
 30
0.0
 0
VERTEX
 8
PARTS
 10
  5.3500
 20
  5.1500
 30
0.0
 0
SEQEND
 8
PARTS
 0
POLYLINE
 8
PARTS
 66
1
 10
0.0
 20
0.0
 30
0.0
 0
VERTEX
 8
PARTS
 10
  5.3500
 20
  5.2000
 30
0.0
 0
VERTEX
 8
PARTS
 10
  5.4000
 20
  5.2500
 30
0.0
 0
SEQEND
 8
PARTS
 0
POLYLINE
 8
PARTS
 66
1
 10
0.0
 20
0.0
 30
0.0
 0
VERTEX
 8
PARTS
 10
  5.3500
 20
  5.2000
 30
0.0
 0
VERTEX
 8
PARTS
 10
  5.4000
 20
  5.1500
 30
0.0
 0
SEQEND
 8
PARTS
 0
TEXT
 8
PARTTEXT
 10
  4.7300
 20
  5.2586
 30
0.0
 40
  0.0514
 1
VDD_3V3B
 0
POLYLINE
 8
PARTS
 66
1
 10
0.0
 20
0.0
 30
0.0
 0
VERTEX
 8
PARTS
 10
  5.3000
 20
  5.3000
 30
0.0
 0
VERTEX
 8
PARTS
 10
  5.3500
 20
  5.3500
 30
0.0
 0
SEQEND
 8
PARTS
 0
POLYLINE
 8
PARTS
 66
1
 10
0.0
 20
0.0
 30
0.0
 0
VERTEX
 8
PARTS
 10
  5.3000
 20
  5.3000
 30
0.0
 0
VERTEX
 8
PARTS
 10
  5.3500
 20
  5.2500
 30
0.0
 0
SEQEND
 8
PARTS
 0
POLYLINE
 8
PARTS
 66
1
 10
0.0
 20
0.0
 30
0.0
 0
VERTEX
 8
PARTS
 10
  5.3500
 20
  5.3000
 30
0.0
 0
VERTEX
 8
PARTS
 10
  5.4000
 20
  5.3500
 30
0.0
 0
SEQEND
 8
PARTS
 0
POLYLINE
 8
PARTS
 66
1
 10
0.0
 20
0.0
 30
0.0
 0
VERTEX
 8
PARTS
 10
  5.3500
 20
  5.3000
 30
0.0
 0
VERTEX
 8
PARTS
 10
  5.4000
 20
  5.2500
 30
0.0
 0
SEQEND
 8
PARTS
 0
TEXT
 8
PARTTEXT
 10
  4.9300
 20
  5.0586
 30
0.0
 40
  0.0514
 1
SYS_5V
 0
POLYLINE
 8
PARTS
 66
1
 10
0.0
 20
0.0
 30
0.0
 0
VERTEX
 8
PARTS
 10
  5.3000
 20
  5.1000
 30
0.0
 0
VERTEX
 8
PARTS
 10
  5.3500
 20
  5.1500
 30
0.0
 0
SEQEND
 8
PARTS
 0
POLYLINE
 8
PARTS
 66
1
 10
0.0
 20
0.0
 30
0.0
 0
VERTEX
 8
PARTS
 10
  5.3000
 20
  5.1000
 30
0.0
 0
VERTEX
 8
PARTS
 10
  5.3500
 20
  5.0500
 30
0.0
 0
SEQEND
 8
PARTS
 0
POLYLINE
 8
PARTS
 66
1
 10
0.0
 20
0.0
 30
0.0
 0
VERTEX
 8
PARTS
 10
  5.3500
 20
  5.1000
 30
0.0
 0
VERTEX
 8
PARTS
 10
  5.4000
 20
  5.1500
 30
0.0
 0
SEQEND
 8
PARTS
 0
POLYLINE
 8
PARTS
 66
1
 10
0.0
 20
0.0
 30
0.0
 0
VERTEX
 8
PARTS
 10
  5.3500
 20
  5.1000
 30
0.0
 0
VERTEX
 8
PARTS
 10
  5.4000
 20
  5.0500
 30
0.0
 0
SEQEND
 8
PARTS
 0
TEXT
 8
PARTTEXT
 10
  4.8300
 20
  4.9586
 30
0.0
 40
  0.0514
 1
PWR_BUT
 0
POLYLINE
 8
PARTS
 66
1
 10
0.0
 20
0.0
 30
0.0
 0
VERTEX
 8
PARTS
 10
  5.3000
 20
  5.0000
 30
0.0
 0
VERTEX
 8
PARTS
 10
  5.3500
 20
  5.0500
 30
0.0
 0
SEQEND
 8
PARTS
 0
POLYLINE
 8
PARTS
 66
1
 10
0.0
 20
0.0
 30
0.0
 0
VERTEX
 8
PARTS
 10
  5.3000
 20
  5.0000
 30
0.0
 0
VERTEX
 8
PARTS
 10
  5.3500
 20
  4.9500
 30
0.0
 0
SEQEND
 8
PARTS
 0
POLYLINE
 8
PARTS
 66
1
 10
0.0
 20
0.0
 30
0.0
 0
VERTEX
 8
PARTS
 10
  5.3500
 20
  5.0000
 30
0.0
 0
VERTEX
 8
PARTS
 10
  5.4000
 20
  5.0500
 30
0.0
 0
SEQEND
 8
PARTS
 0
POLYLINE
 8
PARTS
 66
1
 10
0.0
 20
0.0
 30
0.0
 0
VERTEX
 8
PARTS
 10
  5.3500
 20
  5.0000
 30
0.0
 0
VERTEX
 8
PARTS
 10
  5.4000
 20
  4.9500
 30
0.0
 0
SEQEND
 8
PARTS
 0
TEXT
 8
PARTTEXT
 10
  6.6000
 20
  4.5786
 30
0.0
 40
  0.0514
 1
I2C1_SDA
 0
POLYLINE
 8
PARTS
 66
1
 10
0.0
 20
0.0
 30
0.0
 0
VERTEX
 8
PARTS
 10
  6.6000
 20
  4.6000
 30
0.0
 0
VERTEX
 8
PARTS
 10
  6.5500
 20
  4.5500
 30
0.0
 0
SEQEND
 8
PARTS
 0
POLYLINE
 8
PARTS
 66
1
 10
0.0
 20
0.0
 30
0.0
 0
VERTEX
 8
PARTS
 10
  6.6000
 20
  4.6000
 30
0.0
 0
VERTEX
 8
PARTS
 10
  6.5500
 20
  4.6500
 30
0.0
 0
SEQEND
 8
PARTS
 0
POLYLINE
 8
PARTS
 66
1
 10
0.0
 20
0.0
 30
0.0
 0
VERTEX
 8
PARTS
 10
  6.5500
 20
  4.6000
 30
0.0
 0
VERTEX
 8
PARTS
 10
  6.5000
 20
  4.5500
 30
0.0
 0
SEQEND
 8
PARTS
 0
POLYLINE
 8
PARTS
 66
1
 10
0.0
 20
0.0
 30
0.0
 0
VERTEX
 8
PARTS
 10
  6.5500
 20
  4.6000
 30
0.0
 0
VERTEX
 8
PARTS
 10
  6.5000
 20
  4.6500
 30
0.0
 0
SEQEND
 8
PARTS
 0
TEXT
 8
PARTTEXT
 10
  6.6000
 20
  4.4786
 30
0.0
 40
  0.0514
 1
I2C2_SDA
 0
POLYLINE
 8
PARTS
 66
1
 10
0.0
 20
0.0
 30
0.0
 0
VERTEX
 8
PARTS
 10
  6.6000
 20
  4.5000
 30
0.0
 0
VERTEX
 8
PARTS
 10
  6.5500
 20
  4.4500
 30
0.0
 0
SEQEND
 8
PARTS
 0
POLYLINE
 8
PARTS
 66
1
 10
0.0
 20
0.0
 30
0.0
 0
VERTEX
 8
PARTS
 10
  6.6000
 20
  4.5000
 30
0.0
 0
VERTEX
 8
PARTS
 10
  6.5500
 20
  4.5500
 30
0.0
 0
SEQEND
 8
PARTS
 0
POLYLINE
 8
PARTS
 66
1
 10
0.0
 20
0.0
 30
0.0
 0
VERTEX
 8
PARTS
 10
  6.5500
 20
  4.5000
 30
0.0
 0
VERTEX
 8
PARTS
 10
  6.5000
 20
  4.4500
 30
0.0
 0
SEQEND
 8
PARTS
 0
POLYLINE
 8
PARTS
 66
1
 10
0.0
 20
0.0
 30
0.0
 0
VERTEX
 8
PARTS
 10
  6.5500
 20
  4.5000
 30
0.0
 0
VERTEX
 8
PARTS
 10
  6.5000
 20
  4.5500
 30
0.0
 0
SEQEND
 8
PARTS
 0
TEXT
 8
PARTTEXT
 10
  6.6000
 20
  4.3786
 30
0.0
 40
  0.0514
 1
GPIO0_2
 0
POLYLINE
 8
PARTS
 66
1
 10
0.0
 20
0.0
 30
0.0
 0
VERTEX
 8
PARTS
 10
  6.6000
 20
  4.4000
 30
0.0
 0
VERTEX
 8
PARTS
 10
  6.5500
 20
  4.3500
 30
0.0
 0
SEQEND
 8
PARTS
 0
POLYLINE
 8
PARTS
 66
1
 10
0.0
 20
0.0
 30
0.0
 0
VERTEX
 8
PARTS
 10
  6.6000
 20
  4.4000
 30
0.0
 0
VERTEX
 8
PARTS
 10
  6.5500
 20
  4.4500
 30
0.0
 0
SEQEND
 8
PARTS
 0
POLYLINE
 8
PARTS
 66
1
 10
0.0
 20
0.0
 30
0.0
 0
VERTEX
 8
PARTS
 10
  6.5500
 20
  4.4000
 30
0.0
 0
VERTEX
 8
PARTS
 10
  6.5000
 20
  4.3500
 30
0.0
 0
SEQEND
 8
PARTS
 0
POLYLINE
 8
PARTS
 66
1
 10
0.0
 20
0.0
 30
0.0
 0
VERTEX
 8
PARTS
 10
  6.5500
 20
  4.4000
 30
0.0
 0
VERTEX
 8
PARTS
 10
  6.5000
 20
  4.4500
 30
0.0
 0
SEQEND
 8
PARTS
 0
TEXT
 8
PARTTEXT
 10
  6.6000
 20
  4.2786
 30
0.0
 40
  0.0514
 1
UART1_TXD
 0
POLYLINE
 8
PARTS
 66
1
 10
0.0
 20
0.0
 30
0.0
 0
VERTEX
 8
PARTS
 10
  6.6000
 20
  4.3000
 30
0.0
 0
VERTEX
 8
PARTS
 10
  6.5500
 20
  4.2500
 30
0.0
 0
SEQEND
 8
PARTS
 0
POLYLINE
 8
PARTS
 66
1
 10
0.0
 20
0.0
 30
0.0
 0
VERTEX
 8
PARTS
 10
  6.6000
 20
  4.3000
 30
0.0
 0
VERTEX
 8
PARTS
 10
  6.5500
 20
  4.3500
 30
0.0
 0
SEQEND
 8
PARTS
 0
POLYLINE
 8
PARTS
 66
1
 10
0.0
 20
0.0
 30
0.0
 0
VERTEX
 8
PARTS
 10
  6.5500
 20
  4.3000
 30
0.0
 0
VERTEX
 8
PARTS
 10
  6.5000
 20
  4.2500
 30
0.0
 0
SEQEND
 8
PARTS
 0
POLYLINE
 8
PARTS
 66
1
 10
0.0
 20
0.0
 30
0.0
 0
VERTEX
 8
PARTS
 10
  6.5500
 20
  4.3000
 30
0.0
 0
VERTEX
 8
PARTS
 10
  6.5000
 20
  4.3500
 30
0.0
 0
SEQEND
 8
PARTS
 0
TEXT
 8
PARTTEXT
 10
  6.6000
 20
  4.1786
 30
0.0
 40
  0.0514
 1
UART1_RXD
 0
POLYLINE
 8
PARTS
 66
1
 10
0.0
 20
0.0
 30
0.0
 0
VERTEX
 8
PARTS
 10
  6.6000
 20
  4.2000
 30
0.0
 0
VERTEX
 8
PARTS
 10
  6.5500
 20
  4.1500
 30
0.0
 0
SEQEND
 8
PARTS
 0
POLYLINE
 8
PARTS
 66
1
 10
0.0
 20
0.0
 30
0.0
 0
VERTEX
 8
PARTS
 10
  6.6000
 20
  4.2000
 30
0.0
 0
VERTEX
 8
PARTS
 10
  6.5500
 20
  4.2500
 30
0.0
 0
SEQEND
 8
PARTS
 0
POLYLINE
 8
PARTS
 66
1
 10
0.0
 20
0.0
 30
0.0
 0
VERTEX
 8
PARTS
 10
  6.5500
 20
  4.2000
 30
0.0
 0
VERTEX
 8
PARTS
 10
  6.5000
 20
  4.1500
 30
0.0
 0
SEQEND
 8
PARTS
 0
POLYLINE
 8
PARTS
 66
1
 10
0.0
 20
0.0
 30
0.0
 0
VERTEX
 8
PARTS
 10
  6.5500
 20
  4.2000
 30
0.0
 0
VERTEX
 8
PARTS
 10
  6.5000
 20
  4.2500
 30
0.0
 0
SEQEND
 8
PARTS
 0
TEXT
 8
PARTTEXT
 10
  6.6000
 20
  3.3786
 30
0.0
 40
  0.0514
 1
GPIO0_7
 0
POLYLINE
 8
PARTS
 66
1
 10
0.0
 20
0.0
 30
0.0
 0
VERTEX
 8
PARTS
 10
  6.6000
 20
  3.4000
 30
0.0
 0
VERTEX
 8
PARTS
 10
  6.5500
 20
  3.3500
 30
0.0
 0
SEQEND
 8
PARTS
 0
POLYLINE
 8
PARTS
 66
1
 10
0.0
 20
0.0
 30
0.0
 0
VERTEX
 8
PARTS
 10
  6.6000
 20
  3.4000
 30
0.0
 0
VERTEX
 8
PARTS
 10
  6.5500
 20
  3.4500
 30
0.0
 0
SEQEND
 8
PARTS
 0
POLYLINE
 8
PARTS
 66
1
 10
0.0
 20
0.0
 30
0.0
 0
VERTEX
 8
PARTS
 10
  6.5500
 20
  3.4000
 30
0.0
 0
VERTEX
 8
PARTS
 10
  6.5000
 20
  3.3500
 30
0.0
 0
SEQEND
 8
PARTS
 0
POLYLINE
 8
PARTS
 66
1
 10
0.0
 20
0.0
 30
0.0
 0
VERTEX
 8
PARTS
 10
  6.5500
 20
  3.4000
 30
0.0
 0
VERTEX
 8
PARTS
 10
  6.5000
 20
  3.4500
 30
0.0
 0
SEQEND
 8
PARTS
 0
TEXT
 8
PARTTEXT
 10
  4.7300
 20
  4.8586
 30
0.0
 40
  0.0514
 1
UART4_RXD
 0
POLYLINE
 8
PARTS
 66
1
 10
0.0
 20
0.0
 30
0.0
 0
VERTEX
 8
PARTS
 10
  5.3000
 20
  4.9000
 30
0.0
 0
VERTEX
 8
PARTS
 10
  5.3500
 20
  4.9500
 30
0.0
 0
SEQEND
 8
PARTS
 0
POLYLINE
 8
PARTS
 66
1
 10
0.0
 20
0.0
 30
0.0
 0
VERTEX
 8
PARTS
 10
  5.3000
 20
  4.9000
 30
0.0
 0
VERTEX
 8
PARTS
 10
  5.3500
 20
  4.8500
 30
0.0
 0
SEQEND
 8
PARTS
 0
POLYLINE
 8
PARTS
 66
1
 10
0.0
 20
0.0
 30
0.0
 0
VERTEX
 8
PARTS
 10
  5.3500
 20
  4.9000
 30
0.0
 0
VERTEX
 8
PARTS
 10
  5.4000
 20
  4.9500
 30
0.0
 0
SEQEND
 8
PARTS
 0
POLYLINE
 8
PARTS
 66
1
 10
0.0
 20
0.0
 30
0.0
 0
VERTEX
 8
PARTS
 10
  5.3500
 20
  4.9000
 30
0.0
 0
VERTEX
 8
PARTS
 10
  5.4000
 20
  4.8500
 30
0.0
 0
SEQEND
 8
PARTS
 0
TEXT
 8
PARTTEXT
 10
  4.7300
 20
  4.7586
 30
0.0
 40
  0.0514
 1
UART4_TXD
 0
POLYLINE
 8
PARTS
 66
1
 10
0.0
 20
0.0
 30
0.0
 0
VERTEX
 8
PARTS
 10
  5.3000
 20
  4.8000
 30
0.0
 0
VERTEX
 8
PARTS
 10
  5.3500
 20
  4.8500
 30
0.0
 0
SEQEND
 8
PARTS
 0
POLYLINE
 8
PARTS
 66
1
 10
0.0
 20
0.0
 30
0.0
 0
VERTEX
 8
PARTS
 10
  5.3000
 20
  4.8000
 30
0.0
 0
VERTEX
 8
PARTS
 10
  5.3500
 20
  4.7500
 30
0.0
 0
SEQEND
 8
PARTS
 0
POLYLINE
 8
PARTS
 66
1
 10
0.0
 20
0.0
 30
0.0
 0
VERTEX
 8
PARTS
 10
  5.3500
 20
  4.8000
 30
0.0
 0
VERTEX
 8
PARTS
 10
  5.4000
 20
  4.8500
 30
0.0
 0
SEQEND
 8
PARTS
 0
POLYLINE
 8
PARTS
 66
1
 10
0.0
 20
0.0
 30
0.0
 0
VERTEX
 8
PARTS
 10
  5.3500
 20
  4.8000
 30
0.0
 0
VERTEX
 8
PARTS
 10
  5.4000
 20
  4.7500
 30
0.0
 0
SEQEND
 8
PARTS
 0
TEXT
 8
PARTTEXT
 10
  4.9300
 20
  4.5586
 30
0.0
 40
  0.0514
 1
I2C1_SCL
 0
POLYLINE
 8
PARTS
 66
1
 10
0.0
 20
0.0
 30
0.0
 0
VERTEX
 8
PARTS
 10
  5.4000
 20
  4.6000
 30
0.0
 0
VERTEX
 8
PARTS
 10
  5.4500
 20
  4.6500
 30
0.0
 0
SEQEND
 8
PARTS
 0
POLYLINE
 8
PARTS
 66
1
 10
0.0
 20
0.0
 30
0.0
 0
VERTEX
 8
PARTS
 10
  5.4000
 20
  4.6000
 30
0.0
 0
VERTEX
 8
PARTS
 10
  5.4500
 20
  4.5500
 30
0.0
 0
SEQEND
 8
PARTS
 0
POLYLINE
 8
PARTS
 66
1
 10
0.0
 20
0.0
 30
0.0
 0
VERTEX
 8
PARTS
 10
  5.4500
 20
  4.6000
 30
0.0
 0
VERTEX
 8
PARTS
 10
  5.5000
 20
  4.6500
 30
0.0
 0
SEQEND
 8
PARTS
 0
POLYLINE
 8
PARTS
 66
1
 10
0.0
 20
0.0
 30
0.0
 0
VERTEX
 8
PARTS
 10
  5.4500
 20
  4.6000
 30
0.0
 0
VERTEX
 8
PARTS
 10
  5.5000
 20
  4.5500
 30
0.0
 0
SEQEND
 8
PARTS
 0
TEXT
 8
PARTTEXT
 10
  4.9300
 20
  3.3586
 30
0.0
 40
  0.0514
 1
CLKOUT2
 0
POLYLINE
 8
PARTS
 66
1
 10
0.0
 20
0.0
 30
0.0
 0
VERTEX
 8
PARTS
 10
  5.4000
 20
  3.4000
 30
0.0
 0
VERTEX
 8
PARTS
 10
  5.4500
 20
  3.4500
 30
0.0
 0
SEQEND
 8
PARTS
 0
POLYLINE
 8
PARTS
 66
1
 10
0.0
 20
0.0
 30
0.0
 0
VERTEX
 8
PARTS
 10
  5.4000
 20
  3.4000
 30
0.0
 0
VERTEX
 8
PARTS
 10
  5.4500
 20
  3.3500
 30
0.0
 0
SEQEND
 8
PARTS
 0
POLYLINE
 8
PARTS
 66
1
 10
0.0
 20
0.0
 30
0.0
 0
VERTEX
 8
PARTS
 10
  5.4500
 20
  3.4000
 30
0.0
 0
VERTEX
 8
PARTS
 10
  5.5000
 20
  3.4500
 30
0.0
 0
SEQEND
 8
PARTS
 0
POLYLINE
 8
PARTS
 66
1
 10
0.0
 20
0.0
 30
0.0
 0
VERTEX
 8
PARTS
 10
  5.4500
 20
  3.4000
 30
0.0
 0
VERTEX
 8
PARTS
 10
  5.5000
 20
  3.3500
 30
0.0
 0
SEQEND
 8
PARTS
 0
TEXT
 8
PARTTEXT
 10
  4.8300
 20
  4.4586
 30
0.0
 40
  0.0514
 1
I2C2_SCL
 0
POLYLINE
 8
PARTS
 66
1
 10
0.0
 20
0.0
 30
0.0
 0
VERTEX
 8
PARTS
 10
  5.3000
 20
  4.5000
 30
0.0
 0
VERTEX
 8
PARTS
 10
  5.3500
 20
  4.5500
 30
0.0
 0
SEQEND
 8
PARTS
 0
POLYLINE
 8
PARTS
 66
1
 10
0.0
 20
0.0
 30
0.0
 0
VERTEX
 8
PARTS
 10
  5.3000
 20
  4.5000
 30
0.0
 0
VERTEX
 8
PARTS
 10
  5.3500
 20
  4.4500
 30
0.0
 0
SEQEND
 8
PARTS
 0
POLYLINE
 8
PARTS
 66
1
 10
0.0
 20
0.0
 30
0.0
 0
VERTEX
 8
PARTS
 10
  5.3500
 20
  4.5000
 30
0.0
 0
VERTEX
 8
PARTS
 10
  5.4000
 20
  4.5500
 30
0.0
 0
SEQEND
 8
PARTS
 0
POLYLINE
 8
PARTS
 66
1
 10
0.0
 20
0.0
 30
0.0
 0
VERTEX
 8
PARTS
 10
  5.3500
 20
  4.5000
 30
0.0
 0
VERTEX
 8
PARTS
 10
  5.4000
 20
  4.4500
 30
0.0
 0
SEQEND
 8
PARTS
 0
TEXT
 8
PARTTEXT
 10
  4.9300
 20
  4.3586
 30
0.0
 40
  0.0514
 1
GPIO0_3
 0
POLYLINE
 8
PARTS
 66
1
 10
0.0
 20
0.0
 30
0.0
 0
VERTEX
 8
PARTS
 10
  5.3000
 20
  4.4000
 30
0.0
 0
VERTEX
 8
PARTS
 10
  5.3500
 20
  4.4500
 30
0.0
 0
SEQEND
 8
PARTS
 0
POLYLINE
 8
PARTS
 66
1
 10
0.0
 20
0.0
 30
0.0
 0
VERTEX
 8
PARTS
 10
  5.3000
 20
  4.4000
 30
0.0
 0
VERTEX
 8
PARTS
 10
  5.3500
 20
  4.3500
 30
0.0
 0
SEQEND
 8
PARTS
 0
POLYLINE
 8
PARTS
 66
1
 10
0.0
 20
0.0
 30
0.0
 0
VERTEX
 8
PARTS
 10
  5.3500
 20
  4.4000
 30
0.0
 0
VERTEX
 8
PARTS
 10
  5.4000
 20
  4.4500
 30
0.0
 0
SEQEND
 8
PARTS
 0
POLYLINE
 8
PARTS
 66
1
 10
0.0
 20
0.0
 30
0.0
 0
VERTEX
 8
PARTS
 10
  5.3500
 20
  4.4000
 30
0.0
 0
VERTEX
 8
PARTS
 10
  5.4000
 20
  4.3500
 30
0.0
 0
SEQEND
 8
PARTS
 0
TEXT
 8
PARTTEXT
 10
  4.9300
 20
  4.6586
 30
0.0
 40
  0.0514
 1
GPIO1_16
 0
POLYLINE
 8
PARTS
 66
1
 10
0.0
 20
0.0
 30
0.0
 0
VERTEX
 8
PARTS
 10
  5.4000
 20
  4.7000
 30
0.0
 0
VERTEX
 8
PARTS
 10
  5.4500
 20
  4.7500
 30
0.0
 0
SEQEND
 8
PARTS
 0
POLYLINE
 8
PARTS
 66
1
 10
0.0
 20
0.0
 30
0.0
 0
VERTEX
 8
PARTS
 10
  5.4000
 20
  4.7000
 30
0.0
 0
VERTEX
 8
PARTS
 10
  5.4500
 20
  4.6500
 30
0.0
 0
SEQEND
 8
PARTS
 0
POLYLINE
 8
PARTS
 66
1
 10
0.0
 20
0.0
 30
0.0
 0
VERTEX
 8
PARTS
 10
  5.4500
 20
  4.7000
 30
0.0
 0
VERTEX
 8
PARTS
 10
  5.5000
 20
  4.7500
 30
0.0
 0
SEQEND
 8
PARTS
 0
POLYLINE
 8
PARTS
 66
1
 10
0.0
 20
0.0
 30
0.0
 0
VERTEX
 8
PARTS
 10
  5.4500
 20
  4.7000
 30
0.0
 0
VERTEX
 8
PARTS
 10
  5.5000
 20
  4.6500
 30
0.0
 0
SEQEND
 8
PARTS
 0
TEXT
 8
PARTTEXT
 10
  1.3300
 20
  5.2586
 30
0.0
 40
  0.0514
 1
GPIO1_6
 0
POLYLINE
 8
PARTS
 66
1
 10
0.0
 20
0.0
 30
0.0
 0
VERTEX
 8
PARTS
 10
  1.7000
 20
  5.3000
 30
0.0
 0
VERTEX
 8
PARTS
 10
  1.7500
 20
  5.3500
 30
0.0
 0
SEQEND
 8
PARTS
 0
POLYLINE
 8
PARTS
 66
1
 10
0.0
 20
0.0
 30
0.0
 0
VERTEX
 8
PARTS
 10
  1.7000
 20
  5.3000
 30
0.0
 0
VERTEX
 8
PARTS
 10
  1.7500
 20
  5.2500
 30
0.0
 0
SEQEND
 8
PARTS
 0
POLYLINE
 8
PARTS
 66
1
 10
0.0
 20
0.0
 30
0.0
 0
VERTEX
 8
PARTS
 10
  1.7500
 20
  5.3000
 30
0.0
 0
VERTEX
 8
PARTS
 10
  1.8000
 20
  5.3500
 30
0.0
 0
SEQEND
 8
PARTS
 0
POLYLINE
 8
PARTS
 66
1
 10
0.0
 20
0.0
 30
0.0
 0
VERTEX
 8
PARTS
 10
  1.7500
 20
  5.3000
 30
0.0
 0
VERTEX
 8
PARTS
 10
  1.8000
 20
  5.2500
 30
0.0
 0
SEQEND
 8
PARTS
 0
TEXT
 8
PARTTEXT
 10
  1.3300
 20
  5.1586
 30
0.0
 40
  0.0514
 1
GPIO1_2
 0
POLYLINE
 8
PARTS
 66
1
 10
0.0
 20
0.0
 30
0.0
 0
VERTEX
 8
PARTS
 10
  1.7000
 20
  5.2000
 30
0.0
 0
VERTEX
 8
PARTS
 10
  1.7500
 20
  5.2500
 30
0.0
 0
SEQEND
 8
PARTS
 0
POLYLINE
 8
PARTS
 66
1
 10
0.0
 20
0.0
 30
0.0
 0
VERTEX
 8
PARTS
 10
  1.7000
 20
  5.2000
 30
0.0
 0
VERTEX
 8
PARTS
 10
  1.7500
 20
  5.1500
 30
0.0
 0
SEQEND
 8
PARTS
 0
POLYLINE
 8
PARTS
 66
1
 10
0.0
 20
0.0
 30
0.0
 0
VERTEX
 8
PARTS
 10
  1.7500
 20
  5.2000
 30
0.0
 0
VERTEX
 8
PARTS
 10
  1.8000
 20
  5.2500
 30
0.0
 0
SEQEND
 8
PARTS
 0
POLYLINE
 8
PARTS
 66
1
 10
0.0
 20
0.0
 30
0.0
 0
VERTEX
 8
PARTS
 10
  1.7500
 20
  5.2000
 30
0.0
 0
VERTEX
 8
PARTS
 10
  1.8000
 20
  5.1500
 30
0.0
 0
SEQEND
 8
PARTS
 0
TEXT
 8
PARTTEXT
 10
  1.3300
 20
  5.0586
 30
0.0
 40
  0.0514
 1
GPIO2_2
 0
POLYLINE
 8
PARTS
 66
1
 10
0.0
 20
0.0
 30
0.0
 0
VERTEX
 8
PARTS
 10
  1.7000
 20
  5.1000
 30
0.0
 0
VERTEX
 8
PARTS
 10
  1.7500
 20
  5.1500
 30
0.0
 0
SEQEND
 8
PARTS
 0
POLYLINE
 8
PARTS
 66
1
 10
0.0
 20
0.0
 30
0.0
 0
VERTEX
 8
PARTS
 10
  1.7000
 20
  5.1000
 30
0.0
 0
VERTEX
 8
PARTS
 10
  1.7500
 20
  5.0500
 30
0.0
 0
SEQEND
 8
PARTS
 0
POLYLINE
 8
PARTS
 66
1
 10
0.0
 20
0.0
 30
0.0
 0
VERTEX
 8
PARTS
 10
  1.7500
 20
  5.1000
 30
0.0
 0
VERTEX
 8
PARTS
 10
  1.8000
 20
  5.1500
 30
0.0
 0
SEQEND
 8
PARTS
 0
POLYLINE
 8
PARTS
 66
1
 10
0.0
 20
0.0
 30
0.0
 0
VERTEX
 8
PARTS
 10
  1.7500
 20
  5.1000
 30
0.0
 0
VERTEX
 8
PARTS
 10
  1.8000
 20
  5.0500
 30
0.0
 0
SEQEND
 8
PARTS
 0
TEXT
 8
PARTTEXT
 10
  1.3300
 20
  4.9586
 30
0.0
 40
  0.0514
 1
GPIO2_5
 0
POLYLINE
 8
PARTS
 66
1
 10
0.0
 20
0.0
 30
0.0
 0
VERTEX
 8
PARTS
 10
  1.7000
 20
  5.0000
 30
0.0
 0
VERTEX
 8
PARTS
 10
  1.7500
 20
  5.0500
 30
0.0
 0
SEQEND
 8
PARTS
 0
POLYLINE
 8
PARTS
 66
1
 10
0.0
 20
0.0
 30
0.0
 0
VERTEX
 8
PARTS
 10
  1.7000
 20
  5.0000
 30
0.0
 0
VERTEX
 8
PARTS
 10
  1.7500
 20
  4.9500
 30
0.0
 0
SEQEND
 8
PARTS
 0
POLYLINE
 8
PARTS
 66
1
 10
0.0
 20
0.0
 30
0.0
 0
VERTEX
 8
PARTS
 10
  1.7500
 20
  5.0000
 30
0.0
 0
VERTEX
 8
PARTS
 10
  1.8000
 20
  5.0500
 30
0.0
 0
SEQEND
 8
PARTS
 0
POLYLINE
 8
PARTS
 66
1
 10
0.0
 20
0.0
 30
0.0
 0
VERTEX
 8
PARTS
 10
  1.7500
 20
  5.0000
 30
0.0
 0
VERTEX
 8
PARTS
 10
  1.8000
 20
  4.9500
 30
0.0
 0
SEQEND
 8
PARTS
 0
TEXT
 8
PARTTEXT
 10
  1.1300
 20
  4.3586
 30
0.0
 40
  0.0514
 1
GPIO1_30
 0
POLYLINE
 8
PARTS
 66
1
 10
0.0
 20
0.0
 30
0.0
 0
VERTEX
 8
PARTS
 10
  1.6000
 20
  4.4000
 30
0.0
 0
VERTEX
 8
PARTS
 10
  1.6500
 20
  4.4500
 30
0.0
 0
SEQEND
 8
PARTS
 0
POLYLINE
 8
PARTS
 66
1
 10
0.0
 20
0.0
 30
0.0
 0
VERTEX
 8
PARTS
 10
  1.6000
 20
  4.4000
 30
0.0
 0
VERTEX
 8
PARTS
 10
  1.6500
 20
  4.3500
 30
0.0
 0
SEQEND
 8
PARTS
 0
POLYLINE
 8
PARTS
 66
1
 10
0.0
 20
0.0
 30
0.0
 0
VERTEX
 8
PARTS
 10
  1.6500
 20
  4.4000
 30
0.0
 0
VERTEX
 8
PARTS
 10
  1.7000
 20
  4.4500
 30
0.0
 0
SEQEND
 8
PARTS
 0
POLYLINE
 8
PARTS
 66
1
 10
0.0
 20
0.0
 30
0.0
 0
VERTEX
 8
PARTS
 10
  1.6500
 20
  4.4000
 30
0.0
 0
VERTEX
 8
PARTS
 10
  1.7000
 20
  4.3500
 30
0.0
 0
SEQEND
 8
PARTS
 0
TEXT
 8
PARTTEXT
 10
  1.2300
 20
  4.1586
 30
0.0
 40
  0.0514
 1
GPIO1_0
 0
POLYLINE
 8
PARTS
 66
1
 10
0.0
 20
0.0
 30
0.0
 0
VERTEX
 8
PARTS
 10
  1.6000
 20
  4.2000
 30
0.0
 0
VERTEX
 8
PARTS
 10
  1.6500
 20
  4.2500
 30
0.0
 0
SEQEND
 8
PARTS
 0
POLYLINE
 8
PARTS
 66
1
 10
0.0
 20
0.0
 30
0.0
 0
VERTEX
 8
PARTS
 10
  1.6000
 20
  4.2000
 30
0.0
 0
VERTEX
 8
PARTS
 10
  1.6500
 20
  4.1500
 30
0.0
 0
SEQEND
 8
PARTS
 0
POLYLINE
 8
PARTS
 66
1
 10
0.0
 20
0.0
 30
0.0
 0
VERTEX
 8
PARTS
 10
  1.6500
 20
  4.2000
 30
0.0
 0
VERTEX
 8
PARTS
 10
  1.7000
 20
  4.2500
 30
0.0
 0
SEQEND
 8
PARTS
 0
POLYLINE
 8
PARTS
 66
1
 10
0.0
 20
0.0
 30
0.0
 0
VERTEX
 8
PARTS
 10
  1.6500
 20
  4.2000
 30
0.0
 0
VERTEX
 8
PARTS
 10
  1.7000
 20
  4.1500
 30
0.0
 0
SEQEND
 8
PARTS
 0
TEXT
 8
PARTTEXT
 10
  2.9000
 20
  5.2786
 30
0.0
 40
  0.0514
 1
GPIO1_7
 0
POLYLINE
 8
PARTS
 66
1
 10
0.0
 20
0.0
 30
0.0
 0
VERTEX
 8
PARTS
 10
  2.9000
 20
  5.3000
 30
0.0
 0
VERTEX
 8
PARTS
 10
  2.8500
 20
  5.2500
 30
0.0
 0
SEQEND
 8
PARTS
 0
POLYLINE
 8
PARTS
 66
1
 10
0.0
 20
0.0
 30
0.0
 0
VERTEX
 8
PARTS
 10
  2.9000
 20
  5.3000
 30
0.0
 0
VERTEX
 8
PARTS
 10
  2.8500
 20
  5.3500
 30
0.0
 0
SEQEND
 8
PARTS
 0
POLYLINE
 8
PARTS
 66
1
 10
0.0
 20
0.0
 30
0.0
 0
VERTEX
 8
PARTS
 10
  2.8500
 20
  5.3000
 30
0.0
 0
VERTEX
 8
PARTS
 10
  2.8000
 20
  5.2500
 30
0.0
 0
SEQEND
 8
PARTS
 0
POLYLINE
 8
PARTS
 66
1
 10
0.0
 20
0.0
 30
0.0
 0
VERTEX
 8
PARTS
 10
  2.8500
 20
  5.3000
 30
0.0
 0
VERTEX
 8
PARTS
 10
  2.8000
 20
  5.3500
 30
0.0
 0
SEQEND
 8
PARTS
 0
TEXT
 8
PARTTEXT
 10
  2.9000
 20
  5.1786
 30
0.0
 40
  0.0514
 1
GPIO1_3
 0
POLYLINE
 8
PARTS
 66
1
 10
0.0
 20
0.0
 30
0.0
 0
VERTEX
 8
PARTS
 10
  2.9000
 20
  5.2000
 30
0.0
 0
VERTEX
 8
PARTS
 10
  2.8500
 20
  5.1500
 30
0.0
 0
SEQEND
 8
PARTS
 0
POLYLINE
 8
PARTS
 66
1
 10
0.0
 20
0.0
 30
0.0
 0
VERTEX
 8
PARTS
 10
  2.9000
 20
  5.2000
 30
0.0
 0
VERTEX
 8
PARTS
 10
  2.8500
 20
  5.2500
 30
0.0
 0
SEQEND
 8
PARTS
 0
POLYLINE
 8
PARTS
 66
1
 10
0.0
 20
0.0
 30
0.0
 0
VERTEX
 8
PARTS
 10
  2.8500
 20
  5.2000
 30
0.0
 0
VERTEX
 8
PARTS
 10
  2.8000
 20
  5.1500
 30
0.0
 0
SEQEND
 8
PARTS
 0
POLYLINE
 8
PARTS
 66
1
 10
0.0
 20
0.0
 30
0.0
 0
VERTEX
 8
PARTS
 10
  2.8500
 20
  5.2000
 30
0.0
 0
VERTEX
 8
PARTS
 10
  2.8000
 20
  5.2500
 30
0.0
 0
SEQEND
 8
PARTS
 0
TEXT
 8
PARTTEXT
 10
  2.9000
 20
  5.0786
 30
0.0
 40
  0.0514
 1
GPIO2_3
 0
POLYLINE
 8
PARTS
 66
1
 10
0.0
 20
0.0
 30
0.0
 0
VERTEX
 8
PARTS
 10
  2.9000
 20
  5.1000
 30
0.0
 0
VERTEX
 8
PARTS
 10
  2.8500
 20
  5.0500
 30
0.0
 0
SEQEND
 8
PARTS
 0
POLYLINE
 8
PARTS
 66
1
 10
0.0
 20
0.0
 30
0.0
 0
VERTEX
 8
PARTS
 10
  2.9000
 20
  5.1000
 30
0.0
 0
VERTEX
 8
PARTS
 10
  2.8500
 20
  5.1500
 30
0.0
 0
SEQEND
 8
PARTS
 0
POLYLINE
 8
PARTS
 66
1
 10
0.0
 20
0.0
 30
0.0
 0
VERTEX
 8
PARTS
 10
  2.8500
 20
  5.1000
 30
0.0
 0
VERTEX
 8
PARTS
 10
  2.8000
 20
  5.0500
 30
0.0
 0
SEQEND
 8
PARTS
 0
POLYLINE
 8
PARTS
 66
1
 10
0.0
 20
0.0
 30
0.0
 0
VERTEX
 8
PARTS
 10
  2.8500
 20
  5.1000
 30
0.0
 0
VERTEX
 8
PARTS
 10
  2.8000
 20
  5.1500
 30
0.0
 0
SEQEND
 8
PARTS
 0
TEXT
 8
PARTTEXT
 10
  2.9000
 20
  4.9786
 30
0.0
 40
  0.0514
 1
GPIO2_4
 0
POLYLINE
 8
PARTS
 66
1
 10
0.0
 20
0.0
 30
0.0
 0
VERTEX
 8
PARTS
 10
  2.9000
 20
  5.0000
 30
0.0
 0
VERTEX
 8
PARTS
 10
  2.8500
 20
  4.9500
 30
0.0
 0
SEQEND
 8
PARTS
 0
POLYLINE
 8
PARTS
 66
1
 10
0.0
 20
0.0
 30
0.0
 0
VERTEX
 8
PARTS
 10
  2.9000
 20
  5.0000
 30
0.0
 0
VERTEX
 8
PARTS
 10
  2.8500
 20
  5.0500
 30
0.0
 0
SEQEND
 8
PARTS
 0
POLYLINE
 8
PARTS
 66
1
 10
0.0
 20
0.0
 30
0.0
 0
VERTEX
 8
PARTS
 10
  2.8500
 20
  5.0000
 30
0.0
 0
VERTEX
 8
PARTS
 10
  2.8000
 20
  4.9500
 30
0.0
 0
SEQEND
 8
PARTS
 0
POLYLINE
 8
PARTS
 66
1
 10
0.0
 20
0.0
 30
0.0
 0
VERTEX
 8
PARTS
 10
  2.8500
 20
  5.0000
 30
0.0
 0
VERTEX
 8
PARTS
 10
  2.8000
 20
  5.0500
 30
0.0
 0
SEQEND
 8
PARTS
 0
TEXT
 8
PARTTEXT
 10
  2.9000
 20
  4.4786
 30
0.0
 40
  0.0514
 1
GPIO1_31
 0
POLYLINE
 8
PARTS
 66
1
 10
0.0
 20
0.0
 30
0.0
 0
VERTEX
 8
PARTS
 10
  2.9000
 20
  4.5000
 30
0.0
 0
VERTEX
 8
PARTS
 10
  2.8500
 20
  4.4500
 30
0.0
 0
SEQEND
 8
PARTS
 0
POLYLINE
 8
PARTS
 66
1
 10
0.0
 20
0.0
 30
0.0
 0
VERTEX
 8
PARTS
 10
  2.9000
 20
  4.5000
 30
0.0
 0
VERTEX
 8
PARTS
 10
  2.8500
 20
  4.5500
 30
0.0
 0
SEQEND
 8
PARTS
 0
POLYLINE
 8
PARTS
 66
1
 10
0.0
 20
0.0
 30
0.0
 0
VERTEX
 8
PARTS
 10
  2.8500
 20
  4.5000
 30
0.0
 0
VERTEX
 8
PARTS
 10
  2.8000
 20
  4.4500
 30
0.0
 0
SEQEND
 8
PARTS
 0
POLYLINE
 8
PARTS
 66
1
 10
0.0
 20
0.0
 30
0.0
 0
VERTEX
 8
PARTS
 10
  2.8500
 20
  4.5000
 30
0.0
 0
VERTEX
 8
PARTS
 10
  2.8000
 20
  4.5500
 30
0.0
 0
SEQEND
 8
PARTS
 0
TEXT
 8
PARTTEXT
 10
  2.9000
 20
  4.3786
 30
0.0
 40
  0.0514
 1
GPIO1_5
 0
POLYLINE
 8
PARTS
 66
1
 10
0.0
 20
0.0
 30
0.0
 0
VERTEX
 8
PARTS
 10
  2.9000
 20
  4.4000
 30
0.0
 0
VERTEX
 8
PARTS
 10
  2.8500
 20
  4.3500
 30
0.0
 0
SEQEND
 8
PARTS
 0
POLYLINE
 8
PARTS
 66
1
 10
0.0
 20
0.0
 30
0.0
 0
VERTEX
 8
PARTS
 10
  2.9000
 20
  4.4000
 30
0.0
 0
VERTEX
 8
PARTS
 10
  2.8500
 20
  4.4500
 30
0.0
 0
SEQEND
 8
PARTS
 0
POLYLINE
 8
PARTS
 66
1
 10
0.0
 20
0.0
 30
0.0
 0
VERTEX
 8
PARTS
 10
  2.8500
 20
  4.4000
 30
0.0
 0
VERTEX
 8
PARTS
 10
  2.8000
 20
  4.3500
 30
0.0
 0
SEQEND
 8
PARTS
 0
POLYLINE
 8
PARTS
 66
1
 10
0.0
 20
0.0
 30
0.0
 0
VERTEX
 8
PARTS
 10
  2.8500
 20
  4.4000
 30
0.0
 0
VERTEX
 8
PARTS
 10
  2.8000
 20
  4.4500
 30
0.0
 0
SEQEND
 8
PARTS
 0
TEXT
 8
PARTTEXT
 10
  2.9000
 20
  4.2786
 30
0.0
 40
  0.0514
 1
GPIO1_1
 0
POLYLINE
 8
PARTS
 66
1
 10
0.0
 20
0.0
 30
0.0
 0
VERTEX
 8
PARTS
 10
  2.9000
 20
  4.3000
 30
0.0
 0
VERTEX
 8
PARTS
 10
  2.8500
 20
  4.2500
 30
0.0
 0
SEQEND
 8
PARTS
 0
POLYLINE
 8
PARTS
 66
1
 10
0.0
 20
0.0
 30
0.0
 0
VERTEX
 8
PARTS
 10
  2.9000
 20
  4.3000
 30
0.0
 0
VERTEX
 8
PARTS
 10
  2.8500
 20
  4.3500
 30
0.0
 0
SEQEND
 8
PARTS
 0
POLYLINE
 8
PARTS
 66
1
 10
0.0
 20
0.0
 30
0.0
 0
VERTEX
 8
PARTS
 10
  2.8500
 20
  4.3000
 30
0.0
 0
VERTEX
 8
PARTS
 10
  2.8000
 20
  4.2500
 30
0.0
 0
SEQEND
 8
PARTS
 0
POLYLINE
 8
PARTS
 66
1
 10
0.0
 20
0.0
 30
0.0
 0
VERTEX
 8
PARTS
 10
  2.8500
 20
  4.3000
 30
0.0
 0
VERTEX
 8
PARTS
 10
  2.8000
 20
  4.3500
 30
0.0
 0
SEQEND
 8
PARTS
 0
TEXT
 8
PARTTEXT
 10
  2.9000
 20
  4.1786
 30
0.0
 40
  0.0514
 1
GPIO1_29
 0
POLYLINE
 8
PARTS
 66
1
 10
0.0
 20
0.0
 30
0.0
 0
VERTEX
 8
PARTS
 10
  2.9000
 20
  4.2000
 30
0.0
 0
VERTEX
 8
PARTS
 10
  2.8500
 20
  4.1500
 30
0.0
 0
SEQEND
 8
PARTS
 0
POLYLINE
 8
PARTS
 66
1
 10
0.0
 20
0.0
 30
0.0
 0
VERTEX
 8
PARTS
 10
  2.9000
 20
  4.2000
 30
0.0
 0
VERTEX
 8
PARTS
 10
  2.8500
 20
  4.2500
 30
0.0
 0
SEQEND
 8
PARTS
 0
POLYLINE
 8
PARTS
 66
1
 10
0.0
 20
0.0
 30
0.0
 0
VERTEX
 8
PARTS
 10
  2.8500
 20
  4.2000
 30
0.0
 0
VERTEX
 8
PARTS
 10
  2.8000
 20
  4.1500
 30
0.0
 0
SEQEND
 8
PARTS
 0
POLYLINE
 8
PARTS
 66
1
 10
0.0
 20
0.0
 30
0.0
 0
VERTEX
 8
PARTS
 10
  2.8500
 20
  4.2000
 30
0.0
 0
VERTEX
 8
PARTS
 10
  2.8000
 20
  4.2500
 30
0.0
 0
SEQEND
 8
PARTS
 0
TEXT
 8
PARTTEXT
 10
  1.2300
 20
  4.7586
 30
0.0
 40
  0.0514
 1
GPIO1_16
 0
POLYLINE
 8
PARTS
 66
1
 10
0.0
 20
0.0
 30
0.0
 0
VERTEX
 8
PARTS
 10
  1.7000
 20
  4.8000
 30
0.0
 0
VERTEX
 8
PARTS
 10
  1.7500
 20
  4.8500
 30
0.0
 0
SEQEND
 8
PARTS
 0
POLYLINE
 8
PARTS
 66
1
 10
0.0
 20
0.0
 30
0.0
 0
VERTEX
 8
PARTS
 10
  1.7000
 20
  4.8000
 30
0.0
 0
VERTEX
 8
PARTS
 10
  1.7500
 20
  4.7500
 30
0.0
 0
SEQEND
 8
PARTS
 0
POLYLINE
 8
PARTS
 66
1
 10
0.0
 20
0.0
 30
0.0
 0
VERTEX
 8
PARTS
 10
  1.7500
 20
  4.8000
 30
0.0
 0
VERTEX
 8
PARTS
 10
  1.8000
 20
  4.8500
 30
0.0
 0
SEQEND
 8
PARTS
 0
POLYLINE
 8
PARTS
 66
1
 10
0.0
 20
0.0
 30
0.0
 0
VERTEX
 8
PARTS
 10
  1.7500
 20
  4.8000
 30
0.0
 0
VERTEX
 8
PARTS
 10
  1.8000
 20
  4.7500
 30
0.0
 0
SEQEND
 8
PARTS
 0
TEXT
 8
PARTTEXT
 10
  4.9300
 20
  4.2586
 30
0.0
 40
  0.0514
 1
GPIO1_17
 0
POLYLINE
 8
PARTS
 66
1
 10
0.0
 20
0.0
 30
0.0
 0
VERTEX
 8
PARTS
 10
  5.4000
 20
  4.3000
 30
0.0
 0
VERTEX
 8
PARTS
 10
  5.4500
 20
  4.3500
 30
0.0
 0
SEQEND
 8
PARTS
 0
POLYLINE
 8
PARTS
 66
1
 10
0.0
 20
0.0
 30
0.0
 0
VERTEX
 8
PARTS
 10
  5.4000
 20
  4.3000
 30
0.0
 0
VERTEX
 8
PARTS
 10
  5.4500
 20
  4.2500
 30
0.0
 0
SEQEND
 8
PARTS
 0
POLYLINE
 8
PARTS
 66
1
 10
0.0
 20
0.0
 30
0.0
 0
VERTEX
 8
PARTS
 10
  5.4500
 20
  4.3000
 30
0.0
 0
VERTEX
 8
PARTS
 10
  5.5000
 20
  4.3500
 30
0.0
 0
SEQEND
 8
PARTS
 0
POLYLINE
 8
PARTS
 66
1
 10
0.0
 20
0.0
 30
0.0
 0
VERTEX
 8
PARTS
 10
  5.4500
 20
  4.3000
 30
0.0
 0
VERTEX
 8
PARTS
 10
  5.5000
 20
  4.2500
 30
0.0
 0
SEQEND
 8
PARTS
 0
TEXT
 8
PARTTEXT
 10
  4.9300
 20
  4.1586
 30
0.0
 40
  0.0514
 1
GPIO3_21
 0
POLYLINE
 8
PARTS
 66
1
 10
0.0
 20
0.0
 30
0.0
 0
VERTEX
 8
PARTS
 10
  5.4000
 20
  4.2000
 30
0.0
 0
VERTEX
 8
PARTS
 10
  5.4500
 20
  4.2500
 30
0.0
 0
SEQEND
 8
PARTS
 0
POLYLINE
 8
PARTS
 66
1
 10
0.0
 20
0.0
 30
0.0
 0
VERTEX
 8
PARTS
 10
  5.4000
 20
  4.2000
 30
0.0
 0
VERTEX
 8
PARTS
 10
  5.4500
 20
  4.1500
 30
0.0
 0
SEQEND
 8
PARTS
 0
POLYLINE
 8
PARTS
 66
1
 10
0.0
 20
0.0
 30
0.0
 0
VERTEX
 8
PARTS
 10
  5.4500
 20
  4.2000
 30
0.0
 0
VERTEX
 8
PARTS
 10
  5.5000
 20
  4.2500
 30
0.0
 0
SEQEND
 8
PARTS
 0
POLYLINE
 8
PARTS
 66
1
 10
0.0
 20
0.0
 30
0.0
 0
VERTEX
 8
PARTS
 10
  5.4500
 20
  4.2000
 30
0.0
 0
VERTEX
 8
PARTS
 10
  5.5000
 20
  4.1500
 30
0.0
 0
SEQEND
 8
PARTS
 0
TEXT
 8
PARTTEXT
 10
  4.9300
 20
  4.0586
 30
0.0
 40
  0.0514
 1
GPIO3_19
 0
POLYLINE
 8
PARTS
 66
1
 10
0.0
 20
0.0
 30
0.0
 0
VERTEX
 8
PARTS
 10
  5.4000
 20
  4.1000
 30
0.0
 0
VERTEX
 8
PARTS
 10
  5.4500
 20
  4.1500
 30
0.0
 0
SEQEND
 8
PARTS
 0
POLYLINE
 8
PARTS
 66
1
 10
0.0
 20
0.0
 30
0.0
 0
VERTEX
 8
PARTS
 10
  5.4000
 20
  4.1000
 30
0.0
 0
VERTEX
 8
PARTS
 10
  5.4500
 20
  4.0500
 30
0.0
 0
SEQEND
 8
PARTS
 0
POLYLINE
 8
PARTS
 66
1
 10
0.0
 20
0.0
 30
0.0
 0
VERTEX
 8
PARTS
 10
  5.4500
 20
  4.1000
 30
0.0
 0
VERTEX
 8
PARTS
 10
  5.5000
 20
  4.1500
 30
0.0
 0
SEQEND
 8
PARTS
 0
POLYLINE
 8
PARTS
 66
1
 10
0.0
 20
0.0
 30
0.0
 0
VERTEX
 8
PARTS
 10
  5.4500
 20
  4.1000
 30
0.0
 0
VERTEX
 8
PARTS
 10
  5.5000
 20
  4.0500
 30
0.0
 0
SEQEND
 8
PARTS
 0
TEXT
 8
PARTTEXT
 10
  4.9300
 20
  3.9586
 30
0.0
 40
  0.0514
 1
GPIO3_15
 0
POLYLINE
 8
PARTS
 66
1
 10
0.0
 20
0.0
 30
0.0
 0
VERTEX
 8
PARTS
 10
  5.4000
 20
  4.0000
 30
0.0
 0
VERTEX
 8
PARTS
 10
  5.4500
 20
  4.0500
 30
0.0
 0
SEQEND
 8
PARTS
 0
POLYLINE
 8
PARTS
 66
1
 10
0.0
 20
0.0
 30
0.0
 0
VERTEX
 8
PARTS
 10
  5.4000
 20
  4.0000
 30
0.0
 0
VERTEX
 8
PARTS
 10
  5.4500
 20
  3.9500
 30
0.0
 0
SEQEND
 8
PARTS
 0
POLYLINE
 8
PARTS
 66
1
 10
0.0
 20
0.0
 30
0.0
 0
VERTEX
 8
PARTS
 10
  5.4500
 20
  4.0000
 30
0.0
 0
VERTEX
 8
PARTS
 10
  5.5000
 20
  4.0500
 30
0.0
 0
SEQEND
 8
PARTS
 0
POLYLINE
 8
PARTS
 66
1
 10
0.0
 20
0.0
 30
0.0
 0
VERTEX
 8
PARTS
 10
  5.4500
 20
  4.0000
 30
0.0
 0
VERTEX
 8
PARTS
 10
  5.5000
 20
  3.9500
 30
0.0
 0
SEQEND
 8
PARTS
 0
TEXT
 8
PARTTEXT
 10
  4.8700
 20
  3.8786
 30
0.0
 40
  0.0514
 1
GPIO3_14
 0
POLYLINE
 8
PARTS
 66
1
 10
0.0
 20
0.0
 30
0.0
 0
VERTEX
 8
PARTS
 10
  5.3000
 20
  3.9000
 30
0.0
 0
VERTEX
 8
PARTS
 10
  5.3500
 20
  3.9500
 30
0.0
 0
SEQEND
 8
PARTS
 0
POLYLINE
 8
PARTS
 66
1
 10
0.0
 20
0.0
 30
0.0
 0
VERTEX
 8
PARTS
 10
  5.3000
 20
  3.9000
 30
0.0
 0
VERTEX
 8
PARTS
 10
  5.3500
 20
  3.8500
 30
0.0
 0
SEQEND
 8
PARTS
 0
POLYLINE
 8
PARTS
 66
1
 10
0.0
 20
0.0
 30
0.0
 0
VERTEX
 8
PARTS
 10
  5.3500
 20
  3.9000
 30
0.0
 0
VERTEX
 8
PARTS
 10
  5.4000
 20
  3.9500
 30
0.0
 0
SEQEND
 8
PARTS
 0
POLYLINE
 8
PARTS
 66
1
 10
0.0
 20
0.0
 30
0.0
 0
VERTEX
 8
PARTS
 10
  5.3500
 20
  3.9000
 30
0.0
 0
VERTEX
 8
PARTS
 10
  5.4000
 20
  3.8500
 30
0.0
 0
SEQEND
 8
PARTS
 0
TEXT
 8
PARTTEXT
 10
  6.7000
 20
  4.6786
 30
0.0
 40
  0.0514
 1
GPIO1_19
 0
POLYLINE
 8
PARTS
 66
1
 10
0.0
 20
0.0
 30
0.0
 0
VERTEX
 8
PARTS
 10
  6.7000
 20
  4.7000
 30
0.0
 0
VERTEX
 8
PARTS
 10
  6.6500
 20
  4.6500
 30
0.0
 0
SEQEND
 8
PARTS
 0
POLYLINE
 8
PARTS
 66
1
 10
0.0
 20
0.0
 30
0.0
 0
VERTEX
 8
PARTS
 10
  6.7000
 20
  4.7000
 30
0.0
 0
VERTEX
 8
PARTS
 10
  6.6500
 20
  4.7500
 30
0.0
 0
SEQEND
 8
PARTS
 0
POLYLINE
 8
PARTS
 66
1
 10
0.0
 20
0.0
 30
0.0
 0
VERTEX
 8
PARTS
 10
  6.6500
 20
  4.7000
 30
0.0
 0
VERTEX
 8
PARTS
 10
  6.6000
 20
  4.6500
 30
0.0
 0
SEQEND
 8
PARTS
 0
POLYLINE
 8
PARTS
 66
1
 10
0.0
 20
0.0
 30
0.0
 0
VERTEX
 8
PARTS
 10
  6.6500
 20
  4.7000
 30
0.0
 0
VERTEX
 8
PARTS
 10
  6.6000
 20
  4.7500
 30
0.0
 0
SEQEND
 8
PARTS
 0
TEXT
 8
PARTTEXT
 10
  6.7000
 20
  3.9786
 30
0.0
 40
  0.0514
 1
GPIO3_16
 0
POLYLINE
 8
PARTS
 66
1
 10
0.0
 20
0.0
 30
0.0
 0
VERTEX
 8
PARTS
 10
  6.7000
 20
  4.0000
 30
0.0
 0
VERTEX
 8
PARTS
 10
  6.6500
 20
  3.9500
 30
0.0
 0
SEQEND
 8
PARTS
 0
POLYLINE
 8
PARTS
 66
1
 10
0.0
 20
0.0
 30
0.0
 0
VERTEX
 8
PARTS
 10
  6.7000
 20
  4.0000
 30
0.0
 0
VERTEX
 8
PARTS
 10
  6.6500
 20
  4.0500
 30
0.0
 0
SEQEND
 8
PARTS
 0
POLYLINE
 8
PARTS
 66
1
 10
0.0
 20
0.0
 30
0.0
 0
VERTEX
 8
PARTS
 10
  6.6500
 20
  4.0000
 30
0.0
 0
VERTEX
 8
PARTS
 10
  6.6000
 20
  3.9500
 30
0.0
 0
SEQEND
 8
PARTS
 0
POLYLINE
 8
PARTS
 66
1
 10
0.0
 20
0.0
 30
0.0
 0
VERTEX
 8
PARTS
 10
  6.6500
 20
  4.0000
 30
0.0
 0
VERTEX
 8
PARTS
 10
  6.6000
 20
  4.0500
 30
0.0
 0
SEQEND
 8
PARTS
 0
TEXT
 8
PARTTEXT
 10
  6.7000
 20
  4.0786
 30
0.0
 40
  0.0514
 1
GPIO3_17
 0
POLYLINE
 8
PARTS
 66
1
 10
0.0
 20
0.0
 30
0.0
 0
VERTEX
 8
PARTS
 10
  6.7000
 20
  4.1000
 30
0.0
 0
VERTEX
 8
PARTS
 10
  6.6500
 20
  4.0500
 30
0.0
 0
SEQEND
 8
PARTS
 0
POLYLINE
 8
PARTS
 66
1
 10
0.0
 20
0.0
 30
0.0
 0
VERTEX
 8
PARTS
 10
  6.7000
 20
  4.1000
 30
0.0
 0
VERTEX
 8
PARTS
 10
  6.6500
 20
  4.1500
 30
0.0
 0
SEQEND
 8
PARTS
 0
POLYLINE
 8
PARTS
 66
1
 10
0.0
 20
0.0
 30
0.0
 0
VERTEX
 8
PARTS
 10
  6.6500
 20
  4.1000
 30
0.0
 0
VERTEX
 8
PARTS
 10
  6.6000
 20
  4.0500
 30
0.0
 0
SEQEND
 8
PARTS
 0
POLYLINE
 8
PARTS
 66
1
 10
0.0
 20
0.0
 30
0.0
 0
VERTEX
 8
PARTS
 10
  6.6500
 20
  4.1000
 30
0.0
 0
VERTEX
 8
PARTS
 10
  6.6000
 20
  4.1500
 30
0.0
 0
SEQEND
 8
PARTS
 0
ENDSEC
 0
EOF
