 0
SECTION
 2
HEADER
 9
$ACADVER
 1
AC1009
 0
ENDSEC
 0
SECTION
 2
ENTITIES
 0
POLYLINE
 8
TITLE
 66
1
 70
1
 10
0.0
 20
0.0
 30
0.0
 0
VERTEX
 8
TITLE
 10
 -0.1000
 20
  0.1000
 30
0.0
 0
VERTEX
 8
TITLE
 10
 15.1000
 20
  0.1000
 30
0.0
 0
VERTEX
 8
TITLE
 10
 15.1000
 20
  9.8000
 30
0.0
 0
VERTEX
 8
TITLE
 10
 -0.1000
 20
  9.8000
 30
0.0
 0
SEQEND
 8
TITLE
 0
POLYLINE
 8
TITLE
 66
1
 70
1
 10
0.0
 20
0.0
 30
0.0
 0
VERTEX
 8
TITLE
 10
  0.0000
 20
  0.2000
 30
0.0
 0
VERTEX
 8
TITLE
 10
 15.0000
 20
  0.2000
 30
0.0
 0
VERTEX
 8
TITLE
 10
 15.0000
 20
  9.7000
 30
0.0
 0
VERTEX
 8
TITLE
 10
  0.0000
 20
  9.7000
 30
0.0
 0
SEQEND
 8
TITLE
 0
POLYLINE
 8
TITLE
 66
1
 10
0.0
 20
0.0
 30
0.0
 0
VERTEX
 8
TITLE
 10
  3.1600
 20
  0.2000
 30
0.0
 0
VERTEX
 8
TITLE
 10
  3.1600
 20
  0.1000
 30
0.0
 0
SEQEND
 8
TITLE
 0
POLYLINE
 8
TITLE
 66
1
 10
0.0
 20
0.0
 30
0.0
 0
VERTEX
 8
TITLE
 10
  3.1600
 20
  9.7000
 30
0.0
 0
VERTEX
 8
TITLE
 10
  3.1600
 20
  9.8000
 30
0.0
 0
SEQEND
 8
TITLE
 0
POLYLINE
 8
TITLE
 66
1
 10
0.0
 20
0.0
 30
0.0
 0
VERTEX
 8
TITLE
 10
  6.1200
 20
  0.2000
 30
0.0
 0
VERTEX
 8
TITLE
 10
  6.1200
 20
  0.1000
 30
0.0
 0
SEQEND
 8
TITLE
 0
POLYLINE
 8
TITLE
 66
1
 10
0.0
 20
0.0
 30
0.0
 0
VERTEX
 8
TITLE
 10
  6.1200
 20
  9.7000
 30
0.0
 0
VERTEX
 8
TITLE
 10
  6.1200
 20
  9.8000
 30
0.0
 0
SEQEND
 8
TITLE
 0
POLYLINE
 8
TITLE
 66
1
 10
0.0
 20
0.0
 30
0.0
 0
VERTEX
 8
TITLE
 10
  9.0800
 20
  0.2000
 30
0.0
 0
VERTEX
 8
TITLE
 10
  9.0800
 20
  0.1000
 30
0.0
 0
SEQEND
 8
TITLE
 0
POLYLINE
 8
TITLE
 66
1
 10
0.0
 20
0.0
 30
0.0
 0
VERTEX
 8
TITLE
 10
  9.0800
 20
  9.7000
 30
0.0
 0
VERTEX
 8
TITLE
 10
  9.0800
 20
  9.8000
 30
0.0
 0
SEQEND
 8
TITLE
 0
POLYLINE
 8
TITLE
 66
1
 10
0.0
 20
0.0
 30
0.0
 0
VERTEX
 8
TITLE
 10
 12.0400
 20
  0.2000
 30
0.0
 0
VERTEX
 8
TITLE
 10
 12.0400
 20
  0.1000
 30
0.0
 0
SEQEND
 8
TITLE
 0
POLYLINE
 8
TITLE
 66
1
 10
0.0
 20
0.0
 30
0.0
 0
VERTEX
 8
TITLE
 10
 12.0400
 20
  9.7000
 30
0.0
 0
VERTEX
 8
TITLE
 10
 12.0400
 20
  9.8000
 30
0.0
 0
SEQEND
 8
TITLE
 0
TEXT
 8
TITLE
 10
  1.6800
 20
  0.1200
 30
0.0
 40
  0.0500
 1
5
 0
TEXT
 8
TITLE
 10
  1.6800
 20
  9.7200
 30
0.0
 40
  0.0500
 1
5
 0
TEXT
 8
TITLE
 10
  4.6400
 20
  0.1200
 30
0.0
 40
  0.0500
 1
4
 0
TEXT
 8
TITLE
 10
  4.6400
 20
  9.7200
 30
0.0
 40
  0.0500
 1
4
 0
TEXT
 8
TITLE
 10
  7.6000
 20
  0.1200
 30
0.0
 40
  0.0500
 1
3
 0
TEXT
 8
TITLE
 10
  7.6000
 20
  9.7200
 30
0.0
 40
  0.0500
 1
3
 0
TEXT
 8
TITLE
 10
 10.5600
 20
  0.1200
 30
0.0
 40
  0.0500
 1
2
 0
TEXT
 8
TITLE
 10
 10.5600
 20
  9.7200
 30
0.0
 40
  0.0500
 1
2
 0
TEXT
 8
TITLE
 10
 13.5200
 20
  0.1200
 30
0.0
 40
  0.0500
 1
1
 0
TEXT
 8
TITLE
 10
 13.5200
 20
  9.7200
 30
0.0
 40
  0.0500
 1
1
 0
POLYLINE
 8
TITLE
 66
1
 10
0.0
 20
0.0
 30
0.0
 0
VERTEX
 8
TITLE
 10
 -0.1000
 20
  7.1800
 30
0.0
 0
VERTEX
 8
TITLE
 10
  0.0000
 20
  7.1800
 30
0.0
 0
SEQEND
 8
TITLE
 0
POLYLINE
 8
TITLE
 66
1
 10
0.0
 20
0.0
 30
0.0
 0
VERTEX
 8
TITLE
 10
 15.0000
 20
  7.1800
 30
0.0
 0
VERTEX
 8
TITLE
 10
 15.1000
 20
  7.1800
 30
0.0
 0
SEQEND
 8
TITLE
 0
SOLID
 8
TITLE
 10
  0.0000
 20
  4.8600
 30
0.0
 11
 -0.0500
 21
  4.8800
 31
0.0
 12
 -0.0500
 22
  4.8400
 32
0.0
 13
 -0.0500
 23
  4.8600
 33
0.0
 0
SOLID
 8
TITLE
 10
 15.0000
 20
  4.8600
 30
0.0
 11
 15.0500
 21
  4.8800
 31
0.0
 12
 15.0500
 22
  4.8400
 32
0.0
 13
 15.0500
 23
  4.8600
 33
0.0
 0
POLYLINE
 8
TITLE
 66
1
 10
0.0
 20
0.0
 30
0.0
 0
VERTEX
 8
TITLE
 10
 -0.1000
 20
  4.8600
 30
0.0
 0
VERTEX
 8
TITLE
 10
  0.0000
 20
  4.8600
 30
0.0
 0
SEQEND
 8
TITLE
 0
POLYLINE
 8
TITLE
 66
1
 10
0.0
 20
0.0
 30
0.0
 0
VERTEX
 8
TITLE
 10
 15.0000
 20
  4.8600
 30
0.0
 0
VERTEX
 8
TITLE
 10
 15.1000
 20
  4.8600
 30
0.0
 0
SEQEND
 8
TITLE
 0
SOLID
 8
TITLE
 10
  0.0000
 20
  4.8600
 30
0.0
 11
 -0.0500
 21
  4.8800
 31
0.0
 12
 -0.0500
 22
  4.8400
 32
0.0
 13
 -0.0500
 23
  4.8600
 33
0.0
 0
SOLID
 8
TITLE
 10
 15.0000
 20
  4.8600
 30
0.0
 11
 15.0500
 21
  4.8800
 31
0.0
 12
 15.0500
 22
  4.8400
 32
0.0
 13
 15.0500
 23
  4.8600
 33
0.0
 0
POLYLINE
 8
TITLE
 66
1
 10
0.0
 20
0.0
 30
0.0
 0
VERTEX
 8
TITLE
 10
 -0.1000
 20
  2.5400
 30
0.0
 0
VERTEX
 8
TITLE
 10
  0.0000
 20
  2.5400
 30
0.0
 0
SEQEND
 8
TITLE
 0
POLYLINE
 8
TITLE
 66
1
 10
0.0
 20
0.0
 30
0.0
 0
VERTEX
 8
TITLE
 10
 15.0000
 20
  2.5400
 30
0.0
 0
VERTEX
 8
TITLE
 10
 15.1000
 20
  2.5400
 30
0.0
 0
SEQEND
 8
TITLE
 0
SOLID
 8
TITLE
 10
  0.0000
 20
  4.8600
 30
0.0
 11
 -0.0500
 21
  4.8800
 31
0.0
 12
 -0.0500
 22
  4.8400
 32
0.0
 13
 -0.0500
 23
  4.8600
 33
0.0
 0
SOLID
 8
TITLE
 10
 15.0000
 20
  4.8600
 30
0.0
 11
 15.0500
 21
  4.8800
 31
0.0
 12
 15.0500
 22
  4.8400
 32
0.0
 13
 15.0500
 23
  4.8600
 33
0.0
 0
TEXT
 8
TITLE
 10
 -0.0800
 20
  8.3400
 30
0.0
 40
  0.0500
 1
D
 0
TEXT
 8
TITLE
 10
 15.0200
 20
  8.3400
 30
0.0
 40
  0.0500
 1
D
 0
TEXT
 8
TITLE
 10
 -0.0800
 20
  6.0200
 30
0.0
 40
  0.0500
 1
C
 0
TEXT
 8
TITLE
 10
 15.0200
 20
  6.0200
 30
0.0
 40
  0.0500
 1
C
 0
TEXT
 8
TITLE
 10
 -0.0800
 20
  3.7000
 30
0.0
 40
  0.0500
 1
B
 0
TEXT
 8
TITLE
 10
 15.0200
 20
  3.7000
 30
0.0
 40
  0.0500
 1
B
 0
TEXT
 8
TITLE
 10
 -0.0800
 20
  1.3800
 30
0.0
 40
  0.0500
 1
A
 0
TEXT
 8
TITLE
 10
 15.0200
 20
  1.3800
 30
0.0
 40
  0.0500
 1
A
 0
TEXT
 8
TITLE
 10
 11.8000
 20
  0.4186
 30
0.0
 40
  0.0514
 1
<Doc>
 0
TEXT
 8
TITLE
 10
 14.8000
 20
  0.4186
 30
0.0
 40
  0.0514
 1
<RevCode>
 0
TEXT
 8
TITLE
 10
 11.8000
 20
  0.7186
 30
0.0
 40
  0.0514
 1
<Title>
 0
TEXT
 8
TITLE
 10
 11.5000
 20
  0.4186
 30
0.0
 40
  0.0514
 1
B
 0
TEXT
 8
TITLE
 10
 13.9000
 20
  0.2186
 30
0.0
 40
  0.0514
 1
1
 0
TEXT
 8
TITLE
 10
 14.5000
 20
  0.2186
 30
0.0
 40
  0.0514
 1
1
 0
TEXT
 8
TITLE
 10
 11.9200
 20
  0.2186
 30
0.0
 40
  0.0514
 1
Wednesday, August 30, 2017
 0
TEXT
 8
PARTTEXT
 10
 11.4000
 20
  0.8186
 30
0.0
 40
  0.0514
 1
Title
 0
TEXT
 8
PARTTEXT
 10
 11.4000
 20
  0.5186
 30
0.0
 40
  0.0514
 1
Size
 0
TEXT
 8
PARTTEXT
 10
 11.8000
 20
  0.5186
 30
0.0
 40
  0.0514
 1
Document Number
 0
TEXT
 8
PARTTEXT
 10
 14.7000
 20
  0.5186
 30
0.0
 40
  0.0514
 1
Rev
 0
TEXT
 8
PARTTEXT
 10
 11.4000
 20
  0.2186
 30
0.0
 40
  0.0514
 1
Date:
 0
TEXT
 8
PARTTEXT
 10
 13.4000
 20
  0.2186
 30
0.0
 40
  0.0514
 1
Sheet
 0
POLYLINE
 8
TITLE
 66
1
 70
1
 10
0.0
 20
0.0
 30
0.0
 0
VERTEX
 8
TITLE
 10
 11.4000
 20
  1.1000
 30
0.0
 0
VERTEX
 8
TITLE
 10
 15.0000
 20
  1.1000
 30
0.0
 0
VERTEX
 8
TITLE
 10
 15.0000
 20
  0.9000
 30
0.0
 0
VERTEX
 8
TITLE
 10
 11.4000
 20
  0.9000
 30
0.0
 0
SEQEND
 8
TITLE
 0
POLYLINE
 8
TITLE
 66
1
 70
1
 10
0.0
 20
0.0
 30
0.0
 0
VERTEX
 8
TITLE
 10
 11.4000
 20
  0.9000
 30
0.0
 0
VERTEX
 8
TITLE
 10
 15.0000
 20
  0.9000
 30
0.0
 0
VERTEX
 8
TITLE
 10
 15.0000
 20
  0.6000
 30
0.0
 0
VERTEX
 8
TITLE
 10
 11.4000
 20
  0.6000
 30
0.0
 0
SEQEND
 8
TITLE
 0
POLYLINE
 8
TITLE
 66
1
 70
1
 10
0.0
 20
0.0
 30
0.0
 0
VERTEX
 8
TITLE
 10
 11.4000
 20
  0.6000
 30
0.0
 0
VERTEX
 8
TITLE
 10
 11.7000
 20
  0.6000
 30
0.0
 0
VERTEX
 8
TITLE
 10
 11.7000
 20
  0.3000
 30
0.0
 0
VERTEX
 8
TITLE
 10
 11.4000
 20
  0.3000
 30
0.0
 0
SEQEND
 8
TITLE
 0
POLYLINE
 8
TITLE
 66
1
 70
1
 10
0.0
 20
0.0
 30
0.0
 0
VERTEX
 8
TITLE
 10
 11.7000
 20
  0.6000
 30
0.0
 0
VERTEX
 8
TITLE
 10
 14.7000
 20
  0.6000
 30
0.0
 0
VERTEX
 8
TITLE
 10
 14.7000
 20
  0.3000
 30
0.0
 0
VERTEX
 8
TITLE
 10
 11.7000
 20
  0.3000
 30
0.0
 0
SEQEND
 8
TITLE
 0
POLYLINE
 8
TITLE
 66
1
 70
1
 10
0.0
 20
0.0
 30
0.0
 0
VERTEX
 8
TITLE
 10
 14.7000
 20
  0.6000
 30
0.0
 0
VERTEX
 8
TITLE
 10
 15.0000
 20
  0.6000
 30
0.0
 0
VERTEX
 8
TITLE
 10
 15.0000
 20
  0.3000
 30
0.0
 0
VERTEX
 8
TITLE
 10
 14.7000
 20
  0.3000
 30
0.0
 0
SEQEND
 8
TITLE
 0
POLYLINE
 8
TITLE
 66
1
 70
1
 10
0.0
 20
0.0
 30
0.0
 0
VERTEX
 8
TITLE
 10
 11.4000
 20
  0.3000
 30
0.0
 0
VERTEX
 8
TITLE
 10
 13.4000
 20
  0.3000
 30
0.0
 0
VERTEX
 8
TITLE
 10
 13.4000
 20
  0.2000
 30
0.0
 0
VERTEX
 8
TITLE
 10
 11.4000
 20
  0.2000
 30
0.0
 0
SEQEND
 8
TITLE
 0
POLYLINE
 8
TITLE
 66
1
 70
1
 10
0.0
 20
0.0
 30
0.0
 0
VERTEX
 8
TITLE
 10
 13.4000
 20
  0.3000
 30
0.0
 0
VERTEX
 8
TITLE
 10
 15.0000
 20
  0.3000
 30
0.0
 0
VERTEX
 8
TITLE
 10
 15.0000
 20
  0.2000
 30
0.0
 0
VERTEX
 8
TITLE
 10
 13.4000
 20
  0.2000
 30
0.0
 0
SEQEND
 8
TITLE
 0
TEXT
 8
PARTTEXT
 10
 14.2000
 20
  0.2186
 30
0.0
 40
  0.0514
 1
of
 0
TEXT
 8
PARTTEXT
 10
  2.9600
 20
  8.0186
 30
0.0
 40
  0.0514
 1
C1
 0
TEXT
 8
PARTTEXT
 10
  2.9600
 20
  7.8986
 30
0.0
 40
  0.0514
 1
47u
 0
TEXT
 8
PARTTEXT
 10
  2.7000
 20
  7.6686
 30
0.0
 40
  0.0514
 1
CMAX
 0
LINE
 8
PARTS
 10
  2.8000
 20
  7.8000
 30
0.0
 11
  2.8000
 21
  7.9000
 31
0.0
 0
POLYLINE
 8
PARTS
 66
1
 10
0.0
 20
0.0
 30
0.0
 0
VERTEX
 8
PARTS
 10
  2.8500
 20
  7.9700
 30
0.0
 0
VERTEX
 8
PARTS
 10
  2.7500
 20
  7.9700
 30
0.0
 0
SEQEND
 8
PARTS
 0
POLYLINE
 8
PARTS
 66
1
 10
0.0
 20
0.0
 30
0.0
 0
VERTEX
 8
PARTS
 10
  2.8500
 20
  7.9300
 30
0.0
 0
VERTEX
 8
PARTS
 10
  2.7500
 20
  7.9300
 30
0.0
 0
SEQEND
 8
PARTS
 0
POLYLINE
 8
PARTS
 66
1
 10
0.0
 20
0.0
 30
0.0
 0
VERTEX
 8
PARTS
 10
  2.8000
 20
  7.9300
 30
0.0
 0
VERTEX
 8
PARTS
 10
  2.8000
 20
  7.9000
 30
0.0
 0
SEQEND
 8
PARTS
 0
POLYLINE
 8
PARTS
 66
1
 10
0.0
 20
0.0
 30
0.0
 0
VERTEX
 8
PARTS
 10
  2.7500
 20
  8.0000
 30
0.0
 0
VERTEX
 8
PARTS
 10
  2.7900
 20
  8.0000
 30
0.0
 0
SEQEND
 8
PARTS
 0
POLYLINE
 8
PARTS
 66
1
 10
0.0
 20
0.0
 30
0.0
 0
VERTEX
 8
PARTS
 10
  2.7700
 20
  8.0200
 30
0.0
 0
VERTEX
 8
PARTS
 10
  2.7700
 20
  7.9800
 30
0.0
 0
SEQEND
 8
PARTS
 0
POLYLINE
 8
PARTS
 66
1
 10
0.0
 20
0.0
 30
0.0
 0
VERTEX
 8
PARTS
 10
  2.8000
 20
  8.0000
 30
0.0
 0
VERTEX
 8
PARTS
 10
  2.8000
 20
  7.9700
 30
0.0
 0
SEQEND
 8
PARTS
 0
POLYLINE
 8
PARTS
 66
1
 10
0.0
 20
0.0
 30
0.0
 0
VERTEX
 8
PARTS
 10
  2.8000
 20
  8.0000
 30
0.0
 0
VERTEX
 8
PARTS
 10
  2.8000
 20
  8.1000
 30
0.0
 0
SEQEND
 8
PARTS
 0
TEXT
 8
PARTTEXT
 10
  7.4000
 20
  7.5586
 30
0.0
 40
  0.0514
 1
J12
 0
TEXT
 8
PARTTEXT
 10
  7.4000
 20
  7.4386
 30
0.0
 40
  0.0514
 1
PEDAL5_OUT
 0
LINE
 8
PARTS
 10
  7.7000
 20
  6.6000
 30
0.0
 11
  7.7000
 21
  6.9000
 31
0.0
 0
TEXT
 8
PARTS
 10
  7.6700
 20
  6.7800
 30
0.0
 40
  0.0500
 50
 90.0000
 1
3
 0
LINE
 8
PARTS
 10
  7.6000
 20
  6.6000
 30
0.0
 11
  7.6000
 21
  6.9000
 31
0.0
 0
TEXT
 8
PARTS
 10
  7.5700
 20
  6.7800
 30
0.0
 40
  0.0500
 50
 90.0000
 1
2
 0
LINE
 8
PARTS
 10
  7.5000
 20
  6.6000
 30
0.0
 11
  7.5000
 21
  6.9000
 31
0.0
 0
TEXT
 8
PARTS
 10
  7.4700
 20
  6.7800
 30
0.0
 40
  0.0500
 50
 90.0000
 1
1
 0
POLYLINE
 8
PARTS
 66
1
 70
1
 10
0.0
 20
0.0
 30
0.0
 0
VERTEX
 8
PARTS
 10
  7.7000
 20
  7.0200
 30
0.0
 0
VERTEX
 8
PARTS
 10
  7.6600
 20
  7.0600
 30
0.0
 0
VERTEX
 8
PARTS
 10
  7.6600
 20
  6.9800
 30
0.0
 0
VERTEX
 8
PARTS
 10
  7.7000
 20
  7.0200
 30
0.0
 0
SEQEND
 8
PARTS
 0
POLYLINE
 8
PARTS
 66
1
 10
0.0
 20
0.0
 30
0.0
 0
VERTEX
 8
PARTS
 10
  7.7000
 20
  7.4000
 30
0.0
 0
VERTEX
 8
PARTS
 10
  7.7000
 20
  7.3100
 30
0.0
 0
SEQEND
 8
PARTS
 0
POLYLINE
 8
PARTS
 66
1
 10
0.0
 20
0.0
 30
0.0
 0
VERTEX
 8
PARTS
 10
  7.7000
 20
  7.3100
 30
0.0
 0
VERTEX
 8
PARTS
 10
  7.5000
 20
  7.3100
 30
0.0
 0
SEQEND
 8
PARTS
 0
POLYLINE
 8
PARTS
 66
1
 10
0.0
 20
0.0
 30
0.0
 0
VERTEX
 8
PARTS
 10
  7.5000
 20
  7.3100
 30
0.0
 0
VERTEX
 8
PARTS
 10
  7.5000
 20
  7.4000
 30
0.0
 0
SEQEND
 8
PARTS
 0
POLYLINE
 8
PARTS
 66
1
 10
0.0
 20
0.0
 30
0.0
 0
VERTEX
 8
PARTS
 10
  7.5000
 20
  7.4000
 30
0.0
 0
VERTEX
 8
PARTS
 10
  7.7000
 20
  7.4000
 30
0.0
 0
SEQEND
 8
PARTS
 0
POLYLINE
 8
PARTS
 66
1
 10
0.0
 20
0.0
 30
0.0
 0
VERTEX
 8
PARTS
 10
  7.7000
 20
  7.2500
 30
0.0
 0
VERTEX
 8
PARTS
 10
  7.6300
 20
  7.1800
 30
0.0
 0
SEQEND
 8
PARTS
 0
POLYLINE
 8
PARTS
 66
1
 10
0.0
 20
0.0
 30
0.0
 0
VERTEX
 8
PARTS
 10
  7.6300
 20
  7.1800
 30
0.0
 0
VERTEX
 8
PARTS
 10
  7.7000
 20
  7.1100
 30
0.0
 0
SEQEND
 8
PARTS
 0
POLYLINE
 8
PARTS
 66
1
 10
0.0
 20
0.0
 30
0.0
 0
VERTEX
 8
PARTS
 10
  7.7000
 20
  7.1100
 30
0.0
 0
VERTEX
 8
PARTS
 10
  7.7000
 20
  6.9000
 30
0.0
 0
SEQEND
 8
PARTS
 0
POLYLINE
 8
PARTS
 66
1
 10
0.0
 20
0.0
 30
0.0
 0
VERTEX
 8
PARTS
 10
  7.6000
 20
  7.0200
 30
0.0
 0
VERTEX
 8
PARTS
 10
  7.6000
 20
  6.9000
 30
0.0
 0
SEQEND
 8
PARTS
 0
POLYLINE
 8
PARTS
 66
1
 10
0.0
 20
0.0
 30
0.0
 0
VERTEX
 8
PARTS
 10
  7.5000
 20
  7.3100
 30
0.0
 0
VERTEX
 8
PARTS
 10
  7.5000
 20
  6.9000
 30
0.0
 0
SEQEND
 8
PARTS
 0
POLYLINE
 8
PARTS
 66
1
 10
0.0
 20
0.0
 30
0.0
 0
VERTEX
 8
PARTS
 10
  7.6000
 20
  6.9000
 30
0.0
 0
VERTEX
 8
PARTS
 10
  7.6000
 20
  7.0200
 30
0.0
 0
SEQEND
 8
PARTS
 0
POLYLINE
 8
PARTS
 66
1
 10
0.0
 20
0.0
 30
0.0
 0
VERTEX
 8
PARTS
 10
  7.6600
 20
  7.0200
 30
0.0
 0
VERTEX
 8
PARTS
 10
  7.6000
 20
  7.0200
 30
0.0
 0
SEQEND
 8
PARTS
 0
TEXT
 8
PARTTEXT
 10
  8.5000
 20
  7.5586
 30
0.0
 40
  0.0514
 1
J13
 0
TEXT
 8
PARTTEXT
 10
  8.5000
 20
  7.4386
 30
0.0
 40
  0.0514
 1
PEDAL6_IN
 0
LINE
 8
PARTS
 10
  8.8000
 20
  6.6000
 30
0.0
 11
  8.8000
 21
  6.9000
 31
0.0
 0
TEXT
 8
PARTS
 10
  8.7700
 20
  6.7800
 30
0.0
 40
  0.0500
 50
 90.0000
 1
3
 0
LINE
 8
PARTS
 10
  8.7000
 20
  6.6000
 30
0.0
 11
  8.7000
 21
  6.9000
 31
0.0
 0
TEXT
 8
PARTS
 10
  8.6700
 20
  6.7800
 30
0.0
 40
  0.0500
 50
 90.0000
 1
2
 0
LINE
 8
PARTS
 10
  8.6000
 20
  6.6000
 30
0.0
 11
  8.6000
 21
  6.9000
 31
0.0
 0
TEXT
 8
PARTS
 10
  8.5700
 20
  6.7800
 30
0.0
 40
  0.0500
 50
 90.0000
 1
1
 0
POLYLINE
 8
PARTS
 66
1
 70
1
 10
0.0
 20
0.0
 30
0.0
 0
VERTEX
 8
PARTS
 10
  8.8000
 20
  7.0200
 30
0.0
 0
VERTEX
 8
PARTS
 10
  8.7600
 20
  7.0600
 30
0.0
 0
VERTEX
 8
PARTS
 10
  8.7600
 20
  6.9800
 30
0.0
 0
VERTEX
 8
PARTS
 10
  8.8000
 20
  7.0200
 30
0.0
 0
SEQEND
 8
PARTS
 0
POLYLINE
 8
PARTS
 66
1
 10
0.0
 20
0.0
 30
0.0
 0
VERTEX
 8
PARTS
 10
  8.8000
 20
  7.4000
 30
0.0
 0
VERTEX
 8
PARTS
 10
  8.8000
 20
  7.3100
 30
0.0
 0
SEQEND
 8
PARTS
 0
POLYLINE
 8
PARTS
 66
1
 10
0.0
 20
0.0
 30
0.0
 0
VERTEX
 8
PARTS
 10
  8.8000
 20
  7.3100
 30
0.0
 0
VERTEX
 8
PARTS
 10
  8.6000
 20
  7.3100
 30
0.0
 0
SEQEND
 8
PARTS
 0
POLYLINE
 8
PARTS
 66
1
 10
0.0
 20
0.0
 30
0.0
 0
VERTEX
 8
PARTS
 10
  8.6000
 20
  7.3100
 30
0.0
 0
VERTEX
 8
PARTS
 10
  8.6000
 20
  7.4000
 30
0.0
 0
SEQEND
 8
PARTS
 0
POLYLINE
 8
PARTS
 66
1
 10
0.0
 20
0.0
 30
0.0
 0
VERTEX
 8
PARTS
 10
  8.6000
 20
  7.4000
 30
0.0
 0
VERTEX
 8
PARTS
 10
  8.8000
 20
  7.4000
 30
0.0
 0
SEQEND
 8
PARTS
 0
POLYLINE
 8
PARTS
 66
1
 10
0.0
 20
0.0
 30
0.0
 0
VERTEX
 8
PARTS
 10
  8.8000
 20
  7.2500
 30
0.0
 0
VERTEX
 8
PARTS
 10
  8.7300
 20
  7.1800
 30
0.0
 0
SEQEND
 8
PARTS
 0
POLYLINE
 8
PARTS
 66
1
 10
0.0
 20
0.0
 30
0.0
 0
VERTEX
 8
PARTS
 10
  8.7300
 20
  7.1800
 30
0.0
 0
VERTEX
 8
PARTS
 10
  8.8000
 20
  7.1100
 30
0.0
 0
SEQEND
 8
PARTS
 0
POLYLINE
 8
PARTS
 66
1
 10
0.0
 20
0.0
 30
0.0
 0
VERTEX
 8
PARTS
 10
  8.8000
 20
  7.1100
 30
0.0
 0
VERTEX
 8
PARTS
 10
  8.8000
 20
  6.9000
 30
0.0
 0
SEQEND
 8
PARTS
 0
POLYLINE
 8
PARTS
 66
1
 10
0.0
 20
0.0
 30
0.0
 0
VERTEX
 8
PARTS
 10
  8.7000
 20
  7.0200
 30
0.0
 0
VERTEX
 8
PARTS
 10
  8.7000
 20
  6.9000
 30
0.0
 0
SEQEND
 8
PARTS
 0
POLYLINE
 8
PARTS
 66
1
 10
0.0
 20
0.0
 30
0.0
 0
VERTEX
 8
PARTS
 10
  8.6000
 20
  7.3100
 30
0.0
 0
VERTEX
 8
PARTS
 10
  8.6000
 20
  6.9000
 30
0.0
 0
SEQEND
 8
PARTS
 0
POLYLINE
 8
PARTS
 66
1
 10
0.0
 20
0.0
 30
0.0
 0
VERTEX
 8
PARTS
 10
  8.7000
 20
  6.9000
 30
0.0
 0
VERTEX
 8
PARTS
 10
  8.7000
 20
  7.0200
 30
0.0
 0
SEQEND
 8
PARTS
 0
POLYLINE
 8
PARTS
 66
1
 10
0.0
 20
0.0
 30
0.0
 0
VERTEX
 8
PARTS
 10
  8.7600
 20
  7.0200
 30
0.0
 0
VERTEX
 8
PARTS
 10
  8.7000
 20
  7.0200
 30
0.0
 0
SEQEND
 8
PARTS
 0
TEXT
 8
PARTTEXT
 10
  9.5000
 20
  7.5586
 30
0.0
 40
  0.0514
 1
J14
 0
TEXT
 8
PARTTEXT
 10
  9.5000
 20
  7.4386
 30
0.0
 40
  0.0514
 1
PEDAL6_OUT
 0
LINE
 8
PARTS
 10
  9.8000
 20
  6.6000
 30
0.0
 11
  9.8000
 21
  6.9000
 31
0.0
 0
TEXT
 8
PARTS
 10
  9.7700
 20
  6.7800
 30
0.0
 40
  0.0500
 50
 90.0000
 1
3
 0
LINE
 8
PARTS
 10
  9.7000
 20
  6.6000
 30
0.0
 11
  9.7000
 21
  6.9000
 31
0.0
 0
TEXT
 8
PARTS
 10
  9.6700
 20
  6.7800
 30
0.0
 40
  0.0500
 50
 90.0000
 1
2
 0
LINE
 8
PARTS
 10
  9.6000
 20
  6.6000
 30
0.0
 11
  9.6000
 21
  6.9000
 31
0.0
 0
TEXT
 8
PARTS
 10
  9.5700
 20
  6.7800
 30
0.0
 40
  0.0500
 50
 90.0000
 1
1
 0
POLYLINE
 8
PARTS
 66
1
 70
1
 10
0.0
 20
0.0
 30
0.0
 0
VERTEX
 8
PARTS
 10
  9.8000
 20
  7.0200
 30
0.0
 0
VERTEX
 8
PARTS
 10
  9.7600
 20
  7.0600
 30
0.0
 0
VERTEX
 8
PARTS
 10
  9.7600
 20
  6.9800
 30
0.0
 0
VERTEX
 8
PARTS
 10
  9.8000
 20
  7.0200
 30
0.0
 0
SEQEND
 8
PARTS
 0
POLYLINE
 8
PARTS
 66
1
 10
0.0
 20
0.0
 30
0.0
 0
VERTEX
 8
PARTS
 10
  9.8000
 20
  7.4000
 30
0.0
 0
VERTEX
 8
PARTS
 10
  9.8000
 20
  7.3100
 30
0.0
 0
SEQEND
 8
PARTS
 0
POLYLINE
 8
PARTS
 66
1
 10
0.0
 20
0.0
 30
0.0
 0
VERTEX
 8
PARTS
 10
  9.8000
 20
  7.3100
 30
0.0
 0
VERTEX
 8
PARTS
 10
  9.6000
 20
  7.3100
 30
0.0
 0
SEQEND
 8
PARTS
 0
POLYLINE
 8
PARTS
 66
1
 10
0.0
 20
0.0
 30
0.0
 0
VERTEX
 8
PARTS
 10
  9.6000
 20
  7.3100
 30
0.0
 0
VERTEX
 8
PARTS
 10
  9.6000
 20
  7.4000
 30
0.0
 0
SEQEND
 8
PARTS
 0
POLYLINE
 8
PARTS
 66
1
 10
0.0
 20
0.0
 30
0.0
 0
VERTEX
 8
PARTS
 10
  9.6000
 20
  7.4000
 30
0.0
 0
VERTEX
 8
PARTS
 10
  9.8000
 20
  7.4000
 30
0.0
 0
SEQEND
 8
PARTS
 0
POLYLINE
 8
PARTS
 66
1
 10
0.0
 20
0.0
 30
0.0
 0
VERTEX
 8
PARTS
 10
  9.8000
 20
  7.2500
 30
0.0
 0
VERTEX
 8
PARTS
 10
  9.7300
 20
  7.1800
 30
0.0
 0
SEQEND
 8
PARTS
 0
POLYLINE
 8
PARTS
 66
1
 10
0.0
 20
0.0
 30
0.0
 0
VERTEX
 8
PARTS
 10
  9.7300
 20
  7.1800
 30
0.0
 0
VERTEX
 8
PARTS
 10
  9.8000
 20
  7.1100
 30
0.0
 0
SEQEND
 8
PARTS
 0
POLYLINE
 8
PARTS
 66
1
 10
0.0
 20
0.0
 30
0.0
 0
VERTEX
 8
PARTS
 10
  9.8000
 20
  7.1100
 30
0.0
 0
VERTEX
 8
PARTS
 10
  9.8000
 20
  6.9000
 30
0.0
 0
SEQEND
 8
PARTS
 0
POLYLINE
 8
PARTS
 66
1
 10
0.0
 20
0.0
 30
0.0
 0
VERTEX
 8
PARTS
 10
  9.7000
 20
  7.0200
 30
0.0
 0
VERTEX
 8
PARTS
 10
  9.7000
 20
  6.9000
 30
0.0
 0
SEQEND
 8
PARTS
 0
POLYLINE
 8
PARTS
 66
1
 10
0.0
 20
0.0
 30
0.0
 0
VERTEX
 8
PARTS
 10
  9.6000
 20
  7.3100
 30
0.0
 0
VERTEX
 8
PARTS
 10
  9.6000
 20
  6.9000
 30
0.0
 0
SEQEND
 8
PARTS
 0
POLYLINE
 8
PARTS
 66
1
 10
0.0
 20
0.0
 30
0.0
 0
VERTEX
 8
PARTS
 10
  9.7000
 20
  6.9000
 30
0.0
 0
VERTEX
 8
PARTS
 10
  9.7000
 20
  7.0200
 30
0.0
 0
SEQEND
 8
PARTS
 0
POLYLINE
 8
PARTS
 66
1
 10
0.0
 20
0.0
 30
0.0
 0
VERTEX
 8
PARTS
 10
  9.7600
 20
  7.0200
 30
0.0
 0
VERTEX
 8
PARTS
 10
  9.7000
 20
  7.0200
 30
0.0
 0
SEQEND
 8
PARTS
 0
TEXT
 8
PARTTEXT
 10
  2.9700
 20
  4.9586
 30
0.0
 40
  0.0514
 1
U1
 0
TEXT
 8
PARTTEXT
 10
  2.9800
 20
  3.2786
 30
0.0
 40
  0.0514
 1
MT8809
 0
LINE
 8
PARTS
 10
  2.6000
 20
  4.8000
 30
0.0
 11
  2.9000
 21
  4.8000
 31
0.0
 0
TEXT
 8
PARTS
 10
  2.9900
 20
  4.7750
 30
0.0
 40
  0.0500
 1
AY2
 0
TEXT
 8
PARTS
 10
  2.8000
 20
  4.8300
 30
0.0
 40
  0.0500
 1
1
 0
LINE
 8
PARTS
 10
  2.6000
 20
  4.7000
 30
0.0
 11
  2.9000
 21
  4.7000
 31
0.0
 0
TEXT
 8
PARTS
 10
  2.9900
 20
  4.6750
 30
0.0
 40
  0.0500
 1
STROBE
 0
TEXT
 8
PARTS
 10
  2.8000
 20
  4.7300
 30
0.0
 40
  0.0500
 1
2
 0
LINE
 8
PARTS
 10
  2.6000
 20
  4.6000
 30
0.0
 11
  2.9000
 21
  4.6000
 31
0.0
 0
TEXT
 8
PARTS
 10
  2.9900
 20
  4.5750
 30
0.0
 40
  0.0500
 1
CS
 0
TEXT
 8
PARTS
 10
  2.8000
 20
  4.6300
 30
0.0
 40
  0.0500
 1
3
 0
LINE
 8
PARTS
 10
  2.6000
 20
  4.5000
 30
0.0
 11
  2.9000
 21
  4.5000
 31
0.0
 0
TEXT
 8
PARTS
 10
  2.9900
 20
  4.4750
 30
0.0
 40
  0.0500
 1
DATA
 0
TEXT
 8
PARTS
 10
  2.8000
 20
  4.5300
 30
0.0
 40
  0.0500
 1
4
 0
LINE
 8
PARTS
 10
  2.6000
 20
  4.4000
 30
0.0
 11
  2.9000
 21
  4.4000
 31
0.0
 0
TEXT
 8
PARTS
 10
  2.9900
 20
  4.3750
 30
0.0
 40
  0.0500
 1
VSS
 0
TEXT
 8
PARTS
 10
  2.8000
 20
  4.4300
 30
0.0
 40
  0.0500
 1
5
 0
LINE
 8
PARTS
 10
  2.6000
 20
  4.3000
 30
0.0
 11
  2.9000
 21
  4.3000
 31
0.0
 0
TEXT
 8
PARTS
 10
  2.9900
 20
  4.2750
 30
0.0
 40
  0.0500
 1
X0
 0
TEXT
 8
PARTS
 10
  2.8000
 20
  4.3300
 30
0.0
 40
  0.0500
 1
6
 0
LINE
 8
PARTS
 10
  2.6000
 20
  4.2000
 30
0.0
 11
  2.9000
 21
  4.2000
 31
0.0
 0
TEXT
 8
PARTS
 10
  2.9900
 20
  4.1750
 30
0.0
 40
  0.0500
 1
X2
 0
TEXT
 8
PARTS
 10
  2.8000
 20
  4.2300
 30
0.0
 40
  0.0500
 1
7
 0
LINE
 8
PARTS
 10
  2.6000
 20
  4.1000
 30
0.0
 11
  2.9000
 21
  4.1000
 31
0.0
 0
TEXT
 8
PARTS
 10
  2.9900
 20
  4.0750
 30
0.0
 40
  0.0500
 1
X4
 0
TEXT
 8
PARTS
 10
  2.8000
 20
  4.1300
 30
0.0
 40
  0.0500
 1
8
 0
LINE
 8
PARTS
 10
  2.6000
 20
  4.0000
 30
0.0
 11
  2.9000
 21
  4.0000
 31
0.0
 0
TEXT
 8
PARTS
 10
  2.9900
 20
  3.9750
 30
0.0
 40
  0.0500
 1
X6
 0
TEXT
 8
PARTS
 10
  2.8000
 20
  4.0300
 30
0.0
 40
  0.0500
 1
9
 0
LINE
 8
PARTS
 10
  2.6000
 20
  3.9000
 30
0.0
 11
  2.9000
 21
  3.9000
 31
0.0
 0
TEXT
 8
PARTS
 10
  2.9900
 20
  3.8750
 30
0.0
 40
  0.0500
 1
RESET
 0
TEXT
 8
PARTS
 10
  2.7600
 20
  3.9300
 30
0.0
 40
  0.0500
 1
10
 0
LINE
 8
PARTS
 10
  2.6000
 20
  3.8000
 30
0.0
 11
  2.9000
 21
  3.8000
 31
0.0
 0
TEXT
 8
PARTS
 10
  2.9900
 20
  3.7750
 30
0.0
 40
  0.0500
 1
Y7
 0
TEXT
 8
PARTS
 10
  2.7600
 20
  3.8300
 30
0.0
 40
  0.0500
 1
11
 0
LINE
 8
PARTS
 10
  2.6000
 20
  3.7000
 30
0.0
 11
  2.9000
 21
  3.7000
 31
0.0
 0
TEXT
 8
PARTS
 10
  2.9900
 20
  3.6750
 30
0.0
 40
  0.0500
 1
Y6
 0
TEXT
 8
PARTS
 10
  2.7600
 20
  3.7300
 30
0.0
 40
  0.0500
 1
12
 0
LINE
 8
PARTS
 10
  2.6000
 20
  3.6000
 30
0.0
 11
  2.9000
 21
  3.6000
 31
0.0
 0
TEXT
 8
PARTS
 10
  2.9900
 20
  3.5750
 30
0.0
 40
  0.0500
 1
Y5
 0
TEXT
 8
PARTS
 10
  2.7600
 20
  3.6300
 30
0.0
 40
  0.0500
 1
13
 0
LINE
 8
PARTS
 10
  2.6000
 20
  3.5000
 30
0.0
 11
  2.9000
 21
  3.5000
 31
0.0
 0
TEXT
 8
PARTS
 10
  2.9900
 20
  3.4750
 30
0.0
 40
  0.0500
 1
Y4
 0
TEXT
 8
PARTS
 10
  2.7600
 20
  3.5300
 30
0.0
 40
  0.0500
 1
14
 0
LINE
 8
PARTS
 10
  3.9000
 20
  4.8000
 30
0.0
 11
  3.6000
 21
  4.8000
 31
0.0
 0
TEXT
 8
PARTS
 10
  3.3900
 20
  4.7750
 30
0.0
 40
  0.0500
 1
AY1
 0
TEXT
 8
PARTS
 10
  3.6600
 20
  4.8300
 30
0.0
 40
  0.0500
 1
28
 0
LINE
 8
PARTS
 10
  3.9000
 20
  4.7000
 30
0.0
 11
  3.6000
 21
  4.7000
 31
0.0
 0
TEXT
 8
PARTS
 10
  3.3900
 20
  4.6750
 30
0.0
 40
  0.0500
 1
AY0
 0
TEXT
 8
PARTS
 10
  3.6600
 20
  4.7300
 30
0.0
 40
  0.0500
 1
27
 0
LINE
 8
PARTS
 10
  3.9000
 20
  4.6000
 30
0.0
 11
  3.6000
 21
  4.6000
 31
0.0
 0
TEXT
 8
PARTS
 10
  3.3900
 20
  4.5750
 30
0.0
 40
  0.0500
 1
AX2
 0
TEXT
 8
PARTS
 10
  3.6600
 20
  4.6300
 30
0.0
 40
  0.0500
 1
26
 0
LINE
 8
PARTS
 10
  3.9000
 20
  4.5000
 30
0.0
 11
  3.6000
 21
  4.5000
 31
0.0
 0
TEXT
 8
PARTS
 10
  3.3900
 20
  4.4750
 30
0.0
 40
  0.0500
 1
AX1
 0
TEXT
 8
PARTS
 10
  3.6600
 20
  4.5300
 30
0.0
 40
  0.0500
 1
25
 0
LINE
 8
PARTS
 10
  3.9000
 20
  4.4000
 30
0.0
 11
  3.6000
 21
  4.4000
 31
0.0
 0
TEXT
 8
PARTS
 10
  3.3900
 20
  4.3750
 30
0.0
 40
  0.0500
 1
AX0
 0
TEXT
 8
PARTS
 10
  3.6600
 20
  4.4300
 30
0.0
 40
  0.0500
 1
24
 0
LINE
 8
PARTS
 10
  3.9000
 20
  4.3000
 30
0.0
 11
  3.6000
 21
  4.3000
 31
0.0
 0
TEXT
 8
PARTS
 10
  3.4300
 20
  4.2750
 30
0.0
 40
  0.0500
 1
X1
 0
TEXT
 8
PARTS
 10
  3.6600
 20
  4.3300
 30
0.0
 40
  0.0500
 1
23
 0
LINE
 8
PARTS
 10
  3.9000
 20
  4.2000
 30
0.0
 11
  3.6000
 21
  4.2000
 31
0.0
 0
TEXT
 8
PARTS
 10
  3.4300
 20
  4.1750
 30
0.0
 40
  0.0500
 1
X3
 0
TEXT
 8
PARTS
 10
  3.6600
 20
  4.2300
 30
0.0
 40
  0.0500
 1
22
 0
LINE
 8
PARTS
 10
  3.9000
 20
  4.1000
 30
0.0
 11
  3.6000
 21
  4.1000
 31
0.0
 0
TEXT
 8
PARTS
 10
  3.4300
 20
  4.0750
 30
0.0
 40
  0.0500
 1
X5
 0
TEXT
 8
PARTS
 10
  3.6600
 20
  4.1300
 30
0.0
 40
  0.0500
 1
21
 0
LINE
 8
PARTS
 10
  3.9000
 20
  4.0000
 30
0.0
 11
  3.6000
 21
  4.0000
 31
0.0
 0
TEXT
 8
PARTS
 10
  3.4300
 20
  3.9750
 30
0.0
 40
  0.0500
 1
X7
 0
TEXT
 8
PARTS
 10
  3.6600
 20
  4.0300
 30
0.0
 40
  0.0500
 1
20
 0
LINE
 8
PARTS
 10
  3.9000
 20
  3.9000
 30
0.0
 11
  3.6000
 21
  3.9000
 31
0.0
 0
TEXT
 8
PARTS
 10
  3.3900
 20
  3.8750
 30
0.0
 40
  0.0500
 1
VDD
 0
TEXT
 8
PARTS
 10
  3.6600
 20
  3.9300
 30
0.0
 40
  0.0500
 1
19
 0
LINE
 8
PARTS
 10
  3.9000
 20
  3.8000
 30
0.0
 11
  3.6000
 21
  3.8000
 31
0.0
 0
TEXT
 8
PARTS
 10
  3.4300
 20
  3.7750
 30
0.0
 40
  0.0500
 1
Y0
 0
TEXT
 8
PARTS
 10
  3.6600
 20
  3.8300
 30
0.0
 40
  0.0500
 1
18
 0
LINE
 8
PARTS
 10
  3.9000
 20
  3.7000
 30
0.0
 11
  3.6000
 21
  3.7000
 31
0.0
 0
TEXT
 8
PARTS
 10
  3.4300
 20
  3.6750
 30
0.0
 40
  0.0500
 1
Y1
 0
TEXT
 8
PARTS
 10
  3.6600
 20
  3.7300
 30
0.0
 40
  0.0500
 1
17
 0
LINE
 8
PARTS
 10
  3.9000
 20
  3.6000
 30
0.0
 11
  3.6000
 21
  3.6000
 31
0.0
 0
TEXT
 8
PARTS
 10
  3.4300
 20
  3.5750
 30
0.0
 40
  0.0500
 1
Y2
 0
TEXT
 8
PARTS
 10
  3.6600
 20
  3.6300
 30
0.0
 40
  0.0500
 1
16
 0
LINE
 8
PARTS
 10
  3.9000
 20
  3.5000
 30
0.0
 11
  3.6000
 21
  3.5000
 31
0.0
 0
TEXT
 8
PARTS
 10
  3.4300
 20
  3.4750
 30
0.0
 40
  0.0500
 1
Y3
 0
TEXT
 8
PARTS
 10
  3.6600
 20
  3.5300
 30
0.0
 40
  0.0500
 1
15
 0
POLYLINE
 8
PARTS
 66
1
 70
1
 10
0.0
 20
0.0
 30
0.0
 0
VERTEX
 8
PARTS
 10
  2.9000
 20
  4.9000
 30
0.0
 0
VERTEX
 8
PARTS
 10
  3.6000
 20
  4.9000
 30
0.0
 0
VERTEX
 8
PARTS
 10
  3.6000
 20
  3.4000
 30
0.0
 0
VERTEX
 8
PARTS
 10
  2.9000
 20
  3.4000
 30
0.0
 0
SEQEND
 8
PARTS
 0
TEXT
 8
PARTTEXT
 10
  2.9600
 20
  8.7186
 30
0.0
 40
  0.0514
 1
C2
 0
TEXT
 8
PARTTEXT
 10
  2.9600
 20
  8.5986
 30
0.0
 40
  0.0514
 1
47u
 0
TEXT
 8
PARTTEXT
 10
  2.7000
 20
  8.3686
 30
0.0
 40
  0.0514
 1
CMAX
 0
LINE
 8
PARTS
 10
  2.8000
 20
  8.5000
 30
0.0
 11
  2.8000
 21
  8.6000
 31
0.0
 0
POLYLINE
 8
PARTS
 66
1
 10
0.0
 20
0.0
 30
0.0
 0
VERTEX
 8
PARTS
 10
  2.8500
 20
  8.6700
 30
0.0
 0
VERTEX
 8
PARTS
 10
  2.7500
 20
  8.6700
 30
0.0
 0
SEQEND
 8
PARTS
 0
POLYLINE
 8
PARTS
 66
1
 10
0.0
 20
0.0
 30
0.0
 0
VERTEX
 8
PARTS
 10
  2.8500
 20
  8.6300
 30
0.0
 0
VERTEX
 8
PARTS
 10
  2.7500
 20
  8.6300
 30
0.0
 0
SEQEND
 8
PARTS
 0
POLYLINE
 8
PARTS
 66
1
 10
0.0
 20
0.0
 30
0.0
 0
VERTEX
 8
PARTS
 10
  2.8000
 20
  8.6300
 30
0.0
 0
VERTEX
 8
PARTS
 10
  2.8000
 20
  8.6000
 30
0.0
 0
SEQEND
 8
PARTS
 0
POLYLINE
 8
PARTS
 66
1
 10
0.0
 20
0.0
 30
0.0
 0
VERTEX
 8
PARTS
 10
  2.7500
 20
  8.7000
 30
0.0
 0
VERTEX
 8
PARTS
 10
  2.7900
 20
  8.7000
 30
0.0
 0
SEQEND
 8
PARTS
 0
POLYLINE
 8
PARTS
 66
1
 10
0.0
 20
0.0
 30
0.0
 0
VERTEX
 8
PARTS
 10
  2.7700
 20
  8.7200
 30
0.0
 0
VERTEX
 8
PARTS
 10
  2.7700
 20
  8.6800
 30
0.0
 0
SEQEND
 8
PARTS
 0
POLYLINE
 8
PARTS
 66
1
 10
0.0
 20
0.0
 30
0.0
 0
VERTEX
 8
PARTS
 10
  2.8000
 20
  8.7000
 30
0.0
 0
VERTEX
 8
PARTS
 10
  2.8000
 20
  8.6700
 30
0.0
 0
SEQEND
 8
PARTS
 0
POLYLINE
 8
PARTS
 66
1
 10
0.0
 20
0.0
 30
0.0
 0
VERTEX
 8
PARTS
 10
  2.8000
 20
  8.7000
 30
0.0
 0
VERTEX
 8
PARTS
 10
  2.8000
 20
  8.8000
 30
0.0
 0
SEQEND
 8
PARTS
 0
TEXT
 8
PARTTEXT
 10
 10.6000
 20
  7.5586
 30
0.0
 40
  0.0514
 1
J15
 0
TEXT
 8
PARTTEXT
 10
 10.6000
 20
  7.4386
 30
0.0
 40
  0.0514
 1
PEDAL7_IN
 0
LINE
 8
PARTS
 10
 10.9000
 20
  6.6000
 30
0.0
 11
 10.9000
 21
  6.9000
 31
0.0
 0
TEXT
 8
PARTS
 10
 10.8700
 20
  6.7800
 30
0.0
 40
  0.0500
 50
 90.0000
 1
3
 0
LINE
 8
PARTS
 10
 10.8000
 20
  6.6000
 30
0.0
 11
 10.8000
 21
  6.9000
 31
0.0
 0
TEXT
 8
PARTS
 10
 10.7700
 20
  6.7800
 30
0.0
 40
  0.0500
 50
 90.0000
 1
2
 0
LINE
 8
PARTS
 10
 10.7000
 20
  6.6000
 30
0.0
 11
 10.7000
 21
  6.9000
 31
0.0
 0
TEXT
 8
PARTS
 10
 10.6700
 20
  6.7800
 30
0.0
 40
  0.0500
 50
 90.0000
 1
1
 0
POLYLINE
 8
PARTS
 66
1
 70
1
 10
0.0
 20
0.0
 30
0.0
 0
VERTEX
 8
PARTS
 10
 10.9000
 20
  7.0200
 30
0.0
 0
VERTEX
 8
PARTS
 10
 10.8600
 20
  7.0600
 30
0.0
 0
VERTEX
 8
PARTS
 10
 10.8600
 20
  6.9800
 30
0.0
 0
VERTEX
 8
PARTS
 10
 10.9000
 20
  7.0200
 30
0.0
 0
SEQEND
 8
PARTS
 0
POLYLINE
 8
PARTS
 66
1
 10
0.0
 20
0.0
 30
0.0
 0
VERTEX
 8
PARTS
 10
 10.9000
 20
  7.4000
 30
0.0
 0
VERTEX
 8
PARTS
 10
 10.9000
 20
  7.3100
 30
0.0
 0
SEQEND
 8
PARTS
 0
POLYLINE
 8
PARTS
 66
1
 10
0.0
 20
0.0
 30
0.0
 0
VERTEX
 8
PARTS
 10
 10.9000
 20
  7.3100
 30
0.0
 0
VERTEX
 8
PARTS
 10
 10.7000
 20
  7.3100
 30
0.0
 0
SEQEND
 8
PARTS
 0
POLYLINE
 8
PARTS
 66
1
 10
0.0
 20
0.0
 30
0.0
 0
VERTEX
 8
PARTS
 10
 10.7000
 20
  7.3100
 30
0.0
 0
VERTEX
 8
PARTS
 10
 10.7000
 20
  7.4000
 30
0.0
 0
SEQEND
 8
PARTS
 0
POLYLINE
 8
PARTS
 66
1
 10
0.0
 20
0.0
 30
0.0
 0
VERTEX
 8
PARTS
 10
 10.7000
 20
  7.4000
 30
0.0
 0
VERTEX
 8
PARTS
 10
 10.9000
 20
  7.4000
 30
0.0
 0
SEQEND
 8
PARTS
 0
POLYLINE
 8
PARTS
 66
1
 10
0.0
 20
0.0
 30
0.0
 0
VERTEX
 8
PARTS
 10
 10.9000
 20
  7.2500
 30
0.0
 0
VERTEX
 8
PARTS
 10
 10.8300
 20
  7.1800
 30
0.0
 0
SEQEND
 8
PARTS
 0
POLYLINE
 8
PARTS
 66
1
 10
0.0
 20
0.0
 30
0.0
 0
VERTEX
 8
PARTS
 10
 10.8300
 20
  7.1800
 30
0.0
 0
VERTEX
 8
PARTS
 10
 10.9000
 20
  7.1100
 30
0.0
 0
SEQEND
 8
PARTS
 0
POLYLINE
 8
PARTS
 66
1
 10
0.0
 20
0.0
 30
0.0
 0
VERTEX
 8
PARTS
 10
 10.9000
 20
  7.1100
 30
0.0
 0
VERTEX
 8
PARTS
 10
 10.9000
 20
  6.9000
 30
0.0
 0
SEQEND
 8
PARTS
 0
POLYLINE
 8
PARTS
 66
1
 10
0.0
 20
0.0
 30
0.0
 0
VERTEX
 8
PARTS
 10
 10.8000
 20
  7.0200
 30
0.0
 0
VERTEX
 8
PARTS
 10
 10.8000
 20
  6.9000
 30
0.0
 0
SEQEND
 8
PARTS
 0
POLYLINE
 8
PARTS
 66
1
 10
0.0
 20
0.0
 30
0.0
 0
VERTEX
 8
PARTS
 10
 10.7000
 20
  7.3100
 30
0.0
 0
VERTEX
 8
PARTS
 10
 10.7000
 20
  6.9000
 30
0.0
 0
SEQEND
 8
PARTS
 0
POLYLINE
 8
PARTS
 66
1
 10
0.0
 20
0.0
 30
0.0
 0
VERTEX
 8
PARTS
 10
 10.8000
 20
  6.9000
 30
0.0
 0
VERTEX
 8
PARTS
 10
 10.8000
 20
  7.0200
 30
0.0
 0
SEQEND
 8
PARTS
 0
POLYLINE
 8
PARTS
 66
1
 10
0.0
 20
0.0
 30
0.0
 0
VERTEX
 8
PARTS
 10
 10.8600
 20
  7.0200
 30
0.0
 0
VERTEX
 8
PARTS
 10
 10.8000
 20
  7.0200
 30
0.0
 0
SEQEND
 8
PARTS
 0
TEXT
 8
PARTTEXT
 10
 11.6000
 20
  7.5586
 30
0.0
 40
  0.0514
 1
J16
 0
TEXT
 8
PARTTEXT
 10
 11.6000
 20
  7.4386
 30
0.0
 40
  0.0514
 1
PEDAL7_OUT
 0
LINE
 8
PARTS
 10
 11.9000
 20
  6.6000
 30
0.0
 11
 11.9000
 21
  6.9000
 31
0.0
 0
TEXT
 8
PARTS
 10
 11.8700
 20
  6.7800
 30
0.0
 40
  0.0500
 50
 90.0000
 1
3
 0
LINE
 8
PARTS
 10
 11.8000
 20
  6.6000
 30
0.0
 11
 11.8000
 21
  6.9000
 31
0.0
 0
TEXT
 8
PARTS
 10
 11.7700
 20
  6.7800
 30
0.0
 40
  0.0500
 50
 90.0000
 1
2
 0
LINE
 8
PARTS
 10
 11.7000
 20
  6.6000
 30
0.0
 11
 11.7000
 21
  6.9000
 31
0.0
 0
TEXT
 8
PARTS
 10
 11.6700
 20
  6.7800
 30
0.0
 40
  0.0500
 50
 90.0000
 1
1
 0
POLYLINE
 8
PARTS
 66
1
 70
1
 10
0.0
 20
0.0
 30
0.0
 0
VERTEX
 8
PARTS
 10
 11.9000
 20
  7.0200
 30
0.0
 0
VERTEX
 8
PARTS
 10
 11.8600
 20
  7.0600
 30
0.0
 0
VERTEX
 8
PARTS
 10
 11.8600
 20
  6.9800
 30
0.0
 0
VERTEX
 8
PARTS
 10
 11.9000
 20
  7.0200
 30
0.0
 0
SEQEND
 8
PARTS
 0
POLYLINE
 8
PARTS
 66
1
 10
0.0
 20
0.0
 30
0.0
 0
VERTEX
 8
PARTS
 10
 11.9000
 20
  7.4000
 30
0.0
 0
VERTEX
 8
PARTS
 10
 11.9000
 20
  7.3100
 30
0.0
 0
SEQEND
 8
PARTS
 0
POLYLINE
 8
PARTS
 66
1
 10
0.0
 20
0.0
 30
0.0
 0
VERTEX
 8
PARTS
 10
 11.9000
 20
  7.3100
 30
0.0
 0
VERTEX
 8
PARTS
 10
 11.7000
 20
  7.3100
 30
0.0
 0
SEQEND
 8
PARTS
 0
POLYLINE
 8
PARTS
 66
1
 10
0.0
 20
0.0
 30
0.0
 0
VERTEX
 8
PARTS
 10
 11.7000
 20
  7.3100
 30
0.0
 0
VERTEX
 8
PARTS
 10
 11.7000
 20
  7.4000
 30
0.0
 0
SEQEND
 8
PARTS
 0
POLYLINE
 8
PARTS
 66
1
 10
0.0
 20
0.0
 30
0.0
 0
VERTEX
 8
PARTS
 10
 11.7000
 20
  7.4000
 30
0.0
 0
VERTEX
 8
PARTS
 10
 11.9000
 20
  7.4000
 30
0.0
 0
SEQEND
 8
PARTS
 0
POLYLINE
 8
PARTS
 66
1
 10
0.0
 20
0.0
 30
0.0
 0
VERTEX
 8
PARTS
 10
 11.9000
 20
  7.2500
 30
0.0
 0
VERTEX
 8
PARTS
 10
 11.8300
 20
  7.1800
 30
0.0
 0
SEQEND
 8
PARTS
 0
POLYLINE
 8
PARTS
 66
1
 10
0.0
 20
0.0
 30
0.0
 0
VERTEX
 8
PARTS
 10
 11.8300
 20
  7.1800
 30
0.0
 0
VERTEX
 8
PARTS
 10
 11.9000
 20
  7.1100
 30
0.0
 0
SEQEND
 8
PARTS
 0
POLYLINE
 8
PARTS
 66
1
 10
0.0
 20
0.0
 30
0.0
 0
VERTEX
 8
PARTS
 10
 11.9000
 20
  7.1100
 30
0.0
 0
VERTEX
 8
PARTS
 10
 11.9000
 20
  6.9000
 30
0.0
 0
SEQEND
 8
PARTS
 0
POLYLINE
 8
PARTS
 66
1
 10
0.0
 20
0.0
 30
0.0
 0
VERTEX
 8
PARTS
 10
 11.8000
 20
  7.0200
 30
0.0
 0
VERTEX
 8
PARTS
 10
 11.8000
 20
  6.9000
 30
0.0
 0
SEQEND
 8
PARTS
 0
POLYLINE
 8
PARTS
 66
1
 10
0.0
 20
0.0
 30
0.0
 0
VERTEX
 8
PARTS
 10
 11.7000
 20
  7.3100
 30
0.0
 0
VERTEX
 8
PARTS
 10
 11.7000
 20
  6.9000
 30
0.0
 0
SEQEND
 8
PARTS
 0
POLYLINE
 8
PARTS
 66
1
 10
0.0
 20
0.0
 30
0.0
 0
VERTEX
 8
PARTS
 10
 11.8000
 20
  6.9000
 30
0.0
 0
VERTEX
 8
PARTS
 10
 11.8000
 20
  7.0200
 30
0.0
 0
SEQEND
 8
PARTS
 0
POLYLINE
 8
PARTS
 66
1
 10
0.0
 20
0.0
 30
0.0
 0
VERTEX
 8
PARTS
 10
 11.8600
 20
  7.0200
 30
0.0
 0
VERTEX
 8
PARTS
 10
 11.8000
 20
  7.0200
 30
0.0
 0
SEQEND
 8
PARTS
 0
TEXT
 8
PARTTEXT
 10
  0.4000
 20
  8.6686
 30
0.0
 40
  0.0514
 1
J1
 0
TEXT
 8
PARTTEXT
 10
  0.4000
 20
  8.0586
 30
0.0
 40
  0.0514
 1
INPUT
 0
LINE
 8
PARTS
 10
  1.2000
 20
  8.5000
 30
0.0
 11
  0.9000
 21
  8.5000
 31
0.0
 0
TEXT
 8
PARTS
 10
  0.9600
 20
  8.5300
 30
0.0
 40
  0.0500
 1
3
 0
LINE
 8
PARTS
 10
  1.2000
 20
  8.4000
 30
0.0
 11
  0.9000
 21
  8.4000
 31
0.0
 0
TEXT
 8
PARTS
 10
  0.9600
 20
  8.4300
 30
0.0
 40
  0.0500
 1
2
 0
LINE
 8
PARTS
 10
  1.2000
 20
  8.3000
 30
0.0
 11
  0.9000
 21
  8.3000
 31
0.0
 0
TEXT
 8
PARTS
 10
  0.9600
 20
  8.3300
 30
0.0
 40
  0.0500
 1
1
 0
POLYLINE
 8
PARTS
 66
1
 70
1
 10
0.0
 20
0.0
 30
0.0
 0
VERTEX
 8
PARTS
 10
  0.7800
 20
  8.5000
 30
0.0
 0
VERTEX
 8
PARTS
 10
  0.7400
 20
  8.4600
 30
0.0
 0
VERTEX
 8
PARTS
 10
  0.8200
 20
  8.4600
 30
0.0
 0
VERTEX
 8
PARTS
 10
  0.7800
 20
  8.5000
 30
0.0
 0
SEQEND
 8
PARTS
 0
POLYLINE
 8
PARTS
 66
1
 10
0.0
 20
0.0
 30
0.0
 0
VERTEX
 8
PARTS
 10
  0.4000
 20
  8.5000
 30
0.0
 0
VERTEX
 8
PARTS
 10
  0.4900
 20
  8.5000
 30
0.0
 0
SEQEND
 8
PARTS
 0
POLYLINE
 8
PARTS
 66
1
 10
0.0
 20
0.0
 30
0.0
 0
VERTEX
 8
PARTS
 10
  0.4900
 20
  8.5000
 30
0.0
 0
VERTEX
 8
PARTS
 10
  0.4900
 20
  8.3000
 30
0.0
 0
SEQEND
 8
PARTS
 0
POLYLINE
 8
PARTS
 66
1
 10
0.0
 20
0.0
 30
0.0
 0
VERTEX
 8
PARTS
 10
  0.4900
 20
  8.3000
 30
0.0
 0
VERTEX
 8
PARTS
 10
  0.4000
 20
  8.3000
 30
0.0
 0
SEQEND
 8
PARTS
 0
POLYLINE
 8
PARTS
 66
1
 10
0.0
 20
0.0
 30
0.0
 0
VERTEX
 8
PARTS
 10
  0.4000
 20
  8.3000
 30
0.0
 0
VERTEX
 8
PARTS
 10
  0.4000
 20
  8.5000
 30
0.0
 0
SEQEND
 8
PARTS
 0
POLYLINE
 8
PARTS
 66
1
 10
0.0
 20
0.0
 30
0.0
 0
VERTEX
 8
PARTS
 10
  0.5500
 20
  8.5000
 30
0.0
 0
VERTEX
 8
PARTS
 10
  0.6200
 20
  8.4300
 30
0.0
 0
SEQEND
 8
PARTS
 0
POLYLINE
 8
PARTS
 66
1
 10
0.0
 20
0.0
 30
0.0
 0
VERTEX
 8
PARTS
 10
  0.6200
 20
  8.4300
 30
0.0
 0
VERTEX
 8
PARTS
 10
  0.6900
 20
  8.5000
 30
0.0
 0
SEQEND
 8
PARTS
 0
POLYLINE
 8
PARTS
 66
1
 10
0.0
 20
0.0
 30
0.0
 0
VERTEX
 8
PARTS
 10
  0.6900
 20
  8.5000
 30
0.0
 0
VERTEX
 8
PARTS
 10
  0.9000
 20
  8.5000
 30
0.0
 0
SEQEND
 8
PARTS
 0
POLYLINE
 8
PARTS
 66
1
 10
0.0
 20
0.0
 30
0.0
 0
VERTEX
 8
PARTS
 10
  0.7800
 20
  8.4000
 30
0.0
 0
VERTEX
 8
PARTS
 10
  0.9000
 20
  8.4000
 30
0.0
 0
SEQEND
 8
PARTS
 0
POLYLINE
 8
PARTS
 66
1
 10
0.0
 20
0.0
 30
0.0
 0
VERTEX
 8
PARTS
 10
  0.4900
 20
  8.3000
 30
0.0
 0
VERTEX
 8
PARTS
 10
  0.9000
 20
  8.3000
 30
0.0
 0
SEQEND
 8
PARTS
 0
POLYLINE
 8
PARTS
 66
1
 10
0.0
 20
0.0
 30
0.0
 0
VERTEX
 8
PARTS
 10
  0.9000
 20
  8.4000
 30
0.0
 0
VERTEX
 8
PARTS
 10
  0.7800
 20
  8.4000
 30
0.0
 0
SEQEND
 8
PARTS
 0
POLYLINE
 8
PARTS
 66
1
 10
0.0
 20
0.0
 30
0.0
 0
VERTEX
 8
PARTS
 10
  0.7800
 20
  8.4600
 30
0.0
 0
VERTEX
 8
PARTS
 10
  0.7800
 20
  8.4000
 30
0.0
 0
SEQEND
 8
PARTS
 0
TEXT
 8
PARTTEXT
 10
  0.4000
 20
  7.2686
 30
0.0
 40
  0.0514
 1
J2
 0
TEXT
 8
PARTTEXT
 10
  0.4000
 20
  6.6586
 30
0.0
 40
  0.0514
 1
OUTPUT
 0
LINE
 8
PARTS
 10
  1.2000
 20
  7.1000
 30
0.0
 11
  0.9000
 21
  7.1000
 31
0.0
 0
TEXT
 8
PARTS
 10
  0.9600
 20
  7.1300
 30
0.0
 40
  0.0500
 1
3
 0
LINE
 8
PARTS
 10
  1.2000
 20
  7.0000
 30
0.0
 11
  0.9000
 21
  7.0000
 31
0.0
 0
TEXT
 8
PARTS
 10
  0.9600
 20
  7.0300
 30
0.0
 40
  0.0500
 1
2
 0
LINE
 8
PARTS
 10
  1.2000
 20
  6.9000
 30
0.0
 11
  0.9000
 21
  6.9000
 31
0.0
 0
TEXT
 8
PARTS
 10
  0.9600
 20
  6.9300
 30
0.0
 40
  0.0500
 1
1
 0
POLYLINE
 8
PARTS
 66
1
 70
1
 10
0.0
 20
0.0
 30
0.0
 0
VERTEX
 8
PARTS
 10
  0.7800
 20
  7.1000
 30
0.0
 0
VERTEX
 8
PARTS
 10
  0.7400
 20
  7.0600
 30
0.0
 0
VERTEX
 8
PARTS
 10
  0.8200
 20
  7.0600
 30
0.0
 0
VERTEX
 8
PARTS
 10
  0.7800
 20
  7.1000
 30
0.0
 0
SEQEND
 8
PARTS
 0
POLYLINE
 8
PARTS
 66
1
 10
0.0
 20
0.0
 30
0.0
 0
VERTEX
 8
PARTS
 10
  0.4000
 20
  7.1000
 30
0.0
 0
VERTEX
 8
PARTS
 10
  0.4900
 20
  7.1000
 30
0.0
 0
SEQEND
 8
PARTS
 0
POLYLINE
 8
PARTS
 66
1
 10
0.0
 20
0.0
 30
0.0
 0
VERTEX
 8
PARTS
 10
  0.4900
 20
  7.1000
 30
0.0
 0
VERTEX
 8
PARTS
 10
  0.4900
 20
  6.9000
 30
0.0
 0
SEQEND
 8
PARTS
 0
POLYLINE
 8
PARTS
 66
1
 10
0.0
 20
0.0
 30
0.0
 0
VERTEX
 8
PARTS
 10
  0.4900
 20
  6.9000
 30
0.0
 0
VERTEX
 8
PARTS
 10
  0.4000
 20
  6.9000
 30
0.0
 0
SEQEND
 8
PARTS
 0
POLYLINE
 8
PARTS
 66
1
 10
0.0
 20
0.0
 30
0.0
 0
VERTEX
 8
PARTS
 10
  0.4000
 20
  6.9000
 30
0.0
 0
VERTEX
 8
PARTS
 10
  0.4000
 20
  7.1000
 30
0.0
 0
SEQEND
 8
PARTS
 0
POLYLINE
 8
PARTS
 66
1
 10
0.0
 20
0.0
 30
0.0
 0
VERTEX
 8
PARTS
 10
  0.5500
 20
  7.1000
 30
0.0
 0
VERTEX
 8
PARTS
 10
  0.6200
 20
  7.0300
 30
0.0
 0
SEQEND
 8
PARTS
 0
POLYLINE
 8
PARTS
 66
1
 10
0.0
 20
0.0
 30
0.0
 0
VERTEX
 8
PARTS
 10
  0.6200
 20
  7.0300
 30
0.0
 0
VERTEX
 8
PARTS
 10
  0.6900
 20
  7.1000
 30
0.0
 0
SEQEND
 8
PARTS
 0
POLYLINE
 8
PARTS
 66
1
 10
0.0
 20
0.0
 30
0.0
 0
VERTEX
 8
PARTS
 10
  0.6900
 20
  7.1000
 30
0.0
 0
VERTEX
 8
PARTS
 10
  0.9000
 20
  7.1000
 30
0.0
 0
SEQEND
 8
PARTS
 0
POLYLINE
 8
PARTS
 66
1
 10
0.0
 20
0.0
 30
0.0
 0
VERTEX
 8
PARTS
 10
  0.7800
 20
  7.0000
 30
0.0
 0
VERTEX
 8
PARTS
 10
  0.9000
 20
  7.0000
 30
0.0
 0
SEQEND
 8
PARTS
 0
POLYLINE
 8
PARTS
 66
1
 10
0.0
 20
0.0
 30
0.0
 0
VERTEX
 8
PARTS
 10
  0.4900
 20
  6.9000
 30
0.0
 0
VERTEX
 8
PARTS
 10
  0.9000
 20
  6.9000
 30
0.0
 0
SEQEND
 8
PARTS
 0
POLYLINE
 8
PARTS
 66
1
 10
0.0
 20
0.0
 30
0.0
 0
VERTEX
 8
PARTS
 10
  0.9000
 20
  7.0000
 30
0.0
 0
VERTEX
 8
PARTS
 10
  0.7800
 20
  7.0000
 30
0.0
 0
SEQEND
 8
PARTS
 0
POLYLINE
 8
PARTS
 66
1
 10
0.0
 20
0.0
 30
0.0
 0
VERTEX
 8
PARTS
 10
  0.7800
 20
  7.0600
 30
0.0
 0
VERTEX
 8
PARTS
 10
  0.7800
 20
  7.0000
 30
0.0
 0
SEQEND
 8
PARTS
 0
TEXT
 8
PARTTEXT
 10
  3.0700
 20
  6.5586
 30
0.0
 40
  0.0514
 1
U2
 0
TEXT
 8
PARTTEXT
 10
  3.0800
 20
  5.9786
 30
0.0
 40
  0.0514
 1
TS5A3159
 0
LINE
 8
PARTS
 10
  2.7000
 20
  6.4000
 30
0.0
 11
  3.0000
 21
  6.4000
 31
0.0
 0
TEXT
 8
PARTS
 10
  3.0900
 20
  6.3750
 30
0.0
 40
  0.0500
 1
NO
 0
TEXT
 8
PARTS
 10
  2.9000
 20
  6.4300
 30
0.0
 40
  0.0500
 1
1
 0
LINE
 8
PARTS
 10
  2.7000
 20
  6.3000
 30
0.0
 11
  3.0000
 21
  6.3000
 31
0.0
 0
TEXT
 8
PARTS
 10
  3.0900
 20
  6.2750
 30
0.0
 40
  0.0500
 1
GND
 0
TEXT
 8
PARTS
 10
  2.9000
 20
  6.3300
 30
0.0
 40
  0.0500
 1
2
 0
LINE
 8
PARTS
 10
  2.7000
 20
  6.2000
 30
0.0
 11
  3.0000
 21
  6.2000
 31
0.0
 0
TEXT
 8
PARTS
 10
  3.0900
 20
  6.1750
 30
0.0
 40
  0.0500
 1
NC
 0
TEXT
 8
PARTS
 10
  2.9000
 20
  6.2300
 30
0.0
 40
  0.0500
 1
3
 0
LINE
 8
PARTS
 10
  3.8000
 20
  6.4000
 30
0.0
 11
  3.5000
 21
  6.4000
 31
0.0
 0
TEXT
 8
PARTS
 10
  3.3300
 20
  6.3750
 30
0.0
 40
  0.0500
 1
IN
 0
TEXT
 8
PARTS
 10
  3.5600
 20
  6.4300
 30
0.0
 40
  0.0500
 1
6
 0
LINE
 8
PARTS
 10
  3.8000
 20
  6.3000
 30
0.0
 11
  3.5000
 21
  6.3000
 31
0.0
 0
TEXT
 8
PARTS
 10
  3.3300
 20
  6.2750
 30
0.0
 40
  0.0500
 1
V+
 0
TEXT
 8
PARTS
 10
  3.5600
 20
  6.3300
 30
0.0
 40
  0.0500
 1
5
 0
LINE
 8
PARTS
 10
  3.8000
 20
  6.2000
 30
0.0
 11
  3.5000
 21
  6.2000
 31
0.0
 0
TEXT
 8
PARTS
 10
  3.2900
 20
  6.1750
 30
0.0
 40
  0.0500
 1
COM
 0
TEXT
 8
PARTS
 10
  3.5600
 20
  6.2300
 30
0.0
 40
  0.0500
 1
4
 0
POLYLINE
 8
PARTS
 66
1
 70
1
 10
0.0
 20
0.0
 30
0.0
 0
VERTEX
 8
PARTS
 10
  3.0000
 20
  6.5000
 30
0.0
 0
VERTEX
 8
PARTS
 10
  3.5000
 20
  6.5000
 30
0.0
 0
VERTEX
 8
PARTS
 10
  3.5000
 20
  6.1000
 30
0.0
 0
VERTEX
 8
PARTS
 10
  3.0000
 20
  6.1000
 30
0.0
 0
SEQEND
 8
PARTS
 0
TEXT
 8
PARTTEXT
 10
  8.5000
 20
  9.3586
 30
0.0
 40
  0.0514
 1
J5
 0
TEXT
 8
PARTTEXT
 10
  8.5000
 20
  9.2386
 30
0.0
 40
  0.0514
 1
PEDAL2_IN
 0
LINE
 8
PARTS
 10
  8.8000
 20
  8.4000
 30
0.0
 11
  8.8000
 21
  8.7000
 31
0.0
 0
TEXT
 8
PARTS
 10
  8.7700
 20
  8.5800
 30
0.0
 40
  0.0500
 50
 90.0000
 1
3
 0
LINE
 8
PARTS
 10
  8.7000
 20
  8.4000
 30
0.0
 11
  8.7000
 21
  8.7000
 31
0.0
 0
TEXT
 8
PARTS
 10
  8.6700
 20
  8.5800
 30
0.0
 40
  0.0500
 50
 90.0000
 1
2
 0
LINE
 8
PARTS
 10
  8.6000
 20
  8.4000
 30
0.0
 11
  8.6000
 21
  8.7000
 31
0.0
 0
TEXT
 8
PARTS
 10
  8.5700
 20
  8.5800
 30
0.0
 40
  0.0500
 50
 90.0000
 1
1
 0
POLYLINE
 8
PARTS
 66
1
 70
1
 10
0.0
 20
0.0
 30
0.0
 0
VERTEX
 8
PARTS
 10
  8.8000
 20
  8.8200
 30
0.0
 0
VERTEX
 8
PARTS
 10
  8.7600
 20
  8.8600
 30
0.0
 0
VERTEX
 8
PARTS
 10
  8.7600
 20
  8.7800
 30
0.0
 0
VERTEX
 8
PARTS
 10
  8.8000
 20
  8.8200
 30
0.0
 0
SEQEND
 8
PARTS
 0
POLYLINE
 8
PARTS
 66
1
 10
0.0
 20
0.0
 30
0.0
 0
VERTEX
 8
PARTS
 10
  8.8000
 20
  9.2000
 30
0.0
 0
VERTEX
 8
PARTS
 10
  8.8000
 20
  9.1100
 30
0.0
 0
SEQEND
 8
PARTS
 0
POLYLINE
 8
PARTS
 66
1
 10
0.0
 20
0.0
 30
0.0
 0
VERTEX
 8
PARTS
 10
  8.8000
 20
  9.1100
 30
0.0
 0
VERTEX
 8
PARTS
 10
  8.6000
 20
  9.1100
 30
0.0
 0
SEQEND
 8
PARTS
 0
POLYLINE
 8
PARTS
 66
1
 10
0.0
 20
0.0
 30
0.0
 0
VERTEX
 8
PARTS
 10
  8.6000
 20
  9.1100
 30
0.0
 0
VERTEX
 8
PARTS
 10
  8.6000
 20
  9.2000
 30
0.0
 0
SEQEND
 8
PARTS
 0
POLYLINE
 8
PARTS
 66
1
 10
0.0
 20
0.0
 30
0.0
 0
VERTEX
 8
PARTS
 10
  8.6000
 20
  9.2000
 30
0.0
 0
VERTEX
 8
PARTS
 10
  8.8000
 20
  9.2000
 30
0.0
 0
SEQEND
 8
PARTS
 0
POLYLINE
 8
PARTS
 66
1
 10
0.0
 20
0.0
 30
0.0
 0
VERTEX
 8
PARTS
 10
  8.8000
 20
  9.0500
 30
0.0
 0
VERTEX
 8
PARTS
 10
  8.7300
 20
  8.9800
 30
0.0
 0
SEQEND
 8
PARTS
 0
POLYLINE
 8
PARTS
 66
1
 10
0.0
 20
0.0
 30
0.0
 0
VERTEX
 8
PARTS
 10
  8.7300
 20
  8.9800
 30
0.0
 0
VERTEX
 8
PARTS
 10
  8.8000
 20
  8.9100
 30
0.0
 0
SEQEND
 8
PARTS
 0
POLYLINE
 8
PARTS
 66
1
 10
0.0
 20
0.0
 30
0.0
 0
VERTEX
 8
PARTS
 10
  8.8000
 20
  8.9100
 30
0.0
 0
VERTEX
 8
PARTS
 10
  8.8000
 20
  8.7000
 30
0.0
 0
SEQEND
 8
PARTS
 0
POLYLINE
 8
PARTS
 66
1
 10
0.0
 20
0.0
 30
0.0
 0
VERTEX
 8
PARTS
 10
  8.7000
 20
  8.8200
 30
0.0
 0
VERTEX
 8
PARTS
 10
  8.7000
 20
  8.7000
 30
0.0
 0
SEQEND
 8
PARTS
 0
POLYLINE
 8
PARTS
 66
1
 10
0.0
 20
0.0
 30
0.0
 0
VERTEX
 8
PARTS
 10
  8.6000
 20
  9.1100
 30
0.0
 0
VERTEX
 8
PARTS
 10
  8.6000
 20
  8.7000
 30
0.0
 0
SEQEND
 8
PARTS
 0
POLYLINE
 8
PARTS
 66
1
 10
0.0
 20
0.0
 30
0.0
 0
VERTEX
 8
PARTS
 10
  8.7000
 20
  8.7000
 30
0.0
 0
VERTEX
 8
PARTS
 10
  8.7000
 20
  8.8200
 30
0.0
 0
SEQEND
 8
PARTS
 0
POLYLINE
 8
PARTS
 66
1
 10
0.0
 20
0.0
 30
0.0
 0
VERTEX
 8
PARTS
 10
  8.7600
 20
  8.8200
 30
0.0
 0
VERTEX
 8
PARTS
 10
  8.7000
 20
  8.8200
 30
0.0
 0
SEQEND
 8
PARTS
 0
TEXT
 8
PARTTEXT
 10
  9.5000
 20
  9.3586
 30
0.0
 40
  0.0514
 1
J6
 0
TEXT
 8
PARTTEXT
 10
  9.5000
 20
  9.2386
 30
0.0
 40
  0.0514
 1
PEDAL2_OUT
 0
LINE
 8
PARTS
 10
  9.8000
 20
  8.4000
 30
0.0
 11
  9.8000
 21
  8.7000
 31
0.0
 0
TEXT
 8
PARTS
 10
  9.7700
 20
  8.5800
 30
0.0
 40
  0.0500
 50
 90.0000
 1
3
 0
LINE
 8
PARTS
 10
  9.7000
 20
  8.4000
 30
0.0
 11
  9.7000
 21
  8.7000
 31
0.0
 0
TEXT
 8
PARTS
 10
  9.6700
 20
  8.5800
 30
0.0
 40
  0.0500
 50
 90.0000
 1
2
 0
LINE
 8
PARTS
 10
  9.6000
 20
  8.4000
 30
0.0
 11
  9.6000
 21
  8.7000
 31
0.0
 0
TEXT
 8
PARTS
 10
  9.5700
 20
  8.5800
 30
0.0
 40
  0.0500
 50
 90.0000
 1
1
 0
POLYLINE
 8
PARTS
 66
1
 70
1
 10
0.0
 20
0.0
 30
0.0
 0
VERTEX
 8
PARTS
 10
  9.8000
 20
  8.8200
 30
0.0
 0
VERTEX
 8
PARTS
 10
  9.7600
 20
  8.8600
 30
0.0
 0
VERTEX
 8
PARTS
 10
  9.7600
 20
  8.7800
 30
0.0
 0
VERTEX
 8
PARTS
 10
  9.8000
 20
  8.8200
 30
0.0
 0
SEQEND
 8
PARTS
 0
POLYLINE
 8
PARTS
 66
1
 10
0.0
 20
0.0
 30
0.0
 0
VERTEX
 8
PARTS
 10
  9.8000
 20
  9.2000
 30
0.0
 0
VERTEX
 8
PARTS
 10
  9.8000
 20
  9.1100
 30
0.0
 0
SEQEND
 8
PARTS
 0
POLYLINE
 8
PARTS
 66
1
 10
0.0
 20
0.0
 30
0.0
 0
VERTEX
 8
PARTS
 10
  9.8000
 20
  9.1100
 30
0.0
 0
VERTEX
 8
PARTS
 10
  9.6000
 20
  9.1100
 30
0.0
 0
SEQEND
 8
PARTS
 0
POLYLINE
 8
PARTS
 66
1
 10
0.0
 20
0.0
 30
0.0
 0
VERTEX
 8
PARTS
 10
  9.6000
 20
  9.1100
 30
0.0
 0
VERTEX
 8
PARTS
 10
  9.6000
 20
  9.2000
 30
0.0
 0
SEQEND
 8
PARTS
 0
POLYLINE
 8
PARTS
 66
1
 10
0.0
 20
0.0
 30
0.0
 0
VERTEX
 8
PARTS
 10
  9.6000
 20
  9.2000
 30
0.0
 0
VERTEX
 8
PARTS
 10
  9.8000
 20
  9.2000
 30
0.0
 0
SEQEND
 8
PARTS
 0
POLYLINE
 8
PARTS
 66
1
 10
0.0
 20
0.0
 30
0.0
 0
VERTEX
 8
PARTS
 10
  9.8000
 20
  9.0500
 30
0.0
 0
VERTEX
 8
PARTS
 10
  9.7300
 20
  8.9800
 30
0.0
 0
SEQEND
 8
PARTS
 0
POLYLINE
 8
PARTS
 66
1
 10
0.0
 20
0.0
 30
0.0
 0
VERTEX
 8
PARTS
 10
  9.7300
 20
  8.9800
 30
0.0
 0
VERTEX
 8
PARTS
 10
  9.8000
 20
  8.9100
 30
0.0
 0
SEQEND
 8
PARTS
 0
POLYLINE
 8
PARTS
 66
1
 10
0.0
 20
0.0
 30
0.0
 0
VERTEX
 8
PARTS
 10
  9.8000
 20
  8.9100
 30
0.0
 0
VERTEX
 8
PARTS
 10
  9.8000
 20
  8.7000
 30
0.0
 0
SEQEND
 8
PARTS
 0
POLYLINE
 8
PARTS
 66
1
 10
0.0
 20
0.0
 30
0.0
 0
VERTEX
 8
PARTS
 10
  9.7000
 20
  8.8200
 30
0.0
 0
VERTEX
 8
PARTS
 10
  9.7000
 20
  8.7000
 30
0.0
 0
SEQEND
 8
PARTS
 0
POLYLINE
 8
PARTS
 66
1
 10
0.0
 20
0.0
 30
0.0
 0
VERTEX
 8
PARTS
 10
  9.6000
 20
  9.1100
 30
0.0
 0
VERTEX
 8
PARTS
 10
  9.6000
 20
  8.7000
 30
0.0
 0
SEQEND
 8
PARTS
 0
POLYLINE
 8
PARTS
 66
1
 10
0.0
 20
0.0
 30
0.0
 0
VERTEX
 8
PARTS
 10
  9.7000
 20
  8.7000
 30
0.0
 0
VERTEX
 8
PARTS
 10
  9.7000
 20
  8.8200
 30
0.0
 0
SEQEND
 8
PARTS
 0
POLYLINE
 8
PARTS
 66
1
 10
0.0
 20
0.0
 30
0.0
 0
VERTEX
 8
PARTS
 10
  9.7600
 20
  8.8200
 30
0.0
 0
VERTEX
 8
PARTS
 10
  9.7000
 20
  8.8200
 30
0.0
 0
SEQEND
 8
PARTS
 0
TEXT
 8
PARTTEXT
 10
 10.6000
 20
  9.3586
 30
0.0
 40
  0.0514
 1
J7
 0
TEXT
 8
PARTTEXT
 10
 10.6000
 20
  9.2386
 30
0.0
 40
  0.0514
 1
PEDAL3_IN
 0
LINE
 8
PARTS
 10
 10.9000
 20
  8.4000
 30
0.0
 11
 10.9000
 21
  8.7000
 31
0.0
 0
TEXT
 8
PARTS
 10
 10.8700
 20
  8.5800
 30
0.0
 40
  0.0500
 50
 90.0000
 1
3
 0
LINE
 8
PARTS
 10
 10.8000
 20
  8.4000
 30
0.0
 11
 10.8000
 21
  8.7000
 31
0.0
 0
TEXT
 8
PARTS
 10
 10.7700
 20
  8.5800
 30
0.0
 40
  0.0500
 50
 90.0000
 1
2
 0
LINE
 8
PARTS
 10
 10.7000
 20
  8.4000
 30
0.0
 11
 10.7000
 21
  8.7000
 31
0.0
 0
TEXT
 8
PARTS
 10
 10.6700
 20
  8.5800
 30
0.0
 40
  0.0500
 50
 90.0000
 1
1
 0
POLYLINE
 8
PARTS
 66
1
 70
1
 10
0.0
 20
0.0
 30
0.0
 0
VERTEX
 8
PARTS
 10
 10.9000
 20
  8.8200
 30
0.0
 0
VERTEX
 8
PARTS
 10
 10.8600
 20
  8.8600
 30
0.0
 0
VERTEX
 8
PARTS
 10
 10.8600
 20
  8.7800
 30
0.0
 0
VERTEX
 8
PARTS
 10
 10.9000
 20
  8.8200
 30
0.0
 0
SEQEND
 8
PARTS
 0
POLYLINE
 8
PARTS
 66
1
 10
0.0
 20
0.0
 30
0.0
 0
VERTEX
 8
PARTS
 10
 10.9000
 20
  9.2000
 30
0.0
 0
VERTEX
 8
PARTS
 10
 10.9000
 20
  9.1100
 30
0.0
 0
SEQEND
 8
PARTS
 0
POLYLINE
 8
PARTS
 66
1
 10
0.0
 20
0.0
 30
0.0
 0
VERTEX
 8
PARTS
 10
 10.9000
 20
  9.1100
 30
0.0
 0
VERTEX
 8
PARTS
 10
 10.7000
 20
  9.1100
 30
0.0
 0
SEQEND
 8
PARTS
 0
POLYLINE
 8
PARTS
 66
1
 10
0.0
 20
0.0
 30
0.0
 0
VERTEX
 8
PARTS
 10
 10.7000
 20
  9.1100
 30
0.0
 0
VERTEX
 8
PARTS
 10
 10.7000
 20
  9.2000
 30
0.0
 0
SEQEND
 8
PARTS
 0
POLYLINE
 8
PARTS
 66
1
 10
0.0
 20
0.0
 30
0.0
 0
VERTEX
 8
PARTS
 10
 10.7000
 20
  9.2000
 30
0.0
 0
VERTEX
 8
PARTS
 10
 10.9000
 20
  9.2000
 30
0.0
 0
SEQEND
 8
PARTS
 0
POLYLINE
 8
PARTS
 66
1
 10
0.0
 20
0.0
 30
0.0
 0
VERTEX
 8
PARTS
 10
 10.9000
 20
  9.0500
 30
0.0
 0
VERTEX
 8
PARTS
 10
 10.8300
 20
  8.9800
 30
0.0
 0
SEQEND
 8
PARTS
 0
POLYLINE
 8
PARTS
 66
1
 10
0.0
 20
0.0
 30
0.0
 0
VERTEX
 8
PARTS
 10
 10.8300
 20
  8.9800
 30
0.0
 0
VERTEX
 8
PARTS
 10
 10.9000
 20
  8.9100
 30
0.0
 0
SEQEND
 8
PARTS
 0
POLYLINE
 8
PARTS
 66
1
 10
0.0
 20
0.0
 30
0.0
 0
VERTEX
 8
PARTS
 10
 10.9000
 20
  8.9100
 30
0.0
 0
VERTEX
 8
PARTS
 10
 10.9000
 20
  8.7000
 30
0.0
 0
SEQEND
 8
PARTS
 0
POLYLINE
 8
PARTS
 66
1
 10
0.0
 20
0.0
 30
0.0
 0
VERTEX
 8
PARTS
 10
 10.8000
 20
  8.8200
 30
0.0
 0
VERTEX
 8
PARTS
 10
 10.8000
 20
  8.7000
 30
0.0
 0
SEQEND
 8
PARTS
 0
POLYLINE
 8
PARTS
 66
1
 10
0.0
 20
0.0
 30
0.0
 0
VERTEX
 8
PARTS
 10
 10.7000
 20
  9.1100
 30
0.0
 0
VERTEX
 8
PARTS
 10
 10.7000
 20
  8.7000
 30
0.0
 0
SEQEND
 8
PARTS
 0
POLYLINE
 8
PARTS
 66
1
 10
0.0
 20
0.0
 30
0.0
 0
VERTEX
 8
PARTS
 10
 10.8000
 20
  8.7000
 30
0.0
 0
VERTEX
 8
PARTS
 10
 10.8000
 20
  8.8200
 30
0.0
 0
SEQEND
 8
PARTS
 0
POLYLINE
 8
PARTS
 66
1
 10
0.0
 20
0.0
 30
0.0
 0
VERTEX
 8
PARTS
 10
 10.8600
 20
  8.8200
 30
0.0
 0
VERTEX
 8
PARTS
 10
 10.8000
 20
  8.8200
 30
0.0
 0
SEQEND
 8
PARTS
 0
TEXT
 8
PARTTEXT
 10
  1.5000
 20
  8.8186
 30
0.0
 40
  0.0514
 1
R3
 0
TEXT
 8
PARTTEXT
 10
  1.5000
 20
  8.7186
 30
0.0
 40
  0.0514
 1
100k
 0
LINE
 8
PARTS
 10
  1.4000
 20
  9.0000
 30
0.0
 11
  1.4000
 21
  8.9000
 31
0.0
 0
LINE
 8
PARTS
 10
  1.4000
 20
  8.5000
 30
0.0
 11
  1.4000
 21
  8.6000
 31
0.0
 0
POLYLINE
 8
PARTS
 66
1
 10
0.0
 20
0.0
 30
0.0
 0
VERTEX
 8
PARTS
 10
  1.4000
 20
  8.9000
 30
0.0
 0
VERTEX
 8
PARTS
 10
  1.4300
 20
  8.8700
 30
0.0
 0
SEQEND
 8
PARTS
 0
POLYLINE
 8
PARTS
 66
1
 10
0.0
 20
0.0
 30
0.0
 0
VERTEX
 8
PARTS
 10
  1.4300
 20
  8.8700
 30
0.0
 0
VERTEX
 8
PARTS
 10
  1.3700
 20
  8.8100
 30
0.0
 0
SEQEND
 8
PARTS
 0
POLYLINE
 8
PARTS
 66
1
 10
0.0
 20
0.0
 30
0.0
 0
VERTEX
 8
PARTS
 10
  1.3700
 20
  8.8100
 30
0.0
 0
VERTEX
 8
PARTS
 10
  1.4300
 20
  8.7500
 30
0.0
 0
SEQEND
 8
PARTS
 0
POLYLINE
 8
PARTS
 66
1
 10
0.0
 20
0.0
 30
0.0
 0
VERTEX
 8
PARTS
 10
  1.4300
 20
  8.7500
 30
0.0
 0
VERTEX
 8
PARTS
 10
  1.3700
 20
  8.6900
 30
0.0
 0
SEQEND
 8
PARTS
 0
POLYLINE
 8
PARTS
 66
1
 10
0.0
 20
0.0
 30
0.0
 0
VERTEX
 8
PARTS
 10
  1.3700
 20
  8.6900
 30
0.0
 0
VERTEX
 8
PARTS
 10
  1.4300
 20
  8.6300
 30
0.0
 0
SEQEND
 8
PARTS
 0
POLYLINE
 8
PARTS
 66
1
 10
0.0
 20
0.0
 30
0.0
 0
VERTEX
 8
PARTS
 10
  1.4300
 20
  8.6300
 30
0.0
 0
VERTEX
 8
PARTS
 10
  1.4000
 20
  8.6000
 30
0.0
 0
SEQEND
 8
PARTS
 0
TEXT
 8
PARTTEXT
 10
  2.5000
 20
  8.0186
 30
0.0
 40
  0.0514
 1
R2
 0
TEXT
 8
PARTTEXT
 10
  2.5000
 20
  7.9186
 30
0.0
 40
  0.0514
 1
10k
 0
LINE
 8
PARTS
 10
  2.4000
 20
  8.2000
 30
0.0
 11
  2.4000
 21
  8.1000
 31
0.0
 0
LINE
 8
PARTS
 10
  2.4000
 20
  7.7000
 30
0.0
 11
  2.4000
 21
  7.8000
 31
0.0
 0
POLYLINE
 8
PARTS
 66
1
 10
0.0
 20
0.0
 30
0.0
 0
VERTEX
 8
PARTS
 10
  2.4000
 20
  8.1000
 30
0.0
 0
VERTEX
 8
PARTS
 10
  2.4300
 20
  8.0700
 30
0.0
 0
SEQEND
 8
PARTS
 0
POLYLINE
 8
PARTS
 66
1
 10
0.0
 20
0.0
 30
0.0
 0
VERTEX
 8
PARTS
 10
  2.4300
 20
  8.0700
 30
0.0
 0
VERTEX
 8
PARTS
 10
  2.3700
 20
  8.0100
 30
0.0
 0
SEQEND
 8
PARTS
 0
POLYLINE
 8
PARTS
 66
1
 10
0.0
 20
0.0
 30
0.0
 0
VERTEX
 8
PARTS
 10
  2.3700
 20
  8.0100
 30
0.0
 0
VERTEX
 8
PARTS
 10
  2.4300
 20
  7.9500
 30
0.0
 0
SEQEND
 8
PARTS
 0
POLYLINE
 8
PARTS
 66
1
 10
0.0
 20
0.0
 30
0.0
 0
VERTEX
 8
PARTS
 10
  2.4300
 20
  7.9500
 30
0.0
 0
VERTEX
 8
PARTS
 10
  2.3700
 20
  7.8900
 30
0.0
 0
SEQEND
 8
PARTS
 0
POLYLINE
 8
PARTS
 66
1
 10
0.0
 20
0.0
 30
0.0
 0
VERTEX
 8
PARTS
 10
  2.3700
 20
  7.8900
 30
0.0
 0
VERTEX
 8
PARTS
 10
  2.4300
 20
  7.8300
 30
0.0
 0
SEQEND
 8
PARTS
 0
POLYLINE
 8
PARTS
 66
1
 10
0.0
 20
0.0
 30
0.0
 0
VERTEX
 8
PARTS
 10
  2.4300
 20
  7.8300
 30
0.0
 0
VERTEX
 8
PARTS
 10
  2.4000
 20
  7.8000
 30
0.0
 0
SEQEND
 8
PARTS
 0
TEXT
 8
PARTTEXT
 10
 11.6000
 20
  9.3586
 30
0.0
 40
  0.0514
 1
J8
 0
TEXT
 8
PARTTEXT
 10
 11.6000
 20
  9.2386
 30
0.0
 40
  0.0514
 1
PEDAL3_OUT
 0
LINE
 8
PARTS
 10
 11.9000
 20
  8.4000
 30
0.0
 11
 11.9000
 21
  8.7000
 31
0.0
 0
TEXT
 8
PARTS
 10
 11.8700
 20
  8.5800
 30
0.0
 40
  0.0500
 50
 90.0000
 1
3
 0
LINE
 8
PARTS
 10
 11.8000
 20
  8.4000
 30
0.0
 11
 11.8000
 21
  8.7000
 31
0.0
 0
TEXT
 8
PARTS
 10
 11.7700
 20
  8.5800
 30
0.0
 40
  0.0500
 50
 90.0000
 1
2
 0
LINE
 8
PARTS
 10
 11.7000
 20
  8.4000
 30
0.0
 11
 11.7000
 21
  8.7000
 31
0.0
 0
TEXT
 8
PARTS
 10
 11.6700
 20
  8.5800
 30
0.0
 40
  0.0500
 50
 90.0000
 1
1
 0
POLYLINE
 8
PARTS
 66
1
 70
1
 10
0.0
 20
0.0
 30
0.0
 0
VERTEX
 8
PARTS
 10
 11.9000
 20
  8.8200
 30
0.0
 0
VERTEX
 8
PARTS
 10
 11.8600
 20
  8.8600
 30
0.0
 0
VERTEX
 8
PARTS
 10
 11.8600
 20
  8.7800
 30
0.0
 0
VERTEX
 8
PARTS
 10
 11.9000
 20
  8.8200
 30
0.0
 0
SEQEND
 8
PARTS
 0
POLYLINE
 8
PARTS
 66
1
 10
0.0
 20
0.0
 30
0.0
 0
VERTEX
 8
PARTS
 10
 11.9000
 20
  9.2000
 30
0.0
 0
VERTEX
 8
PARTS
 10
 11.9000
 20
  9.1100
 30
0.0
 0
SEQEND
 8
PARTS
 0
POLYLINE
 8
PARTS
 66
1
 10
0.0
 20
0.0
 30
0.0
 0
VERTEX
 8
PARTS
 10
 11.9000
 20
  9.1100
 30
0.0
 0
VERTEX
 8
PARTS
 10
 11.7000
 20
  9.1100
 30
0.0
 0
SEQEND
 8
PARTS
 0
POLYLINE
 8
PARTS
 66
1
 10
0.0
 20
0.0
 30
0.0
 0
VERTEX
 8
PARTS
 10
 11.7000
 20
  9.1100
 30
0.0
 0
VERTEX
 8
PARTS
 10
 11.7000
 20
  9.2000
 30
0.0
 0
SEQEND
 8
PARTS
 0
POLYLINE
 8
PARTS
 66
1
 10
0.0
 20
0.0
 30
0.0
 0
VERTEX
 8
PARTS
 10
 11.7000
 20
  9.2000
 30
0.0
 0
VERTEX
 8
PARTS
 10
 11.9000
 20
  9.2000
 30
0.0
 0
SEQEND
 8
PARTS
 0
POLYLINE
 8
PARTS
 66
1
 10
0.0
 20
0.0
 30
0.0
 0
VERTEX
 8
PARTS
 10
 11.9000
 20
  9.0500
 30
0.0
 0
VERTEX
 8
PARTS
 10
 11.8300
 20
  8.9800
 30
0.0
 0
SEQEND
 8
PARTS
 0
POLYLINE
 8
PARTS
 66
1
 10
0.0
 20
0.0
 30
0.0
 0
VERTEX
 8
PARTS
 10
 11.8300
 20
  8.9800
 30
0.0
 0
VERTEX
 8
PARTS
 10
 11.9000
 20
  8.9100
 30
0.0
 0
SEQEND
 8
PARTS
 0
POLYLINE
 8
PARTS
 66
1
 10
0.0
 20
0.0
 30
0.0
 0
VERTEX
 8
PARTS
 10
 11.9000
 20
  8.9100
 30
0.0
 0
VERTEX
 8
PARTS
 10
 11.9000
 20
  8.7000
 30
0.0
 0
SEQEND
 8
PARTS
 0
POLYLINE
 8
PARTS
 66
1
 10
0.0
 20
0.0
 30
0.0
 0
VERTEX
 8
PARTS
 10
 11.8000
 20
  8.8200
 30
0.0
 0
VERTEX
 8
PARTS
 10
 11.8000
 20
  8.7000
 30
0.0
 0
SEQEND
 8
PARTS
 0
POLYLINE
 8
PARTS
 66
1
 10
0.0
 20
0.0
 30
0.0
 0
VERTEX
 8
PARTS
 10
 11.7000
 20
  9.1100
 30
0.0
 0
VERTEX
 8
PARTS
 10
 11.7000
 20
  8.7000
 30
0.0
 0
SEQEND
 8
PARTS
 0
POLYLINE
 8
PARTS
 66
1
 10
0.0
 20
0.0
 30
0.0
 0
VERTEX
 8
PARTS
 10
 11.8000
 20
  8.7000
 30
0.0
 0
VERTEX
 8
PARTS
 10
 11.8000
 20
  8.8200
 30
0.0
 0
SEQEND
 8
PARTS
 0
POLYLINE
 8
PARTS
 66
1
 10
0.0
 20
0.0
 30
0.0
 0
VERTEX
 8
PARTS
 10
 11.8600
 20
  8.8200
 30
0.0
 0
VERTEX
 8
PARTS
 10
 11.8000
 20
  8.8200
 30
0.0
 0
SEQEND
 8
PARTS
 0
TEXT
 8
PARTTEXT
 10
  6.4000
 20
  9.3586
 30
0.0
 40
  0.0514
 1
J3
 0
TEXT
 8
PARTTEXT
 10
  6.4000
 20
  9.2386
 30
0.0
 40
  0.0514
 1
PEDAL1_IN
 0
LINE
 8
PARTS
 10
  6.7000
 20
  8.4000
 30
0.0
 11
  6.7000
 21
  8.7000
 31
0.0
 0
TEXT
 8
PARTS
 10
  6.6700
 20
  8.5800
 30
0.0
 40
  0.0500
 50
 90.0000
 1
3
 0
LINE
 8
PARTS
 10
  6.6000
 20
  8.4000
 30
0.0
 11
  6.6000
 21
  8.7000
 31
0.0
 0
TEXT
 8
PARTS
 10
  6.5700
 20
  8.5800
 30
0.0
 40
  0.0500
 50
 90.0000
 1
2
 0
LINE
 8
PARTS
 10
  6.5000
 20
  8.4000
 30
0.0
 11
  6.5000
 21
  8.7000
 31
0.0
 0
TEXT
 8
PARTS
 10
  6.4700
 20
  8.5800
 30
0.0
 40
  0.0500
 50
 90.0000
 1
1
 0
POLYLINE
 8
PARTS
 66
1
 70
1
 10
0.0
 20
0.0
 30
0.0
 0
VERTEX
 8
PARTS
 10
  6.7000
 20
  8.8200
 30
0.0
 0
VERTEX
 8
PARTS
 10
  6.6600
 20
  8.8600
 30
0.0
 0
VERTEX
 8
PARTS
 10
  6.6600
 20
  8.7800
 30
0.0
 0
VERTEX
 8
PARTS
 10
  6.7000
 20
  8.8200
 30
0.0
 0
SEQEND
 8
PARTS
 0
POLYLINE
 8
PARTS
 66
1
 10
0.0
 20
0.0
 30
0.0
 0
VERTEX
 8
PARTS
 10
  6.7000
 20
  9.2000
 30
0.0
 0
VERTEX
 8
PARTS
 10
  6.7000
 20
  9.1100
 30
0.0
 0
SEQEND
 8
PARTS
 0
POLYLINE
 8
PARTS
 66
1
 10
0.0
 20
0.0
 30
0.0
 0
VERTEX
 8
PARTS
 10
  6.7000
 20
  9.1100
 30
0.0
 0
VERTEX
 8
PARTS
 10
  6.5000
 20
  9.1100
 30
0.0
 0
SEQEND
 8
PARTS
 0
POLYLINE
 8
PARTS
 66
1
 10
0.0
 20
0.0
 30
0.0
 0
VERTEX
 8
PARTS
 10
  6.5000
 20
  9.1100
 30
0.0
 0
VERTEX
 8
PARTS
 10
  6.5000
 20
  9.2000
 30
0.0
 0
SEQEND
 8
PARTS
 0
POLYLINE
 8
PARTS
 66
1
 10
0.0
 20
0.0
 30
0.0
 0
VERTEX
 8
PARTS
 10
  6.5000
 20
  9.2000
 30
0.0
 0
VERTEX
 8
PARTS
 10
  6.7000
 20
  9.2000
 30
0.0
 0
SEQEND
 8
PARTS
 0
POLYLINE
 8
PARTS
 66
1
 10
0.0
 20
0.0
 30
0.0
 0
VERTEX
 8
PARTS
 10
  6.7000
 20
  9.0500
 30
0.0
 0
VERTEX
 8
PARTS
 10
  6.6300
 20
  8.9800
 30
0.0
 0
SEQEND
 8
PARTS
 0
POLYLINE
 8
PARTS
 66
1
 10
0.0
 20
0.0
 30
0.0
 0
VERTEX
 8
PARTS
 10
  6.6300
 20
  8.9800
 30
0.0
 0
VERTEX
 8
PARTS
 10
  6.7000
 20
  8.9100
 30
0.0
 0
SEQEND
 8
PARTS
 0
POLYLINE
 8
PARTS
 66
1
 10
0.0
 20
0.0
 30
0.0
 0
VERTEX
 8
PARTS
 10
  6.7000
 20
  8.9100
 30
0.0
 0
VERTEX
 8
PARTS
 10
  6.7000
 20
  8.7000
 30
0.0
 0
SEQEND
 8
PARTS
 0
POLYLINE
 8
PARTS
 66
1
 10
0.0
 20
0.0
 30
0.0
 0
VERTEX
 8
PARTS
 10
  6.6000
 20
  8.8200
 30
0.0
 0
VERTEX
 8
PARTS
 10
  6.6000
 20
  8.7000
 30
0.0
 0
SEQEND
 8
PARTS
 0
POLYLINE
 8
PARTS
 66
1
 10
0.0
 20
0.0
 30
0.0
 0
VERTEX
 8
PARTS
 10
  6.5000
 20
  9.1100
 30
0.0
 0
VERTEX
 8
PARTS
 10
  6.5000
 20
  8.7000
 30
0.0
 0
SEQEND
 8
PARTS
 0
POLYLINE
 8
PARTS
 66
1
 10
0.0
 20
0.0
 30
0.0
 0
VERTEX
 8
PARTS
 10
  6.6000
 20
  8.7000
 30
0.0
 0
VERTEX
 8
PARTS
 10
  6.6000
 20
  8.8200
 30
0.0
 0
SEQEND
 8
PARTS
 0
POLYLINE
 8
PARTS
 66
1
 10
0.0
 20
0.0
 30
0.0
 0
VERTEX
 8
PARTS
 10
  6.6600
 20
  8.8200
 30
0.0
 0
VERTEX
 8
PARTS
 10
  6.6000
 20
  8.8200
 30
0.0
 0
SEQEND
 8
PARTS
 0
TEXT
 8
PARTTEXT
 10
 12.7000
 20
  9.3586
 30
0.0
 40
  0.0514
 1
J9
 0
TEXT
 8
PARTTEXT
 10
 12.7000
 20
  9.2386
 30
0.0
 40
  0.0514
 1
PEDAL4_IN
 0
LINE
 8
PARTS
 10
 13.0000
 20
  8.4000
 30
0.0
 11
 13.0000
 21
  8.7000
 31
0.0
 0
TEXT
 8
PARTS
 10
 12.9700
 20
  8.5800
 30
0.0
 40
  0.0500
 50
 90.0000
 1
3
 0
LINE
 8
PARTS
 10
 12.9000
 20
  8.4000
 30
0.0
 11
 12.9000
 21
  8.7000
 31
0.0
 0
TEXT
 8
PARTS
 10
 12.8700
 20
  8.5800
 30
0.0
 40
  0.0500
 50
 90.0000
 1
2
 0
LINE
 8
PARTS
 10
 12.8000
 20
  8.4000
 30
0.0
 11
 12.8000
 21
  8.7000
 31
0.0
 0
TEXT
 8
PARTS
 10
 12.7700
 20
  8.5800
 30
0.0
 40
  0.0500
 50
 90.0000
 1
1
 0
POLYLINE
 8
PARTS
 66
1
 70
1
 10
0.0
 20
0.0
 30
0.0
 0
VERTEX
 8
PARTS
 10
 13.0000
 20
  8.8200
 30
0.0
 0
VERTEX
 8
PARTS
 10
 12.9600
 20
  8.8600
 30
0.0
 0
VERTEX
 8
PARTS
 10
 12.9600
 20
  8.7800
 30
0.0
 0
VERTEX
 8
PARTS
 10
 13.0000
 20
  8.8200
 30
0.0
 0
SEQEND
 8
PARTS
 0
POLYLINE
 8
PARTS
 66
1
 10
0.0
 20
0.0
 30
0.0
 0
VERTEX
 8
PARTS
 10
 13.0000
 20
  9.2000
 30
0.0
 0
VERTEX
 8
PARTS
 10
 13.0000
 20
  9.1100
 30
0.0
 0
SEQEND
 8
PARTS
 0
POLYLINE
 8
PARTS
 66
1
 10
0.0
 20
0.0
 30
0.0
 0
VERTEX
 8
PARTS
 10
 13.0000
 20
  9.1100
 30
0.0
 0
VERTEX
 8
PARTS
 10
 12.8000
 20
  9.1100
 30
0.0
 0
SEQEND
 8
PARTS
 0
POLYLINE
 8
PARTS
 66
1
 10
0.0
 20
0.0
 30
0.0
 0
VERTEX
 8
PARTS
 10
 12.8000
 20
  9.1100
 30
0.0
 0
VERTEX
 8
PARTS
 10
 12.8000
 20
  9.2000
 30
0.0
 0
SEQEND
 8
PARTS
 0
POLYLINE
 8
PARTS
 66
1
 10
0.0
 20
0.0
 30
0.0
 0
VERTEX
 8
PARTS
 10
 12.8000
 20
  9.2000
 30
0.0
 0
VERTEX
 8
PARTS
 10
 13.0000
 20
  9.2000
 30
0.0
 0
SEQEND
 8
PARTS
 0
POLYLINE
 8
PARTS
 66
1
 10
0.0
 20
0.0
 30
0.0
 0
VERTEX
 8
PARTS
 10
 13.0000
 20
  9.0500
 30
0.0
 0
VERTEX
 8
PARTS
 10
 12.9300
 20
  8.9800
 30
0.0
 0
SEQEND
 8
PARTS
 0
POLYLINE
 8
PARTS
 66
1
 10
0.0
 20
0.0
 30
0.0
 0
VERTEX
 8
PARTS
 10
 12.9300
 20
  8.9800
 30
0.0
 0
VERTEX
 8
PARTS
 10
 13.0000
 20
  8.9100
 30
0.0
 0
SEQEND
 8
PARTS
 0
POLYLINE
 8
PARTS
 66
1
 10
0.0
 20
0.0
 30
0.0
 0
VERTEX
 8
PARTS
 10
 13.0000
 20
  8.9100
 30
0.0
 0
VERTEX
 8
PARTS
 10
 13.0000
 20
  8.7000
 30
0.0
 0
SEQEND
 8
PARTS
 0
POLYLINE
 8
PARTS
 66
1
 10
0.0
 20
0.0
 30
0.0
 0
VERTEX
 8
PARTS
 10
 12.9000
 20
  8.8200
 30
0.0
 0
VERTEX
 8
PARTS
 10
 12.9000
 20
  8.7000
 30
0.0
 0
SEQEND
 8
PARTS
 0
POLYLINE
 8
PARTS
 66
1
 10
0.0
 20
0.0
 30
0.0
 0
VERTEX
 8
PARTS
 10
 12.8000
 20
  9.1100
 30
0.0
 0
VERTEX
 8
PARTS
 10
 12.8000
 20
  8.7000
 30
0.0
 0
SEQEND
 8
PARTS
 0
POLYLINE
 8
PARTS
 66
1
 10
0.0
 20
0.0
 30
0.0
 0
VERTEX
 8
PARTS
 10
 12.9000
 20
  8.7000
 30
0.0
 0
VERTEX
 8
PARTS
 10
 12.9000
 20
  8.8200
 30
0.0
 0
SEQEND
 8
PARTS
 0
POLYLINE
 8
PARTS
 66
1
 10
0.0
 20
0.0
 30
0.0
 0
VERTEX
 8
PARTS
 10
 12.9600
 20
  8.8200
 30
0.0
 0
VERTEX
 8
PARTS
 10
 12.9000
 20
  8.8200
 30
0.0
 0
SEQEND
 8
PARTS
 0
TEXT
 8
PARTTEXT
 10
  7.4000
 20
  9.3586
 30
0.0
 40
  0.0514
 1
J4
 0
TEXT
 8
PARTTEXT
 10
  7.4000
 20
  9.2386
 30
0.0
 40
  0.0514
 1
PEDAL1_OUT
 0
LINE
 8
PARTS
 10
  7.7000
 20
  8.4000
 30
0.0
 11
  7.7000
 21
  8.7000
 31
0.0
 0
TEXT
 8
PARTS
 10
  7.6700
 20
  8.5800
 30
0.0
 40
  0.0500
 50
 90.0000
 1
3
 0
LINE
 8
PARTS
 10
  7.6000
 20
  8.4000
 30
0.0
 11
  7.6000
 21
  8.7000
 31
0.0
 0
TEXT
 8
PARTS
 10
  7.5700
 20
  8.5800
 30
0.0
 40
  0.0500
 50
 90.0000
 1
2
 0
LINE
 8
PARTS
 10
  7.5000
 20
  8.4000
 30
0.0
 11
  7.5000
 21
  8.7000
 31
0.0
 0
TEXT
 8
PARTS
 10
  7.4700
 20
  8.5800
 30
0.0
 40
  0.0500
 50
 90.0000
 1
1
 0
POLYLINE
 8
PARTS
 66
1
 70
1
 10
0.0
 20
0.0
 30
0.0
 0
VERTEX
 8
PARTS
 10
  7.7000
 20
  8.8200
 30
0.0
 0
VERTEX
 8
PARTS
 10
  7.6600
 20
  8.8600
 30
0.0
 0
VERTEX
 8
PARTS
 10
  7.6600
 20
  8.7800
 30
0.0
 0
VERTEX
 8
PARTS
 10
  7.7000
 20
  8.8200
 30
0.0
 0
SEQEND
 8
PARTS
 0
POLYLINE
 8
PARTS
 66
1
 10
0.0
 20
0.0
 30
0.0
 0
VERTEX
 8
PARTS
 10
  7.7000
 20
  9.2000
 30
0.0
 0
VERTEX
 8
PARTS
 10
  7.7000
 20
  9.1100
 30
0.0
 0
SEQEND
 8
PARTS
 0
POLYLINE
 8
PARTS
 66
1
 10
0.0
 20
0.0
 30
0.0
 0
VERTEX
 8
PARTS
 10
  7.7000
 20
  9.1100
 30
0.0
 0
VERTEX
 8
PARTS
 10
  7.5000
 20
  9.1100
 30
0.0
 0
SEQEND
 8
PARTS
 0
POLYLINE
 8
PARTS
 66
1
 10
0.0
 20
0.0
 30
0.0
 0
VERTEX
 8
PARTS
 10
  7.5000
 20
  9.1100
 30
0.0
 0
VERTEX
 8
PARTS
 10
  7.5000
 20
  9.2000
 30
0.0
 0
SEQEND
 8
PARTS
 0
POLYLINE
 8
PARTS
 66
1
 10
0.0
 20
0.0
 30
0.0
 0
VERTEX
 8
PARTS
 10
  7.5000
 20
  9.2000
 30
0.0
 0
VERTEX
 8
PARTS
 10
  7.7000
 20
  9.2000
 30
0.0
 0
SEQEND
 8
PARTS
 0
POLYLINE
 8
PARTS
 66
1
 10
0.0
 20
0.0
 30
0.0
 0
VERTEX
 8
PARTS
 10
  7.7000
 20
  9.0500
 30
0.0
 0
VERTEX
 8
PARTS
 10
  7.6300
 20
  8.9800
 30
0.0
 0
SEQEND
 8
PARTS
 0
POLYLINE
 8
PARTS
 66
1
 10
0.0
 20
0.0
 30
0.0
 0
VERTEX
 8
PARTS
 10
  7.6300
 20
  8.9800
 30
0.0
 0
VERTEX
 8
PARTS
 10
  7.7000
 20
  8.9100
 30
0.0
 0
SEQEND
 8
PARTS
 0
POLYLINE
 8
PARTS
 66
1
 10
0.0
 20
0.0
 30
0.0
 0
VERTEX
 8
PARTS
 10
  7.7000
 20
  8.9100
 30
0.0
 0
VERTEX
 8
PARTS
 10
  7.7000
 20
  8.7000
 30
0.0
 0
SEQEND
 8
PARTS
 0
POLYLINE
 8
PARTS
 66
1
 10
0.0
 20
0.0
 30
0.0
 0
VERTEX
 8
PARTS
 10
  7.6000
 20
  8.8200
 30
0.0
 0
VERTEX
 8
PARTS
 10
  7.6000
 20
  8.7000
 30
0.0
 0
SEQEND
 8
PARTS
 0
POLYLINE
 8
PARTS
 66
1
 10
0.0
 20
0.0
 30
0.0
 0
VERTEX
 8
PARTS
 10
  7.5000
 20
  9.1100
 30
0.0
 0
VERTEX
 8
PARTS
 10
  7.5000
 20
  8.7000
 30
0.0
 0
SEQEND
 8
PARTS
 0
POLYLINE
 8
PARTS
 66
1
 10
0.0
 20
0.0
 30
0.0
 0
VERTEX
 8
PARTS
 10
  7.6000
 20
  8.7000
 30
0.0
 0
VERTEX
 8
PARTS
 10
  7.6000
 20
  8.8200
 30
0.0
 0
SEQEND
 8
PARTS
 0
POLYLINE
 8
PARTS
 66
1
 10
0.0
 20
0.0
 30
0.0
 0
VERTEX
 8
PARTS
 10
  7.6600
 20
  8.8200
 30
0.0
 0
VERTEX
 8
PARTS
 10
  7.6000
 20
  8.8200
 30
0.0
 0
SEQEND
 8
PARTS
 0
TEXT
 8
PARTTEXT
 10
 13.7000
 20
  9.3586
 30
0.0
 40
  0.0514
 1
J10
 0
TEXT
 8
PARTTEXT
 10
 13.7000
 20
  9.2386
 30
0.0
 40
  0.0514
 1
PEDAL4_OUT
 0
LINE
 8
PARTS
 10
 14.0000
 20
  8.4000
 30
0.0
 11
 14.0000
 21
  8.7000
 31
0.0
 0
TEXT
 8
PARTS
 10
 13.9700
 20
  8.5800
 30
0.0
 40
  0.0500
 50
 90.0000
 1
3
 0
LINE
 8
PARTS
 10
 13.9000
 20
  8.4000
 30
0.0
 11
 13.9000
 21
  8.7000
 31
0.0
 0
TEXT
 8
PARTS
 10
 13.8700
 20
  8.5800
 30
0.0
 40
  0.0500
 50
 90.0000
 1
2
 0
LINE
 8
PARTS
 10
 13.8000
 20
  8.4000
 30
0.0
 11
 13.8000
 21
  8.7000
 31
0.0
 0
TEXT
 8
PARTS
 10
 13.7700
 20
  8.5800
 30
0.0
 40
  0.0500
 50
 90.0000
 1
1
 0
POLYLINE
 8
PARTS
 66
1
 70
1
 10
0.0
 20
0.0
 30
0.0
 0
VERTEX
 8
PARTS
 10
 14.0000
 20
  8.8200
 30
0.0
 0
VERTEX
 8
PARTS
 10
 13.9600
 20
  8.8600
 30
0.0
 0
VERTEX
 8
PARTS
 10
 13.9600
 20
  8.7800
 30
0.0
 0
VERTEX
 8
PARTS
 10
 14.0000
 20
  8.8200
 30
0.0
 0
SEQEND
 8
PARTS
 0
POLYLINE
 8
PARTS
 66
1
 10
0.0
 20
0.0
 30
0.0
 0
VERTEX
 8
PARTS
 10
 14.0000
 20
  9.2000
 30
0.0
 0
VERTEX
 8
PARTS
 10
 14.0000
 20
  9.1100
 30
0.0
 0
SEQEND
 8
PARTS
 0
POLYLINE
 8
PARTS
 66
1
 10
0.0
 20
0.0
 30
0.0
 0
VERTEX
 8
PARTS
 10
 14.0000
 20
  9.1100
 30
0.0
 0
VERTEX
 8
PARTS
 10
 13.8000
 20
  9.1100
 30
0.0
 0
SEQEND
 8
PARTS
 0
POLYLINE
 8
PARTS
 66
1
 10
0.0
 20
0.0
 30
0.0
 0
VERTEX
 8
PARTS
 10
 13.8000
 20
  9.1100
 30
0.0
 0
VERTEX
 8
PARTS
 10
 13.8000
 20
  9.2000
 30
0.0
 0
SEQEND
 8
PARTS
 0
POLYLINE
 8
PARTS
 66
1
 10
0.0
 20
0.0
 30
0.0
 0
VERTEX
 8
PARTS
 10
 13.8000
 20
  9.2000
 30
0.0
 0
VERTEX
 8
PARTS
 10
 14.0000
 20
  9.2000
 30
0.0
 0
SEQEND
 8
PARTS
 0
POLYLINE
 8
PARTS
 66
1
 10
0.0
 20
0.0
 30
0.0
 0
VERTEX
 8
PARTS
 10
 14.0000
 20
  9.0500
 30
0.0
 0
VERTEX
 8
PARTS
 10
 13.9300
 20
  8.9800
 30
0.0
 0
SEQEND
 8
PARTS
 0
POLYLINE
 8
PARTS
 66
1
 10
0.0
 20
0.0
 30
0.0
 0
VERTEX
 8
PARTS
 10
 13.9300
 20
  8.9800
 30
0.0
 0
VERTEX
 8
PARTS
 10
 14.0000
 20
  8.9100
 30
0.0
 0
SEQEND
 8
PARTS
 0
POLYLINE
 8
PARTS
 66
1
 10
0.0
 20
0.0
 30
0.0
 0
VERTEX
 8
PARTS
 10
 14.0000
 20
  8.9100
 30
0.0
 0
VERTEX
 8
PARTS
 10
 14.0000
 20
  8.7000
 30
0.0
 0
SEQEND
 8
PARTS
 0
POLYLINE
 8
PARTS
 66
1
 10
0.0
 20
0.0
 30
0.0
 0
VERTEX
 8
PARTS
 10
 13.9000
 20
  8.8200
 30
0.0
 0
VERTEX
 8
PARTS
 10
 13.9000
 20
  8.7000
 30
0.0
 0
SEQEND
 8
PARTS
 0
POLYLINE
 8
PARTS
 66
1
 10
0.0
 20
0.0
 30
0.0
 0
VERTEX
 8
PARTS
 10
 13.8000
 20
  9.1100
 30
0.0
 0
VERTEX
 8
PARTS
 10
 13.8000
 20
  8.7000
 30
0.0
 0
SEQEND
 8
PARTS
 0
POLYLINE
 8
PARTS
 66
1
 10
0.0
 20
0.0
 30
0.0
 0
VERTEX
 8
PARTS
 10
 13.9000
 20
  8.7000
 30
0.0
 0
VERTEX
 8
PARTS
 10
 13.9000
 20
  8.8200
 30
0.0
 0
SEQEND
 8
PARTS
 0
POLYLINE
 8
PARTS
 66
1
 10
0.0
 20
0.0
 30
0.0
 0
VERTEX
 8
PARTS
 10
 13.9600
 20
  8.8200
 30
0.0
 0
VERTEX
 8
PARTS
 10
 13.9000
 20
  8.8200
 30
0.0
 0
SEQEND
 8
PARTS
 0
TEXT
 8
PARTTEXT
 10
  2.5000
 20
  8.7186
 30
0.0
 40
  0.0514
 1
R1
 0
TEXT
 8
PARTTEXT
 10
  2.5000
 20
  8.6186
 30
0.0
 40
  0.0514
 1
10k
 0
LINE
 8
PARTS
 10
  2.4000
 20
  8.9000
 30
0.0
 11
  2.4000
 21
  8.8000
 31
0.0
 0
LINE
 8
PARTS
 10
  2.4000
 20
  8.4000
 30
0.0
 11
  2.4000
 21
  8.5000
 31
0.0
 0
POLYLINE
 8
PARTS
 66
1
 10
0.0
 20
0.0
 30
0.0
 0
VERTEX
 8
PARTS
 10
  2.4000
 20
  8.8000
 30
0.0
 0
VERTEX
 8
PARTS
 10
  2.4300
 20
  8.7700
 30
0.0
 0
SEQEND
 8
PARTS
 0
POLYLINE
 8
PARTS
 66
1
 10
0.0
 20
0.0
 30
0.0
 0
VERTEX
 8
PARTS
 10
  2.4300
 20
  8.7700
 30
0.0
 0
VERTEX
 8
PARTS
 10
  2.3700
 20
  8.7100
 30
0.0
 0
SEQEND
 8
PARTS
 0
POLYLINE
 8
PARTS
 66
1
 10
0.0
 20
0.0
 30
0.0
 0
VERTEX
 8
PARTS
 10
  2.3700
 20
  8.7100
 30
0.0
 0
VERTEX
 8
PARTS
 10
  2.4300
 20
  8.6500
 30
0.0
 0
SEQEND
 8
PARTS
 0
POLYLINE
 8
PARTS
 66
1
 10
0.0
 20
0.0
 30
0.0
 0
VERTEX
 8
PARTS
 10
  2.4300
 20
  8.6500
 30
0.0
 0
VERTEX
 8
PARTS
 10
  2.3700
 20
  8.5900
 30
0.0
 0
SEQEND
 8
PARTS
 0
POLYLINE
 8
PARTS
 66
1
 10
0.0
 20
0.0
 30
0.0
 0
VERTEX
 8
PARTS
 10
  2.3700
 20
  8.5900
 30
0.0
 0
VERTEX
 8
PARTS
 10
  2.4300
 20
  8.5300
 30
0.0
 0
SEQEND
 8
PARTS
 0
POLYLINE
 8
PARTS
 66
1
 10
0.0
 20
0.0
 30
0.0
 0
VERTEX
 8
PARTS
 10
  2.4300
 20
  8.5300
 30
0.0
 0
VERTEX
 8
PARTS
 10
  2.4000
 20
  8.5000
 30
0.0
 0
SEQEND
 8
PARTS
 0
TEXT
 8
PARTTEXT
 10
  6.4000
 20
  7.5586
 30
0.0
 40
  0.0514
 1
J11
 0
TEXT
 8
PARTTEXT
 10
  6.4000
 20
  7.4386
 30
0.0
 40
  0.0514
 1
PEDAL5_IN
 0
LINE
 8
PARTS
 10
  6.7000
 20
  6.6000
 30
0.0
 11
  6.7000
 21
  6.9000
 31
0.0
 0
TEXT
 8
PARTS
 10
  6.6700
 20
  6.7800
 30
0.0
 40
  0.0500
 50
 90.0000
 1
3
 0
LINE
 8
PARTS
 10
  6.6000
 20
  6.6000
 30
0.0
 11
  6.6000
 21
  6.9000
 31
0.0
 0
TEXT
 8
PARTS
 10
  6.5700
 20
  6.7800
 30
0.0
 40
  0.0500
 50
 90.0000
 1
2
 0
LINE
 8
PARTS
 10
  6.5000
 20
  6.6000
 30
0.0
 11
  6.5000
 21
  6.9000
 31
0.0
 0
TEXT
 8
PARTS
 10
  6.4700
 20
  6.7800
 30
0.0
 40
  0.0500
 50
 90.0000
 1
1
 0
POLYLINE
 8
PARTS
 66
1
 70
1
 10
0.0
 20
0.0
 30
0.0
 0
VERTEX
 8
PARTS
 10
  6.7000
 20
  7.0200
 30
0.0
 0
VERTEX
 8
PARTS
 10
  6.6600
 20
  7.0600
 30
0.0
 0
VERTEX
 8
PARTS
 10
  6.6600
 20
  6.9800
 30
0.0
 0
VERTEX
 8
PARTS
 10
  6.7000
 20
  7.0200
 30
0.0
 0
SEQEND
 8
PARTS
 0
POLYLINE
 8
PARTS
 66
1
 10
0.0
 20
0.0
 30
0.0
 0
VERTEX
 8
PARTS
 10
  6.7000
 20
  7.4000
 30
0.0
 0
VERTEX
 8
PARTS
 10
  6.7000
 20
  7.3100
 30
0.0
 0
SEQEND
 8
PARTS
 0
POLYLINE
 8
PARTS
 66
1
 10
0.0
 20
0.0
 30
0.0
 0
VERTEX
 8
PARTS
 10
  6.7000
 20
  7.3100
 30
0.0
 0
VERTEX
 8
PARTS
 10
  6.5000
 20
  7.3100
 30
0.0
 0
SEQEND
 8
PARTS
 0
POLYLINE
 8
PARTS
 66
1
 10
0.0
 20
0.0
 30
0.0
 0
VERTEX
 8
PARTS
 10
  6.5000
 20
  7.3100
 30
0.0
 0
VERTEX
 8
PARTS
 10
  6.5000
 20
  7.4000
 30
0.0
 0
SEQEND
 8
PARTS
 0
POLYLINE
 8
PARTS
 66
1
 10
0.0
 20
0.0
 30
0.0
 0
VERTEX
 8
PARTS
 10
  6.5000
 20
  7.4000
 30
0.0
 0
VERTEX
 8
PARTS
 10
  6.7000
 20
  7.4000
 30
0.0
 0
SEQEND
 8
PARTS
 0
POLYLINE
 8
PARTS
 66
1
 10
0.0
 20
0.0
 30
0.0
 0
VERTEX
 8
PARTS
 10
  6.7000
 20
  7.2500
 30
0.0
 0
VERTEX
 8
PARTS
 10
  6.6300
 20
  7.1800
 30
0.0
 0
SEQEND
 8
PARTS
 0
POLYLINE
 8
PARTS
 66
1
 10
0.0
 20
0.0
 30
0.0
 0
VERTEX
 8
PARTS
 10
  6.6300
 20
  7.1800
 30
0.0
 0
VERTEX
 8
PARTS
 10
  6.7000
 20
  7.1100
 30
0.0
 0
SEQEND
 8
PARTS
 0
POLYLINE
 8
PARTS
 66
1
 10
0.0
 20
0.0
 30
0.0
 0
VERTEX
 8
PARTS
 10
  6.7000
 20
  7.1100
 30
0.0
 0
VERTEX
 8
PARTS
 10
  6.7000
 20
  6.9000
 30
0.0
 0
SEQEND
 8
PARTS
 0
POLYLINE
 8
PARTS
 66
1
 10
0.0
 20
0.0
 30
0.0
 0
VERTEX
 8
PARTS
 10
  6.6000
 20
  7.0200
 30
0.0
 0
VERTEX
 8
PARTS
 10
  6.6000
 20
  6.9000
 30
0.0
 0
SEQEND
 8
PARTS
 0
POLYLINE
 8
PARTS
 66
1
 10
0.0
 20
0.0
 30
0.0
 0
VERTEX
 8
PARTS
 10
  6.5000
 20
  7.3100
 30
0.0
 0
VERTEX
 8
PARTS
 10
  6.5000
 20
  6.9000
 30
0.0
 0
SEQEND
 8
PARTS
 0
POLYLINE
 8
PARTS
 66
1
 10
0.0
 20
0.0
 30
0.0
 0
VERTEX
 8
PARTS
 10
  6.6000
 20
  6.9000
 30
0.0
 0
VERTEX
 8
PARTS
 10
  6.6000
 20
  7.0200
 30
0.0
 0
SEQEND
 8
PARTS
 0
POLYLINE
 8
PARTS
 66
1
 10
0.0
 20
0.0
 30
0.0
 0
VERTEX
 8
PARTS
 10
  6.6600
 20
  7.0200
 30
0.0
 0
VERTEX
 8
PARTS
 10
  6.6000
 20
  7.0200
 30
0.0
 0
SEQEND
 8
PARTS
 0
POLYLINE
 8
WIRE
 66
1
 10
0.0
 20
0.0
 30
0.0
 0
VERTEX
 8
WIRE
 10
  2.7000
 20
  6.3000
 30
0.0
 0
VERTEX
 8
WIRE
 10
  2.4000
 20
  6.3000
 30
0.0
 0
SEQEND
 8
WIRE
 0
POLYLINE
 8
WIRE
 66
1
 10
0.0
 20
0.0
 30
0.0
 0
VERTEX
 8
WIRE
 10
  2.7000
 20
  6.4000
 30
0.0
 0
VERTEX
 8
WIRE
 10
  1.9000
 20
  6.4000
 30
0.0
 0
SEQEND
 8
WIRE
 0
POLYLINE
 8
WIRE
 66
1
 10
0.0
 20
0.0
 30
0.0
 0
VERTEX
 8
WIRE
 10
  3.9000
 20
  6.4000
 30
0.0
 0
VERTEX
 8
WIRE
 10
  3.8000
 20
  6.4000
 30
0.0
 0
SEQEND
 8
WIRE
 0
POLYLINE
 8
WIRE
 66
1
 10
0.0
 20
0.0
 30
0.0
 0
VERTEX
 8
WIRE
 10
  1.5000
 20
  8.3000
 30
0.0
 0
VERTEX
 8
WIRE
 10
  1.2000
 20
  8.3000
 30
0.0
 0
SEQEND
 8
WIRE
 0
POLYLINE
 8
WIRE
 66
1
 10
0.0
 20
0.0
 30
0.0
 0
VERTEX
 8
WIRE
 10
  2.4000
 20
  8.3000
 30
0.0
 0
VERTEX
 8
WIRE
 10
  2.4000
 20
  8.4000
 30
0.0
 0
SEQEND
 8
WIRE
 0
POLYLINE
 8
WIRE
 66
1
 10
0.0
 20
0.0
 30
0.0
 0
VERTEX
 8
WIRE
 10
  2.4000
 20
  8.2000
 30
0.0
 0
VERTEX
 8
WIRE
 10
  2.4000
 20
  8.3000
 30
0.0
 0
SEQEND
 8
WIRE
 0
POLYLINE
 8
WIRE
 66
1
 10
0.0
 20
0.0
 30
0.0
 0
VERTEX
 8
WIRE
 10
  1.5000
 20
  8.2000
 30
0.0
 0
VERTEX
 8
WIRE
 10
  1.5000
 20
  8.3000
 30
0.0
 0
SEQEND
 8
WIRE
 0
POLYLINE
 8
WIRE
 66
1
 10
0.0
 20
0.0
 30
0.0
 0
VERTEX
 8
WIRE
 10
  1.3000
 20
  6.8000
 30
0.0
 0
VERTEX
 8
WIRE
 10
  1.3000
 20
  6.9000
 30
0.0
 0
SEQEND
 8
WIRE
 0
POLYLINE
 8
WIRE
 66
1
 10
0.0
 20
0.0
 30
0.0
 0
VERTEX
 8
WIRE
 10
  1.3000
 20
  6.9000
 30
0.0
 0
VERTEX
 8
WIRE
 10
  1.2000
 20
  6.9000
 30
0.0
 0
SEQEND
 8
WIRE
 0
POLYLINE
 8
WIRE
 66
1
 10
0.0
 20
0.0
 30
0.0
 0
VERTEX
 8
WIRE
 10
  3.8000
 20
  6.2000
 30
0.0
 0
VERTEX
 8
WIRE
 10
  4.6000
 20
  6.2000
 30
0.0
 0
SEQEND
 8
WIRE
 0
POLYLINE
 8
WIRE
 66
1
 10
0.0
 20
0.0
 30
0.0
 0
VERTEX
 8
WIRE
 10
  4.6000
 20
  6.2000
 30
0.0
 0
VERTEX
 8
WIRE
 10
  4.6000
 20
  7.1000
 30
0.0
 0
SEQEND
 8
WIRE
 0
POLYLINE
 8
WIRE
 66
1
 10
0.0
 20
0.0
 30
0.0
 0
VERTEX
 8
WIRE
 10
  4.6000
 20
  7.1000
 30
0.0
 0
VERTEX
 8
WIRE
 10
  1.7000
 20
  7.1000
 30
0.0
 0
SEQEND
 8
WIRE
 0
POLYLINE
 8
WIRE
 66
1
 70
1
 10
0.0
 20
0.0
 30
0.0
 40
  0.0200
 41
  0.0200
 0
VERTEX
 8
WIRE
 10
  1.6900
 20
  7.1000
 30
0.0
 42
1.0
 0
VERTEX
 8
WIRE
 10
  1.7100
 20
  7.1000
 30
0.0
 42
1.0
 0
SEQEND
 8
WIRE
 0
POLYLINE
 8
WIRE
 66
1
 10
0.0
 20
0.0
 30
0.0
 0
VERTEX
 8
WIRE
 10
  1.7000
 20
  7.1000
 30
0.0
 0
VERTEX
 8
WIRE
 10
  1.2000
 20
  7.1000
 30
0.0
 0
SEQEND
 8
WIRE
 0
POLYLINE
 8
WIRE
 66
1
 10
0.0
 20
0.0
 30
0.0
 0
VERTEX
 8
WIRE
 10
  2.4000
 20
  9.0000
 30
0.0
 0
VERTEX
 8
WIRE
 10
  2.4000
 20
  9.1000
 30
0.0
 0
SEQEND
 8
WIRE
 0
POLYLINE
 8
WIRE
 66
1
 70
1
 10
0.0
 20
0.0
 30
0.0
 40
  0.0200
 41
  0.0200
 0
VERTEX
 8
WIRE
 10
  2.3900
 20
  9.0000
 30
0.0
 42
1.0
 0
VERTEX
 8
WIRE
 10
  2.4100
 20
  9.0000
 30
0.0
 42
1.0
 0
SEQEND
 8
WIRE
 0
POLYLINE
 8
WIRE
 66
1
 10
0.0
 20
0.0
 30
0.0
 0
VERTEX
 8
WIRE
 10
  2.8000
 20
  9.0000
 30
0.0
 0
VERTEX
 8
WIRE
 10
  2.4000
 20
  9.0000
 30
0.0
 0
SEQEND
 8
WIRE
 0
POLYLINE
 8
WIRE
 66
1
 10
0.0
 20
0.0
 30
0.0
 0
VERTEX
 8
WIRE
 10
  2.8000
 20
  8.8000
 30
0.0
 0
VERTEX
 8
WIRE
 10
  2.8000
 20
  9.0000
 30
0.0
 0
SEQEND
 8
WIRE
 0
POLYLINE
 8
WIRE
 66
1
 10
0.0
 20
0.0
 30
0.0
 0
VERTEX
 8
WIRE
 10
  2.4000
 20
  8.9000
 30
0.0
 0
VERTEX
 8
WIRE
 10
  2.4000
 20
  9.0000
 30
0.0
 0
SEQEND
 8
WIRE
 0
POLYLINE
 8
WIRE
 66
1
 10
0.0
 20
0.0
 30
0.0
 0
VERTEX
 8
WIRE
 10
  2.8000
 20
  8.3000
 30
0.0
 0
VERTEX
 8
WIRE
 10
  2.8000
 20
  8.5000
 30
0.0
 0
SEQEND
 8
WIRE
 0
POLYLINE
 8
WIRE
 66
1
 70
1
 10
0.0
 20
0.0
 30
0.0
 40
  0.0200
 41
  0.0200
 0
VERTEX
 8
WIRE
 10
  2.7900
 20
  8.3000
 30
0.0
 42
1.0
 0
VERTEX
 8
WIRE
 10
  2.8100
 20
  8.3000
 30
0.0
 42
1.0
 0
SEQEND
 8
WIRE
 0
POLYLINE
 8
WIRE
 66
1
 10
0.0
 20
0.0
 30
0.0
 0
VERTEX
 8
WIRE
 10
  2.4000
 20
  7.6000
 30
0.0
 0
VERTEX
 8
WIRE
 10
  2.4000
 20
  7.7000
 30
0.0
 0
SEQEND
 8
WIRE
 0
POLYLINE
 8
WIRE
 66
1
 10
0.0
 20
0.0
 30
0.0
 0
VERTEX
 8
WIRE
 10
  2.8000
 20
  7.6000
 30
0.0
 0
VERTEX
 8
WIRE
 10
  2.8000
 20
  7.8000
 30
0.0
 0
SEQEND
 8
WIRE
 0
POLYLINE
 8
WIRE
 66
1
 10
0.0
 20
0.0
 30
0.0
 0
VERTEX
 8
WIRE
 10
  2.8000
 20
  7.6000
 30
0.0
 0
VERTEX
 8
WIRE
 10
  2.4000
 20
  7.6000
 30
0.0
 0
SEQEND
 8
WIRE
 0
POLYLINE
 8
WIRE
 66
1
 70
1
 10
0.0
 20
0.0
 30
0.0
 40
  0.0200
 41
  0.0200
 0
VERTEX
 8
WIRE
 10
  2.3900
 20
  7.6000
 30
0.0
 42
1.0
 0
VERTEX
 8
WIRE
 10
  2.4100
 20
  7.6000
 30
0.0
 42
1.0
 0
SEQEND
 8
WIRE
 0
POLYLINE
 8
WIRE
 66
1
 10
0.0
 20
0.0
 30
0.0
 0
VERTEX
 8
WIRE
 10
  2.4000
 20
  7.4000
 30
0.0
 0
VERTEX
 8
WIRE
 10
  2.4000
 20
  7.6000
 30
0.0
 0
SEQEND
 8
WIRE
 0
POLYLINE
 8
WIRE
 66
1
 10
0.0
 20
0.0
 30
0.0
 0
VERTEX
 8
WIRE
 10
  2.8000
 20
  8.3000
 30
0.0
 0
VERTEX
 8
WIRE
 10
  2.4000
 20
  8.3000
 30
0.0
 0
SEQEND
 8
WIRE
 0
POLYLINE
 8
WIRE
 66
1
 10
0.0
 20
0.0
 30
0.0
 0
VERTEX
 8
WIRE
 10
  2.8000
 20
  8.1000
 30
0.0
 0
VERTEX
 8
WIRE
 10
  2.8000
 20
  8.3000
 30
0.0
 0
SEQEND
 8
WIRE
 0
POLYLINE
 8
WIRE
 66
1
 10
0.0
 20
0.0
 30
0.0
 0
VERTEX
 8
WIRE
 10
  1.5000
 20
  8.3000
 30
0.0
 0
VERTEX
 8
WIRE
 10
  2.4000
 20
  8.3000
 30
0.0
 0
SEQEND
 8
WIRE
 0
POLYLINE
 8
WIRE
 66
1
 70
1
 10
0.0
 20
0.0
 30
0.0
 40
  0.0200
 41
  0.0200
 0
VERTEX
 8
WIRE
 10
  1.4900
 20
  8.3000
 30
0.0
 42
1.0
 0
VERTEX
 8
WIRE
 10
  1.5100
 20
  8.3000
 30
0.0
 42
1.0
 0
SEQEND
 8
WIRE
 0
POLYLINE
 8
WIRE
 66
1
 70
1
 10
0.0
 20
0.0
 30
0.0
 40
  0.0200
 41
  0.0200
 0
VERTEX
 8
WIRE
 10
  2.3900
 20
  8.3000
 30
0.0
 42
1.0
 0
VERTEX
 8
WIRE
 10
  2.4100
 20
  8.3000
 30
0.0
 42
1.0
 0
SEQEND
 8
WIRE
 0
POLYLINE
 8
WIRE
 66
1
 10
0.0
 20
0.0
 30
0.0
 0
VERTEX
 8
WIRE
 10
  1.2000
 20
  8.5000
 30
0.0
 0
VERTEX
 8
WIRE
 10
  1.4000
 20
  8.5000
 30
0.0
 0
SEQEND
 8
WIRE
 0
POLYLINE
 8
WIRE
 66
1
 10
0.0
 20
0.0
 30
0.0
 0
VERTEX
 8
WIRE
 10
  1.7000
 20
  8.5000
 30
0.0
 0
VERTEX
 8
WIRE
 10
  1.4000
 20
  8.5000
 30
0.0
 0
SEQEND
 8
WIRE
 0
POLYLINE
 8
WIRE
 66
1
 70
1
 10
0.0
 20
0.0
 30
0.0
 40
  0.0200
 41
  0.0200
 0
VERTEX
 8
WIRE
 10
  1.3900
 20
  8.5000
 30
0.0
 42
1.0
 0
VERTEX
 8
WIRE
 10
  1.4100
 20
  8.5000
 30
0.0
 42
1.0
 0
SEQEND
 8
WIRE
 0
POLYLINE
 8
WIRE
 66
1
 10
0.0
 20
0.0
 30
0.0
 0
VERTEX
 8
WIRE
 10
  6.5000
 20
  8.3000
 30
0.0
 0
VERTEX
 8
WIRE
 10
  6.5000
 20
  8.4000
 30
0.0
 0
SEQEND
 8
WIRE
 0
POLYLINE
 8
WIRE
 66
1
 10
0.0
 20
0.0
 30
0.0
 0
VERTEX
 8
WIRE
 10
  6.5000
 20
  8.3000
 30
0.0
 0
VERTEX
 8
WIRE
 10
  6.4000
 20
  8.3000
 30
0.0
 0
SEQEND
 8
WIRE
 0
POLYLINE
 8
WIRE
 66
1
 10
0.0
 20
0.0
 30
0.0
 0
VERTEX
 8
WIRE
 10
  6.6000
 20
  8.4000
 30
0.0
 0
VERTEX
 8
WIRE
 10
  6.6000
 20
  8.1000
 30
0.0
 0
SEQEND
 8
WIRE
 0
POLYLINE
 8
WIRE
 66
1
 10
0.0
 20
0.0
 30
0.0
 0
VERTEX
 8
WIRE
 10
  6.7000
 20
  8.4000
 30
0.0
 0
VERTEX
 8
WIRE
 10
  6.7000
 20
  8.3000
 30
0.0
 0
SEQEND
 8
WIRE
 0
POLYLINE
 8
WIRE
 66
1
 10
0.0
 20
0.0
 30
0.0
 0
VERTEX
 8
WIRE
 10
  6.7000
 20
  8.3000
 30
0.0
 0
VERTEX
 8
WIRE
 10
  6.8000
 20
  8.3000
 30
0.0
 0
SEQEND
 8
WIRE
 0
POLYLINE
 8
WIRE
 66
1
 10
0.0
 20
0.0
 30
0.0
 0
VERTEX
 8
WIRE
 10
  7.5000
 20
  8.3000
 30
0.0
 0
VERTEX
 8
WIRE
 10
  7.5000
 20
  8.4000
 30
0.0
 0
SEQEND
 8
WIRE
 0
POLYLINE
 8
WIRE
 66
1
 10
0.0
 20
0.0
 30
0.0
 0
VERTEX
 8
WIRE
 10
  7.6000
 20
  8.4000
 30
0.0
 0
VERTEX
 8
WIRE
 10
  7.6000
 20
  8.1000
 30
0.0
 0
SEQEND
 8
WIRE
 0
POLYLINE
 8
WIRE
 66
1
 10
0.0
 20
0.0
 30
0.0
 0
VERTEX
 8
WIRE
 10
  7.7000
 20
  8.4000
 30
0.0
 0
VERTEX
 8
WIRE
 10
  7.7000
 20
  8.3000
 30
0.0
 0
SEQEND
 8
WIRE
 0
POLYLINE
 8
WIRE
 66
1
 10
0.0
 20
0.0
 30
0.0
 0
VERTEX
 8
WIRE
 10
  7.5000
 20
  8.3000
 30
0.0
 0
VERTEX
 8
WIRE
 10
  7.4000
 20
  8.3000
 30
0.0
 0
SEQEND
 8
WIRE
 0
POLYLINE
 8
WIRE
 66
1
 10
0.0
 20
0.0
 30
0.0
 0
VERTEX
 8
WIRE
 10
  7.7000
 20
  8.3000
 30
0.0
 0
VERTEX
 8
WIRE
 10
  7.8000
 20
  8.3000
 30
0.0
 0
SEQEND
 8
WIRE
 0
POLYLINE
 8
WIRE
 66
1
 10
0.0
 20
0.0
 30
0.0
 0
VERTEX
 8
WIRE
 10
  8.6000
 20
  8.3000
 30
0.0
 0
VERTEX
 8
WIRE
 10
  8.6000
 20
  8.4000
 30
0.0
 0
SEQEND
 8
WIRE
 0
POLYLINE
 8
WIRE
 66
1
 10
0.0
 20
0.0
 30
0.0
 0
VERTEX
 8
WIRE
 10
  8.7000
 20
  8.1000
 30
0.0
 0
VERTEX
 8
WIRE
 10
  8.7000
 20
  8.4000
 30
0.0
 0
SEQEND
 8
WIRE
 0
POLYLINE
 8
WIRE
 66
1
 10
0.0
 20
0.0
 30
0.0
 0
VERTEX
 8
WIRE
 10
  8.8000
 20
  8.3000
 30
0.0
 0
VERTEX
 8
WIRE
 10
  8.8000
 20
  8.4000
 30
0.0
 0
SEQEND
 8
WIRE
 0
POLYLINE
 8
WIRE
 66
1
 10
0.0
 20
0.0
 30
0.0
 0
VERTEX
 8
WIRE
 10
  9.6000
 20
  8.3000
 30
0.0
 0
VERTEX
 8
WIRE
 10
  9.6000
 20
  8.4000
 30
0.0
 0
SEQEND
 8
WIRE
 0
POLYLINE
 8
WIRE
 66
1
 10
0.0
 20
0.0
 30
0.0
 0
VERTEX
 8
WIRE
 10
  9.7000
 20
  8.1000
 30
0.0
 0
VERTEX
 8
WIRE
 10
  9.7000
 20
  8.4000
 30
0.0
 0
SEQEND
 8
WIRE
 0
POLYLINE
 8
WIRE
 66
1
 10
0.0
 20
0.0
 30
0.0
 0
VERTEX
 8
WIRE
 10
  9.8000
 20
  8.3000
 30
0.0
 0
VERTEX
 8
WIRE
 10
  9.8000
 20
  8.4000
 30
0.0
 0
SEQEND
 8
WIRE
 0
POLYLINE
 8
WIRE
 66
1
 10
0.0
 20
0.0
 30
0.0
 0
VERTEX
 8
WIRE
 10
  8.6000
 20
  8.3000
 30
0.0
 0
VERTEX
 8
WIRE
 10
  8.5000
 20
  8.3000
 30
0.0
 0
SEQEND
 8
WIRE
 0
POLYLINE
 8
WIRE
 66
1
 10
0.0
 20
0.0
 30
0.0
 0
VERTEX
 8
WIRE
 10
  8.9000
 20
  8.3000
 30
0.0
 0
VERTEX
 8
WIRE
 10
  8.8000
 20
  8.3000
 30
0.0
 0
SEQEND
 8
WIRE
 0
POLYLINE
 8
WIRE
 66
1
 10
0.0
 20
0.0
 30
0.0
 0
VERTEX
 8
WIRE
 10
  9.6000
 20
  8.3000
 30
0.0
 0
VERTEX
 8
WIRE
 10
  9.5000
 20
  8.3000
 30
0.0
 0
SEQEND
 8
WIRE
 0
POLYLINE
 8
WIRE
 66
1
 10
0.0
 20
0.0
 30
0.0
 0
VERTEX
 8
WIRE
 10
  9.9000
 20
  8.3000
 30
0.0
 0
VERTEX
 8
WIRE
 10
  9.8000
 20
  8.3000
 30
0.0
 0
SEQEND
 8
WIRE
 0
POLYLINE
 8
WIRE
 66
1
 10
0.0
 20
0.0
 30
0.0
 0
VERTEX
 8
WIRE
 10
 10.7000
 20
  8.3000
 30
0.0
 0
VERTEX
 8
WIRE
 10
 10.7000
 20
  8.4000
 30
0.0
 0
SEQEND
 8
WIRE
 0
POLYLINE
 8
WIRE
 66
1
 10
0.0
 20
0.0
 30
0.0
 0
VERTEX
 8
WIRE
 10
 10.8000
 20
  8.4000
 30
0.0
 0
VERTEX
 8
WIRE
 10
 10.8000
 20
  8.1000
 30
0.0
 0
SEQEND
 8
WIRE
 0
POLYLINE
 8
WIRE
 66
1
 10
0.0
 20
0.0
 30
0.0
 0
VERTEX
 8
WIRE
 10
 10.9000
 20
  8.4000
 30
0.0
 0
VERTEX
 8
WIRE
 10
 10.9000
 20
  8.3000
 30
0.0
 0
SEQEND
 8
WIRE
 0
POLYLINE
 8
WIRE
 66
1
 10
0.0
 20
0.0
 30
0.0
 0
VERTEX
 8
WIRE
 10
 11.7000
 20
  8.3000
 30
0.0
 0
VERTEX
 8
WIRE
 10
 11.7000
 20
  8.4000
 30
0.0
 0
SEQEND
 8
WIRE
 0
POLYLINE
 8
WIRE
 66
1
 10
0.0
 20
0.0
 30
0.0
 0
VERTEX
 8
WIRE
 10
 11.8000
 20
  8.4000
 30
0.0
 0
VERTEX
 8
WIRE
 10
 11.8000
 20
  8.1000
 30
0.0
 0
SEQEND
 8
WIRE
 0
POLYLINE
 8
WIRE
 66
1
 10
0.0
 20
0.0
 30
0.0
 0
VERTEX
 8
WIRE
 10
 11.9000
 20
  8.4000
 30
0.0
 0
VERTEX
 8
WIRE
 10
 11.9000
 20
  8.3000
 30
0.0
 0
SEQEND
 8
WIRE
 0
POLYLINE
 8
WIRE
 66
1
 10
0.0
 20
0.0
 30
0.0
 0
VERTEX
 8
WIRE
 10
 12.8000
 20
  8.3000
 30
0.0
 0
VERTEX
 8
WIRE
 10
 12.8000
 20
  8.4000
 30
0.0
 0
SEQEND
 8
WIRE
 0
POLYLINE
 8
WIRE
 66
1
 10
0.0
 20
0.0
 30
0.0
 0
VERTEX
 8
WIRE
 10
 12.9000
 20
  8.1000
 30
0.0
 0
VERTEX
 8
WIRE
 10
 12.9000
 20
  8.4000
 30
0.0
 0
SEQEND
 8
WIRE
 0
POLYLINE
 8
WIRE
 66
1
 10
0.0
 20
0.0
 30
0.0
 0
VERTEX
 8
WIRE
 10
 13.0000
 20
  8.3000
 30
0.0
 0
VERTEX
 8
WIRE
 10
 13.0000
 20
  8.4000
 30
0.0
 0
SEQEND
 8
WIRE
 0
POLYLINE
 8
WIRE
 66
1
 10
0.0
 20
0.0
 30
0.0
 0
VERTEX
 8
WIRE
 10
 13.8000
 20
  8.3000
 30
0.0
 0
VERTEX
 8
WIRE
 10
 13.8000
 20
  8.4000
 30
0.0
 0
SEQEND
 8
WIRE
 0
POLYLINE
 8
WIRE
 66
1
 10
0.0
 20
0.0
 30
0.0
 0
VERTEX
 8
WIRE
 10
 13.9000
 20
  8.1000
 30
0.0
 0
VERTEX
 8
WIRE
 10
 13.9000
 20
  8.4000
 30
0.0
 0
SEQEND
 8
WIRE
 0
POLYLINE
 8
WIRE
 66
1
 10
0.0
 20
0.0
 30
0.0
 0
VERTEX
 8
WIRE
 10
 14.0000
 20
  8.3000
 30
0.0
 0
VERTEX
 8
WIRE
 10
 14.0000
 20
  8.4000
 30
0.0
 0
SEQEND
 8
WIRE
 0
POLYLINE
 8
WIRE
 66
1
 10
0.0
 20
0.0
 30
0.0
 0
VERTEX
 8
WIRE
 10
 10.7000
 20
  8.3000
 30
0.0
 0
VERTEX
 8
WIRE
 10
 10.6000
 20
  8.3000
 30
0.0
 0
SEQEND
 8
WIRE
 0
POLYLINE
 8
WIRE
 66
1
 10
0.0
 20
0.0
 30
0.0
 0
VERTEX
 8
WIRE
 10
 10.9000
 20
  8.3000
 30
0.0
 0
VERTEX
 8
WIRE
 10
 11.0000
 20
  8.3000
 30
0.0
 0
SEQEND
 8
WIRE
 0
POLYLINE
 8
WIRE
 66
1
 10
0.0
 20
0.0
 30
0.0
 0
VERTEX
 8
WIRE
 10
 11.7000
 20
  8.3000
 30
0.0
 0
VERTEX
 8
WIRE
 10
 11.6000
 20
  8.3000
 30
0.0
 0
SEQEND
 8
WIRE
 0
POLYLINE
 8
WIRE
 66
1
 10
0.0
 20
0.0
 30
0.0
 0
VERTEX
 8
WIRE
 10
 11.9000
 20
  8.3000
 30
0.0
 0
VERTEX
 8
WIRE
 10
 12.0000
 20
  8.3000
 30
0.0
 0
SEQEND
 8
WIRE
 0
POLYLINE
 8
WIRE
 66
1
 10
0.0
 20
0.0
 30
0.0
 0
VERTEX
 8
WIRE
 10
 12.8000
 20
  8.3000
 30
0.0
 0
VERTEX
 8
WIRE
 10
 12.7000
 20
  8.3000
 30
0.0
 0
SEQEND
 8
WIRE
 0
POLYLINE
 8
WIRE
 66
1
 10
0.0
 20
0.0
 30
0.0
 0
VERTEX
 8
WIRE
 10
 13.1000
 20
  8.3000
 30
0.0
 0
VERTEX
 8
WIRE
 10
 13.0000
 20
  8.3000
 30
0.0
 0
SEQEND
 8
WIRE
 0
POLYLINE
 8
WIRE
 66
1
 10
0.0
 20
0.0
 30
0.0
 0
VERTEX
 8
WIRE
 10
 13.8000
 20
  8.3000
 30
0.0
 0
VERTEX
 8
WIRE
 10
 13.7000
 20
  8.3000
 30
0.0
 0
SEQEND
 8
WIRE
 0
POLYLINE
 8
WIRE
 66
1
 10
0.0
 20
0.0
 30
0.0
 0
VERTEX
 8
WIRE
 10
 14.1000
 20
  8.3000
 30
0.0
 0
VERTEX
 8
WIRE
 10
 14.0000
 20
  8.3000
 30
0.0
 0
SEQEND
 8
WIRE
 0
POLYLINE
 8
WIRE
 66
1
 10
0.0
 20
0.0
 30
0.0
 0
VERTEX
 8
WIRE
 10
  6.5000
 20
  6.5000
 30
0.0
 0
VERTEX
 8
WIRE
 10
  6.5000
 20
  6.6000
 30
0.0
 0
SEQEND
 8
WIRE
 0
POLYLINE
 8
WIRE
 66
1
 10
0.0
 20
0.0
 30
0.0
 0
VERTEX
 8
WIRE
 10
  6.6000
 20
  6.6000
 30
0.0
 0
VERTEX
 8
WIRE
 10
  6.6000
 20
  6.3000
 30
0.0
 0
SEQEND
 8
WIRE
 0
POLYLINE
 8
WIRE
 66
1
 10
0.0
 20
0.0
 30
0.0
 0
VERTEX
 8
WIRE
 10
  6.7000
 20
  6.6000
 30
0.0
 0
VERTEX
 8
WIRE
 10
  6.7000
 20
  6.5000
 30
0.0
 0
SEQEND
 8
WIRE
 0
POLYLINE
 8
WIRE
 66
1
 10
0.0
 20
0.0
 30
0.0
 0
VERTEX
 8
WIRE
 10
  7.5000
 20
  6.5000
 30
0.0
 0
VERTEX
 8
WIRE
 10
  7.5000
 20
  6.6000
 30
0.0
 0
SEQEND
 8
WIRE
 0
POLYLINE
 8
WIRE
 66
1
 10
0.0
 20
0.0
 30
0.0
 0
VERTEX
 8
WIRE
 10
  7.6000
 20
  6.6000
 30
0.0
 0
VERTEX
 8
WIRE
 10
  7.6000
 20
  6.3000
 30
0.0
 0
SEQEND
 8
WIRE
 0
POLYLINE
 8
WIRE
 66
1
 10
0.0
 20
0.0
 30
0.0
 0
VERTEX
 8
WIRE
 10
  7.7000
 20
  6.6000
 30
0.0
 0
VERTEX
 8
WIRE
 10
  7.7000
 20
  6.5000
 30
0.0
 0
SEQEND
 8
WIRE
 0
POLYLINE
 8
WIRE
 66
1
 10
0.0
 20
0.0
 30
0.0
 0
VERTEX
 8
WIRE
 10
  8.6000
 20
  6.5000
 30
0.0
 0
VERTEX
 8
WIRE
 10
  8.6000
 20
  6.6000
 30
0.0
 0
SEQEND
 8
WIRE
 0
POLYLINE
 8
WIRE
 66
1
 10
0.0
 20
0.0
 30
0.0
 0
VERTEX
 8
WIRE
 10
  8.7000
 20
  6.3000
 30
0.0
 0
VERTEX
 8
WIRE
 10
  8.7000
 20
  6.6000
 30
0.0
 0
SEQEND
 8
WIRE
 0
POLYLINE
 8
WIRE
 66
1
 10
0.0
 20
0.0
 30
0.0
 0
VERTEX
 8
WIRE
 10
  8.8000
 20
  6.5000
 30
0.0
 0
VERTEX
 8
WIRE
 10
  8.8000
 20
  6.6000
 30
0.0
 0
SEQEND
 8
WIRE
 0
POLYLINE
 8
WIRE
 66
1
 10
0.0
 20
0.0
 30
0.0
 0
VERTEX
 8
WIRE
 10
  9.6000
 20
  6.5000
 30
0.0
 0
VERTEX
 8
WIRE
 10
  9.6000
 20
  6.6000
 30
0.0
 0
SEQEND
 8
WIRE
 0
POLYLINE
 8
WIRE
 66
1
 10
0.0
 20
0.0
 30
0.0
 0
VERTEX
 8
WIRE
 10
  9.7000
 20
  6.3000
 30
0.0
 0
VERTEX
 8
WIRE
 10
  9.7000
 20
  6.6000
 30
0.0
 0
SEQEND
 8
WIRE
 0
POLYLINE
 8
WIRE
 66
1
 10
0.0
 20
0.0
 30
0.0
 0
VERTEX
 8
WIRE
 10
  9.8000
 20
  6.5000
 30
0.0
 0
VERTEX
 8
WIRE
 10
  9.8000
 20
  6.6000
 30
0.0
 0
SEQEND
 8
WIRE
 0
POLYLINE
 8
WIRE
 66
1
 10
0.0
 20
0.0
 30
0.0
 0
VERTEX
 8
WIRE
 10
 10.7000
 20
  6.5000
 30
0.0
 0
VERTEX
 8
WIRE
 10
 10.7000
 20
  6.6000
 30
0.0
 0
SEQEND
 8
WIRE
 0
POLYLINE
 8
WIRE
 66
1
 10
0.0
 20
0.0
 30
0.0
 0
VERTEX
 8
WIRE
 10
 10.8000
 20
  6.6000
 30
0.0
 0
VERTEX
 8
WIRE
 10
 10.8000
 20
  6.3000
 30
0.0
 0
SEQEND
 8
WIRE
 0
POLYLINE
 8
WIRE
 66
1
 10
0.0
 20
0.0
 30
0.0
 0
VERTEX
 8
WIRE
 10
 10.9000
 20
  6.6000
 30
0.0
 0
VERTEX
 8
WIRE
 10
 10.9000
 20
  6.5000
 30
0.0
 0
SEQEND
 8
WIRE
 0
POLYLINE
 8
WIRE
 66
1
 10
0.0
 20
0.0
 30
0.0
 0
VERTEX
 8
WIRE
 10
 11.7000
 20
  6.5000
 30
0.0
 0
VERTEX
 8
WIRE
 10
 11.7000
 20
  6.6000
 30
0.0
 0
SEQEND
 8
WIRE
 0
POLYLINE
 8
WIRE
 66
1
 10
0.0
 20
0.0
 30
0.0
 0
VERTEX
 8
WIRE
 10
 11.8000
 20
  6.6000
 30
0.0
 0
VERTEX
 8
WIRE
 10
 11.8000
 20
  6.3000
 30
0.0
 0
SEQEND
 8
WIRE
 0
POLYLINE
 8
WIRE
 66
1
 10
0.0
 20
0.0
 30
0.0
 0
VERTEX
 8
WIRE
 10
 11.9000
 20
  6.6000
 30
0.0
 0
VERTEX
 8
WIRE
 10
 11.9000
 20
  6.5000
 30
0.0
 0
SEQEND
 8
WIRE
 0
POLYLINE
 8
WIRE
 66
1
 10
0.0
 20
0.0
 30
0.0
 0
VERTEX
 8
WIRE
 10
  6.5000
 20
  6.5000
 30
0.0
 0
VERTEX
 8
WIRE
 10
  6.4000
 20
  6.5000
 30
0.0
 0
SEQEND
 8
WIRE
 0
POLYLINE
 8
WIRE
 66
1
 10
0.0
 20
0.0
 30
0.0
 0
VERTEX
 8
WIRE
 10
  6.7000
 20
  6.5000
 30
0.0
 0
VERTEX
 8
WIRE
 10
  6.8000
 20
  6.5000
 30
0.0
 0
SEQEND
 8
WIRE
 0
POLYLINE
 8
WIRE
 66
1
 10
0.0
 20
0.0
 30
0.0
 0
VERTEX
 8
WIRE
 10
  7.5000
 20
  6.5000
 30
0.0
 0
VERTEX
 8
WIRE
 10
  7.4000
 20
  6.5000
 30
0.0
 0
SEQEND
 8
WIRE
 0
POLYLINE
 8
WIRE
 66
1
 10
0.0
 20
0.0
 30
0.0
 0
VERTEX
 8
WIRE
 10
  7.7000
 20
  6.5000
 30
0.0
 0
VERTEX
 8
WIRE
 10
  7.8000
 20
  6.5000
 30
0.0
 0
SEQEND
 8
WIRE
 0
POLYLINE
 8
WIRE
 66
1
 10
0.0
 20
0.0
 30
0.0
 0
VERTEX
 8
WIRE
 10
  8.6000
 20
  6.5000
 30
0.0
 0
VERTEX
 8
WIRE
 10
  8.5000
 20
  6.5000
 30
0.0
 0
SEQEND
 8
WIRE
 0
POLYLINE
 8
WIRE
 66
1
 10
0.0
 20
0.0
 30
0.0
 0
VERTEX
 8
WIRE
 10
  8.9000
 20
  6.5000
 30
0.0
 0
VERTEX
 8
WIRE
 10
  8.8000
 20
  6.5000
 30
0.0
 0
SEQEND
 8
WIRE
 0
POLYLINE
 8
WIRE
 66
1
 10
0.0
 20
0.0
 30
0.0
 0
VERTEX
 8
WIRE
 10
  9.6000
 20
  6.5000
 30
0.0
 0
VERTEX
 8
WIRE
 10
  9.5000
 20
  6.5000
 30
0.0
 0
SEQEND
 8
WIRE
 0
POLYLINE
 8
WIRE
 66
1
 10
0.0
 20
0.0
 30
0.0
 0
VERTEX
 8
WIRE
 10
  9.9000
 20
  6.5000
 30
0.0
 0
VERTEX
 8
WIRE
 10
  9.8000
 20
  6.5000
 30
0.0
 0
SEQEND
 8
WIRE
 0
POLYLINE
 8
WIRE
 66
1
 10
0.0
 20
0.0
 30
0.0
 0
VERTEX
 8
WIRE
 10
 10.7000
 20
  6.5000
 30
0.0
 0
VERTEX
 8
WIRE
 10
 10.6000
 20
  6.5000
 30
0.0
 0
SEQEND
 8
WIRE
 0
POLYLINE
 8
WIRE
 66
1
 10
0.0
 20
0.0
 30
0.0
 0
VERTEX
 8
WIRE
 10
 10.9000
 20
  6.5000
 30
0.0
 0
VERTEX
 8
WIRE
 10
 11.0000
 20
  6.5000
 30
0.0
 0
SEQEND
 8
WIRE
 0
POLYLINE
 8
WIRE
 66
1
 10
0.0
 20
0.0
 30
0.0
 0
VERTEX
 8
WIRE
 10
 11.7000
 20
  6.5000
 30
0.0
 0
VERTEX
 8
WIRE
 10
 11.6000
 20
  6.5000
 30
0.0
 0
SEQEND
 8
WIRE
 0
POLYLINE
 8
WIRE
 66
1
 10
0.0
 20
0.0
 30
0.0
 0
VERTEX
 8
WIRE
 10
 11.9000
 20
  6.5000
 30
0.0
 0
VERTEX
 8
WIRE
 10
 12.0000
 20
  6.5000
 30
0.0
 0
SEQEND
 8
WIRE
 0
POLYLINE
 8
WIRE
 66
1
 10
0.0
 20
0.0
 30
0.0
 0
VERTEX
 8
WIRE
 10
  2.6000
 20
  4.3000
 30
0.0
 0
VERTEX
 8
WIRE
 10
  2.5000
 20
  4.3000
 30
0.0
 0
SEQEND
 8
WIRE
 0
POLYLINE
 8
WIRE
 66
1
 10
0.0
 20
0.0
 30
0.0
 0
VERTEX
 8
WIRE
 10
  2.6000
 20
  4.7000
 30
0.0
 0
VERTEX
 8
WIRE
 10
  2.5000
 20
  4.7000
 30
0.0
 0
SEQEND
 8
WIRE
 0
POLYLINE
 8
WIRE
 66
1
 10
0.0
 20
0.0
 30
0.0
 0
VERTEX
 8
WIRE
 10
  2.6000
 20
  4.8000
 30
0.0
 0
VERTEX
 8
WIRE
 10
  2.5000
 20
  4.8000
 30
0.0
 0
SEQEND
 8
WIRE
 0
POLYLINE
 8
WIRE
 66
1
 10
0.0
 20
0.0
 30
0.0
 0
VERTEX
 8
WIRE
 10
  1.8000
 20
  4.4000
 30
0.0
 0
VERTEX
 8
WIRE
 10
  2.6000
 20
  4.4000
 30
0.0
 0
SEQEND
 8
WIRE
 0
POLYLINE
 8
WIRE
 66
1
 10
0.0
 20
0.0
 30
0.0
 0
VERTEX
 8
WIRE
 10
  2.5000
 20
  4.2000
 30
0.0
 0
VERTEX
 8
WIRE
 10
  2.6000
 20
  4.2000
 30
0.0
 0
SEQEND
 8
WIRE
 0
POLYLINE
 8
WIRE
 66
1
 10
0.0
 20
0.0
 30
0.0
 0
VERTEX
 8
WIRE
 10
  2.5000
 20
  4.1000
 30
0.0
 0
VERTEX
 8
WIRE
 10
  2.6000
 20
  4.1000
 30
0.0
 0
SEQEND
 8
WIRE
 0
POLYLINE
 8
WIRE
 66
1
 10
0.0
 20
0.0
 30
0.0
 0
VERTEX
 8
WIRE
 10
  2.5000
 20
  4.0000
 30
0.0
 0
VERTEX
 8
WIRE
 10
  2.6000
 20
  4.0000
 30
0.0
 0
SEQEND
 8
WIRE
 0
POLYLINE
 8
WIRE
 66
1
 10
0.0
 20
0.0
 30
0.0
 0
VERTEX
 8
WIRE
 10
  3.9000
 20
  3.8000
 30
0.0
 0
VERTEX
 8
WIRE
 10
  4.6000
 20
  3.8000
 30
0.0
 0
SEQEND
 8
WIRE
 0
POLYLINE
 8
WIRE
 66
1
 10
0.0
 20
0.0
 30
0.0
 0
VERTEX
 8
WIRE
 10
  4.6000
 20
  3.8000
 30
0.0
 0
VERTEX
 8
WIRE
 10
  4.6000
 20
  5.9000
 30
0.0
 0
SEQEND
 8
WIRE
 0
POLYLINE
 8
WIRE
 66
1
 10
0.0
 20
0.0
 30
0.0
 0
VERTEX
 8
WIRE
 10
  4.6000
 20
  5.9000
 30
0.0
 0
VERTEX
 8
WIRE
 10
  1.9000
 20
  5.9000
 30
0.0
 0
SEQEND
 8
WIRE
 0
POLYLINE
 8
WIRE
 66
1
 10
0.0
 20
0.0
 30
0.0
 0
VERTEX
 8
WIRE
 10
  1.9000
 20
  5.9000
 30
0.0
 0
VERTEX
 8
WIRE
 10
  1.9000
 20
  6.4000
 30
0.0
 0
SEQEND
 8
WIRE
 0
POLYLINE
 8
WIRE
 66
1
 10
0.0
 20
0.0
 30
0.0
 0
VERTEX
 8
WIRE
 10
  3.9000
 20
  3.9000
 30
0.0
 0
VERTEX
 8
WIRE
 10
  4.0000
 20
  3.9000
 30
0.0
 0
SEQEND
 8
WIRE
 0
POLYLINE
 8
WIRE
 66
1
 10
0.0
 20
0.0
 30
0.0
 0
VERTEX
 8
WIRE
 10
  2.5000
 20
  3.8000
 30
0.0
 0
VERTEX
 8
WIRE
 10
  2.6000
 20
  3.8000
 30
0.0
 0
SEQEND
 8
WIRE
 0
POLYLINE
 8
WIRE
 66
1
 10
0.0
 20
0.0
 30
0.0
 0
VERTEX
 8
WIRE
 10
  2.5000
 20
  3.7000
 30
0.0
 0
VERTEX
 8
WIRE
 10
  2.6000
 20
  3.7000
 30
0.0
 0
SEQEND
 8
WIRE
 0
POLYLINE
 8
WIRE
 66
1
 10
0.0
 20
0.0
 30
0.0
 0
VERTEX
 8
WIRE
 10
  2.5000
 20
  3.6000
 30
0.0
 0
VERTEX
 8
WIRE
 10
  2.6000
 20
  3.6000
 30
0.0
 0
SEQEND
 8
WIRE
 0
POLYLINE
 8
WIRE
 66
1
 10
0.0
 20
0.0
 30
0.0
 0
VERTEX
 8
WIRE
 10
  2.5000
 20
  3.5000
 30
0.0
 0
VERTEX
 8
WIRE
 10
  2.6000
 20
  3.5000
 30
0.0
 0
SEQEND
 8
WIRE
 0
POLYLINE
 8
WIRE
 66
1
 10
0.0
 20
0.0
 30
0.0
 0
VERTEX
 8
WIRE
 10
  3.9000
 20
  3.5000
 30
0.0
 0
VERTEX
 8
WIRE
 10
  4.0000
 20
  3.5000
 30
0.0
 0
SEQEND
 8
WIRE
 0
POLYLINE
 8
WIRE
 66
1
 10
0.0
 20
0.0
 30
0.0
 0
VERTEX
 8
WIRE
 10
  4.0000
 20
  3.6000
 30
0.0
 0
VERTEX
 8
WIRE
 10
  3.9000
 20
  3.6000
 30
0.0
 0
SEQEND
 8
WIRE
 0
POLYLINE
 8
WIRE
 66
1
 10
0.0
 20
0.0
 30
0.0
 0
VERTEX
 8
WIRE
 10
  3.9000
 20
  3.7000
 30
0.0
 0
VERTEX
 8
WIRE
 10
  4.0000
 20
  3.7000
 30
0.0
 0
SEQEND
 8
WIRE
 0
POLYLINE
 8
WIRE
 66
1
 10
0.0
 20
0.0
 30
0.0
 0
VERTEX
 8
WIRE
 10
  4.0000
 20
  4.0000
 30
0.0
 0
VERTEX
 8
WIRE
 10
  3.9000
 20
  4.0000
 30
0.0
 0
SEQEND
 8
WIRE
 0
POLYLINE
 8
WIRE
 66
1
 10
0.0
 20
0.0
 30
0.0
 0
VERTEX
 8
WIRE
 10
  3.9000
 20
  4.1000
 30
0.0
 0
VERTEX
 8
WIRE
 10
  4.0000
 20
  4.1000
 30
0.0
 0
SEQEND
 8
WIRE
 0
POLYLINE
 8
WIRE
 66
1
 10
0.0
 20
0.0
 30
0.0
 0
VERTEX
 8
WIRE
 10
  4.0000
 20
  4.2000
 30
0.0
 0
VERTEX
 8
WIRE
 10
  3.9000
 20
  4.2000
 30
0.0
 0
SEQEND
 8
WIRE
 0
POLYLINE
 8
WIRE
 66
1
 10
0.0
 20
0.0
 30
0.0
 0
VERTEX
 8
WIRE
 10
  3.9000
 20
  4.3000
 30
0.0
 0
VERTEX
 8
WIRE
 10
  4.0000
 20
  4.3000
 30
0.0
 0
SEQEND
 8
WIRE
 0
POLYLINE
 8
WIRE
 66
1
 10
0.0
 20
0.0
 30
0.0
 0
VERTEX
 8
WIRE
 10
  2.5000
 20
  4.5000
 30
0.0
 0
VERTEX
 8
WIRE
 10
  2.6000
 20
  4.5000
 30
0.0
 0
SEQEND
 8
WIRE
 0
POLYLINE
 8
WIRE
 66
1
 10
0.0
 20
0.0
 30
0.0
 0
VERTEX
 8
WIRE
 10
  3.9000
 20
  4.4000
 30
0.0
 0
VERTEX
 8
WIRE
 10
  4.0000
 20
  4.4000
 30
0.0
 0
SEQEND
 8
WIRE
 0
TEXT
 8
PARTTEXT
 10
  2.2400
 20
  6.2772
 30
0.0
 40
  0.0628
 1
0
 0
POLYLINE
 8
PARTS
 66
1
 10
0.0
 20
0.0
 30
0.0
 0
VERTEX
 8
PARTS
 10
  2.4000
 20
  6.4000
 30
0.0
 0
VERTEX
 8
PARTS
 10
  2.4000
 20
  6.2000
 30
0.0
 0
SEQEND
 8
PARTS
 0
POLYLINE
 8
PARTS
 66
1
 10
0.0
 20
0.0
 30
0.0
 0
VERTEX
 8
PARTS
 10
  2.3700
 20
  6.3700
 30
0.0
 0
VERTEX
 8
PARTS
 10
  2.3700
 20
  6.2300
 30
0.0
 0
SEQEND
 8
PARTS
 0
POLYLINE
 8
PARTS
 66
1
 10
0.0
 20
0.0
 30
0.0
 0
VERTEX
 8
PARTS
 10
  2.3400
 20
  6.2600
 30
0.0
 0
VERTEX
 8
PARTS
 10
  2.3400
 20
  6.3400
 30
0.0
 0
SEQEND
 8
PARTS
 0
POLYLINE
 8
PARTS
 66
1
 10
0.0
 20
0.0
 30
0.0
 0
VERTEX
 8
PARTS
 10
  2.3100
 20
  6.3100
 30
0.0
 0
VERTEX
 8
PARTS
 10
  2.3100
 20
  6.2900
 30
0.0
 0
SEQEND
 8
PARTS
 0
TEXT
 8
PARTTEXT
 10
  2.4600
 20
  7.2572
 30
0.0
 40
  0.0628
 1
0
 0
POLYLINE
 8
PARTS
 66
1
 10
0.0
 20
0.0
 30
0.0
 0
VERTEX
 8
PARTS
 10
  2.3000
 20
  7.4000
 30
0.0
 0
VERTEX
 8
PARTS
 10
  2.5000
 20
  7.4000
 30
0.0
 0
SEQEND
 8
PARTS
 0
POLYLINE
 8
PARTS
 66
1
 10
0.0
 20
0.0
 30
0.0
 0
VERTEX
 8
PARTS
 10
  2.3300
 20
  7.3700
 30
0.0
 0
VERTEX
 8
PARTS
 10
  2.4700
 20
  7.3700
 30
0.0
 0
SEQEND
 8
PARTS
 0
POLYLINE
 8
PARTS
 66
1
 10
0.0
 20
0.0
 30
0.0
 0
VERTEX
 8
PARTS
 10
  2.4400
 20
  7.3400
 30
0.0
 0
VERTEX
 8
PARTS
 10
  2.3600
 20
  7.3400
 30
0.0
 0
SEQEND
 8
PARTS
 0
POLYLINE
 8
PARTS
 66
1
 10
0.0
 20
0.0
 30
0.0
 0
VERTEX
 8
PARTS
 10
  2.3900
 20
  7.3100
 30
0.0
 0
VERTEX
 8
PARTS
 10
  2.4100
 20
  7.3100
 30
0.0
 0
SEQEND
 8
PARTS
 0
POLYLINE
 8
PARTS
 66
1
 10
0.0
 20
0.0
 30
0.0
 0
VERTEX
 8
PARTS
 10
  1.4000
 20
  8.2000
 30
0.0
 0
VERTEX
 8
PARTS
 10
  1.6000
 20
  8.2000
 30
0.0
 0
SEQEND
 8
PARTS
 0
POLYLINE
 8
PARTS
 66
1
 10
0.0
 20
0.0
 30
0.0
 0
VERTEX
 8
PARTS
 10
  1.6000
 20
  8.2000
 30
0.0
 0
VERTEX
 8
PARTS
 10
  1.5000
 20
  8.1000
 30
0.0
 0
SEQEND
 8
PARTS
 0
POLYLINE
 8
PARTS
 66
1
 10
0.0
 20
0.0
 30
0.0
 0
VERTEX
 8
PARTS
 10
  1.5000
 20
  8.1000
 30
0.0
 0
VERTEX
 8
PARTS
 10
  1.4000
 20
  8.2000
 30
0.0
 0
SEQEND
 8
PARTS
 0
POLYLINE
 8
PARTS
 66
1
 10
0.0
 20
0.0
 30
0.0
 0
VERTEX
 8
PARTS
 10
  1.2000
 20
  6.8000
 30
0.0
 0
VERTEX
 8
PARTS
 10
  1.4000
 20
  6.8000
 30
0.0
 0
SEQEND
 8
PARTS
 0
POLYLINE
 8
PARTS
 66
1
 10
0.0
 20
0.0
 30
0.0
 0
VERTEX
 8
PARTS
 10
  1.4000
 20
  6.8000
 30
0.0
 0
VERTEX
 8
PARTS
 10
  1.3000
 20
  6.7000
 30
0.0
 0
SEQEND
 8
PARTS
 0
POLYLINE
 8
PARTS
 66
1
 10
0.0
 20
0.0
 30
0.0
 0
VERTEX
 8
PARTS
 10
  1.3000
 20
  6.7000
 30
0.0
 0
VERTEX
 8
PARTS
 10
  1.2000
 20
  6.8000
 30
0.0
 0
SEQEND
 8
PARTS
 0
TEXT
 8
PARTTEXT
 10
  1.6000
 20
  7.2186
 30
0.0
 40
  0.0514
 1
SIG_OUT+
 0
POLYLINE
 8
PARTS
 66
1
 10
0.0
 20
0.0
 30
0.0
 0
VERTEX
 8
PARTS
 10
  1.7000
 20
  7.1400
 30
0.0
 0
VERTEX
 8
PARTS
 10
  1.7000
 20
  7.1000
 30
0.0
 0
SEQEND
 8
PARTS
 0
POLYLINE
 8
PARTS
 66
1
 70
1
 10
0.0
 20
0.0
 30
0.0
 0
VERTEX
 8
PARTS
 10
  1.7300
 20
  7.1700
 30
0.0
 42
  0.0985
 0
VERTEX
 8
PARTS
 10
  1.7277
 20
  7.1815
 30
0.0
 42
  0.0985
 0
VERTEX
 8
PARTS
 10
  1.7212
 20
  7.1912
 30
0.0
 42
  0.0985
 0
VERTEX
 8
PARTS
 10
  1.7115
 20
  7.1977
 30
0.0
 42
  0.0985
 0
VERTEX
 8
PARTS
 10
  1.7000
 20
  7.2000
 30
0.0
 42
  0.0985
 0
VERTEX
 8
PARTS
 10
  1.6885
 20
  7.1977
 30
0.0
 42
  0.0985
 0
VERTEX
 8
PARTS
 10
  1.6788
 20
  7.1912
 30
0.0
 42
  0.0985
 0
VERTEX
 8
PARTS
 10
  1.6723
 20
  7.1815
 30
0.0
 42
  0.0985
 0
VERTEX
 8
PARTS
 10
  1.6700
 20
  7.1700
 30
0.0
 42
  0.0985
 0
VERTEX
 8
PARTS
 10
  1.6723
 20
  7.1585
 30
0.0
 42
  0.0985
 0
VERTEX
 8
PARTS
 10
  1.6788
 20
  7.1488
 30
0.0
 42
  0.0985
 0
VERTEX
 8
PARTS
 10
  1.6885
 20
  7.1423
 30
0.0
 42
  0.0985
 0
VERTEX
 8
PARTS
 10
  1.7000
 20
  7.1400
 30
0.0
 42
  0.0985
 0
VERTEX
 8
PARTS
 10
  1.7115
 20
  7.1423
 30
0.0
 42
  0.0985
 0
VERTEX
 8
PARTS
 10
  1.7212
 20
  7.1488
 30
0.0
 42
  0.0985
 0
VERTEX
 8
PARTS
 10
  1.7277
 20
  7.1585
 30
0.0
 42
  0.0985
 0
SEQEND
 8
PARTS
 0
POLYLINE
 8
PARTS
 66
1
 10
0.0
 20
0.0
 30
0.0
 0
VERTEX
 8
PARTS
 10
  1.5000
 20
  9.0000
 30
0.0
 0
VERTEX
 8
PARTS
 10
  1.3000
 20
  9.0000
 30
0.0
 0
SEQEND
 8
PARTS
 0
POLYLINE
 8
PARTS
 66
1
 10
0.0
 20
0.0
 30
0.0
 0
VERTEX
 8
PARTS
 10
  1.3000
 20
  9.0000
 30
0.0
 0
VERTEX
 8
PARTS
 10
  1.4000
 20
  9.1000
 30
0.0
 0
SEQEND
 8
PARTS
 0
POLYLINE
 8
PARTS
 66
1
 10
0.0
 20
0.0
 30
0.0
 0
VERTEX
 8
PARTS
 10
  1.4000
 20
  9.1000
 30
0.0
 0
VERTEX
 8
PARTS
 10
  1.5000
 20
  9.0000
 30
0.0
 0
SEQEND
 8
PARTS
 0
TEXT
 8
PARTTEXT
 10
  1.6400
 20
  4.3772
 30
0.0
 40
  0.0628
 1
0
 0
POLYLINE
 8
PARTS
 66
1
 10
0.0
 20
0.0
 30
0.0
 0
VERTEX
 8
PARTS
 10
  1.8000
 20
  4.5000
 30
0.0
 0
VERTEX
 8
PARTS
 10
  1.8000
 20
  4.3000
 30
0.0
 0
SEQEND
 8
PARTS
 0
POLYLINE
 8
PARTS
 66
1
 10
0.0
 20
0.0
 30
0.0
 0
VERTEX
 8
PARTS
 10
  1.7700
 20
  4.4700
 30
0.0
 0
VERTEX
 8
PARTS
 10
  1.7700
 20
  4.3300
 30
0.0
 0
SEQEND
 8
PARTS
 0
POLYLINE
 8
PARTS
 66
1
 10
0.0
 20
0.0
 30
0.0
 0
VERTEX
 8
PARTS
 10
  1.7400
 20
  4.3600
 30
0.0
 0
VERTEX
 8
PARTS
 10
  1.7400
 20
  4.4400
 30
0.0
 0
SEQEND
 8
PARTS
 0
POLYLINE
 8
PARTS
 66
1
 10
0.0
 20
0.0
 30
0.0
 0
VERTEX
 8
PARTS
 10
  1.7100
 20
  4.4100
 30
0.0
 0
VERTEX
 8
PARTS
 10
  1.7100
 20
  4.3900
 30
0.0
 0
SEQEND
 8
PARTS
 0
POLYLINE
 8
PARTS
 66
1
 10
0.0
 20
0.0
 30
0.0
 0
VERTEX
 8
PARTS
 10
  6.4000
 20
  8.4000
 30
0.0
 0
VERTEX
 8
PARTS
 10
  6.4000
 20
  8.2000
 30
0.0
 0
SEQEND
 8
PARTS
 0
POLYLINE
 8
PARTS
 66
1
 10
0.0
 20
0.0
 30
0.0
 0
VERTEX
 8
PARTS
 10
  6.4000
 20
  8.2000
 30
0.0
 0
VERTEX
 8
PARTS
 10
  6.3000
 20
  8.3000
 30
0.0
 0
SEQEND
 8
PARTS
 0
POLYLINE
 8
PARTS
 66
1
 10
0.0
 20
0.0
 30
0.0
 0
VERTEX
 8
PARTS
 10
  6.3000
 20
  8.3000
 30
0.0
 0
VERTEX
 8
PARTS
 10
  6.4000
 20
  8.4000
 30
0.0
 0
SEQEND
 8
PARTS
 0
POLYLINE
 8
PARTS
 66
1
 10
0.0
 20
0.0
 30
0.0
 0
VERTEX
 8
PARTS
 10
  7.4000
 20
  8.4000
 30
0.0
 0
VERTEX
 8
PARTS
 10
  7.4000
 20
  8.2000
 30
0.0
 0
SEQEND
 8
PARTS
 0
POLYLINE
 8
PARTS
 66
1
 10
0.0
 20
0.0
 30
0.0
 0
VERTEX
 8
PARTS
 10
  7.4000
 20
  8.2000
 30
0.0
 0
VERTEX
 8
PARTS
 10
  7.3000
 20
  8.3000
 30
0.0
 0
SEQEND
 8
PARTS
 0
POLYLINE
 8
PARTS
 66
1
 10
0.0
 20
0.0
 30
0.0
 0
VERTEX
 8
PARTS
 10
  7.3000
 20
  8.3000
 30
0.0
 0
VERTEX
 8
PARTS
 10
  7.4000
 20
  8.4000
 30
0.0
 0
SEQEND
 8
PARTS
 0
POLYLINE
 8
PARTS
 66
1
 10
0.0
 20
0.0
 30
0.0
 0
VERTEX
 8
PARTS
 10
  8.5000
 20
  8.4000
 30
0.0
 0
VERTEX
 8
PARTS
 10
  8.5000
 20
  8.2000
 30
0.0
 0
SEQEND
 8
PARTS
 0
POLYLINE
 8
PARTS
 66
1
 10
0.0
 20
0.0
 30
0.0
 0
VERTEX
 8
PARTS
 10
  8.5000
 20
  8.2000
 30
0.0
 0
VERTEX
 8
PARTS
 10
  8.4000
 20
  8.3000
 30
0.0
 0
SEQEND
 8
PARTS
 0
POLYLINE
 8
PARTS
 66
1
 10
0.0
 20
0.0
 30
0.0
 0
VERTEX
 8
PARTS
 10
  8.4000
 20
  8.3000
 30
0.0
 0
VERTEX
 8
PARTS
 10
  8.5000
 20
  8.4000
 30
0.0
 0
SEQEND
 8
PARTS
 0
POLYLINE
 8
PARTS
 66
1
 10
0.0
 20
0.0
 30
0.0
 0
VERTEX
 8
PARTS
 10
  9.5000
 20
  8.4000
 30
0.0
 0
VERTEX
 8
PARTS
 10
  9.5000
 20
  8.2000
 30
0.0
 0
SEQEND
 8
PARTS
 0
POLYLINE
 8
PARTS
 66
1
 10
0.0
 20
0.0
 30
0.0
 0
VERTEX
 8
PARTS
 10
  9.5000
 20
  8.2000
 30
0.0
 0
VERTEX
 8
PARTS
 10
  9.4000
 20
  8.3000
 30
0.0
 0
SEQEND
 8
PARTS
 0
POLYLINE
 8
PARTS
 66
1
 10
0.0
 20
0.0
 30
0.0
 0
VERTEX
 8
PARTS
 10
  9.4000
 20
  8.3000
 30
0.0
 0
VERTEX
 8
PARTS
 10
  9.5000
 20
  8.4000
 30
0.0
 0
SEQEND
 8
PARTS
 0
POLYLINE
 8
PARTS
 66
1
 10
0.0
 20
0.0
 30
0.0
 0
VERTEX
 8
PARTS
 10
 10.6000
 20
  8.4000
 30
0.0
 0
VERTEX
 8
PARTS
 10
 10.6000
 20
  8.2000
 30
0.0
 0
SEQEND
 8
PARTS
 0
POLYLINE
 8
PARTS
 66
1
 10
0.0
 20
0.0
 30
0.0
 0
VERTEX
 8
PARTS
 10
 10.6000
 20
  8.2000
 30
0.0
 0
VERTEX
 8
PARTS
 10
 10.5000
 20
  8.3000
 30
0.0
 0
SEQEND
 8
PARTS
 0
POLYLINE
 8
PARTS
 66
1
 10
0.0
 20
0.0
 30
0.0
 0
VERTEX
 8
PARTS
 10
 10.5000
 20
  8.3000
 30
0.0
 0
VERTEX
 8
PARTS
 10
 10.6000
 20
  8.4000
 30
0.0
 0
SEQEND
 8
PARTS
 0
POLYLINE
 8
PARTS
 66
1
 10
0.0
 20
0.0
 30
0.0
 0
VERTEX
 8
PARTS
 10
 11.6000
 20
  8.4000
 30
0.0
 0
VERTEX
 8
PARTS
 10
 11.6000
 20
  8.2000
 30
0.0
 0
SEQEND
 8
PARTS
 0
POLYLINE
 8
PARTS
 66
1
 10
0.0
 20
0.0
 30
0.0
 0
VERTEX
 8
PARTS
 10
 11.6000
 20
  8.2000
 30
0.0
 0
VERTEX
 8
PARTS
 10
 11.5000
 20
  8.3000
 30
0.0
 0
SEQEND
 8
PARTS
 0
POLYLINE
 8
PARTS
 66
1
 10
0.0
 20
0.0
 30
0.0
 0
VERTEX
 8
PARTS
 10
 11.5000
 20
  8.3000
 30
0.0
 0
VERTEX
 8
PARTS
 10
 11.6000
 20
  8.4000
 30
0.0
 0
SEQEND
 8
PARTS
 0
POLYLINE
 8
PARTS
 66
1
 10
0.0
 20
0.0
 30
0.0
 0
VERTEX
 8
PARTS
 10
 12.7000
 20
  8.4000
 30
0.0
 0
VERTEX
 8
PARTS
 10
 12.7000
 20
  8.2000
 30
0.0
 0
SEQEND
 8
PARTS
 0
POLYLINE
 8
PARTS
 66
1
 10
0.0
 20
0.0
 30
0.0
 0
VERTEX
 8
PARTS
 10
 12.7000
 20
  8.2000
 30
0.0
 0
VERTEX
 8
PARTS
 10
 12.6000
 20
  8.3000
 30
0.0
 0
SEQEND
 8
PARTS
 0
POLYLINE
 8
PARTS
 66
1
 10
0.0
 20
0.0
 30
0.0
 0
VERTEX
 8
PARTS
 10
 12.6000
 20
  8.3000
 30
0.0
 0
VERTEX
 8
PARTS
 10
 12.7000
 20
  8.4000
 30
0.0
 0
SEQEND
 8
PARTS
 0
POLYLINE
 8
PARTS
 66
1
 10
0.0
 20
0.0
 30
0.0
 0
VERTEX
 8
PARTS
 10
 13.7000
 20
  8.4000
 30
0.0
 0
VERTEX
 8
PARTS
 10
 13.7000
 20
  8.2000
 30
0.0
 0
SEQEND
 8
PARTS
 0
POLYLINE
 8
PARTS
 66
1
 10
0.0
 20
0.0
 30
0.0
 0
VERTEX
 8
PARTS
 10
 13.7000
 20
  8.2000
 30
0.0
 0
VERTEX
 8
PARTS
 10
 13.6000
 20
  8.3000
 30
0.0
 0
SEQEND
 8
PARTS
 0
POLYLINE
 8
PARTS
 66
1
 10
0.0
 20
0.0
 30
0.0
 0
VERTEX
 8
PARTS
 10
 13.6000
 20
  8.3000
 30
0.0
 0
VERTEX
 8
PARTS
 10
 13.7000
 20
  8.4000
 30
0.0
 0
SEQEND
 8
PARTS
 0
POLYLINE
 8
PARTS
 66
1
 10
0.0
 20
0.0
 30
0.0
 0
VERTEX
 8
PARTS
 10
  6.4000
 20
  6.6000
 30
0.0
 0
VERTEX
 8
PARTS
 10
  6.4000
 20
  6.4000
 30
0.0
 0
SEQEND
 8
PARTS
 0
POLYLINE
 8
PARTS
 66
1
 10
0.0
 20
0.0
 30
0.0
 0
VERTEX
 8
PARTS
 10
  6.4000
 20
  6.4000
 30
0.0
 0
VERTEX
 8
PARTS
 10
  6.3000
 20
  6.5000
 30
0.0
 0
SEQEND
 8
PARTS
 0
POLYLINE
 8
PARTS
 66
1
 10
0.0
 20
0.0
 30
0.0
 0
VERTEX
 8
PARTS
 10
  6.3000
 20
  6.5000
 30
0.0
 0
VERTEX
 8
PARTS
 10
  6.4000
 20
  6.6000
 30
0.0
 0
SEQEND
 8
PARTS
 0
POLYLINE
 8
PARTS
 66
1
 10
0.0
 20
0.0
 30
0.0
 0
VERTEX
 8
PARTS
 10
  7.4000
 20
  6.6000
 30
0.0
 0
VERTEX
 8
PARTS
 10
  7.4000
 20
  6.4000
 30
0.0
 0
SEQEND
 8
PARTS
 0
POLYLINE
 8
PARTS
 66
1
 10
0.0
 20
0.0
 30
0.0
 0
VERTEX
 8
PARTS
 10
  7.4000
 20
  6.4000
 30
0.0
 0
VERTEX
 8
PARTS
 10
  7.3000
 20
  6.5000
 30
0.0
 0
SEQEND
 8
PARTS
 0
POLYLINE
 8
PARTS
 66
1
 10
0.0
 20
0.0
 30
0.0
 0
VERTEX
 8
PARTS
 10
  7.3000
 20
  6.5000
 30
0.0
 0
VERTEX
 8
PARTS
 10
  7.4000
 20
  6.6000
 30
0.0
 0
SEQEND
 8
PARTS
 0
POLYLINE
 8
PARTS
 66
1
 10
0.0
 20
0.0
 30
0.0
 0
VERTEX
 8
PARTS
 10
  8.5000
 20
  6.6000
 30
0.0
 0
VERTEX
 8
PARTS
 10
  8.5000
 20
  6.4000
 30
0.0
 0
SEQEND
 8
PARTS
 0
POLYLINE
 8
PARTS
 66
1
 10
0.0
 20
0.0
 30
0.0
 0
VERTEX
 8
PARTS
 10
  8.5000
 20
  6.4000
 30
0.0
 0
VERTEX
 8
PARTS
 10
  8.4000
 20
  6.5000
 30
0.0
 0
SEQEND
 8
PARTS
 0
POLYLINE
 8
PARTS
 66
1
 10
0.0
 20
0.0
 30
0.0
 0
VERTEX
 8
PARTS
 10
  8.4000
 20
  6.5000
 30
0.0
 0
VERTEX
 8
PARTS
 10
  8.5000
 20
  6.6000
 30
0.0
 0
SEQEND
 8
PARTS
 0
POLYLINE
 8
PARTS
 66
1
 10
0.0
 20
0.0
 30
0.0
 0
VERTEX
 8
PARTS
 10
  9.5000
 20
  6.6000
 30
0.0
 0
VERTEX
 8
PARTS
 10
  9.5000
 20
  6.4000
 30
0.0
 0
SEQEND
 8
PARTS
 0
POLYLINE
 8
PARTS
 66
1
 10
0.0
 20
0.0
 30
0.0
 0
VERTEX
 8
PARTS
 10
  9.5000
 20
  6.4000
 30
0.0
 0
VERTEX
 8
PARTS
 10
  9.4000
 20
  6.5000
 30
0.0
 0
SEQEND
 8
PARTS
 0
POLYLINE
 8
PARTS
 66
1
 10
0.0
 20
0.0
 30
0.0
 0
VERTEX
 8
PARTS
 10
  9.4000
 20
  6.5000
 30
0.0
 0
VERTEX
 8
PARTS
 10
  9.5000
 20
  6.6000
 30
0.0
 0
SEQEND
 8
PARTS
 0
POLYLINE
 8
PARTS
 66
1
 10
0.0
 20
0.0
 30
0.0
 0
VERTEX
 8
PARTS
 10
 10.6000
 20
  6.6000
 30
0.0
 0
VERTEX
 8
PARTS
 10
 10.6000
 20
  6.4000
 30
0.0
 0
SEQEND
 8
PARTS
 0
POLYLINE
 8
PARTS
 66
1
 10
0.0
 20
0.0
 30
0.0
 0
VERTEX
 8
PARTS
 10
 10.6000
 20
  6.4000
 30
0.0
 0
VERTEX
 8
PARTS
 10
 10.5000
 20
  6.5000
 30
0.0
 0
SEQEND
 8
PARTS
 0
POLYLINE
 8
PARTS
 66
1
 10
0.0
 20
0.0
 30
0.0
 0
VERTEX
 8
PARTS
 10
 10.5000
 20
  6.5000
 30
0.0
 0
VERTEX
 8
PARTS
 10
 10.6000
 20
  6.6000
 30
0.0
 0
SEQEND
 8
PARTS
 0
POLYLINE
 8
PARTS
 66
1
 10
0.0
 20
0.0
 30
0.0
 0
VERTEX
 8
PARTS
 10
 11.6000
 20
  6.6000
 30
0.0
 0
VERTEX
 8
PARTS
 10
 11.6000
 20
  6.4000
 30
0.0
 0
SEQEND
 8
PARTS
 0
POLYLINE
 8
PARTS
 66
1
 10
0.0
 20
0.0
 30
0.0
 0
VERTEX
 8
PARTS
 10
 11.6000
 20
  6.4000
 30
0.0
 0
VERTEX
 8
PARTS
 10
 11.5000
 20
  6.5000
 30
0.0
 0
SEQEND
 8
PARTS
 0
POLYLINE
 8
PARTS
 66
1
 10
0.0
 20
0.0
 30
0.0
 0
VERTEX
 8
PARTS
 10
 11.5000
 20
  6.5000
 30
0.0
 0
VERTEX
 8
PARTS
 10
 11.6000
 20
  6.6000
 30
0.0
 0
SEQEND
 8
PARTS
 0
TEXT
 8
PARTTEXT
 10
  3.9000
 20
  6.2786
 30
0.0
 40
  0.0514
 1
VCC
 0
POLYLINE
 8
PARTS
 66
1
 10
0.0
 20
0.0
 30
0.0
 0
VERTEX
 8
PARTS
 10
  3.9000
 20
  6.3000
 30
0.0
 0
VERTEX
 8
PARTS
 10
  3.8500
 20
  6.2500
 30
0.0
 0
SEQEND
 8
PARTS
 0
POLYLINE
 8
PARTS
 66
1
 10
0.0
 20
0.0
 30
0.0
 0
VERTEX
 8
PARTS
 10
  3.9000
 20
  6.3000
 30
0.0
 0
VERTEX
 8
PARTS
 10
  3.8500
 20
  6.3500
 30
0.0
 0
SEQEND
 8
PARTS
 0
POLYLINE
 8
PARTS
 66
1
 10
0.0
 20
0.0
 30
0.0
 0
VERTEX
 8
PARTS
 10
  3.8500
 20
  6.3000
 30
0.0
 0
VERTEX
 8
PARTS
 10
  3.8000
 20
  6.2500
 30
0.0
 0
SEQEND
 8
PARTS
 0
POLYLINE
 8
PARTS
 66
1
 10
0.0
 20
0.0
 30
0.0
 0
VERTEX
 8
PARTS
 10
  3.8500
 20
  6.3000
 30
0.0
 0
VERTEX
 8
PARTS
 10
  3.8000
 20
  6.3500
 30
0.0
 0
SEQEND
 8
PARTS
 0
TEXT
 8
PARTTEXT
 10
  4.0000
 20
  6.3786
 30
0.0
 40
  0.0514
 1
GPIO1_16
 0
POLYLINE
 8
PARTS
 66
1
 10
0.0
 20
0.0
 30
0.0
 0
VERTEX
 8
PARTS
 10
  4.0000
 20
  6.4000
 30
0.0
 0
VERTEX
 8
PARTS
 10
  3.9500
 20
  6.3500
 30
0.0
 0
SEQEND
 8
PARTS
 0
POLYLINE
 8
PARTS
 66
1
 10
0.0
 20
0.0
 30
0.0
 0
VERTEX
 8
PARTS
 10
  4.0000
 20
  6.4000
 30
0.0
 0
VERTEX
 8
PARTS
 10
  3.9500
 20
  6.4500
 30
0.0
 0
SEQEND
 8
PARTS
 0
POLYLINE
 8
PARTS
 66
1
 10
0.0
 20
0.0
 30
0.0
 0
VERTEX
 8
PARTS
 10
  3.9500
 20
  6.4000
 30
0.0
 0
VERTEX
 8
PARTS
 10
  3.9000
 20
  6.3500
 30
0.0
 0
SEQEND
 8
PARTS
 0
POLYLINE
 8
PARTS
 66
1
 10
0.0
 20
0.0
 30
0.0
 0
VERTEX
 8
PARTS
 10
  3.9500
 20
  6.4000
 30
0.0
 0
VERTEX
 8
PARTS
 10
  3.9000
 20
  6.4500
 30
0.0
 0
SEQEND
 8
PARTS
 0
TEXT
 8
PARTTEXT
 10
  2.2300
 20
  6.1586
 30
0.0
 40
  0.0514
 1
SIG_IN+
 0
POLYLINE
 8
PARTS
 66
1
 10
0.0
 20
0.0
 30
0.0
 0
VERTEX
 8
PARTS
 10
  2.6000
 20
  6.2000
 30
0.0
 0
VERTEX
 8
PARTS
 10
  2.6500
 20
  6.2500
 30
0.0
 0
SEQEND
 8
PARTS
 0
POLYLINE
 8
PARTS
 66
1
 10
0.0
 20
0.0
 30
0.0
 0
VERTEX
 8
PARTS
 10
  2.6000
 20
  6.2000
 30
0.0
 0
VERTEX
 8
PARTS
 10
  2.6500
 20
  6.1500
 30
0.0
 0
SEQEND
 8
PARTS
 0
POLYLINE
 8
PARTS
 66
1
 10
0.0
 20
0.0
 30
0.0
 0
VERTEX
 8
PARTS
 10
  2.6500
 20
  6.2000
 30
0.0
 0
VERTEX
 8
PARTS
 10
  2.7000
 20
  6.2500
 30
0.0
 0
SEQEND
 8
PARTS
 0
POLYLINE
 8
PARTS
 66
1
 10
0.0
 20
0.0
 30
0.0
 0
VERTEX
 8
PARTS
 10
  2.6500
 20
  6.2000
 30
0.0
 0
VERTEX
 8
PARTS
 10
  2.7000
 20
  6.1500
 30
0.0
 0
SEQEND
 8
PARTS
 0
TEXT
 8
PARTTEXT
 10
  2.3200
 20
  9.2386
 30
0.0
 40
  0.0514
 1
VCC
 0
POLYLINE
 8
PARTS
 66
1
 10
0.0
 20
0.0
 30
0.0
 0
VERTEX
 8
PARTS
 10
  2.4000
 20
  9.2000
 30
0.0
 0
VERTEX
 8
PARTS
 10
  2.4500
 20
  9.1500
 30
0.0
 0
SEQEND
 8
PARTS
 0
POLYLINE
 8
PARTS
 66
1
 10
0.0
 20
0.0
 30
0.0
 0
VERTEX
 8
PARTS
 10
  2.4000
 20
  9.2000
 30
0.0
 0
VERTEX
 8
PARTS
 10
  2.3500
 20
  9.1500
 30
0.0
 0
SEQEND
 8
PARTS
 0
POLYLINE
 8
PARTS
 66
1
 10
0.0
 20
0.0
 30
0.0
 0
VERTEX
 8
PARTS
 10
  2.4000
 20
  9.1500
 30
0.0
 0
VERTEX
 8
PARTS
 10
  2.4500
 20
  9.1000
 30
0.0
 0
SEQEND
 8
PARTS
 0
POLYLINE
 8
PARTS
 66
1
 10
0.0
 20
0.0
 30
0.0
 0
VERTEX
 8
PARTS
 10
  2.4000
 20
  9.1500
 30
0.0
 0
VERTEX
 8
PARTS
 10
  2.3500
 20
  9.1000
 30
0.0
 0
SEQEND
 8
PARTS
 0
TEXT
 8
PARTTEXT
 10
  1.9300
 20
  4.7586
 30
0.0
 40
  0.0514
 1
GPIO1_17
 0
POLYLINE
 8
PARTS
 66
1
 10
0.0
 20
0.0
 30
0.0
 0
VERTEX
 8
PARTS
 10
  2.4000
 20
  4.8000
 30
0.0
 0
VERTEX
 8
PARTS
 10
  2.4500
 20
  4.8500
 30
0.0
 0
SEQEND
 8
PARTS
 0
POLYLINE
 8
PARTS
 66
1
 10
0.0
 20
0.0
 30
0.0
 0
VERTEX
 8
PARTS
 10
  2.4000
 20
  4.8000
 30
0.0
 0
VERTEX
 8
PARTS
 10
  2.4500
 20
  4.7500
 30
0.0
 0
SEQEND
 8
PARTS
 0
POLYLINE
 8
PARTS
 66
1
 10
0.0
 20
0.0
 30
0.0
 0
VERTEX
 8
PARTS
 10
  2.4500
 20
  4.8000
 30
0.0
 0
VERTEX
 8
PARTS
 10
  2.5000
 20
  4.8500
 30
0.0
 0
SEQEND
 8
PARTS
 0
POLYLINE
 8
PARTS
 66
1
 10
0.0
 20
0.0
 30
0.0
 0
VERTEX
 8
PARTS
 10
  2.4500
 20
  4.8000
 30
0.0
 0
VERTEX
 8
PARTS
 10
  2.5000
 20
  4.7500
 30
0.0
 0
SEQEND
 8
PARTS
 0
TEXT
 8
PARTTEXT
 10
  1.9300
 20
  4.6586
 30
0.0
 40
  0.0514
 1
GPIO3_21
 0
POLYLINE
 8
PARTS
 66
1
 10
0.0
 20
0.0
 30
0.0
 0
VERTEX
 8
PARTS
 10
  2.4000
 20
  4.7000
 30
0.0
 0
VERTEX
 8
PARTS
 10
  2.4500
 20
  4.7500
 30
0.0
 0
SEQEND
 8
PARTS
 0
POLYLINE
 8
PARTS
 66
1
 10
0.0
 20
0.0
 30
0.0
 0
VERTEX
 8
PARTS
 10
  2.4000
 20
  4.7000
 30
0.0
 0
VERTEX
 8
PARTS
 10
  2.4500
 20
  4.6500
 30
0.0
 0
SEQEND
 8
PARTS
 0
POLYLINE
 8
PARTS
 66
1
 10
0.0
 20
0.0
 30
0.0
 0
VERTEX
 8
PARTS
 10
  2.4500
 20
  4.7000
 30
0.0
 0
VERTEX
 8
PARTS
 10
  2.5000
 20
  4.7500
 30
0.0
 0
SEQEND
 8
PARTS
 0
POLYLINE
 8
PARTS
 66
1
 10
0.0
 20
0.0
 30
0.0
 0
VERTEX
 8
PARTS
 10
  2.4500
 20
  4.7000
 30
0.0
 0
VERTEX
 8
PARTS
 10
  2.5000
 20
  4.6500
 30
0.0
 0
SEQEND
 8
PARTS
 0
TEXT
 8
PARTTEXT
 10
  1.8000
 20
  8.4786
 30
0.0
 40
  0.0514
 1
SIG_IN+
 0
POLYLINE
 8
PARTS
 66
1
 10
0.0
 20
0.0
 30
0.0
 0
VERTEX
 8
PARTS
 10
  1.8000
 20
  8.5000
 30
0.0
 0
VERTEX
 8
PARTS
 10
  1.7500
 20
  8.4500
 30
0.0
 0
SEQEND
 8
PARTS
 0
POLYLINE
 8
PARTS
 66
1
 10
0.0
 20
0.0
 30
0.0
 0
VERTEX
 8
PARTS
 10
  1.8000
 20
  8.5000
 30
0.0
 0
VERTEX
 8
PARTS
 10
  1.7500
 20
  8.5500
 30
0.0
 0
SEQEND
 8
PARTS
 0
POLYLINE
 8
PARTS
 66
1
 10
0.0
 20
0.0
 30
0.0
 0
VERTEX
 8
PARTS
 10
  1.7500
 20
  8.5000
 30
0.0
 0
VERTEX
 8
PARTS
 10
  1.7000
 20
  8.4500
 30
0.0
 0
SEQEND
 8
PARTS
 0
POLYLINE
 8
PARTS
 66
1
 10
0.0
 20
0.0
 30
0.0
 0
VERTEX
 8
PARTS
 10
  1.7500
 20
  8.5000
 30
0.0
 0
VERTEX
 8
PARTS
 10
  1.7000
 20
  8.5500
 30
0.0
 0
SEQEND
 8
PARTS
 0
TEXT
 8
PARTTEXT
 10
  2.0300
 20
  4.2586
 30
0.0
 40
  0.0514
 1
SIG_IN+
 0
POLYLINE
 8
PARTS
 66
1
 10
0.0
 20
0.0
 30
0.0
 0
VERTEX
 8
PARTS
 10
  2.4000
 20
  4.3000
 30
0.0
 0
VERTEX
 8
PARTS
 10
  2.4500
 20
  4.3500
 30
0.0
 0
SEQEND
 8
PARTS
 0
POLYLINE
 8
PARTS
 66
1
 10
0.0
 20
0.0
 30
0.0
 0
VERTEX
 8
PARTS
 10
  2.4000
 20
  4.3000
 30
0.0
 0
VERTEX
 8
PARTS
 10
  2.4500
 20
  4.2500
 30
0.0
 0
SEQEND
 8
PARTS
 0
POLYLINE
 8
PARTS
 66
1
 10
0.0
 20
0.0
 30
0.0
 0
VERTEX
 8
PARTS
 10
  2.4500
 20
  4.3000
 30
0.0
 0
VERTEX
 8
PARTS
 10
  2.5000
 20
  4.3500
 30
0.0
 0
SEQEND
 8
PARTS
 0
POLYLINE
 8
PARTS
 66
1
 10
0.0
 20
0.0
 30
0.0
 0
VERTEX
 8
PARTS
 10
  2.4500
 20
  4.3000
 30
0.0
 0
VERTEX
 8
PARTS
 10
  2.5000
 20
  4.2500
 30
0.0
 0
SEQEND
 8
PARTS
 0
TEXT
 8
PARTTEXT
 10
  4.1000
 20
  3.8786
 30
0.0
 40
  0.0514
 1
VCC
 0
POLYLINE
 8
PARTS
 66
1
 10
0.0
 20
0.0
 30
0.0
 0
VERTEX
 8
PARTS
 10
  4.1000
 20
  3.9000
 30
0.0
 0
VERTEX
 8
PARTS
 10
  4.0500
 20
  3.8500
 30
0.0
 0
SEQEND
 8
PARTS
 0
POLYLINE
 8
PARTS
 66
1
 10
0.0
 20
0.0
 30
0.0
 0
VERTEX
 8
PARTS
 10
  4.1000
 20
  3.9000
 30
0.0
 0
VERTEX
 8
PARTS
 10
  4.0500
 20
  3.9500
 30
0.0
 0
SEQEND
 8
PARTS
 0
POLYLINE
 8
PARTS
 66
1
 10
0.0
 20
0.0
 30
0.0
 0
VERTEX
 8
PARTS
 10
  4.0500
 20
  3.9000
 30
0.0
 0
VERTEX
 8
PARTS
 10
  4.0000
 20
  3.8500
 30
0.0
 0
SEQEND
 8
PARTS
 0
POLYLINE
 8
PARTS
 66
1
 10
0.0
 20
0.0
 30
0.0
 0
VERTEX
 8
PARTS
 10
  4.0500
 20
  3.9000
 30
0.0
 0
VERTEX
 8
PARTS
 10
  4.0000
 20
  3.9500
 30
0.0
 0
SEQEND
 8
PARTS
 0
TEXT
 8
PARTTEXT
 10
  1.3000
 20
  8.3786
 30
0.0
 40
  0.0514
 1
PRESMASTER_IN
 0
POLYLINE
 8
PARTS
 66
1
 10
0.0
 20
0.0
 30
0.0
 0
VERTEX
 8
PARTS
 10
  1.3000
 20
  8.4000
 30
0.0
 0
VERTEX
 8
PARTS
 10
  1.2500
 20
  8.3500
 30
0.0
 0
SEQEND
 8
PARTS
 0
POLYLINE
 8
PARTS
 66
1
 10
0.0
 20
0.0
 30
0.0
 0
VERTEX
 8
PARTS
 10
  1.3000
 20
  8.4000
 30
0.0
 0
VERTEX
 8
PARTS
 10
  1.2500
 20
  8.4500
 30
0.0
 0
SEQEND
 8
PARTS
 0
POLYLINE
 8
PARTS
 66
1
 10
0.0
 20
0.0
 30
0.0
 0
VERTEX
 8
PARTS
 10
  1.2500
 20
  8.4000
 30
0.0
 0
VERTEX
 8
PARTS
 10
  1.2000
 20
  8.3500
 30
0.0
 0
SEQEND
 8
PARTS
 0
POLYLINE
 8
PARTS
 66
1
 10
0.0
 20
0.0
 30
0.0
 0
VERTEX
 8
PARTS
 10
  1.2500
 20
  8.4000
 30
0.0
 0
VERTEX
 8
PARTS
 10
  1.2000
 20
  8.4500
 30
0.0
 0
SEQEND
 8
PARTS
 0
TEXT
 8
PARTTEXT
 10
  1.3000
 20
  6.9786
 30
0.0
 40
  0.0514
 1
PRESMASTER_OUT
 0
POLYLINE
 8
PARTS
 66
1
 10
0.0
 20
0.0
 30
0.0
 0
VERTEX
 8
PARTS
 10
  1.3000
 20
  7.0000
 30
0.0
 0
VERTEX
 8
PARTS
 10
  1.2500
 20
  6.9500
 30
0.0
 0
SEQEND
 8
PARTS
 0
POLYLINE
 8
PARTS
 66
1
 10
0.0
 20
0.0
 30
0.0
 0
VERTEX
 8
PARTS
 10
  1.3000
 20
  7.0000
 30
0.0
 0
VERTEX
 8
PARTS
 10
  1.2500
 20
  7.0500
 30
0.0
 0
SEQEND
 8
PARTS
 0
POLYLINE
 8
PARTS
 66
1
 10
0.0
 20
0.0
 30
0.0
 0
VERTEX
 8
PARTS
 10
  1.2500
 20
  7.0000
 30
0.0
 0
VERTEX
 8
PARTS
 10
  1.2000
 20
  6.9500
 30
0.0
 0
SEQEND
 8
PARTS
 0
POLYLINE
 8
PARTS
 66
1
 10
0.0
 20
0.0
 30
0.0
 0
VERTEX
 8
PARTS
 10
  1.2500
 20
  7.0000
 30
0.0
 0
VERTEX
 8
PARTS
 10
  1.2000
 20
  7.0500
 30
0.0
 0
SEQEND
 8
PARTS
 0
TEXT
 8
PARTTEXT
 10
  6.3200
 20
  7.9186
 30
0.0
 40
  0.0514
 1
PRES1_IN
 0
POLYLINE
 8
PARTS
 66
1
 10
0.0
 20
0.0
 30
0.0
 0
VERTEX
 8
PARTS
 10
  6.6000
 20
  8.0000
 30
0.0
 0
VERTEX
 8
PARTS
 10
  6.5500
 20
  8.0500
 30
0.0
 0
SEQEND
 8
PARTS
 0
POLYLINE
 8
PARTS
 66
1
 10
0.0
 20
0.0
 30
0.0
 0
VERTEX
 8
PARTS
 10
  6.6000
 20
  8.0000
 30
0.0
 0
VERTEX
 8
PARTS
 10
  6.6500
 20
  8.0500
 30
0.0
 0
SEQEND
 8
PARTS
 0
POLYLINE
 8
PARTS
 66
1
 10
0.0
 20
0.0
 30
0.0
 0
VERTEX
 8
PARTS
 10
  6.6000
 20
  8.0500
 30
0.0
 0
VERTEX
 8
PARTS
 10
  6.5500
 20
  8.1000
 30
0.0
 0
SEQEND
 8
PARTS
 0
POLYLINE
 8
PARTS
 66
1
 10
0.0
 20
0.0
 30
0.0
 0
VERTEX
 8
PARTS
 10
  6.6000
 20
  8.0500
 30
0.0
 0
VERTEX
 8
PARTS
 10
  6.6500
 20
  8.1000
 30
0.0
 0
SEQEND
 8
PARTS
 0
TEXT
 8
PARTTEXT
 10
  6.9000
 20
  8.2786
 30
0.0
 40
  0.0514
 1
P1_IN
 0
POLYLINE
 8
PARTS
 66
1
 10
0.0
 20
0.0
 30
0.0
 0
VERTEX
 8
PARTS
 10
  6.9000
 20
  8.3000
 30
0.0
 0
VERTEX
 8
PARTS
 10
  6.8500
 20
  8.2500
 30
0.0
 0
SEQEND
 8
PARTS
 0
POLYLINE
 8
PARTS
 66
1
 10
0.0
 20
0.0
 30
0.0
 0
VERTEX
 8
PARTS
 10
  6.9000
 20
  8.3000
 30
0.0
 0
VERTEX
 8
PARTS
 10
  6.8500
 20
  8.3500
 30
0.0
 0
SEQEND
 8
PARTS
 0
POLYLINE
 8
PARTS
 66
1
 10
0.0
 20
0.0
 30
0.0
 0
VERTEX
 8
PARTS
 10
  6.8500
 20
  8.3000
 30
0.0
 0
VERTEX
 8
PARTS
 10
  6.8000
 20
  8.2500
 30
0.0
 0
SEQEND
 8
PARTS
 0
POLYLINE
 8
PARTS
 66
1
 10
0.0
 20
0.0
 30
0.0
 0
VERTEX
 8
PARTS
 10
  6.8500
 20
  8.3000
 30
0.0
 0
VERTEX
 8
PARTS
 10
  6.8000
 20
  8.3500
 30
0.0
 0
SEQEND
 8
PARTS
 0
TEXT
 8
PARTTEXT
 10
  7.9000
 20
  8.2786
 30
0.0
 40
  0.0514
 1
P1_OUT
 0
POLYLINE
 8
PARTS
 66
1
 10
0.0
 20
0.0
 30
0.0
 0
VERTEX
 8
PARTS
 10
  7.9000
 20
  8.3000
 30
0.0
 0
VERTEX
 8
PARTS
 10
  7.8500
 20
  8.2500
 30
0.0
 0
SEQEND
 8
PARTS
 0
POLYLINE
 8
PARTS
 66
1
 10
0.0
 20
0.0
 30
0.0
 0
VERTEX
 8
PARTS
 10
  7.9000
 20
  8.3000
 30
0.0
 0
VERTEX
 8
PARTS
 10
  7.8500
 20
  8.3500
 30
0.0
 0
SEQEND
 8
PARTS
 0
POLYLINE
 8
PARTS
 66
1
 10
0.0
 20
0.0
 30
0.0
 0
VERTEX
 8
PARTS
 10
  7.8500
 20
  8.3000
 30
0.0
 0
VERTEX
 8
PARTS
 10
  7.8000
 20
  8.2500
 30
0.0
 0
SEQEND
 8
PARTS
 0
POLYLINE
 8
PARTS
 66
1
 10
0.0
 20
0.0
 30
0.0
 0
VERTEX
 8
PARTS
 10
  7.8500
 20
  8.3000
 30
0.0
 0
VERTEX
 8
PARTS
 10
  7.8000
 20
  8.3500
 30
0.0
 0
SEQEND
 8
PARTS
 0
TEXT
 8
PARTTEXT
 10
  7.3200
 20
  7.9186
 30
0.0
 40
  0.0514
 1
PRES1_OUT
 0
POLYLINE
 8
PARTS
 66
1
 10
0.0
 20
0.0
 30
0.0
 0
VERTEX
 8
PARTS
 10
  7.6000
 20
  8.0000
 30
0.0
 0
VERTEX
 8
PARTS
 10
  7.5500
 20
  8.0500
 30
0.0
 0
SEQEND
 8
PARTS
 0
POLYLINE
 8
PARTS
 66
1
 10
0.0
 20
0.0
 30
0.0
 0
VERTEX
 8
PARTS
 10
  7.6000
 20
  8.0000
 30
0.0
 0
VERTEX
 8
PARTS
 10
  7.6500
 20
  8.0500
 30
0.0
 0
SEQEND
 8
PARTS
 0
POLYLINE
 8
PARTS
 66
1
 10
0.0
 20
0.0
 30
0.0
 0
VERTEX
 8
PARTS
 10
  7.6000
 20
  8.0500
 30
0.0
 0
VERTEX
 8
PARTS
 10
  7.5500
 20
  8.1000
 30
0.0
 0
SEQEND
 8
PARTS
 0
POLYLINE
 8
PARTS
 66
1
 10
0.0
 20
0.0
 30
0.0
 0
VERTEX
 8
PARTS
 10
  7.6000
 20
  8.0500
 30
0.0
 0
VERTEX
 8
PARTS
 10
  7.6500
 20
  8.1000
 30
0.0
 0
SEQEND
 8
PARTS
 0
TEXT
 8
PARTTEXT
 10
  9.0000
 20
  8.2786
 30
0.0
 40
  0.0514
 1
P2_IN
 0
POLYLINE
 8
PARTS
 66
1
 10
0.0
 20
0.0
 30
0.0
 0
VERTEX
 8
PARTS
 10
  9.0000
 20
  8.3000
 30
0.0
 0
VERTEX
 8
PARTS
 10
  8.9500
 20
  8.2500
 30
0.0
 0
SEQEND
 8
PARTS
 0
POLYLINE
 8
PARTS
 66
1
 10
0.0
 20
0.0
 30
0.0
 0
VERTEX
 8
PARTS
 10
  9.0000
 20
  8.3000
 30
0.0
 0
VERTEX
 8
PARTS
 10
  8.9500
 20
  8.3500
 30
0.0
 0
SEQEND
 8
PARTS
 0
POLYLINE
 8
PARTS
 66
1
 10
0.0
 20
0.0
 30
0.0
 0
VERTEX
 8
PARTS
 10
  8.9500
 20
  8.3000
 30
0.0
 0
VERTEX
 8
PARTS
 10
  8.9000
 20
  8.2500
 30
0.0
 0
SEQEND
 8
PARTS
 0
POLYLINE
 8
PARTS
 66
1
 10
0.0
 20
0.0
 30
0.0
 0
VERTEX
 8
PARTS
 10
  8.9500
 20
  8.3000
 30
0.0
 0
VERTEX
 8
PARTS
 10
  8.9000
 20
  8.3500
 30
0.0
 0
SEQEND
 8
PARTS
 0
TEXT
 8
PARTTEXT
 10
 10.0000
 20
  8.2786
 30
0.0
 40
  0.0514
 1
P2_OUT
 0
POLYLINE
 8
PARTS
 66
1
 10
0.0
 20
0.0
 30
0.0
 0
VERTEX
 8
PARTS
 10
 10.0000
 20
  8.3000
 30
0.0
 0
VERTEX
 8
PARTS
 10
  9.9500
 20
  8.2500
 30
0.0
 0
SEQEND
 8
PARTS
 0
POLYLINE
 8
PARTS
 66
1
 10
0.0
 20
0.0
 30
0.0
 0
VERTEX
 8
PARTS
 10
 10.0000
 20
  8.3000
 30
0.0
 0
VERTEX
 8
PARTS
 10
  9.9500
 20
  8.3500
 30
0.0
 0
SEQEND
 8
PARTS
 0
POLYLINE
 8
PARTS
 66
1
 10
0.0
 20
0.0
 30
0.0
 0
VERTEX
 8
PARTS
 10
  9.9500
 20
  8.3000
 30
0.0
 0
VERTEX
 8
PARTS
 10
  9.9000
 20
  8.2500
 30
0.0
 0
SEQEND
 8
PARTS
 0
POLYLINE
 8
PARTS
 66
1
 10
0.0
 20
0.0
 30
0.0
 0
VERTEX
 8
PARTS
 10
  9.9500
 20
  8.3000
 30
0.0
 0
VERTEX
 8
PARTS
 10
  9.9000
 20
  8.3500
 30
0.0
 0
SEQEND
 8
PARTS
 0
TEXT
 8
PARTTEXT
 10
  8.4200
 20
  7.9186
 30
0.0
 40
  0.0514
 1
PRES2_IN
 0
POLYLINE
 8
PARTS
 66
1
 10
0.0
 20
0.0
 30
0.0
 0
VERTEX
 8
PARTS
 10
  8.7000
 20
  8.0000
 30
0.0
 0
VERTEX
 8
PARTS
 10
  8.6500
 20
  8.0500
 30
0.0
 0
SEQEND
 8
PARTS
 0
POLYLINE
 8
PARTS
 66
1
 10
0.0
 20
0.0
 30
0.0
 0
VERTEX
 8
PARTS
 10
  8.7000
 20
  8.0000
 30
0.0
 0
VERTEX
 8
PARTS
 10
  8.7500
 20
  8.0500
 30
0.0
 0
SEQEND
 8
PARTS
 0
POLYLINE
 8
PARTS
 66
1
 10
0.0
 20
0.0
 30
0.0
 0
VERTEX
 8
PARTS
 10
  8.7000
 20
  8.0500
 30
0.0
 0
VERTEX
 8
PARTS
 10
  8.6500
 20
  8.1000
 30
0.0
 0
SEQEND
 8
PARTS
 0
POLYLINE
 8
PARTS
 66
1
 10
0.0
 20
0.0
 30
0.0
 0
VERTEX
 8
PARTS
 10
  8.7000
 20
  8.0500
 30
0.0
 0
VERTEX
 8
PARTS
 10
  8.7500
 20
  8.1000
 30
0.0
 0
SEQEND
 8
PARTS
 0
TEXT
 8
PARTTEXT
 10
  9.4200
 20
  7.9186
 30
0.0
 40
  0.0514
 1
PRES2_OUT
 0
POLYLINE
 8
PARTS
 66
1
 10
0.0
 20
0.0
 30
0.0
 0
VERTEX
 8
PARTS
 10
  9.7000
 20
  8.0000
 30
0.0
 0
VERTEX
 8
PARTS
 10
  9.6500
 20
  8.0500
 30
0.0
 0
SEQEND
 8
PARTS
 0
POLYLINE
 8
PARTS
 66
1
 10
0.0
 20
0.0
 30
0.0
 0
VERTEX
 8
PARTS
 10
  9.7000
 20
  8.0000
 30
0.0
 0
VERTEX
 8
PARTS
 10
  9.7500
 20
  8.0500
 30
0.0
 0
SEQEND
 8
PARTS
 0
POLYLINE
 8
PARTS
 66
1
 10
0.0
 20
0.0
 30
0.0
 0
VERTEX
 8
PARTS
 10
  9.7000
 20
  8.0500
 30
0.0
 0
VERTEX
 8
PARTS
 10
  9.6500
 20
  8.1000
 30
0.0
 0
SEQEND
 8
PARTS
 0
POLYLINE
 8
PARTS
 66
1
 10
0.0
 20
0.0
 30
0.0
 0
VERTEX
 8
PARTS
 10
  9.7000
 20
  8.0500
 30
0.0
 0
VERTEX
 8
PARTS
 10
  9.7500
 20
  8.1000
 30
0.0
 0
SEQEND
 8
PARTS
 0
TEXT
 8
PARTTEXT
 10
 11.1000
 20
  8.2786
 30
0.0
 40
  0.0514
 1
P3_IN
 0
POLYLINE
 8
PARTS
 66
1
 10
0.0
 20
0.0
 30
0.0
 0
VERTEX
 8
PARTS
 10
 11.1000
 20
  8.3000
 30
0.0
 0
VERTEX
 8
PARTS
 10
 11.0500
 20
  8.2500
 30
0.0
 0
SEQEND
 8
PARTS
 0
POLYLINE
 8
PARTS
 66
1
 10
0.0
 20
0.0
 30
0.0
 0
VERTEX
 8
PARTS
 10
 11.1000
 20
  8.3000
 30
0.0
 0
VERTEX
 8
PARTS
 10
 11.0500
 20
  8.3500
 30
0.0
 0
SEQEND
 8
PARTS
 0
POLYLINE
 8
PARTS
 66
1
 10
0.0
 20
0.0
 30
0.0
 0
VERTEX
 8
PARTS
 10
 11.0500
 20
  8.3000
 30
0.0
 0
VERTEX
 8
PARTS
 10
 11.0000
 20
  8.2500
 30
0.0
 0
SEQEND
 8
PARTS
 0
POLYLINE
 8
PARTS
 66
1
 10
0.0
 20
0.0
 30
0.0
 0
VERTEX
 8
PARTS
 10
 11.0500
 20
  8.3000
 30
0.0
 0
VERTEX
 8
PARTS
 10
 11.0000
 20
  8.3500
 30
0.0
 0
SEQEND
 8
PARTS
 0
TEXT
 8
PARTTEXT
 10
 12.1000
 20
  8.2786
 30
0.0
 40
  0.0514
 1
P3_OUT
 0
POLYLINE
 8
PARTS
 66
1
 10
0.0
 20
0.0
 30
0.0
 0
VERTEX
 8
PARTS
 10
 12.1000
 20
  8.3000
 30
0.0
 0
VERTEX
 8
PARTS
 10
 12.0500
 20
  8.2500
 30
0.0
 0
SEQEND
 8
PARTS
 0
POLYLINE
 8
PARTS
 66
1
 10
0.0
 20
0.0
 30
0.0
 0
VERTEX
 8
PARTS
 10
 12.1000
 20
  8.3000
 30
0.0
 0
VERTEX
 8
PARTS
 10
 12.0500
 20
  8.3500
 30
0.0
 0
SEQEND
 8
PARTS
 0
POLYLINE
 8
PARTS
 66
1
 10
0.0
 20
0.0
 30
0.0
 0
VERTEX
 8
PARTS
 10
 12.0500
 20
  8.3000
 30
0.0
 0
VERTEX
 8
PARTS
 10
 12.0000
 20
  8.2500
 30
0.0
 0
SEQEND
 8
PARTS
 0
POLYLINE
 8
PARTS
 66
1
 10
0.0
 20
0.0
 30
0.0
 0
VERTEX
 8
PARTS
 10
 12.0500
 20
  8.3000
 30
0.0
 0
VERTEX
 8
PARTS
 10
 12.0000
 20
  8.3500
 30
0.0
 0
SEQEND
 8
PARTS
 0
TEXT
 8
PARTTEXT
 10
 13.2000
 20
  8.2786
 30
0.0
 40
  0.0514
 1
P4_IN
 0
POLYLINE
 8
PARTS
 66
1
 10
0.0
 20
0.0
 30
0.0
 0
VERTEX
 8
PARTS
 10
 13.2000
 20
  8.3000
 30
0.0
 0
VERTEX
 8
PARTS
 10
 13.1500
 20
  8.2500
 30
0.0
 0
SEQEND
 8
PARTS
 0
POLYLINE
 8
PARTS
 66
1
 10
0.0
 20
0.0
 30
0.0
 0
VERTEX
 8
PARTS
 10
 13.2000
 20
  8.3000
 30
0.0
 0
VERTEX
 8
PARTS
 10
 13.1500
 20
  8.3500
 30
0.0
 0
SEQEND
 8
PARTS
 0
POLYLINE
 8
PARTS
 66
1
 10
0.0
 20
0.0
 30
0.0
 0
VERTEX
 8
PARTS
 10
 13.1500
 20
  8.3000
 30
0.0
 0
VERTEX
 8
PARTS
 10
 13.1000
 20
  8.2500
 30
0.0
 0
SEQEND
 8
PARTS
 0
POLYLINE
 8
PARTS
 66
1
 10
0.0
 20
0.0
 30
0.0
 0
VERTEX
 8
PARTS
 10
 13.1500
 20
  8.3000
 30
0.0
 0
VERTEX
 8
PARTS
 10
 13.1000
 20
  8.3500
 30
0.0
 0
SEQEND
 8
PARTS
 0
TEXT
 8
PARTTEXT
 10
 14.2000
 20
  8.2786
 30
0.0
 40
  0.0514
 1
P4_OUT
 0
POLYLINE
 8
PARTS
 66
1
 10
0.0
 20
0.0
 30
0.0
 0
VERTEX
 8
PARTS
 10
 14.2000
 20
  8.3000
 30
0.0
 0
VERTEX
 8
PARTS
 10
 14.1500
 20
  8.2500
 30
0.0
 0
SEQEND
 8
PARTS
 0
POLYLINE
 8
PARTS
 66
1
 10
0.0
 20
0.0
 30
0.0
 0
VERTEX
 8
PARTS
 10
 14.2000
 20
  8.3000
 30
0.0
 0
VERTEX
 8
PARTS
 10
 14.1500
 20
  8.3500
 30
0.0
 0
SEQEND
 8
PARTS
 0
POLYLINE
 8
PARTS
 66
1
 10
0.0
 20
0.0
 30
0.0
 0
VERTEX
 8
PARTS
 10
 14.1500
 20
  8.3000
 30
0.0
 0
VERTEX
 8
PARTS
 10
 14.1000
 20
  8.2500
 30
0.0
 0
SEQEND
 8
PARTS
 0
POLYLINE
 8
PARTS
 66
1
 10
0.0
 20
0.0
 30
0.0
 0
VERTEX
 8
PARTS
 10
 14.1500
 20
  8.3000
 30
0.0
 0
VERTEX
 8
PARTS
 10
 14.1000
 20
  8.3500
 30
0.0
 0
SEQEND
 8
PARTS
 0
TEXT
 8
PARTTEXT
 10
 10.5200
 20
  7.9186
 30
0.0
 40
  0.0514
 1
PRES3_IN
 0
POLYLINE
 8
PARTS
 66
1
 10
0.0
 20
0.0
 30
0.0
 0
VERTEX
 8
PARTS
 10
 10.8000
 20
  8.0000
 30
0.0
 0
VERTEX
 8
PARTS
 10
 10.7500
 20
  8.0500
 30
0.0
 0
SEQEND
 8
PARTS
 0
POLYLINE
 8
PARTS
 66
1
 10
0.0
 20
0.0
 30
0.0
 0
VERTEX
 8
PARTS
 10
 10.8000
 20
  8.0000
 30
0.0
 0
VERTEX
 8
PARTS
 10
 10.8500
 20
  8.0500
 30
0.0
 0
SEQEND
 8
PARTS
 0
POLYLINE
 8
PARTS
 66
1
 10
0.0
 20
0.0
 30
0.0
 0
VERTEX
 8
PARTS
 10
 10.8000
 20
  8.0500
 30
0.0
 0
VERTEX
 8
PARTS
 10
 10.7500
 20
  8.1000
 30
0.0
 0
SEQEND
 8
PARTS
 0
POLYLINE
 8
PARTS
 66
1
 10
0.0
 20
0.0
 30
0.0
 0
VERTEX
 8
PARTS
 10
 10.8000
 20
  8.0500
 30
0.0
 0
VERTEX
 8
PARTS
 10
 10.8500
 20
  8.1000
 30
0.0
 0
SEQEND
 8
PARTS
 0
TEXT
 8
PARTTEXT
 10
 11.5200
 20
  7.9186
 30
0.0
 40
  0.0514
 1
PRES3_OUT
 0
POLYLINE
 8
PARTS
 66
1
 10
0.0
 20
0.0
 30
0.0
 0
VERTEX
 8
PARTS
 10
 11.8000
 20
  8.0000
 30
0.0
 0
VERTEX
 8
PARTS
 10
 11.7500
 20
  8.0500
 30
0.0
 0
SEQEND
 8
PARTS
 0
POLYLINE
 8
PARTS
 66
1
 10
0.0
 20
0.0
 30
0.0
 0
VERTEX
 8
PARTS
 10
 11.8000
 20
  8.0000
 30
0.0
 0
VERTEX
 8
PARTS
 10
 11.8500
 20
  8.0500
 30
0.0
 0
SEQEND
 8
PARTS
 0
POLYLINE
 8
PARTS
 66
1
 10
0.0
 20
0.0
 30
0.0
 0
VERTEX
 8
PARTS
 10
 11.8000
 20
  8.0500
 30
0.0
 0
VERTEX
 8
PARTS
 10
 11.7500
 20
  8.1000
 30
0.0
 0
SEQEND
 8
PARTS
 0
POLYLINE
 8
PARTS
 66
1
 10
0.0
 20
0.0
 30
0.0
 0
VERTEX
 8
PARTS
 10
 11.8000
 20
  8.0500
 30
0.0
 0
VERTEX
 8
PARTS
 10
 11.8500
 20
  8.1000
 30
0.0
 0
SEQEND
 8
PARTS
 0
TEXT
 8
PARTTEXT
 10
 12.6200
 20
  7.9186
 30
0.0
 40
  0.0514
 1
PRES4_IN
 0
POLYLINE
 8
PARTS
 66
1
 10
0.0
 20
0.0
 30
0.0
 0
VERTEX
 8
PARTS
 10
 12.9000
 20
  8.0000
 30
0.0
 0
VERTEX
 8
PARTS
 10
 12.8500
 20
  8.0500
 30
0.0
 0
SEQEND
 8
PARTS
 0
POLYLINE
 8
PARTS
 66
1
 10
0.0
 20
0.0
 30
0.0
 0
VERTEX
 8
PARTS
 10
 12.9000
 20
  8.0000
 30
0.0
 0
VERTEX
 8
PARTS
 10
 12.9500
 20
  8.0500
 30
0.0
 0
SEQEND
 8
PARTS
 0
POLYLINE
 8
PARTS
 66
1
 10
0.0
 20
0.0
 30
0.0
 0
VERTEX
 8
PARTS
 10
 12.9000
 20
  8.0500
 30
0.0
 0
VERTEX
 8
PARTS
 10
 12.8500
 20
  8.1000
 30
0.0
 0
SEQEND
 8
PARTS
 0
POLYLINE
 8
PARTS
 66
1
 10
0.0
 20
0.0
 30
0.0
 0
VERTEX
 8
PARTS
 10
 12.9000
 20
  8.0500
 30
0.0
 0
VERTEX
 8
PARTS
 10
 12.9500
 20
  8.1000
 30
0.0
 0
SEQEND
 8
PARTS
 0
TEXT
 8
PARTTEXT
 10
 13.6200
 20
  7.9186
 30
0.0
 40
  0.0514
 1
PRES4_OUT
 0
POLYLINE
 8
PARTS
 66
1
 10
0.0
 20
0.0
 30
0.0
 0
VERTEX
 8
PARTS
 10
 13.9000
 20
  8.0000
 30
0.0
 0
VERTEX
 8
PARTS
 10
 13.8500
 20
  8.0500
 30
0.0
 0
SEQEND
 8
PARTS
 0
POLYLINE
 8
PARTS
 66
1
 10
0.0
 20
0.0
 30
0.0
 0
VERTEX
 8
PARTS
 10
 13.9000
 20
  8.0000
 30
0.0
 0
VERTEX
 8
PARTS
 10
 13.9500
 20
  8.0500
 30
0.0
 0
SEQEND
 8
PARTS
 0
POLYLINE
 8
PARTS
 66
1
 10
0.0
 20
0.0
 30
0.0
 0
VERTEX
 8
PARTS
 10
 13.9000
 20
  8.0500
 30
0.0
 0
VERTEX
 8
PARTS
 10
 13.8500
 20
  8.1000
 30
0.0
 0
SEQEND
 8
PARTS
 0
POLYLINE
 8
PARTS
 66
1
 10
0.0
 20
0.0
 30
0.0
 0
VERTEX
 8
PARTS
 10
 13.9000
 20
  8.0500
 30
0.0
 0
VERTEX
 8
PARTS
 10
 13.9500
 20
  8.1000
 30
0.0
 0
SEQEND
 8
PARTS
 0
TEXT
 8
PARTTEXT
 10
  6.9000
 20
  6.4786
 30
0.0
 40
  0.0514
 1
P5_IN
 0
POLYLINE
 8
PARTS
 66
1
 10
0.0
 20
0.0
 30
0.0
 0
VERTEX
 8
PARTS
 10
  6.9000
 20
  6.5000
 30
0.0
 0
VERTEX
 8
PARTS
 10
  6.8500
 20
  6.4500
 30
0.0
 0
SEQEND
 8
PARTS
 0
POLYLINE
 8
PARTS
 66
1
 10
0.0
 20
0.0
 30
0.0
 0
VERTEX
 8
PARTS
 10
  6.9000
 20
  6.5000
 30
0.0
 0
VERTEX
 8
PARTS
 10
  6.8500
 20
  6.5500
 30
0.0
 0
SEQEND
 8
PARTS
 0
POLYLINE
 8
PARTS
 66
1
 10
0.0
 20
0.0
 30
0.0
 0
VERTEX
 8
PARTS
 10
  6.8500
 20
  6.5000
 30
0.0
 0
VERTEX
 8
PARTS
 10
  6.8000
 20
  6.4500
 30
0.0
 0
SEQEND
 8
PARTS
 0
POLYLINE
 8
PARTS
 66
1
 10
0.0
 20
0.0
 30
0.0
 0
VERTEX
 8
PARTS
 10
  6.8500
 20
  6.5000
 30
0.0
 0
VERTEX
 8
PARTS
 10
  6.8000
 20
  6.5500
 30
0.0
 0
SEQEND
 8
PARTS
 0
TEXT
 8
PARTTEXT
 10
  7.9000
 20
  6.4786
 30
0.0
 40
  0.0514
 1
P5_OUT
 0
POLYLINE
 8
PARTS
 66
1
 10
0.0
 20
0.0
 30
0.0
 0
VERTEX
 8
PARTS
 10
  7.9000
 20
  6.5000
 30
0.0
 0
VERTEX
 8
PARTS
 10
  7.8500
 20
  6.4500
 30
0.0
 0
SEQEND
 8
PARTS
 0
POLYLINE
 8
PARTS
 66
1
 10
0.0
 20
0.0
 30
0.0
 0
VERTEX
 8
PARTS
 10
  7.9000
 20
  6.5000
 30
0.0
 0
VERTEX
 8
PARTS
 10
  7.8500
 20
  6.5500
 30
0.0
 0
SEQEND
 8
PARTS
 0
POLYLINE
 8
PARTS
 66
1
 10
0.0
 20
0.0
 30
0.0
 0
VERTEX
 8
PARTS
 10
  7.8500
 20
  6.5000
 30
0.0
 0
VERTEX
 8
PARTS
 10
  7.8000
 20
  6.4500
 30
0.0
 0
SEQEND
 8
PARTS
 0
POLYLINE
 8
PARTS
 66
1
 10
0.0
 20
0.0
 30
0.0
 0
VERTEX
 8
PARTS
 10
  7.8500
 20
  6.5000
 30
0.0
 0
VERTEX
 8
PARTS
 10
  7.8000
 20
  6.5500
 30
0.0
 0
SEQEND
 8
PARTS
 0
TEXT
 8
PARTTEXT
 10
  9.0000
 20
  6.4786
 30
0.0
 40
  0.0514
 1
P6_IN
 0
POLYLINE
 8
PARTS
 66
1
 10
0.0
 20
0.0
 30
0.0
 0
VERTEX
 8
PARTS
 10
  9.0000
 20
  6.5000
 30
0.0
 0
VERTEX
 8
PARTS
 10
  8.9500
 20
  6.4500
 30
0.0
 0
SEQEND
 8
PARTS
 0
POLYLINE
 8
PARTS
 66
1
 10
0.0
 20
0.0
 30
0.0
 0
VERTEX
 8
PARTS
 10
  9.0000
 20
  6.5000
 30
0.0
 0
VERTEX
 8
PARTS
 10
  8.9500
 20
  6.5500
 30
0.0
 0
SEQEND
 8
PARTS
 0
POLYLINE
 8
PARTS
 66
1
 10
0.0
 20
0.0
 30
0.0
 0
VERTEX
 8
PARTS
 10
  8.9500
 20
  6.5000
 30
0.0
 0
VERTEX
 8
PARTS
 10
  8.9000
 20
  6.4500
 30
0.0
 0
SEQEND
 8
PARTS
 0
POLYLINE
 8
PARTS
 66
1
 10
0.0
 20
0.0
 30
0.0
 0
VERTEX
 8
PARTS
 10
  8.9500
 20
  6.5000
 30
0.0
 0
VERTEX
 8
PARTS
 10
  8.9000
 20
  6.5500
 30
0.0
 0
SEQEND
 8
PARTS
 0
TEXT
 8
PARTTEXT
 10
 10.0000
 20
  6.4786
 30
0.0
 40
  0.0514
 1
P6_OUT
 0
POLYLINE
 8
PARTS
 66
1
 10
0.0
 20
0.0
 30
0.0
 0
VERTEX
 8
PARTS
 10
 10.0000
 20
  6.5000
 30
0.0
 0
VERTEX
 8
PARTS
 10
  9.9500
 20
  6.4500
 30
0.0
 0
SEQEND
 8
PARTS
 0
POLYLINE
 8
PARTS
 66
1
 10
0.0
 20
0.0
 30
0.0
 0
VERTEX
 8
PARTS
 10
 10.0000
 20
  6.5000
 30
0.0
 0
VERTEX
 8
PARTS
 10
  9.9500
 20
  6.5500
 30
0.0
 0
SEQEND
 8
PARTS
 0
POLYLINE
 8
PARTS
 66
1
 10
0.0
 20
0.0
 30
0.0
 0
VERTEX
 8
PARTS
 10
  9.9500
 20
  6.5000
 30
0.0
 0
VERTEX
 8
PARTS
 10
  9.9000
 20
  6.4500
 30
0.0
 0
SEQEND
 8
PARTS
 0
POLYLINE
 8
PARTS
 66
1
 10
0.0
 20
0.0
 30
0.0
 0
VERTEX
 8
PARTS
 10
  9.9500
 20
  6.5000
 30
0.0
 0
VERTEX
 8
PARTS
 10
  9.9000
 20
  6.5500
 30
0.0
 0
SEQEND
 8
PARTS
 0
TEXT
 8
PARTTEXT
 10
 11.1000
 20
  6.4786
 30
0.0
 40
  0.0514
 1
P7_IN
 0
POLYLINE
 8
PARTS
 66
1
 10
0.0
 20
0.0
 30
0.0
 0
VERTEX
 8
PARTS
 10
 11.1000
 20
  6.5000
 30
0.0
 0
VERTEX
 8
PARTS
 10
 11.0500
 20
  6.4500
 30
0.0
 0
SEQEND
 8
PARTS
 0
POLYLINE
 8
PARTS
 66
1
 10
0.0
 20
0.0
 30
0.0
 0
VERTEX
 8
PARTS
 10
 11.1000
 20
  6.5000
 30
0.0
 0
VERTEX
 8
PARTS
 10
 11.0500
 20
  6.5500
 30
0.0
 0
SEQEND
 8
PARTS
 0
POLYLINE
 8
PARTS
 66
1
 10
0.0
 20
0.0
 30
0.0
 0
VERTEX
 8
PARTS
 10
 11.0500
 20
  6.5000
 30
0.0
 0
VERTEX
 8
PARTS
 10
 11.0000
 20
  6.4500
 30
0.0
 0
SEQEND
 8
PARTS
 0
POLYLINE
 8
PARTS
 66
1
 10
0.0
 20
0.0
 30
0.0
 0
VERTEX
 8
PARTS
 10
 11.0500
 20
  6.5000
 30
0.0
 0
VERTEX
 8
PARTS
 10
 11.0000
 20
  6.5500
 30
0.0
 0
SEQEND
 8
PARTS
 0
TEXT
 8
PARTTEXT
 10
 12.1000
 20
  6.4786
 30
0.0
 40
  0.0514
 1
P7_OUT
 0
POLYLINE
 8
PARTS
 66
1
 10
0.0
 20
0.0
 30
0.0
 0
VERTEX
 8
PARTS
 10
 12.1000
 20
  6.5000
 30
0.0
 0
VERTEX
 8
PARTS
 10
 12.0500
 20
  6.4500
 30
0.0
 0
SEQEND
 8
PARTS
 0
POLYLINE
 8
PARTS
 66
1
 10
0.0
 20
0.0
 30
0.0
 0
VERTEX
 8
PARTS
 10
 12.1000
 20
  6.5000
 30
0.0
 0
VERTEX
 8
PARTS
 10
 12.0500
 20
  6.5500
 30
0.0
 0
SEQEND
 8
PARTS
 0
POLYLINE
 8
PARTS
 66
1
 10
0.0
 20
0.0
 30
0.0
 0
VERTEX
 8
PARTS
 10
 12.0500
 20
  6.5000
 30
0.0
 0
VERTEX
 8
PARTS
 10
 12.0000
 20
  6.4500
 30
0.0
 0
SEQEND
 8
PARTS
 0
POLYLINE
 8
PARTS
 66
1
 10
0.0
 20
0.0
 30
0.0
 0
VERTEX
 8
PARTS
 10
 12.0500
 20
  6.5000
 30
0.0
 0
VERTEX
 8
PARTS
 10
 12.0000
 20
  6.5500
 30
0.0
 0
SEQEND
 8
PARTS
 0
TEXT
 8
PARTTEXT
 10
  6.3200
 20
  6.1186
 30
0.0
 40
  0.0514
 1
PRES5_IN
 0
POLYLINE
 8
PARTS
 66
1
 10
0.0
 20
0.0
 30
0.0
 0
VERTEX
 8
PARTS
 10
  6.6000
 20
  6.2000
 30
0.0
 0
VERTEX
 8
PARTS
 10
  6.5500
 20
  6.2500
 30
0.0
 0
SEQEND
 8
PARTS
 0
POLYLINE
 8
PARTS
 66
1
 10
0.0
 20
0.0
 30
0.0
 0
VERTEX
 8
PARTS
 10
  6.6000
 20
  6.2000
 30
0.0
 0
VERTEX
 8
PARTS
 10
  6.6500
 20
  6.2500
 30
0.0
 0
SEQEND
 8
PARTS
 0
POLYLINE
 8
PARTS
 66
1
 10
0.0
 20
0.0
 30
0.0
 0
VERTEX
 8
PARTS
 10
  6.6000
 20
  6.2500
 30
0.0
 0
VERTEX
 8
PARTS
 10
  6.5500
 20
  6.3000
 30
0.0
 0
SEQEND
 8
PARTS
 0
POLYLINE
 8
PARTS
 66
1
 10
0.0
 20
0.0
 30
0.0
 0
VERTEX
 8
PARTS
 10
  6.6000
 20
  6.2500
 30
0.0
 0
VERTEX
 8
PARTS
 10
  6.6500
 20
  6.3000
 30
0.0
 0
SEQEND
 8
PARTS
 0
TEXT
 8
PARTTEXT
 10
  7.3200
 20
  6.1186
 30
0.0
 40
  0.0514
 1
PRES5_OUT
 0
POLYLINE
 8
PARTS
 66
1
 10
0.0
 20
0.0
 30
0.0
 0
VERTEX
 8
PARTS
 10
  7.6000
 20
  6.2000
 30
0.0
 0
VERTEX
 8
PARTS
 10
  7.5500
 20
  6.2500
 30
0.0
 0
SEQEND
 8
PARTS
 0
POLYLINE
 8
PARTS
 66
1
 10
0.0
 20
0.0
 30
0.0
 0
VERTEX
 8
PARTS
 10
  7.6000
 20
  6.2000
 30
0.0
 0
VERTEX
 8
PARTS
 10
  7.6500
 20
  6.2500
 30
0.0
 0
SEQEND
 8
PARTS
 0
POLYLINE
 8
PARTS
 66
1
 10
0.0
 20
0.0
 30
0.0
 0
VERTEX
 8
PARTS
 10
  7.6000
 20
  6.2500
 30
0.0
 0
VERTEX
 8
PARTS
 10
  7.5500
 20
  6.3000
 30
0.0
 0
SEQEND
 8
PARTS
 0
POLYLINE
 8
PARTS
 66
1
 10
0.0
 20
0.0
 30
0.0
 0
VERTEX
 8
PARTS
 10
  7.6000
 20
  6.2500
 30
0.0
 0
VERTEX
 8
PARTS
 10
  7.6500
 20
  6.3000
 30
0.0
 0
SEQEND
 8
PARTS
 0
TEXT
 8
PARTTEXT
 10
  8.4200
 20
  6.1186
 30
0.0
 40
  0.0514
 1
PRES6_IN
 0
POLYLINE
 8
PARTS
 66
1
 10
0.0
 20
0.0
 30
0.0
 0
VERTEX
 8
PARTS
 10
  8.7000
 20
  6.2000
 30
0.0
 0
VERTEX
 8
PARTS
 10
  8.6500
 20
  6.2500
 30
0.0
 0
SEQEND
 8
PARTS
 0
POLYLINE
 8
PARTS
 66
1
 10
0.0
 20
0.0
 30
0.0
 0
VERTEX
 8
PARTS
 10
  8.7000
 20
  6.2000
 30
0.0
 0
VERTEX
 8
PARTS
 10
  8.7500
 20
  6.2500
 30
0.0
 0
SEQEND
 8
PARTS
 0
POLYLINE
 8
PARTS
 66
1
 10
0.0
 20
0.0
 30
0.0
 0
VERTEX
 8
PARTS
 10
  8.7000
 20
  6.2500
 30
0.0
 0
VERTEX
 8
PARTS
 10
  8.6500
 20
  6.3000
 30
0.0
 0
SEQEND
 8
PARTS
 0
POLYLINE
 8
PARTS
 66
1
 10
0.0
 20
0.0
 30
0.0
 0
VERTEX
 8
PARTS
 10
  8.7000
 20
  6.2500
 30
0.0
 0
VERTEX
 8
PARTS
 10
  8.7500
 20
  6.3000
 30
0.0
 0
SEQEND
 8
PARTS
 0
TEXT
 8
PARTTEXT
 10
  9.4200
 20
  6.1186
 30
0.0
 40
  0.0514
 1
PRES6_OUT
 0
POLYLINE
 8
PARTS
 66
1
 10
0.0
 20
0.0
 30
0.0
 0
VERTEX
 8
PARTS
 10
  9.7000
 20
  6.2000
 30
0.0
 0
VERTEX
 8
PARTS
 10
  9.6500
 20
  6.2500
 30
0.0
 0
SEQEND
 8
PARTS
 0
POLYLINE
 8
PARTS
 66
1
 10
0.0
 20
0.0
 30
0.0
 0
VERTEX
 8
PARTS
 10
  9.7000
 20
  6.2000
 30
0.0
 0
VERTEX
 8
PARTS
 10
  9.7500
 20
  6.2500
 30
0.0
 0
SEQEND
 8
PARTS
 0
POLYLINE
 8
PARTS
 66
1
 10
0.0
 20
0.0
 30
0.0
 0
VERTEX
 8
PARTS
 10
  9.7000
 20
  6.2500
 30
0.0
 0
VERTEX
 8
PARTS
 10
  9.6500
 20
  6.3000
 30
0.0
 0
SEQEND
 8
PARTS
 0
POLYLINE
 8
PARTS
 66
1
 10
0.0
 20
0.0
 30
0.0
 0
VERTEX
 8
PARTS
 10
  9.7000
 20
  6.2500
 30
0.0
 0
VERTEX
 8
PARTS
 10
  9.7500
 20
  6.3000
 30
0.0
 0
SEQEND
 8
PARTS
 0
TEXT
 8
PARTTEXT
 10
 10.5200
 20
  6.1186
 30
0.0
 40
  0.0514
 1
PRES7_IN
 0
POLYLINE
 8
PARTS
 66
1
 10
0.0
 20
0.0
 30
0.0
 0
VERTEX
 8
PARTS
 10
 10.8000
 20
  6.2000
 30
0.0
 0
VERTEX
 8
PARTS
 10
 10.7500
 20
  6.2500
 30
0.0
 0
SEQEND
 8
PARTS
 0
POLYLINE
 8
PARTS
 66
1
 10
0.0
 20
0.0
 30
0.0
 0
VERTEX
 8
PARTS
 10
 10.8000
 20
  6.2000
 30
0.0
 0
VERTEX
 8
PARTS
 10
 10.8500
 20
  6.2500
 30
0.0
 0
SEQEND
 8
PARTS
 0
POLYLINE
 8
PARTS
 66
1
 10
0.0
 20
0.0
 30
0.0
 0
VERTEX
 8
PARTS
 10
 10.8000
 20
  6.2500
 30
0.0
 0
VERTEX
 8
PARTS
 10
 10.7500
 20
  6.3000
 30
0.0
 0
SEQEND
 8
PARTS
 0
POLYLINE
 8
PARTS
 66
1
 10
0.0
 20
0.0
 30
0.0
 0
VERTEX
 8
PARTS
 10
 10.8000
 20
  6.2500
 30
0.0
 0
VERTEX
 8
PARTS
 10
 10.8500
 20
  6.3000
 30
0.0
 0
SEQEND
 8
PARTS
 0
TEXT
 8
PARTTEXT
 10
 11.5200
 20
  6.1186
 30
0.0
 40
  0.0514
 1
PRES7_OUT
 0
POLYLINE
 8
PARTS
 66
1
 10
0.0
 20
0.0
 30
0.0
 0
VERTEX
 8
PARTS
 10
 11.8000
 20
  6.2000
 30
0.0
 0
VERTEX
 8
PARTS
 10
 11.7500
 20
  6.2500
 30
0.0
 0
SEQEND
 8
PARTS
 0
POLYLINE
 8
PARTS
 66
1
 10
0.0
 20
0.0
 30
0.0
 0
VERTEX
 8
PARTS
 10
 11.8000
 20
  6.2000
 30
0.0
 0
VERTEX
 8
PARTS
 10
 11.8500
 20
  6.2500
 30
0.0
 0
SEQEND
 8
PARTS
 0
POLYLINE
 8
PARTS
 66
1
 10
0.0
 20
0.0
 30
0.0
 0
VERTEX
 8
PARTS
 10
 11.8000
 20
  6.2500
 30
0.0
 0
VERTEX
 8
PARTS
 10
 11.7500
 20
  6.3000
 30
0.0
 0
SEQEND
 8
PARTS
 0
POLYLINE
 8
PARTS
 66
1
 10
0.0
 20
0.0
 30
0.0
 0
VERTEX
 8
PARTS
 10
 11.8000
 20
  6.2500
 30
0.0
 0
VERTEX
 8
PARTS
 10
 11.8500
 20
  6.3000
 30
0.0
 0
SEQEND
 8
PARTS
 0
TEXT
 8
PARTTEXT
 10
  4.1000
 20
  4.2786
 30
0.0
 40
  0.0514
 1
P1_IN
 0
POLYLINE
 8
PARTS
 66
1
 10
0.0
 20
0.0
 30
0.0
 0
VERTEX
 8
PARTS
 10
  4.1000
 20
  4.3000
 30
0.0
 0
VERTEX
 8
PARTS
 10
  4.0500
 20
  4.2500
 30
0.0
 0
SEQEND
 8
PARTS
 0
POLYLINE
 8
PARTS
 66
1
 10
0.0
 20
0.0
 30
0.0
 0
VERTEX
 8
PARTS
 10
  4.1000
 20
  4.3000
 30
0.0
 0
VERTEX
 8
PARTS
 10
  4.0500
 20
  4.3500
 30
0.0
 0
SEQEND
 8
PARTS
 0
POLYLINE
 8
PARTS
 66
1
 10
0.0
 20
0.0
 30
0.0
 0
VERTEX
 8
PARTS
 10
  4.0500
 20
  4.3000
 30
0.0
 0
VERTEX
 8
PARTS
 10
  4.0000
 20
  4.2500
 30
0.0
 0
SEQEND
 8
PARTS
 0
POLYLINE
 8
PARTS
 66
1
 10
0.0
 20
0.0
 30
0.0
 0
VERTEX
 8
PARTS
 10
  4.0500
 20
  4.3000
 30
0.0
 0
VERTEX
 8
PARTS
 10
  4.0000
 20
  4.3500
 30
0.0
 0
SEQEND
 8
PARTS
 0
TEXT
 8
PARTTEXT
 10
  2.1400
 20
  4.1786
 30
0.0
 40
  0.0514
 1
P2_IN
 0
POLYLINE
 8
PARTS
 66
1
 10
0.0
 20
0.0
 30
0.0
 0
VERTEX
 8
PARTS
 10
  2.4000
 20
  4.2000
 30
0.0
 0
VERTEX
 8
PARTS
 10
  2.4500
 20
  4.2500
 30
0.0
 0
SEQEND
 8
PARTS
 0
POLYLINE
 8
PARTS
 66
1
 10
0.0
 20
0.0
 30
0.0
 0
VERTEX
 8
PARTS
 10
  2.4000
 20
  4.2000
 30
0.0
 0
VERTEX
 8
PARTS
 10
  2.4500
 20
  4.1500
 30
0.0
 0
SEQEND
 8
PARTS
 0
POLYLINE
 8
PARTS
 66
1
 10
0.0
 20
0.0
 30
0.0
 0
VERTEX
 8
PARTS
 10
  2.4500
 20
  4.2000
 30
0.0
 0
VERTEX
 8
PARTS
 10
  2.5000
 20
  4.2500
 30
0.0
 0
SEQEND
 8
PARTS
 0
POLYLINE
 8
PARTS
 66
1
 10
0.0
 20
0.0
 30
0.0
 0
VERTEX
 8
PARTS
 10
  2.4500
 20
  4.2000
 30
0.0
 0
VERTEX
 8
PARTS
 10
  2.5000
 20
  4.1500
 30
0.0
 0
SEQEND
 8
PARTS
 0
TEXT
 8
PARTTEXT
 10
  2.1400
 20
  4.0786
 30
0.0
 40
  0.0514
 1
P4_IN
 0
POLYLINE
 8
PARTS
 66
1
 10
0.0
 20
0.0
 30
0.0
 0
VERTEX
 8
PARTS
 10
  2.4000
 20
  4.1000
 30
0.0
 0
VERTEX
 8
PARTS
 10
  2.4500
 20
  4.1500
 30
0.0
 0
SEQEND
 8
PARTS
 0
POLYLINE
 8
PARTS
 66
1
 10
0.0
 20
0.0
 30
0.0
 0
VERTEX
 8
PARTS
 10
  2.4000
 20
  4.1000
 30
0.0
 0
VERTEX
 8
PARTS
 10
  2.4500
 20
  4.0500
 30
0.0
 0
SEQEND
 8
PARTS
 0
POLYLINE
 8
PARTS
 66
1
 10
0.0
 20
0.0
 30
0.0
 0
VERTEX
 8
PARTS
 10
  2.4500
 20
  4.1000
 30
0.0
 0
VERTEX
 8
PARTS
 10
  2.5000
 20
  4.1500
 30
0.0
 0
SEQEND
 8
PARTS
 0
POLYLINE
 8
PARTS
 66
1
 10
0.0
 20
0.0
 30
0.0
 0
VERTEX
 8
PARTS
 10
  2.4500
 20
  4.1000
 30
0.0
 0
VERTEX
 8
PARTS
 10
  2.5000
 20
  4.0500
 30
0.0
 0
SEQEND
 8
PARTS
 0
TEXT
 8
PARTTEXT
 10
  2.1400
 20
  3.9786
 30
0.0
 40
  0.0514
 1
P6_IN
 0
POLYLINE
 8
PARTS
 66
1
 10
0.0
 20
0.0
 30
0.0
 0
VERTEX
 8
PARTS
 10
  2.4000
 20
  4.0000
 30
0.0
 0
VERTEX
 8
PARTS
 10
  2.4500
 20
  4.0500
 30
0.0
 0
SEQEND
 8
PARTS
 0
POLYLINE
 8
PARTS
 66
1
 10
0.0
 20
0.0
 30
0.0
 0
VERTEX
 8
PARTS
 10
  2.4000
 20
  4.0000
 30
0.0
 0
VERTEX
 8
PARTS
 10
  2.4500
 20
  3.9500
 30
0.0
 0
SEQEND
 8
PARTS
 0
POLYLINE
 8
PARTS
 66
1
 10
0.0
 20
0.0
 30
0.0
 0
VERTEX
 8
PARTS
 10
  2.4500
 20
  4.0000
 30
0.0
 0
VERTEX
 8
PARTS
 10
  2.5000
 20
  4.0500
 30
0.0
 0
SEQEND
 8
PARTS
 0
POLYLINE
 8
PARTS
 66
1
 10
0.0
 20
0.0
 30
0.0
 0
VERTEX
 8
PARTS
 10
  2.4500
 20
  4.0000
 30
0.0
 0
VERTEX
 8
PARTS
 10
  2.5000
 20
  3.9500
 30
0.0
 0
SEQEND
 8
PARTS
 0
TEXT
 8
PARTTEXT
 10
  4.1000
 20
  4.1786
 30
0.0
 40
  0.0514
 1
P3_IN
 0
POLYLINE
 8
PARTS
 66
1
 10
0.0
 20
0.0
 30
0.0
 0
VERTEX
 8
PARTS
 10
  4.1000
 20
  4.2000
 30
0.0
 0
VERTEX
 8
PARTS
 10
  4.0500
 20
  4.1500
 30
0.0
 0
SEQEND
 8
PARTS
 0
POLYLINE
 8
PARTS
 66
1
 10
0.0
 20
0.0
 30
0.0
 0
VERTEX
 8
PARTS
 10
  4.1000
 20
  4.2000
 30
0.0
 0
VERTEX
 8
PARTS
 10
  4.0500
 20
  4.2500
 30
0.0
 0
SEQEND
 8
PARTS
 0
POLYLINE
 8
PARTS
 66
1
 10
0.0
 20
0.0
 30
0.0
 0
VERTEX
 8
PARTS
 10
  4.0500
 20
  4.2000
 30
0.0
 0
VERTEX
 8
PARTS
 10
  4.0000
 20
  4.1500
 30
0.0
 0
SEQEND
 8
PARTS
 0
POLYLINE
 8
PARTS
 66
1
 10
0.0
 20
0.0
 30
0.0
 0
VERTEX
 8
PARTS
 10
  4.0500
 20
  4.2000
 30
0.0
 0
VERTEX
 8
PARTS
 10
  4.0000
 20
  4.2500
 30
0.0
 0
SEQEND
 8
PARTS
 0
TEXT
 8
PARTTEXT
 10
  4.1000
 20
  4.0786
 30
0.0
 40
  0.0514
 1
P5_IN
 0
POLYLINE
 8
PARTS
 66
1
 10
0.0
 20
0.0
 30
0.0
 0
VERTEX
 8
PARTS
 10
  4.1000
 20
  4.1000
 30
0.0
 0
VERTEX
 8
PARTS
 10
  4.0500
 20
  4.0500
 30
0.0
 0
SEQEND
 8
PARTS
 0
POLYLINE
 8
PARTS
 66
1
 10
0.0
 20
0.0
 30
0.0
 0
VERTEX
 8
PARTS
 10
  4.1000
 20
  4.1000
 30
0.0
 0
VERTEX
 8
PARTS
 10
  4.0500
 20
  4.1500
 30
0.0
 0
SEQEND
 8
PARTS
 0
POLYLINE
 8
PARTS
 66
1
 10
0.0
 20
0.0
 30
0.0
 0
VERTEX
 8
PARTS
 10
  4.0500
 20
  4.1000
 30
0.0
 0
VERTEX
 8
PARTS
 10
  4.0000
 20
  4.0500
 30
0.0
 0
SEQEND
 8
PARTS
 0
POLYLINE
 8
PARTS
 66
1
 10
0.0
 20
0.0
 30
0.0
 0
VERTEX
 8
PARTS
 10
  4.0500
 20
  4.1000
 30
0.0
 0
VERTEX
 8
PARTS
 10
  4.0000
 20
  4.1500
 30
0.0
 0
SEQEND
 8
PARTS
 0
TEXT
 8
PARTTEXT
 10
  4.1000
 20
  3.9786
 30
0.0
 40
  0.0514
 1
P7_IN
 0
POLYLINE
 8
PARTS
 66
1
 10
0.0
 20
0.0
 30
0.0
 0
VERTEX
 8
PARTS
 10
  4.1000
 20
  4.0000
 30
0.0
 0
VERTEX
 8
PARTS
 10
  4.0500
 20
  3.9500
 30
0.0
 0
SEQEND
 8
PARTS
 0
POLYLINE
 8
PARTS
 66
1
 10
0.0
 20
0.0
 30
0.0
 0
VERTEX
 8
PARTS
 10
  4.1000
 20
  4.0000
 30
0.0
 0
VERTEX
 8
PARTS
 10
  4.0500
 20
  4.0500
 30
0.0
 0
SEQEND
 8
PARTS
 0
POLYLINE
 8
PARTS
 66
1
 10
0.0
 20
0.0
 30
0.0
 0
VERTEX
 8
PARTS
 10
  4.0500
 20
  4.0000
 30
0.0
 0
VERTEX
 8
PARTS
 10
  4.0000
 20
  3.9500
 30
0.0
 0
SEQEND
 8
PARTS
 0
POLYLINE
 8
PARTS
 66
1
 10
0.0
 20
0.0
 30
0.0
 0
VERTEX
 8
PARTS
 10
  4.0500
 20
  4.0000
 30
0.0
 0
VERTEX
 8
PARTS
 10
  4.0000
 20
  4.0500
 30
0.0
 0
SEQEND
 8
PARTS
 0
TEXT
 8
PARTTEXT
 10
  4.1000
 20
  3.6786
 30
0.0
 40
  0.0514
 1
P1_OUT
 0
POLYLINE
 8
PARTS
 66
1
 10
0.0
 20
0.0
 30
0.0
 0
VERTEX
 8
PARTS
 10
  4.1000
 20
  3.7000
 30
0.0
 0
VERTEX
 8
PARTS
 10
  4.0500
 20
  3.6500
 30
0.0
 0
SEQEND
 8
PARTS
 0
POLYLINE
 8
PARTS
 66
1
 10
0.0
 20
0.0
 30
0.0
 0
VERTEX
 8
PARTS
 10
  4.1000
 20
  3.7000
 30
0.0
 0
VERTEX
 8
PARTS
 10
  4.0500
 20
  3.7500
 30
0.0
 0
SEQEND
 8
PARTS
 0
POLYLINE
 8
PARTS
 66
1
 10
0.0
 20
0.0
 30
0.0
 0
VERTEX
 8
PARTS
 10
  4.0500
 20
  3.7000
 30
0.0
 0
VERTEX
 8
PARTS
 10
  4.0000
 20
  3.6500
 30
0.0
 0
SEQEND
 8
PARTS
 0
POLYLINE
 8
PARTS
 66
1
 10
0.0
 20
0.0
 30
0.0
 0
VERTEX
 8
PARTS
 10
  4.0500
 20
  3.7000
 30
0.0
 0
VERTEX
 8
PARTS
 10
  4.0000
 20
  3.7500
 30
0.0
 0
SEQEND
 8
PARTS
 0
TEXT
 8
PARTTEXT
 10
  4.1000
 20
  3.4786
 30
0.0
 40
  0.0514
 1
P3_OUT
 0
POLYLINE
 8
PARTS
 66
1
 10
0.0
 20
0.0
 30
0.0
 0
VERTEX
 8
PARTS
 10
  4.1000
 20
  3.5000
 30
0.0
 0
VERTEX
 8
PARTS
 10
  4.0500
 20
  3.4500
 30
0.0
 0
SEQEND
 8
PARTS
 0
POLYLINE
 8
PARTS
 66
1
 10
0.0
 20
0.0
 30
0.0
 0
VERTEX
 8
PARTS
 10
  4.1000
 20
  3.5000
 30
0.0
 0
VERTEX
 8
PARTS
 10
  4.0500
 20
  3.5500
 30
0.0
 0
SEQEND
 8
PARTS
 0
POLYLINE
 8
PARTS
 66
1
 10
0.0
 20
0.0
 30
0.0
 0
VERTEX
 8
PARTS
 10
  4.0500
 20
  3.5000
 30
0.0
 0
VERTEX
 8
PARTS
 10
  4.0000
 20
  3.4500
 30
0.0
 0
SEQEND
 8
PARTS
 0
POLYLINE
 8
PARTS
 66
1
 10
0.0
 20
0.0
 30
0.0
 0
VERTEX
 8
PARTS
 10
  4.0500
 20
  3.5000
 30
0.0
 0
VERTEX
 8
PARTS
 10
  4.0000
 20
  3.5500
 30
0.0
 0
SEQEND
 8
PARTS
 0
TEXT
 8
PARTTEXT
 10
  4.1000
 20
  3.5786
 30
0.0
 40
  0.0514
 1
P2_OUT
 0
POLYLINE
 8
PARTS
 66
1
 10
0.0
 20
0.0
 30
0.0
 0
VERTEX
 8
PARTS
 10
  4.1000
 20
  3.6000
 30
0.0
 0
VERTEX
 8
PARTS
 10
  4.0500
 20
  3.5500
 30
0.0
 0
SEQEND
 8
PARTS
 0
POLYLINE
 8
PARTS
 66
1
 10
0.0
 20
0.0
 30
0.0
 0
VERTEX
 8
PARTS
 10
  4.1000
 20
  3.6000
 30
0.0
 0
VERTEX
 8
PARTS
 10
  4.0500
 20
  3.6500
 30
0.0
 0
SEQEND
 8
PARTS
 0
POLYLINE
 8
PARTS
 66
1
 10
0.0
 20
0.0
 30
0.0
 0
VERTEX
 8
PARTS
 10
  4.0500
 20
  3.6000
 30
0.0
 0
VERTEX
 8
PARTS
 10
  4.0000
 20
  3.5500
 30
0.0
 0
SEQEND
 8
PARTS
 0
POLYLINE
 8
PARTS
 66
1
 10
0.0
 20
0.0
 30
0.0
 0
VERTEX
 8
PARTS
 10
  4.0500
 20
  3.6000
 30
0.0
 0
VERTEX
 8
PARTS
 10
  4.0000
 20
  3.6500
 30
0.0
 0
SEQEND
 8
PARTS
 0
TEXT
 8
PARTTEXT
 10
  2.0500
 20
  3.4786
 30
0.0
 40
  0.0514
 1
P4_OUT
 0
POLYLINE
 8
PARTS
 66
1
 10
0.0
 20
0.0
 30
0.0
 0
VERTEX
 8
PARTS
 10
  2.4000
 20
  3.5000
 30
0.0
 0
VERTEX
 8
PARTS
 10
  2.4500
 20
  3.5500
 30
0.0
 0
SEQEND
 8
PARTS
 0
POLYLINE
 8
PARTS
 66
1
 10
0.0
 20
0.0
 30
0.0
 0
VERTEX
 8
PARTS
 10
  2.4000
 20
  3.5000
 30
0.0
 0
VERTEX
 8
PARTS
 10
  2.4500
 20
  3.4500
 30
0.0
 0
SEQEND
 8
PARTS
 0
POLYLINE
 8
PARTS
 66
1
 10
0.0
 20
0.0
 30
0.0
 0
VERTEX
 8
PARTS
 10
  2.4500
 20
  3.5000
 30
0.0
 0
VERTEX
 8
PARTS
 10
  2.5000
 20
  3.5500
 30
0.0
 0
SEQEND
 8
PARTS
 0
POLYLINE
 8
PARTS
 66
1
 10
0.0
 20
0.0
 30
0.0
 0
VERTEX
 8
PARTS
 10
  2.4500
 20
  3.5000
 30
0.0
 0
VERTEX
 8
PARTS
 10
  2.5000
 20
  3.4500
 30
0.0
 0
SEQEND
 8
PARTS
 0
TEXT
 8
PARTTEXT
 10
  2.0500
 20
  3.5786
 30
0.0
 40
  0.0514
 1
P5_OUT
 0
POLYLINE
 8
PARTS
 66
1
 10
0.0
 20
0.0
 30
0.0
 0
VERTEX
 8
PARTS
 10
  2.4000
 20
  3.6000
 30
0.0
 0
VERTEX
 8
PARTS
 10
  2.4500
 20
  3.6500
 30
0.0
 0
SEQEND
 8
PARTS
 0
POLYLINE
 8
PARTS
 66
1
 10
0.0
 20
0.0
 30
0.0
 0
VERTEX
 8
PARTS
 10
  2.4000
 20
  3.6000
 30
0.0
 0
VERTEX
 8
PARTS
 10
  2.4500
 20
  3.5500
 30
0.0
 0
SEQEND
 8
PARTS
 0
POLYLINE
 8
PARTS
 66
1
 10
0.0
 20
0.0
 30
0.0
 0
VERTEX
 8
PARTS
 10
  2.4500
 20
  3.6000
 30
0.0
 0
VERTEX
 8
PARTS
 10
  2.5000
 20
  3.6500
 30
0.0
 0
SEQEND
 8
PARTS
 0
POLYLINE
 8
PARTS
 66
1
 10
0.0
 20
0.0
 30
0.0
 0
VERTEX
 8
PARTS
 10
  2.4500
 20
  3.6000
 30
0.0
 0
VERTEX
 8
PARTS
 10
  2.5000
 20
  3.5500
 30
0.0
 0
SEQEND
 8
PARTS
 0
TEXT
 8
PARTTEXT
 10
  2.0500
 20
  3.6786
 30
0.0
 40
  0.0514
 1
P6_OUT
 0
POLYLINE
 8
PARTS
 66
1
 10
0.0
 20
0.0
 30
0.0
 0
VERTEX
 8
PARTS
 10
  2.4000
 20
  3.7000
 30
0.0
 0
VERTEX
 8
PARTS
 10
  2.4500
 20
  3.7500
 30
0.0
 0
SEQEND
 8
PARTS
 0
POLYLINE
 8
PARTS
 66
1
 10
0.0
 20
0.0
 30
0.0
 0
VERTEX
 8
PARTS
 10
  2.4000
 20
  3.7000
 30
0.0
 0
VERTEX
 8
PARTS
 10
  2.4500
 20
  3.6500
 30
0.0
 0
SEQEND
 8
PARTS
 0
POLYLINE
 8
PARTS
 66
1
 10
0.0
 20
0.0
 30
0.0
 0
VERTEX
 8
PARTS
 10
  2.4500
 20
  3.7000
 30
0.0
 0
VERTEX
 8
PARTS
 10
  2.5000
 20
  3.7500
 30
0.0
 0
SEQEND
 8
PARTS
 0
POLYLINE
 8
PARTS
 66
1
 10
0.0
 20
0.0
 30
0.0
 0
VERTEX
 8
PARTS
 10
  2.4500
 20
  3.7000
 30
0.0
 0
VERTEX
 8
PARTS
 10
  2.5000
 20
  3.6500
 30
0.0
 0
SEQEND
 8
PARTS
 0
TEXT
 8
PARTTEXT
 10
  2.0500
 20
  3.7786
 30
0.0
 40
  0.0514
 1
P7_OUT
 0
POLYLINE
 8
PARTS
 66
1
 10
0.0
 20
0.0
 30
0.0
 0
VERTEX
 8
PARTS
 10
  2.4000
 20
  3.8000
 30
0.0
 0
VERTEX
 8
PARTS
 10
  2.4500
 20
  3.8500
 30
0.0
 0
SEQEND
 8
PARTS
 0
POLYLINE
 8
PARTS
 66
1
 10
0.0
 20
0.0
 30
0.0
 0
VERTEX
 8
PARTS
 10
  2.4000
 20
  3.8000
 30
0.0
 0
VERTEX
 8
PARTS
 10
  2.4500
 20
  3.7500
 30
0.0
 0
SEQEND
 8
PARTS
 0
POLYLINE
 8
PARTS
 66
1
 10
0.0
 20
0.0
 30
0.0
 0
VERTEX
 8
PARTS
 10
  2.4500
 20
  3.8000
 30
0.0
 0
VERTEX
 8
PARTS
 10
  2.5000
 20
  3.8500
 30
0.0
 0
SEQEND
 8
PARTS
 0
POLYLINE
 8
PARTS
 66
1
 10
0.0
 20
0.0
 30
0.0
 0
VERTEX
 8
PARTS
 10
  2.4500
 20
  3.8000
 30
0.0
 0
VERTEX
 8
PARTS
 10
  2.5000
 20
  3.7500
 30
0.0
 0
SEQEND
 8
PARTS
 0
TEXT
 8
PARTTEXT
 10
  1.9300
 20
  3.8586
 30
0.0
 40
  0.0514
 1
GPIO3_15
 0
POLYLINE
 8
PARTS
 66
1
 10
0.0
 20
0.0
 30
0.0
 0
VERTEX
 8
PARTS
 10
  2.4000
 20
  3.9000
 30
0.0
 0
VERTEX
 8
PARTS
 10
  2.4500
 20
  3.9500
 30
0.0
 0
SEQEND
 8
PARTS
 0
POLYLINE
 8
PARTS
 66
1
 10
0.0
 20
0.0
 30
0.0
 0
VERTEX
 8
PARTS
 10
  2.4000
 20
  3.9000
 30
0.0
 0
VERTEX
 8
PARTS
 10
  2.4500
 20
  3.8500
 30
0.0
 0
SEQEND
 8
PARTS
 0
POLYLINE
 8
PARTS
 66
1
 10
0.0
 20
0.0
 30
0.0
 0
VERTEX
 8
PARTS
 10
  2.4500
 20
  3.9000
 30
0.0
 0
VERTEX
 8
PARTS
 10
  2.5000
 20
  3.9500
 30
0.0
 0
SEQEND
 8
PARTS
 0
POLYLINE
 8
PARTS
 66
1
 10
0.0
 20
0.0
 30
0.0
 0
VERTEX
 8
PARTS
 10
  2.4500
 20
  3.9000
 30
0.0
 0
VERTEX
 8
PARTS
 10
  2.5000
 20
  3.8500
 30
0.0
 0
SEQEND
 8
PARTS
 0
TEXT
 8
PARTTEXT
 10
  4.1000
 20
  4.7786
 30
0.0
 40
  0.0514
 1
GPIO3_14
 0
POLYLINE
 8
PARTS
 66
1
 10
0.0
 20
0.0
 30
0.0
 0
VERTEX
 8
PARTS
 10
  4.1000
 20
  4.8000
 30
0.0
 0
VERTEX
 8
PARTS
 10
  4.0500
 20
  4.7500
 30
0.0
 0
SEQEND
 8
PARTS
 0
POLYLINE
 8
PARTS
 66
1
 10
0.0
 20
0.0
 30
0.0
 0
VERTEX
 8
PARTS
 10
  4.1000
 20
  4.8000
 30
0.0
 0
VERTEX
 8
PARTS
 10
  4.0500
 20
  4.8500
 30
0.0
 0
SEQEND
 8
PARTS
 0
POLYLINE
 8
PARTS
 66
1
 10
0.0
 20
0.0
 30
0.0
 0
VERTEX
 8
PARTS
 10
  4.0500
 20
  4.8000
 30
0.0
 0
VERTEX
 8
PARTS
 10
  4.0000
 20
  4.7500
 30
0.0
 0
SEQEND
 8
PARTS
 0
POLYLINE
 8
PARTS
 66
1
 10
0.0
 20
0.0
 30
0.0
 0
VERTEX
 8
PARTS
 10
  4.0500
 20
  4.8000
 30
0.0
 0
VERTEX
 8
PARTS
 10
  4.0000
 20
  4.8500
 30
0.0
 0
SEQEND
 8
PARTS
 0
TEXT
 8
PARTTEXT
 10
  4.1000
 20
  4.5786
 30
0.0
 40
  0.0514
 1
GPIO3_17
 0
POLYLINE
 8
PARTS
 66
1
 10
0.0
 20
0.0
 30
0.0
 0
VERTEX
 8
PARTS
 10
  4.1000
 20
  4.6000
 30
0.0
 0
VERTEX
 8
PARTS
 10
  4.0500
 20
  4.5500
 30
0.0
 0
SEQEND
 8
PARTS
 0
POLYLINE
 8
PARTS
 66
1
 10
0.0
 20
0.0
 30
0.0
 0
VERTEX
 8
PARTS
 10
  4.1000
 20
  4.6000
 30
0.0
 0
VERTEX
 8
PARTS
 10
  4.0500
 20
  4.6500
 30
0.0
 0
SEQEND
 8
PARTS
 0
POLYLINE
 8
PARTS
 66
1
 10
0.0
 20
0.0
 30
0.0
 0
VERTEX
 8
PARTS
 10
  4.0500
 20
  4.6000
 30
0.0
 0
VERTEX
 8
PARTS
 10
  4.0000
 20
  4.5500
 30
0.0
 0
SEQEND
 8
PARTS
 0
POLYLINE
 8
PARTS
 66
1
 10
0.0
 20
0.0
 30
0.0
 0
VERTEX
 8
PARTS
 10
  4.0500
 20
  4.6000
 30
0.0
 0
VERTEX
 8
PARTS
 10
  4.0000
 20
  4.6500
 30
0.0
 0
SEQEND
 8
PARTS
 0
TEXT
 8
PARTTEXT
 10
  1.9700
 20
  4.4786
 30
0.0
 40
  0.0514
 1
GPIO1_19
 0
POLYLINE
 8
PARTS
 66
1
 10
0.0
 20
0.0
 30
0.0
 0
VERTEX
 8
PARTS
 10
  2.4000
 20
  4.5000
 30
0.0
 0
VERTEX
 8
PARTS
 10
  2.4500
 20
  4.5500
 30
0.0
 0
SEQEND
 8
PARTS
 0
POLYLINE
 8
PARTS
 66
1
 10
0.0
 20
0.0
 30
0.0
 0
VERTEX
 8
PARTS
 10
  2.4000
 20
  4.5000
 30
0.0
 0
VERTEX
 8
PARTS
 10
  2.4500
 20
  4.4500
 30
0.0
 0
SEQEND
 8
PARTS
 0
POLYLINE
 8
PARTS
 66
1
 10
0.0
 20
0.0
 30
0.0
 0
VERTEX
 8
PARTS
 10
  2.4500
 20
  4.5000
 30
0.0
 0
VERTEX
 8
PARTS
 10
  2.5000
 20
  4.5500
 30
0.0
 0
SEQEND
 8
PARTS
 0
POLYLINE
 8
PARTS
 66
1
 10
0.0
 20
0.0
 30
0.0
 0
VERTEX
 8
PARTS
 10
  2.4500
 20
  4.5000
 30
0.0
 0
VERTEX
 8
PARTS
 10
  2.5000
 20
  4.4500
 30
0.0
 0
SEQEND
 8
PARTS
 0
TEXT
 8
PARTTEXT
 10
  4.1000
 20
  4.4786
 30
0.0
 40
  0.0514
 1
GPIO3_16
 0
POLYLINE
 8
PARTS
 66
1
 10
0.0
 20
0.0
 30
0.0
 0
VERTEX
 8
PARTS
 10
  4.1000
 20
  4.5000
 30
0.0
 0
VERTEX
 8
PARTS
 10
  4.0500
 20
  4.4500
 30
0.0
 0
SEQEND
 8
PARTS
 0
POLYLINE
 8
PARTS
 66
1
 10
0.0
 20
0.0
 30
0.0
 0
VERTEX
 8
PARTS
 10
  4.1000
 20
  4.5000
 30
0.0
 0
VERTEX
 8
PARTS
 10
  4.0500
 20
  4.5500
 30
0.0
 0
SEQEND
 8
PARTS
 0
POLYLINE
 8
PARTS
 66
1
 10
0.0
 20
0.0
 30
0.0
 0
VERTEX
 8
PARTS
 10
  4.0500
 20
  4.5000
 30
0.0
 0
VERTEX
 8
PARTS
 10
  4.0000
 20
  4.4500
 30
0.0
 0
SEQEND
 8
PARTS
 0
POLYLINE
 8
PARTS
 66
1
 10
0.0
 20
0.0
 30
0.0
 0
VERTEX
 8
PARTS
 10
  4.0500
 20
  4.5000
 30
0.0
 0
VERTEX
 8
PARTS
 10
  4.0000
 20
  4.5500
 30
0.0
 0
SEQEND
 8
PARTS
 0
TEXT
 8
COMMENTS
 10
  8.4000
 20
  7.7186
 30
0.0
 40
  0.0514
 1
PEDAL[x]_OUT goes to the input of an effect pedal
 0
TEXT
 8
COMMENTS
 10
  8.4000
 20
  7.6586
 30
0.0
 40
  0.0514
 1
 
 0
TEXT
 8
COMMENTS
 10
  8.4000
 20
  7.5986
 30
0.0
 40
  0.0514
 1
PEDAL[x]_IN comes from the output of an effect pedal
 0
ENDSEC
 0
EOF
